<?xml version="1.0" standalone="no"?>
 <!DOCTYPE svg PUBLIC "-//W3C//DTD SVG 1.1//EN" 
 "http://www.w3.org/Graphics/SVG/1.1/DTD/svg11.dtd"> 
<svg xmlns="http://www.w3.org/2000/svg" version="1.1" 
    width="10.1778cm" height="10.1778cm" viewBox="0 0 40070 40070 ">
<title>SVG Picture created as 2018-03-08 Intercourse 01-brd.svg date 2018/03/27 00:48:11 </title>
  <desc>Picture generated by PCBNEW </desc>
<g style="fill:#000000; fill-opacity:1;stroke:#000000; stroke-opacity:1;
stroke-linecap:round; stroke-linejoin:round; "
 transform="translate(0 0) scale(1 1)">
</g>
<g style="fill:#000000; fill-opacity:0.0; 
stroke:#000000; stroke-width:-0.000393701; stroke-opacity:1; 
stroke-linecap:round; stroke-linejoin:round;">
</g>
<g style="fill:#008484; fill-opacity:0.0; 
stroke:#008484; stroke-width:-0.000393701; stroke-opacity:1; 
stroke-linecap:round; stroke-linejoin:round;">
</g>
<g style="fill:#008484; fill-opacity:0.0; 
stroke:#008484; stroke-width:47.2441; stroke-opacity:1; 
stroke-linecap:round; stroke-linejoin:round;">
<path d="M19241 21024
L19241 20631
" />
<path d="M18572 20631
L18572 21024
" />
<path d="M7092 12624
L7486 12624
" />
<path d="M7486 11954
L7092 11954
" />
<path d="M21241 21032
L21241 20639
" />
<path d="M20572 20639
L20572 21032
" />
<path d="M7092 15124
L7486 15124
" />
<path d="M7486 14454
L7092 14454
" />
<path d="M28025 13651
L28025 13927
" />
<path d="M27553 13927
L27553 13651
" />
<path d="M26401 14803
L26677 14803
" />
<path d="M26677 15275
L26401 15275
" />
<path d="M26736 19204
L26342 19204
" />
<path d="M26342 19874
L26736 19874
" />
<path d="M26551 12775
L26275 12775
" />
<path d="M26275 12303
L26551 12303
" />
<path d="M29177 11775
L28901 11775
" />
<path d="M28901 11303
L29177 11303
" />
<path d="M21342 12624
L21736 12624
" />
<path d="M21736 11954
L21342 11954
" />
<path d="M23053 11177
L23053 10901
" />
<path d="M23525 10901
L23525 11177
" />
<path d="M21933 25834
L20673 25834
" />
<path d="M20673 25244
L21933 25244
" />
<path d="M20673 25244
L20673 25834
" />
<path d="M24933 25834
L23673 25834
" />
<path d="M23673 25244
L24933 25244
" />
<path d="M23673 25244
L23673 25834
" />
<path d="M27933 25834
L26673 25834
" />
<path d="M26673 25244
L27933 25244
" />
<path d="M26673 25244
L26673 25834
" />
<path d="M30933 25834
L29673 25834
" />
<path d="M29673 25244
L30933 25244
" />
<path d="M29673 25244
L29673 25834
" />
<path d="M33933 25834
L32673 25834
" />
<path d="M32673 25244
L33933 25244
" />
<path d="M32673 25244
L32673 25834
" />
<path d="M7596 21318
L7596 21909
" />
<path d="M7596 21909
L4738 21909
" />
<path d="M7596 18169
L4738 18169
" />
<path d="M7596 18169
L7596 18759
" />
<path d="M5885 13303
L5885 13775
" />
<path d="M5192 13775
L5192 13303
" />
<path d="M18271 16942
L18744 16942
" />
<path d="M18744 17635
L18271 17635
" />
<path d="M20807 17635
L20334 17635
" />
<path d="M20334 16942
L20807 16942
" />
<path d="M26303 20192
L26775 20192
" />
<path d="M26775 20885
L26303 20885
" />
<path d="M28385 19803
L28385 20275
" />
<path d="M27692 20275
L27692 19803
" />
<path d="M24442 11275
L24442 10803
" />
<path d="M25135 10803
L25135 11275
" />
<path d="M24385 17334
L24385 17807
" />
<path d="M23692 17807
L23692 17334
" />
<path d="M21775 24885
L21303 24885
" />
<path d="M21303 24192
L21775 24192
" />
<path d="M24775 24885
L24303 24885
" />
<path d="M24303 24192
L24775 24192
" />
<path d="M27775 24885
L27303 24885
" />
<path d="M27303 24192
L27775 24192
" />
<path d="M30775 24885
L30303 24885
" />
<path d="M30303 24192
L30775 24192
" />
<path d="M33775 24885
L33303 24885
" />
<path d="M33303 24192
L33775 24192
" />
<path d="M21303 13942
L21775 13942
" />
<path d="M21775 14635
L21303 14635
" />
<path d="M21303 14942
L21775 14942
" />
<path d="M21775 15635
L21303 15635
" />
<path d="M21303 12942
L21775 12942
" />
<path d="M21775 13635
L21303 13635
" />
</g>
<g style="fill:#008484; fill-opacity:0.0; 
stroke:#008484; stroke-width:59.0551; stroke-opacity:1; 
stroke-linecap:round; stroke-linejoin:round;">
<path d="M6399 13323
L6399 13776
" />
<path d="M7679 13018
L7679 13776
" />
<path d="M23025 20856
L23045 20856
" />
<path d="M23025 19222
L23082 19222
" />
<path d="M25053 19222
L24996 19222
" />
<path d="M25053 20856
L24996 20856
" />
<path d="M23025 20856
L23025 19222
" />
<path d="M25053 20856
L25053 19222
" />
<path d="M23045 20856
L23045 21407
" />
<path d="M25072 14572
L24866 14572
" />
<path d="M23005 12505
L23212 12505
" />
<path d="M23005 14572
L23212 14572
" />
<path d="M25072 12505
L25072 12712
" />
<path d="M23005 12505
L23005 12712
" />
<path d="M23005 14572
L23005 14366
" />
<path d="M25072 14572
L25072 14366
" />
</g>
<g style="fill:#008484; fill-opacity:0.0; 
stroke:#008484; stroke-width:47.2441; stroke-opacity:1; 
stroke-linecap:round; stroke-linejoin:round;">
<path d="M27326 14438
L27326 13139
" />
<path d="M27326 13139
L25751 13139
" />
</g>
<g style="fill:#000000; fill-opacity:0.0; 
stroke:#000000; stroke-width:47.2441; stroke-opacity:1; 
stroke-linecap:round; stroke-linejoin:round;">
</g>
<g style="fill:#C2C200; fill-opacity:0.0; 
stroke:#C2C200; stroke-width:47.2441; stroke-opacity:1; 
stroke-linecap:round; stroke-linejoin:round;">
</g>
<g style="fill:#C2C200; fill-opacity:0.0; 
stroke:#C2C200; stroke-width:59.0551; stroke-opacity:1; 
stroke-linecap:round; stroke-linejoin:round;">
<path d="M11614 16295
L19881 16295
" />
<path d="M11614 16295
L11614 10783
" />
<path d="M19881 16295
L19881 10783
" />
<path d="M11614 10783
L19881 10783
" />
</g>
<g style="fill:#C2C200; fill-opacity:0.0; 
stroke:#C2C200; stroke-width:39.3701; stroke-opacity:1; 
stroke-linecap:round; stroke-linejoin:round;">
<path d="M18662 20434
L19151 20434
" />
<path d="M18662 21221
L18662 20434
" />
<path d="M19151 21221
L18662 21221
" />
<path d="M19151 20434
L19151 21221
" />
<path d="M7683 12045
L7683 12533
" />
<path d="M6895 12045
L7683 12045
" />
<path d="M6895 12533
L6895 12045
" />
<path d="M7683 12533
L6895 12533
" />
<path d="M20662 20442
L21151 20442
" />
<path d="M20662 21229
L20662 20442
" />
<path d="M21151 21229
L20662 21229
" />
<path d="M21151 20442
L21151 21229
" />
<path d="M7683 14545
L7683 15033
" />
<path d="M6895 14545
L7683 14545
" />
<path d="M6895 15033
L6895 14545
" />
<path d="M7683 15033
L6895 15033
" />
<path d="M27631 13474
L27946 13474
" />
<path d="M27631 14104
L27631 13474
" />
<path d="M27946 14104
L27631 14104
" />
<path d="M27946 13474
L27946 14104
" />
<path d="M26224 15196
L26224 14881
" />
<path d="M26854 15196
L26224 15196
" />
<path d="M26854 14881
L26854 15196
" />
<path d="M26224 14881
L26854 14881
" />
<path d="M26145 19783
L26145 19295
" />
<path d="M26933 19783
L26145 19783
" />
<path d="M26933 19295
L26933 19783
" />
<path d="M26145 19295
L26933 19295
" />
<path d="M26728 12381
L26728 12696
" />
<path d="M26098 12381
L26728 12381
" />
<path d="M26098 12696
L26098 12381
" />
<path d="M26728 12696
L26098 12696
" />
<path d="M29354 11381
L29354 11696
" />
<path d="M28724 11381
L29354 11381
" />
<path d="M28724 11696
L28724 11381
" />
<path d="M29354 11696
L28724 11696
" />
<path d="M21933 12045
L21933 12533
" />
<path d="M21145 12045
L21933 12045
" />
<path d="M21145 12533
L21145 12045
" />
<path d="M21933 12533
L21145 12533
" />
<path d="M23446 11354
L23131 11354
" />
<path d="M23446 10724
L23446 11354
" />
<path d="M23131 10724
L23446 10724
" />
<path d="M23131 11354
L23131 10724
" />
<path d="M21381 25381
L21381 25696
" />
<path d="M21381 25539
L21618 25381
" />
<path d="M21618 25696
L21381 25539
" />
<path d="M21618 25381
L21618 25696
" />
<path d="M21145 25783
L21145 25295
" />
<path d="M21933 25783
L21145 25783
" />
<path d="M21933 25295
L21933 25783
" />
<path d="M21145 25295
L21933 25295
" />
<path d="M24381 25381
L24381 25696
" />
<path d="M24381 25539
L24618 25381
" />
<path d="M24618 25696
L24381 25539
" />
<path d="M24618 25381
L24618 25696
" />
<path d="M24145 25783
L24145 25295
" />
<path d="M24933 25783
L24145 25783
" />
<path d="M24933 25295
L24933 25783
" />
<path d="M24145 25295
L24933 25295
" />
<path d="M27381 25381
L27381 25696
" />
<path d="M27381 25539
L27618 25381
" />
<path d="M27618 25696
L27381 25539
" />
<path d="M27618 25381
L27618 25696
" />
<path d="M27145 25783
L27145 25295
" />
<path d="M27933 25783
L27145 25783
" />
<path d="M27933 25295
L27933 25783
" />
<path d="M27145 25295
L27933 25295
" />
<path d="M30381 25381
L30381 25696
" />
<path d="M30381 25539
L30618 25381
" />
<path d="M30618 25696
L30381 25539
" />
<path d="M30618 25381
L30618 25696
" />
<path d="M30145 25783
L30145 25295
" />
<path d="M30933 25783
L30145 25783
" />
<path d="M30933 25295
L30933 25783
" />
<path d="M30145 25295
L30933 25295
" />
<path d="M33381 25381
L33381 25696
" />
<path d="M33381 25539
L33618 25381
" />
<path d="M33618 25696
L33381 25539
" />
<path d="M33618 25381
L33618 25696
" />
<path d="M33145 25783
L33145 25295
" />
<path d="M33933 25783
L33145 25783
" />
<path d="M33933 25295
L33933 25783
" />
<path d="M33145 25295
L33933 25295
" />
<path d="M3423 21850
L7537 21850
" />
<path d="M3423 18228
L3423 21850
" />
<path d="M7537 18228
L7537 21850
" />
<path d="M3423 18228
L7537 18228
" />
<path d="M5783 13933
L5295 13933
" />
<path d="M5783 13145
L5783 13933
" />
<path d="M5295 13145
L5783 13145
" />
<path d="M5295 13933
L5295 13145
" />
<path d="M18901 17045
L18901 17533
" />
<path d="M18114 17045
L18901 17045
" />
<path d="M18114 17533
L18114 17045
" />
<path d="M18901 17533
L18114 17533
" />
<path d="M20177 17533
L20177 17045
" />
<path d="M20964 17533
L20177 17533
" />
<path d="M20964 17045
L20964 17533
" />
<path d="M20177 17045
L20964 17045
" />
<path d="M26933 20295
L26933 20783
" />
<path d="M26145 20295
L26933 20295
" />
<path d="M26145 20783
L26145 20295
" />
<path d="M26933 20783
L26145 20783
" />
<path d="M28283 20433
L27795 20433
" />
<path d="M28283 19645
L28283 20433
" />
<path d="M27795 19645
L28283 19645
" />
<path d="M27795 20433
L27795 19645
" />
<path d="M24545 10645
L25033 10645
" />
<path d="M24545 11433
L24545 10645
" />
<path d="M25033 11433
L24545 11433
" />
<path d="M25033 10645
L25033 11433
" />
<path d="M24283 17964
L23795 17964
" />
<path d="M24283 17177
L24283 17964
" />
<path d="M23795 17177
L24283 17177
" />
<path d="M23795 17964
L23795 17177
" />
<path d="M21145 24783
L21145 24295
" />
<path d="M21933 24783
L21145 24783
" />
<path d="M21933 24295
L21933 24783
" />
<path d="M21145 24295
L21933 24295
" />
<path d="M24145 24783
L24145 24295
" />
<path d="M24933 24783
L24145 24783
" />
<path d="M24933 24295
L24933 24783
" />
<path d="M24145 24295
L24933 24295
" />
<path d="M27145 24783
L27145 24295
" />
<path d="M27933 24783
L27145 24783
" />
<path d="M27933 24295
L27933 24783
" />
<path d="M27145 24295
L27933 24295
" />
<path d="M30145 24783
L30145 24295
" />
<path d="M30933 24783
L30145 24783
" />
<path d="M30933 24295
L30933 24783
" />
<path d="M30145 24295
L30933 24295
" />
<path d="M33145 24783
L33145 24295
" />
<path d="M33933 24783
L33145 24783
" />
<path d="M33933 24295
L33933 24783
" />
<path d="M33145 24295
L33933 24295
" />
<path d="M21933 14045
L21933 14533
" />
<path d="M21145 14045
L21933 14045
" />
<path d="M21145 14533
L21145 14045
" />
<path d="M21933 14533
L21145 14533
" />
<path d="M21933 15045
L21933 15533
" />
<path d="M21145 15045
L21933 15045
" />
<path d="M21145 15533
L21145 15045
" />
<path d="M21933 15533
L21145 15533
" />
<path d="M21933 13045
L21933 13533
" />
<path d="M21145 13045
L21933 13045
" />
<path d="M21145 13533
L21145 13045
" />
<path d="M21933 13533
L21145 13533
" />
</g>
<g style="fill:#C2C200; fill-opacity:0.0; 
stroke:#C2C200; stroke-width:59.0551; stroke-opacity:1; 
stroke-linecap:round; stroke-linejoin:round;">
<path d="M7629 13550
L7629 13944
" />
<path d="M7629 13944
L6448 13944
" />
<path d="M6448 13944
L6448 13156
" />
<path d="M6448 13156
L7236 13156
" />
<path d="M7236 13156
L7629 13550
" />
</g>
<g style="fill:#C2C200; fill-opacity:0.0; 
stroke:#C2C200; stroke-width:39.3701; stroke-opacity:1; 
stroke-linecap:round; stroke-linejoin:round;">
<path d="M23074 20413
L23074 19271
" />
<path d="M23074 19271
L25003 19271
" />
<path d="M25003 19271
L25003 20807
" />
<path d="M25003 20807
L23468 20807
" />
<path d="M23468 20807
L23074 20413
" />
</g>
<g style="fill:#C2C200; fill-opacity:0.0; 
stroke:#C2C200; stroke-width:59.0551; stroke-opacity:1; 
stroke-linecap:round; stroke-linejoin:round;">
<path d="M25023 12948
L25023 14523
" />
<path d="M25023 14523
L23055 14523
" />
<path d="M23055 14523
L23055 12555
" />
<path d="M23055 12555
L24629 12555
" />
<path d="M24629 12555
L25023 12948
" />
</g>
<g style="fill:#C2C200; fill-opacity:0.0; 
stroke:#C2C200; stroke-width:39.3701; stroke-opacity:1; 
stroke-linecap:round; stroke-linejoin:round;">
<path d="M27090 14281
L25988 14281
" />
<path d="M25988 14281
L25909 14202
" />
<path d="M25909 14202
L25909 13375
" />
<path d="M25909 13375
L25988 13297
" />
<path d="M25988 13297
L27090 13297
" />
<path d="M27090 13297
L27169 13375
" />
<path d="M27169 13375
L27169 14202
" />
<path d="M27169 14202
L27090 14281
" />
<path d="M27169 13690
L26775 13297
" />
</g>
<g style="fill:#C2C200; fill-opacity:0.0; 
stroke:#C2C200; stroke-width:59.0551; stroke-opacity:1; 
stroke-linecap:round; stroke-linejoin:round;">
<circle cx="19631.4" cy="20656.8" r="39.3701" /> 
<path d="M19513 20341
L20300 20341
" />
<path d="M20300 20341
L20300 20814
" />
<path d="M20300 20814
L19513 20814
" />
<path d="M19513 20814
L19513 20341
" />
<path d="M12717 14223
L12323 14223
L12323 14129
L12342 14073
L12380 14036
L12417 14017
L12492 13998
L12548 13998
L12623 14017
L12661 14036
L12698 14073
L12717 14129
L12717 14223
" />
<path d="M12717 13829
L12323 13829
L12604 13698
L12323 13567
L12717 13567
" />
<path d="M12511 13248
L12511 13380
" />
<path d="M12717 13380
L12323 13380
L12323 13192
" />
<path d="M12323 13080
L12323 12836
L12473 12967
L12473 12911
L12492 12873
L12511 12855
L12548 12836
L12642 12836
L12679 12855
L12698 12873
L12717 12911
L12717 13023
L12698 13061
L12679 13080
" />
<path d="M11011 13511
L11029 13455
L11048 13436
L11086 13417
L11142 13417
L11179 13436
L11198 13455
L11217 13492
L11217 13642
L10823 13642
L10823 13511
L10842 13473
L10861 13455
L10898 13436
L10936 13436
L10973 13455
L10992 13473
L11011 13511
L11011 13642
" />
<path d="M11067 12189
L11067 11889
" />
<path d="M11217 12039
L10917 12039
" />
<path d="M11067 15189
L11067 14889
" />
<path d="M19736 20893
L19755 20912
L19774 20968
L19774 21006
L19755 21062
L19717 21099
L19680 21118
L19605 21137
L19549 21137
L19474 21118
L19436 21099
L19399 21062
L19380 21006
L19380 20968
L19399 20912
L19417 20893
" />
<path d="M19417 20743
L19399 20724
L19380 20687
L19380 20593
L19399 20556
L19417 20537
L19455 20518
L19492 20518
L19549 20537
L19774 20762
L19774 20518
" />
<path d="M7026 11778
L6801 11778
" />
<path d="M6914 11778
L6914 11384
L6876 11441
L6839 11478
L6801 11497
" />
<path d="M7195 11516
L7195 11909
" />
<path d="M7383 11722
L7401 11759
L7439 11778
" />
<path d="M7195 11722
L7214 11759
L7251 11778
L7326 11778
L7364 11759
L7383 11722
L7383 11516
" />
<path d="M7739 11572
L7608 11572
" />
<path d="M7608 11778
L7608 11384
L7795 11384
" />
<path d="M7223 13118
L7205 13137
L7148 13156
L7111 13156
L7055 13137
L7017 13100
L6998 13062
L6980 12987
L6980 12931
L6998 12856
L7017 12818
L7055 12781
L7111 12762
L7148 12762
L7205 12781
L7223 12800
" />
<path d="M7354 12762
L7598 12762
L7467 12912
L7523 12912
L7561 12931
L7579 12950
L7598 12987
L7598 13081
L7579 13118
L7561 13137
L7523 13156
L7411 13156
L7373 13137
L7354 13118
" />
<path d="M21736 20901
L21755 20920
L21774 20976
L21774 21014
L21755 21070
L21717 21107
L21680 21126
L21605 21145
L21549 21145
L21474 21126
L21436 21107
L21399 21070
L21380 21014
L21380 20976
L21399 20920
L21417 20901
" />
<path d="M21511 20564
L21774 20564
" />
<path d="M21361 20657
L21642 20751
L21642 20507
" />
<path d="M7223 15618
L7205 15637
L7148 15656
L7111 15656
L7055 15637
L7017 15600
L6998 15562
L6980 15487
L6980 15431
L6998 15356
L7017 15318
L7055 15281
L7111 15262
L7148 15262
L7205 15281
L7223 15300
" />
<path d="M7579 15262
L7392 15262
L7373 15450
L7392 15431
L7429 15412
L7523 15412
L7561 15431
L7579 15450
L7598 15487
L7598 15581
L7579 15618
L7561 15637
L7523 15656
L7429 15656
L7392 15637
L7373 15618
" />
<path d="M27376 14211
L27376 14436
" />
<path d="M27376 14323
L26983 14323
L27039 14361
L27076 14398
L27095 14436
" />
<path d="M26983 13967
L26983 13929
L27001 13892
L27020 13873
L27058 13854
L27133 13836
L27226 13836
L27301 13854
L27339 13873
L27358 13892
L27376 13929
L27376 13967
L27358 14004
L27339 14023
L27301 14042
L27226 14061
L27133 14061
L27058 14042
L27020 14023
L27001 14004
L26983 13967
" />
<path d="M27114 13667
L27508 13667
" />
<path d="M27133 13667
L27114 13630
L27114 13555
L27133 13517
L27151 13498
L27189 13480
L27301 13480
L27339 13498
L27358 13517
L27376 13555
L27376 13630
L27358 13667
" />
<path d="M27170 13180
L27170 13311
" />
<path d="M27376 13311
L26983 13311
L26983 13123
" />
<path d="M28422 13854
L28440 13873
L28459 13929
L28459 13967
L28440 14023
L28403 14061
L28365 14079
L28290 14098
L28234 14098
L28159 14079
L28122 14061
L28084 14023
L28065 13967
L28065 13929
L28084 13873
L28103 13854
" />
<path d="M28065 13517
L28065 13592
L28084 13630
L28103 13648
L28159 13686
L28234 13705
L28384 13705
L28422 13686
L28440 13667
L28459 13630
L28459 13555
L28440 13517
L28422 13498
L28384 13480
L28290 13480
L28253 13498
L28234 13517
L28215 13555
L28215 13630
L28234 13667
L28253 13686
L28290 13705
" />
<path d="M26117 15808
L25892 15808
" />
<path d="M26005 15808
L26005 15414
L25967 15470
L25930 15508
L25892 15526
" />
<path d="M26361 15414
L26398 15414
L26436 15433
L26455 15451
L26473 15489
L26492 15564
L26492 15658
L26473 15733
L26455 15770
L26436 15789
L26398 15808
L26361 15808
L26323 15789
L26305 15770
L26286 15733
L26267 15658
L26267 15564
L26286 15489
L26305 15451
L26323 15433
L26361 15414
" />
<path d="M26661 15545
L26661 15939
" />
<path d="M26661 15564
L26698 15545
L26773 15545
L26811 15564
L26829 15583
L26848 15620
L26848 15733
L26829 15770
L26811 15789
L26773 15808
L26698 15808
L26661 15789
" />
<path d="M27148 15601
L27017 15601
" />
<path d="M27017 15808
L27017 15414
L27204 15414
" />
<path d="M26473 14687
L26455 14706
L26398 14725
L26361 14725
L26305 14706
L26267 14669
L26248 14631
L26230 14556
L26230 14500
L26248 14425
L26267 14387
L26305 14350
L26361 14331
L26398 14331
L26455 14350
L26473 14369
" />
<path d="M26604 14331
L26867 14331
L26698 14725
" />
<path d="M26089 20406
L25864 20406
" />
<path d="M25976 20406
L25976 20012
L25939 20068
L25901 20106
L25864 20125
" />
<path d="M26333 20012
L26370 20012
L26408 20031
L26426 20050
L26445 20087
L26464 20162
L26464 20256
L26445 20331
L26426 20368
L26408 20387
L26370 20406
L26333 20406
L26295 20387
L26276 20368
L26258 20331
L26239 20256
L26239 20162
L26258 20087
L26276 20050
L26295 20031
L26333 20012
" />
<path d="M26633 20143
L26633 20537
" />
<path d="M26820 20350
L26839 20387
L26876 20406
" />
<path d="M26633 20350
L26651 20387
L26689 20406
L26764 20406
L26801 20387
L26820 20350
L26820 20143
" />
<path d="M27176 20200
L27045 20200
" />
<path d="M27045 20406
L27045 20012
L27233 20012
" />
<path d="M26473 18991
L26455 19009
L26398 19028
L26361 19028
L26305 19009
L26267 18972
L26248 18934
L26230 18859
L26230 18803
L26248 18728
L26267 18691
L26305 18653
L26361 18634
L26398 18634
L26455 18653
L26473 18672
" />
<path d="M26698 18803
L26661 18784
L26642 18766
L26623 18728
L26623 18709
L26642 18672
L26661 18653
L26698 18634
L26773 18634
L26811 18653
L26829 18672
L26848 18709
L26848 18728
L26829 18766
L26811 18784
L26773 18803
L26698 18803
L26661 18822
L26642 18841
L26623 18878
L26623 18953
L26642 18991
L26661 19009
L26698 19028
L26773 19028
L26811 19009
L26829 18991
L26848 18953
L26848 18878
L26829 18841
L26811 18822
L26773 18803
" />
<path d="M26150 12126
L25925 12126
" />
<path d="M26038 12126
L26038 11733
L26000 11789
L25963 11826
L25925 11845
" />
<path d="M26319 11864
L26319 12258
" />
<path d="M26507 12070
L26525 12108
L26563 12126
" />
<path d="M26319 12070
L26338 12108
L26375 12126
L26450 12126
L26488 12108
L26507 12070
L26507 11864
" />
<path d="M26863 11920
L26732 11920
" />
<path d="M26732 12126
L26732 11733
L26919 11733
" />
<path d="M26347 13172
L26329 13190
L26272 13209
L26235 13209
L26179 13190
L26141 13153
L26122 13115
L26104 13040
L26104 12984
L26122 12909
L26141 12872
L26179 12834
L26235 12815
L26272 12815
L26329 12834
L26347 12853
" />
<path d="M26535 13209
L26610 13209
L26647 13190
L26666 13172
L26703 13115
L26722 13040
L26722 12890
L26703 12853
L26685 12834
L26647 12815
L26572 12815
L26535 12834
L26516 12853
L26497 12890
L26497 12984
L26516 13022
L26535 13040
L26572 13059
L26647 13059
L26685 13040
L26703 13022
L26722 12984
" />
<path d="M28505 10733
L28317 10733
L28298 10920
L28317 10901
L28355 10883
L28448 10883
L28486 10901
L28505 10920
L28523 10958
L28523 11051
L28505 11089
L28486 11108
L28448 11126
L28355 11126
L28317 11108
L28298 11089
" />
<path d="M28692 11089
L28711 11108
L28692 11126
L28673 11108
L28692 11089
L28692 11126
" />
<path d="M29048 10733
L28973 10733
L28936 10751
L28917 10770
L28880 10826
L28861 10901
L28861 11051
L28880 11089
L28898 11108
L28936 11126
L29011 11126
L29048 11108
L29067 11089
L29086 11051
L29086 10958
L29067 10920
L29048 10901
L29011 10883
L28936 10883
L28898 10901
L28880 10920
L28861 10958
" />
<path d="M29254 10864
L29254 11258
" />
<path d="M29254 10883
L29292 10864
L29367 10864
L29404 10883
L29423 10901
L29442 10939
L29442 11051
L29423 11089
L29404 11108
L29367 11126
L29292 11126
L29254 11108
" />
<path d="M29742 10920
L29611 10920
" />
<path d="M29611 11126
L29611 10733
L29798 10733
" />
<path d="M28786 12172
L28767 12190
L28711 12209
L28673 12209
L28617 12190
L28580 12153
L28561 12115
L28542 12040
L28542 11984
L28561 11909
L28580 11872
L28617 11834
L28673 11815
L28711 11815
L28767 11834
L28786 11853
" />
<path d="M29161 12209
L28936 12209
" />
<path d="M29048 12209
L29048 11815
L29011 11872
L28973 11909
L28936 11928
" />
<path d="M29404 11815
L29442 11815
L29479 11834
L29498 11853
L29517 11890
L29536 11965
L29536 12059
L29517 12134
L29498 12172
L29479 12190
L29442 12209
L29404 12209
L29367 12190
L29348 12172
L29329 12134
L29311 12059
L29311 11965
L29329 11890
L29348 11853
L29367 11834
L29404 11815
" />
<path d="M21286 13118
L21267 13137
L21211 13156
L21173 13156
L21117 13137
L21080 13100
L21061 13062
L21042 12987
L21042 12931
L21061 12856
L21080 12818
L21117 12781
L21173 12762
L21211 12762
L21267 12781
L21286 12800
" />
<path d="M21661 13156
L21436 13156
" />
<path d="M21548 13156
L21548 12762
L21511 12818
L21473 12856
L21436 12875
" />
<path d="M22036 13156
L21811 13156
" />
<path d="M21923 13156
L21923 12762
L21886 12818
L21848 12856
L21811 12875
" />
<path d="M23664 11714
L23664 11676
L23683 11639
L23701 11620
L23739 11601
L23814 11583
L23908 11583
L23983 11601
L24020 11620
L24039 11639
L24058 11676
L24058 11714
L24039 11751
L24020 11770
L23983 11789
L23908 11808
L23814 11808
L23739 11789
L23701 11770
L23683 11751
L23664 11714
" />
<path d="M24020 11414
L24039 11395
L24058 11414
L24039 11433
L24020 11414
L24058 11414
" />
<path d="M24058 11020
L24058 11245
" />
<path d="M24058 11133
L23664 11133
L23720 11170
L23758 11208
L23776 11245
" />
<path d="M23795 10851
L24189 10851
" />
<path d="M24001 10664
L24039 10645
L24058 10608
" />
<path d="M24001 10851
L24039 10833
L24058 10795
L24058 10720
L24039 10683
L24001 10664
L23795 10664
" />
<path d="M23851 10308
L23851 10439
" />
<path d="M24058 10439
L23664 10439
L23664 10251
" />
<path d="M22937 11292
L22956 11311
L22975 11367
L22975 11404
L22956 11461
L22919 11498
L22881 11517
L22806 11536
L22750 11536
L22675 11517
L22637 11498
L22600 11461
L22581 11404
L22581 11367
L22600 11311
L22619 11292
" />
<path d="M22975 10917
L22975 11142
" />
<path d="M22975 11029
L22581 11029
L22637 11067
L22675 11104
L22694 11142
" />
<path d="M22619 10767
L22600 10748
L22581 10711
L22581 10617
L22600 10580
L22619 10561
L22656 10542
L22694 10542
L22750 10561
L22975 10786
L22975 10542
" />
<path d="M21286 26406
L21098 26406
L21098 26012
" />
<path d="M21417 26200
L21548 26200
" />
<path d="M21604 26406
L21417 26406
L21417 26012
L21604 26012
" />
<path d="M21773 26406
L21773 26012
L21867 26012
L21923 26031
L21961 26068
L21979 26106
L21998 26181
L21998 26237
L21979 26312
L21961 26350
L21923 26387
L21867 26406
L21773 26406
" />
<path d="M2623 22645
L2942 22645
L2979 22626
L2998 22607
L3017 22570
L3017 22495
L2998 22457
L2979 22439
L2942 22420
L2623 22420
" />
<path d="M2998 22251
L3017 22195
L3017 22101
L2998 22064
L2979 22045
L2942 22026
L2904 22026
L2867 22045
L2848 22064
L2829 22101
L2811 22176
L2792 22214
L2773 22232
L2736 22251
L2698 22251
L2661 22232
L2642 22214
L2623 22176
L2623 22082
L2642 22026
" />
<path d="M2811 21726
L2829 21670
L2848 21651
L2886 21632
L2942 21632
L2979 21651
L2998 21670
L3017 21707
L3017 21857
L2623 21857
L2623 21726
L2642 21689
L2661 21670
L2698 21651
L2736 21651
L2773 21670
L2792 21689
L2811 21726
L2811 21857
" />
<path d="M3054 21557
L3054 21257
" />
<path d="M2979 20939
L2998 20958
L3017 21014
L3017 21051
L2998 21107
L2961 21145
L2923 21164
L2848 21182
L2792 21182
L2717 21164
L2680 21145
L2642 21107
L2623 21051
L2623 21014
L2642 20958
L2661 20939
" />
<path d="M3054 20864
L3054 20564
" />
<path d="M3017 20245
L2829 20376
" />
<path d="M3017 20470
L2623 20470
L2623 20320
L2642 20283
L2661 20264
L2698 20245
L2755 20245
L2792 20264
L2811 20283
L2829 20320
L2829 20470
" />
<path d="M2998 19926
L3017 19964
L3017 20039
L2998 20076
L2961 20095
L2811 20095
L2773 20076
L2755 20039
L2755 19964
L2773 19926
L2811 19908
L2848 19908
L2886 20095
" />
<path d="M2998 19570
L3017 19608
L3017 19683
L2998 19720
L2979 19739
L2942 19758
L2829 19758
L2792 19739
L2773 19720
L2755 19683
L2755 19608
L2773 19570
" />
<path d="M2998 19251
L3017 19289
L3017 19364
L2998 19401
L2961 19420
L2811 19420
L2773 19401
L2755 19364
L2755 19289
L2773 19251
L2811 19233
L2848 19233
L2886 19420
" />
<path d="M2755 19064
L3148 19064
" />
<path d="M2773 19064
L2755 19026
L2755 18952
L2773 18914
L2792 18895
L2829 18877
L2942 18877
L2979 18895
L2998 18914
L3017 18952
L3017 19026
L2998 19064
" />
<path d="M2755 18764
L2755 18614
" />
<path d="M2623 18708
L2961 18708
L2998 18689
L3017 18652
L3017 18614
" />
<path d="M3017 18314
L2811 18314
L2773 18333
L2755 18370
L2755 18445
L2773 18483
" />
<path d="M2998 18314
L3017 18352
L3017 18445
L2998 18483
L2961 18502
L2923 18502
L2886 18483
L2867 18445
L2867 18352
L2848 18314
" />
<path d="M2998 17958
L3017 17995
L3017 18070
L2998 18108
L2979 18127
L2942 18145
L2829 18145
L2792 18127
L2773 18108
L2755 18070
L2755 17995
L2773 17958
" />
<path d="M3017 17733
L2998 17770
L2961 17789
L2623 17789
" />
<path d="M2998 17433
L3017 17470
L3017 17545
L2998 17583
L2961 17602
L2811 17602
L2773 17583
L2755 17545
L2755 17470
L2773 17433
L2811 17414
L2848 17414
L2886 17602
" />
</g>
<g style="fill:#C2C200; fill-opacity:0.0; 
stroke:#C2C200; stroke-width:39.3701; stroke-opacity:1; 
stroke-linecap:round; stroke-linejoin:round;">
<path d="M5266 20170
L5547 20170
L5604 20189
L5641 20226
L5660 20283
L5660 20320
" />
<path d="M5660 19776
L5660 20001
" />
<path d="M5660 19889
L5266 19889
L5322 19926
L5360 19964
L5379 20001
" />
</g>
<g style="fill:#C2C200; fill-opacity:0.0; 
stroke:#C2C200; stroke-width:59.0551; stroke-opacity:1; 
stroke-linecap:round; stroke-linejoin:round;">
<path d="M32242 17073
L32467 17073
" />
<path d="M32355 17467
L32355 17073
" />
<path d="M32598 17467
L32598 17073
L32748 17073
L32786 17092
L32805 17111
L32823 17148
L32823 17205
L32805 17242
L32786 17261
L32748 17279
L32598 17279
" />
<path d="M32898 17504
L33198 17504
" />
<path d="M33236 17073
L33461 17073
" />
<path d="M33348 17467
L33348 17073
" />
<path d="M33554 17073
L33817 17467
" />
<path d="M33817 17073
L33554 17467
" />
<path d="M33792 17073
L34017 17073
" />
<path d="M33905 17467
L33905 17073
" />
<path d="M34148 17467
L34148 17073
L34298 17073
L34336 17092
L34355 17111
L34373 17148
L34373 17205
L34355 17242
L34336 17261
L34298 17279
L34148 17279
" />
<path d="M34448 17504
L34748 17504
" />
<path d="M35048 17092
L35011 17073
L34955 17073
L34898 17092
L34861 17130
L34842 17167
L34823 17242
L34823 17298
L34842 17373
L34861 17411
L34898 17448
L34955 17467
L34992 17467
L35048 17448
L35067 17429
L35067 17298
L34992 17298
" />
<path d="M35236 17467
L35236 17073
L35461 17467
L35461 17073
" />
<path d="M35648 17467
L35648 17073
L35742 17073
L35798 17092
L35836 17130
L35854 17167
L35873 17242
L35873 17298
L35854 17373
L35836 17411
L35798 17448
L35742 17467
L35648 17467
" />
<path d="M36023 17111
L36042 17092
L36079 17073
L36173 17073
L36211 17092
L36229 17111
L36248 17148
L36248 17186
L36229 17242
L36004 17467
L36248 17467
" />
<path d="M18788 17993
L18788 18256
" />
<path d="M18694 17843
L18600 18124
L18844 18124
" />
<path d="M18994 18218
L19013 18237
L18994 18256
L18975 18237
L18994 18218
L18994 18256
" />
<path d="M19144 17862
L19406 17862
L19238 18256
" />
<path d="M19556 17993
L19556 18387
" />
<path d="M19744 18199
L19763 18237
L19800 18256
" />
<path d="M19556 18199
L19575 18237
L19613 18256
L19688 18256
L19725 18237
L19744 18199
L19744 17993
" />
<path d="M19969 18256
L19969 17862
" />
<path d="M19969 18049
L20194 18049
" />
<path d="M20194 18256
L20194 17862
" />
<path d="M6317 13811
L6317 14036
" />
<path d="M6317 13923
L5923 13923
L5980 13961
L6017 13998
L6036 14036
" />
<path d="M5961 13661
L5942 13642
L5923 13604
L5923 13511
L5942 13473
L5961 13455
L5998 13436
L6036 13436
L6092 13455
L6317 13679
L6317 13436
" />
<path d="M6317 13267
L5923 13267
" />
<path d="M6317 13042
L6092 13211
" />
<path d="M5923 13042
L6148 13267
" />
<path d="M18236 16778
L18011 16778
" />
<path d="M18123 16778
L18123 16384
L18086 16441
L18048 16478
L18011 16497
" />
<path d="M18367 16384
L18629 16384
L18461 16778
" />
<path d="M18779 16778
L18779 16384
" />
<path d="M19004 16778
L18835 16553
" />
<path d="M19004 16384
L18779 16609
" />
</g>
<g style="fill:#C2C200; fill-opacity:0.0; 
stroke:#C2C200; stroke-width:29.5276; stroke-opacity:1; 
stroke-linecap:round; stroke-linejoin:round;">
<path d="M18475 17378
L18409 17284
" />
<path d="M18362 17378
L18362 17181
L18437 17181
L18456 17190
L18465 17200
L18475 17219
L18475 17247
L18465 17265
L18456 17275
L18437 17284
L18362 17284
" />
<path d="M18550 17200
L18559 17190
L18578 17181
L18625 17181
L18643 17190
L18653 17200
L18662 17219
L18662 17237
L18653 17265
L18540 17378
L18662 17378
" />
</g>
<g style="fill:#C2C200; fill-opacity:0.0; 
stroke:#C2C200; stroke-width:59.0551; stroke-opacity:1; 
stroke-linecap:round; stroke-linejoin:round;">
<path d="M20055 17762
L20299 17762
L20167 17912
L20224 17912
L20261 17931
L20280 17950
L20299 17987
L20299 18081
L20280 18118
L20261 18137
L20224 18156
L20111 18156
L20074 18137
L20055 18118
" />
<path d="M20430 17762
L20673 17762
L20542 17912
L20598 17912
L20636 17931
L20655 17950
L20673 17987
L20673 18081
L20655 18118
L20636 18137
L20598 18156
L20486 18156
L20449 18137
L20430 18118
" />
<path d="M20842 18156
L20842 17762
" />
<path d="M21067 18156
L20898 17931
" />
<path d="M21067 17762
L20842 17987
" />
</g>
<g style="fill:#C2C200; fill-opacity:0.0; 
stroke:#C2C200; stroke-width:29.5276; stroke-opacity:1; 
stroke-linecap:round; stroke-linejoin:round;">
<path d="M20538 17378
L20472 17284
" />
<path d="M20425 17378
L20425 17181
L20500 17181
L20519 17190
L20528 17200
L20538 17219
L20538 17247
L20528 17265
L20519 17275
L20500 17284
L20425 17284
" />
<path d="M20603 17181
L20725 17181
L20659 17256
L20688 17256
L20706 17265
L20716 17275
L20725 17294
L20725 17340
L20716 17359
L20706 17369
L20688 17378
L20631 17378
L20613 17369
L20603 17359
" />
</g>
<g style="fill:#C2C200; fill-opacity:0.0; 
stroke:#C2C200; stroke-width:59.0551; stroke-opacity:1; 
stroke-linecap:round; stroke-linejoin:round;">
<path d="M26267 20028
L26042 20028
" />
<path d="M26155 20028
L26155 19634
L26117 19691
L26080 19728
L26042 19747
" />
<path d="M26511 19634
L26548 19634
L26586 19653
L26604 19672
L26623 19709
L26642 19784
L26642 19878
L26623 19953
L26604 19991
L26586 20009
L26548 20028
L26511 20028
L26473 20009
L26455 19991
L26436 19953
L26417 19878
L26417 19784
L26436 19709
L26455 19672
L26473 19653
L26511 19634
" />
<path d="M26811 20028
L26811 19634
" />
<path d="M27036 20028
L26867 19803
" />
<path d="M27036 19634
L26811 19859
" />
</g>
<g style="fill:#C2C200; fill-opacity:0.0; 
stroke:#C2C200; stroke-width:29.5276; stroke-opacity:1; 
stroke-linecap:round; stroke-linejoin:round;">
<path d="M26506 20628
L26440 20534
" />
<path d="M26394 20628
L26394 20431
L26469 20431
L26487 20440
L26497 20450
L26506 20469
L26506 20497
L26497 20515
L26487 20525
L26469 20534
L26394 20534
" />
<path d="M26675 20497
L26675 20628
" />
<path d="M26628 20422
L26581 20562
L26703 20562
" />
<path d="M28128 20072
L28034 20137
" />
<path d="M28128 20184
L27931 20184
L27931 20109
L27940 20090
L27950 20081
L27969 20072
L27997 20072
L28015 20081
L28025 20090
L28034 20109
L28034 20184
" />
<path d="M27931 19894
L27931 19987
L28025 19997
L28015 19987
L28006 19969
L28006 19922
L28015 19903
L28025 19894
L28044 19884
L28090 19884
L28109 19894
L28119 19903
L28128 19922
L28128 19969
L28119 19987
L28109 19997
" />
</g>
<g style="fill:#C2C200; fill-opacity:0.0; 
stroke:#C2C200; stroke-width:59.0551; stroke-opacity:1; 
stroke-linecap:round; stroke-linejoin:round;">
<path d="M24278 11311
L24278 11536
" />
<path d="M24278 11423
L23884 11423
L23941 11461
L23978 11498
L23997 11536
" />
<path d="M23922 11161
L23903 11142
L23884 11104
L23884 11011
L23903 10973
L23922 10955
L23959 10936
L23997 10936
L24053 10955
L24278 11179
L24278 10936
" />
<path d="M24278 10767
L23884 10767
" />
<path d="M24278 10542
L24053 10711
" />
<path d="M23884 10542
L24109 10767
" />
</g>
<g style="fill:#C2C200; fill-opacity:0.0; 
stroke:#C2C200; stroke-width:29.5276; stroke-opacity:1; 
stroke-linecap:round; stroke-linejoin:round;">
<path d="M25378 11103
L25284 11169
" />
<path d="M25378 11216
L25181 11216
L25181 11141
L25190 11122
L25200 11113
L25219 11103
L25247 11103
L25265 11113
L25275 11122
L25284 11141
L25284 11216
" />
<path d="M25181 10934
L25181 10972
L25190 10991
L25200 11000
L25228 11019
L25265 11028
L25340 11028
L25359 11019
L25369 11009
L25378 10991
L25378 10953
L25369 10934
L25359 10925
L25340 10916
L25294 10916
L25275 10925
L25265 10934
L25256 10953
L25256 10991
L25265 11009
L25275 11019
L25294 11028
" />
<path d="M21506 24128
L21440 24034
" />
<path d="M21394 24128
L21394 23931
L21469 23931
L21487 23940
L21497 23950
L21506 23969
L21506 23997
L21497 24015
L21487 24025
L21469 24034
L21394 24034
" />
<path d="M21619 24015
L21600 24006
L21590 23997
L21581 23978
L21581 23969
L21590 23950
L21600 23940
L21619 23931
L21656 23931
L21675 23940
L21684 23950
L21694 23969
L21694 23978
L21684 23997
L21675 24006
L21656 24015
L21619 24015
L21600 24025
L21590 24034
L21581 24053
L21581 24090
L21590 24109
L21600 24119
L21619 24128
L21656 24128
L21675 24119
L21684 24109
L21694 24090
L21694 24053
L21684 24034
L21675 24025
L21656 24015
" />
<path d="M21412 15128
L21347 15034
" />
<path d="M21300 15128
L21300 14931
L21375 14931
L21394 14940
L21403 14950
L21412 14969
L21412 14997
L21403 15015
L21394 15025
L21375 15034
L21300 15034
" />
<path d="M21600 15128
L21487 15128
" />
<path d="M21544 15128
L21544 14931
L21525 14959
L21506 14978
L21487 14987
" />
<path d="M21665 14931
L21787 14931
L21722 15006
L21750 15006
L21769 15015
L21778 15025
L21787 15044
L21787 15090
L21778 15109
L21769 15119
L21750 15128
L21694 15128
L21675 15119
L21665 15109
" />
</g>
<g style="fill:#C2C200; fill-opacity:0.0; 
stroke:#C2C200; stroke-width:59.0551; stroke-opacity:1; 
stroke-linecap:round; stroke-linejoin:round;">
<path d="M4417 14514
L4417 14701
L4023 14701
" />
<path d="M4023 14439
L4023 14214
" />
<path d="M4417 14326
L4023 14326
" />
<path d="M4379 13858
L4398 13876
L4417 13933
L4417 13970
L4398 14026
L4361 14064
L4323 14083
L4248 14101
L4192 14101
L4117 14083
L4080 14064
L4042 14026
L4023 13970
L4023 13933
L4042 13876
L4061 13858
" />
<path d="M4023 13726
L4023 13483
L4173 13614
L4173 13558
L4192 13520
L4211 13501
L4248 13483
L4342 13483
L4379 13501
L4398 13520
L4417 13558
L4417 13670
L4398 13708
L4379 13726
" />
<path d="M4061 13333
L4042 13314
L4023 13276
L4023 13183
L4042 13145
L4061 13126
L4098 13108
L4136 13108
L4192 13126
L4417 13351
L4417 13108
" />
<path d="M4061 12958
L4042 12939
L4023 12901
L4023 12808
L4042 12770
L4061 12751
L4098 12733
L4136 12733
L4192 12751
L4417 12976
L4417 12733
" />
<path d="M4023 12377
L4023 12564
L4211 12583
L4192 12564
L4173 12526
L4173 12433
L4192 12395
L4211 12377
L4248 12358
L4342 12358
L4379 12377
L4398 12395
L4417 12433
L4417 12526
L4398 12564
L4379 12583
" />
<path d="M25498 12646
L25517 12627
L25555 12609
L25648 12609
L25686 12627
L25705 12646
L25723 12684
L25723 12721
L25705 12777
L25480 13002
L25723 13002
" />
<path d="M26061 12609
L25986 12609
L25948 12627
L25930 12646
L25892 12702
L25873 12777
L25873 12927
L25892 12965
L25911 12984
L25948 13002
L26023 13002
L26061 12984
L26080 12965
L26098 12927
L26098 12834
L26080 12796
L26061 12777
L26023 12759
L25948 12759
L25911 12777
L25892 12796
L25873 12834
" />
<path d="M26567 13002
L26567 12609
L26698 12890
L26829 12609
L26829 13002
" />
<path d="M27017 13002
L27017 12609
" />
<path d="M27017 12796
L27242 12796
" />
<path d="M27242 13002
L27242 12609
" />
<path d="M27392 12740
L27598 12740
L27392 13002
L27598 13002
" />
</g>
<g style="fill:#C2C200; fill-opacity:0.0; 
stroke:#C2C200; stroke-width:41.3386; stroke-opacity:1; 
stroke-linecap:round; stroke-linejoin:round;">
<path d="M26408 13782
L26408 13914
" />
<path d="M26316 13638
L26408 13782
L26500 13638
" />
<path d="M26736 13914
L26578 13914
" />
<path d="M26657 13914
L26657 13638
L26631 13677
L26604 13704
L26578 13717
" />
</g>
<g style="fill:#C2C200; fill-opacity:0.0; 
stroke:#C2C200; stroke-width:59.0551; stroke-opacity:1; 
stroke-linecap:round; stroke-linejoin:round;">
<path d="M28292 17073
L28517 17073
" />
<path d="M28405 17467
L28405 17073
" />
<path d="M28648 17467
L28648 17073
L28798 17073
L28836 17092
L28855 17111
L28873 17148
L28873 17205
L28855 17242
L28836 17261
L28798 17279
L28648 17279
" />
<path d="M28948 17504
L29248 17504
" />
<path d="M29548 17092
L29511 17073
L29455 17073
L29398 17092
L29361 17130
L29342 17167
L29323 17242
L29323 17298
L29342 17373
L29361 17411
L29398 17448
L29455 17467
L29492 17467
L29548 17448
L29567 17429
L29567 17298
L29492 17298
" />
<path d="M29736 17467
L29736 17073
L29961 17467
L29961 17073
" />
<path d="M30148 17467
L30148 17073
L30242 17073
L30298 17092
L30336 17130
L30354 17167
L30373 17242
L30373 17298
L30354 17373
L30336 17411
L30298 17448
L30242 17467
L30148 17467
" />
<path d="M30504 17073
L30748 17073
L30617 17223
L30673 17223
L30711 17242
L30729 17261
L30748 17298
L30748 17392
L30729 17429
L30711 17448
L30673 17467
L30561 17467
L30523 17448
L30504 17429
" />
<path d="M20198 11611
L20423 11611
" />
<path d="M20311 12004
L20311 11611
" />
<path d="M20555 12004
L20555 11611
L20705 11611
L20742 11629
L20761 11648
L20780 11686
L20780 11742
L20761 11779
L20742 11798
L20705 11817
L20555 11817
" />
<path d="M20855 12042
L21155 12042
" />
<path d="M21455 11629
L21417 11611
L21361 11611
L21305 11629
L21267 11667
L21248 11704
L21230 11779
L21230 11836
L21248 11911
L21267 11948
L21305 11986
L21361 12004
L21398 12004
L21455 11986
L21473 11967
L21473 11836
L21398 11836
" />
<path d="M21642 12004
L21642 11611
L21792 11611
L21829 11629
L21848 11648
L21867 11686
L21867 11742
L21848 11779
L21829 11798
L21792 11817
L21642 11817
" />
<path d="M22036 12004
L22036 11611
" />
<path d="M22298 11611
L22373 11611
L22411 11629
L22448 11667
L22467 11742
L22467 11873
L22448 11948
L22411 11986
L22373 12004
L22298 12004
L22261 11986
L22223 11948
L22204 11873
L22204 11742
L22223 11667
L22261 11629
L22298 11611
" />
<path d="M22711 11611
L22748 11611
L22786 11629
L22804 11648
L22823 11686
L22842 11761
L22842 11854
L22823 11929
L22804 11967
L22786 11986
L22748 12004
L22711 12004
L22673 11986
L22654 11967
L22636 11929
L22617 11854
L22617 11761
L22636 11686
L22654 11648
L22673 11629
L22711 11611
" />
</g>
<g style="fill:#000000; fill-opacity:0.0; 
stroke:#000000; stroke-width:59.0551; stroke-opacity:1; 
stroke-linecap:round; stroke-linejoin:round;">
</g>
<g style="fill:#C2C200; fill-opacity:0.0; 
stroke:#C2C200; stroke-width:59.0551; stroke-opacity:1; 
stroke-linecap:round; stroke-linejoin:round;">
</g>
<g style="fill:#C2C200; fill-opacity:0.0; 
stroke:#C2C200; stroke-width:39.3701; stroke-opacity:1; 
stroke-linecap:round; stroke-linejoin:round;">
<path d="M7797 9413
L8287 9413
" />
<path d="M3992 9475
L4019 9466
" />
<path d="M3938 9495
L3965 9485
" />
<path d="M3859 9530
L3885 9518
" />
<path d="M6328 9413
L6818 9413
" />
<path d="M3911 9506
L3938 9495
" />
<path d="M3808 9556
L3833 9543
" />
<path d="M3965 9485
L3992 9475
" />
<path d="M3477 9822
L3496 9801
" />
<path d="M3642 9666
L3664 9648
" />
<path d="M3346 10007
L3360 9983
" />
<path d="M5349 9413
L5839 9413
" />
<path d="M3332 10032
L3346 10007
" />
<path d="M4370 9413
L4859 9413
" />
<path d="M3664 9648
L3687 9632
" />
<path d="M3407 9911
L3424 9888
" />
<path d="M4249 9419
L4279 9416
" />
<path d="M4279 9416
L4309 9414
" />
<path d="M4190 9427
L4220 9422
" />
<path d="M3535 9760
L3556 9740
" />
<path d="M4132 9437
L4161 9431
" />
<path d="M3459 9844
L3477 9822
" />
<path d="M3375 9959
L3391 9935
" />
<path d="M3293 10109
L3305 10083
" />
<path d="M4075 9450
L4104 9443
" />
<path d="M3391 9935
L3407 9911
" />
<path d="M3734 9600
L3758 9585
" />
<path d="M3710 9615
L3734 9600
" />
<path d="M3441 9866
L3459 9844
" />
<path d="M3577 9721
L3598 9702
" />
<path d="M3619 9683
L3642 9666
" />
<path d="M3318 10057
L3332 10032
" />
<path d="M5839 9413
L6328 9413
" />
<path d="M3360 9983
L3375 9959
" />
<path d="M11225 9413
L11715 9413
" />
<path d="M4309 9414
L4339 9413
" />
<path d="M10735 9413
L11225 9413
" />
<path d="M10246 9413
L10735 9413
" />
<path d="M9756 9413
L10246 9413
" />
<path d="M9266 9413
L9756 9413
" />
<path d="M8777 9413
L9266 9413
" />
<path d="M8287 9413
L8777 9413
" />
<path d="M4161 9431
L4190 9427
" />
<path d="M4019 9466
L4047 9458
" />
<path d="M3598 9702
L3619 9683
" />
<path d="M3885 9518
L3911 9506
" />
<path d="M7308 9413
L7797 9413
" />
<path d="M6818 9413
L7308 9413
" />
<path d="M4859 9413
L5349 9413
" />
<path d="M3556 9740
L3577 9721
" />
<path d="M3305 10083
L3318 10057
" />
<path d="M4339 9413
L4370 9413
" />
<path d="M4104 9443
L4132 9437
" />
<path d="M4220 9422
L4249 9419
" />
<path d="M4047 9458
L4075 9450
" />
<path d="M3687 9632
L3710 9615
" />
<path d="M3424 9888
L3441 9866
" />
<path d="M3833 9543
L3859 9530
" />
<path d="M3783 9570
L3808 9556
" />
<path d="M3516 9780
L3535 9760
" />
<path d="M3496 9801
L3516 9780
" />
<path d="M3282 10135
L3293 10109
" />
<path d="M3758 9585
L3783 9570
" />
<path d="M36414 30429
L36391 30446
" />
<path d="M36687 30143
L36671 30166
" />
<path d="M36542 30318
L36522 30338
" />
<path d="M36796 29942
L36785 29969
" />
<path d="M36785 29969
L36772 29995
" />
<path d="M36871 29692
L36865 29721
" />
<path d="M36637 30212
L36619 30234
" />
<path d="M36876 29663
L36871 29692
" />
<path d="M36718 30095
L36703 30119
" />
<path d="M36807 29916
L36796 29942
" />
<path d="M36889 29484
L36889 29514
" />
<path d="M36295 30508
L36270 30522
" />
<path d="M36501 30357
L36480 30376
" />
<path d="M36888 29544
L36886 29574
" />
<path d="M36581 30277
L36562 30298
" />
<path d="M36562 30298
L36542 30318
" />
<path d="M36436 30412
L36414 30429
" />
<path d="M36480 30376
L36458 30394
" />
<path d="M36817 29889
L36807 29916
" />
<path d="M36746 30046
L36732 30070
" />
<path d="M36367 30462
L36344 30478
" />
<path d="M36391 30446
L36367 30462
" />
<path d="M36458 30394
L36436 30412
" />
<path d="M36522 30338
L36501 30357
" />
<path d="M36619 30234
L36600 30256
" />
<path d="M36732 30070
L36718 30095
" />
<path d="M36852 29778
L36844 29806
" />
<path d="M36889 28598
L36889 28893
" />
<path d="M36844 29806
L36836 29834
" />
<path d="M36889 29514
L36888 29544
" />
<path d="M36859 29750
L36852 29778
" />
<path d="M36772 29995
L36760 30020
" />
<path d="M36865 29721
L36859 29750
" />
<path d="M36889 28893
L36889 29189
" />
<path d="M35917 30646
L35887 30651
" />
<path d="M35945 30641
L35917 30646
" />
<path d="M36031 30620
L36002 30628
" />
<path d="M36836 29834
L36827 29862
" />
<path d="M36344 30478
L36319 30493
" />
<path d="M36886 29574
L36883 29604
" />
<path d="M36889 28008
L36889 28303
" />
<path d="M36086 30603
L36058 30612
" />
<path d="M36671 30166
L36654 30189
" />
<path d="M36600 30256
L36581 30277
" />
<path d="M35974 30634
L35945 30641
" />
<path d="M36002 30628
L35974 30634
" />
<path d="M36889 29189
L36889 29484
" />
<path d="M36880 29634
L36876 29663
" />
<path d="M36883 29604
L36880 29634
" />
<path d="M36058 30612
L36031 30620
" />
<path d="M36760 30020
L36746 30046
" />
<path d="M36113 30593
L36086 30603
" />
<path d="M36140 30583
L36113 30593
" />
<path d="M36889 27713
L36889 28008
" />
<path d="M36167 30572
L36140 30583
" />
<path d="M36270 30522
L36245 30535
" />
<path d="M36193 30560
L36167 30572
" />
<path d="M36219 30548
L36193 30560
" />
<path d="M36245 30535
L36219 30548
" />
<path d="M36319 30493
L36295 30508
" />
<path d="M36654 30189
L36637 30212
" />
<path d="M36703 30119
L36687 30143
" />
<path d="M36889 28303
L36889 28598
" />
<path d="M36827 29862
L36817 29889
" />
<path d="M36889 17087
L36889 17382
" />
<path d="M36889 11479
L36889 11775
" />
<path d="M36889 15021
L36889 15316
" />
<path d="M36889 25056
L36889 25352
" />
<path d="M36889 22105
L36889 22400
" />
<path d="M36889 10594
L36889 10889
" />
<path d="M36889 18268
L36889 18563
" />
<path d="M36889 13250
L36889 13546
" />
<path d="M36889 24466
L36889 24761
" />
<path d="M36889 21810
L36889 22105
" />
<path d="M36889 14431
L36889 14726
" />
<path d="M36889 23876
L36889 24171
" />
<path d="M36889 22695
L36889 22990
" />
<path d="M36889 20924
L36889 21219
" />
<path d="M36883 10474
L36886 10503
" />
<path d="M36889 25647
L36889 25942
" />
<path d="M36889 27418
L36889 27713
" />
<path d="M36889 22400
L36889 22695
" />
<path d="M36889 19449
L36889 19744
" />
<path d="M36889 18563
L36889 18858
" />
<path d="M36889 12070
L36889 12365
" />
<path d="M36889 12660
L36889 12955
" />
<path d="M36889 13546
L36889 13841
" />
<path d="M36889 15907
L36889 16202
" />
<path d="M36889 10889
L36889 11184
" />
<path d="M36889 21515
L36889 21810
" />
<path d="M36888 10533
L36889 10564
" />
<path d="M36880 10444
L36883 10474
" />
<path d="M36889 27123
L36889 27418
" />
<path d="M36889 17678
L36889 17973
" />
<path d="M36889 15316
L36889 15612
" />
<path d="M36889 11184
L36889 11479
" />
<path d="M36889 10564
L36889 10594
" />
<path d="M36889 12365
L36889 12660
" />
<path d="M36889 26827
L36889 27123
" />
<path d="M36889 16202
L36889 16497
" />
<path d="M36889 16792
L36889 17087
" />
<path d="M36889 22990
L36889 23286
" />
<path d="M36889 21219
L36889 21515
" />
<path d="M36889 20629
L36889 20924
" />
<path d="M36889 11775
L36889 12070
" />
<path d="M36889 14726
L36889 15021
" />
<path d="M36889 12955
L36889 13250
" />
<path d="M36886 10503
L36888 10533
" />
<path d="M36889 26532
L36889 26827
" />
<path d="M36889 26237
L36889 26532
" />
<path d="M36889 14136
L36889 14431
" />
<path d="M36889 25942
L36889 26237
" />
<path d="M36889 25352
L36889 25647
" />
<path d="M36889 24761
L36889 25056
" />
<path d="M36889 24171
L36889 24466
" />
<path d="M36889 23581
L36889 23876
" />
<path d="M36889 23286
L36889 23581
" />
<path d="M36889 20334
L36889 20629
" />
<path d="M36889 16497
L36889 16792
" />
<path d="M36889 20039
L36889 20334
" />
<path d="M36889 18858
L36889 19153
" />
<path d="M36889 17973
L36889 18268
" />
<path d="M36876 10415
L36880 10444
" />
<path d="M36889 17382
L36889 17678
" />
<path d="M36889 15612
L36889 15907
" />
<path d="M36889 19744
L36889 20039
" />
<path d="M36889 19153
L36889 19449
" />
<path d="M36889 13841
L36889 14136
" />
<path d="M36295 9570
L36319 9585
" />
<path d="M35769 9414
L35799 9416
" />
<path d="M36113 9485
L36140 9495
" />
<path d="M36807 10162
L36817 10189
" />
<path d="M36654 9888
L36671 9911
" />
<path d="M35218 9413
L35708 9413
" />
<path d="M36391 9632
L36414 9648
" />
<path d="M35945 9437
L35974 9443
" />
<path d="M36796 10135
L36807 10162
" />
<path d="M36637 9866
L36654 9888
" />
<path d="M36058 9466
L36086 9475
" />
<path d="M36732 10007
L36746 10032
" />
<path d="M36687 9935
L36703 9959
" />
<path d="M36581 9801
L36600 9822
" />
<path d="M33260 9413
L33750 9413
" />
<path d="M36760 10057
L36772 10083
" />
<path d="M36718 9983
L36732 10007
" />
<path d="M36671 9911
L36687 9935
" />
<path d="M36480 9702
L36501 9721
" />
<path d="M36414 9648
L36436 9666
" />
<path d="M35828 9419
L35858 9422
" />
<path d="M35887 9427
L35917 9431
" />
<path d="M35974 9443
L36002 9450
" />
<path d="M36193 9518
L36219 9530
" />
<path d="M35708 9413
L35739 9413
" />
<path d="M36619 9844
L36637 9866
" />
<path d="M34239 9413
L34729 9413
" />
<path d="M32770 9413
L33260 9413
" />
<path d="M36844 10272
L36852 10300
" />
<path d="M36344 9600
L36367 9615
" />
<path d="M36140 9495
L36167 9506
" />
<path d="M35739 9413
L35769 9414
" />
<path d="M34729 9413
L35218 9413
" />
<path d="M35858 9422
L35887 9427
" />
<path d="M36785 10109
L36796 10135
" />
<path d="M36219 9530
L36245 9543
" />
<path d="M36270 9556
L36295 9570
" />
<path d="M36703 9959
L36718 9983
" />
<path d="M36600 9822
L36619 9844
" />
<path d="M36562 9780
L36581 9801
" />
<path d="M35799 9416
L35828 9419
" />
<path d="M36086 9475
L36113 9485
" />
<path d="M35917 9431
L35945 9437
" />
<path d="M33750 9413
L34239 9413
" />
<path d="M36871 10386
L36876 10415
" />
<path d="M36836 10244
L36844 10272
" />
<path d="M36031 9458
L36058 9466
" />
<path d="M36772 10083
L36785 10109
" />
<path d="M36865 10357
L36871 10386
" />
<path d="M36859 10328
L36865 10357
" />
<path d="M36852 10300
L36859 10328
" />
<path d="M36827 10216
L36836 10244
" />
<path d="M36817 10189
L36827 10216
" />
<path d="M36746 10032
L36760 10057
" />
<path d="M36245 9543
L36270 9556
" />
<path d="M36522 9740
L36542 9760
" />
<path d="M36436 9666
L36458 9683
" />
<path d="M36367 9615
L36391 9632
" />
<path d="M36542 9760
L36562 9780
" />
<path d="M36319 9585
L36344 9600
" />
<path d="M36167 9506
L36193 9518
" />
<path d="M36501 9721
L36522 9740
" />
<path d="M36458 9683
L36480 9702
" />
<path d="M36002 9450
L36031 9458
" />
<path d="M11715 9413
L12204 9413
" />
<path d="M12204 9413
L12694 9413
" />
<path d="M21998 9413
L22487 9413
" />
<path d="M21018 9413
L21508 9413
" />
<path d="M17101 9413
L17591 9413
" />
<path d="M20529 9413
L21018 9413
" />
<path d="M14653 9413
L15142 9413
" />
<path d="M19060 9413
L19549 9413
" />
<path d="M18570 9413
L19060 9413
" />
<path d="M13673 9413
L14163 9413
" />
<path d="M31791 9413
L32281 9413
" />
<path d="M30322 9413
L30812 9413
" />
<path d="M21508 9413
L21998 9413
" />
<path d="M28363 9413
L28853 9413
" />
<path d="M22977 9413
L23467 9413
" />
<path d="M24446 9413
L24936 9413
" />
<path d="M23467 9413
L23956 9413
" />
<path d="M20039 9413
L20529 9413
" />
<path d="M14163 9413
L14653 9413
" />
<path d="M12694 9413
L13184 9413
" />
<path d="M17591 9413
L18080 9413
" />
<path d="M32281 9413
L32770 9413
" />
<path d="M29832 9413
L30322 9413
" />
<path d="M26894 9413
L27384 9413
" />
<path d="M23956 9413
L24446 9413
" />
<path d="M31301 9413
L31791 9413
" />
<path d="M18080 9413
L18570 9413
" />
<path d="M16122 9413
L16611 9413
" />
<path d="M29343 9413
L29832 9413
" />
<path d="M26405 9413
L26894 9413
" />
<path d="M28853 9413
L29343 9413
" />
<path d="M13184 9413
L13673 9413
" />
<path d="M30812 9413
L31301 9413
" />
<path d="M27874 9413
L28363 9413
" />
<path d="M27384 9413
L27874 9413
" />
<path d="M25915 9413
L26405 9413
" />
<path d="M25425 9413
L25915 9413
" />
<path d="M24936 9413
L25425 9413
" />
<path d="M22487 9413
L22977 9413
" />
<path d="M19549 9413
L20039 9413
" />
<path d="M16611 9413
L17101 9413
" />
<path d="M15142 9413
L15632 9413
" />
<path d="M15632 9413
L16122 9413
" />
<path d="M35708 30665
L35218 30665
" />
<path d="M28363 30665
L27874 30665
" />
<path d="M28853 30665
L28363 30665
" />
<path d="M29832 30665
L29343 30665
" />
<path d="M31301 30665
L30812 30665
" />
<path d="M32281 30665
L31791 30665
" />
<path d="M30322 30665
L29832 30665
" />
<path d="M32770 30665
L32281 30665
" />
<path d="M35218 30665
L34729 30665
" />
<path d="M29343 30665
L28853 30665
" />
<path d="M31791 30665
L31301 30665
" />
<path d="M30812 30665
L30322 30665
" />
<path d="M33750 30665
L33260 30665
" />
<path d="M34239 30665
L33750 30665
" />
<path d="M34729 30665
L34239 30665
" />
<path d="M33260 30665
L32770 30665
" />
<path d="M3188 16202
L3188 15907
" />
<path d="M3242 10244
L3251 10216
" />
<path d="M3271 10162
L3282 10135
" />
<path d="M3260 10189
L3271 10162
" />
<path d="M3190 10533
L3192 10503
" />
<path d="M3188 11184
L3188 10889
" />
<path d="M3188 11775
L3188 11479
" />
<path d="M3188 14136
L3188 13841
" />
<path d="M3188 12660
L3188 12365
" />
<path d="M3188 14431
L3188 14136
" />
<path d="M3188 15021
L3188 14726
" />
<path d="M3188 20629
L3188 20334
" />
<path d="M3188 22105
L3188 21810
" />
<path d="M3188 23581
L3188 23286
" />
<path d="M3188 24466
L3188 24171
" />
<path d="M3251 10216
L3260 10189
" />
<path d="M3233 10272
L3242 10244
" />
<path d="M3188 14726
L3188 14431
" />
<path d="M3188 18268
L3188 17973
" />
<path d="M3188 15612
L3188 15316
" />
<path d="M3188 17087
L3188 16792
" />
<path d="M3226 10300
L3233 10272
" />
<path d="M3219 10328
L3226 10300
" />
<path d="M3202 10415
L3207 10386
" />
<path d="M3198 10444
L3202 10415
" />
<path d="M3192 10503
L3195 10474
" />
<path d="M3188 19744
L3188 19449
" />
<path d="M3188 10594
L3189 10564
" />
<path d="M3188 15907
L3188 15612
" />
<path d="M3188 16792
L3188 16497
" />
<path d="M3188 18563
L3188 18268
" />
<path d="M3188 12070
L3188 11775
" />
<path d="M3188 13546
L3188 13250
" />
<path d="M3188 17382
L3188 17087
" />
<path d="M3188 20924
L3188 20629
" />
<path d="M3195 10474
L3198 10444
" />
<path d="M3188 19449
L3188 19153
" />
<path d="M3188 13250
L3188 12955
" />
<path d="M3188 13841
L3188 13546
" />
<path d="M3188 11479
L3188 11184
" />
<path d="M3188 21515
L3188 21219
" />
<path d="M3188 18858
L3188 18563
" />
<path d="M3188 16497
L3188 16202
" />
<path d="M3188 15316
L3188 15021
" />
<path d="M3207 10386
L3213 10357
" />
<path d="M3188 17973
L3188 17678
" />
<path d="M3189 10564
L3190 10533
" />
<path d="M3188 23286
L3188 22990
" />
<path d="M3188 10889
L3188 10594
" />
<path d="M3188 17678
L3188 17382
" />
<path d="M3188 21810
L3188 21515
" />
<path d="M3188 19153
L3188 18858
" />
<path d="M3188 20039
L3188 19744
" />
<path d="M3188 24761
L3188 24466
" />
<path d="M3188 22400
L3188 22105
" />
<path d="M3188 12365
L3188 12070
" />
<path d="M3188 12955
L3188 12660
" />
<path d="M3188 20334
L3188 20039
" />
<path d="M3188 23876
L3188 23581
" />
<path d="M3188 22990
L3188 22695
" />
<path d="M3188 21219
L3188 20924
" />
<path d="M3213 10357
L3219 10328
" />
<path d="M3188 22695
L3188 22400
" />
<path d="M3188 24171
L3188 23876
" />
<path d="M3188 26827
L3188 26532
" />
<path d="M3188 27713
L3188 27418
" />
<path d="M3188 28008
L3188 27713
" />
<path d="M3219 29750
L3213 29721
" />
<path d="M3477 30256
L3459 30234
" />
<path d="M3188 28303
L3188 28008
" />
<path d="M3188 28598
L3188 28303
" />
<path d="M3188 28893
L3188 28598
" />
<path d="M3293 29969
L3282 29942
" />
<path d="M3642 30412
L3619 30394
" />
<path d="M3885 30560
L3859 30548
" />
<path d="M3242 29834
L3233 29806
" />
<path d="M3535 30318
L3516 30298
" />
<path d="M3192 29574
L3190 29544
" />
<path d="M3375 30119
L3360 30095
" />
<path d="M3859 30548
L3833 30535
" />
<path d="M3188 29189
L3188 28893
" />
<path d="M3188 29484
L3188 29189
" />
<path d="M3189 29514
L3188 29484
" />
<path d="M3190 29544
L3189 29514
" />
<path d="M3332 30046
L3318 30020
" />
<path d="M3346 30070
L3332 30046
" />
<path d="M3710 30462
L3687 30446
" />
<path d="M3360 30095
L3346 30070
" />
<path d="M3734 30478
L3710 30462
" />
<path d="M3758 30493
L3734 30478
" />
<path d="M3195 29604
L3192 29574
" />
<path d="M3202 29663
L3198 29634
" />
<path d="M3207 29692
L3202 29663
" />
<path d="M3226 29778
L3219 29750
" />
<path d="M3783 30508
L3758 30493
" />
<path d="M3808 30522
L3783 30508
" />
<path d="M3911 30572
L3885 30560
" />
<path d="M3496 30277
L3477 30256
" />
<path d="M3213 29721
L3207 29692
" />
<path d="M3233 29806
L3226 29778
" />
<path d="M3424 30189
L3407 30166
" />
<path d="M3282 29942
L3271 29916
" />
<path d="M3305 29995
L3293 29969
" />
<path d="M3619 30394
L3598 30376
" />
<path d="M3459 30234
L3441 30212
" />
<path d="M3664 30429
L3642 30412
" />
<path d="M3391 30143
L3375 30119
" />
<path d="M3441 30212
L3424 30189
" />
<path d="M3516 30298
L3496 30277
" />
<path d="M3188 25942
L3188 25647
" />
<path d="M3188 25056
L3188 24761
" />
<path d="M3188 25352
L3188 25056
" />
<path d="M3188 25647
L3188 25352
" />
<path d="M3188 27123
L3188 26827
" />
<path d="M3188 26532
L3188 26237
" />
<path d="M3260 29889
L3251 29862
" />
<path d="M3577 30357
L3556 30338
" />
<path d="M3318 30020
L3305 29995
" />
<path d="M3687 30446
L3664 30429
" />
<path d="M3833 30535
L3808 30522
" />
<path d="M3188 26237
L3188 25942
" />
<path d="M3188 27418
L3188 27123
" />
<path d="M3198 29634
L3195 29604
" />
<path d="M3407 30166
L3391 30143
" />
<path d="M3271 29916
L3260 29889
" />
<path d="M3598 30376
L3577 30357
" />
<path d="M3251 29862
L3242 29834
" />
<path d="M3556 30338
L3535 30318
" />
<path d="M23467 30665
L22977 30665
" />
<path d="M8287 30665
L7797 30665
" />
<path d="M4132 30641
L4104 30634
" />
<path d="M4161 30646
L4132 30641
" />
<path d="M4220 30655
L4190 30651
" />
<path d="M4249 30659
L4220 30655
" />
<path d="M4339 30664
L4309 30663
" />
<path d="M20039 30665
L19549 30665
" />
<path d="M17591 30665
L17101 30665
" />
<path d="M16122 30665
L15632 30665
" />
<path d="M21508 30665
L21018 30665
" />
<path d="M4370 30665
L4339 30664
" />
<path d="M13184 30665
L12694 30665
" />
<path d="M20529 30665
L20039 30665
" />
<path d="M15142 30665
L14653 30665
" />
<path d="M4279 30661
L4249 30659
" />
<path d="M7308 30665
L6818 30665
" />
<path d="M21018 30665
L20529 30665
" />
<path d="M26894 30665
L26405 30665
" />
<path d="M22487 30665
L21998 30665
" />
<path d="M24936 30665
L24446 30665
" />
<path d="M4309 30663
L4279 30661
" />
<path d="M5839 30665
L5349 30665
" />
<path d="M11225 30665
L10735 30665
" />
<path d="M4859 30665
L4370 30665
" />
<path d="M9756 30665
L9266 30665
" />
<path d="M12694 30665
L12204 30665
" />
<path d="M14163 30665
L13673 30665
" />
<path d="M22977 30665
L22487 30665
" />
<path d="M24446 30665
L23956 30665
" />
<path d="M27384 30665
L26894 30665
" />
<path d="M16611 30665
L16122 30665
" />
<path d="M19060 30665
L18570 30665
" />
<path d="M25425 30665
L24936 30665
" />
<path d="M8777 30665
L8287 30665
" />
<path d="M7797 30665
L7308 30665
" />
<path d="M11715 30665
L11225 30665
" />
<path d="M18570 30665
L18080 30665
" />
<path d="M19549 30665
L19060 30665
" />
<path d="M12204 30665
L11715 30665
" />
<path d="M15632 30665
L15142 30665
" />
<path d="M27874 30665
L27384 30665
" />
<path d="M23956 30665
L23467 30665
" />
<path d="M21998 30665
L21508 30665
" />
<path d="M3938 30583
L3911 30572
" />
<path d="M26405 30665
L25915 30665
" />
<path d="M3965 30593
L3938 30583
" />
<path d="M9266 30665
L8777 30665
" />
<path d="M14653 30665
L14163 30665
" />
<path d="M6818 30665
L6328 30665
" />
<path d="M3992 30603
L3965 30593
" />
<path d="M5349 30665
L4859 30665
" />
<path d="M25915 30665
L25425 30665
" />
<path d="M4019 30612
L3992 30603
" />
<path d="M4047 30620
L4019 30612
" />
<path d="M10735 30665
L10246 30665
" />
<path d="M4190 30651
L4161 30646
" />
<path d="M17101 30665
L16611 30665
" />
<path d="M13673 30665
L13184 30665
" />
<path d="M18080 30665
L17591 30665
" />
<path d="M6328 30665
L5839 30665
" />
<path d="M10246 30665
L9756 30665
" />
<path d="M4075 30628
L4047 30620
" />
<path d="M4104 30634
L4075 30628
" />
<path d="M35828 30659
L35799 30661
" />
<path d="M35858 30655
L35828 30659
" />
<path d="M35739 30664
L35708 30665
" />
<path d="M35799 30661
L35769 30663
" />
<path d="M35769 30663
L35739 30664
" />
<path d="M35887 30651
L35858 30655
" />
<path d="M35708 30665
L35708 30665
" />
</g> 
</svg>
