G04 #@! TF.FileFunction,Legend,Top*
%FSLAX46Y46*%
G04 Gerber Fmt 4.6, Leading zero omitted, Abs format (unit mm)*
G04 Created by KiCad (PCBNEW 4.0.7) date 03/27/18 03:46:25*
%MOMM*%
%LPD*%
G01*
G04 APERTURE LIST*
%ADD10C,0.100000*%
%ADD11C,0.120000*%
%ADD12C,0.150000*%
%ADD13C,0.010000*%
%ADD14R,2.400000X2.100000*%
%ADD15R,1.650000X1.900000*%
%ADD16R,1.900000X1.650000*%
%ADD17R,1.150000X1.600000*%
%ADD18R,1.600000X1.150000*%
%ADD19R,1.900000X1.700000*%
%ADD20O,1.800000X1.200000*%
%ADD21R,1.100000X0.700000*%
%ADD22O,1.050000X1.350000*%
%ADD23C,1.050000*%
%ADD24C,2.900000*%
%ADD25R,1.600000X3.100000*%
%ADD26R,1.700000X1.900000*%
%ADD27R,0.650000X1.100000*%
%ADD28R,1.600000X1.040000*%
%ADD29R,1.000000X1.950000*%
%ADD30R,1.100000X0.650000*%
%ADD31R,2.125000X2.125000*%
%ADD32R,1.800000X1.600000*%
%ADD33R,0.800000X1.100000*%
%ADD34C,1.900000*%
%ADD35C,1.000000*%
%ADD36C,0.800000*%
%ADD37C,0.254000*%
G04 APERTURE END LIST*
D10*
D11*
X150373701Y-104103393D02*
X150373701Y-103103393D01*
X148673701Y-103103393D02*
X148673701Y-104103393D01*
X119515000Y-82765000D02*
X120515000Y-82765000D01*
X120515000Y-81065000D02*
X119515000Y-81065000D01*
X155453701Y-104123393D02*
X155453701Y-103123393D01*
X153753701Y-103123393D02*
X153753701Y-104123393D01*
X119515000Y-89115000D02*
X120515000Y-89115000D01*
X120515000Y-87415000D02*
X119515000Y-87415000D01*
X172685000Y-85375000D02*
X172685000Y-86075000D01*
X171485000Y-86075000D02*
X171485000Y-85375000D01*
X168560000Y-88300000D02*
X169260000Y-88300000D01*
X169260000Y-89500000D02*
X168560000Y-89500000D01*
X169410000Y-99480000D02*
X168410000Y-99480000D01*
X168410000Y-101180000D02*
X169410000Y-101180000D01*
X168940000Y-83150000D02*
X168240000Y-83150000D01*
X168240000Y-81950000D02*
X168940000Y-81950000D01*
X175610000Y-80610000D02*
X174910000Y-80610000D01*
X174910000Y-79410000D02*
X175610000Y-79410000D01*
X155710000Y-82765000D02*
X156710000Y-82765000D01*
X156710000Y-81065000D02*
X155710000Y-81065000D01*
X160055000Y-79090000D02*
X160055000Y-78390000D01*
X161255000Y-78390000D02*
X161255000Y-79090000D01*
X157210000Y-116320000D02*
X154010000Y-116320000D01*
X154010000Y-114820000D02*
X157210000Y-114820000D01*
X154010000Y-114820000D02*
X154010000Y-116320000D01*
X164830000Y-116320000D02*
X161630000Y-116320000D01*
X161630000Y-114820000D02*
X164830000Y-114820000D01*
X161630000Y-114820000D02*
X161630000Y-116320000D01*
X172450000Y-116320000D02*
X169250000Y-116320000D01*
X169250000Y-114820000D02*
X172450000Y-114820000D01*
X169250000Y-114820000D02*
X169250000Y-116320000D01*
X180070000Y-116320000D02*
X176870000Y-116320000D01*
X176870000Y-114820000D02*
X180070000Y-114820000D01*
X176870000Y-114820000D02*
X176870000Y-116320000D01*
X187690000Y-116320000D02*
X184490000Y-116320000D01*
X184490000Y-114820000D02*
X187690000Y-114820000D01*
X184490000Y-114820000D02*
X184490000Y-116320000D01*
X120795000Y-104850000D02*
X120795000Y-106350000D01*
X120795000Y-106350000D02*
X113535000Y-106350000D01*
X120795000Y-96850000D02*
X113535000Y-96850000D01*
X120795000Y-96850000D02*
X120795000Y-98350000D01*
X116450000Y-84490000D02*
X116450000Y-85690000D01*
X114690000Y-85690000D02*
X114690000Y-84490000D01*
X147910000Y-93735000D02*
X149110000Y-93735000D01*
X149110000Y-95495000D02*
X147910000Y-95495000D01*
X154350000Y-95495000D02*
X153150000Y-95495000D01*
X153150000Y-93735000D02*
X154350000Y-93735000D01*
X168310000Y-101990000D02*
X169510000Y-101990000D01*
X169510000Y-103750000D02*
X168310000Y-103750000D01*
X173600000Y-101000000D02*
X173600000Y-102200000D01*
X171840000Y-102200000D02*
X171840000Y-101000000D01*
X163585000Y-79340000D02*
X163585000Y-78140000D01*
X165345000Y-78140000D02*
X165345000Y-79340000D01*
X163440000Y-94730000D02*
X163440000Y-95930000D01*
X161680000Y-95930000D02*
X161680000Y-94730000D01*
X156810000Y-113910000D02*
X155610000Y-113910000D01*
X155610000Y-112150000D02*
X156810000Y-112150000D01*
X164430000Y-113910000D02*
X163230000Y-113910000D01*
X163230000Y-112150000D02*
X164430000Y-112150000D01*
X172050000Y-113910000D02*
X170850000Y-113910000D01*
X170850000Y-112150000D02*
X172050000Y-112150000D01*
X179670000Y-113910000D02*
X178470000Y-113910000D01*
X178470000Y-112150000D02*
X179670000Y-112150000D01*
X187290000Y-113910000D02*
X186090000Y-113910000D01*
X186090000Y-112150000D02*
X187290000Y-112150000D01*
X155610000Y-86115000D02*
X156810000Y-86115000D01*
X156810000Y-87875000D02*
X155610000Y-87875000D01*
X155610000Y-88655000D02*
X156810000Y-88655000D01*
X156810000Y-90415000D02*
X155610000Y-90415000D01*
X155610000Y-83575000D02*
X156810000Y-83575000D01*
X156810000Y-85335000D02*
X155610000Y-85335000D01*
D12*
X117755000Y-84542881D02*
X117755000Y-85692881D01*
X121005000Y-83767881D02*
X121005000Y-85692881D01*
X159985000Y-103675000D02*
X160035000Y-103675000D01*
X159985000Y-99525000D02*
X160130000Y-99525000D01*
X165135000Y-99525000D02*
X164990000Y-99525000D01*
X165135000Y-103675000D02*
X164990000Y-103675000D01*
X159985000Y-103675000D02*
X159985000Y-99525000D01*
X165135000Y-103675000D02*
X165135000Y-99525000D01*
X160035000Y-103675000D02*
X160035000Y-105075000D01*
X165185000Y-87715000D02*
X164660000Y-87715000D01*
X159935000Y-82465000D02*
X160460000Y-82465000D01*
X159935000Y-87715000D02*
X160460000Y-87715000D01*
X165185000Y-82465000D02*
X165185000Y-82990000D01*
X159935000Y-82465000D02*
X159935000Y-82990000D01*
X159935000Y-87715000D02*
X159935000Y-87190000D01*
X165185000Y-87715000D02*
X165185000Y-87190000D01*
D11*
X170910000Y-87375000D02*
X170910000Y-84075000D01*
X170910000Y-84075000D02*
X166910000Y-84075000D01*
D13*
G36*
X186935962Y-125979247D02*
X187013440Y-126040431D01*
X187068815Y-126131090D01*
X187099440Y-126241964D01*
X187102671Y-126363797D01*
X187075863Y-126487330D01*
X187021560Y-126595769D01*
X186962226Y-126665558D01*
X186908517Y-126686845D01*
X186855865Y-126660944D01*
X186842434Y-126647364D01*
X186813953Y-126609999D01*
X186821621Y-126590965D01*
X186837496Y-126583713D01*
X186885839Y-126544332D01*
X186932372Y-126474179D01*
X186966571Y-126392581D01*
X186978109Y-126325463D01*
X186962389Y-126221466D01*
X186918780Y-126151892D01*
X186851295Y-126122614D01*
X186839045Y-126122060D01*
X186796957Y-126128377D01*
X186763809Y-126152673D01*
X186734994Y-126202964D01*
X186705903Y-126287267D01*
X186672303Y-126412113D01*
X186626939Y-126522691D01*
X186557956Y-126608266D01*
X186475010Y-126659024D01*
X186419913Y-126668706D01*
X186304773Y-126646741D01*
X186213744Y-126586122D01*
X186150511Y-126494763D01*
X186118760Y-126380579D01*
X186122175Y-126251484D01*
X186163362Y-126117755D01*
X186217491Y-126024710D01*
X186272630Y-125979911D01*
X186327058Y-125984334D01*
X186356292Y-126008349D01*
X186383780Y-126044034D01*
X186380813Y-126072119D01*
X186343756Y-126111721D01*
X186335096Y-126119778D01*
X186274560Y-126200910D01*
X186246810Y-126292731D01*
X186251248Y-126382321D01*
X186287275Y-126456761D01*
X186352824Y-126502620D01*
X186410351Y-126514588D01*
X186451033Y-126493060D01*
X186470687Y-126470855D01*
X186503353Y-126412136D01*
X186533500Y-126328316D01*
X186544307Y-126285762D01*
X186583544Y-126143424D01*
X186633377Y-126045658D01*
X186699191Y-125986453D01*
X186786372Y-125959796D01*
X186839023Y-125956795D01*
X186935962Y-125979247D01*
X186935962Y-125979247D01*
G37*
X186935962Y-125979247D02*
X187013440Y-126040431D01*
X187068815Y-126131090D01*
X187099440Y-126241964D01*
X187102671Y-126363797D01*
X187075863Y-126487330D01*
X187021560Y-126595769D01*
X186962226Y-126665558D01*
X186908517Y-126686845D01*
X186855865Y-126660944D01*
X186842434Y-126647364D01*
X186813953Y-126609999D01*
X186821621Y-126590965D01*
X186837496Y-126583713D01*
X186885839Y-126544332D01*
X186932372Y-126474179D01*
X186966571Y-126392581D01*
X186978109Y-126325463D01*
X186962389Y-126221466D01*
X186918780Y-126151892D01*
X186851295Y-126122614D01*
X186839045Y-126122060D01*
X186796957Y-126128377D01*
X186763809Y-126152673D01*
X186734994Y-126202964D01*
X186705903Y-126287267D01*
X186672303Y-126412113D01*
X186626939Y-126522691D01*
X186557956Y-126608266D01*
X186475010Y-126659024D01*
X186419913Y-126668706D01*
X186304773Y-126646741D01*
X186213744Y-126586122D01*
X186150511Y-126494763D01*
X186118760Y-126380579D01*
X186122175Y-126251484D01*
X186163362Y-126117755D01*
X186217491Y-126024710D01*
X186272630Y-125979911D01*
X186327058Y-125984334D01*
X186356292Y-126008349D01*
X186383780Y-126044034D01*
X186380813Y-126072119D01*
X186343756Y-126111721D01*
X186335096Y-126119778D01*
X186274560Y-126200910D01*
X186246810Y-126292731D01*
X186251248Y-126382321D01*
X186287275Y-126456761D01*
X186352824Y-126502620D01*
X186410351Y-126514588D01*
X186451033Y-126493060D01*
X186470687Y-126470855D01*
X186503353Y-126412136D01*
X186533500Y-126328316D01*
X186544307Y-126285762D01*
X186583544Y-126143424D01*
X186633377Y-126045658D01*
X186699191Y-125986453D01*
X186786372Y-125959796D01*
X186839023Y-125956795D01*
X186935962Y-125979247D01*
G36*
X187080281Y-124925135D02*
X187075884Y-124975611D01*
X187054209Y-125006572D01*
X187002525Y-125030605D01*
X186959510Y-125044560D01*
X186838739Y-125081995D01*
X186824085Y-125491985D01*
X186941785Y-125524939D01*
X187026603Y-125555525D01*
X187069440Y-125592860D01*
X187079081Y-125646639D01*
X187075935Y-125673005D01*
X187069988Y-125689325D01*
X187054571Y-125697253D01*
X187023381Y-125695151D01*
X186970118Y-125681380D01*
X186888478Y-125654300D01*
X186772159Y-125612273D01*
X186614861Y-125553659D01*
X186609910Y-125551803D01*
X186152253Y-125380161D01*
X186144957Y-125294885D01*
X186291858Y-125294885D01*
X186292092Y-125295171D01*
X186320626Y-125304238D01*
X186383456Y-125326228D01*
X186467174Y-125356446D01*
X186470070Y-125357504D01*
X186575897Y-125395460D01*
X186642733Y-125413562D01*
X186679533Y-125408895D01*
X186695254Y-125378545D01*
X186698850Y-125319596D01*
X186698899Y-125283021D01*
X186697620Y-125206415D01*
X186694321Y-125155622D01*
X186691124Y-125143181D01*
X186664071Y-125151191D01*
X186605522Y-125171945D01*
X186528377Y-125200528D01*
X186445538Y-125232028D01*
X186369904Y-125261530D01*
X186314377Y-125284120D01*
X186291858Y-125294885D01*
X186144957Y-125294885D01*
X186144525Y-125289843D01*
X186140709Y-125263314D01*
X186137847Y-125242560D01*
X186141040Y-125224905D01*
X186155390Y-125207674D01*
X186185999Y-125188194D01*
X186237967Y-125163789D01*
X186316397Y-125131785D01*
X186426389Y-125089507D01*
X186573045Y-125034281D01*
X186761467Y-124963432D01*
X186781532Y-124955864D01*
X187080281Y-124843144D01*
X187080281Y-124925135D01*
X187080281Y-124925135D01*
G37*
X187080281Y-124925135D02*
X187075884Y-124975611D01*
X187054209Y-125006572D01*
X187002525Y-125030605D01*
X186959510Y-125044560D01*
X186838739Y-125081995D01*
X186824085Y-125491985D01*
X186941785Y-125524939D01*
X187026603Y-125555525D01*
X187069440Y-125592860D01*
X187079081Y-125646639D01*
X187075935Y-125673005D01*
X187069988Y-125689325D01*
X187054571Y-125697253D01*
X187023381Y-125695151D01*
X186970118Y-125681380D01*
X186888478Y-125654300D01*
X186772159Y-125612273D01*
X186614861Y-125553659D01*
X186609910Y-125551803D01*
X186152253Y-125380161D01*
X186144957Y-125294885D01*
X186291858Y-125294885D01*
X186292092Y-125295171D01*
X186320626Y-125304238D01*
X186383456Y-125326228D01*
X186467174Y-125356446D01*
X186470070Y-125357504D01*
X186575897Y-125395460D01*
X186642733Y-125413562D01*
X186679533Y-125408895D01*
X186695254Y-125378545D01*
X186698850Y-125319596D01*
X186698899Y-125283021D01*
X186697620Y-125206415D01*
X186694321Y-125155622D01*
X186691124Y-125143181D01*
X186664071Y-125151191D01*
X186605522Y-125171945D01*
X186528377Y-125200528D01*
X186445538Y-125232028D01*
X186369904Y-125261530D01*
X186314377Y-125284120D01*
X186291858Y-125294885D01*
X186144957Y-125294885D01*
X186144525Y-125289843D01*
X186140709Y-125263314D01*
X186137847Y-125242560D01*
X186141040Y-125224905D01*
X186155390Y-125207674D01*
X186185999Y-125188194D01*
X186237967Y-125163789D01*
X186316397Y-125131785D01*
X186426389Y-125089507D01*
X186573045Y-125034281D01*
X186761467Y-124963432D01*
X186781532Y-124955864D01*
X187080281Y-124843144D01*
X187080281Y-124925135D01*
G36*
X156595196Y-125600839D02*
X155654455Y-125600839D01*
X155654455Y-125448286D01*
X156468068Y-125448286D01*
X156468068Y-125194032D01*
X156468455Y-125078649D01*
X156471163Y-125004833D01*
X156478513Y-124963300D01*
X156492826Y-124944766D01*
X156516423Y-124939946D01*
X156531632Y-124939778D01*
X156595196Y-124939778D01*
X156595196Y-125600839D01*
X156595196Y-125600839D01*
G37*
X156595196Y-125600839D02*
X155654455Y-125600839D01*
X155654455Y-125448286D01*
X156468068Y-125448286D01*
X156468068Y-125194032D01*
X156468455Y-125078649D01*
X156471163Y-125004833D01*
X156478513Y-124963300D01*
X156492826Y-124944766D01*
X156516423Y-124939946D01*
X156531632Y-124939778D01*
X156595196Y-124939778D01*
X156595196Y-125600839D01*
G36*
X178921360Y-124248700D02*
X179009079Y-124310722D01*
X179066925Y-124413206D01*
X179094358Y-124555429D01*
X179096697Y-124621143D01*
X179096697Y-124761800D01*
X179452653Y-124761800D01*
X179452653Y-124914352D01*
X178511912Y-124914352D01*
X178511912Y-124697419D01*
X178516102Y-124621960D01*
X178639039Y-124621960D01*
X178639039Y-124761800D01*
X178969570Y-124761800D01*
X178969570Y-124627617D01*
X178956622Y-124503591D01*
X178917471Y-124422680D01*
X178851657Y-124384145D01*
X178815576Y-124380418D01*
X178727953Y-124399869D01*
X178670477Y-124458948D01*
X178642350Y-124558746D01*
X178639039Y-124621960D01*
X178516102Y-124621960D01*
X178521630Y-124522428D01*
X178552176Y-124391354D01*
X178605639Y-124300843D01*
X178684109Y-124247538D01*
X178789675Y-124228084D01*
X178804305Y-124227866D01*
X178921360Y-124248700D01*
X178921360Y-124248700D01*
G37*
X178921360Y-124248700D02*
X179009079Y-124310722D01*
X179066925Y-124413206D01*
X179094358Y-124555429D01*
X179096697Y-124621143D01*
X179096697Y-124761800D01*
X179452653Y-124761800D01*
X179452653Y-124914352D01*
X178511912Y-124914352D01*
X178511912Y-124697419D01*
X178516102Y-124621960D01*
X178639039Y-124621960D01*
X178639039Y-124761800D01*
X178969570Y-124761800D01*
X178969570Y-124627617D01*
X178956622Y-124503591D01*
X178917471Y-124422680D01*
X178851657Y-124384145D01*
X178815576Y-124380418D01*
X178727953Y-124399869D01*
X178670477Y-124458948D01*
X178642350Y-124558746D01*
X178639039Y-124621960D01*
X178516102Y-124621960D01*
X178521630Y-124522428D01*
X178552176Y-124391354D01*
X178605639Y-124300843D01*
X178684109Y-124247538D01*
X178789675Y-124228084D01*
X178804305Y-124227866D01*
X178921360Y-124248700D01*
G36*
X186238331Y-124027692D02*
X186257351Y-124045343D01*
X186265137Y-124089355D01*
X186266666Y-124171668D01*
X186266667Y-124177015D01*
X186266667Y-124329567D01*
X187080281Y-124329567D01*
X187080281Y-124482120D01*
X186266667Y-124482120D01*
X186266667Y-124634672D01*
X186265321Y-124719219D01*
X186257967Y-124764866D01*
X186239629Y-124783553D01*
X186205331Y-124787222D01*
X186203103Y-124787225D01*
X186139540Y-124787225D01*
X186139540Y-124024462D01*
X186203103Y-124024462D01*
X186238331Y-124027692D01*
X186238331Y-124027692D01*
G37*
X186238331Y-124027692D02*
X186257351Y-124045343D01*
X186265137Y-124089355D01*
X186266666Y-124171668D01*
X186266667Y-124177015D01*
X186266667Y-124329567D01*
X187080281Y-124329567D01*
X187080281Y-124482120D01*
X186266667Y-124482120D01*
X186266667Y-124634672D01*
X186265321Y-124719219D01*
X186257967Y-124764866D01*
X186239629Y-124783553D01*
X186205331Y-124787222D01*
X186203103Y-124787225D01*
X186139540Y-124787225D01*
X186139540Y-124024462D01*
X186203103Y-124024462D01*
X186238331Y-124027692D01*
G36*
X156286681Y-123872346D02*
X156410950Y-123913957D01*
X156504203Y-123987275D01*
X156563414Y-124075817D01*
X156598362Y-124163287D01*
X156618600Y-124250845D01*
X156620621Y-124278716D01*
X156608755Y-124357530D01*
X156578878Y-124449026D01*
X156563414Y-124483089D01*
X156480357Y-124594772D01*
X156362776Y-124669305D01*
X156211111Y-124706458D01*
X156124825Y-124710949D01*
X155983681Y-124698357D01*
X155863849Y-124657194D01*
X155856889Y-124653741D01*
X155752726Y-124574754D01*
X155675119Y-124463419D01*
X155633506Y-124335274D01*
X155629029Y-124278716D01*
X155756156Y-124278716D01*
X155778110Y-124371975D01*
X155834624Y-124459092D01*
X155911680Y-124518898D01*
X155916711Y-124521182D01*
X156027041Y-124549707D01*
X156156908Y-124555260D01*
X156280450Y-124537775D01*
X156327357Y-124522261D01*
X156418794Y-124461046D01*
X156472753Y-124377123D01*
X156489502Y-124281854D01*
X156469308Y-124186605D01*
X156412440Y-124102740D01*
X156319166Y-124041622D01*
X156315978Y-124040326D01*
X156183904Y-124006310D01*
X156055475Y-124006509D01*
X155939591Y-124037136D01*
X155845153Y-124094399D01*
X155781059Y-124174509D01*
X155756209Y-124273677D01*
X155756156Y-124278716D01*
X155629029Y-124278716D01*
X155641025Y-124199690D01*
X155671189Y-124108481D01*
X155686237Y-124075817D01*
X155758501Y-123973334D01*
X155856257Y-123905286D01*
X155986076Y-123868428D01*
X156124825Y-123859197D01*
X156286681Y-123872346D01*
X156286681Y-123872346D01*
G37*
X156286681Y-123872346D02*
X156410950Y-123913957D01*
X156504203Y-123987275D01*
X156563414Y-124075817D01*
X156598362Y-124163287D01*
X156618600Y-124250845D01*
X156620621Y-124278716D01*
X156608755Y-124357530D01*
X156578878Y-124449026D01*
X156563414Y-124483089D01*
X156480357Y-124594772D01*
X156362776Y-124669305D01*
X156211111Y-124706458D01*
X156124825Y-124710949D01*
X155983681Y-124698357D01*
X155863849Y-124657194D01*
X155856889Y-124653741D01*
X155752726Y-124574754D01*
X155675119Y-124463419D01*
X155633506Y-124335274D01*
X155629029Y-124278716D01*
X155756156Y-124278716D01*
X155778110Y-124371975D01*
X155834624Y-124459092D01*
X155911680Y-124518898D01*
X155916711Y-124521182D01*
X156027041Y-124549707D01*
X156156908Y-124555260D01*
X156280450Y-124537775D01*
X156327357Y-124522261D01*
X156418794Y-124461046D01*
X156472753Y-124377123D01*
X156489502Y-124281854D01*
X156469308Y-124186605D01*
X156412440Y-124102740D01*
X156319166Y-124041622D01*
X156315978Y-124040326D01*
X156183904Y-124006310D01*
X156055475Y-124006509D01*
X155939591Y-124037136D01*
X155845153Y-124094399D01*
X155781059Y-124174509D01*
X155756209Y-124273677D01*
X155756156Y-124278716D01*
X155629029Y-124278716D01*
X155641025Y-124199690D01*
X155671189Y-124108481D01*
X155686237Y-124075817D01*
X155758501Y-123973334D01*
X155856257Y-123905286D01*
X155986076Y-123868428D01*
X156124825Y-123859197D01*
X156286681Y-123872346D01*
G36*
X171680706Y-123868936D02*
X171758185Y-123930121D01*
X171813559Y-124020779D01*
X171844185Y-124131654D01*
X171847416Y-124253487D01*
X171820608Y-124377020D01*
X171766305Y-124485459D01*
X171706971Y-124555248D01*
X171653262Y-124576535D01*
X171600609Y-124550634D01*
X171587179Y-124537053D01*
X171558697Y-124499689D01*
X171566366Y-124480655D01*
X171582241Y-124473402D01*
X171630584Y-124434022D01*
X171677116Y-124363869D01*
X171711316Y-124282271D01*
X171722854Y-124215153D01*
X171707134Y-124111155D01*
X171663525Y-124041582D01*
X171596040Y-124012303D01*
X171583790Y-124011749D01*
X171541701Y-124018067D01*
X171508554Y-124042362D01*
X171479739Y-124092653D01*
X171450648Y-124176956D01*
X171417048Y-124301803D01*
X171371684Y-124412380D01*
X171302701Y-124497956D01*
X171219755Y-124548714D01*
X171164657Y-124558396D01*
X171049518Y-124536431D01*
X170958489Y-124475812D01*
X170895256Y-124384453D01*
X170863504Y-124270269D01*
X170866919Y-124141174D01*
X170908107Y-124007444D01*
X170962236Y-123914399D01*
X171017375Y-123869601D01*
X171071803Y-123874024D01*
X171101037Y-123898038D01*
X171128525Y-123933724D01*
X171125558Y-123961808D01*
X171088501Y-124001411D01*
X171079840Y-124009468D01*
X171019305Y-124090599D01*
X170991555Y-124182421D01*
X170995992Y-124272011D01*
X171032020Y-124346450D01*
X171097569Y-124392310D01*
X171155096Y-124404278D01*
X171195778Y-124382750D01*
X171215432Y-124360545D01*
X171248098Y-124301825D01*
X171278245Y-124218006D01*
X171289051Y-124175452D01*
X171328289Y-124033114D01*
X171378122Y-123935348D01*
X171443936Y-123876142D01*
X171531117Y-123849486D01*
X171583768Y-123846484D01*
X171680706Y-123868936D01*
X171680706Y-123868936D01*
G37*
X171680706Y-123868936D02*
X171758185Y-123930121D01*
X171813559Y-124020779D01*
X171844185Y-124131654D01*
X171847416Y-124253487D01*
X171820608Y-124377020D01*
X171766305Y-124485459D01*
X171706971Y-124555248D01*
X171653262Y-124576535D01*
X171600609Y-124550634D01*
X171587179Y-124537053D01*
X171558697Y-124499689D01*
X171566366Y-124480655D01*
X171582241Y-124473402D01*
X171630584Y-124434022D01*
X171677116Y-124363869D01*
X171711316Y-124282271D01*
X171722854Y-124215153D01*
X171707134Y-124111155D01*
X171663525Y-124041582D01*
X171596040Y-124012303D01*
X171583790Y-124011749D01*
X171541701Y-124018067D01*
X171508554Y-124042362D01*
X171479739Y-124092653D01*
X171450648Y-124176956D01*
X171417048Y-124301803D01*
X171371684Y-124412380D01*
X171302701Y-124497956D01*
X171219755Y-124548714D01*
X171164657Y-124558396D01*
X171049518Y-124536431D01*
X170958489Y-124475812D01*
X170895256Y-124384453D01*
X170863504Y-124270269D01*
X170866919Y-124141174D01*
X170908107Y-124007444D01*
X170962236Y-123914399D01*
X171017375Y-123869601D01*
X171071803Y-123874024D01*
X171101037Y-123898038D01*
X171128525Y-123933724D01*
X171125558Y-123961808D01*
X171088501Y-124001411D01*
X171079840Y-124009468D01*
X171019305Y-124090599D01*
X170991555Y-124182421D01*
X170995992Y-124272011D01*
X171032020Y-124346450D01*
X171097569Y-124392310D01*
X171155096Y-124404278D01*
X171195778Y-124382750D01*
X171215432Y-124360545D01*
X171248098Y-124301825D01*
X171278245Y-124218006D01*
X171289051Y-124175452D01*
X171328289Y-124033114D01*
X171378122Y-123935348D01*
X171443936Y-123876142D01*
X171531117Y-123849486D01*
X171583768Y-123846484D01*
X171680706Y-123868936D01*
G36*
X179452653Y-123297908D02*
X179448256Y-123348384D01*
X179426581Y-123379345D01*
X179374898Y-123403378D01*
X179331882Y-123417333D01*
X179211111Y-123454768D01*
X179203785Y-123659763D01*
X179196458Y-123864758D01*
X179314157Y-123897711D01*
X179398975Y-123928298D01*
X179441812Y-123965633D01*
X179451454Y-124019412D01*
X179448307Y-124045778D01*
X179442360Y-124062098D01*
X179426943Y-124070026D01*
X179395754Y-124067924D01*
X179342490Y-124054153D01*
X179260850Y-124027073D01*
X179144532Y-123985046D01*
X178987233Y-123926432D01*
X178982283Y-123924576D01*
X178524625Y-123752934D01*
X178517330Y-123667658D01*
X178664230Y-123667658D01*
X178664465Y-123667944D01*
X178692999Y-123677011D01*
X178755828Y-123699000D01*
X178839547Y-123729219D01*
X178842443Y-123730277D01*
X178948270Y-123768233D01*
X179015105Y-123786335D01*
X179051906Y-123781668D01*
X179067626Y-123751318D01*
X179071223Y-123692369D01*
X179071272Y-123655794D01*
X179069993Y-123579188D01*
X179066693Y-123528395D01*
X179063496Y-123515954D01*
X179036444Y-123523964D01*
X178977895Y-123544717D01*
X178900750Y-123573301D01*
X178817910Y-123604801D01*
X178742276Y-123634303D01*
X178686749Y-123656893D01*
X178664230Y-123667658D01*
X178517330Y-123667658D01*
X178516898Y-123662616D01*
X178513081Y-123636087D01*
X178510219Y-123615333D01*
X178513412Y-123597677D01*
X178527762Y-123580447D01*
X178558371Y-123560967D01*
X178610340Y-123536562D01*
X178688769Y-123504558D01*
X178798761Y-123462280D01*
X178945418Y-123407054D01*
X179133839Y-123336204D01*
X179153904Y-123328637D01*
X179452653Y-123215917D01*
X179452653Y-123297908D01*
X179452653Y-123297908D01*
G37*
X179452653Y-123297908D02*
X179448256Y-123348384D01*
X179426581Y-123379345D01*
X179374898Y-123403378D01*
X179331882Y-123417333D01*
X179211111Y-123454768D01*
X179203785Y-123659763D01*
X179196458Y-123864758D01*
X179314157Y-123897711D01*
X179398975Y-123928298D01*
X179441812Y-123965633D01*
X179451454Y-124019412D01*
X179448307Y-124045778D01*
X179442360Y-124062098D01*
X179426943Y-124070026D01*
X179395754Y-124067924D01*
X179342490Y-124054153D01*
X179260850Y-124027073D01*
X179144532Y-123985046D01*
X178987233Y-123926432D01*
X178982283Y-123924576D01*
X178524625Y-123752934D01*
X178517330Y-123667658D01*
X178664230Y-123667658D01*
X178664465Y-123667944D01*
X178692999Y-123677011D01*
X178755828Y-123699000D01*
X178839547Y-123729219D01*
X178842443Y-123730277D01*
X178948270Y-123768233D01*
X179015105Y-123786335D01*
X179051906Y-123781668D01*
X179067626Y-123751318D01*
X179071223Y-123692369D01*
X179071272Y-123655794D01*
X179069993Y-123579188D01*
X179066693Y-123528395D01*
X179063496Y-123515954D01*
X179036444Y-123523964D01*
X178977895Y-123544717D01*
X178900750Y-123573301D01*
X178817910Y-123604801D01*
X178742276Y-123634303D01*
X178686749Y-123656893D01*
X178664230Y-123667658D01*
X178517330Y-123667658D01*
X178516898Y-123662616D01*
X178513081Y-123636087D01*
X178510219Y-123615333D01*
X178513412Y-123597677D01*
X178527762Y-123580447D01*
X178558371Y-123560967D01*
X178610340Y-123536562D01*
X178688769Y-123504558D01*
X178798761Y-123462280D01*
X178945418Y-123407054D01*
X179133839Y-123336204D01*
X179153904Y-123328637D01*
X179452653Y-123215917D01*
X179452653Y-123297908D01*
G36*
X164222823Y-123897335D02*
X163282082Y-123897335D01*
X163282082Y-123236274D01*
X163345646Y-123236274D01*
X163374492Y-123237821D01*
X163392946Y-123248653D01*
X163403329Y-123278052D01*
X163407963Y-123335304D01*
X163409168Y-123429692D01*
X163409210Y-123490528D01*
X163409210Y-123744783D01*
X163688889Y-123744783D01*
X163688889Y-123541379D01*
X163689567Y-123440499D01*
X163693760Y-123380095D01*
X163704712Y-123349790D01*
X163725665Y-123339210D01*
X163752453Y-123337976D01*
X163783978Y-123340143D01*
X163802854Y-123353563D01*
X163812324Y-123388609D01*
X163815631Y-123455657D01*
X163816016Y-123541379D01*
X163816016Y-123744783D01*
X164095696Y-123744783D01*
X164095696Y-123210849D01*
X164222823Y-123210849D01*
X164222823Y-123897335D01*
X164222823Y-123897335D01*
G37*
X164222823Y-123897335D02*
X163282082Y-123897335D01*
X163282082Y-123236274D01*
X163345646Y-123236274D01*
X163374492Y-123237821D01*
X163392946Y-123248653D01*
X163403329Y-123278052D01*
X163407963Y-123335304D01*
X163409168Y-123429692D01*
X163409210Y-123490528D01*
X163409210Y-123744783D01*
X163688889Y-123744783D01*
X163688889Y-123541379D01*
X163689567Y-123440499D01*
X163693760Y-123380095D01*
X163704712Y-123349790D01*
X163725665Y-123339210D01*
X163752453Y-123337976D01*
X163783978Y-123340143D01*
X163802854Y-123353563D01*
X163812324Y-123388609D01*
X163815631Y-123455657D01*
X163816016Y-123541379D01*
X163816016Y-123744783D01*
X164095696Y-123744783D01*
X164095696Y-123210849D01*
X164222823Y-123210849D01*
X164222823Y-123897335D01*
G36*
X187080281Y-123719357D02*
X186139540Y-123719357D01*
X186139540Y-123566805D01*
X187080281Y-123566805D01*
X187080281Y-123719357D01*
X187080281Y-123719357D01*
G37*
X187080281Y-123719357D02*
X186139540Y-123719357D01*
X186139540Y-123566805D01*
X187080281Y-123566805D01*
X187080281Y-123719357D01*
G36*
X156590447Y-122832747D02*
X156578276Y-122884956D01*
X156545755Y-122920219D01*
X156479240Y-122952364D01*
X156468068Y-122956769D01*
X156353654Y-123001329D01*
X156353654Y-123399019D01*
X156474425Y-123436525D01*
X156546663Y-123461844D01*
X156582347Y-123487523D01*
X156594210Y-123526430D01*
X156595196Y-123558556D01*
X156593528Y-123614834D01*
X156589451Y-123640470D01*
X156588839Y-123640625D01*
X156564090Y-123631082D01*
X156501204Y-123606838D01*
X156409493Y-123571483D01*
X156298269Y-123528606D01*
X156290090Y-123525454D01*
X156156076Y-123473891D01*
X156019669Y-123421574D01*
X155898649Y-123375314D01*
X155824705Y-123347185D01*
X155735763Y-123312512D01*
X155684678Y-123286587D01*
X155661717Y-123260234D01*
X155657150Y-123224280D01*
X155658697Y-123202043D01*
X155815152Y-123202043D01*
X155842043Y-123214380D01*
X155902505Y-123237517D01*
X155981837Y-123266266D01*
X156065339Y-123295434D01*
X156138313Y-123319831D01*
X156186057Y-123334266D01*
X156194745Y-123336083D01*
X156205176Y-123314187D01*
X156212102Y-123255708D01*
X156213814Y-123198136D01*
X156211336Y-123121537D01*
X156204943Y-123070744D01*
X156198746Y-123058296D01*
X156165144Y-123066258D01*
X156102253Y-123086798D01*
X156023465Y-123114897D01*
X155942174Y-123145536D01*
X155871772Y-123173696D01*
X155825653Y-123194359D01*
X155815152Y-123202043D01*
X155658697Y-123202043D01*
X155659440Y-123191367D01*
X155661010Y-123165480D01*
X155664057Y-123144278D01*
X155673547Y-123125317D01*
X155694446Y-123106153D01*
X155731720Y-123084341D01*
X155790333Y-123057437D01*
X155875253Y-123022996D01*
X155991445Y-122978574D01*
X156143874Y-122921726D01*
X156337507Y-122850008D01*
X156399756Y-122826940D01*
X156598410Y-122753285D01*
X156590447Y-122832747D01*
X156590447Y-122832747D01*
G37*
X156590447Y-122832747D02*
X156578276Y-122884956D01*
X156545755Y-122920219D01*
X156479240Y-122952364D01*
X156468068Y-122956769D01*
X156353654Y-123001329D01*
X156353654Y-123399019D01*
X156474425Y-123436525D01*
X156546663Y-123461844D01*
X156582347Y-123487523D01*
X156594210Y-123526430D01*
X156595196Y-123558556D01*
X156593528Y-123614834D01*
X156589451Y-123640470D01*
X156588839Y-123640625D01*
X156564090Y-123631082D01*
X156501204Y-123606838D01*
X156409493Y-123571483D01*
X156298269Y-123528606D01*
X156290090Y-123525454D01*
X156156076Y-123473891D01*
X156019669Y-123421574D01*
X155898649Y-123375314D01*
X155824705Y-123347185D01*
X155735763Y-123312512D01*
X155684678Y-123286587D01*
X155661717Y-123260234D01*
X155657150Y-123224280D01*
X155658697Y-123202043D01*
X155815152Y-123202043D01*
X155842043Y-123214380D01*
X155902505Y-123237517D01*
X155981837Y-123266266D01*
X156065339Y-123295434D01*
X156138313Y-123319831D01*
X156186057Y-123334266D01*
X156194745Y-123336083D01*
X156205176Y-123314187D01*
X156212102Y-123255708D01*
X156213814Y-123198136D01*
X156211336Y-123121537D01*
X156204943Y-123070744D01*
X156198746Y-123058296D01*
X156165144Y-123066258D01*
X156102253Y-123086798D01*
X156023465Y-123114897D01*
X155942174Y-123145536D01*
X155871772Y-123173696D01*
X155825653Y-123194359D01*
X155815152Y-123202043D01*
X155658697Y-123202043D01*
X155659440Y-123191367D01*
X155661010Y-123165480D01*
X155664057Y-123144278D01*
X155673547Y-123125317D01*
X155694446Y-123106153D01*
X155731720Y-123084341D01*
X155790333Y-123057437D01*
X155875253Y-123022996D01*
X155991445Y-122978574D01*
X156143874Y-122921726D01*
X156337507Y-122850008D01*
X156399756Y-122826940D01*
X156598410Y-122753285D01*
X156590447Y-122832747D01*
G36*
X171233884Y-122753230D02*
X171409932Y-122756077D01*
X171543172Y-122766193D01*
X171641416Y-122786006D01*
X171712475Y-122817949D01*
X171764163Y-122864450D01*
X171804290Y-122927939D01*
X171805917Y-122931169D01*
X171845154Y-123055011D01*
X171847823Y-123183748D01*
X171817022Y-123304835D01*
X171755851Y-123405726D01*
X171672473Y-123471420D01*
X171624502Y-123490371D01*
X171563302Y-123503296D01*
X171479046Y-123511192D01*
X171361904Y-123515055D01*
X171233884Y-123515914D01*
X170884285Y-123515954D01*
X170884285Y-123363401D01*
X171213619Y-123363401D01*
X171376964Y-123361194D01*
X171497298Y-123353310D01*
X171582322Y-123337856D01*
X171639736Y-123312937D01*
X171677240Y-123276661D01*
X171695095Y-123244987D01*
X171719920Y-123142411D01*
X171705148Y-123045429D01*
X171654732Y-122967668D01*
X171604909Y-122933973D01*
X171554733Y-122922720D01*
X171464767Y-122913733D01*
X171346053Y-122907810D01*
X171213619Y-122905743D01*
X170884285Y-122905743D01*
X170884285Y-122753191D01*
X171233884Y-122753230D01*
X171233884Y-122753230D01*
G37*
X171233884Y-122753230D02*
X171409932Y-122756077D01*
X171543172Y-122766193D01*
X171641416Y-122786006D01*
X171712475Y-122817949D01*
X171764163Y-122864450D01*
X171804290Y-122927939D01*
X171805917Y-122931169D01*
X171845154Y-123055011D01*
X171847823Y-123183748D01*
X171817022Y-123304835D01*
X171755851Y-123405726D01*
X171672473Y-123471420D01*
X171624502Y-123490371D01*
X171563302Y-123503296D01*
X171479046Y-123511192D01*
X171361904Y-123515055D01*
X171233884Y-123515914D01*
X170884285Y-123515954D01*
X170884285Y-123363401D01*
X171213619Y-123363401D01*
X171376964Y-123361194D01*
X171497298Y-123353310D01*
X171582322Y-123337856D01*
X171639736Y-123312937D01*
X171677240Y-123276661D01*
X171695095Y-123244987D01*
X171719920Y-123142411D01*
X171705148Y-123045429D01*
X171654732Y-122967668D01*
X171604909Y-122933973D01*
X171554733Y-122922720D01*
X171464767Y-122913733D01*
X171346053Y-122907810D01*
X171213619Y-122905743D01*
X170884285Y-122905743D01*
X170884285Y-122753191D01*
X171233884Y-122753230D01*
G36*
X186935962Y-122521389D02*
X187013440Y-122582573D01*
X187068815Y-122673232D01*
X187099440Y-122784107D01*
X187102671Y-122905939D01*
X187075863Y-123029472D01*
X187021560Y-123137911D01*
X186962226Y-123207701D01*
X186908517Y-123228987D01*
X186855865Y-123203086D01*
X186842434Y-123189506D01*
X186813953Y-123152141D01*
X186821621Y-123133107D01*
X186837496Y-123125855D01*
X186885839Y-123086474D01*
X186932372Y-123016321D01*
X186966571Y-122934723D01*
X186978109Y-122867605D01*
X186962389Y-122763608D01*
X186918780Y-122694035D01*
X186851295Y-122664756D01*
X186839045Y-122664202D01*
X186796957Y-122670519D01*
X186763809Y-122694815D01*
X186734994Y-122745106D01*
X186705903Y-122829409D01*
X186672303Y-122954256D01*
X186626939Y-123064833D01*
X186557956Y-123150409D01*
X186475010Y-123201167D01*
X186419913Y-123210849D01*
X186304773Y-123188883D01*
X186213744Y-123128264D01*
X186150511Y-123036905D01*
X186118760Y-122922721D01*
X186122175Y-122793626D01*
X186163362Y-122659897D01*
X186217491Y-122566852D01*
X186272630Y-122522053D01*
X186327058Y-122526476D01*
X186356292Y-122550491D01*
X186383780Y-122586176D01*
X186380813Y-122614261D01*
X186343756Y-122653863D01*
X186335096Y-122661920D01*
X186274560Y-122743052D01*
X186246810Y-122834873D01*
X186251248Y-122924464D01*
X186287275Y-122998903D01*
X186352824Y-123044762D01*
X186410351Y-123056730D01*
X186451033Y-123035203D01*
X186470687Y-123012997D01*
X186503353Y-122954278D01*
X186533500Y-122870458D01*
X186544307Y-122827904D01*
X186583544Y-122685566D01*
X186633377Y-122587800D01*
X186699191Y-122528595D01*
X186786372Y-122501938D01*
X186839023Y-122498937D01*
X186935962Y-122521389D01*
X186935962Y-122521389D01*
G37*
X186935962Y-122521389D02*
X187013440Y-122582573D01*
X187068815Y-122673232D01*
X187099440Y-122784107D01*
X187102671Y-122905939D01*
X187075863Y-123029472D01*
X187021560Y-123137911D01*
X186962226Y-123207701D01*
X186908517Y-123228987D01*
X186855865Y-123203086D01*
X186842434Y-123189506D01*
X186813953Y-123152141D01*
X186821621Y-123133107D01*
X186837496Y-123125855D01*
X186885839Y-123086474D01*
X186932372Y-123016321D01*
X186966571Y-122934723D01*
X186978109Y-122867605D01*
X186962389Y-122763608D01*
X186918780Y-122694035D01*
X186851295Y-122664756D01*
X186839045Y-122664202D01*
X186796957Y-122670519D01*
X186763809Y-122694815D01*
X186734994Y-122745106D01*
X186705903Y-122829409D01*
X186672303Y-122954256D01*
X186626939Y-123064833D01*
X186557956Y-123150409D01*
X186475010Y-123201167D01*
X186419913Y-123210849D01*
X186304773Y-123188883D01*
X186213744Y-123128264D01*
X186150511Y-123036905D01*
X186118760Y-122922721D01*
X186122175Y-122793626D01*
X186163362Y-122659897D01*
X186217491Y-122566852D01*
X186272630Y-122522053D01*
X186327058Y-122526476D01*
X186356292Y-122550491D01*
X186383780Y-122586176D01*
X186380813Y-122614261D01*
X186343756Y-122653863D01*
X186335096Y-122661920D01*
X186274560Y-122743052D01*
X186246810Y-122834873D01*
X186251248Y-122924464D01*
X186287275Y-122998903D01*
X186352824Y-123044762D01*
X186410351Y-123056730D01*
X186451033Y-123035203D01*
X186470687Y-123012997D01*
X186503353Y-122954278D01*
X186533500Y-122870458D01*
X186544307Y-122827904D01*
X186583544Y-122685566D01*
X186633377Y-122587800D01*
X186699191Y-122528595D01*
X186786372Y-122501938D01*
X186839023Y-122498937D01*
X186935962Y-122521389D01*
G36*
X179452653Y-122931169D02*
X178511912Y-122931169D01*
X178511912Y-122778616D01*
X179452653Y-122778616D01*
X179452653Y-122931169D01*
X179452653Y-122931169D01*
G37*
X179452653Y-122931169D02*
X178511912Y-122931169D01*
X178511912Y-122778616D01*
X179452653Y-122778616D01*
X179452653Y-122931169D01*
G36*
X164213663Y-122135163D02*
X164222386Y-122180155D01*
X164222694Y-122198687D01*
X164218987Y-122241583D01*
X164202363Y-122276992D01*
X164164342Y-122313994D01*
X164096443Y-122361669D01*
X164032003Y-122402849D01*
X163940957Y-122461260D01*
X163884797Y-122502844D01*
X163855104Y-122537429D01*
X163843458Y-122574844D01*
X163841442Y-122624918D01*
X163841442Y-122727765D01*
X164222823Y-122727765D01*
X164222823Y-122880318D01*
X163282082Y-122880318D01*
X163282082Y-122650673D01*
X163285652Y-122580870D01*
X163409210Y-122580870D01*
X163409210Y-122727765D01*
X163714315Y-122727765D01*
X163714315Y-122570859D01*
X163704578Y-122449294D01*
X163673429Y-122370409D01*
X163617961Y-122329515D01*
X163559263Y-122320959D01*
X163485352Y-122341147D01*
X163436722Y-122402749D01*
X163412478Y-122507318D01*
X163409210Y-122580870D01*
X163285652Y-122580870D01*
X163291165Y-122473090D01*
X163319835Y-122339707D01*
X163370223Y-122246962D01*
X163444463Y-122191292D01*
X163544686Y-122169137D01*
X163570774Y-122168406D01*
X163642807Y-122176488D01*
X163701604Y-122207930D01*
X163756084Y-122259499D01*
X163841996Y-122350592D01*
X164000628Y-122251317D01*
X164082775Y-122200056D01*
X164150282Y-122158202D01*
X164189495Y-122134215D01*
X164191041Y-122133298D01*
X164213663Y-122135163D01*
X164213663Y-122135163D01*
G37*
X164213663Y-122135163D02*
X164222386Y-122180155D01*
X164222694Y-122198687D01*
X164218987Y-122241583D01*
X164202363Y-122276992D01*
X164164342Y-122313994D01*
X164096443Y-122361669D01*
X164032003Y-122402849D01*
X163940957Y-122461260D01*
X163884797Y-122502844D01*
X163855104Y-122537429D01*
X163843458Y-122574844D01*
X163841442Y-122624918D01*
X163841442Y-122727765D01*
X164222823Y-122727765D01*
X164222823Y-122880318D01*
X163282082Y-122880318D01*
X163282082Y-122650673D01*
X163285652Y-122580870D01*
X163409210Y-122580870D01*
X163409210Y-122727765D01*
X163714315Y-122727765D01*
X163714315Y-122570859D01*
X163704578Y-122449294D01*
X163673429Y-122370409D01*
X163617961Y-122329515D01*
X163559263Y-122320959D01*
X163485352Y-122341147D01*
X163436722Y-122402749D01*
X163412478Y-122507318D01*
X163409210Y-122580870D01*
X163285652Y-122580870D01*
X163291165Y-122473090D01*
X163319835Y-122339707D01*
X163370223Y-122246962D01*
X163444463Y-122191292D01*
X163544686Y-122169137D01*
X163570774Y-122168406D01*
X163642807Y-122176488D01*
X163701604Y-122207930D01*
X163756084Y-122259499D01*
X163841996Y-122350592D01*
X164000628Y-122251317D01*
X164082775Y-122200056D01*
X164150282Y-122158202D01*
X164189495Y-122134215D01*
X164191041Y-122133298D01*
X164213663Y-122135163D01*
G36*
X156277809Y-121709620D02*
X156395586Y-121747348D01*
X156482008Y-121815680D01*
X156540929Y-121919080D01*
X156576204Y-122062008D01*
X156591309Y-122238137D01*
X156600963Y-122498937D01*
X155648687Y-122498937D01*
X155654334Y-122346384D01*
X155775658Y-122346384D01*
X156473992Y-122346384D01*
X156463521Y-122181940D01*
X156452476Y-122078848D01*
X156431843Y-122009570D01*
X156396375Y-121957257D01*
X156392162Y-121952684D01*
X156291277Y-121879831D01*
X156171324Y-121846486D01*
X156045733Y-121853041D01*
X155927932Y-121899891D01*
X155877221Y-121937587D01*
X155832814Y-121982648D01*
X155807031Y-122029468D01*
X155793332Y-122095348D01*
X155786395Y-122177766D01*
X155775658Y-122346384D01*
X155654334Y-122346384D01*
X155658341Y-122238137D01*
X155674749Y-122053597D01*
X155711149Y-121912817D01*
X155771395Y-121811336D01*
X155859340Y-121744691D01*
X155978838Y-121708421D01*
X156124825Y-121698036D01*
X156277809Y-121709620D01*
X156277809Y-121709620D01*
G37*
X156277809Y-121709620D02*
X156395586Y-121747348D01*
X156482008Y-121815680D01*
X156540929Y-121919080D01*
X156576204Y-122062008D01*
X156591309Y-122238137D01*
X156600963Y-122498937D01*
X155648687Y-122498937D01*
X155654334Y-122346384D01*
X155775658Y-122346384D01*
X156473992Y-122346384D01*
X156463521Y-122181940D01*
X156452476Y-122078848D01*
X156431843Y-122009570D01*
X156396375Y-121957257D01*
X156392162Y-121952684D01*
X156291277Y-121879831D01*
X156171324Y-121846486D01*
X156045733Y-121853041D01*
X155927932Y-121899891D01*
X155877221Y-121937587D01*
X155832814Y-121982648D01*
X155807031Y-122029468D01*
X155793332Y-122095348D01*
X155786395Y-122177766D01*
X155775658Y-122346384D01*
X155654334Y-122346384D01*
X155658341Y-122238137D01*
X155674749Y-122053597D01*
X155711149Y-121912817D01*
X155771395Y-121811336D01*
X155859340Y-121744691D01*
X155978838Y-121708421D01*
X156124825Y-121698036D01*
X156277809Y-121709620D01*
G36*
X171666269Y-121703082D02*
X171742486Y-121759023D01*
X171795907Y-121845824D01*
X171809207Y-121892266D01*
X171816687Y-121955145D01*
X171822258Y-122050515D01*
X171824927Y-122160024D01*
X171825025Y-122184297D01*
X171825025Y-122397235D01*
X170884285Y-122397235D01*
X170884285Y-122167590D01*
X170887318Y-122093946D01*
X171011412Y-122093946D01*
X171011412Y-122244682D01*
X171291091Y-122244682D01*
X171291091Y-122103171D01*
X171289923Y-122083358D01*
X171418219Y-122083358D01*
X171418219Y-122244682D01*
X171697898Y-122244682D01*
X171697898Y-122081233D01*
X171689432Y-121961199D01*
X171662150Y-121884281D01*
X171613229Y-121845322D01*
X171564601Y-121837876D01*
X171492331Y-121854606D01*
X171445692Y-121907552D01*
X171422220Y-122000845D01*
X171418219Y-122083358D01*
X171289923Y-122083358D01*
X171284167Y-121985751D01*
X171261101Y-121911037D01*
X171218457Y-121872498D01*
X171164886Y-121863301D01*
X171088970Y-121876611D01*
X171040932Y-121920716D01*
X171016606Y-122001878D01*
X171011412Y-122093946D01*
X170887318Y-122093946D01*
X170891261Y-121998211D01*
X170914135Y-121873016D01*
X170955820Y-121787020D01*
X171019231Y-121735242D01*
X171107283Y-121712698D01*
X171151504Y-121710748D01*
X171241377Y-121727747D01*
X171297595Y-121770820D01*
X171351102Y-121830891D01*
X171412346Y-121758107D01*
X171490047Y-121698854D01*
X171578405Y-121681769D01*
X171666269Y-121703082D01*
X171666269Y-121703082D01*
G37*
X171666269Y-121703082D02*
X171742486Y-121759023D01*
X171795907Y-121845824D01*
X171809207Y-121892266D01*
X171816687Y-121955145D01*
X171822258Y-122050515D01*
X171824927Y-122160024D01*
X171825025Y-122184297D01*
X171825025Y-122397235D01*
X170884285Y-122397235D01*
X170884285Y-122167590D01*
X170887318Y-122093946D01*
X171011412Y-122093946D01*
X171011412Y-122244682D01*
X171291091Y-122244682D01*
X171291091Y-122103171D01*
X171289923Y-122083358D01*
X171418219Y-122083358D01*
X171418219Y-122244682D01*
X171697898Y-122244682D01*
X171697898Y-122081233D01*
X171689432Y-121961199D01*
X171662150Y-121884281D01*
X171613229Y-121845322D01*
X171564601Y-121837876D01*
X171492331Y-121854606D01*
X171445692Y-121907552D01*
X171422220Y-122000845D01*
X171418219Y-122083358D01*
X171289923Y-122083358D01*
X171284167Y-121985751D01*
X171261101Y-121911037D01*
X171218457Y-121872498D01*
X171164886Y-121863301D01*
X171088970Y-121876611D01*
X171040932Y-121920716D01*
X171016606Y-122001878D01*
X171011412Y-122093946D01*
X170887318Y-122093946D01*
X170891261Y-121998211D01*
X170914135Y-121873016D01*
X170955820Y-121787020D01*
X171019231Y-121735242D01*
X171107283Y-121712698D01*
X171151504Y-121710748D01*
X171241377Y-121727747D01*
X171297595Y-121770820D01*
X171351102Y-121830891D01*
X171412346Y-121758107D01*
X171490047Y-121698854D01*
X171578405Y-121681769D01*
X171666269Y-121703082D01*
G36*
X179448298Y-121715897D02*
X179451404Y-121755035D01*
X179446360Y-121784900D01*
X179425855Y-121813062D01*
X179382574Y-121847091D01*
X179309204Y-121894559D01*
X179225998Y-121946020D01*
X179145293Y-121997568D01*
X179098990Y-122035606D01*
X179077572Y-122072254D01*
X179071521Y-122119633D01*
X179071272Y-122143067D01*
X179071272Y-122244682D01*
X179452653Y-122244682D01*
X179452653Y-122397235D01*
X178507284Y-122397235D01*
X178515954Y-122132048D01*
X178517762Y-122092130D01*
X178639039Y-122092130D01*
X178639039Y-122244682D01*
X178944144Y-122244682D01*
X178944144Y-122080859D01*
X178941636Y-121987742D01*
X178931411Y-121930758D01*
X178909415Y-121895321D01*
X178887636Y-121877455D01*
X178804048Y-121839667D01*
X178733572Y-121848532D01*
X178680089Y-121900698D01*
X178647484Y-121992812D01*
X178639039Y-122092130D01*
X178517762Y-122092130D01*
X178521694Y-122005321D01*
X178530540Y-121917661D01*
X178544664Y-121857292D01*
X178566239Y-121812439D01*
X178578063Y-121795371D01*
X178659681Y-121723939D01*
X178758861Y-121692190D01*
X178862003Y-121699817D01*
X178955502Y-121746517D01*
X179009814Y-121805049D01*
X179063691Y-121884998D01*
X179251816Y-121759650D01*
X179439940Y-121634301D01*
X179448298Y-121715897D01*
X179448298Y-121715897D01*
G37*
X179448298Y-121715897D02*
X179451404Y-121755035D01*
X179446360Y-121784900D01*
X179425855Y-121813062D01*
X179382574Y-121847091D01*
X179309204Y-121894559D01*
X179225998Y-121946020D01*
X179145293Y-121997568D01*
X179098990Y-122035606D01*
X179077572Y-122072254D01*
X179071521Y-122119633D01*
X179071272Y-122143067D01*
X179071272Y-122244682D01*
X179452653Y-122244682D01*
X179452653Y-122397235D01*
X178507284Y-122397235D01*
X178515954Y-122132048D01*
X178517762Y-122092130D01*
X178639039Y-122092130D01*
X178639039Y-122244682D01*
X178944144Y-122244682D01*
X178944144Y-122080859D01*
X178941636Y-121987742D01*
X178931411Y-121930758D01*
X178909415Y-121895321D01*
X178887636Y-121877455D01*
X178804048Y-121839667D01*
X178733572Y-121848532D01*
X178680089Y-121900698D01*
X178647484Y-121992812D01*
X178639039Y-122092130D01*
X178517762Y-122092130D01*
X178521694Y-122005321D01*
X178530540Y-121917661D01*
X178544664Y-121857292D01*
X178566239Y-121812439D01*
X178578063Y-121795371D01*
X178659681Y-121723939D01*
X178758861Y-121692190D01*
X178862003Y-121699817D01*
X178955502Y-121746517D01*
X179009814Y-121805049D01*
X179063691Y-121884998D01*
X179251816Y-121759650D01*
X179439940Y-121634301D01*
X179448298Y-121715897D01*
G36*
X186231949Y-121508892D02*
X186250403Y-121519724D01*
X186260786Y-121549123D01*
X186265420Y-121606375D01*
X186266625Y-121700763D01*
X186266667Y-121761599D01*
X186266667Y-122015854D01*
X186546347Y-122015854D01*
X186546347Y-121812450D01*
X186547024Y-121711570D01*
X186551218Y-121651166D01*
X186562170Y-121620861D01*
X186583122Y-121610281D01*
X186609910Y-121609047D01*
X186641435Y-121611214D01*
X186660312Y-121624634D01*
X186669782Y-121659680D01*
X186673088Y-121726728D01*
X186673474Y-121812450D01*
X186673474Y-122015854D01*
X187080281Y-122015854D01*
X187080281Y-122168406D01*
X186139540Y-122168406D01*
X186139540Y-121507345D01*
X186203103Y-121507345D01*
X186231949Y-121508892D01*
X186231949Y-121508892D01*
G37*
X186231949Y-121508892D02*
X186250403Y-121519724D01*
X186260786Y-121549123D01*
X186265420Y-121606375D01*
X186266625Y-121700763D01*
X186266667Y-121761599D01*
X186266667Y-122015854D01*
X186546347Y-122015854D01*
X186546347Y-121812450D01*
X186547024Y-121711570D01*
X186551218Y-121651166D01*
X186562170Y-121620861D01*
X186583122Y-121610281D01*
X186609910Y-121609047D01*
X186641435Y-121611214D01*
X186660312Y-121624634D01*
X186669782Y-121659680D01*
X186673088Y-121726728D01*
X186673474Y-121812450D01*
X186673474Y-122015854D01*
X187080281Y-122015854D01*
X187080281Y-122168406D01*
X186139540Y-122168406D01*
X186139540Y-121507345D01*
X186203103Y-121507345D01*
X186231949Y-121508892D01*
G36*
X163914309Y-120999273D02*
X164038578Y-121040884D01*
X164131831Y-121114202D01*
X164191041Y-121202744D01*
X164225990Y-121290214D01*
X164246228Y-121377772D01*
X164248249Y-121405643D01*
X164236382Y-121484457D01*
X164206505Y-121575953D01*
X164191041Y-121610016D01*
X164107985Y-121721699D01*
X163990403Y-121796232D01*
X163838738Y-121833385D01*
X163752453Y-121837876D01*
X163611308Y-121825283D01*
X163491477Y-121784121D01*
X163484517Y-121780668D01*
X163380354Y-121701681D01*
X163302746Y-121590346D01*
X163261133Y-121462201D01*
X163256657Y-121405643D01*
X163383784Y-121405643D01*
X163405737Y-121498902D01*
X163462251Y-121586019D01*
X163539308Y-121645825D01*
X163544338Y-121648109D01*
X163654668Y-121676633D01*
X163784536Y-121682187D01*
X163908078Y-121664702D01*
X163954984Y-121649188D01*
X164046422Y-121587973D01*
X164100381Y-121504050D01*
X164117129Y-121408781D01*
X164096935Y-121313532D01*
X164040067Y-121229667D01*
X163946793Y-121168549D01*
X163943606Y-121167253D01*
X163811531Y-121133237D01*
X163683102Y-121133436D01*
X163567219Y-121164063D01*
X163472780Y-121221326D01*
X163408686Y-121301436D01*
X163383837Y-121400604D01*
X163383784Y-121405643D01*
X163256657Y-121405643D01*
X163268652Y-121326617D01*
X163298817Y-121235408D01*
X163313864Y-121202744D01*
X163386129Y-121100261D01*
X163483885Y-121032213D01*
X163613703Y-120995355D01*
X163752453Y-120986124D01*
X163914309Y-120999273D01*
X163914309Y-120999273D01*
G37*
X163914309Y-120999273D02*
X164038578Y-121040884D01*
X164131831Y-121114202D01*
X164191041Y-121202744D01*
X164225990Y-121290214D01*
X164246228Y-121377772D01*
X164248249Y-121405643D01*
X164236382Y-121484457D01*
X164206505Y-121575953D01*
X164191041Y-121610016D01*
X164107985Y-121721699D01*
X163990403Y-121796232D01*
X163838738Y-121833385D01*
X163752453Y-121837876D01*
X163611308Y-121825283D01*
X163491477Y-121784121D01*
X163484517Y-121780668D01*
X163380354Y-121701681D01*
X163302746Y-121590346D01*
X163261133Y-121462201D01*
X163256657Y-121405643D01*
X163383784Y-121405643D01*
X163405737Y-121498902D01*
X163462251Y-121586019D01*
X163539308Y-121645825D01*
X163544338Y-121648109D01*
X163654668Y-121676633D01*
X163784536Y-121682187D01*
X163908078Y-121664702D01*
X163954984Y-121649188D01*
X164046422Y-121587973D01*
X164100381Y-121504050D01*
X164117129Y-121408781D01*
X164096935Y-121313532D01*
X164040067Y-121229667D01*
X163946793Y-121168549D01*
X163943606Y-121167253D01*
X163811531Y-121133237D01*
X163683102Y-121133436D01*
X163567219Y-121164063D01*
X163472780Y-121221326D01*
X163408686Y-121301436D01*
X163383837Y-121400604D01*
X163383784Y-121405643D01*
X163256657Y-121405643D01*
X163268652Y-121326617D01*
X163298817Y-121235408D01*
X163313864Y-121202744D01*
X163386129Y-121100261D01*
X163483885Y-121032213D01*
X163613703Y-120995355D01*
X163752453Y-120986124D01*
X163914309Y-120999273D01*
G36*
X156595196Y-121354793D02*
X155654455Y-121354793D01*
X155654455Y-121202240D01*
X156595196Y-121202240D01*
X156595196Y-121354793D01*
X156595196Y-121354793D01*
G37*
X156595196Y-121354793D02*
X155654455Y-121354793D01*
X155654455Y-121202240D01*
X156595196Y-121202240D01*
X156595196Y-121354793D01*
G36*
X171825025Y-120539820D02*
X171452170Y-120546856D01*
X171079314Y-120553892D01*
X171445813Y-120682961D01*
X171586780Y-120733261D01*
X171686695Y-120771209D01*
X171752750Y-120800523D01*
X171792138Y-120824923D01*
X171812051Y-120848129D01*
X171819681Y-120873861D01*
X171820019Y-120876496D01*
X171820571Y-120900952D01*
X171811278Y-120921984D01*
X171785513Y-120943061D01*
X171736650Y-120967653D01*
X171658064Y-120999229D01*
X171543127Y-121041259D01*
X171425925Y-121082845D01*
X171024124Y-121224729D01*
X171424575Y-121226197D01*
X171825025Y-121227665D01*
X171825025Y-121354793D01*
X170884285Y-121354793D01*
X170884285Y-121130140D01*
X171094044Y-121059525D01*
X171269074Y-121000517D01*
X171401094Y-120955538D01*
X171495295Y-120922420D01*
X171556870Y-120898995D01*
X171591010Y-120883095D01*
X171602908Y-120872551D01*
X171597754Y-120865196D01*
X171580742Y-120858861D01*
X171577170Y-120857768D01*
X171532007Y-120843067D01*
X171450053Y-120815511D01*
X171342557Y-120778913D01*
X171220771Y-120737084D01*
X171208501Y-120732851D01*
X170896997Y-120625327D01*
X170889179Y-120519689D01*
X170881361Y-120414052D01*
X171825025Y-120414052D01*
X171825025Y-120539820D01*
X171825025Y-120539820D01*
G37*
X171825025Y-120539820D02*
X171452170Y-120546856D01*
X171079314Y-120553892D01*
X171445813Y-120682961D01*
X171586780Y-120733261D01*
X171686695Y-120771209D01*
X171752750Y-120800523D01*
X171792138Y-120824923D01*
X171812051Y-120848129D01*
X171819681Y-120873861D01*
X171820019Y-120876496D01*
X171820571Y-120900952D01*
X171811278Y-120921984D01*
X171785513Y-120943061D01*
X171736650Y-120967653D01*
X171658064Y-120999229D01*
X171543127Y-121041259D01*
X171425925Y-121082845D01*
X171024124Y-121224729D01*
X171424575Y-121226197D01*
X171825025Y-121227665D01*
X171825025Y-121354793D01*
X170884285Y-121354793D01*
X170884285Y-121130140D01*
X171094044Y-121059525D01*
X171269074Y-121000517D01*
X171401094Y-120955538D01*
X171495295Y-120922420D01*
X171556870Y-120898995D01*
X171591010Y-120883095D01*
X171602908Y-120872551D01*
X171597754Y-120865196D01*
X171580742Y-120858861D01*
X171577170Y-120857768D01*
X171532007Y-120843067D01*
X171450053Y-120815511D01*
X171342557Y-120778913D01*
X171220771Y-120737084D01*
X171208501Y-120732851D01*
X170896997Y-120625327D01*
X170889179Y-120519689D01*
X170881361Y-120414052D01*
X171825025Y-120414052D01*
X171825025Y-120539820D01*
G36*
X179452653Y-121329367D02*
X178511912Y-121329367D01*
X178511912Y-121176815D01*
X179452653Y-121176815D01*
X179452653Y-121329367D01*
X179452653Y-121329367D01*
G37*
X179452653Y-121329367D02*
X178511912Y-121329367D01*
X178511912Y-121176815D01*
X179452653Y-121176815D01*
X179452653Y-121329367D01*
G36*
X187080281Y-121176815D02*
X186139540Y-121176815D01*
X186139540Y-121024262D01*
X187080281Y-121024262D01*
X187080281Y-121176815D01*
X187080281Y-121176815D01*
G37*
X187080281Y-121176815D02*
X186139540Y-121176815D01*
X186139540Y-121024262D01*
X187080281Y-121024262D01*
X187080281Y-121176815D01*
G36*
X156595196Y-120141581D02*
X156593330Y-120173096D01*
X156583648Y-120200808D01*
X156560016Y-120229727D01*
X156516306Y-120264868D01*
X156446385Y-120311241D01*
X156344123Y-120373861D01*
X156222001Y-120446686D01*
X155848807Y-120668306D01*
X156595196Y-120668306D01*
X156595196Y-120795433D01*
X155654455Y-120795433D01*
X155654455Y-120711948D01*
X155656320Y-120680433D01*
X155666003Y-120652721D01*
X155689634Y-120623802D01*
X155733345Y-120588661D01*
X155803266Y-120542287D01*
X155905528Y-120479668D01*
X156027649Y-120406843D01*
X156400844Y-120185223D01*
X155654455Y-120185223D01*
X155654455Y-120058096D01*
X156595196Y-120058096D01*
X156595196Y-120141581D01*
X156595196Y-120141581D01*
G37*
X156595196Y-120141581D02*
X156593330Y-120173096D01*
X156583648Y-120200808D01*
X156560016Y-120229727D01*
X156516306Y-120264868D01*
X156446385Y-120311241D01*
X156344123Y-120373861D01*
X156222001Y-120446686D01*
X155848807Y-120668306D01*
X156595196Y-120668306D01*
X156595196Y-120795433D01*
X155654455Y-120795433D01*
X155654455Y-120711948D01*
X155656320Y-120680433D01*
X155666003Y-120652721D01*
X155689634Y-120623802D01*
X155733345Y-120588661D01*
X155803266Y-120542287D01*
X155905528Y-120479668D01*
X156027649Y-120406843D01*
X156400844Y-120185223D01*
X155654455Y-120185223D01*
X155654455Y-120058096D01*
X156595196Y-120058096D01*
X156595196Y-120141581D01*
G36*
X179452653Y-120115543D02*
X179436392Y-120192724D01*
X179395446Y-120234833D01*
X179353892Y-120260658D01*
X179278209Y-120307110D01*
X179177760Y-120368466D01*
X179061904Y-120439000D01*
X179011243Y-120469777D01*
X178684248Y-120668306D01*
X179452653Y-120668306D01*
X179452653Y-120795433D01*
X178511912Y-120795433D01*
X178511912Y-120706763D01*
X178511885Y-120676178D01*
X178515331Y-120650935D01*
X178527541Y-120626785D01*
X178553807Y-120599480D01*
X178599420Y-120564769D01*
X178669672Y-120518404D01*
X178769854Y-120456137D01*
X178905257Y-120373718D01*
X178992866Y-120320561D01*
X179257704Y-120159798D01*
X178511912Y-120159798D01*
X178511912Y-120032670D01*
X179452653Y-120032670D01*
X179452653Y-120115543D01*
X179452653Y-120115543D01*
G37*
X179452653Y-120115543D02*
X179436392Y-120192724D01*
X179395446Y-120234833D01*
X179353892Y-120260658D01*
X179278209Y-120307110D01*
X179177760Y-120368466D01*
X179061904Y-120439000D01*
X179011243Y-120469777D01*
X178684248Y-120668306D01*
X179452653Y-120668306D01*
X179452653Y-120795433D01*
X178511912Y-120795433D01*
X178511912Y-120706763D01*
X178511885Y-120676178D01*
X178515331Y-120650935D01*
X178527541Y-120626785D01*
X178553807Y-120599480D01*
X178599420Y-120564769D01*
X178669672Y-120518404D01*
X178769854Y-120456137D01*
X178905257Y-120373718D01*
X178992866Y-120320561D01*
X179257704Y-120159798D01*
X178511912Y-120159798D01*
X178511912Y-120032670D01*
X179452653Y-120032670D01*
X179452653Y-120115543D01*
G36*
X164213663Y-119897726D02*
X164222386Y-119942718D01*
X164222694Y-119961250D01*
X164218987Y-120004146D01*
X164202363Y-120039555D01*
X164164342Y-120076556D01*
X164096443Y-120124231D01*
X164032003Y-120165411D01*
X163940957Y-120223822D01*
X163884797Y-120265406D01*
X163855104Y-120299992D01*
X163843458Y-120337407D01*
X163841442Y-120387480D01*
X163841442Y-120490328D01*
X164222823Y-120490328D01*
X164222823Y-120642881D01*
X163282082Y-120642881D01*
X163282082Y-120413235D01*
X163285652Y-120343433D01*
X163409210Y-120343433D01*
X163409210Y-120490328D01*
X163714315Y-120490328D01*
X163714315Y-120333421D01*
X163704578Y-120211857D01*
X163673429Y-120132971D01*
X163617961Y-120092078D01*
X163559263Y-120083521D01*
X163485352Y-120103710D01*
X163436722Y-120165312D01*
X163412478Y-120269881D01*
X163409210Y-120343433D01*
X163285652Y-120343433D01*
X163291165Y-120235653D01*
X163319835Y-120102270D01*
X163370223Y-120009524D01*
X163444463Y-119953855D01*
X163544686Y-119931699D01*
X163570774Y-119930969D01*
X163642807Y-119939050D01*
X163701604Y-119970493D01*
X163756084Y-120022062D01*
X163841996Y-120113155D01*
X164000628Y-120013880D01*
X164082775Y-119962619D01*
X164150282Y-119920764D01*
X164189495Y-119896778D01*
X164191041Y-119895860D01*
X164213663Y-119897726D01*
X164213663Y-119897726D01*
G37*
X164213663Y-119897726D02*
X164222386Y-119942718D01*
X164222694Y-119961250D01*
X164218987Y-120004146D01*
X164202363Y-120039555D01*
X164164342Y-120076556D01*
X164096443Y-120124231D01*
X164032003Y-120165411D01*
X163940957Y-120223822D01*
X163884797Y-120265406D01*
X163855104Y-120299992D01*
X163843458Y-120337407D01*
X163841442Y-120387480D01*
X163841442Y-120490328D01*
X164222823Y-120490328D01*
X164222823Y-120642881D01*
X163282082Y-120642881D01*
X163282082Y-120413235D01*
X163285652Y-120343433D01*
X163409210Y-120343433D01*
X163409210Y-120490328D01*
X163714315Y-120490328D01*
X163714315Y-120333421D01*
X163704578Y-120211857D01*
X163673429Y-120132971D01*
X163617961Y-120092078D01*
X163559263Y-120083521D01*
X163485352Y-120103710D01*
X163436722Y-120165312D01*
X163412478Y-120269881D01*
X163409210Y-120343433D01*
X163285652Y-120343433D01*
X163291165Y-120235653D01*
X163319835Y-120102270D01*
X163370223Y-120009524D01*
X163444463Y-119953855D01*
X163544686Y-119931699D01*
X163570774Y-119930969D01*
X163642807Y-119939050D01*
X163701604Y-119970493D01*
X163756084Y-120022062D01*
X163841996Y-120113155D01*
X164000628Y-120013880D01*
X164082775Y-119962619D01*
X164150282Y-119920764D01*
X164189495Y-119896778D01*
X164191041Y-119895860D01*
X164213663Y-119897726D01*
G36*
X187080281Y-120642881D02*
X186139540Y-120642881D01*
X186139540Y-119981820D01*
X186203103Y-119981820D01*
X186231949Y-119983367D01*
X186250403Y-119994198D01*
X186260786Y-120023598D01*
X186265420Y-120080849D01*
X186266625Y-120175237D01*
X186266667Y-120236074D01*
X186266667Y-120490328D01*
X186546347Y-120490328D01*
X186546347Y-120286925D01*
X186547024Y-120186045D01*
X186551218Y-120125640D01*
X186562170Y-120095335D01*
X186583122Y-120084755D01*
X186609910Y-120083521D01*
X186641435Y-120085689D01*
X186660312Y-120099108D01*
X186669782Y-120134154D01*
X186673088Y-120201203D01*
X186673474Y-120286925D01*
X186673474Y-120490328D01*
X186953153Y-120490328D01*
X186953153Y-119956394D01*
X187080281Y-119956394D01*
X187080281Y-120642881D01*
X187080281Y-120642881D01*
G37*
X187080281Y-120642881D02*
X186139540Y-120642881D01*
X186139540Y-119981820D01*
X186203103Y-119981820D01*
X186231949Y-119983367D01*
X186250403Y-119994198D01*
X186260786Y-120023598D01*
X186265420Y-120080849D01*
X186266625Y-120175237D01*
X186266667Y-120236074D01*
X186266667Y-120490328D01*
X186546347Y-120490328D01*
X186546347Y-120286925D01*
X186547024Y-120186045D01*
X186551218Y-120125640D01*
X186562170Y-120095335D01*
X186583122Y-120084755D01*
X186609910Y-120083521D01*
X186641435Y-120085689D01*
X186660312Y-120099108D01*
X186669782Y-120134154D01*
X186673088Y-120201203D01*
X186673474Y-120286925D01*
X186673474Y-120490328D01*
X186953153Y-120490328D01*
X186953153Y-119956394D01*
X187080281Y-119956394D01*
X187080281Y-120642881D01*
G36*
X145662263Y-120083521D02*
X130584985Y-120083521D01*
X130584985Y-111515153D01*
X130686687Y-111515153D01*
X130686687Y-119981820D01*
X145560561Y-119981820D01*
X145560561Y-111515153D01*
X130686687Y-111515153D01*
X130584985Y-111515153D01*
X130584985Y-111413451D01*
X145662263Y-111413451D01*
X145662263Y-120083521D01*
X145662263Y-120083521D01*
G37*
X145662263Y-120083521D02*
X130584985Y-120083521D01*
X130584985Y-111515153D01*
X130686687Y-111515153D01*
X130686687Y-119981820D01*
X145560561Y-119981820D01*
X145560561Y-111515153D01*
X130686687Y-111515153D01*
X130584985Y-111515153D01*
X130584985Y-111413451D01*
X145662263Y-111413451D01*
X145662263Y-120083521D01*
G36*
X171825025Y-120007245D02*
X170884285Y-120007245D01*
X170884285Y-119854692D01*
X171825025Y-119854692D01*
X171825025Y-120007245D01*
X171825025Y-120007245D01*
G37*
X171825025Y-120007245D02*
X170884285Y-120007245D01*
X170884285Y-119854692D01*
X171825025Y-119854692D01*
X171825025Y-120007245D01*
G36*
X155877876Y-118953707D02*
X155900147Y-119005675D01*
X155892120Y-119038106D01*
X155863762Y-119064186D01*
X155787523Y-119152772D01*
X155759203Y-119255584D01*
X155780100Y-119366548D01*
X155793175Y-119394869D01*
X155858033Y-119469633D01*
X155954082Y-119519609D01*
X156068728Y-119544756D01*
X156189376Y-119545033D01*
X156303431Y-119520399D01*
X156398297Y-119470814D01*
X156460984Y-119397035D01*
X156490703Y-119290588D01*
X156478950Y-119187716D01*
X156430627Y-119100378D01*
X156350634Y-119040535D01*
X156309160Y-119026567D01*
X156269476Y-119019311D01*
X156248647Y-119028884D01*
X156240595Y-119066253D01*
X156239241Y-119142389D01*
X156239240Y-119152737D01*
X156237663Y-119233807D01*
X156229270Y-119276374D01*
X156208563Y-119292767D01*
X156175676Y-119295333D01*
X156144151Y-119293166D01*
X156125275Y-119279746D01*
X156115804Y-119244700D01*
X156112498Y-119177652D01*
X156112112Y-119091930D01*
X156112112Y-118888526D01*
X156353654Y-118888526D01*
X156465917Y-118889294D01*
X156536770Y-118892922D01*
X156575644Y-118901395D01*
X156591974Y-118916699D01*
X156595196Y-118939377D01*
X156579298Y-118980790D01*
X156557057Y-118990228D01*
X156530608Y-118991284D01*
X156522723Y-119002266D01*
X156534704Y-119034893D01*
X156567855Y-119100887D01*
X156569770Y-119104642D01*
X156612694Y-119224413D01*
X156612104Y-119339915D01*
X156567753Y-119465547D01*
X156563414Y-119474280D01*
X156484880Y-119576651D01*
X156372708Y-119651095D01*
X156237394Y-119694938D01*
X156089437Y-119705506D01*
X155939334Y-119680126D01*
X155864740Y-119652209D01*
X155756943Y-119577722D01*
X155680932Y-119473550D01*
X155638611Y-119351043D01*
X155631884Y-119221554D01*
X155662655Y-119096432D01*
X155732828Y-118987030D01*
X155750222Y-118969476D01*
X155841187Y-118883684D01*
X155877876Y-118953707D01*
X155877876Y-118953707D01*
G37*
X155877876Y-118953707D02*
X155900147Y-119005675D01*
X155892120Y-119038106D01*
X155863762Y-119064186D01*
X155787523Y-119152772D01*
X155759203Y-119255584D01*
X155780100Y-119366548D01*
X155793175Y-119394869D01*
X155858033Y-119469633D01*
X155954082Y-119519609D01*
X156068728Y-119544756D01*
X156189376Y-119545033D01*
X156303431Y-119520399D01*
X156398297Y-119470814D01*
X156460984Y-119397035D01*
X156490703Y-119290588D01*
X156478950Y-119187716D01*
X156430627Y-119100378D01*
X156350634Y-119040535D01*
X156309160Y-119026567D01*
X156269476Y-119019311D01*
X156248647Y-119028884D01*
X156240595Y-119066253D01*
X156239241Y-119142389D01*
X156239240Y-119152737D01*
X156237663Y-119233807D01*
X156229270Y-119276374D01*
X156208563Y-119292767D01*
X156175676Y-119295333D01*
X156144151Y-119293166D01*
X156125275Y-119279746D01*
X156115804Y-119244700D01*
X156112498Y-119177652D01*
X156112112Y-119091930D01*
X156112112Y-118888526D01*
X156353654Y-118888526D01*
X156465917Y-118889294D01*
X156536770Y-118892922D01*
X156575644Y-118901395D01*
X156591974Y-118916699D01*
X156595196Y-118939377D01*
X156579298Y-118980790D01*
X156557057Y-118990228D01*
X156530608Y-118991284D01*
X156522723Y-119002266D01*
X156534704Y-119034893D01*
X156567855Y-119100887D01*
X156569770Y-119104642D01*
X156612694Y-119224413D01*
X156612104Y-119339915D01*
X156567753Y-119465547D01*
X156563414Y-119474280D01*
X156484880Y-119576651D01*
X156372708Y-119651095D01*
X156237394Y-119694938D01*
X156089437Y-119705506D01*
X155939334Y-119680126D01*
X155864740Y-119652209D01*
X155756943Y-119577722D01*
X155680932Y-119473550D01*
X155638611Y-119351043D01*
X155631884Y-119221554D01*
X155662655Y-119096432D01*
X155732828Y-118987030D01*
X155750222Y-118969476D01*
X155841187Y-118883684D01*
X155877876Y-118953707D01*
G36*
X178733785Y-118925325D02*
X178754768Y-118975750D01*
X178745478Y-119011770D01*
X178707336Y-119051632D01*
X178638993Y-119141181D01*
X178617769Y-119244069D01*
X178624301Y-119306190D01*
X178666528Y-119404927D01*
X178745620Y-119480108D01*
X178851758Y-119528329D01*
X178975120Y-119546187D01*
X179105886Y-119530279D01*
X179187623Y-119501400D01*
X179275389Y-119438874D01*
X179329324Y-119354098D01*
X179349906Y-119258425D01*
X179337612Y-119163210D01*
X179292920Y-119079806D01*
X179216306Y-119019566D01*
X179166617Y-119001787D01*
X179096697Y-118984715D01*
X179096697Y-119127311D01*
X179095121Y-119208382D01*
X179086727Y-119250949D01*
X179066021Y-119267342D01*
X179033133Y-119269908D01*
X179001609Y-119267740D01*
X178982732Y-119254321D01*
X178973262Y-119219274D01*
X178969956Y-119152226D01*
X178969570Y-119066504D01*
X178969570Y-118863101D01*
X179211111Y-118863101D01*
X179323375Y-118863869D01*
X179394227Y-118867496D01*
X179433102Y-118875969D01*
X179449431Y-118891273D01*
X179452653Y-118913952D01*
X179436755Y-118955364D01*
X179414515Y-118964803D01*
X179388065Y-118965859D01*
X179380180Y-118976840D01*
X179392162Y-119009468D01*
X179425312Y-119075462D01*
X179427228Y-119079217D01*
X179460075Y-119165302D01*
X179477319Y-119252750D01*
X179478078Y-119269896D01*
X179456848Y-119391041D01*
X179399946Y-119506784D01*
X179317554Y-119599776D01*
X179263300Y-119635844D01*
X179139325Y-119677597D01*
X178994655Y-119694397D01*
X178853283Y-119684783D01*
X178778879Y-119665311D01*
X178655904Y-119596337D01*
X178564563Y-119497318D01*
X178507239Y-119378171D01*
X178486315Y-119248812D01*
X178504173Y-119119158D01*
X178563194Y-118999126D01*
X178606581Y-118948106D01*
X178697882Y-118856804D01*
X178733785Y-118925325D01*
X178733785Y-118925325D01*
G37*
X178733785Y-118925325D02*
X178754768Y-118975750D01*
X178745478Y-119011770D01*
X178707336Y-119051632D01*
X178638993Y-119141181D01*
X178617769Y-119244069D01*
X178624301Y-119306190D01*
X178666528Y-119404927D01*
X178745620Y-119480108D01*
X178851758Y-119528329D01*
X178975120Y-119546187D01*
X179105886Y-119530279D01*
X179187623Y-119501400D01*
X179275389Y-119438874D01*
X179329324Y-119354098D01*
X179349906Y-119258425D01*
X179337612Y-119163210D01*
X179292920Y-119079806D01*
X179216306Y-119019566D01*
X179166617Y-119001787D01*
X179096697Y-118984715D01*
X179096697Y-119127311D01*
X179095121Y-119208382D01*
X179086727Y-119250949D01*
X179066021Y-119267342D01*
X179033133Y-119269908D01*
X179001609Y-119267740D01*
X178982732Y-119254321D01*
X178973262Y-119219274D01*
X178969956Y-119152226D01*
X178969570Y-119066504D01*
X178969570Y-118863101D01*
X179211111Y-118863101D01*
X179323375Y-118863869D01*
X179394227Y-118867496D01*
X179433102Y-118875969D01*
X179449431Y-118891273D01*
X179452653Y-118913952D01*
X179436755Y-118955364D01*
X179414515Y-118964803D01*
X179388065Y-118965859D01*
X179380180Y-118976840D01*
X179392162Y-119009468D01*
X179425312Y-119075462D01*
X179427228Y-119079217D01*
X179460075Y-119165302D01*
X179477319Y-119252750D01*
X179478078Y-119269896D01*
X179456848Y-119391041D01*
X179399946Y-119506784D01*
X179317554Y-119599776D01*
X179263300Y-119635844D01*
X179139325Y-119677597D01*
X178994655Y-119694397D01*
X178853283Y-119684783D01*
X178778879Y-119665311D01*
X178655904Y-119596337D01*
X178564563Y-119497318D01*
X178507239Y-119378171D01*
X178486315Y-119248812D01*
X178504173Y-119119158D01*
X178563194Y-118999126D01*
X178606581Y-118948106D01*
X178697882Y-118856804D01*
X178733785Y-118925325D01*
G36*
X186719193Y-118852639D02*
X186793620Y-118861630D01*
X186849075Y-118880715D01*
X186898909Y-118911436D01*
X186981847Y-118990340D01*
X187037724Y-119093267D01*
X187069396Y-119227987D01*
X187079719Y-119402268D01*
X187079722Y-119403391D01*
X187080281Y-119625864D01*
X186139540Y-119625864D01*
X186140098Y-119403391D01*
X186143518Y-119344921D01*
X186266667Y-119344921D01*
X186266667Y-119473311D01*
X186953153Y-119473311D01*
X186953153Y-119344921D01*
X186934483Y-119203283D01*
X186879247Y-119096583D01*
X186788611Y-119026024D01*
X186663740Y-118992811D01*
X186609910Y-118990228D01*
X186472844Y-119009522D01*
X186369588Y-119066600D01*
X186301307Y-119160259D01*
X186269167Y-119289295D01*
X186266667Y-119344921D01*
X186143518Y-119344921D01*
X186150307Y-119228862D01*
X186181850Y-119093938D01*
X186237581Y-118990852D01*
X186320356Y-118911833D01*
X186320911Y-118911436D01*
X186373072Y-118879584D01*
X186429043Y-118861029D01*
X186504706Y-118852417D01*
X186609910Y-118850388D01*
X186719193Y-118852639D01*
X186719193Y-118852639D01*
G37*
X186719193Y-118852639D02*
X186793620Y-118861630D01*
X186849075Y-118880715D01*
X186898909Y-118911436D01*
X186981847Y-118990340D01*
X187037724Y-119093267D01*
X187069396Y-119227987D01*
X187079719Y-119402268D01*
X187079722Y-119403391D01*
X187080281Y-119625864D01*
X186139540Y-119625864D01*
X186140098Y-119403391D01*
X186143518Y-119344921D01*
X186266667Y-119344921D01*
X186266667Y-119473311D01*
X186953153Y-119473311D01*
X186953153Y-119344921D01*
X186934483Y-119203283D01*
X186879247Y-119096583D01*
X186788611Y-119026024D01*
X186663740Y-118992811D01*
X186609910Y-118990228D01*
X186472844Y-119009522D01*
X186369588Y-119066600D01*
X186301307Y-119160259D01*
X186269167Y-119289295D01*
X186266667Y-119344921D01*
X186143518Y-119344921D01*
X186150307Y-119228862D01*
X186181850Y-119093938D01*
X186237581Y-118990852D01*
X186320356Y-118911833D01*
X186320911Y-118911436D01*
X186373072Y-118879584D01*
X186429043Y-118861029D01*
X186504706Y-118852417D01*
X186609910Y-118850388D01*
X186719193Y-118852639D01*
G36*
X164213663Y-118855283D02*
X164222386Y-118900275D01*
X164222694Y-118918808D01*
X164218987Y-118961704D01*
X164202363Y-118997112D01*
X164164342Y-119034114D01*
X164096443Y-119081789D01*
X164032003Y-119122969D01*
X163940957Y-119181380D01*
X163884797Y-119222964D01*
X163855104Y-119257549D01*
X163843458Y-119294964D01*
X163841442Y-119345038D01*
X163841442Y-119447886D01*
X164222823Y-119447886D01*
X164222823Y-119600438D01*
X163282082Y-119600438D01*
X163282082Y-119370793D01*
X163285652Y-119300990D01*
X163409210Y-119300990D01*
X163409210Y-119447886D01*
X163714315Y-119447886D01*
X163714315Y-119290979D01*
X163704578Y-119169414D01*
X163673429Y-119090529D01*
X163617961Y-119049636D01*
X163559263Y-119041079D01*
X163485352Y-119061267D01*
X163436722Y-119122869D01*
X163412478Y-119227438D01*
X163409210Y-119300990D01*
X163285652Y-119300990D01*
X163291165Y-119193210D01*
X163319835Y-119059827D01*
X163370223Y-118967082D01*
X163444463Y-118911412D01*
X163544686Y-118889257D01*
X163570774Y-118888526D01*
X163642807Y-118896608D01*
X163701604Y-118928050D01*
X163756084Y-118979619D01*
X163841996Y-119070713D01*
X164000628Y-118971437D01*
X164082775Y-118920177D01*
X164150282Y-118878322D01*
X164189495Y-118854335D01*
X164191041Y-118853418D01*
X164213663Y-118855283D01*
X164213663Y-118855283D01*
G37*
X164213663Y-118855283D02*
X164222386Y-118900275D01*
X164222694Y-118918808D01*
X164218987Y-118961704D01*
X164202363Y-118997112D01*
X164164342Y-119034114D01*
X164096443Y-119081789D01*
X164032003Y-119122969D01*
X163940957Y-119181380D01*
X163884797Y-119222964D01*
X163855104Y-119257549D01*
X163843458Y-119294964D01*
X163841442Y-119345038D01*
X163841442Y-119447886D01*
X164222823Y-119447886D01*
X164222823Y-119600438D01*
X163282082Y-119600438D01*
X163282082Y-119370793D01*
X163285652Y-119300990D01*
X163409210Y-119300990D01*
X163409210Y-119447886D01*
X163714315Y-119447886D01*
X163714315Y-119290979D01*
X163704578Y-119169414D01*
X163673429Y-119090529D01*
X163617961Y-119049636D01*
X163559263Y-119041079D01*
X163485352Y-119061267D01*
X163436722Y-119122869D01*
X163412478Y-119227438D01*
X163409210Y-119300990D01*
X163285652Y-119300990D01*
X163291165Y-119193210D01*
X163319835Y-119059827D01*
X163370223Y-118967082D01*
X163444463Y-118911412D01*
X163544686Y-118889257D01*
X163570774Y-118888526D01*
X163642807Y-118896608D01*
X163701604Y-118928050D01*
X163756084Y-118979619D01*
X163841996Y-119070713D01*
X164000628Y-118971437D01*
X164082775Y-118920177D01*
X164150282Y-118878322D01*
X164189495Y-118854335D01*
X164191041Y-118853418D01*
X164213663Y-118855283D01*
G36*
X170983076Y-118764629D02*
X171002095Y-118782280D01*
X171009882Y-118826291D01*
X171011410Y-118908605D01*
X171011412Y-118913952D01*
X171011412Y-119066504D01*
X171825025Y-119066504D01*
X171825025Y-119219057D01*
X171011412Y-119219057D01*
X171011412Y-119371609D01*
X171010066Y-119456156D01*
X171002711Y-119501803D01*
X170984373Y-119520490D01*
X170950076Y-119524159D01*
X170947848Y-119524162D01*
X170884285Y-119524162D01*
X170884285Y-118761399D01*
X170947848Y-118761399D01*
X170983076Y-118764629D01*
X170983076Y-118764629D01*
G37*
X170983076Y-118764629D02*
X171002095Y-118782280D01*
X171009882Y-118826291D01*
X171011410Y-118908605D01*
X171011412Y-118913952D01*
X171011412Y-119066504D01*
X171825025Y-119066504D01*
X171825025Y-119219057D01*
X171011412Y-119219057D01*
X171011412Y-119371609D01*
X171010066Y-119456156D01*
X171002711Y-119501803D01*
X170984373Y-119520490D01*
X170950076Y-119524159D01*
X170947848Y-119524162D01*
X170884285Y-119524162D01*
X170884285Y-118761399D01*
X170947848Y-118761399D01*
X170983076Y-118764629D01*
G36*
X172493034Y-117617256D02*
X173568974Y-117617260D01*
X174596309Y-117617270D01*
X175576163Y-117617291D01*
X176509660Y-117617325D01*
X177397923Y-117617376D01*
X178242076Y-117617447D01*
X179043241Y-117617540D01*
X179802542Y-117617661D01*
X180521103Y-117617811D01*
X181200048Y-117617994D01*
X181840498Y-117618213D01*
X182443578Y-117618472D01*
X183010411Y-117618774D01*
X183542121Y-117619122D01*
X184039830Y-117619519D01*
X184504663Y-117619970D01*
X184937742Y-117620476D01*
X185340191Y-117621042D01*
X185713134Y-117621670D01*
X186057693Y-117622365D01*
X186374993Y-117623128D01*
X186666156Y-117623964D01*
X186932306Y-117624876D01*
X187174566Y-117625867D01*
X187394060Y-117626940D01*
X187591911Y-117628099D01*
X187769242Y-117629347D01*
X187927177Y-117630688D01*
X188066839Y-117632123D01*
X188189352Y-117633658D01*
X188295839Y-117635295D01*
X188387422Y-117637037D01*
X188465227Y-117638888D01*
X188530376Y-117640851D01*
X188583992Y-117642929D01*
X188627199Y-117645126D01*
X188661120Y-117647444D01*
X188686879Y-117649888D01*
X188705599Y-117652460D01*
X188718403Y-117655164D01*
X188726415Y-117658003D01*
X188730757Y-117660980D01*
X188732555Y-117664099D01*
X188732930Y-117667362D01*
X188732933Y-117668106D01*
X188732721Y-117671402D01*
X188731336Y-117674553D01*
X188727654Y-117677561D01*
X188720553Y-117680430D01*
X188708908Y-117683164D01*
X188691596Y-117685765D01*
X188667495Y-117688237D01*
X188635480Y-117690583D01*
X188594428Y-117692806D01*
X188543217Y-117694910D01*
X188480721Y-117696898D01*
X188405819Y-117698774D01*
X188317387Y-117700540D01*
X188214301Y-117702200D01*
X188095437Y-117703757D01*
X187959674Y-117705214D01*
X187805886Y-117706575D01*
X187632952Y-117707843D01*
X187439746Y-117709022D01*
X187225147Y-117710114D01*
X186988031Y-117711123D01*
X186727273Y-117712052D01*
X186441752Y-117712905D01*
X186130343Y-117713684D01*
X185791924Y-117714393D01*
X185425370Y-117715036D01*
X185029558Y-117715615D01*
X184603366Y-117716135D01*
X184145669Y-117716597D01*
X183655345Y-117717006D01*
X183131269Y-117717365D01*
X182572319Y-117717677D01*
X181977371Y-117717945D01*
X181345301Y-117718173D01*
X180674987Y-117718364D01*
X179965305Y-117718521D01*
X179215132Y-117718647D01*
X178423344Y-117718746D01*
X177588817Y-117718822D01*
X176710430Y-117718877D01*
X175787057Y-117718914D01*
X174817576Y-117718938D01*
X173800863Y-117718950D01*
X172735795Y-117718956D01*
X171621249Y-117718957D01*
X171367368Y-117718957D01*
X170241701Y-117718956D01*
X169165762Y-117718952D01*
X168138427Y-117718941D01*
X167158572Y-117718920D01*
X166225075Y-117718886D01*
X165336812Y-117718836D01*
X164492660Y-117718765D01*
X163691495Y-117718671D01*
X162932193Y-117718551D01*
X162213632Y-117718401D01*
X161534688Y-117718218D01*
X160894238Y-117717999D01*
X160291157Y-117717740D01*
X159724324Y-117717438D01*
X159192615Y-117717090D01*
X158694905Y-117716692D01*
X158230073Y-117716242D01*
X157796993Y-117715736D01*
X157394544Y-117715170D01*
X157021601Y-117714541D01*
X156677042Y-117713847D01*
X156359742Y-117713084D01*
X156068579Y-117712248D01*
X155802430Y-117711336D01*
X155560169Y-117710345D01*
X155340676Y-117709271D01*
X155142825Y-117708112D01*
X154965493Y-117706864D01*
X154807558Y-117705524D01*
X154667896Y-117704088D01*
X154545384Y-117702554D01*
X154438897Y-117700917D01*
X154347313Y-117699175D01*
X154269508Y-117697324D01*
X154204360Y-117695361D01*
X154150743Y-117693283D01*
X154107536Y-117691086D01*
X154073615Y-117688768D01*
X154047856Y-117686324D01*
X154029137Y-117683752D01*
X154016333Y-117681048D01*
X154008321Y-117678209D01*
X154003978Y-117675232D01*
X154002181Y-117672113D01*
X154001805Y-117668849D01*
X154001802Y-117668106D01*
X154002014Y-117664810D01*
X154003399Y-117661659D01*
X154007081Y-117658651D01*
X154014183Y-117655781D01*
X154025828Y-117653048D01*
X154043139Y-117650447D01*
X154067240Y-117647975D01*
X154099255Y-117645629D01*
X154140307Y-117643405D01*
X154191519Y-117641301D01*
X154254014Y-117639313D01*
X154328916Y-117637438D01*
X154417349Y-117635672D01*
X154520435Y-117634012D01*
X154639298Y-117632455D01*
X154775062Y-117630998D01*
X154928849Y-117629636D01*
X155101784Y-117628368D01*
X155294989Y-117627190D01*
X155509588Y-117626098D01*
X155746705Y-117625089D01*
X156007462Y-117624160D01*
X156292983Y-117623307D01*
X156604392Y-117622528D01*
X156942812Y-117621818D01*
X157309366Y-117621176D01*
X157705177Y-117620596D01*
X158131369Y-117620077D01*
X158589066Y-117619614D01*
X159079391Y-117619205D01*
X159603466Y-117618847D01*
X160162417Y-117618535D01*
X160757365Y-117618267D01*
X161389434Y-117618039D01*
X162059748Y-117617848D01*
X162769430Y-117617691D01*
X163519603Y-117617565D01*
X164311392Y-117617465D01*
X165145918Y-117617390D01*
X166024306Y-117617335D01*
X166947679Y-117617298D01*
X167917160Y-117617274D01*
X168933873Y-117617261D01*
X169998941Y-117617256D01*
X171113487Y-117617255D01*
X171367368Y-117617255D01*
X172493034Y-117617256D01*
X172493034Y-117617256D01*
G37*
X172493034Y-117617256D02*
X173568974Y-117617260D01*
X174596309Y-117617270D01*
X175576163Y-117617291D01*
X176509660Y-117617325D01*
X177397923Y-117617376D01*
X178242076Y-117617447D01*
X179043241Y-117617540D01*
X179802542Y-117617661D01*
X180521103Y-117617811D01*
X181200048Y-117617994D01*
X181840498Y-117618213D01*
X182443578Y-117618472D01*
X183010411Y-117618774D01*
X183542121Y-117619122D01*
X184039830Y-117619519D01*
X184504663Y-117619970D01*
X184937742Y-117620476D01*
X185340191Y-117621042D01*
X185713134Y-117621670D01*
X186057693Y-117622365D01*
X186374993Y-117623128D01*
X186666156Y-117623964D01*
X186932306Y-117624876D01*
X187174566Y-117625867D01*
X187394060Y-117626940D01*
X187591911Y-117628099D01*
X187769242Y-117629347D01*
X187927177Y-117630688D01*
X188066839Y-117632123D01*
X188189352Y-117633658D01*
X188295839Y-117635295D01*
X188387422Y-117637037D01*
X188465227Y-117638888D01*
X188530376Y-117640851D01*
X188583992Y-117642929D01*
X188627199Y-117645126D01*
X188661120Y-117647444D01*
X188686879Y-117649888D01*
X188705599Y-117652460D01*
X188718403Y-117655164D01*
X188726415Y-117658003D01*
X188730757Y-117660980D01*
X188732555Y-117664099D01*
X188732930Y-117667362D01*
X188732933Y-117668106D01*
X188732721Y-117671402D01*
X188731336Y-117674553D01*
X188727654Y-117677561D01*
X188720553Y-117680430D01*
X188708908Y-117683164D01*
X188691596Y-117685765D01*
X188667495Y-117688237D01*
X188635480Y-117690583D01*
X188594428Y-117692806D01*
X188543217Y-117694910D01*
X188480721Y-117696898D01*
X188405819Y-117698774D01*
X188317387Y-117700540D01*
X188214301Y-117702200D01*
X188095437Y-117703757D01*
X187959674Y-117705214D01*
X187805886Y-117706575D01*
X187632952Y-117707843D01*
X187439746Y-117709022D01*
X187225147Y-117710114D01*
X186988031Y-117711123D01*
X186727273Y-117712052D01*
X186441752Y-117712905D01*
X186130343Y-117713684D01*
X185791924Y-117714393D01*
X185425370Y-117715036D01*
X185029558Y-117715615D01*
X184603366Y-117716135D01*
X184145669Y-117716597D01*
X183655345Y-117717006D01*
X183131269Y-117717365D01*
X182572319Y-117717677D01*
X181977371Y-117717945D01*
X181345301Y-117718173D01*
X180674987Y-117718364D01*
X179965305Y-117718521D01*
X179215132Y-117718647D01*
X178423344Y-117718746D01*
X177588817Y-117718822D01*
X176710430Y-117718877D01*
X175787057Y-117718914D01*
X174817576Y-117718938D01*
X173800863Y-117718950D01*
X172735795Y-117718956D01*
X171621249Y-117718957D01*
X171367368Y-117718957D01*
X170241701Y-117718956D01*
X169165762Y-117718952D01*
X168138427Y-117718941D01*
X167158572Y-117718920D01*
X166225075Y-117718886D01*
X165336812Y-117718836D01*
X164492660Y-117718765D01*
X163691495Y-117718671D01*
X162932193Y-117718551D01*
X162213632Y-117718401D01*
X161534688Y-117718218D01*
X160894238Y-117717999D01*
X160291157Y-117717740D01*
X159724324Y-117717438D01*
X159192615Y-117717090D01*
X158694905Y-117716692D01*
X158230073Y-117716242D01*
X157796993Y-117715736D01*
X157394544Y-117715170D01*
X157021601Y-117714541D01*
X156677042Y-117713847D01*
X156359742Y-117713084D01*
X156068579Y-117712248D01*
X155802430Y-117711336D01*
X155560169Y-117710345D01*
X155340676Y-117709271D01*
X155142825Y-117708112D01*
X154965493Y-117706864D01*
X154807558Y-117705524D01*
X154667896Y-117704088D01*
X154545384Y-117702554D01*
X154438897Y-117700917D01*
X154347313Y-117699175D01*
X154269508Y-117697324D01*
X154204360Y-117695361D01*
X154150743Y-117693283D01*
X154107536Y-117691086D01*
X154073615Y-117688768D01*
X154047856Y-117686324D01*
X154029137Y-117683752D01*
X154016333Y-117681048D01*
X154008321Y-117678209D01*
X154003978Y-117675232D01*
X154002181Y-117672113D01*
X154001805Y-117668849D01*
X154001802Y-117668106D01*
X154002014Y-117664810D01*
X154003399Y-117661659D01*
X154007081Y-117658651D01*
X154014183Y-117655781D01*
X154025828Y-117653048D01*
X154043139Y-117650447D01*
X154067240Y-117647975D01*
X154099255Y-117645629D01*
X154140307Y-117643405D01*
X154191519Y-117641301D01*
X154254014Y-117639313D01*
X154328916Y-117637438D01*
X154417349Y-117635672D01*
X154520435Y-117634012D01*
X154639298Y-117632455D01*
X154775062Y-117630998D01*
X154928849Y-117629636D01*
X155101784Y-117628368D01*
X155294989Y-117627190D01*
X155509588Y-117626098D01*
X155746705Y-117625089D01*
X156007462Y-117624160D01*
X156292983Y-117623307D01*
X156604392Y-117622528D01*
X156942812Y-117621818D01*
X157309366Y-117621176D01*
X157705177Y-117620596D01*
X158131369Y-117620077D01*
X158589066Y-117619614D01*
X159079391Y-117619205D01*
X159603466Y-117618847D01*
X160162417Y-117618535D01*
X160757365Y-117618267D01*
X161389434Y-117618039D01*
X162059748Y-117617848D01*
X162769430Y-117617691D01*
X163519603Y-117617565D01*
X164311392Y-117617465D01*
X165145918Y-117617390D01*
X166024306Y-117617335D01*
X166947679Y-117617298D01*
X167917160Y-117617274D01*
X168933873Y-117617261D01*
X169998941Y-117617256D01*
X171113487Y-117617255D01*
X171367368Y-117617255D01*
X172493034Y-117617256D01*
G36*
X153315316Y-104141780D02*
X150772773Y-104141780D01*
X150772773Y-101828066D01*
X150874475Y-101828066D01*
X150874475Y-104040078D01*
X153213614Y-104040078D01*
X153213614Y-101828066D01*
X150874475Y-101828066D01*
X150772773Y-101828066D01*
X150772773Y-101726364D01*
X153315316Y-101726364D01*
X153315316Y-104141780D01*
X153315316Y-104141780D01*
G37*
X153315316Y-104141780D02*
X150772773Y-104141780D01*
X150772773Y-101828066D01*
X150874475Y-101828066D01*
X150874475Y-104040078D01*
X153213614Y-104040078D01*
X153213614Y-101828066D01*
X150874475Y-101828066D01*
X150772773Y-101828066D01*
X150772773Y-101726364D01*
X153315316Y-101726364D01*
X153315316Y-104141780D01*
G36*
X165595796Y-104014652D02*
X159519119Y-104014652D01*
X159519119Y-99209247D01*
X159620821Y-99209247D01*
X159620821Y-103912951D01*
X165494094Y-103912951D01*
X165494094Y-99209247D01*
X159620821Y-99209247D01*
X159519119Y-99209247D01*
X159519119Y-99107545D01*
X165595796Y-99107545D01*
X165595796Y-104014652D01*
X165595796Y-104014652D01*
G37*
X165595796Y-104014652D02*
X159519119Y-104014652D01*
X159519119Y-99209247D01*
X159620821Y-99209247D01*
X159620821Y-103912951D01*
X165494094Y-103912951D01*
X165494094Y-99209247D01*
X159620821Y-99209247D01*
X159519119Y-99209247D01*
X159519119Y-99107545D01*
X165595796Y-99107545D01*
X165595796Y-104014652D01*
G36*
X131564229Y-102004814D02*
X131707236Y-102038281D01*
X131826861Y-102098795D01*
X131928165Y-102183565D01*
X132012215Y-102267616D01*
X131904259Y-102377614D01*
X131796304Y-102487613D01*
X131751128Y-102413328D01*
X131678840Y-102333572D01*
X131581453Y-102278677D01*
X131470177Y-102248938D01*
X131356224Y-102244648D01*
X131250802Y-102266102D01*
X131165122Y-102313594D01*
X131110394Y-102387417D01*
X131106997Y-102396428D01*
X131101189Y-102460554D01*
X131134105Y-102515632D01*
X131208992Y-102563968D01*
X131329097Y-102607868D01*
X131448036Y-102638634D01*
X131638940Y-102690425D01*
X131784103Y-102748859D01*
X131888530Y-102817342D01*
X131957229Y-102899279D01*
X131995205Y-102998075D01*
X131998258Y-103012927D01*
X132001055Y-103155676D01*
X131957825Y-103286620D01*
X131873263Y-103397582D01*
X131752064Y-103480383D01*
X131722449Y-103493407D01*
X131620534Y-103521305D01*
X131487868Y-103539709D01*
X131343875Y-103547394D01*
X131207981Y-103543132D01*
X131122651Y-103531273D01*
X131021519Y-103499800D01*
X130918787Y-103451474D01*
X130830009Y-103395151D01*
X130770738Y-103339690D01*
X130761624Y-103325663D01*
X130748849Y-103291259D01*
X130753604Y-103255161D01*
X130780710Y-103206314D01*
X130834987Y-103133663D01*
X130857978Y-103104712D01*
X130904502Y-103046524D01*
X130963371Y-103126149D01*
X131040701Y-103200197D01*
X131141946Y-103254479D01*
X131256756Y-103288464D01*
X131374780Y-103301622D01*
X131485670Y-103293422D01*
X131579075Y-103263334D01*
X131644645Y-103210827D01*
X131667998Y-103162263D01*
X131670554Y-103103774D01*
X131642537Y-103054652D01*
X131578865Y-103011387D01*
X131474460Y-102970467D01*
X131332621Y-102930492D01*
X131142348Y-102876038D01*
X130997830Y-102818587D01*
X130893988Y-102753905D01*
X130825742Y-102677758D01*
X130788011Y-102585912D01*
X130775716Y-102474135D01*
X130775676Y-102466337D01*
X130797129Y-102314408D01*
X130861712Y-102189365D01*
X130969757Y-102090674D01*
X131034609Y-102053752D01*
X131106918Y-102022874D01*
X131179945Y-102004594D01*
X131270752Y-101996020D01*
X131385886Y-101994222D01*
X131564229Y-102004814D01*
X131564229Y-102004814D01*
G37*
X131564229Y-102004814D02*
X131707236Y-102038281D01*
X131826861Y-102098795D01*
X131928165Y-102183565D01*
X132012215Y-102267616D01*
X131904259Y-102377614D01*
X131796304Y-102487613D01*
X131751128Y-102413328D01*
X131678840Y-102333572D01*
X131581453Y-102278677D01*
X131470177Y-102248938D01*
X131356224Y-102244648D01*
X131250802Y-102266102D01*
X131165122Y-102313594D01*
X131110394Y-102387417D01*
X131106997Y-102396428D01*
X131101189Y-102460554D01*
X131134105Y-102515632D01*
X131208992Y-102563968D01*
X131329097Y-102607868D01*
X131448036Y-102638634D01*
X131638940Y-102690425D01*
X131784103Y-102748859D01*
X131888530Y-102817342D01*
X131957229Y-102899279D01*
X131995205Y-102998075D01*
X131998258Y-103012927D01*
X132001055Y-103155676D01*
X131957825Y-103286620D01*
X131873263Y-103397582D01*
X131752064Y-103480383D01*
X131722449Y-103493407D01*
X131620534Y-103521305D01*
X131487868Y-103539709D01*
X131343875Y-103547394D01*
X131207981Y-103543132D01*
X131122651Y-103531273D01*
X131021519Y-103499800D01*
X130918787Y-103451474D01*
X130830009Y-103395151D01*
X130770738Y-103339690D01*
X130761624Y-103325663D01*
X130748849Y-103291259D01*
X130753604Y-103255161D01*
X130780710Y-103206314D01*
X130834987Y-103133663D01*
X130857978Y-103104712D01*
X130904502Y-103046524D01*
X130963371Y-103126149D01*
X131040701Y-103200197D01*
X131141946Y-103254479D01*
X131256756Y-103288464D01*
X131374780Y-103301622D01*
X131485670Y-103293422D01*
X131579075Y-103263334D01*
X131644645Y-103210827D01*
X131667998Y-103162263D01*
X131670554Y-103103774D01*
X131642537Y-103054652D01*
X131578865Y-103011387D01*
X131474460Y-102970467D01*
X131332621Y-102930492D01*
X131142348Y-102876038D01*
X130997830Y-102818587D01*
X130893988Y-102753905D01*
X130825742Y-102677758D01*
X130788011Y-102585912D01*
X130775716Y-102474135D01*
X130775676Y-102466337D01*
X130797129Y-102314408D01*
X130861712Y-102189365D01*
X130969757Y-102090674D01*
X131034609Y-102053752D01*
X131106918Y-102022874D01*
X131179945Y-102004594D01*
X131270752Y-101996020D01*
X131385886Y-101994222D01*
X131564229Y-102004814D01*
G36*
X132824469Y-102482770D02*
X132826845Y-102655571D01*
X132832111Y-102811254D01*
X132839766Y-102940570D01*
X132849312Y-103034270D01*
X132856251Y-103071530D01*
X132903540Y-103180717D01*
X132979578Y-103250861D01*
X133088969Y-103285213D01*
X133165666Y-103290028D01*
X133295529Y-103274116D01*
X133389487Y-103224215D01*
X133452144Y-103137072D01*
X133475081Y-103071530D01*
X133485584Y-103005756D01*
X133494518Y-102898391D01*
X133501384Y-102758685D01*
X133505684Y-102595885D01*
X133506863Y-102482770D01*
X133508909Y-102006044D01*
X133818176Y-102006044D01*
X133809602Y-102584472D01*
X133806530Y-102772352D01*
X133803136Y-102916758D01*
X133798716Y-103025066D01*
X133792571Y-103104652D01*
X133783999Y-103162891D01*
X133772299Y-103207158D01*
X133756769Y-103244831D01*
X133744533Y-103268817D01*
X133691526Y-103347793D01*
X133628077Y-103415813D01*
X133609345Y-103430769D01*
X133474415Y-103500107D01*
X133311560Y-103542177D01*
X133137029Y-103554901D01*
X132967068Y-103536202D01*
X132907337Y-103520512D01*
X132754018Y-103450529D01*
X132638892Y-103347806D01*
X132586799Y-103268817D01*
X132568458Y-103231499D01*
X132554395Y-103192292D01*
X132543907Y-103143821D01*
X132536294Y-103078711D01*
X132530854Y-102989586D01*
X132526887Y-102869071D01*
X132523690Y-102709789D01*
X132521730Y-102584472D01*
X132513156Y-102006044D01*
X132822423Y-102006044D01*
X132824469Y-102482770D01*
X132824469Y-102482770D01*
G37*
X132824469Y-102482770D02*
X132826845Y-102655571D01*
X132832111Y-102811254D01*
X132839766Y-102940570D01*
X132849312Y-103034270D01*
X132856251Y-103071530D01*
X132903540Y-103180717D01*
X132979578Y-103250861D01*
X133088969Y-103285213D01*
X133165666Y-103290028D01*
X133295529Y-103274116D01*
X133389487Y-103224215D01*
X133452144Y-103137072D01*
X133475081Y-103071530D01*
X133485584Y-103005756D01*
X133494518Y-102898391D01*
X133501384Y-102758685D01*
X133505684Y-102595885D01*
X133506863Y-102482770D01*
X133508909Y-102006044D01*
X133818176Y-102006044D01*
X133809602Y-102584472D01*
X133806530Y-102772352D01*
X133803136Y-102916758D01*
X133798716Y-103025066D01*
X133792571Y-103104652D01*
X133783999Y-103162891D01*
X133772299Y-103207158D01*
X133756769Y-103244831D01*
X133744533Y-103268817D01*
X133691526Y-103347793D01*
X133628077Y-103415813D01*
X133609345Y-103430769D01*
X133474415Y-103500107D01*
X133311560Y-103542177D01*
X133137029Y-103554901D01*
X132967068Y-103536202D01*
X132907337Y-103520512D01*
X132754018Y-103450529D01*
X132638892Y-103347806D01*
X132586799Y-103268817D01*
X132568458Y-103231499D01*
X132554395Y-103192292D01*
X132543907Y-103143821D01*
X132536294Y-103078711D01*
X132530854Y-102989586D01*
X132526887Y-102869071D01*
X132523690Y-102709789D01*
X132521730Y-102584472D01*
X132513156Y-102006044D01*
X132822423Y-102006044D01*
X132824469Y-102482770D01*
G36*
X134850100Y-102009930D02*
X135016455Y-102013778D01*
X135140349Y-102018495D01*
X135230173Y-102025013D01*
X135294318Y-102034263D01*
X135341173Y-102047177D01*
X135379130Y-102064686D01*
X135387733Y-102069607D01*
X135495097Y-102153964D01*
X135559494Y-102259347D01*
X135586674Y-102392727D01*
X135577149Y-102527862D01*
X135528778Y-102636326D01*
X135444403Y-102712644D01*
X135412259Y-102728552D01*
X135333428Y-102761699D01*
X135430188Y-102809747D01*
X135535585Y-102879520D01*
X135597456Y-102967326D01*
X135622061Y-103083431D01*
X135623105Y-103126165D01*
X135607958Y-103248950D01*
X135559220Y-103345636D01*
X135468672Y-103432165D01*
X135463128Y-103436341D01*
X135408221Y-103469698D01*
X135340104Y-103494573D01*
X135251158Y-103512052D01*
X135133761Y-103523222D01*
X134980293Y-103529169D01*
X134799250Y-103530963D01*
X134398799Y-103531569D01*
X134398799Y-103308806D01*
X134703904Y-103308806D01*
X134948784Y-103298096D01*
X135063295Y-103292190D01*
X135139058Y-103284349D01*
X135188158Y-103271293D01*
X135222680Y-103249741D01*
X135254709Y-103216412D01*
X135256237Y-103214639D01*
X135299392Y-103149532D01*
X135306680Y-103085648D01*
X135303183Y-103063748D01*
X135284938Y-102998959D01*
X135254755Y-102954637D01*
X135203591Y-102926499D01*
X135122404Y-102910262D01*
X135002152Y-102901642D01*
X134957302Y-102899907D01*
X134703904Y-102891169D01*
X134703904Y-103308806D01*
X134398799Y-103308806D01*
X134398799Y-102260298D01*
X134703904Y-102260298D01*
X134703904Y-102667105D01*
X134862813Y-102666963D01*
X134966236Y-102662485D01*
X135064770Y-102651097D01*
X135116768Y-102640425D01*
X135203477Y-102599826D01*
X135250273Y-102532887D01*
X135263264Y-102439948D01*
X135253019Y-102364185D01*
X135217890Y-102311943D01*
X135151284Y-102279640D01*
X135046606Y-102263691D01*
X134932733Y-102260298D01*
X134703904Y-102260298D01*
X134398799Y-102260298D01*
X134398799Y-102001104D01*
X134850100Y-102009930D01*
X134850100Y-102009930D01*
G37*
X134850100Y-102009930D02*
X135016455Y-102013778D01*
X135140349Y-102018495D01*
X135230173Y-102025013D01*
X135294318Y-102034263D01*
X135341173Y-102047177D01*
X135379130Y-102064686D01*
X135387733Y-102069607D01*
X135495097Y-102153964D01*
X135559494Y-102259347D01*
X135586674Y-102392727D01*
X135577149Y-102527862D01*
X135528778Y-102636326D01*
X135444403Y-102712644D01*
X135412259Y-102728552D01*
X135333428Y-102761699D01*
X135430188Y-102809747D01*
X135535585Y-102879520D01*
X135597456Y-102967326D01*
X135622061Y-103083431D01*
X135623105Y-103126165D01*
X135607958Y-103248950D01*
X135559220Y-103345636D01*
X135468672Y-103432165D01*
X135463128Y-103436341D01*
X135408221Y-103469698D01*
X135340104Y-103494573D01*
X135251158Y-103512052D01*
X135133761Y-103523222D01*
X134980293Y-103529169D01*
X134799250Y-103530963D01*
X134398799Y-103531569D01*
X134398799Y-103308806D01*
X134703904Y-103308806D01*
X134948784Y-103298096D01*
X135063295Y-103292190D01*
X135139058Y-103284349D01*
X135188158Y-103271293D01*
X135222680Y-103249741D01*
X135254709Y-103216412D01*
X135256237Y-103214639D01*
X135299392Y-103149532D01*
X135306680Y-103085648D01*
X135303183Y-103063748D01*
X135284938Y-102998959D01*
X135254755Y-102954637D01*
X135203591Y-102926499D01*
X135122404Y-102910262D01*
X135002152Y-102901642D01*
X134957302Y-102899907D01*
X134703904Y-102891169D01*
X134703904Y-103308806D01*
X134398799Y-103308806D01*
X134398799Y-102260298D01*
X134703904Y-102260298D01*
X134703904Y-102667105D01*
X134862813Y-102666963D01*
X134966236Y-102662485D01*
X135064770Y-102651097D01*
X135116768Y-102640425D01*
X135203477Y-102599826D01*
X135250273Y-102532887D01*
X135263264Y-102439948D01*
X135253019Y-102364185D01*
X135217890Y-102311943D01*
X135151284Y-102279640D01*
X135046606Y-102263691D01*
X134932733Y-102260298D01*
X134703904Y-102260298D01*
X134398799Y-102260298D01*
X134398799Y-102001104D01*
X134850100Y-102009930D01*
G36*
X136483684Y-103277315D02*
X137271872Y-103277315D01*
X137271872Y-103531569D01*
X136178579Y-103531569D01*
X136178579Y-102006044D01*
X136483684Y-102006044D01*
X136483684Y-103277315D01*
X136483684Y-103277315D01*
G37*
X136483684Y-103277315D02*
X137271872Y-103277315D01*
X137271872Y-103531569D01*
X136178579Y-103531569D01*
X136178579Y-102006044D01*
X136483684Y-102006044D01*
X136483684Y-103277315D01*
G36*
X138085486Y-103531569D02*
X137780381Y-103531569D01*
X137780381Y-102006044D01*
X138085486Y-102006044D01*
X138085486Y-103531569D01*
X138085486Y-103531569D01*
G37*
X138085486Y-103531569D02*
X137780381Y-103531569D01*
X137780381Y-102006044D01*
X138085486Y-102006044D01*
X138085486Y-103531569D01*
G36*
X140348349Y-103531569D02*
X140063981Y-103531569D01*
X140072681Y-102923450D01*
X140074860Y-102754123D01*
X140076329Y-102603455D01*
X140077061Y-102478308D01*
X140077028Y-102385547D01*
X140076202Y-102332036D01*
X140075156Y-102321585D01*
X140065453Y-102346436D01*
X140042015Y-102412116D01*
X140007398Y-102511285D01*
X139964163Y-102636603D01*
X139914867Y-102780730D01*
X139905266Y-102808933D01*
X139851972Y-102965420D01*
X139801382Y-103113646D01*
X139756870Y-103243753D01*
X139721809Y-103345879D01*
X139699574Y-103410165D01*
X139698923Y-103412030D01*
X139656243Y-103534032D01*
X139527636Y-103526444D01*
X139399028Y-103518857D01*
X139200771Y-102924334D01*
X139145846Y-102760190D01*
X139096180Y-102612828D01*
X139054031Y-102488864D01*
X139021657Y-102394912D01*
X139001318Y-102337587D01*
X138995301Y-102322590D01*
X138993648Y-102344776D01*
X138992859Y-102410956D01*
X138992914Y-102514281D01*
X138993791Y-102647903D01*
X138995472Y-102804971D01*
X138997089Y-102923469D01*
X139006090Y-103531569D01*
X138721121Y-103531569D01*
X138721121Y-102006044D01*
X139169715Y-102006044D01*
X139312408Y-102444632D01*
X139361943Y-102597938D01*
X139409187Y-102746069D01*
X139450525Y-102877548D01*
X139482342Y-102980901D01*
X139497915Y-103033517D01*
X139540727Y-103183813D01*
X139663845Y-102779263D01*
X139710509Y-102627241D01*
X139757361Y-102476905D01*
X139800162Y-102341695D01*
X139834679Y-102235047D01*
X139847472Y-102196734D01*
X139907981Y-102018756D01*
X140348349Y-102004064D01*
X140348349Y-103531569D01*
X140348349Y-103531569D01*
G37*
X140348349Y-103531569D02*
X140063981Y-103531569D01*
X140072681Y-102923450D01*
X140074860Y-102754123D01*
X140076329Y-102603455D01*
X140077061Y-102478308D01*
X140077028Y-102385547D01*
X140076202Y-102332036D01*
X140075156Y-102321585D01*
X140065453Y-102346436D01*
X140042015Y-102412116D01*
X140007398Y-102511285D01*
X139964163Y-102636603D01*
X139914867Y-102780730D01*
X139905266Y-102808933D01*
X139851972Y-102965420D01*
X139801382Y-103113646D01*
X139756870Y-103243753D01*
X139721809Y-103345879D01*
X139699574Y-103410165D01*
X139698923Y-103412030D01*
X139656243Y-103534032D01*
X139527636Y-103526444D01*
X139399028Y-103518857D01*
X139200771Y-102924334D01*
X139145846Y-102760190D01*
X139096180Y-102612828D01*
X139054031Y-102488864D01*
X139021657Y-102394912D01*
X139001318Y-102337587D01*
X138995301Y-102322590D01*
X138993648Y-102344776D01*
X138992859Y-102410956D01*
X138992914Y-102514281D01*
X138993791Y-102647903D01*
X138995472Y-102804971D01*
X138997089Y-102923469D01*
X139006090Y-103531569D01*
X138721121Y-103531569D01*
X138721121Y-102006044D01*
X139169715Y-102006044D01*
X139312408Y-102444632D01*
X139361943Y-102597938D01*
X139409187Y-102746069D01*
X139450525Y-102877548D01*
X139482342Y-102980901D01*
X139497915Y-103033517D01*
X139540727Y-103183813D01*
X139663845Y-102779263D01*
X139710509Y-102627241D01*
X139757361Y-102476905D01*
X139800162Y-102341695D01*
X139834679Y-102235047D01*
X139847472Y-102196734D01*
X139907981Y-102018756D01*
X140348349Y-102004064D01*
X140348349Y-103531569D01*
G36*
X142128128Y-102260298D02*
X141314515Y-102260298D01*
X141314515Y-102667105D01*
X141950150Y-102667105D01*
X141950150Y-102895934D01*
X141314515Y-102895934D01*
X141314515Y-103277315D01*
X142153554Y-103277315D01*
X142153554Y-103531569D01*
X141009410Y-103531569D01*
X141009410Y-102006044D01*
X142128128Y-102006044D01*
X142128128Y-102260298D01*
X142128128Y-102260298D01*
G37*
X142128128Y-102260298D02*
X141314515Y-102260298D01*
X141314515Y-102667105D01*
X141950150Y-102667105D01*
X141950150Y-102895934D01*
X141314515Y-102895934D01*
X141314515Y-103277315D01*
X142153554Y-103277315D01*
X142153554Y-103531569D01*
X141009410Y-103531569D01*
X141009410Y-102006044D01*
X142128128Y-102006044D01*
X142128128Y-102260298D01*
G36*
X128595017Y-101160105D02*
X128763879Y-101258340D01*
X128916687Y-101348883D01*
X129048340Y-101428581D01*
X129153737Y-101494279D01*
X129227777Y-101542824D01*
X129265358Y-101571061D01*
X129268791Y-101576679D01*
X129241939Y-101594129D01*
X129178072Y-101632556D01*
X129083746Y-101688187D01*
X128965519Y-101757247D01*
X128829949Y-101835964D01*
X128683594Y-101920564D01*
X128533010Y-102007273D01*
X128384756Y-102092318D01*
X128245388Y-102171925D01*
X128121466Y-102242321D01*
X128019545Y-102299732D01*
X127946184Y-102340385D01*
X127907940Y-102360506D01*
X127904084Y-102362000D01*
X127899066Y-102338065D01*
X127894827Y-102272220D01*
X127891711Y-102173404D01*
X127890062Y-102050555D01*
X127889890Y-101993331D01*
X127889890Y-101624662D01*
X122194595Y-101624662D01*
X121560587Y-101624659D01*
X120975469Y-101624636D01*
X120437278Y-101624577D01*
X119944054Y-101624464D01*
X119493834Y-101624279D01*
X119084657Y-101624005D01*
X118714561Y-101623625D01*
X118381585Y-101623121D01*
X118083768Y-101622475D01*
X117819147Y-101621670D01*
X117585761Y-101620689D01*
X117381648Y-101619514D01*
X117204847Y-101618127D01*
X117053397Y-101616512D01*
X116925335Y-101614650D01*
X116818701Y-101612524D01*
X116731532Y-101610116D01*
X116661867Y-101607410D01*
X116607744Y-101604387D01*
X116567203Y-101601031D01*
X116538280Y-101597323D01*
X116519015Y-101593245D01*
X116507446Y-101588782D01*
X116501612Y-101583915D01*
X116499551Y-101578626D01*
X116499300Y-101573867D01*
X116499722Y-101568209D01*
X116502298Y-101562985D01*
X116507808Y-101559025D01*
X127991592Y-101559025D01*
X127991976Y-101731246D01*
X127993054Y-101885300D01*
X127994719Y-102014323D01*
X127996863Y-102111450D01*
X127999375Y-102169814D01*
X128001468Y-102184022D01*
X128025394Y-102171914D01*
X128086960Y-102137995D01*
X128179761Y-102085871D01*
X128297394Y-102019149D01*
X128433456Y-101941436D01*
X128503620Y-101901181D01*
X128648272Y-101817548D01*
X128779161Y-101740883D01*
X128889435Y-101675279D01*
X128972245Y-101624829D01*
X129020739Y-101593626D01*
X129029463Y-101587027D01*
X129033406Y-101571815D01*
X129015947Y-101548619D01*
X128972592Y-101514307D01*
X128898845Y-101465750D01*
X128790212Y-101399816D01*
X128642199Y-101313373D01*
X128609944Y-101294769D01*
X128467335Y-101212526D01*
X128334747Y-101135855D01*
X128220369Y-101069509D01*
X128132391Y-101018238D01*
X128079003Y-100986796D01*
X128074225Y-100983927D01*
X127991592Y-100934029D01*
X127991592Y-101559025D01*
X116507808Y-101559025D01*
X116508990Y-101558176D01*
X116521760Y-101553761D01*
X116542572Y-101549720D01*
X116573388Y-101546035D01*
X116616171Y-101542686D01*
X116672883Y-101539652D01*
X116745487Y-101536914D01*
X116835946Y-101534452D01*
X116946222Y-101532247D01*
X117078278Y-101530278D01*
X117234077Y-101528526D01*
X117415581Y-101526972D01*
X117624754Y-101525595D01*
X117863557Y-101524376D01*
X118133953Y-101523295D01*
X118437906Y-101522332D01*
X118777377Y-101521467D01*
X119154329Y-101520682D01*
X119570726Y-101519956D01*
X120028529Y-101519269D01*
X120529701Y-101518601D01*
X121076206Y-101517934D01*
X121670005Y-101517246D01*
X122188239Y-101516660D01*
X127877178Y-101510248D01*
X127889890Y-101135522D01*
X127902603Y-100760797D01*
X128595017Y-101160105D01*
X128595017Y-101160105D01*
G37*
X128595017Y-101160105D02*
X128763879Y-101258340D01*
X128916687Y-101348883D01*
X129048340Y-101428581D01*
X129153737Y-101494279D01*
X129227777Y-101542824D01*
X129265358Y-101571061D01*
X129268791Y-101576679D01*
X129241939Y-101594129D01*
X129178072Y-101632556D01*
X129083746Y-101688187D01*
X128965519Y-101757247D01*
X128829949Y-101835964D01*
X128683594Y-101920564D01*
X128533010Y-102007273D01*
X128384756Y-102092318D01*
X128245388Y-102171925D01*
X128121466Y-102242321D01*
X128019545Y-102299732D01*
X127946184Y-102340385D01*
X127907940Y-102360506D01*
X127904084Y-102362000D01*
X127899066Y-102338065D01*
X127894827Y-102272220D01*
X127891711Y-102173404D01*
X127890062Y-102050555D01*
X127889890Y-101993331D01*
X127889890Y-101624662D01*
X122194595Y-101624662D01*
X121560587Y-101624659D01*
X120975469Y-101624636D01*
X120437278Y-101624577D01*
X119944054Y-101624464D01*
X119493834Y-101624279D01*
X119084657Y-101624005D01*
X118714561Y-101623625D01*
X118381585Y-101623121D01*
X118083768Y-101622475D01*
X117819147Y-101621670D01*
X117585761Y-101620689D01*
X117381648Y-101619514D01*
X117204847Y-101618127D01*
X117053397Y-101616512D01*
X116925335Y-101614650D01*
X116818701Y-101612524D01*
X116731532Y-101610116D01*
X116661867Y-101607410D01*
X116607744Y-101604387D01*
X116567203Y-101601031D01*
X116538280Y-101597323D01*
X116519015Y-101593245D01*
X116507446Y-101588782D01*
X116501612Y-101583915D01*
X116499551Y-101578626D01*
X116499300Y-101573867D01*
X116499722Y-101568209D01*
X116502298Y-101562985D01*
X116507808Y-101559025D01*
X127991592Y-101559025D01*
X127991976Y-101731246D01*
X127993054Y-101885300D01*
X127994719Y-102014323D01*
X127996863Y-102111450D01*
X127999375Y-102169814D01*
X128001468Y-102184022D01*
X128025394Y-102171914D01*
X128086960Y-102137995D01*
X128179761Y-102085871D01*
X128297394Y-102019149D01*
X128433456Y-101941436D01*
X128503620Y-101901181D01*
X128648272Y-101817548D01*
X128779161Y-101740883D01*
X128889435Y-101675279D01*
X128972245Y-101624829D01*
X129020739Y-101593626D01*
X129029463Y-101587027D01*
X129033406Y-101571815D01*
X129015947Y-101548619D01*
X128972592Y-101514307D01*
X128898845Y-101465750D01*
X128790212Y-101399816D01*
X128642199Y-101313373D01*
X128609944Y-101294769D01*
X128467335Y-101212526D01*
X128334747Y-101135855D01*
X128220369Y-101069509D01*
X128132391Y-101018238D01*
X128079003Y-100986796D01*
X128074225Y-100983927D01*
X127991592Y-100934029D01*
X127991592Y-101559025D01*
X116507808Y-101559025D01*
X116508990Y-101558176D01*
X116521760Y-101553761D01*
X116542572Y-101549720D01*
X116573388Y-101546035D01*
X116616171Y-101542686D01*
X116672883Y-101539652D01*
X116745487Y-101536914D01*
X116835946Y-101534452D01*
X116946222Y-101532247D01*
X117078278Y-101530278D01*
X117234077Y-101528526D01*
X117415581Y-101526972D01*
X117624754Y-101525595D01*
X117863557Y-101524376D01*
X118133953Y-101523295D01*
X118437906Y-101522332D01*
X118777377Y-101521467D01*
X119154329Y-101520682D01*
X119570726Y-101519956D01*
X120028529Y-101519269D01*
X120529701Y-101518601D01*
X121076206Y-101517934D01*
X121670005Y-101517246D01*
X122188239Y-101516660D01*
X127877178Y-101510248D01*
X127889890Y-101135522D01*
X127902603Y-100760797D01*
X128595017Y-101160105D01*
G36*
X138032714Y-99527757D02*
X138190538Y-99598573D01*
X138315953Y-99701479D01*
X138410584Y-99836066D01*
X138474566Y-99993645D01*
X138508034Y-100165527D01*
X138511126Y-100343025D01*
X138483976Y-100517447D01*
X138426720Y-100680107D01*
X138339494Y-100822314D01*
X138222433Y-100935380D01*
X138169127Y-100969474D01*
X138010370Y-101032205D01*
X137832019Y-101059416D01*
X137652196Y-101049692D01*
X137532424Y-101019183D01*
X137406304Y-100964537D01*
X137310185Y-100896723D01*
X137231455Y-100803852D01*
X137157503Y-100674034D01*
X137149853Y-100658496D01*
X137116500Y-100583333D01*
X137096070Y-100514113D01*
X137085545Y-100433953D01*
X137081910Y-100325971D01*
X137081706Y-100277115D01*
X137082823Y-100210038D01*
X137404893Y-100210038D01*
X137408297Y-100404043D01*
X137445075Y-100562089D01*
X137514750Y-100683020D01*
X137616846Y-100765680D01*
X137638384Y-100776294D01*
X137739943Y-100800610D01*
X137855687Y-100796617D01*
X137961937Y-100766572D01*
X138005758Y-100741267D01*
X138081027Y-100672608D01*
X138131389Y-100592069D01*
X138160825Y-100488694D01*
X138173319Y-100351526D01*
X138174475Y-100277115D01*
X138172300Y-100152537D01*
X138164380Y-100065172D01*
X138148620Y-100001515D01*
X138123624Y-99949242D01*
X138041503Y-99842197D01*
X137943258Y-99779847D01*
X137819027Y-99756422D01*
X137793093Y-99755894D01*
X137655244Y-99776011D01*
X137547558Y-99836585D01*
X137469749Y-99937951D01*
X137421533Y-100080442D01*
X137404893Y-100210038D01*
X137082823Y-100210038D01*
X137083767Y-100153358D01*
X137091918Y-100063279D01*
X137109108Y-99989799D01*
X137138286Y-99915842D01*
X137147585Y-99895733D01*
X137240206Y-99740111D01*
X137353343Y-99627043D01*
X137463643Y-99562612D01*
X137651807Y-99504442D01*
X137844681Y-99492981D01*
X138032714Y-99527757D01*
X138032714Y-99527757D01*
G37*
X138032714Y-99527757D02*
X138190538Y-99598573D01*
X138315953Y-99701479D01*
X138410584Y-99836066D01*
X138474566Y-99993645D01*
X138508034Y-100165527D01*
X138511126Y-100343025D01*
X138483976Y-100517447D01*
X138426720Y-100680107D01*
X138339494Y-100822314D01*
X138222433Y-100935380D01*
X138169127Y-100969474D01*
X138010370Y-101032205D01*
X137832019Y-101059416D01*
X137652196Y-101049692D01*
X137532424Y-101019183D01*
X137406304Y-100964537D01*
X137310185Y-100896723D01*
X137231455Y-100803852D01*
X137157503Y-100674034D01*
X137149853Y-100658496D01*
X137116500Y-100583333D01*
X137096070Y-100514113D01*
X137085545Y-100433953D01*
X137081910Y-100325971D01*
X137081706Y-100277115D01*
X137082823Y-100210038D01*
X137404893Y-100210038D01*
X137408297Y-100404043D01*
X137445075Y-100562089D01*
X137514750Y-100683020D01*
X137616846Y-100765680D01*
X137638384Y-100776294D01*
X137739943Y-100800610D01*
X137855687Y-100796617D01*
X137961937Y-100766572D01*
X138005758Y-100741267D01*
X138081027Y-100672608D01*
X138131389Y-100592069D01*
X138160825Y-100488694D01*
X138173319Y-100351526D01*
X138174475Y-100277115D01*
X138172300Y-100152537D01*
X138164380Y-100065172D01*
X138148620Y-100001515D01*
X138123624Y-99949242D01*
X138041503Y-99842197D01*
X137943258Y-99779847D01*
X137819027Y-99756422D01*
X137793093Y-99755894D01*
X137655244Y-99776011D01*
X137547558Y-99836585D01*
X137469749Y-99937951D01*
X137421533Y-100080442D01*
X137404893Y-100210038D01*
X137082823Y-100210038D01*
X137083767Y-100153358D01*
X137091918Y-100063279D01*
X137109108Y-99989799D01*
X137138286Y-99915842D01*
X137147585Y-99895733D01*
X137240206Y-99740111D01*
X137353343Y-99627043D01*
X137463643Y-99562612D01*
X137651807Y-99504442D01*
X137844681Y-99492981D01*
X138032714Y-99527757D01*
G36*
X146305010Y-99497433D02*
X146458530Y-99532681D01*
X146594248Y-99597391D01*
X146702765Y-99690654D01*
X146756827Y-99771099D01*
X146786637Y-99834552D01*
X146801383Y-99876183D01*
X146801303Y-99883887D01*
X146774950Y-99897970D01*
X146716757Y-99924707D01*
X146670105Y-99945068D01*
X146579718Y-99977656D01*
X146525705Y-99980697D01*
X146502881Y-99953947D01*
X146501302Y-99937128D01*
X146484237Y-99900512D01*
X146441785Y-99848868D01*
X146426958Y-99834021D01*
X146328506Y-99771976D01*
X146214167Y-99750080D01*
X146095653Y-99765770D01*
X145984674Y-99816484D01*
X145892941Y-99899661D01*
X145854427Y-99959297D01*
X145819394Y-100064741D01*
X145801411Y-100199204D01*
X145800520Y-100343786D01*
X145816766Y-100479582D01*
X145850193Y-100587690D01*
X145852953Y-100593292D01*
X145924086Y-100700684D01*
X146011772Y-100765636D01*
X146126772Y-100794534D01*
X146197021Y-100797464D01*
X146324003Y-100781831D01*
X146419480Y-100732014D01*
X146494885Y-100641068D01*
X146515747Y-100603873D01*
X146550786Y-100536537D01*
X146684953Y-100575284D01*
X146760376Y-100597865D01*
X146812649Y-100615020D01*
X146827351Y-100621188D01*
X146823969Y-100648306D01*
X146798429Y-100702134D01*
X146758909Y-100768569D01*
X146713587Y-100833509D01*
X146682733Y-100870585D01*
X146563398Y-100964215D01*
X146413802Y-101027716D01*
X146246310Y-101058685D01*
X146073285Y-101054721D01*
X145920909Y-101018538D01*
X145767590Y-100937743D01*
X145637107Y-100817060D01*
X145539200Y-100665738D01*
X145531235Y-100648514D01*
X145501610Y-100571226D01*
X145483836Y-100491565D01*
X145475296Y-100392744D01*
X145473341Y-100277115D01*
X145484562Y-100086109D01*
X145520873Y-99930746D01*
X145586248Y-99800406D01*
X145684661Y-99684474D01*
X145700866Y-99669190D01*
X145831616Y-99577524D01*
X145982155Y-99518948D01*
X146143086Y-99492553D01*
X146305010Y-99497433D01*
X146305010Y-99497433D01*
G37*
X146305010Y-99497433D02*
X146458530Y-99532681D01*
X146594248Y-99597391D01*
X146702765Y-99690654D01*
X146756827Y-99771099D01*
X146786637Y-99834552D01*
X146801383Y-99876183D01*
X146801303Y-99883887D01*
X146774950Y-99897970D01*
X146716757Y-99924707D01*
X146670105Y-99945068D01*
X146579718Y-99977656D01*
X146525705Y-99980697D01*
X146502881Y-99953947D01*
X146501302Y-99937128D01*
X146484237Y-99900512D01*
X146441785Y-99848868D01*
X146426958Y-99834021D01*
X146328506Y-99771976D01*
X146214167Y-99750080D01*
X146095653Y-99765770D01*
X145984674Y-99816484D01*
X145892941Y-99899661D01*
X145854427Y-99959297D01*
X145819394Y-100064741D01*
X145801411Y-100199204D01*
X145800520Y-100343786D01*
X145816766Y-100479582D01*
X145850193Y-100587690D01*
X145852953Y-100593292D01*
X145924086Y-100700684D01*
X146011772Y-100765636D01*
X146126772Y-100794534D01*
X146197021Y-100797464D01*
X146324003Y-100781831D01*
X146419480Y-100732014D01*
X146494885Y-100641068D01*
X146515747Y-100603873D01*
X146550786Y-100536537D01*
X146684953Y-100575284D01*
X146760376Y-100597865D01*
X146812649Y-100615020D01*
X146827351Y-100621188D01*
X146823969Y-100648306D01*
X146798429Y-100702134D01*
X146758909Y-100768569D01*
X146713587Y-100833509D01*
X146682733Y-100870585D01*
X146563398Y-100964215D01*
X146413802Y-101027716D01*
X146246310Y-101058685D01*
X146073285Y-101054721D01*
X145920909Y-101018538D01*
X145767590Y-100937743D01*
X145637107Y-100817060D01*
X145539200Y-100665738D01*
X145531235Y-100648514D01*
X145501610Y-100571226D01*
X145483836Y-100491565D01*
X145475296Y-100392744D01*
X145473341Y-100277115D01*
X145484562Y-100086109D01*
X145520873Y-99930746D01*
X145586248Y-99800406D01*
X145684661Y-99684474D01*
X145700866Y-99669190D01*
X145831616Y-99577524D01*
X145982155Y-99518948D01*
X146143086Y-99492553D01*
X146305010Y-99497433D01*
G36*
X131277828Y-99518778D02*
X131471739Y-99524741D01*
X131622410Y-99535581D01*
X131737385Y-99553595D01*
X131824209Y-99581076D01*
X131890428Y-99620319D01*
X131943585Y-99673620D01*
X131985589Y-99734036D01*
X132034733Y-99854053D01*
X132048432Y-99986387D01*
X132029415Y-100118465D01*
X131980414Y-100237715D01*
X131904161Y-100331564D01*
X131847446Y-100369954D01*
X131791536Y-100399288D01*
X131759366Y-100417884D01*
X131757743Y-100419119D01*
X131767289Y-100443254D01*
X131802615Y-100505540D01*
X131861198Y-100601880D01*
X131940518Y-100728177D01*
X132038054Y-100880334D01*
X132104488Y-100982670D01*
X132141785Y-101039878D01*
X131786934Y-101039878D01*
X131611836Y-100748214D01*
X131436737Y-100456551D01*
X131144345Y-100455093D01*
X131144345Y-101039878D01*
X130839240Y-101039878D01*
X130839240Y-100232484D01*
X131144345Y-100232484D01*
X131376792Y-100221371D01*
X131488539Y-100214904D01*
X131561943Y-100206117D01*
X131609501Y-100191559D01*
X131643707Y-100167775D01*
X131669184Y-100140566D01*
X131718054Y-100049746D01*
X131725858Y-99949511D01*
X131691948Y-99856898D01*
X131680553Y-99841343D01*
X131652991Y-99813003D01*
X131617934Y-99794544D01*
X131563831Y-99783245D01*
X131479129Y-99776388D01*
X131388161Y-99772508D01*
X131144345Y-99763698D01*
X131144345Y-100232484D01*
X130839240Y-100232484D01*
X130839240Y-99510152D01*
X131277828Y-99518778D01*
X131277828Y-99518778D01*
G37*
X131277828Y-99518778D02*
X131471739Y-99524741D01*
X131622410Y-99535581D01*
X131737385Y-99553595D01*
X131824209Y-99581076D01*
X131890428Y-99620319D01*
X131943585Y-99673620D01*
X131985589Y-99734036D01*
X132034733Y-99854053D01*
X132048432Y-99986387D01*
X132029415Y-100118465D01*
X131980414Y-100237715D01*
X131904161Y-100331564D01*
X131847446Y-100369954D01*
X131791536Y-100399288D01*
X131759366Y-100417884D01*
X131757743Y-100419119D01*
X131767289Y-100443254D01*
X131802615Y-100505540D01*
X131861198Y-100601880D01*
X131940518Y-100728177D01*
X132038054Y-100880334D01*
X132104488Y-100982670D01*
X132141785Y-101039878D01*
X131786934Y-101039878D01*
X131611836Y-100748214D01*
X131436737Y-100456551D01*
X131144345Y-100455093D01*
X131144345Y-101039878D01*
X130839240Y-101039878D01*
X130839240Y-100232484D01*
X131144345Y-100232484D01*
X131376792Y-100221371D01*
X131488539Y-100214904D01*
X131561943Y-100206117D01*
X131609501Y-100191559D01*
X131643707Y-100167775D01*
X131669184Y-100140566D01*
X131718054Y-100049746D01*
X131725858Y-99949511D01*
X131691948Y-99856898D01*
X131680553Y-99841343D01*
X131652991Y-99813003D01*
X131617934Y-99794544D01*
X131563831Y-99783245D01*
X131479129Y-99776388D01*
X131388161Y-99772508D01*
X131144345Y-99763698D01*
X131144345Y-100232484D01*
X130839240Y-100232484D01*
X130839240Y-99510152D01*
X131277828Y-99518778D01*
G36*
X132924124Y-100149988D02*
X133610611Y-100149988D01*
X133610611Y-99514352D01*
X133915716Y-99514352D01*
X133915716Y-101039878D01*
X133610611Y-101039878D01*
X133610611Y-100404242D01*
X132924124Y-100404242D01*
X132924124Y-101039878D01*
X132619019Y-101039878D01*
X132619019Y-99514352D01*
X132924124Y-99514352D01*
X132924124Y-100149988D01*
X132924124Y-100149988D01*
G37*
X132924124Y-100149988D02*
X133610611Y-100149988D01*
X133610611Y-99514352D01*
X133915716Y-99514352D01*
X133915716Y-101039878D01*
X133610611Y-101039878D01*
X133610611Y-100404242D01*
X132924124Y-100404242D01*
X132924124Y-101039878D01*
X132619019Y-101039878D01*
X132619019Y-99514352D01*
X132924124Y-99514352D01*
X132924124Y-100149988D01*
G36*
X134856457Y-101039878D02*
X134551352Y-101039878D01*
X134551352Y-99514352D01*
X134856457Y-99514352D01*
X134856457Y-101039878D01*
X134856457Y-101039878D01*
G37*
X134856457Y-101039878D02*
X134551352Y-101039878D01*
X134551352Y-99514352D01*
X134856457Y-99514352D01*
X134856457Y-101039878D01*
G36*
X136610811Y-99639060D02*
X136610164Y-99677524D01*
X136605735Y-99711939D01*
X136593795Y-99747765D01*
X136570613Y-99790464D01*
X136532460Y-99845495D01*
X136475604Y-99918318D01*
X136396316Y-100014394D01*
X136290865Y-100139182D01*
X136180915Y-100268339D01*
X135751020Y-100772911D01*
X136193628Y-100779854D01*
X136636237Y-100786797D01*
X136636237Y-101039878D01*
X135390391Y-101039878D01*
X135391111Y-100919107D01*
X135392168Y-100881729D01*
X135397341Y-100847641D01*
X135410364Y-100811444D01*
X135434973Y-100767741D01*
X135474900Y-100711135D01*
X135533881Y-100636229D01*
X135615651Y-100537626D01*
X135723942Y-100409927D01*
X135826510Y-100289828D01*
X136261188Y-99781319D01*
X135415816Y-99767377D01*
X135415816Y-99514352D01*
X136610811Y-99514352D01*
X136610811Y-99639060D01*
X136610811Y-99639060D01*
G37*
X136610811Y-99639060D02*
X136610164Y-99677524D01*
X136605735Y-99711939D01*
X136593795Y-99747765D01*
X136570613Y-99790464D01*
X136532460Y-99845495D01*
X136475604Y-99918318D01*
X136396316Y-100014394D01*
X136290865Y-100139182D01*
X136180915Y-100268339D01*
X135751020Y-100772911D01*
X136193628Y-100779854D01*
X136636237Y-100786797D01*
X136636237Y-101039878D01*
X135390391Y-101039878D01*
X135391111Y-100919107D01*
X135392168Y-100881729D01*
X135397341Y-100847641D01*
X135410364Y-100811444D01*
X135434973Y-100767741D01*
X135474900Y-100711135D01*
X135533881Y-100636229D01*
X135615651Y-100537626D01*
X135723942Y-100409927D01*
X135826510Y-100289828D01*
X136261188Y-99781319D01*
X135415816Y-99767377D01*
X135415816Y-99514352D01*
X136610811Y-99514352D01*
X136610811Y-99639060D01*
G36*
X140704305Y-101039878D02*
X140419937Y-101039878D01*
X140428637Y-100431759D01*
X140430816Y-100262432D01*
X140432285Y-100111763D01*
X140433017Y-99986616D01*
X140432984Y-99893856D01*
X140432158Y-99840345D01*
X140431112Y-99829893D01*
X140421409Y-99854744D01*
X140397971Y-99920425D01*
X140363354Y-100019594D01*
X140320119Y-100144911D01*
X140270823Y-100289038D01*
X140261222Y-100317241D01*
X140207927Y-100473728D01*
X140157338Y-100621955D01*
X140112826Y-100752061D01*
X140077765Y-100854188D01*
X140055530Y-100918473D01*
X140054879Y-100920338D01*
X140012199Y-101042340D01*
X139883592Y-101034753D01*
X139754984Y-101027165D01*
X139556727Y-100432642D01*
X139501802Y-100268498D01*
X139452136Y-100121136D01*
X139409987Y-99997172D01*
X139377613Y-99903220D01*
X139357274Y-99845896D01*
X139351257Y-99830898D01*
X139349604Y-99853084D01*
X139348815Y-99919264D01*
X139348870Y-100022590D01*
X139349747Y-100156211D01*
X139351428Y-100313279D01*
X139353045Y-100431777D01*
X139362046Y-101039878D01*
X139077077Y-101039878D01*
X139077077Y-99514352D01*
X139525671Y-99514352D01*
X139668364Y-99952941D01*
X139717899Y-100106247D01*
X139765143Y-100254377D01*
X139806481Y-100385856D01*
X139838298Y-100489209D01*
X139853871Y-100541825D01*
X139896683Y-100692122D01*
X140019801Y-100287571D01*
X140066465Y-100135549D01*
X140113316Y-99985214D01*
X140156118Y-99850003D01*
X140190635Y-99743355D01*
X140203428Y-99705043D01*
X140263937Y-99527065D01*
X140484121Y-99519719D01*
X140704305Y-99512372D01*
X140704305Y-101039878D01*
X140704305Y-101039878D01*
G37*
X140704305Y-101039878D02*
X140419937Y-101039878D01*
X140428637Y-100431759D01*
X140430816Y-100262432D01*
X140432285Y-100111763D01*
X140433017Y-99986616D01*
X140432984Y-99893856D01*
X140432158Y-99840345D01*
X140431112Y-99829893D01*
X140421409Y-99854744D01*
X140397971Y-99920425D01*
X140363354Y-100019594D01*
X140320119Y-100144911D01*
X140270823Y-100289038D01*
X140261222Y-100317241D01*
X140207927Y-100473728D01*
X140157338Y-100621955D01*
X140112826Y-100752061D01*
X140077765Y-100854188D01*
X140055530Y-100918473D01*
X140054879Y-100920338D01*
X140012199Y-101042340D01*
X139883592Y-101034753D01*
X139754984Y-101027165D01*
X139556727Y-100432642D01*
X139501802Y-100268498D01*
X139452136Y-100121136D01*
X139409987Y-99997172D01*
X139377613Y-99903220D01*
X139357274Y-99845896D01*
X139351257Y-99830898D01*
X139349604Y-99853084D01*
X139348815Y-99919264D01*
X139348870Y-100022590D01*
X139349747Y-100156211D01*
X139351428Y-100313279D01*
X139353045Y-100431777D01*
X139362046Y-101039878D01*
X139077077Y-101039878D01*
X139077077Y-99514352D01*
X139525671Y-99514352D01*
X139668364Y-99952941D01*
X139717899Y-100106247D01*
X139765143Y-100254377D01*
X139806481Y-100385856D01*
X139838298Y-100489209D01*
X139853871Y-100541825D01*
X139896683Y-100692122D01*
X140019801Y-100287571D01*
X140066465Y-100135549D01*
X140113316Y-99985214D01*
X140156118Y-99850003D01*
X140190635Y-99743355D01*
X140203428Y-99705043D01*
X140263937Y-99527065D01*
X140484121Y-99519719D01*
X140704305Y-99512372D01*
X140704305Y-101039878D01*
G36*
X142390497Y-100260573D02*
X142457280Y-100445047D01*
X142518104Y-100613980D01*
X142570879Y-100761498D01*
X142613518Y-100881727D01*
X142643931Y-100968794D01*
X142660031Y-101016826D01*
X142662062Y-101024322D01*
X142638898Y-101032341D01*
X142578426Y-101037957D01*
X142501274Y-101039878D01*
X142340485Y-101039878D01*
X142220397Y-100656964D01*
X141928439Y-100664087D01*
X141636482Y-100671209D01*
X141575081Y-100855543D01*
X141513681Y-101039878D01*
X141188757Y-101039878D01*
X141277845Y-100791980D01*
X141314866Y-100689349D01*
X141364901Y-100551198D01*
X141420598Y-100397771D01*
X141728121Y-100397771D01*
X141735109Y-100414380D01*
X141776000Y-100424449D01*
X141857379Y-100429063D01*
X141922005Y-100429667D01*
X142017079Y-100427501D01*
X142088827Y-100421739D01*
X142125334Y-100413485D01*
X142127633Y-100410598D01*
X142119470Y-100368345D01*
X142098714Y-100296238D01*
X142069109Y-100204694D01*
X142034395Y-100104131D01*
X141998317Y-100004967D01*
X141964616Y-99917619D01*
X141937035Y-99852506D01*
X141919317Y-99820043D01*
X141915268Y-99819457D01*
X141901938Y-99858710D01*
X141877302Y-99934336D01*
X141845289Y-100034194D01*
X141820681Y-100111735D01*
X141786126Y-100220446D01*
X141756485Y-100312547D01*
X141735571Y-100376259D01*
X141728121Y-100397771D01*
X141420598Y-100397771D01*
X141423505Y-100389766D01*
X141486235Y-100217294D01*
X141548646Y-100046022D01*
X141552458Y-100035573D01*
X141737983Y-99527065D01*
X142118931Y-99512379D01*
X142390497Y-100260573D01*
X142390497Y-100260573D01*
G37*
X142390497Y-100260573D02*
X142457280Y-100445047D01*
X142518104Y-100613980D01*
X142570879Y-100761498D01*
X142613518Y-100881727D01*
X142643931Y-100968794D01*
X142660031Y-101016826D01*
X142662062Y-101024322D01*
X142638898Y-101032341D01*
X142578426Y-101037957D01*
X142501274Y-101039878D01*
X142340485Y-101039878D01*
X142220397Y-100656964D01*
X141928439Y-100664087D01*
X141636482Y-100671209D01*
X141575081Y-100855543D01*
X141513681Y-101039878D01*
X141188757Y-101039878D01*
X141277845Y-100791980D01*
X141314866Y-100689349D01*
X141364901Y-100551198D01*
X141420598Y-100397771D01*
X141728121Y-100397771D01*
X141735109Y-100414380D01*
X141776000Y-100424449D01*
X141857379Y-100429063D01*
X141922005Y-100429667D01*
X142017079Y-100427501D01*
X142088827Y-100421739D01*
X142125334Y-100413485D01*
X142127633Y-100410598D01*
X142119470Y-100368345D01*
X142098714Y-100296238D01*
X142069109Y-100204694D01*
X142034395Y-100104131D01*
X141998317Y-100004967D01*
X141964616Y-99917619D01*
X141937035Y-99852506D01*
X141919317Y-99820043D01*
X141915268Y-99819457D01*
X141901938Y-99858710D01*
X141877302Y-99934336D01*
X141845289Y-100034194D01*
X141820681Y-100111735D01*
X141786126Y-100220446D01*
X141756485Y-100312547D01*
X141735571Y-100376259D01*
X141728121Y-100397771D01*
X141420598Y-100397771D01*
X141423505Y-100389766D01*
X141486235Y-100217294D01*
X141548646Y-100046022D01*
X141552458Y-100035573D01*
X141737983Y-99527065D01*
X142118931Y-99512379D01*
X142390497Y-100260573D01*
G36*
X144111312Y-99768606D02*
X143602803Y-99768606D01*
X143602803Y-101039878D01*
X143297698Y-101039878D01*
X143297698Y-99768606D01*
X142789190Y-99768606D01*
X142789190Y-99514352D01*
X144111312Y-99514352D01*
X144111312Y-99768606D01*
X144111312Y-99768606D01*
G37*
X144111312Y-99768606D02*
X143602803Y-99768606D01*
X143602803Y-101039878D01*
X143297698Y-101039878D01*
X143297698Y-99768606D01*
X142789190Y-99768606D01*
X142789190Y-99514352D01*
X144111312Y-99514352D01*
X144111312Y-99768606D01*
G36*
X144899500Y-101039878D02*
X144594395Y-101039878D01*
X144594395Y-99514352D01*
X144899500Y-99514352D01*
X144899500Y-101039878D01*
X144899500Y-101039878D01*
G37*
X144899500Y-101039878D02*
X144594395Y-101039878D01*
X144594395Y-99514352D01*
X144899500Y-99514352D01*
X144899500Y-101039878D01*
G36*
X152374575Y-92318957D02*
X130584985Y-92318957D01*
X130584985Y-77851890D01*
X130686687Y-77851890D01*
X130686687Y-92217255D01*
X152272873Y-92217255D01*
X152272873Y-77851890D01*
X130686687Y-77851890D01*
X130584985Y-77851890D01*
X130584985Y-77750188D01*
X152374575Y-77750188D01*
X152374575Y-92318957D01*
X152374575Y-92318957D01*
G37*
X152374575Y-92318957D02*
X130584985Y-92318957D01*
X130584985Y-77851890D01*
X130686687Y-77851890D01*
X130686687Y-92217255D01*
X152272873Y-92217255D01*
X152272873Y-77851890D01*
X130686687Y-77851890D01*
X130584985Y-77851890D01*
X130584985Y-77750188D01*
X152374575Y-77750188D01*
X152374575Y-92318957D01*
G36*
X165595796Y-88072911D02*
X159519119Y-88072911D01*
X159519119Y-82097936D01*
X159620821Y-82097936D01*
X159620821Y-87971209D01*
X165494094Y-87971209D01*
X165494094Y-82097936D01*
X159620821Y-82097936D01*
X159519119Y-82097936D01*
X159519119Y-81996234D01*
X165595796Y-81996234D01*
X165595796Y-88072911D01*
X165595796Y-88072911D01*
G37*
X165595796Y-88072911D02*
X159519119Y-88072911D01*
X159519119Y-82097936D01*
X159620821Y-82097936D01*
X159620821Y-87971209D01*
X165494094Y-87971209D01*
X165494094Y-82097936D01*
X159620821Y-82097936D01*
X159519119Y-82097936D01*
X159519119Y-81996234D01*
X165595796Y-81996234D01*
X165595796Y-88072911D01*
G36*
X121355556Y-86699938D02*
X117312913Y-86699938D01*
X117312913Y-83521759D01*
X117414615Y-83521759D01*
X117414615Y-86598236D01*
X121253854Y-86598236D01*
X121253854Y-83521759D01*
X117414615Y-83521759D01*
X117312913Y-83521759D01*
X117312913Y-83420058D01*
X121355556Y-83420058D01*
X121355556Y-86699938D01*
X121355556Y-86699938D01*
G37*
X121355556Y-86699938D02*
X117312913Y-86699938D01*
X117312913Y-83521759D01*
X117414615Y-83521759D01*
X117414615Y-86598236D01*
X121253854Y-86598236D01*
X121253854Y-83521759D01*
X117414615Y-83521759D01*
X117312913Y-83521759D01*
X117312913Y-83420058D01*
X121355556Y-83420058D01*
X121355556Y-86699938D01*
%LPC*%
D14*
X127000000Y-81590000D03*
X127000000Y-85090000D03*
X127000000Y-88590000D03*
D15*
X149523701Y-102353393D03*
X149523701Y-104853393D03*
D16*
X121265000Y-81915000D03*
X118765000Y-81915000D03*
D15*
X154603701Y-102373393D03*
X154603701Y-104873393D03*
D16*
X121265000Y-88265000D03*
X118765000Y-88265000D03*
D17*
X172085000Y-84775000D03*
X172085000Y-86675000D03*
D18*
X167960000Y-88900000D03*
X169860000Y-88900000D03*
D16*
X167660000Y-100330000D03*
X170160000Y-100330000D03*
D18*
X169540000Y-82550000D03*
X167640000Y-82550000D03*
X176210000Y-80010000D03*
X174310000Y-80010000D03*
D16*
X157460000Y-81915000D03*
X154960000Y-81915000D03*
D17*
X160655000Y-79690000D03*
X160655000Y-77790000D03*
D19*
X154860000Y-115570000D03*
X157560000Y-115570000D03*
X162480000Y-115570000D03*
X165180000Y-115570000D03*
X170100000Y-115570000D03*
X172800000Y-115570000D03*
X177720000Y-115570000D03*
X180420000Y-115570000D03*
X185340000Y-115570000D03*
X188040000Y-115570000D03*
D20*
X118535000Y-97470000D03*
D21*
X120445000Y-98850000D03*
X120445000Y-99350000D03*
X120445000Y-99850000D03*
X120445000Y-100350000D03*
X120445000Y-100850000D03*
X120445000Y-101350000D03*
X120445000Y-101850000D03*
X120445000Y-104350000D03*
X120445000Y-103350000D03*
X120445000Y-102850000D03*
X120445000Y-102350000D03*
X120445000Y-103850000D03*
X118745000Y-104100000D03*
D20*
X118535000Y-105730000D03*
X112585000Y-106090000D03*
X112585000Y-97110000D03*
D22*
X119785000Y-105200000D03*
D23*
X119785000Y-98000000D03*
D21*
X118745000Y-103600000D03*
X118745000Y-103100000D03*
X118745000Y-102600000D03*
X118745000Y-102100000D03*
X118745000Y-101600000D03*
X118745000Y-101100000D03*
X118745000Y-100600000D03*
X118745000Y-100100000D03*
X118745000Y-99600000D03*
X118745000Y-99100000D03*
X118745000Y-98600000D03*
D24*
X176530000Y-106045000D03*
X185420000Y-97155000D03*
X185420000Y-106045000D03*
X190500000Y-106045000D03*
X190500000Y-97155000D03*
D25*
X152093701Y-99158393D03*
X149493701Y-99158393D03*
D26*
X115570000Y-86440000D03*
X115570000Y-83740000D03*
D19*
X149860000Y-94615000D03*
X147160000Y-94615000D03*
X152400000Y-94615000D03*
X155100000Y-94615000D03*
X170260000Y-102870000D03*
X167560000Y-102870000D03*
D26*
X172720000Y-102950000D03*
X172720000Y-100250000D03*
X164465000Y-77390000D03*
X164465000Y-80090000D03*
X162560000Y-96680000D03*
X162560000Y-93980000D03*
D19*
X154860000Y-113030000D03*
X157560000Y-113030000D03*
X162480000Y-113030000D03*
X165180000Y-113030000D03*
X170100000Y-113030000D03*
X172800000Y-113030000D03*
X177720000Y-113030000D03*
X180420000Y-113030000D03*
X185340000Y-113030000D03*
X188040000Y-113030000D03*
X157560000Y-86995000D03*
X154860000Y-86995000D03*
X157560000Y-89535000D03*
X154860000Y-89535000D03*
X157560000Y-84455000D03*
X154860000Y-84455000D03*
D27*
X120380000Y-84192881D03*
X119880000Y-84192881D03*
X119380000Y-84192881D03*
X118880000Y-84192881D03*
X118380000Y-84192881D03*
X118380000Y-86042881D03*
X118880000Y-86042881D03*
X119380000Y-86042881D03*
X119880000Y-86042881D03*
X120380000Y-86042881D03*
D28*
X118780000Y-85117881D03*
X119980000Y-85117881D03*
D29*
X160655000Y-104300000D03*
X161925000Y-104300000D03*
X163195000Y-104300000D03*
X164465000Y-104300000D03*
X164465000Y-98900000D03*
X163195000Y-98900000D03*
X161925000Y-98900000D03*
X160655000Y-98900000D03*
D27*
X164310000Y-82690000D03*
X163810000Y-82690000D03*
X163310000Y-82690000D03*
X162810000Y-82690000D03*
X162310000Y-82690000D03*
X161810000Y-82690000D03*
X161310000Y-82690000D03*
X160810000Y-82690000D03*
D30*
X160160000Y-83340000D03*
X160160000Y-83840000D03*
X160160000Y-84340000D03*
X160160000Y-84840000D03*
X160160000Y-85340000D03*
X160160000Y-85840000D03*
X160160000Y-86340000D03*
X160160000Y-86840000D03*
D27*
X160810000Y-87490000D03*
X161310000Y-87490000D03*
X161810000Y-87490000D03*
X162310000Y-87490000D03*
X162810000Y-87490000D03*
X163310000Y-87490000D03*
X163810000Y-87490000D03*
X164310000Y-87490000D03*
D30*
X164960000Y-86840000D03*
X164960000Y-86340000D03*
X164960000Y-85840000D03*
X164960000Y-85340000D03*
X164960000Y-84840000D03*
X164960000Y-84340000D03*
X164960000Y-83840000D03*
X164960000Y-83340000D03*
D31*
X161697500Y-85952500D03*
X163422500Y-85952500D03*
X161697500Y-84227500D03*
X163422500Y-84227500D03*
D32*
X170010000Y-84875000D03*
X167810000Y-84875000D03*
X167810000Y-86575000D03*
X170010000Y-86575000D03*
D33*
X151413701Y-103918393D03*
X152063701Y-103918393D03*
X152713701Y-103918393D03*
X152713701Y-102018393D03*
X151413701Y-102018393D03*
X152063701Y-102018393D03*
D24*
X176530000Y-97155000D03*
D34*
X156210000Y-78740000D03*
D35*
X162052000Y-78739926D03*
X161697500Y-85952500D03*
X163422500Y-85952500D03*
X163422500Y-84227500D03*
X161697500Y-84227500D03*
X155956000Y-103632000D03*
X155956000Y-100838000D03*
X121920000Y-101600000D03*
X116840000Y-101600000D03*
D36*
X159512000Y-90170000D03*
X160782000Y-88900000D03*
X147320000Y-96012090D03*
D35*
X131064000Y-90170000D03*
D36*
X147320000Y-100076000D03*
D35*
X122555000Y-90170000D03*
D36*
X169926000Y-83566000D03*
X166370000Y-85090000D03*
X166370000Y-88900000D03*
X166370000Y-81788000D03*
D35*
X170180000Y-78740000D03*
X163830000Y-81534000D03*
D36*
X117602000Y-84074000D03*
X123444000Y-87122000D03*
X117094000Y-97028000D03*
X114300000Y-97028000D03*
X170688000Y-90170000D03*
X165769997Y-88900000D03*
X170688000Y-90770003D03*
X165100000Y-88900000D03*
X154432000Y-80772000D03*
X156863761Y-88259937D03*
X159371432Y-81201536D03*
X151130000Y-93472000D03*
X162985053Y-80199495D03*
X166370000Y-82550000D03*
X159004118Y-81695977D03*
X167640000Y-107972069D03*
X159004000Y-82295978D03*
X167640000Y-107372056D03*
X167640000Y-106772043D03*
X159004000Y-84836000D03*
X167640000Y-106171936D03*
X159512000Y-97536000D03*
X161290000Y-101346000D03*
X161036000Y-102870000D03*
X163830000Y-101346000D03*
X162052000Y-102870000D03*
X163068000Y-102870000D03*
X160782000Y-97536000D03*
X162052000Y-100330000D03*
X160181997Y-97536000D03*
D37*
G36*
X134543394Y-115723000D02*
X133000000Y-115723000D01*
X132950590Y-115733006D01*
X132908965Y-115761447D01*
X132881685Y-115803841D01*
X132873000Y-115850000D01*
X132873000Y-117873000D01*
X132777000Y-117873000D01*
X132777000Y-113956606D01*
X134543394Y-115723000D01*
X134543394Y-115723000D01*
G37*
X134543394Y-115723000D02*
X133000000Y-115723000D01*
X132950590Y-115733006D01*
X132908965Y-115761447D01*
X132881685Y-115803841D01*
X132873000Y-115850000D01*
X132873000Y-117873000D01*
X132777000Y-117873000D01*
X132777000Y-113956606D01*
X134543394Y-115723000D01*
G36*
X143273000Y-117873000D02*
X137077000Y-117873000D01*
X137077000Y-115852606D01*
X138973000Y-113956606D01*
X138973000Y-115800000D01*
X138983006Y-115849410D01*
X139011447Y-115891035D01*
X139053841Y-115918315D01*
X139103509Y-115926952D01*
X139152623Y-115915584D01*
X139189803Y-115889803D01*
X141123000Y-113956606D01*
X141123000Y-115800000D01*
X141133006Y-115849410D01*
X141161447Y-115891035D01*
X141203841Y-115918315D01*
X141253509Y-115926952D01*
X141302623Y-115915584D01*
X141339803Y-115889803D01*
X143273000Y-113956606D01*
X143273000Y-117873000D01*
X143273000Y-117873000D01*
G37*
X143273000Y-117873000D02*
X137077000Y-117873000D01*
X137077000Y-115852606D01*
X138973000Y-113956606D01*
X138973000Y-115800000D01*
X138983006Y-115849410D01*
X139011447Y-115891035D01*
X139053841Y-115918315D01*
X139103509Y-115926952D01*
X139152623Y-115915584D01*
X139189803Y-115889803D01*
X141123000Y-113956606D01*
X141123000Y-115800000D01*
X141133006Y-115849410D01*
X141161447Y-115891035D01*
X141203841Y-115918315D01*
X141253509Y-115926952D01*
X141302623Y-115915584D01*
X141339803Y-115889803D01*
X143273000Y-113956606D01*
X143273000Y-117873000D01*
M02*
