G04 #@! TF.FileFunction,Soldermask,Top*
%FSLAX46Y46*%
G04 Gerber Fmt 4.6, Leading zero omitted, Abs format (unit mm)*
G04 Created by KiCad (PCBNEW 4.0.7) date 03/27/18 03:46:25*
%MOMM*%
%LPD*%
G01*
G04 APERTURE LIST*
%ADD10C,0.100000*%
%ADD11R,2.400000X2.100000*%
%ADD12R,1.650000X1.900000*%
%ADD13R,1.900000X1.650000*%
%ADD14R,1.150000X1.600000*%
%ADD15R,1.600000X1.150000*%
%ADD16R,1.900000X1.700000*%
%ADD17O,1.800000X1.200000*%
%ADD18R,1.100000X0.700000*%
%ADD19O,1.050000X1.350000*%
%ADD20C,1.050000*%
%ADD21C,2.900000*%
%ADD22R,1.600000X3.100000*%
%ADD23R,1.700000X1.900000*%
%ADD24R,0.650000X1.100000*%
%ADD25R,1.600000X1.040000*%
%ADD26R,1.000000X1.950000*%
%ADD27R,1.100000X0.650000*%
%ADD28R,2.125000X2.125000*%
%ADD29R,1.800000X1.600000*%
%ADD30R,0.800000X1.100000*%
%ADD31C,1.900000*%
%ADD32C,1.000000*%
%ADD33C,0.800000*%
%ADD34C,0.254000*%
G04 APERTURE END LIST*
D10*
D11*
X127000000Y-81590000D03*
X127000000Y-85090000D03*
X127000000Y-88590000D03*
D12*
X149523701Y-102353393D03*
X149523701Y-104853393D03*
D13*
X121265000Y-81915000D03*
X118765000Y-81915000D03*
D12*
X154603701Y-102373393D03*
X154603701Y-104873393D03*
D13*
X121265000Y-88265000D03*
X118765000Y-88265000D03*
D14*
X172085000Y-84775000D03*
X172085000Y-86675000D03*
D15*
X167960000Y-88900000D03*
X169860000Y-88900000D03*
D13*
X167660000Y-100330000D03*
X170160000Y-100330000D03*
D15*
X169540000Y-82550000D03*
X167640000Y-82550000D03*
X176210000Y-80010000D03*
X174310000Y-80010000D03*
D13*
X157460000Y-81915000D03*
X154960000Y-81915000D03*
D14*
X160655000Y-79690000D03*
X160655000Y-77790000D03*
D16*
X154860000Y-115570000D03*
X157560000Y-115570000D03*
X162480000Y-115570000D03*
X165180000Y-115570000D03*
X170100000Y-115570000D03*
X172800000Y-115570000D03*
X177720000Y-115570000D03*
X180420000Y-115570000D03*
X185340000Y-115570000D03*
X188040000Y-115570000D03*
D17*
X118535000Y-97470000D03*
D18*
X120445000Y-98850000D03*
X120445000Y-99350000D03*
X120445000Y-99850000D03*
X120445000Y-100350000D03*
X120445000Y-100850000D03*
X120445000Y-101350000D03*
X120445000Y-101850000D03*
X120445000Y-104350000D03*
X120445000Y-103350000D03*
X120445000Y-102850000D03*
X120445000Y-102350000D03*
X120445000Y-103850000D03*
X118745000Y-104100000D03*
D17*
X118535000Y-105730000D03*
X112585000Y-106090000D03*
X112585000Y-97110000D03*
D19*
X119785000Y-105200000D03*
D20*
X119785000Y-98000000D03*
D18*
X118745000Y-103600000D03*
X118745000Y-103100000D03*
X118745000Y-102600000D03*
X118745000Y-102100000D03*
X118745000Y-101600000D03*
X118745000Y-101100000D03*
X118745000Y-100600000D03*
X118745000Y-100100000D03*
X118745000Y-99600000D03*
X118745000Y-99100000D03*
X118745000Y-98600000D03*
D21*
X176530000Y-106045000D03*
X185420000Y-97155000D03*
X185420000Y-106045000D03*
X190500000Y-106045000D03*
X190500000Y-97155000D03*
D22*
X152093701Y-99158393D03*
X149493701Y-99158393D03*
D23*
X115570000Y-86440000D03*
X115570000Y-83740000D03*
D16*
X149860000Y-94615000D03*
X147160000Y-94615000D03*
X152400000Y-94615000D03*
X155100000Y-94615000D03*
X170260000Y-102870000D03*
X167560000Y-102870000D03*
D23*
X172720000Y-102950000D03*
X172720000Y-100250000D03*
X164465000Y-77390000D03*
X164465000Y-80090000D03*
X162560000Y-96680000D03*
X162560000Y-93980000D03*
D16*
X154860000Y-113030000D03*
X157560000Y-113030000D03*
X162480000Y-113030000D03*
X165180000Y-113030000D03*
X170100000Y-113030000D03*
X172800000Y-113030000D03*
X177720000Y-113030000D03*
X180420000Y-113030000D03*
X185340000Y-113030000D03*
X188040000Y-113030000D03*
X157560000Y-86995000D03*
X154860000Y-86995000D03*
X157560000Y-89535000D03*
X154860000Y-89535000D03*
X157560000Y-84455000D03*
X154860000Y-84455000D03*
D24*
X120380000Y-84192881D03*
X119880000Y-84192881D03*
X119380000Y-84192881D03*
X118880000Y-84192881D03*
X118380000Y-84192881D03*
X118380000Y-86042881D03*
X118880000Y-86042881D03*
X119380000Y-86042881D03*
X119880000Y-86042881D03*
X120380000Y-86042881D03*
D25*
X118780000Y-85117881D03*
X119980000Y-85117881D03*
D26*
X160655000Y-104300000D03*
X161925000Y-104300000D03*
X163195000Y-104300000D03*
X164465000Y-104300000D03*
X164465000Y-98900000D03*
X163195000Y-98900000D03*
X161925000Y-98900000D03*
X160655000Y-98900000D03*
D24*
X164310000Y-82690000D03*
X163810000Y-82690000D03*
X163310000Y-82690000D03*
X162810000Y-82690000D03*
X162310000Y-82690000D03*
X161810000Y-82690000D03*
X161310000Y-82690000D03*
X160810000Y-82690000D03*
D27*
X160160000Y-83340000D03*
X160160000Y-83840000D03*
X160160000Y-84340000D03*
X160160000Y-84840000D03*
X160160000Y-85340000D03*
X160160000Y-85840000D03*
X160160000Y-86340000D03*
X160160000Y-86840000D03*
D24*
X160810000Y-87490000D03*
X161310000Y-87490000D03*
X161810000Y-87490000D03*
X162310000Y-87490000D03*
X162810000Y-87490000D03*
X163310000Y-87490000D03*
X163810000Y-87490000D03*
X164310000Y-87490000D03*
D27*
X164960000Y-86840000D03*
X164960000Y-86340000D03*
X164960000Y-85840000D03*
X164960000Y-85340000D03*
X164960000Y-84840000D03*
X164960000Y-84340000D03*
X164960000Y-83840000D03*
X164960000Y-83340000D03*
D28*
X161697500Y-85952500D03*
X163422500Y-85952500D03*
X161697500Y-84227500D03*
X163422500Y-84227500D03*
D29*
X170010000Y-84875000D03*
X167810000Y-84875000D03*
X167810000Y-86575000D03*
X170010000Y-86575000D03*
D30*
X151413701Y-103918393D03*
X152063701Y-103918393D03*
X152713701Y-103918393D03*
X152713701Y-102018393D03*
X151413701Y-102018393D03*
X152063701Y-102018393D03*
D21*
X176530000Y-97155000D03*
D31*
X156210000Y-78740000D03*
D32*
X162052000Y-78739926D03*
X161697500Y-85952500D03*
X163422500Y-85952500D03*
X163422500Y-84227500D03*
X161697500Y-84227500D03*
X155956000Y-103632000D03*
X155956000Y-100838000D03*
X121920000Y-101600000D03*
X116840000Y-101600000D03*
D33*
X159512000Y-90170000D03*
X160782000Y-88900000D03*
X147320000Y-96012090D03*
D32*
X131064000Y-90170000D03*
D33*
X147320000Y-100076000D03*
D32*
X122555000Y-90170000D03*
D33*
X169926000Y-83566000D03*
X166370000Y-85090000D03*
X166370000Y-88900000D03*
X166370000Y-81788000D03*
D32*
X170180000Y-78740000D03*
X163830000Y-81534000D03*
D33*
X117602000Y-84074000D03*
X123444000Y-87122000D03*
X117094000Y-97028000D03*
X114300000Y-97028000D03*
X170688000Y-90170000D03*
X165769997Y-88900000D03*
X170688000Y-90770003D03*
X165100000Y-88900000D03*
X154432000Y-80772000D03*
X156863761Y-88259937D03*
X159371432Y-81201536D03*
X151130000Y-93472000D03*
X162985053Y-80199495D03*
X166370000Y-82550000D03*
X159004118Y-81695977D03*
X167640000Y-107972069D03*
X159004000Y-82295978D03*
X167640000Y-107372056D03*
X167640000Y-106772043D03*
X159004000Y-84836000D03*
X167640000Y-106171936D03*
X159512000Y-97536000D03*
X161290000Y-101346000D03*
X161036000Y-102870000D03*
X163830000Y-101346000D03*
X162052000Y-102870000D03*
X163068000Y-102870000D03*
X160782000Y-97536000D03*
X162052000Y-100330000D03*
X160181997Y-97536000D03*
D34*
G36*
X134543394Y-115723000D02*
X133000000Y-115723000D01*
X132950590Y-115733006D01*
X132908965Y-115761447D01*
X132881685Y-115803841D01*
X132873000Y-115850000D01*
X132873000Y-117873000D01*
X132777000Y-117873000D01*
X132777000Y-113956606D01*
X134543394Y-115723000D01*
X134543394Y-115723000D01*
G37*
X134543394Y-115723000D02*
X133000000Y-115723000D01*
X132950590Y-115733006D01*
X132908965Y-115761447D01*
X132881685Y-115803841D01*
X132873000Y-115850000D01*
X132873000Y-117873000D01*
X132777000Y-117873000D01*
X132777000Y-113956606D01*
X134543394Y-115723000D01*
G36*
X143273000Y-117873000D02*
X137077000Y-117873000D01*
X137077000Y-115852606D01*
X138973000Y-113956606D01*
X138973000Y-115800000D01*
X138983006Y-115849410D01*
X139011447Y-115891035D01*
X139053841Y-115918315D01*
X139103509Y-115926952D01*
X139152623Y-115915584D01*
X139189803Y-115889803D01*
X141123000Y-113956606D01*
X141123000Y-115800000D01*
X141133006Y-115849410D01*
X141161447Y-115891035D01*
X141203841Y-115918315D01*
X141253509Y-115926952D01*
X141302623Y-115915584D01*
X141339803Y-115889803D01*
X143273000Y-113956606D01*
X143273000Y-117873000D01*
X143273000Y-117873000D01*
G37*
X143273000Y-117873000D02*
X137077000Y-117873000D01*
X137077000Y-115852606D01*
X138973000Y-113956606D01*
X138973000Y-115800000D01*
X138983006Y-115849410D01*
X139011447Y-115891035D01*
X139053841Y-115918315D01*
X139103509Y-115926952D01*
X139152623Y-115915584D01*
X139189803Y-115889803D01*
X141123000Y-113956606D01*
X141123000Y-115800000D01*
X141133006Y-115849410D01*
X141161447Y-115891035D01*
X141203841Y-115918315D01*
X141253509Y-115926952D01*
X141302623Y-115915584D01*
X141339803Y-115889803D01*
X143273000Y-113956606D01*
X143273000Y-117873000D01*
M02*
