  0
SECTION
  2
HEADER
  9
$ACADVER
  1
AC1012
  9
$DWGCODEPAGE
  3
ansi_1252
  9
$INSBASE
 10
0.0
 20
0.0
 30
0.0
  9
$EXTMIN
 10
1.000000000000000E+20
 20
1.000000000000000E+20
 30
1.000000000000000E+20
  9
$EXTMAX
 10
-1.000000000000000E+20
 20
-1.000000000000000E+20
 30
-1.000000000000000E+20
  9
$LIMMIN
 10
0.0
 20
0.0
  9
$LIMMAX
 10
12.0
 20
9.0
  9
$ORTHOMODE
 70
     0
  9
$REGENMODE
 70
     1
  9
$FILLMODE
 70
     1
  9
$QTEXTMODE
 70
     0
  9
$MIRRTEXT
 70
     1
  9
$DRAGMODE
 70
     2
  9
$LTSCALE
 40
1.0
  9
$OSMODE
 70
    37
  9
$ATTMODE
 70
     1
  9
$TEXTSIZE
 40
0.2
  9
$TRACEWID
 40
0.05
  9
$TEXTSTYLE
  7
STANDARD
  9
$CLAYER
  8
0
  9
$CELTYPE
  6
BYLAYER
  9
$CECOLOR
 62
   256
  9
$CELTSCALE
 40
1.0
  9
$DELOBJ
 70
     1
  9
$DISPSILH
 70
     0
  9
$DIMSCALE
 40
1.0
  9
$DIMASZ
 40
0.18
  9
$DIMEXO
 40
0.0625
  9
$DIMDLI
 40
0.38
  9
$DIMRND
 40
0.0
  9
$DIMDLE
 40
0.0
  9
$DIMEXE
 40
0.18
  9
$DIMTP
 40
0.0
  9
$DIMTM
 40
0.0
  9
$DIMTXT
 40
0.18
  9
$DIMCEN
 40
0.09
  9
$DIMTSZ
 40
0.0
  9
$DIMTOL
 70
     0
  9
$DIMLIM
 70
     0
  9
$DIMTIH
 70
     1
  9
$DIMTOH
 70
     1
  9
$DIMSE1
 70
     0
  9
$DIMSE2
 70
     0
  9
$DIMTAD
 70
     0
  9
$DIMZIN
 70
     0
  9
$DIMBLK
  1

  9
$DIMASO
 70
     1
  9
$DIMSHO
 70
     1
  9
$DIMPOST
  1

  9
$DIMAPOST
  1

  9
$DIMALT
 70
     0
  9
$DIMALTD
 70
     2
  9
$DIMALTF
 40
25.4
  9
$DIMLFAC
 40
1.0
  9
$DIMTOFL
 70
     0
  9
$DIMTVP
 40
0.0
  9
$DIMTIX
 70
     0
  9
$DIMSOXD
 70
     0
  9
$DIMSAH
 70
     0
  9
$DIMBLK1
  1

  9
$DIMBLK2
  1

  9
$DIMSTYLE
  2
STANDARD
  9
$DIMCLRD
 70
     0
  9
$DIMCLRE
 70
     0
  9
$DIMCLRT
 70
     0
  9
$DIMTFAC
 40
1.0
  9
$DIMGAP
 40
0.09
  9
$DIMJUST
 70
     0
  9
$DIMSD1
 70
     0
  9
$DIMSD2
 70
     0
  9
$DIMTOLJ
 70
     1
  9
$DIMTZIN
 70
     0
  9
$DIMALTZ
 70
     0
  9
$DIMALTTZ
 70
     0
  9
$DIMFIT
 70
     3
  9
$DIMUPT
 70
     0
  9
$DIMUNIT
 70
     2
  9
$DIMDEC
 70
     4
  9
$DIMTDEC
 70
     4
  9
$DIMALTU
 70
     2
  9
$DIMALTTD
 70
     2
  9
$DIMTXSTY
  7
STANDARD
  9
$DIMAUNIT
 70
     0
  9
$LUNITS
 70
     2
  9
$LUPREC
 70
     4
  9
$SKETCHINC
 40
0.1
  9
$FILLETRAD
 40
0.5
  9
$AUNITS
 70
     0
  9
$AUPREC
 70
     0
  9
$MENU
  1
.
  9
$ELEVATION
 40
0.0
  9
$PELEVATION
 40
0.0
  9
$THICKNESS
 40
0.0
  9
$LIMCHECK
 70
     0
  9
$CHAMFERA
 40
0.5
  9
$CHAMFERB
 40
0.5
  9
$CHAMFERC
 40
1.0
  9
$CHAMFERD
 40
0.0
  9
$SKPOLY
 70
     0
  9
$TDCREATE
 40
2458201.836671227
  9
$TDUPDATE
 40
2458201.8366714
  9
$TDINDWG
 40
0.0000000116
  9
$TDUSRTIMER
 40
0.0000000116
  9
$USRTIMER
 70
     1
  9
$ANGBASE
 50
0.0
  9
$ANGDIR
 70
     0
  9
$PDMODE
 70
     0
  9
$PDSIZE
 40
0.0
  9
$PLINEWID
 40
0.0
  9
$COORDS
 70
     1
  9
$SPLFRAME
 70
     0
  9
$SPLINETYPE
 70
     6
  9
$SPLINESEGS
 70
     8
  9
$ATTDIA
 70
     0
  9
$ATTREQ
 70
     1
  9
$HANDLING
 70
     1
  9
$HANDSEED
  5
250
  9
$SURFTAB1
 70
     6
  9
$SURFTAB2
 70
     6
  9
$SURFTYPE
 70
     6
  9
$SURFU
 70
     6
  9
$SURFV
 70
     6
  9
$UCSNAME
  2

  9
$UCSORG
 10
0.0
 20
0.0
 30
0.0
  9
$UCSXDIR
 10
1.0
 20
0.0
 30
0.0
  9
$UCSYDIR
 10
0.0
 20
1.0
 30
0.0
  9
$PUCSNAME
  2

  9
$PUCSORG
 10
0.0
 20
0.0
 30
0.0
  9
$PUCSXDIR
 10
1.0
 20
0.0
 30
0.0
  9
$PUCSYDIR
 10
0.0
 20
1.0
 30
0.0
  9
$USERI1
 70
     0
  9
$USERI2
 70
     0
  9
$USERI3
 70
     0
  9
$USERI4
 70
     0
  9
$USERI5
 70
     0
  9
$USERR1
 40
0.0
  9
$USERR2
 40
0.0
  9
$USERR3
 40
0.0
  9
$USERR4
 40
0.0
  9
$USERR5
 40
0.0
  9
$WORLDVIEW
 70
     1
  9
$SHADEDGE
 70
     3
  9
$SHADEDIF
 70
    70
  9
$TILEMODE
 70
     1
  9
$MAXACTVP
 70
    64
  9
$PINSBASE
 10
0.0
 20
0.0
 30
0.0
  9
$PLIMCHECK
 70
     0
  9
$PEXTMIN
 10
1.000000000000000E+20
 20
1.000000000000000E+20
 30
1.000000000000000E+20
  9
$PEXTMAX
 10
-1.000000000000000E+20
 20
-1.000000000000000E+20
 30
-1.000000000000000E+20
  9
$PLIMMIN
 10
0.0
 20
0.0
  9
$PLIMMAX
 10
12.0
 20
9.0
  9
$UNITMODE
 70
     0
  9
$VISRETAIN
 70
     1
  9
$PLINEGEN
 70
     0
  9
$PSLTSCALE
 70
     1
  9
$TREEDEPTH
 70
  3020
  9
$PICKSTYLE
 70
     1
  9
$CMLSTYLE
  2
STANDARD
  9
$CMLJUST
 70
     0
  9
$CMLSCALE
 40
1.0
  9
$SAVEIMAGES
 70
     1
  0
ENDSEC
  0
SECTION
  2
CLASSES
  0
CLASS
  1
ACDBDICTIONARYWDFLT
  2
AcDbDictionaryWithDefault
  3
ObjectDBX Classes
 90
    32768
280
     0
281
     0
  0
CLASS
  1
VISUALSTYLE
  2
AcDbVisualStyle
  3
ObjectDBX Classes
 90
     4095
280
     0
281
     0
  0
CLASS
  1
MATERIAL
  2
AcDbMaterial
  3
ObjectDBX Classes
 90
     1153
280
     0
281
     0
  0
CLASS
  1
SUN
  2
AcDbSun
  3
SCENEOE
 90
     1024
280
     0
281
     0
  0
CLASS
  1
DICTIONARYVAR
  2
AcDbDictionaryVar
  3
ObjectDBX Classes
 90
        0
280
     0
281
     0
  0
CLASS
  1
XRECORD
  2
AcDbXrecord
  3
AutoCAD 2000
 90
    32768
280
     0
281
     0
  0
CLASS
  1
LWPOLYLINE
  2
AcDbPolyline
  3
AutoCAD 2000
 90
    32768
280
     0
281
     1
  0
CLASS
  1
HATCH
  2
AcDbHatch
  3
AutoCAD 2000
 90
    32768
280
     0
281
     1
  0
CLASS
  1
ACDBPLACEHOLDER
  2
AcDbPlaceHolder
  3
ObjectDBX Classes
 90
        0
280
     0
281
     0
  0
CLASS
  1
LAYOUT
  2
AcDbLayout
  3
ObjectDBX Classes
 90
        0
280
     0
281
     0
  0
ENDSEC
  0
SECTION
  2
TABLES
  0
TABLE
  2
VPORT
  5
8
330
0
100
AcDbSymbolTable
 70
     1
  0
VPORT
  5
29
330
8
100
AcDbSymbolTableRecord
100
AcDbViewportTableRecord
  2
*ACTIVE
 70
     0
 10
0.0
 20
0.0
 11
1.0
 21
1.0
 12
0.0
 22
0.0
 13
0.0
 23
0.0
 14
0.5
 24
0.5
 15
0.5
 25
0.5
 16
0.0
 26
0.0
 36
1.0
 17
42.7999999892999
 27
-26.98999999325217
 37
0.0
 40
53.97999998650435
 41
1.585772508336436
 42
50.0
 43
0.0
 44
0.0
 50
0.0
 51
0.0
 71
     0
 72
   100
 73
     1
 74
     3
 75
     0
 76
     0
 77
     0
 78
     0
  0
ENDTAB
  0
TABLE
  2
LTYPE
  5
5
330
0
100
AcDbSymbolTable
 70
     1
  0
LTYPE
  5
14
330
5
100
AcDbSymbolTableRecord
100
AcDbLinetypeTableRecord
  2
BYBLOCK
 70
     0
  3

 72
    65
 73
     0
 40
0.0
  0
LTYPE
  5
15
330
5
100
AcDbSymbolTableRecord
100
AcDbLinetypeTableRecord
  2
BYLAYER
 70
     0
  3

 72
    65
 73
     0
 40
0.0
  0
LTYPE
  5
16
330
5
100
AcDbSymbolTableRecord
100
AcDbLinetypeTableRecord
  2
CONTINUOUS
 70
     0
  3
Solid line
 72
    65
 73
     0
 40
0.0
  0
ENDTAB
  0
TABLE
  2
LAYER
  5
2
330
0
100
AcDbSymbolTable
 70
     2
  0
LAYER
  5
10
330
2
100
AcDbSymbolTableRecord
100
AcDbLayerTableRecord
  2
0
 70
     0
 62
     7
  6
CONTINUOUS
  0
LAYER
  5
40
330
2
100
AcDbSymbolTableRecord
100
AcDbLayerTableRecord
  2
EBENE_1
 70
     0
 62
     7
  6
CONTINUOUS
  0
ENDTAB
  0
TABLE
  2
STYLE
  5
3
330
0
100
AcDbSymbolTable
 70
     1
  0
STYLE
  5
11
330
3
100
AcDbSymbolTableRecord
100
AcDbTextStyleTableRecord
  2
STANDARD
 70
     0
 40
0.0
 41
1.0
 50
0.0
 71
     0
 42
0.2
  3
txt
  4

  0
ENDTAB
  0
TABLE
  2
VIEW
  5
6
330
0
100
AcDbSymbolTable
 70
     0
  0
ENDTAB
  0
TABLE
  2
UCS
  5
7
330
0
100
AcDbSymbolTable
 70
     0
  0
ENDTAB
  0
TABLE
  2
APPID
  5
9
330
0
100
AcDbSymbolTable
 70
     1
  0
APPID
  5
12
330
9
100
AcDbSymbolTableRecord
100
AcDbRegAppTableRecord
  2
ACAD
 70
     0
  0
ENDTAB
  0
TABLE
  2
DIMSTYLE
  5
A
330
0
100
AcDbSymbolTable
 70
     1
  0
DIMSTYLE
105
27
330
A
100
AcDbSymbolTableRecord
100
AcDbDimStyleTableRecord
  2
STANDARD
 70
     0
  3

  4

  5

  6

  7

 40
1.0
 41
0.18
 42
0.0625
 43
0.38
 44
0.18
 45
0.0
 46
0.0
 47
0.0
 48
0.0
140
0.18
141
0.09
142
0.0
143
25.4
144
1.0
145
0.0
146
1.0
147
0.09
 71
     0
 72
     0
 73
     1
 74
     1
 75
     0
 76
     0
 77
     0
 78
     0
170
     0
171
     2
172
     0
173
     0
174
     0
175
     0
176
     0
177
     0
178
     0
270
     2
271
     4
272
     4
273
     2
274
     2
340
11
275
     0
280
     0
281
     0
282
     0
283
     1
284
     0
285
     0
286
     0
287
     3
288
     0
  0
ENDTAB
  0
TABLE
  2
BLOCK_RECORD
  5
1
330
0
100
AcDbSymbolTable
 70
     1
  0
BLOCK_RECORD
  5
1F
330
1
100
AcDbSymbolTableRecord
100
AcDbBlockTableRecord
  2
*MODEL_SPACE
  0
BLOCK_RECORD
  5
1B
330
1
100
AcDbSymbolTableRecord
100
AcDbBlockTableRecord
  2
*PAPER_SPACE
  0
ENDTAB
  0
ENDSEC
  0
SECTION
  2
BLOCKS
  0
BLOCK
  5
20
330
1F
100
AcDbEntity
  8
0
100
AcDbBlockBegin
  2
*MODEL_SPACE
 70
     0
 10
0.0
 20
0.0
 30
0.0
  3
*MODEL_SPACE
  1

  0
ENDBLK
  5
21
330
1F
100
AcDbEntity
  8
0
100
AcDbBlockEnd
  0
BLOCK
  5
1C
330
1B
100
AcDbEntity
 67
     1
  8
0
100
AcDbBlockBegin
  2
*PAPER_SPACE
 70
     0
 10
0.0
 20
0.0
 30
0.0
  3
*PAPER_SPACE
  1

  0
ENDBLK
  5
1D
330
1B
100
AcDbEntity
 67
     1
  8
0
100
AcDbBlockEnd
  0
ENDSEC
  0
SECTION
  2
ENTITIES
  0
POLYLINE
  5
41
330
1F
100
AcDbEntity
  8
EBENE_1
 62
     7
100
AcDb2dPolyline
 66
     1
 10
0.0
 20
0.0
 30
0.0
  0
VERTEX
  5
42
330
41
100
AcDbEntity
  8
EBENE_1
 62
     7
100
AcDbVertex
100
AcDb2dVertex
 10
82.59999997934983
 20
-53.97999998650435
 30
0.0
  0
VERTEX
  5
43
330
41
100
AcDbEntity
  8
EBENE_1
 62
     7
100
AcDbVertex
100
AcDb2dVertex
 10
81.35624997966072
 20
-53.97999998650435
 30
0.0
  0
VERTEX
  5
44
330
41
100
AcDbEntity
  8
EBENE_1
 62
     7
100
AcDbVertex
100
AcDb2dVertex
 10
80.11249997997159
 20
-53.97999998650435
 30
0.0
  0
VERTEX
  5
45
330
41
100
AcDbEntity
  8
EBENE_1
 62
     7
100
AcDbVertex
100
AcDb2dVertex
 10
78.86874998028279
 20
-53.97999998650435
 30
0.0
  0
VERTEX
  5
46
330
41
100
AcDbEntity
  8
EBENE_1
 62
     7
100
AcDbVertex
100
AcDb2dVertex
 10
77.62499998059367
 20
-53.97999998650435
 30
0.0
  0
VERTEX
  5
47
330
41
100
AcDbEntity
  8
EBENE_1
 62
     7
100
AcDbVertex
100
AcDb2dVertex
 10
76.38124998090456
 20
-53.97999998650435
 30
0.0
  0
VERTEX
  5
48
330
41
100
AcDbEntity
  8
EBENE_1
 62
     7
100
AcDbVertex
100
AcDb2dVertex
 10
75.13749998121575
 20
-53.97999998650435
 30
0.0
  0
VERTEX
  5
49
330
41
100
AcDbEntity
  8
EBENE_1
 62
     7
100
AcDbVertex
100
AcDb2dVertex
 10
73.89374998152662
 20
-53.97999998650435
 30
0.0
  0
VERTEX
  5
4A
330
41
100
AcDbEntity
  8
EBENE_1
 62
     7
100
AcDbVertex
100
AcDb2dVertex
 10
72.64999998183751
 20
-53.97999998650435
 30
0.0
  0
VERTEX
  5
4B
330
41
100
AcDbEntity
  8
EBENE_1
 62
     7
100
AcDbVertex
100
AcDb2dVertex
 10
71.40624998214838
 20
-53.97999998650435
 30
0.0
  0
VERTEX
  5
4C
330
41
100
AcDbEntity
  8
EBENE_1
 62
     7
100
AcDbVertex
100
AcDb2dVertex
 10
70.16249998245927
 20
-53.97999998650435
 30
0.0
  0
VERTEX
  5
4D
330
41
100
AcDbEntity
  8
EBENE_1
 62
     7
100
AcDbVertex
100
AcDb2dVertex
 10
68.91874998277015
 20
-53.97999998650435
 30
0.0
  0
VERTEX
  5
4E
330
41
100
AcDbEntity
  8
EBENE_1
 62
     7
100
AcDbVertex
100
AcDb2dVertex
 10
67.67499998308102
 20
-53.97999998650435
 30
0.0
  0
VERTEX
  5
4F
330
41
100
AcDbEntity
  8
EBENE_1
 62
     7
100
AcDbVertex
100
AcDb2dVertex
 10
66.43124998339191
 20
-53.97999998650435
 30
0.0
  0
VERTEX
  5
50
330
41
100
AcDbEntity
  8
EBENE_1
 62
     7
100
AcDbVertex
100
AcDb2dVertex
 10
65.18749998370278
 20
-53.97999998650435
 30
0.0
  0
VERTEX
  5
51
330
41
100
AcDbEntity
  8
EBENE_1
 62
     7
100
AcDbVertex
100
AcDb2dVertex
 10
63.94374998401398
 20
-53.97999998650435
 30
0.0
  0
VERTEX
  5
52
330
41
100
AcDbEntity
  8
EBENE_1
 62
     7
100
AcDbVertex
100
AcDb2dVertex
 10
62.69999998432486
 20
-53.97999998650435
 30
0.0
  0
VERTEX
  5
53
330
41
100
AcDbEntity
  8
EBENE_1
 62
     7
100
AcDbVertex
100
AcDb2dVertex
 10
61.45624998463574
 20
-53.97999998650435
 30
0.0
  0
VERTEX
  5
54
330
41
100
AcDbEntity
  8
EBENE_1
 62
     7
100
AcDbVertex
100
AcDb2dVertex
 10
60.21249998494694
 20
-53.97999998650435
 30
0.0
  0
VERTEX
  5
55
330
41
100
AcDbEntity
  8
EBENE_1
 62
     7
100
AcDbVertex
100
AcDb2dVertex
 10
58.96874998525782
 20
-53.97999998650435
 30
0.0
  0
VERTEX
  5
56
330
41
100
AcDbEntity
  8
EBENE_1
 62
     7
100
AcDbVertex
100
AcDb2dVertex
 10
57.7249999855687
 20
-53.97999998650435
 30
0.0
  0
VERTEX
  5
57
330
41
100
AcDbEntity
  8
EBENE_1
 62
     7
100
AcDbVertex
100
AcDb2dVertex
 10
56.48124998587958
 20
-53.97999998650435
 30
0.0
  0
VERTEX
  5
58
330
41
100
AcDbEntity
  8
EBENE_1
 62
     7
100
AcDbVertex
100
AcDb2dVertex
 10
55.23749998619046
 20
-53.97999998650435
 30
0.0
  0
VERTEX
  5
59
330
41
100
AcDbEntity
  8
EBENE_1
 62
     7
100
AcDbVertex
100
AcDb2dVertex
 10
53.99374998650134
 20
-53.97999998650435
 30
0.0
  0
VERTEX
  5
5A
330
41
100
AcDbEntity
  8
EBENE_1
 62
     7
100
AcDbVertex
100
AcDb2dVertex
 10
52.74999998681222
 20
-53.97999998650435
 30
0.0
  0
VERTEX
  5
5B
330
41
100
AcDbEntity
  8
EBENE_1
 62
     7
100
AcDbVertex
100
AcDb2dVertex
 10
51.5062499871231
 20
-53.97999998650435
 30
0.0
  0
VERTEX
  5
5C
330
41
100
AcDbEntity
  8
EBENE_1
 62
     7
100
AcDbVertex
100
AcDb2dVertex
 10
50.26249998743398
 20
-53.97999998650435
 30
0.0
  0
VERTEX
  5
5D
330
41
100
AcDbEntity
  8
EBENE_1
 62
     7
100
AcDbVertex
100
AcDb2dVertex
 10
49.01874998774518
 20
-53.97999998650435
 30
0.0
  0
VERTEX
  5
5E
330
41
100
AcDbEntity
  8
EBENE_1
 62
     7
100
AcDbVertex
100
AcDb2dVertex
 10
47.77499998805606
 20
-53.97999998650435
 30
0.0
  0
VERTEX
  5
5F
330
41
100
AcDbEntity
  8
EBENE_1
 62
     7
100
AcDbVertex
100
AcDb2dVertex
 10
46.53124998836694
 20
-53.97999998650435
 30
0.0
  0
VERTEX
  5
60
330
41
100
AcDbEntity
  8
EBENE_1
 62
     7
100
AcDbVertex
100
AcDb2dVertex
 10
45.28749998867814
 20
-53.97999998650435
 30
0.0
  0
VERTEX
  5
61
330
41
100
AcDbEntity
  8
EBENE_1
 62
     7
100
AcDbVertex
100
AcDb2dVertex
 10
44.04374998898901
 20
-53.97999998650435
 30
0.0
  0
VERTEX
  5
62
330
41
100
AcDbEntity
  8
EBENE_1
 62
     7
100
AcDbVertex
100
AcDb2dVertex
 10
42.7999999892999
 20
-53.97999998650435
 30
0.0
  0
VERTEX
  5
63
330
41
100
AcDbEntity
  8
EBENE_1
 62
     7
100
AcDbVertex
100
AcDb2dVertex
 10
41.55624998961078
 20
-53.97999998650435
 30
0.0
  0
VERTEX
  5
64
330
41
100
AcDbEntity
  8
EBENE_1
 62
     7
100
AcDbVertex
100
AcDb2dVertex
 10
40.31249998992165
 20
-53.97999998650435
 30
0.0
  0
VERTEX
  5
65
330
41
100
AcDbEntity
  8
EBENE_1
 62
     7
100
AcDbVertex
100
AcDb2dVertex
 10
39.06874999023285
 20
-53.97999998650435
 30
0.0
  0
VERTEX
  5
66
330
41
100
AcDbEntity
  8
EBENE_1
 62
     7
100
AcDbVertex
100
AcDb2dVertex
 10
37.82499999054373
 20
-53.97999998650435
 30
0.0
  0
VERTEX
  5
67
330
41
100
AcDbEntity
  8
EBENE_1
 62
     7
100
AcDbVertex
100
AcDb2dVertex
 10
36.58124999085462
 20
-53.97999998650435
 30
0.0
  0
VERTEX
  5
68
330
41
100
AcDbEntity
  8
EBENE_1
 62
     7
100
AcDbVertex
100
AcDb2dVertex
 10
35.33749999116581
 20
-53.97999998650435
 30
0.0
  0
VERTEX
  5
69
330
41
100
AcDbEntity
  8
EBENE_1
 62
     7
100
AcDbVertex
100
AcDb2dVertex
 10
34.09374999147669
 20
-53.97999998650435
 30
0.0
  0
VERTEX
  5
6A
330
41
100
AcDbEntity
  8
EBENE_1
 62
     7
100
AcDbVertex
100
AcDb2dVertex
 10
32.84999999178757
 20
-53.97999998650435
 30
0.0
  0
VERTEX
  5
6B
330
41
100
AcDbEntity
  8
EBENE_1
 62
     7
100
AcDbVertex
100
AcDb2dVertex
 10
31.60624999209845
 20
-53.97999998650435
 30
0.0
  0
VERTEX
  5
6C
330
41
100
AcDbEntity
  8
EBENE_1
 62
     7
100
AcDbVertex
100
AcDb2dVertex
 10
30.36249999240933
 20
-53.97999998650435
 30
0.0
  0
VERTEX
  5
6D
330
41
100
AcDbEntity
  8
EBENE_1
 62
     7
100
AcDbVertex
100
AcDb2dVertex
 10
29.11874999272021
 20
-53.97999998650435
 30
0.0
  0
VERTEX
  5
6E
330
41
100
AcDbEntity
  8
EBENE_1
 62
     7
100
AcDbVertex
100
AcDb2dVertex
 10
27.87499999303109
 20
-53.97999998650435
 30
0.0
  0
VERTEX
  5
6F
330
41
100
AcDbEntity
  8
EBENE_1
 62
     7
100
AcDbVertex
100
AcDb2dVertex
 10
26.63124999334197
 20
-53.97999998650435
 30
0.0
  0
VERTEX
  5
70
330
41
100
AcDbEntity
  8
EBENE_1
 62
     7
100
AcDbVertex
100
AcDb2dVertex
 10
25.38749999365285
 20
-53.97999998650435
 30
0.0
  0
VERTEX
  5
71
330
41
100
AcDbEntity
  8
EBENE_1
 62
     7
100
AcDbVertex
100
AcDb2dVertex
 10
24.14374999396405
 20
-53.97999998650435
 30
0.0
  0
VERTEX
  5
72
330
41
100
AcDbEntity
  8
EBENE_1
 62
     7
100
AcDbVertex
100
AcDb2dVertex
 10
22.89999999427493
 20
-53.97999998650435
 30
0.0
  0
VERTEX
  5
73
330
41
100
AcDbEntity
  8
EBENE_1
 62
     7
100
AcDbVertex
100
AcDb2dVertex
 10
21.65624999458581
 20
-53.97999998650435
 30
0.0
  0
VERTEX
  5
74
330
41
100
AcDbEntity
  8
EBENE_1
 62
     7
100
AcDbVertex
100
AcDb2dVertex
 10
20.41249999489701
 20
-53.97999998650435
 30
0.0
  0
VERTEX
  5
75
330
41
100
AcDbEntity
  8
EBENE_1
 62
     7
100
AcDbVertex
100
AcDb2dVertex
 10
19.16874999520789
 20
-53.97999998650435
 30
0.0
  0
VERTEX
  5
76
330
41
100
AcDbEntity
  8
EBENE_1
 62
     7
100
AcDbVertex
100
AcDb2dVertex
 10
17.92499999551877
 20
-53.97999998650435
 30
0.0
  0
VERTEX
  5
77
330
41
100
AcDbEntity
  8
EBENE_1
 62
     7
100
AcDbVertex
100
AcDb2dVertex
 10
16.68124999582965
 20
-53.97999998650435
 30
0.0
  0
VERTEX
  5
78
330
41
100
AcDbEntity
  8
EBENE_1
 62
     7
100
AcDbVertex
100
AcDb2dVertex
 10
15.43749999614053
 20
-53.97999998650435
 30
0.0
  0
VERTEX
  5
79
330
41
100
AcDbEntity
  8
EBENE_1
 62
     7
100
AcDbVertex
100
AcDb2dVertex
 10
14.1937499964514
 20
-53.97999998650435
 30
0.0
  0
VERTEX
  5
7A
330
41
100
AcDbEntity
  8
EBENE_1
 62
     7
100
AcDbVertex
100
AcDb2dVertex
 10
12.94999999676228
 20
-53.97999998650435
 30
0.0
  0
VERTEX
  5
7B
330
41
100
AcDbEntity
  8
EBENE_1
 62
     7
100
AcDbVertex
100
AcDb2dVertex
 10
11.70624999707316
 20
-53.97999998650435
 30
0.0
  0
VERTEX
  5
7C
330
41
100
AcDbEntity
  8
EBENE_1
 62
     7
100
AcDbVertex
100
AcDb2dVertex
 10
10.46249999738404
 20
-53.97999998650435
 30
0.0
  0
VERTEX
  5
7D
330
41
100
AcDbEntity
  8
EBENE_1
 62
     7
100
AcDbVertex
100
AcDb2dVertex
 10
9.218749997695243
 20
-53.97999998650435
 30
0.0
  0
VERTEX
  5
7E
330
41
100
AcDbEntity
  8
EBENE_1
 62
     7
100
AcDbVertex
100
AcDb2dVertex
 10
7.974999998006122
 20
-53.97999998650435
 30
0.0
  0
VERTEX
  5
7F
330
41
100
AcDbEntity
  8
EBENE_1
 62
     7
100
AcDbVertex
100
AcDb2dVertex
 10
6.731249998317001
 20
-53.97999998650435
 30
0.0
  0
VERTEX
  5
80
330
41
100
AcDbEntity
  8
EBENE_1
 62
     7
100
AcDbVertex
100
AcDb2dVertex
 10
5.487499998628201
 20
-53.97999998650435
 30
0.0
  0
VERTEX
  5
81
330
41
100
AcDbEntity
  8
EBENE_1
 62
     7
100
AcDbVertex
100
AcDb2dVertex
 10
4.24374999893908
 20
-53.97999998650435
 30
0.0
  0
VERTEX
  5
82
330
41
100
AcDbEntity
  8
EBENE_1
 62
     7
100
AcDbVertex
100
AcDb2dVertex
 10
2.99999999924996
 20
-53.97999998650435
 30
0.0
  0
VERTEX
  5
83
330
41
100
AcDbEntity
  8
EBENE_1
 62
     7
100
AcDbVertex
100
AcDb2dVertex
 10
2.922879981263712
 20
-53.97901522240564
 30
0.0
  0
VERTEX
  5
84
330
41
100
AcDbEntity
  8
EBENE_1
 62
     7
100
AcDbVertex
100
AcDb2dVertex
 10
2.846223448995501
 20
-53.97607695183745
 30
0.0
  0
VERTEX
  5
85
330
41
100
AcDbEntity
  8
EBENE_1
 62
     7
100
AcDbVertex
100
AcDb2dVertex
 10
2.770054435037543
 20
-53.97120920739297
 30
0.0
  0
VERTEX
  5
86
330
41
100
AcDbEntity
  8
EBENE_1
 62
     7
100
AcDbVertex
100
AcDb2dVertex
 10
2.694396971982696
 20
-53.96443602166439
 30
0.0
  0
VERTEX
  5
87
330
41
100
AcDbEntity
  8
EBENE_1
 62
     7
100
AcDbVertex
100
AcDb2dVertex
 10
2.61927509242382
 20
-53.95578142724523
 30
0.0
  0
VERTEX
  5
88
330
41
100
AcDbEntity
  8
EBENE_1
 62
     7
100
AcDbVertex
100
AcDb2dVertex
 10
2.544712828953451
 20
-53.94526945672771
 30
0.0
  0
VERTEX
  5
89
330
41
100
AcDbEntity
  8
EBENE_1
 62
     7
100
AcDbVertex
100
AcDb2dVertex
 10
2.470734214164769
 20
-53.93292414270499
 30
0.0
  0
VERTEX
  5
8A
330
41
100
AcDbEntity
  8
EBENE_1
 62
     7
100
AcDbVertex
100
AcDb2dVertex
 10
2.397363280650632
 20
-53.91876951776963
 30
0.0
  0
VERTEX
  5
8B
330
41
100
AcDbEntity
  8
EBENE_1
 62
     7
100
AcDbVertex
100
AcDb2dVertex
 10
2.324624061003256
 20
-53.90282961451415
 30
0.0
  0
VERTEX
  5
8C
330
41
100
AcDbEntity
  8
EBENE_1
 62
     7
100
AcDbVertex
100
AcDb2dVertex
 10
2.252540587815822
 20
-53.88512846553206
 30
0.0
  0
VERTEX
  5
8D
330
41
100
AcDbEntity
  8
EBENE_1
 62
     7
100
AcDbVertex
100
AcDb2dVertex
 10
2.181136893680866
 20
-53.86569010341525
 30
0.0
  0
VERTEX
  5
8E
330
41
100
AcDbEntity
  8
EBENE_1
 62
     7
100
AcDbVertex
100
AcDb2dVertex
 10
2.110437011191247
 20
-53.8445385607569
 30
0.0
  0
VERTEX
  5
8F
330
41
100
AcDbEntity
  8
EBENE_1
 62
     7
100
AcDbVertex
100
AcDb2dVertex
 10
2.040464972939502
 20
-53.82169787014987
 30
0.0
  0
VERTEX
  5
90
330
41
100
AcDbEntity
  8
EBENE_1
 62
     7
100
AcDbVertex
100
AcDb2dVertex
 10
1.971244811518812
 20
-53.7971920641867
 30
0.0
  0
VERTEX
  5
91
330
41
100
AcDbEntity
  8
EBENE_1
 62
     7
100
AcDbVertex
100
AcDb2dVertex
 10
1.902800559521712
 20
-53.77104517546056
 30
0.0
  0
VERTEX
  5
92
330
41
100
AcDbEntity
  8
EBENE_1
 62
     7
100
AcDbVertex
100
AcDb2dVertex
 10
1.835156249541062
 20
-53.74328123656367
 30
0.0
  0
VERTEX
  5
93
330
41
100
AcDbEntity
  8
EBENE_1
 62
     7
100
AcDbVertex
100
AcDb2dVertex
 10
1.768335914169399
 20
-53.71392428008922
 30
0.0
  0
VERTEX
  5
94
330
41
100
AcDbEntity
  8
EBENE_1
 62
     7
100
AcDbVertex
100
AcDb2dVertex
 10
1.702363585999902
 20
-53.68299833862942
 30
0.0
  0
VERTEX
  5
95
330
41
100
AcDbEntity
  8
EBENE_1
 62
     7
100
AcDbVertex
100
AcDb2dVertex
 10
1.63726329762511
 20
-53.65052744477777
 30
0.0
  0
VERTEX
  5
96
330
41
100
AcDbEntity
  8
EBENE_1
 62
     7
100
AcDbVertex
100
AcDb2dVertex
 10
1.573059081637879
 20
-53.61653563112681
 30
0.0
  0
VERTEX
  5
97
330
41
100
AcDbEntity
  8
EBENE_1
 62
     7
100
AcDbVertex
100
AcDb2dVertex
 10
1.509774970630748
 20
-53.58104693026907
 30
0.0
  0
VERTEX
  5
98
330
41
100
AcDbEntity
  8
EBENE_1
 62
     7
100
AcDbVertex
100
AcDb2dVertex
 10
1.447434997196897
 20
-53.54408537479708
 30
0.0
  0
VERTEX
  5
99
330
41
100
AcDbEntity
  8
EBENE_1
 62
     7
100
AcDbVertex
100
AcDb2dVertex
 10
1.386063193928541
 20
-53.50567499730405
 30
0.0
  0
VERTEX
  5
9A
330
41
100
AcDbEntity
  8
EBENE_1
 62
     7
100
AcDbVertex
100
AcDb2dVertex
 10
1.325683593418539
 20
-53.46583983038313
 30
0.0
  0
VERTEX
  5
9B
330
41
100
AcDbEntity
  8
EBENE_1
 62
     7
100
AcDbVertex
100
AcDb2dVertex
 10
1.26632022826007
 20
-53.42460390662654
 30
0.0
  0
VERTEX
  5
9C
330
41
100
AcDbEntity
  8
EBENE_1
 62
     7
100
AcDbVertex
100
AcDb2dVertex
 10
1.207997131045672
 20
-53.38199125862684
 30
0.0
  0
VERTEX
  5
9D
330
41
100
AcDbEntity
  8
EBENE_1
 62
     7
100
AcDbVertex
100
AcDb2dVertex
 10
1.150738334368204
 20
-53.33802591897719
 30
0.0
  0
VERTEX
  5
9E
330
41
100
AcDbEntity
  8
EBENE_1
 62
     7
100
AcDbVertex
100
AcDb2dVertex
 10
1.094567870819881
 20
-53.29273192027045
 30
0.0
  0
VERTEX
  5
9F
330
41
100
AcDbEntity
  8
EBENE_1
 62
     7
100
AcDbVertex
100
AcDb2dVertex
 10
1.039509772994525
 20
-53.24613329509884
 30
0.0
  0
VERTEX
  5
A0
330
41
100
AcDbEntity
  8
EBENE_1
 62
     7
100
AcDbVertex
100
AcDb2dVertex
 10
0.9855880734840313
 20
-53.19825407605553
 30
0.0
  0
VERTEX
  5
A1
330
41
100
AcDbEntity
  8
EBENE_1
 62
     7
100
AcDbVertex
100
AcDb2dVertex
 10
0.9328268048815799
 20
-53.14911829573339
 30
0.0
  0
VERTEX
  5
A2
330
41
100
AcDbEntity
  8
EBENE_1
 62
     7
100
AcDbVertex
100
AcDb2dVertex
 10
0.8812499997797077
 20
-53.09874998672495
 30
0.0
  0
VERTEX
  5
A3
330
41
100
AcDbEntity
  8
EBENE_1
 62
     7
100
AcDbVertex
100
AcDb2dVertex
 10
0.8308816907712734
 20
-53.04717318162309
 30
0.0
  0
VERTEX
  5
A4
330
41
100
AcDbEntity
  8
EBENE_1
 62
     7
100
AcDbVertex
100
AcDb2dVertex
 10
0.7817459104491352
 20
-52.99441191302063
 30
0.0
  0
VERTEX
  5
A5
330
41
100
AcDbEntity
  8
EBENE_1
 62
     7
100
AcDbVertex
100
AcDb2dVertex
 10
0.7338666914058307
 20
-52.94049021351014
 30
0.0
  0
VERTEX
  5
A6
330
41
100
AcDbEntity
  8
EBENE_1
 62
     7
100
AcDbVertex
100
AcDb2dVertex
 10
0.6872680662345392
 20
-52.88543211568447
 30
0.0
  0
VERTEX
  5
A7
330
41
100
AcDbEntity
  8
EBENE_1
 62
     7
100
AcDbVertex
100
AcDb2dVertex
 10
0.6419740675274771
 20
-52.82926165213646
 30
0.0
  0
VERTEX
  5
A8
330
41
100
AcDbEntity
  8
EBENE_1
 62
     7
100
AcDbVertex
100
AcDb2dVertex
 10
0.5980087278778239
 20
-52.77200285545899
 30
0.0
  0
VERTEX
  5
A9
330
41
100
AcDbEntity
  8
EBENE_1
 62
     7
100
AcDbVertex
100
AcDb2dVertex
 10
0.5553960798784379
 20
-52.7136797582446
 30
0.0
  0
VERTEX
  5
AA
330
41
100
AcDbEntity
  8
EBENE_1
 62
     7
100
AcDbVertex
100
AcDb2dVertex
 10
0.5141601561215358
 20
-52.65431639308613
 30
0.0
  0
VERTEX
  5
AB
330
41
100
AcDbEntity
  8
EBENE_1
 62
     7
100
AcDbVertex
100
AcDb2dVertex
 10
0.4743249892002968
 20
-52.59393679257644
 30
0.0
  0
VERTEX
  5
AC
330
41
100
AcDbEntity
  8
EBENE_1
 62
     7
100
AcDbVertex
100
AcDb2dVertex
 10
0.4359146117075792
 20
-52.53256498930809
 30
0.0
  0
VERTEX
  5
AD
330
41
100
AcDbEntity
  8
EBENE_1
 62
     7
100
AcDbVertex
100
AcDb2dVertex
 10
0.3989530562355998
 20
-52.47022501587391
 30
0.0
  0
VERTEX
  5
AE
330
41
100
AcDbEntity
  8
EBENE_1
 62
     7
100
AcDbVertex
100
AcDb2dVertex
 10
0.3634643553778586
 20
-52.40694090486679
 30
0.0
  0
VERTEX
  5
AF
330
41
100
AcDbEntity
  8
EBENE_1
 62
     7
100
AcDbVertex
100
AcDb2dVertex
 10
0.3294725417265724
 20
-52.34273668887923
 30
0.0
  0
VERTEX
  5
B0
330
41
100
AcDbEntity
  8
EBENE_1
 62
     7
100
AcDbVertex
100
AcDb2dVertex
 10
0.2970016478749203
 20
-52.27763640050444
 30
0.0
  0
VERTEX
  5
B1
330
41
100
AcDbEntity
  8
EBENE_1
 62
     7
100
AcDbVertex
100
AcDb2dVertex
 10
0.2660757064151191
 20
-52.21166407233495
 30
0.0
  0
VERTEX
  5
B2
330
41
100
AcDbEntity
  8
EBENE_1
 62
     7
100
AcDbVertex
100
AcDb2dVertex
 10
0.2367187499406687
 20
-52.1448437369636
 30
0.0
  0
VERTEX
  5
B3
330
41
100
AcDbEntity
  8
EBENE_1
 62
     7
100
AcDbVertex
100
AcDb2dVertex
 10
0.208954811043786
 20
-52.07719942698295
 30
0.0
  0
VERTEX
  5
B4
330
41
100
AcDbEntity
  8
EBENE_1
 62
     7
100
AcDbVertex
100
AcDb2dVertex
 10
0.18280792231765
 20
-52.00875517498585
 30
0.0
  0
VERTEX
  5
B5
330
41
100
AcDbEntity
  8
EBENE_1
 62
     7
100
AcDbVertex
100
AcDb2dVertex
 10
0.1583021163544776
 20
-51.93953501356516
 30
0.0
  0
VERTEX
  5
B6
330
41
100
AcDbEntity
  8
EBENE_1
 62
     7
100
AcDbVertex
100
AcDb2dVertex
 10
0.1354614257474478
 20
-51.86956297531374
 30
0.0
  0
VERTEX
  5
B7
330
41
100
AcDbEntity
  8
EBENE_1
 62
     7
100
AcDbVertex
100
AcDb2dVertex
 10
0.1143098830890983
 20
-51.7988630928238
 30
0.0
  0
VERTEX
  5
B8
330
41
100
AcDbEntity
  8
EBENE_1
 62
     7
100
AcDbVertex
100
AcDb2dVertex
 10
0.0948715209722874
 20
-51.72745939868884
 30
0.0
  0
VERTEX
  5
B9
330
41
100
AcDbEntity
  8
EBENE_1
 62
     7
100
AcDbVertex
100
AcDb2dVertex
 10
0.0771703719901944
 20
-51.65537592550141
 30
0.0
  0
VERTEX
  5
BA
330
41
100
AcDbEntity
  8
EBENE_1
 62
     7
100
AcDbVertex
100
AcDb2dVertex
 10
0.0612304687347151
 20
-51.58263670585404
 30
0.0
  0
VERTEX
  5
BB
330
41
100
AcDbEntity
  8
EBENE_1
 62
     7
100
AcDbVertex
100
AcDb2dVertex
 10
0.0470758437993496
 20
-51.50926577233957
 30
0.0
  0
VERTEX
  5
BC
330
41
100
AcDbEntity
  8
EBENE_1
 62
     7
100
AcDbVertex
100
AcDb2dVertex
 10
0.0347305297766353
 20
-51.4352871575509
 30
0.0
  0
VERTEX
  5
BD
330
41
100
AcDbEntity
  8
EBENE_1
 62
     7
100
AcDbVertex
100
AcDb2dVertex
 10
0.0242185592591099
 20
-51.36072489408085
 30
0.0
  0
VERTEX
  5
BE
330
41
100
AcDbEntity
  8
EBENE_1
 62
     7
100
AcDbVertex
100
AcDb2dVertex
 10
0.0155639648399525
 20
-51.28560301452197
 30
0.0
  0
VERTEX
  5
BF
330
41
100
AcDbEntity
  8
EBENE_1
 62
     7
100
AcDbVertex
100
AcDb2dVertex
 10
0.0087907791113798
 20
-51.20994555146712
 30
0.0
  0
VERTEX
  5
C0
330
41
100
AcDbEntity
  8
EBENE_1
 62
     7
100
AcDbVertex
100
AcDb2dVertex
 10
0.003923034666892
 20
-51.13377653750916
 30
0.0
  0
VERTEX
  5
C1
330
41
100
AcDbEntity
  8
EBENE_1
 62
     7
100
AcDbVertex
100
AcDb2dVertex
 10
0.0009847640987056
 20
-51.05712000524063
 30
0.0
  0
VERTEX
  5
C2
330
41
100
AcDbEntity
  8
EBENE_1
 62
     7
100
AcDbVertex
100
AcDb2dVertex
 10
0.0
 20
-50.97999998725438
 30
0.0
  0
VERTEX
  5
C3
330
41
100
AcDbEntity
  8
EBENE_1
 62
     7
100
AcDbVertex
100
AcDb2dVertex
 10
0.0
 20
-50.23031248744194
 30
0.0
  0
VERTEX
  5
C4
330
41
100
AcDbEntity
  8
EBENE_1
 62
     7
100
AcDbVertex
100
AcDb2dVertex
 10
0.0
 20
-49.48062498762916
 30
0.0
  0
VERTEX
  5
C5
330
41
100
AcDbEntity
  8
EBENE_1
 62
     7
100
AcDbVertex
100
AcDb2dVertex
 10
0.0
 20
-48.7309374878164
 30
0.0
  0
VERTEX
  5
C6
330
41
100
AcDbEntity
  8
EBENE_1
 62
     7
100
AcDbVertex
100
AcDb2dVertex
 10
0.0
 20
-47.98124998800395
 30
0.0
  0
VERTEX
  5
C7
330
41
100
AcDbEntity
  8
EBENE_1
 62
     7
100
AcDbVertex
100
AcDb2dVertex
 10
0.0
 20
-47.2315624881915
 30
0.0
  0
VERTEX
  5
C8
330
41
100
AcDbEntity
  8
EBENE_1
 62
     7
100
AcDbVertex
100
AcDb2dVertex
 10
0.0
 20
-46.48187498837905
 30
0.0
  0
VERTEX
  5
C9
330
41
100
AcDbEntity
  8
EBENE_1
 62
     7
100
AcDbVertex
100
AcDb2dVertex
 10
0.0
 20
-45.7321874885666
 30
0.0
  0
VERTEX
  5
CA
330
41
100
AcDbEntity
  8
EBENE_1
 62
     7
100
AcDbVertex
100
AcDb2dVertex
 10
0.0
 20
-44.98249998875383
 30
0.0
  0
VERTEX
  5
CB
330
41
100
AcDbEntity
  8
EBENE_1
 62
     7
100
AcDbVertex
100
AcDb2dVertex
 10
0.0
 20
-44.23281248894106
 30
0.0
  0
VERTEX
  5
CC
330
41
100
AcDbEntity
  8
EBENE_1
 62
     7
100
AcDbVertex
100
AcDb2dVertex
 10
0.0
 20
-43.48312498912861
 30
0.0
  0
VERTEX
  5
CD
330
41
100
AcDbEntity
  8
EBENE_1
 62
     7
100
AcDbVertex
100
AcDb2dVertex
 10
0.0
 20
-42.73343748931617
 30
0.0
  0
VERTEX
  5
CE
330
41
100
AcDbEntity
  8
EBENE_1
 62
     7
100
AcDbVertex
100
AcDb2dVertex
 10
0.0
 20
-41.98374998950371
 30
0.0
  0
VERTEX
  5
CF
330
41
100
AcDbEntity
  8
EBENE_1
 62
     7
100
AcDbVertex
100
AcDb2dVertex
 10
0.0
 20
-41.23406248969127
 30
0.0
  0
VERTEX
  5
D0
330
41
100
AcDbEntity
  8
EBENE_1
 62
     7
100
AcDbVertex
100
AcDb2dVertex
 10
0.0
 20
-40.4843749898785
 30
0.0
  0
VERTEX
  5
D1
330
41
100
AcDbEntity
  8
EBENE_1
 62
     7
100
AcDbVertex
100
AcDb2dVertex
 10
0.0
 20
-39.73468749006572
 30
0.0
  0
VERTEX
  5
D2
330
41
100
AcDbEntity
  8
EBENE_1
 62
     7
100
AcDbVertex
100
AcDb2dVertex
 10
0.0
 20
-38.98499999025328
 30
0.0
  0
VERTEX
  5
D3
330
41
100
AcDbEntity
  8
EBENE_1
 62
     7
100
AcDbVertex
100
AcDb2dVertex
 10
0.0
 20
-38.23531249044083
 30
0.0
  0
VERTEX
  5
D4
330
41
100
AcDbEntity
  8
EBENE_1
 62
     7
100
AcDbVertex
100
AcDb2dVertex
 10
0.0
 20
-37.48562499062806
 30
0.0
  0
VERTEX
  5
D5
330
41
100
AcDbEntity
  8
EBENE_1
 62
     7
100
AcDbVertex
100
AcDb2dVertex
 10
0.0
 20
-36.73593749081529
 30
0.0
  0
VERTEX
  5
D6
330
41
100
AcDbEntity
  8
EBENE_1
 62
     7
100
AcDbVertex
100
AcDb2dVertex
 10
0.0
 20
-35.98624999100284
 30
0.0
  0
VERTEX
  5
D7
330
41
100
AcDbEntity
  8
EBENE_1
 62
     7
100
AcDbVertex
100
AcDb2dVertex
 10
0.0
 20
-35.23656249119039
 30
0.0
  0
VERTEX
  5
D8
330
41
100
AcDbEntity
  8
EBENE_1
 62
     7
100
AcDbVertex
100
AcDb2dVertex
 10
0.0
 20
-34.48687499137795
 30
0.0
  0
VERTEX
  5
D9
330
41
100
AcDbEntity
  8
EBENE_1
 62
     7
100
AcDbVertex
100
AcDb2dVertex
 10
0.0
 20
-33.73718749156549
 30
0.0
  0
VERTEX
  5
DA
330
41
100
AcDbEntity
  8
EBENE_1
 62
     7
100
AcDbVertex
100
AcDb2dVertex
 10
0.0
 20
-32.98749999175273
 30
0.0
  0
VERTEX
  5
DB
330
41
100
AcDbEntity
  8
EBENE_1
 62
     7
100
AcDbVertex
100
AcDb2dVertex
 10
0.0
 20
-32.23781249193996
 30
0.0
  0
VERTEX
  5
DC
330
41
100
AcDbEntity
  8
EBENE_1
 62
     7
100
AcDbVertex
100
AcDb2dVertex
 10
0.0
 20
-31.48812499212751
 30
0.0
  0
VERTEX
  5
DD
330
41
100
AcDbEntity
  8
EBENE_1
 62
     7
100
AcDbVertex
100
AcDb2dVertex
 10
0.0
 20
-30.73843749231506
 30
0.0
  0
VERTEX
  5
DE
330
41
100
AcDbEntity
  8
EBENE_1
 62
     7
100
AcDbVertex
100
AcDb2dVertex
 10
0.0
 20
-29.98874999250261
 30
0.0
  0
VERTEX
  5
DF
330
41
100
AcDbEntity
  8
EBENE_1
 62
     7
100
AcDbVertex
100
AcDb2dVertex
 10
0.0
 20
-29.23906249269016
 30
0.0
  0
VERTEX
  5
E0
330
41
100
AcDbEntity
  8
EBENE_1
 62
     7
100
AcDbVertex
100
AcDb2dVertex
 10
0.0
 20
-28.48937499287739
 30
0.0
  0
VERTEX
  5
E1
330
41
100
AcDbEntity
  8
EBENE_1
 62
     7
100
AcDbVertex
100
AcDb2dVertex
 10
0.0
 20
-27.73968749306462
 30
0.0
  0
VERTEX
  5
E2
330
41
100
AcDbEntity
  8
EBENE_1
 62
     7
100
AcDbVertex
100
AcDb2dVertex
 10
0.0
 20
-26.98999999325217
 30
0.0
  0
VERTEX
  5
E3
330
41
100
AcDbEntity
  8
EBENE_1
 62
     7
100
AcDbVertex
100
AcDb2dVertex
 10
0.0
 20
-26.24031249343972
 30
0.0
  0
VERTEX
  5
E4
330
41
100
AcDbEntity
  8
EBENE_1
 62
     7
100
AcDbVertex
100
AcDb2dVertex
 10
0.0
 20
-25.49062499362695
 30
0.0
  0
VERTEX
  5
E5
330
41
100
AcDbEntity
  8
EBENE_1
 62
     7
100
AcDbVertex
100
AcDb2dVertex
 10
0.0
 20
-24.74093749381418
 30
0.0
  0
VERTEX
  5
E6
330
41
100
AcDbEntity
  8
EBENE_1
 62
     7
100
AcDbVertex
100
AcDb2dVertex
 10
0.0
 20
-23.99124999400173
 30
0.0
  0
VERTEX
  5
E7
330
41
100
AcDbEntity
  8
EBENE_1
 62
     7
100
AcDbVertex
100
AcDb2dVertex
 10
0.0
 20
-23.24156249418929
 30
0.0
  0
VERTEX
  5
E8
330
41
100
AcDbEntity
  8
EBENE_1
 62
     7
100
AcDbVertex
100
AcDb2dVertex
 10
0.0
 20
-22.49187499437684
 30
0.0
  0
VERTEX
  5
E9
330
41
100
AcDbEntity
  8
EBENE_1
 62
     7
100
AcDbVertex
100
AcDb2dVertex
 10
0.0
 20
-21.74218749456439
 30
0.0
  0
VERTEX
  5
EA
330
41
100
AcDbEntity
  8
EBENE_1
 62
     7
100
AcDbVertex
100
AcDb2dVertex
 10
0.0
 20
-20.99249999475162
 30
0.0
  0
VERTEX
  5
EB
330
41
100
AcDbEntity
  8
EBENE_1
 62
     7
100
AcDbVertex
100
AcDb2dVertex
 10
0.0
 20
-20.24281249493885
 30
0.0
  0
VERTEX
  5
EC
330
41
100
AcDbEntity
  8
EBENE_1
 62
     7
100
AcDbVertex
100
AcDb2dVertex
 10
0.0
 20
-19.4931249951264
 30
0.0
  0
VERTEX
  5
ED
330
41
100
AcDbEntity
  8
EBENE_1
 62
     7
100
AcDbVertex
100
AcDb2dVertex
 10
0.0
 20
-18.74343749531395
 30
0.0
  0
VERTEX
  5
EE
330
41
100
AcDbEntity
  8
EBENE_1
 62
     7
100
AcDbVertex
100
AcDb2dVertex
 10
0.0
 20
-17.9937499955015
 30
0.0
  0
VERTEX
  5
EF
330
41
100
AcDbEntity
  8
EBENE_1
 62
     7
100
AcDbVertex
100
AcDb2dVertex
 10
0.0
 20
-17.24406249568905
 30
0.0
  0
VERTEX
  5
F0
330
41
100
AcDbEntity
  8
EBENE_1
 62
     7
100
AcDbVertex
100
AcDb2dVertex
 10
0.0
 20
-16.49437499587629
 30
0.0
  0
VERTEX
  5
F1
330
41
100
AcDbEntity
  8
EBENE_1
 62
     7
100
AcDbVertex
100
AcDb2dVertex
 10
0.0
 20
-15.74468749606351
 30
0.0
  0
VERTEX
  5
F2
330
41
100
AcDbEntity
  8
EBENE_1
 62
     7
100
AcDbVertex
100
AcDb2dVertex
 10
0.0
 20
-14.99499999625107
 30
0.0
  0
VERTEX
  5
F3
330
41
100
AcDbEntity
  8
EBENE_1
 62
     7
100
AcDbVertex
100
AcDb2dVertex
 10
0.0
 20
-14.24531249643862
 30
0.0
  0
VERTEX
  5
F4
330
41
100
AcDbEntity
  8
EBENE_1
 62
     7
100
AcDbVertex
100
AcDb2dVertex
 10
0.0
 20
-13.49562499662585
 30
0.0
  0
VERTEX
  5
F5
330
41
100
AcDbEntity
  8
EBENE_1
 62
     7
100
AcDbVertex
100
AcDb2dVertex
 10
0.0
 20
-12.74593749681308
 30
0.0
  0
VERTEX
  5
F6
330
41
100
AcDbEntity
  8
EBENE_1
 62
     7
100
AcDbVertex
100
AcDb2dVertex
 10
0.0
 20
-11.99624999700063
 30
0.0
  0
VERTEX
  5
F7
330
41
100
AcDbEntity
  8
EBENE_1
 62
     7
100
AcDbVertex
100
AcDb2dVertex
 10
0.0
 20
-11.24656249718818
 30
0.0
  0
VERTEX
  5
F8
330
41
100
AcDbEntity
  8
EBENE_1
 62
     7
100
AcDbVertex
100
AcDb2dVertex
 10
0.0
 20
-10.49687499737573
 30
0.0
  0
VERTEX
  5
F9
330
41
100
AcDbEntity
  8
EBENE_1
 62
     7
100
AcDbVertex
100
AcDb2dVertex
 10
0.0
 20
-9.747187497563282
 30
0.0
  0
VERTEX
  5
FA
330
41
100
AcDbEntity
  8
EBENE_1
 62
     7
100
AcDbVertex
100
AcDb2dVertex
 10
0.0
 20
-8.997499997750513
 30
0.0
  0
VERTEX
  5
FB
330
41
100
AcDbEntity
  8
EBENE_1
 62
     7
100
AcDbVertex
100
AcDb2dVertex
 10
0.0
 20
-8.247812497937742
 30
0.0
  0
VERTEX
  5
FC
330
41
100
AcDbEntity
  8
EBENE_1
 62
     7
100
AcDbVertex
100
AcDb2dVertex
 10
0.0
 20
-7.498124998125294
 30
0.0
  0
VERTEX
  5
FD
330
41
100
AcDbEntity
  8
EBENE_1
 62
     7
100
AcDbVertex
100
AcDb2dVertex
 10
0.0
 20
-6.748437498312845
 30
0.0
  0
VERTEX
  5
FE
330
41
100
AcDbEntity
  8
EBENE_1
 62
     7
100
AcDbVertex
100
AcDb2dVertex
 10
0.0
 20
-5.998749998500396
 30
0.0
  0
VERTEX
  5
FF
330
41
100
AcDbEntity
  8
EBENE_1
 62
     7
100
AcDbVertex
100
AcDb2dVertex
 10
0.0
 20
-5.249062498687948
 30
0.0
  0
VERTEX
  5
100
330
41
100
AcDbEntity
  8
EBENE_1
 62
     7
100
AcDbVertex
100
AcDb2dVertex
 10
0.0
 20
-4.499374998875179
 30
0.0
  0
VERTEX
  5
101
330
41
100
AcDbEntity
  8
EBENE_1
 62
     7
100
AcDbVertex
100
AcDb2dVertex
 10
0.0
 20
-3.749687499062409
 30
0.0
  0
VERTEX
  5
102
330
41
100
AcDbEntity
  8
EBENE_1
 62
     7
100
AcDbVertex
100
AcDb2dVertex
 10
0.0
 20
-2.99999999924996
 30
0.0
  0
VERTEX
  5
103
330
41
100
AcDbEntity
  8
EBENE_1
 62
     7
100
AcDbVertex
100
AcDb2dVertex
 10
0.0009847640987056
 20
-2.922879981263712
 30
0.0
  0
VERTEX
  5
104
330
41
100
AcDbEntity
  8
EBENE_1
 62
     7
100
AcDbVertex
100
AcDb2dVertex
 10
0.003923034666892
 20
-2.84622344899518
 30
0.0
  0
VERTEX
  5
105
330
41
100
AcDbEntity
  8
EBENE_1
 62
     7
100
AcDbVertex
100
AcDb2dVertex
 10
0.0087907791113798
 20
-2.770054435037222
 30
0.0
  0
VERTEX
  5
106
330
41
100
AcDbEntity
  8
EBENE_1
 62
     7
100
AcDbVertex
100
AcDb2dVertex
 10
0.0155639648399525
 20
-2.694396971982376
 30
0.0
  0
VERTEX
  5
107
330
41
100
AcDbEntity
  8
EBENE_1
 62
     7
100
AcDbVertex
100
AcDb2dVertex
 10
0.0242185592591099
 20
-2.619275092423499
 30
0.0
  0
VERTEX
  5
108
330
41
100
AcDbEntity
  8
EBENE_1
 62
     7
100
AcDbVertex
100
AcDb2dVertex
 10
0.0347305297766353
 20
-2.544712828953451
 30
0.0
  0
VERTEX
  5
109
330
41
100
AcDbEntity
  8
EBENE_1
 62
     7
100
AcDbVertex
100
AcDb2dVertex
 10
0.0470758437993496
 20
-2.470734214164769
 30
0.0
  0
VERTEX
  5
10A
330
41
100
AcDbEntity
  8
EBENE_1
 62
     7
100
AcDbVertex
100
AcDb2dVertex
 10
0.0612304687347151
 20
-2.39736328065031
 30
0.0
  0
VERTEX
  5
10B
330
41
100
AcDbEntity
  8
EBENE_1
 62
     7
100
AcDbVertex
100
AcDb2dVertex
 10
0.0771703719901944
 20
-2.324624061002935
 30
0.0
  0
VERTEX
  5
10C
330
41
100
AcDbEntity
  8
EBENE_1
 62
     7
100
AcDbVertex
100
AcDb2dVertex
 10
0.0948715209722874
 20
-2.252540587815501
 30
0.0
  0
VERTEX
  5
10D
330
41
100
AcDbEntity
  8
EBENE_1
 62
     7
100
AcDbVertex
100
AcDb2dVertex
 10
0.1143098830890983
 20
-2.181136893680545
 30
0.0
  0
VERTEX
  5
10E
330
41
100
AcDbEntity
  8
EBENE_1
 62
     7
100
AcDbVertex
100
AcDb2dVertex
 10
0.1354614257474478
 20
-2.110437011190605
 30
0.0
  0
VERTEX
  5
10F
330
41
100
AcDbEntity
  8
EBENE_1
 62
     7
100
AcDbVertex
100
AcDb2dVertex
 10
0.1583021163544776
 20
-2.040464972939182
 30
0.0
  0
VERTEX
  5
110
330
41
100
AcDbEntity
  8
EBENE_1
 62
     7
100
AcDbVertex
100
AcDb2dVertex
 10
0.18280792231765
 20
-1.971244811518491
 30
0.0
  0
VERTEX
  5
111
330
41
100
AcDbEntity
  8
EBENE_1
 62
     7
100
AcDbVertex
100
AcDb2dVertex
 10
0.208954811043786
 20
-1.902800559521391
 30
0.0
  0
VERTEX
  5
112
330
41
100
AcDbEntity
  8
EBENE_1
 62
     7
100
AcDbVertex
100
AcDb2dVertex
 10
0.2367187499406687
 20
-1.835156249540741
 30
0.0
  0
VERTEX
  5
113
330
41
100
AcDbEntity
  8
EBENE_1
 62
     7
100
AcDbVertex
100
AcDb2dVertex
 10
0.2660757064151191
 20
-1.768335914169399
 30
0.0
  0
VERTEX
  5
114
330
41
100
AcDbEntity
  8
EBENE_1
 62
     7
100
AcDbVertex
100
AcDb2dVertex
 10
0.2970016478749203
 20
-1.702363585999902
 30
0.0
  0
VERTEX
  5
115
330
41
100
AcDbEntity
  8
EBENE_1
 62
     7
100
AcDbVertex
100
AcDb2dVertex
 10
0.3294725417265724
 20
-1.63726329762511
 30
0.0
  0
VERTEX
  5
116
330
41
100
AcDbEntity
  8
EBENE_1
 62
     7
100
AcDbVertex
100
AcDb2dVertex
 10
0.3634643553778586
 20
-1.573059081637558
 30
0.0
  0
VERTEX
  5
117
330
41
100
AcDbEntity
  8
EBENE_1
 62
     7
100
AcDbVertex
100
AcDb2dVertex
 10
0.3989530562355998
 20
-1.509774970630428
 30
0.0
  0
VERTEX
  5
118
330
41
100
AcDbEntity
  8
EBENE_1
 62
     7
100
AcDbVertex
100
AcDb2dVertex
 10
0.4359146117075792
 20
-1.447434997196255
 30
0.0
  0
VERTEX
  5
119
330
41
100
AcDbEntity
  8
EBENE_1
 62
     7
100
AcDbVertex
100
AcDb2dVertex
 10
0.4743249892002968
 20
-1.386063193927899
 30
0.0
  0
VERTEX
  5
11A
330
41
100
AcDbEntity
  8
EBENE_1
 62
     7
100
AcDbVertex
100
AcDb2dVertex
 10
0.5141601561215358
 20
-1.325683593418218
 30
0.0
  0
VERTEX
  5
11B
330
41
100
AcDbEntity
  8
EBENE_1
 62
     7
100
AcDbVertex
100
AcDb2dVertex
 10
0.5553960798784379
 20
-1.266320228259749
 30
0.0
  0
VERTEX
  5
11C
330
41
100
AcDbEntity
  8
EBENE_1
 62
     7
100
AcDbVertex
100
AcDb2dVertex
 10
0.5980087278778239
 20
-1.207997131045351
 30
0.0
  0
VERTEX
  5
11D
330
41
100
AcDbEntity
  8
EBENE_1
 62
     7
100
AcDbVertex
100
AcDb2dVertex
 10
0.6419740675274771
 20
-1.150738334367883
 30
0.0
  0
VERTEX
  5
11E
330
41
100
AcDbEntity
  8
EBENE_1
 62
     7
100
AcDbVertex
100
AcDb2dVertex
 10
0.6872680662345392
 20
-1.094567870819881
 30
0.0
  0
VERTEX
  5
11F
330
41
100
AcDbEntity
  8
EBENE_1
 62
     7
100
AcDbVertex
100
AcDb2dVertex
 10
0.7338666914058307
 20
-1.039509772994204
 30
0.0
  0
VERTEX
  5
120
330
41
100
AcDbEntity
  8
EBENE_1
 62
     7
100
AcDbVertex
100
AcDb2dVertex
 10
0.7817459104491352
 20
-0.9855880734837105
 30
0.0
  0
VERTEX
  5
121
330
41
100
AcDbEntity
  8
EBENE_1
 62
     7
100
AcDbVertex
100
AcDb2dVertex
 10
0.8308816907712734
 20
-0.932826804881259
 30
0.0
  0
VERTEX
  5
122
330
41
100
AcDbEntity
  8
EBENE_1
 62
     7
100
AcDbVertex
100
AcDb2dVertex
 10
0.8812499997797077
 20
-0.8812499997793869
 30
0.0
  0
VERTEX
  5
123
330
41
100
AcDbEntity
  8
EBENE_1
 62
     7
100
AcDbVertex
100
AcDb2dVertex
 10
0.9328268048815799
 20
-0.8308816907709525
 30
0.0
  0
VERTEX
  5
124
330
41
100
AcDbEntity
  8
EBENE_1
 62
     7
100
AcDbVertex
100
AcDb2dVertex
 10
0.9855880734840313
 20
-0.7817459104488144
 30
0.0
  0
VERTEX
  5
125
330
41
100
AcDbEntity
  8
EBENE_1
 62
     7
100
AcDbVertex
100
AcDb2dVertex
 10
1.039509772994525
 20
-0.7338666914055099
 30
0.0
  0
VERTEX
  5
126
330
41
100
AcDbEntity
  8
EBENE_1
 62
     7
100
AcDbVertex
100
AcDb2dVertex
 10
1.094567870819881
 20
-0.6872680662338975
 30
0.0
  0
VERTEX
  5
127
330
41
100
AcDbEntity
  8
EBENE_1
 62
     7
100
AcDbVertex
100
AcDb2dVertex
 10
1.150738334368204
 20
-0.6419740675271562
 30
0.0
  0
VERTEX
  5
128
330
41
100
AcDbEntity
  8
EBENE_1
 62
     7
100
AcDbVertex
100
AcDb2dVertex
 10
1.207997131045672
 20
-0.598008727877503
 30
0.0
  0
VERTEX
  5
129
330
41
100
AcDbEntity
  8
EBENE_1
 62
     7
100
AcDbVertex
100
AcDb2dVertex
 10
1.26632022826007
 20
-0.5553960798777962
 30
0.0
  0
VERTEX
  5
12A
330
41
100
AcDbEntity
  8
EBENE_1
 62
     7
100
AcDbVertex
100
AcDb2dVertex
 10
1.325683593418539
 20
-0.5141601561212149
 30
0.0
  0
VERTEX
  5
12B
330
41
100
AcDbEntity
  8
EBENE_1
 62
     7
100
AcDbVertex
100
AcDb2dVertex
 10
1.386063193928541
 20
-0.4743249892002968
 30
0.0
  0
VERTEX
  5
12C
330
41
100
AcDbEntity
  8
EBENE_1
 62
     7
100
AcDbVertex
100
AcDb2dVertex
 10
1.447434997196897
 20
-0.4359146117072584
 30
0.0
  0
VERTEX
  5
12D
330
41
100
AcDbEntity
  8
EBENE_1
 62
     7
100
AcDbVertex
100
AcDb2dVertex
 10
1.509774970630748
 20
-0.3989530562352789
 30
0.0
  0
VERTEX
  5
12E
330
41
100
AcDbEntity
  8
EBENE_1
 62
     7
100
AcDbVertex
100
AcDb2dVertex
 10
1.573059081637879
 20
-0.3634643553775378
 30
0.0
  0
VERTEX
  5
12F
330
41
100
AcDbEntity
  8
EBENE_1
 62
     7
100
AcDbVertex
100
AcDb2dVertex
 10
1.63726329762511
 20
-0.3294725417265724
 30
0.0
  0
VERTEX
  5
130
330
41
100
AcDbEntity
  8
EBENE_1
 62
     7
100
AcDbVertex
100
AcDb2dVertex
 10
1.702363585999902
 20
-0.2970016478749203
 30
0.0
  0
VERTEX
  5
131
330
41
100
AcDbEntity
  8
EBENE_1
 62
     7
100
AcDbVertex
100
AcDb2dVertex
 10
1.768335914169399
 20
-0.2660757064151191
 30
0.0
  0
VERTEX
  5
132
330
41
100
AcDbEntity
  8
EBENE_1
 62
     7
100
AcDbVertex
100
AcDb2dVertex
 10
1.835156249541062
 20
-0.2367187499406687
 30
0.0
  0
VERTEX
  5
133
330
41
100
AcDbEntity
  8
EBENE_1
 62
     7
100
AcDbVertex
100
AcDb2dVertex
 10
1.902800559521712
 20
-0.208954811043786
 30
0.0
  0
VERTEX
  5
134
330
41
100
AcDbEntity
  8
EBENE_1
 62
     7
100
AcDbVertex
100
AcDb2dVertex
 10
1.971244811518812
 20
-0.18280792231765
 30
0.0
  0
VERTEX
  5
135
330
41
100
AcDbEntity
  8
EBENE_1
 62
     7
100
AcDbVertex
100
AcDb2dVertex
 10
2.040464972939502
 20
-0.1583021163544776
 30
0.0
  0
VERTEX
  5
136
330
41
100
AcDbEntity
  8
EBENE_1
 62
     7
100
AcDbVertex
100
AcDb2dVertex
 10
2.110437011191247
 20
-0.1354614257474478
 30
0.0
  0
VERTEX
  5
137
330
41
100
AcDbEntity
  8
EBENE_1
 62
     7
100
AcDbVertex
100
AcDb2dVertex
 10
2.181136893680866
 20
-0.1143098830890983
 30
0.0
  0
VERTEX
  5
138
330
41
100
AcDbEntity
  8
EBENE_1
 62
     7
100
AcDbVertex
100
AcDb2dVertex
 10
2.252540587815822
 20
-0.0948715209722874
 30
0.0
  0
VERTEX
  5
139
330
41
100
AcDbEntity
  8
EBENE_1
 62
     7
100
AcDbVertex
100
AcDb2dVertex
 10
2.324624061003256
 20
-0.0771703719901944
 30
0.0
  0
VERTEX
  5
13A
330
41
100
AcDbEntity
  8
EBENE_1
 62
     7
100
AcDbVertex
100
AcDb2dVertex
 10
2.397363280650632
 20
-0.0612304687347151
 30
0.0
  0
VERTEX
  5
13B
330
41
100
AcDbEntity
  8
EBENE_1
 62
     7
100
AcDbVertex
100
AcDb2dVertex
 10
2.470734214164769
 20
-0.0470758437993496
 30
0.0
  0
VERTEX
  5
13C
330
41
100
AcDbEntity
  8
EBENE_1
 62
     7
100
AcDbVertex
100
AcDb2dVertex
 10
2.544712828953451
 20
-0.0347305297766353
 30
0.0
  0
VERTEX
  5
13D
330
41
100
AcDbEntity
  8
EBENE_1
 62
     7
100
AcDbVertex
100
AcDb2dVertex
 10
2.61927509242382
 20
-0.0242185592591099
 30
0.0
  0
VERTEX
  5
13E
330
41
100
AcDbEntity
  8
EBENE_1
 62
     7
100
AcDbVertex
100
AcDb2dVertex
 10
2.694396971982696
 20
-0.0155639648399525
 30
0.0
  0
VERTEX
  5
13F
330
41
100
AcDbEntity
  8
EBENE_1
 62
     7
100
AcDbVertex
100
AcDb2dVertex
 10
2.770054435037543
 20
-0.0087907791113798
 30
0.0
  0
VERTEX
  5
140
330
41
100
AcDbEntity
  8
EBENE_1
 62
     7
100
AcDbVertex
100
AcDb2dVertex
 10
2.846223448995501
 20
-0.003923034666892
 30
0.0
  0
VERTEX
  5
141
330
41
100
AcDbEntity
  8
EBENE_1
 62
     7
100
AcDbVertex
100
AcDb2dVertex
 10
2.922879981263712
 20
-0.0009847640987056
 30
0.0
  0
VERTEX
  5
142
330
41
100
AcDbEntity
  8
EBENE_1
 62
     7
100
AcDbVertex
100
AcDb2dVertex
 10
2.99999999924996
 20
0.0
 30
0.0
  0
VERTEX
  5
143
330
41
100
AcDbEntity
  8
EBENE_1
 62
     7
100
AcDbVertex
100
AcDb2dVertex
 10
4.24374999893908
 20
0.0
 30
0.0
  0
VERTEX
  5
144
330
41
100
AcDbEntity
  8
EBENE_1
 62
     7
100
AcDbVertex
100
AcDb2dVertex
 10
5.487499998628201
 20
0.0
 30
0.0
  0
VERTEX
  5
145
330
41
100
AcDbEntity
  8
EBENE_1
 62
     7
100
AcDbVertex
100
AcDb2dVertex
 10
6.731249998317001
 20
0.0
 30
0.0
  0
VERTEX
  5
146
330
41
100
AcDbEntity
  8
EBENE_1
 62
     7
100
AcDbVertex
100
AcDb2dVertex
 10
7.974999998006122
 20
0.0
 30
0.0
  0
VERTEX
  5
147
330
41
100
AcDbEntity
  8
EBENE_1
 62
     7
100
AcDbVertex
100
AcDb2dVertex
 10
9.218749997695243
 20
0.0
 30
0.0
  0
VERTEX
  5
148
330
41
100
AcDbEntity
  8
EBENE_1
 62
     7
100
AcDbVertex
100
AcDb2dVertex
 10
10.46249999738404
 20
0.0
 30
0.0
  0
VERTEX
  5
149
330
41
100
AcDbEntity
  8
EBENE_1
 62
     7
100
AcDbVertex
100
AcDb2dVertex
 10
11.70624999707316
 20
0.0
 30
0.0
  0
VERTEX
  5
14A
330
41
100
AcDbEntity
  8
EBENE_1
 62
     7
100
AcDbVertex
100
AcDb2dVertex
 10
12.94999999676228
 20
0.0
 30
0.0
  0
VERTEX
  5
14B
330
41
100
AcDbEntity
  8
EBENE_1
 62
     7
100
AcDbVertex
100
AcDb2dVertex
 10
14.1937499964514
 20
0.0
 30
0.0
  0
VERTEX
  5
14C
330
41
100
AcDbEntity
  8
EBENE_1
 62
     7
100
AcDbVertex
100
AcDb2dVertex
 10
15.43749999614053
 20
0.0
 30
0.0
  0
VERTEX
  5
14D
330
41
100
AcDbEntity
  8
EBENE_1
 62
     7
100
AcDbVertex
100
AcDb2dVertex
 10
16.68124999582965
 20
0.0
 30
0.0
  0
VERTEX
  5
14E
330
41
100
AcDbEntity
  8
EBENE_1
 62
     7
100
AcDbVertex
100
AcDb2dVertex
 10
17.92499999551877
 20
0.0
 30
0.0
  0
VERTEX
  5
14F
330
41
100
AcDbEntity
  8
EBENE_1
 62
     7
100
AcDbVertex
100
AcDb2dVertex
 10
19.16874999520789
 20
0.0
 30
0.0
  0
VERTEX
  5
150
330
41
100
AcDbEntity
  8
EBENE_1
 62
     7
100
AcDbVertex
100
AcDb2dVertex
 10
20.41249999489701
 20
0.0
 30
0.0
  0
VERTEX
  5
151
330
41
100
AcDbEntity
  8
EBENE_1
 62
     7
100
AcDbVertex
100
AcDb2dVertex
 10
21.65624999458581
 20
0.0
 30
0.0
  0
VERTEX
  5
152
330
41
100
AcDbEntity
  8
EBENE_1
 62
     7
100
AcDbVertex
100
AcDb2dVertex
 10
22.89999999427493
 20
0.0
 30
0.0
  0
VERTEX
  5
153
330
41
100
AcDbEntity
  8
EBENE_1
 62
     7
100
AcDbVertex
100
AcDb2dVertex
 10
24.14374999396405
 20
0.0
 30
0.0
  0
VERTEX
  5
154
330
41
100
AcDbEntity
  8
EBENE_1
 62
     7
100
AcDbVertex
100
AcDb2dVertex
 10
25.38749999365285
 20
0.0
 30
0.0
  0
VERTEX
  5
155
330
41
100
AcDbEntity
  8
EBENE_1
 62
     7
100
AcDbVertex
100
AcDb2dVertex
 10
26.63124999334197
 20
0.0
 30
0.0
  0
VERTEX
  5
156
330
41
100
AcDbEntity
  8
EBENE_1
 62
     7
100
AcDbVertex
100
AcDb2dVertex
 10
27.87499999303109
 20
0.0
 30
0.0
  0
VERTEX
  5
157
330
41
100
AcDbEntity
  8
EBENE_1
 62
     7
100
AcDbVertex
100
AcDb2dVertex
 10
29.11874999272021
 20
0.0
 30
0.0
  0
VERTEX
  5
158
330
41
100
AcDbEntity
  8
EBENE_1
 62
     7
100
AcDbVertex
100
AcDb2dVertex
 10
30.36249999240933
 20
0.0
 30
0.0
  0
VERTEX
  5
159
330
41
100
AcDbEntity
  8
EBENE_1
 62
     7
100
AcDbVertex
100
AcDb2dVertex
 10
31.60624999209845
 20
0.0
 30
0.0
  0
VERTEX
  5
15A
330
41
100
AcDbEntity
  8
EBENE_1
 62
     7
100
AcDbVertex
100
AcDb2dVertex
 10
32.84999999178757
 20
0.0
 30
0.0
  0
VERTEX
  5
15B
330
41
100
AcDbEntity
  8
EBENE_1
 62
     7
100
AcDbVertex
100
AcDb2dVertex
 10
34.09374999147669
 20
0.0
 30
0.0
  0
VERTEX
  5
15C
330
41
100
AcDbEntity
  8
EBENE_1
 62
     7
100
AcDbVertex
100
AcDb2dVertex
 10
35.33749999116581
 20
0.0
 30
0.0
  0
VERTEX
  5
15D
330
41
100
AcDbEntity
  8
EBENE_1
 62
     7
100
AcDbVertex
100
AcDb2dVertex
 10
36.58124999085462
 20
0.0
 30
0.0
  0
VERTEX
  5
15E
330
41
100
AcDbEntity
  8
EBENE_1
 62
     7
100
AcDbVertex
100
AcDb2dVertex
 10
37.82499999054373
 20
0.0
 30
0.0
  0
VERTEX
  5
15F
330
41
100
AcDbEntity
  8
EBENE_1
 62
     7
100
AcDbVertex
100
AcDb2dVertex
 10
39.06874999023285
 20
0.0
 30
0.0
  0
VERTEX
  5
160
330
41
100
AcDbEntity
  8
EBENE_1
 62
     7
100
AcDbVertex
100
AcDb2dVertex
 10
40.31249998992165
 20
0.0
 30
0.0
  0
VERTEX
  5
161
330
41
100
AcDbEntity
  8
EBENE_1
 62
     7
100
AcDbVertex
100
AcDb2dVertex
 10
41.55624998961078
 20
0.0
 30
0.0
  0
VERTEX
  5
162
330
41
100
AcDbEntity
  8
EBENE_1
 62
     7
100
AcDbVertex
100
AcDb2dVertex
 10
42.7999999892999
 20
0.0
 30
0.0
  0
VERTEX
  5
163
330
41
100
AcDbEntity
  8
EBENE_1
 62
     7
100
AcDbVertex
100
AcDb2dVertex
 10
44.04374998898901
 20
0.0
 30
0.0
  0
VERTEX
  5
164
330
41
100
AcDbEntity
  8
EBENE_1
 62
     7
100
AcDbVertex
100
AcDb2dVertex
 10
45.28749998867814
 20
0.0
 30
0.0
  0
VERTEX
  5
165
330
41
100
AcDbEntity
  8
EBENE_1
 62
     7
100
AcDbVertex
100
AcDb2dVertex
 10
46.53124998836694
 20
0.0
 30
0.0
  0
VERTEX
  5
166
330
41
100
AcDbEntity
  8
EBENE_1
 62
     7
100
AcDbVertex
100
AcDb2dVertex
 10
47.77499998805606
 20
0.0
 30
0.0
  0
VERTEX
  5
167
330
41
100
AcDbEntity
  8
EBENE_1
 62
     7
100
AcDbVertex
100
AcDb2dVertex
 10
49.01874998774518
 20
0.0
 30
0.0
  0
VERTEX
  5
168
330
41
100
AcDbEntity
  8
EBENE_1
 62
     7
100
AcDbVertex
100
AcDb2dVertex
 10
50.26249998743398
 20
0.0
 30
0.0
  0
VERTEX
  5
169
330
41
100
AcDbEntity
  8
EBENE_1
 62
     7
100
AcDbVertex
100
AcDb2dVertex
 10
51.5062499871231
 20
0.0
 30
0.0
  0
VERTEX
  5
16A
330
41
100
AcDbEntity
  8
EBENE_1
 62
     7
100
AcDbVertex
100
AcDb2dVertex
 10
52.74999998681222
 20
0.0
 30
0.0
  0
VERTEX
  5
16B
330
41
100
AcDbEntity
  8
EBENE_1
 62
     7
100
AcDbVertex
100
AcDb2dVertex
 10
53.99374998650134
 20
0.0
 30
0.0
  0
VERTEX
  5
16C
330
41
100
AcDbEntity
  8
EBENE_1
 62
     7
100
AcDbVertex
100
AcDb2dVertex
 10
55.23749998619046
 20
0.0
 30
0.0
  0
VERTEX
  5
16D
330
41
100
AcDbEntity
  8
EBENE_1
 62
     7
100
AcDbVertex
100
AcDb2dVertex
 10
56.48124998587958
 20
0.0
 30
0.0
  0
VERTEX
  5
16E
330
41
100
AcDbEntity
  8
EBENE_1
 62
     7
100
AcDbVertex
100
AcDb2dVertex
 10
57.7249999855687
 20
0.0
 30
0.0
  0
VERTEX
  5
16F
330
41
100
AcDbEntity
  8
EBENE_1
 62
     7
100
AcDbVertex
100
AcDb2dVertex
 10
58.96874998525782
 20
0.0
 30
0.0
  0
VERTEX
  5
170
330
41
100
AcDbEntity
  8
EBENE_1
 62
     7
100
AcDbVertex
100
AcDb2dVertex
 10
60.21249998494694
 20
0.0
 30
0.0
  0
VERTEX
  5
171
330
41
100
AcDbEntity
  8
EBENE_1
 62
     7
100
AcDbVertex
100
AcDb2dVertex
 10
61.45624998463574
 20
0.0
 30
0.0
  0
VERTEX
  5
172
330
41
100
AcDbEntity
  8
EBENE_1
 62
     7
100
AcDbVertex
100
AcDb2dVertex
 10
62.69999998432486
 20
0.0
 30
0.0
  0
VERTEX
  5
173
330
41
100
AcDbEntity
  8
EBENE_1
 62
     7
100
AcDbVertex
100
AcDb2dVertex
 10
63.94374998401398
 20
0.0
 30
0.0
  0
VERTEX
  5
174
330
41
100
AcDbEntity
  8
EBENE_1
 62
     7
100
AcDbVertex
100
AcDb2dVertex
 10
65.18749998370278
 20
0.0
 30
0.0
  0
VERTEX
  5
175
330
41
100
AcDbEntity
  8
EBENE_1
 62
     7
100
AcDbVertex
100
AcDb2dVertex
 10
66.43124998339191
 20
0.0
 30
0.0
  0
VERTEX
  5
176
330
41
100
AcDbEntity
  8
EBENE_1
 62
     7
100
AcDbVertex
100
AcDb2dVertex
 10
67.67499998308102
 20
0.0
 30
0.0
  0
VERTEX
  5
177
330
41
100
AcDbEntity
  8
EBENE_1
 62
     7
100
AcDbVertex
100
AcDb2dVertex
 10
68.91874998277015
 20
0.0
 30
0.0
  0
VERTEX
  5
178
330
41
100
AcDbEntity
  8
EBENE_1
 62
     7
100
AcDbVertex
100
AcDb2dVertex
 10
70.16249998245927
 20
0.0
 30
0.0
  0
VERTEX
  5
179
330
41
100
AcDbEntity
  8
EBENE_1
 62
     7
100
AcDbVertex
100
AcDb2dVertex
 10
71.40624998214838
 20
0.0
 30
0.0
  0
VERTEX
  5
17A
330
41
100
AcDbEntity
  8
EBENE_1
 62
     7
100
AcDbVertex
100
AcDb2dVertex
 10
72.64999998183751
 20
0.0
 30
0.0
  0
VERTEX
  5
17B
330
41
100
AcDbEntity
  8
EBENE_1
 62
     7
100
AcDbVertex
100
AcDb2dVertex
 10
73.89374998152662
 20
0.0
 30
0.0
  0
VERTEX
  5
17C
330
41
100
AcDbEntity
  8
EBENE_1
 62
     7
100
AcDbVertex
100
AcDb2dVertex
 10
75.13749998121575
 20
0.0
 30
0.0
  0
VERTEX
  5
17D
330
41
100
AcDbEntity
  8
EBENE_1
 62
     7
100
AcDbVertex
100
AcDb2dVertex
 10
76.38124998090456
 20
0.0
 30
0.0
  0
VERTEX
  5
17E
330
41
100
AcDbEntity
  8
EBENE_1
 62
     7
100
AcDbVertex
100
AcDb2dVertex
 10
77.62499998059367
 20
0.0
 30
0.0
  0
VERTEX
  5
17F
330
41
100
AcDbEntity
  8
EBENE_1
 62
     7
100
AcDbVertex
100
AcDb2dVertex
 10
78.86874998028279
 20
0.0
 30
0.0
  0
VERTEX
  5
180
330
41
100
AcDbEntity
  8
EBENE_1
 62
     7
100
AcDbVertex
100
AcDb2dVertex
 10
80.11249997997159
 20
0.0
 30
0.0
  0
VERTEX
  5
181
330
41
100
AcDbEntity
  8
EBENE_1
 62
     7
100
AcDbVertex
100
AcDb2dVertex
 10
81.35624997966072
 20
0.0
 30
0.0
  0
VERTEX
  5
182
330
41
100
AcDbEntity
  8
EBENE_1
 62
     7
100
AcDbVertex
100
AcDb2dVertex
 10
82.59999997934983
 20
0.0
 30
0.0
  0
VERTEX
  5
183
330
41
100
AcDbEntity
  8
EBENE_1
 62
     7
100
AcDbVertex
100
AcDb2dVertex
 10
82.67711999733608
 20
-0.0009847640987056
 30
0.0
  0
VERTEX
  5
184
330
41
100
AcDbEntity
  8
EBENE_1
 62
     7
100
AcDbVertex
100
AcDb2dVertex
 10
82.75377652960461
 20
-0.003923034666892
 30
0.0
  0
VERTEX
  5
185
330
41
100
AcDbEntity
  8
EBENE_1
 62
     7
100
AcDbVertex
100
AcDb2dVertex
 10
82.82994554356257
 20
-0.0087907791113798
 30
0.0
  0
VERTEX
  5
186
330
41
100
AcDbEntity
  8
EBENE_1
 62
     7
100
AcDbVertex
100
AcDb2dVertex
 10
82.90560300661741
 20
-0.0155639648399525
 30
0.0
  0
VERTEX
  5
187
330
41
100
AcDbEntity
  8
EBENE_1
 62
     7
100
AcDbVertex
100
AcDb2dVertex
 10
82.98072488617629
 20
-0.0242185592591099
 30
0.0
  0
VERTEX
  5
188
330
41
100
AcDbEntity
  8
EBENE_1
 62
     7
100
AcDbVertex
100
AcDb2dVertex
 10
83.05528714964635
 20
-0.0347305297766353
 30
0.0
  0
VERTEX
  5
189
330
41
100
AcDbEntity
  8
EBENE_1
 62
     7
100
AcDbVertex
100
AcDb2dVertex
 10
83.12926576443502
 20
-0.0470758437993496
 30
0.0
  0
VERTEX
  5
18A
330
41
100
AcDbEntity
  8
EBENE_1
 62
     7
100
AcDbVertex
100
AcDb2dVertex
 10
83.20263669794949
 20
-0.0612304687347151
 30
0.0
  0
VERTEX
  5
18B
330
41
100
AcDbEntity
  8
EBENE_1
 62
     7
100
AcDbVertex
100
AcDb2dVertex
 10
83.27537591759686
 20
-0.0771703719901944
 30
0.0
  0
VERTEX
  5
18C
330
41
100
AcDbEntity
  8
EBENE_1
 62
     7
100
AcDbVertex
100
AcDb2dVertex
 10
83.3474593907843
 20
-0.0948715209722874
 30
0.0
  0
VERTEX
  5
18D
330
41
100
AcDbEntity
  8
EBENE_1
 62
     7
100
AcDbVertex
100
AcDb2dVertex
 10
83.41886308491925
 20
-0.1143098830890983
 30
0.0
  0
VERTEX
  5
18E
330
41
100
AcDbEntity
  8
EBENE_1
 62
     7
100
AcDbVertex
100
AcDb2dVertex
 10
83.48956296740919
 20
-0.1354614257474478
 30
0.0
  0
VERTEX
  5
18F
330
41
100
AcDbEntity
  8
EBENE_1
 62
     7
100
AcDbVertex
100
AcDb2dVertex
 10
83.5595350056606
 20
-0.1583021163544776
 30
0.0
  0
VERTEX
  5
190
330
41
100
AcDbEntity
  8
EBENE_1
 62
     7
100
AcDbVertex
100
AcDb2dVertex
 10
83.6287551670813
 20
-0.18280792231765
 30
0.0
  0
VERTEX
  5
191
330
41
100
AcDbEntity
  8
EBENE_1
 62
     7
100
AcDbVertex
100
AcDb2dVertex
 10
83.6971994190784
 20
-0.208954811043786
 30
0.0
  0
VERTEX
  5
192
330
41
100
AcDbEntity
  8
EBENE_1
 62
     7
100
AcDbVertex
100
AcDb2dVertex
 10
83.76484372905905
 20
-0.2367187499406687
 30
0.0
  0
VERTEX
  5
193
330
41
100
AcDbEntity
  8
EBENE_1
 62
     7
100
AcDbVertex
100
AcDb2dVertex
 10
83.8316640644304
 20
-0.2660757064151191
 30
0.0
  0
VERTEX
  5
194
330
41
100
AcDbEntity
  8
EBENE_1
 62
     7
100
AcDbVertex
100
AcDb2dVertex
 10
83.89763639259989
 20
-0.2970016478749203
 30
0.0
  0
VERTEX
  5
195
330
41
100
AcDbEntity
  8
EBENE_1
 62
     7
100
AcDbVertex
100
AcDb2dVertex
 10
83.96273668097469
 20
-0.3294725417265724
 30
0.0
  0
VERTEX
  5
196
330
41
100
AcDbEntity
  8
EBENE_1
 62
     7
100
AcDbVertex
100
AcDb2dVertex
 10
84.02694089696223
 20
-0.3634643553775378
 30
0.0
  0
VERTEX
  5
197
330
41
100
AcDbEntity
  8
EBENE_1
 62
     7
100
AcDbVertex
100
AcDb2dVertex
 10
84.09022500796937
 20
-0.3989530562352789
 30
0.0
  0
VERTEX
  5
198
330
41
100
AcDbEntity
  8
EBENE_1
 62
     7
100
AcDbVertex
100
AcDb2dVertex
 10
84.15256498140354
 20
-0.4359146117072584
 30
0.0
  0
VERTEX
  5
199
330
41
100
AcDbEntity
  8
EBENE_1
 62
     7
100
AcDbVertex
100
AcDb2dVertex
 10
84.21393678467189
 20
-0.4743249892002968
 30
0.0
  0
VERTEX
  5
19A
330
41
100
AcDbEntity
  8
EBENE_1
 62
     7
100
AcDbVertex
100
AcDb2dVertex
 10
84.27431638518158
 20
-0.5141601561212149
 30
0.0
  0
VERTEX
  5
19B
330
41
100
AcDbEntity
  8
EBENE_1
 62
     7
100
AcDbVertex
100
AcDb2dVertex
 10
84.33367975034004
 20
-0.5553960798777962
 30
0.0
  0
VERTEX
  5
19C
330
41
100
AcDbEntity
  8
EBENE_1
 62
     7
100
AcDbVertex
100
AcDb2dVertex
 10
84.39200284755444
 20
-0.598008727877503
 30
0.0
  0
VERTEX
  5
19D
330
41
100
AcDbEntity
  8
EBENE_1
 62
     7
100
AcDbVertex
100
AcDb2dVertex
 10
84.44926164423191
 20
-0.6419740675271562
 30
0.0
  0
VERTEX
  5
19E
330
41
100
AcDbEntity
  8
EBENE_1
 62
     7
100
AcDbVertex
100
AcDb2dVertex
 10
84.50543210777991
 20
-0.6872680662338975
 30
0.0
  0
VERTEX
  5
19F
330
41
100
AcDbEntity
  8
EBENE_1
 62
     7
100
AcDbVertex
100
AcDb2dVertex
 10
84.56049020560559
 20
-0.7338666914055099
 30
0.0
  0
VERTEX
  5
1A0
330
41
100
AcDbEntity
  8
EBENE_1
 62
     7
100
AcDbVertex
100
AcDb2dVertex
 10
84.61441190511609
 20
-0.7817459104488144
 30
0.0
  0
VERTEX
  5
1A1
330
41
100
AcDbEntity
  8
EBENE_1
 62
     7
100
AcDbVertex
100
AcDb2dVertex
 10
84.66717317371854
 20
-0.8308816907709525
 30
0.0
  0
VERTEX
  5
1A2
330
41
100
AcDbEntity
  8
EBENE_1
 62
     7
100
AcDbVertex
100
AcDb2dVertex
 10
84.7187499788204
 20
-0.8812499997793869
 30
0.0
  0
VERTEX
  5
1A3
330
41
100
AcDbEntity
  8
EBENE_1
 62
     7
100
AcDbVertex
100
AcDb2dVertex
 10
84.76911828782885
 20
-0.932826804881259
 30
0.0
  0
VERTEX
  5
1A4
330
41
100
AcDbEntity
  8
EBENE_1
 62
     7
100
AcDbVertex
100
AcDb2dVertex
 10
84.81825406815098
 20
-0.9855880734837105
 30
0.0
  0
VERTEX
  5
1A5
330
41
100
AcDbEntity
  8
EBENE_1
 62
     7
100
AcDbVertex
100
AcDb2dVertex
 10
84.86613328719429
 20
-1.039509772994204
 30
0.0
  0
VERTEX
  5
1A6
330
41
100
AcDbEntity
  8
EBENE_1
 62
     7
100
AcDbVertex
100
AcDb2dVertex
 10
84.9127319123659
 20
-1.094567870819881
 30
0.0
  0
VERTEX
  5
1A7
330
41
100
AcDbEntity
  8
EBENE_1
 62
     7
100
AcDbVertex
100
AcDb2dVertex
 10
84.95802591107264
 20
-1.150738334367883
 30
0.0
  0
VERTEX
  5
1A8
330
41
100
AcDbEntity
  8
EBENE_1
 62
     7
100
AcDbVertex
100
AcDb2dVertex
 10
85.00199125072228
 20
-1.207997131045351
 30
0.0
  0
VERTEX
  5
1A9
330
41
100
AcDbEntity
  8
EBENE_1
 62
     7
100
AcDbVertex
100
AcDb2dVertex
 10
85.044603898722
 20
-1.266320228259749
 30
0.0
  0
VERTEX
  5
1AA
330
41
100
AcDbEntity
  8
EBENE_1
 62
     7
100
AcDbVertex
100
AcDb2dVertex
 10
85.08583982247858
 20
-1.325683593418218
 30
0.0
  0
VERTEX
  5
1AB
330
41
100
AcDbEntity
  8
EBENE_1
 62
     7
100
AcDbVertex
100
AcDb2dVertex
 10
85.1256749893995
 20
-1.386063193927899
 30
0.0
  0
VERTEX
  5
1AC
330
41
100
AcDbEntity
  8
EBENE_1
 62
     7
100
AcDbVertex
100
AcDb2dVertex
 10
85.16408536689254
 20
-1.447434997196255
 30
0.0
  0
VERTEX
  5
1AD
330
41
100
AcDbEntity
  8
EBENE_1
 62
     7
100
AcDbVertex
100
AcDb2dVertex
 10
85.20104692236451
 20
-1.509774970630428
 30
0.0
  0
VERTEX
  5
1AE
330
41
100
AcDbEntity
  8
EBENE_1
 62
     7
100
AcDbVertex
100
AcDb2dVertex
 10
85.23653562322225
 20
-1.573059081637558
 30
0.0
  0
VERTEX
  5
1AF
330
41
100
AcDbEntity
  8
EBENE_1
 62
     7
100
AcDbVertex
100
AcDb2dVertex
 10
85.27052743687322
 20
-1.63726329762511
 30
0.0
  0
VERTEX
  5
1B0
330
41
100
AcDbEntity
  8
EBENE_1
 62
     7
100
AcDbVertex
100
AcDb2dVertex
 10
85.30299833072488
 20
-1.702363585999902
 30
0.0
  0
VERTEX
  5
1B1
330
41
100
AcDbEntity
  8
EBENE_1
 62
     7
100
AcDbVertex
100
AcDb2dVertex
 10
85.33392427218467
 20
-1.768335914169399
 30
0.0
  0
VERTEX
  5
1B2
330
41
100
AcDbEntity
  8
EBENE_1
 62
     7
100
AcDbVertex
100
AcDb2dVertex
 10
85.36328122865912
 20
-1.835156249540741
 30
0.0
  0
VERTEX
  5
1B3
330
41
100
AcDbEntity
  8
EBENE_1
 62
     7
100
AcDbVertex
100
AcDb2dVertex
 10
85.391045167556
 20
-1.902800559521391
 30
0.0
  0
VERTEX
  5
1B4
330
41
100
AcDbEntity
  8
EBENE_1
 62
     7
100
AcDbVertex
100
AcDb2dVertex
 10
85.41719205628215
 20
-1.971244811518491
 30
0.0
  0
VERTEX
  5
1B5
330
41
100
AcDbEntity
  8
EBENE_1
 62
     7
100
AcDbVertex
100
AcDb2dVertex
 10
85.44169786224532
 20
-2.040464972939182
 30
0.0
  0
VERTEX
  5
1B6
330
41
100
AcDbEntity
  8
EBENE_1
 62
     7
100
AcDbVertex
100
AcDb2dVertex
 10
85.46453855285235
 20
-2.110437011190605
 30
0.0
  0
VERTEX
  5
1B7
330
41
100
AcDbEntity
  8
EBENE_1
 62
     7
100
AcDbVertex
100
AcDb2dVertex
 10
85.48569009551069
 20
-2.181136893680545
 30
0.0
  0
VERTEX
  5
1B8
330
41
100
AcDbEntity
  8
EBENE_1
 62
     7
100
AcDbVertex
100
AcDb2dVertex
 10
85.5051284576275
 20
-2.252540587815501
 30
0.0
  0
VERTEX
  5
1B9
330
41
100
AcDbEntity
  8
EBENE_1
 62
     7
100
AcDbVertex
100
AcDb2dVertex
 10
85.52282960660959
 20
-2.324624061002935
 30
0.0
  0
VERTEX
  5
1BA
330
41
100
AcDbEntity
  8
EBENE_1
 62
     7
100
AcDbVertex
100
AcDb2dVertex
 10
85.53876950986508
 20
-2.39736328065031
 30
0.0
  0
VERTEX
  5
1BB
330
41
100
AcDbEntity
  8
EBENE_1
 62
     7
100
AcDbVertex
100
AcDb2dVertex
 10
85.55292413480045
 20
-2.470734214164769
 30
0.0
  0
VERTEX
  5
1BC
330
41
100
AcDbEntity
  8
EBENE_1
 62
     7
100
AcDbVertex
100
AcDb2dVertex
 10
85.56526944882316
 20
-2.544712828953451
 30
0.0
  0
VERTEX
  5
1BD
330
41
100
AcDbEntity
  8
EBENE_1
 62
     7
100
AcDbVertex
100
AcDb2dVertex
 10
85.57578141934069
 20
-2.619275092423499
 30
0.0
  0
VERTEX
  5
1BE
330
41
100
AcDbEntity
  8
EBENE_1
 62
     7
100
AcDbVertex
100
AcDb2dVertex
 10
85.58443601375984
 20
-2.694396971982376
 30
0.0
  0
VERTEX
  5
1BF
330
41
100
AcDbEntity
  8
EBENE_1
 62
     7
100
AcDbVertex
100
AcDb2dVertex
 10
85.59120919948842
 20
-2.770054435037222
 30
0.0
  0
VERTEX
  5
1C0
330
41
100
AcDbEntity
  8
EBENE_1
 62
     7
100
AcDbVertex
100
AcDb2dVertex
 10
85.5960769439329
 20
-2.84622344899518
 30
0.0
  0
VERTEX
  5
1C1
330
41
100
AcDbEntity
  8
EBENE_1
 62
     7
100
AcDbVertex
100
AcDb2dVertex
 10
85.59901521450108
 20
-2.922879981263712
 30
0.0
  0
VERTEX
  5
1C2
330
41
100
AcDbEntity
  8
EBENE_1
 62
     7
100
AcDbVertex
100
AcDb2dVertex
 10
85.5999999785998
 20
-2.99999999924996
 30
0.0
  0
VERTEX
  5
1C3
330
41
100
AcDbEntity
  8
EBENE_1
 62
     7
100
AcDbVertex
100
AcDb2dVertex
 10
85.5999999785998
 20
-3.749687499062409
 30
0.0
  0
VERTEX
  5
1C4
330
41
100
AcDbEntity
  8
EBENE_1
 62
     7
100
AcDbVertex
100
AcDb2dVertex
 10
85.5999999785998
 20
-4.499374998875179
 30
0.0
  0
VERTEX
  5
1C5
330
41
100
AcDbEntity
  8
EBENE_1
 62
     7
100
AcDbVertex
100
AcDb2dVertex
 10
85.5999999785998
 20
-5.249062498687948
 30
0.0
  0
VERTEX
  5
1C6
330
41
100
AcDbEntity
  8
EBENE_1
 62
     7
100
AcDbVertex
100
AcDb2dVertex
 10
85.5999999785998
 20
-5.998749998500396
 30
0.0
  0
VERTEX
  5
1C7
330
41
100
AcDbEntity
  8
EBENE_1
 62
     7
100
AcDbVertex
100
AcDb2dVertex
 10
85.5999999785998
 20
-6.748437498312845
 30
0.0
  0
VERTEX
  5
1C8
330
41
100
AcDbEntity
  8
EBENE_1
 62
     7
100
AcDbVertex
100
AcDb2dVertex
 10
85.5999999785998
 20
-7.498124998125294
 30
0.0
  0
VERTEX
  5
1C9
330
41
100
AcDbEntity
  8
EBENE_1
 62
     7
100
AcDbVertex
100
AcDb2dVertex
 10
85.5999999785998
 20
-8.247812497937742
 30
0.0
  0
VERTEX
  5
1CA
330
41
100
AcDbEntity
  8
EBENE_1
 62
     7
100
AcDbVertex
100
AcDb2dVertex
 10
85.5999999785998
 20
-8.997499997750513
 30
0.0
  0
VERTEX
  5
1CB
330
41
100
AcDbEntity
  8
EBENE_1
 62
     7
100
AcDbVertex
100
AcDb2dVertex
 10
85.5999999785998
 20
-9.747187497563282
 30
0.0
  0
VERTEX
  5
1CC
330
41
100
AcDbEntity
  8
EBENE_1
 62
     7
100
AcDbVertex
100
AcDb2dVertex
 10
85.5999999785998
 20
-10.49687499737573
 30
0.0
  0
VERTEX
  5
1CD
330
41
100
AcDbEntity
  8
EBENE_1
 62
     7
100
AcDbVertex
100
AcDb2dVertex
 10
85.5999999785998
 20
-11.24656249718818
 30
0.0
  0
VERTEX
  5
1CE
330
41
100
AcDbEntity
  8
EBENE_1
 62
     7
100
AcDbVertex
100
AcDb2dVertex
 10
85.5999999785998
 20
-11.99624999700063
 30
0.0
  0
VERTEX
  5
1CF
330
41
100
AcDbEntity
  8
EBENE_1
 62
     7
100
AcDbVertex
100
AcDb2dVertex
 10
85.5999999785998
 20
-12.74593749681308
 30
0.0
  0
VERTEX
  5
1D0
330
41
100
AcDbEntity
  8
EBENE_1
 62
     7
100
AcDbVertex
100
AcDb2dVertex
 10
85.5999999785998
 20
-13.49562499662585
 30
0.0
  0
VERTEX
  5
1D1
330
41
100
AcDbEntity
  8
EBENE_1
 62
     7
100
AcDbVertex
100
AcDb2dVertex
 10
85.5999999785998
 20
-14.24531249643862
 30
0.0
  0
VERTEX
  5
1D2
330
41
100
AcDbEntity
  8
EBENE_1
 62
     7
100
AcDbVertex
100
AcDb2dVertex
 10
85.5999999785998
 20
-14.99499999625107
 30
0.0
  0
VERTEX
  5
1D3
330
41
100
AcDbEntity
  8
EBENE_1
 62
     7
100
AcDbVertex
100
AcDb2dVertex
 10
85.5999999785998
 20
-15.74468749606351
 30
0.0
  0
VERTEX
  5
1D4
330
41
100
AcDbEntity
  8
EBENE_1
 62
     7
100
AcDbVertex
100
AcDb2dVertex
 10
85.5999999785998
 20
-16.49437499587629
 30
0.0
  0
VERTEX
  5
1D5
330
41
100
AcDbEntity
  8
EBENE_1
 62
     7
100
AcDbVertex
100
AcDb2dVertex
 10
85.5999999785998
 20
-17.24406249568905
 30
0.0
  0
VERTEX
  5
1D6
330
41
100
AcDbEntity
  8
EBENE_1
 62
     7
100
AcDbVertex
100
AcDb2dVertex
 10
85.5999999785998
 20
-17.9937499955015
 30
0.0
  0
VERTEX
  5
1D7
330
41
100
AcDbEntity
  8
EBENE_1
 62
     7
100
AcDbVertex
100
AcDb2dVertex
 10
85.5999999785998
 20
-18.74343749531395
 30
0.0
  0
VERTEX
  5
1D8
330
41
100
AcDbEntity
  8
EBENE_1
 62
     7
100
AcDbVertex
100
AcDb2dVertex
 10
85.5999999785998
 20
-19.4931249951264
 30
0.0
  0
VERTEX
  5
1D9
330
41
100
AcDbEntity
  8
EBENE_1
 62
     7
100
AcDbVertex
100
AcDb2dVertex
 10
85.5999999785998
 20
-20.24281249493885
 30
0.0
  0
VERTEX
  5
1DA
330
41
100
AcDbEntity
  8
EBENE_1
 62
     7
100
AcDbVertex
100
AcDb2dVertex
 10
85.5999999785998
 20
-20.99249999475162
 30
0.0
  0
VERTEX
  5
1DB
330
41
100
AcDbEntity
  8
EBENE_1
 62
     7
100
AcDbVertex
100
AcDb2dVertex
 10
85.5999999785998
 20
-21.74218749456439
 30
0.0
  0
VERTEX
  5
1DC
330
41
100
AcDbEntity
  8
EBENE_1
 62
     7
100
AcDbVertex
100
AcDb2dVertex
 10
85.5999999785998
 20
-22.49187499437684
 30
0.0
  0
VERTEX
  5
1DD
330
41
100
AcDbEntity
  8
EBENE_1
 62
     7
100
AcDbVertex
100
AcDb2dVertex
 10
85.5999999785998
 20
-23.24156249418929
 30
0.0
  0
VERTEX
  5
1DE
330
41
100
AcDbEntity
  8
EBENE_1
 62
     7
100
AcDbVertex
100
AcDb2dVertex
 10
85.5999999785998
 20
-23.99124999400173
 30
0.0
  0
VERTEX
  5
1DF
330
41
100
AcDbEntity
  8
EBENE_1
 62
     7
100
AcDbVertex
100
AcDb2dVertex
 10
85.5999999785998
 20
-24.74093749381418
 30
0.0
  0
VERTEX
  5
1E0
330
41
100
AcDbEntity
  8
EBENE_1
 62
     7
100
AcDbVertex
100
AcDb2dVertex
 10
85.5999999785998
 20
-25.49062499362695
 30
0.0
  0
VERTEX
  5
1E1
330
41
100
AcDbEntity
  8
EBENE_1
 62
     7
100
AcDbVertex
100
AcDb2dVertex
 10
85.5999999785998
 20
-26.24031249343972
 30
0.0
  0
VERTEX
  5
1E2
330
41
100
AcDbEntity
  8
EBENE_1
 62
     7
100
AcDbVertex
100
AcDb2dVertex
 10
85.5999999785998
 20
-26.98999999325217
 30
0.0
  0
VERTEX
  5
1E3
330
41
100
AcDbEntity
  8
EBENE_1
 62
     7
100
AcDbVertex
100
AcDb2dVertex
 10
85.5999999785998
 20
-27.73968749306462
 30
0.0
  0
VERTEX
  5
1E4
330
41
100
AcDbEntity
  8
EBENE_1
 62
     7
100
AcDbVertex
100
AcDb2dVertex
 10
85.5999999785998
 20
-28.48937499287739
 30
0.0
  0
VERTEX
  5
1E5
330
41
100
AcDbEntity
  8
EBENE_1
 62
     7
100
AcDbVertex
100
AcDb2dVertex
 10
85.5999999785998
 20
-29.23906249269016
 30
0.0
  0
VERTEX
  5
1E6
330
41
100
AcDbEntity
  8
EBENE_1
 62
     7
100
AcDbVertex
100
AcDb2dVertex
 10
85.5999999785998
 20
-29.98874999250261
 30
0.0
  0
VERTEX
  5
1E7
330
41
100
AcDbEntity
  8
EBENE_1
 62
     7
100
AcDbVertex
100
AcDb2dVertex
 10
85.5999999785998
 20
-30.73843749231506
 30
0.0
  0
VERTEX
  5
1E8
330
41
100
AcDbEntity
  8
EBENE_1
 62
     7
100
AcDbVertex
100
AcDb2dVertex
 10
85.5999999785998
 20
-31.48812499212751
 30
0.0
  0
VERTEX
  5
1E9
330
41
100
AcDbEntity
  8
EBENE_1
 62
     7
100
AcDbVertex
100
AcDb2dVertex
 10
85.5999999785998
 20
-32.23781249193996
 30
0.0
  0
VERTEX
  5
1EA
330
41
100
AcDbEntity
  8
EBENE_1
 62
     7
100
AcDbVertex
100
AcDb2dVertex
 10
85.5999999785998
 20
-32.98749999175273
 30
0.0
  0
VERTEX
  5
1EB
330
41
100
AcDbEntity
  8
EBENE_1
 62
     7
100
AcDbVertex
100
AcDb2dVertex
 10
85.5999999785998
 20
-33.73718749156549
 30
0.0
  0
VERTEX
  5
1EC
330
41
100
AcDbEntity
  8
EBENE_1
 62
     7
100
AcDbVertex
100
AcDb2dVertex
 10
85.5999999785998
 20
-34.48687499137795
 30
0.0
  0
VERTEX
  5
1ED
330
41
100
AcDbEntity
  8
EBENE_1
 62
     7
100
AcDbVertex
100
AcDb2dVertex
 10
85.5999999785998
 20
-35.23656249119039
 30
0.0
  0
VERTEX
  5
1EE
330
41
100
AcDbEntity
  8
EBENE_1
 62
     7
100
AcDbVertex
100
AcDb2dVertex
 10
85.5999999785998
 20
-35.98624999100284
 30
0.0
  0
VERTEX
  5
1EF
330
41
100
AcDbEntity
  8
EBENE_1
 62
     7
100
AcDbVertex
100
AcDb2dVertex
 10
85.5999999785998
 20
-36.73593749081529
 30
0.0
  0
VERTEX
  5
1F0
330
41
100
AcDbEntity
  8
EBENE_1
 62
     7
100
AcDbVertex
100
AcDb2dVertex
 10
85.5999999785998
 20
-37.48562499062806
 30
0.0
  0
VERTEX
  5
1F1
330
41
100
AcDbEntity
  8
EBENE_1
 62
     7
100
AcDbVertex
100
AcDb2dVertex
 10
85.5999999785998
 20
-38.23531249044083
 30
0.0
  0
VERTEX
  5
1F2
330
41
100
AcDbEntity
  8
EBENE_1
 62
     7
100
AcDbVertex
100
AcDb2dVertex
 10
85.5999999785998
 20
-38.98499999025328
 30
0.0
  0
VERTEX
  5
1F3
330
41
100
AcDbEntity
  8
EBENE_1
 62
     7
100
AcDbVertex
100
AcDb2dVertex
 10
85.5999999785998
 20
-39.73468749006572
 30
0.0
  0
VERTEX
  5
1F4
330
41
100
AcDbEntity
  8
EBENE_1
 62
     7
100
AcDbVertex
100
AcDb2dVertex
 10
85.5999999785998
 20
-40.4843749898785
 30
0.0
  0
VERTEX
  5
1F5
330
41
100
AcDbEntity
  8
EBENE_1
 62
     7
100
AcDbVertex
100
AcDb2dVertex
 10
85.5999999785998
 20
-41.23406248969127
 30
0.0
  0
VERTEX
  5
1F6
330
41
100
AcDbEntity
  8
EBENE_1
 62
     7
100
AcDbVertex
100
AcDb2dVertex
 10
85.5999999785998
 20
-41.98374998950371
 30
0.0
  0
VERTEX
  5
1F7
330
41
100
AcDbEntity
  8
EBENE_1
 62
     7
100
AcDbVertex
100
AcDb2dVertex
 10
85.5999999785998
 20
-42.73343748931617
 30
0.0
  0
VERTEX
  5
1F8
330
41
100
AcDbEntity
  8
EBENE_1
 62
     7
100
AcDbVertex
100
AcDb2dVertex
 10
85.5999999785998
 20
-43.48312498912861
 30
0.0
  0
VERTEX
  5
1F9
330
41
100
AcDbEntity
  8
EBENE_1
 62
     7
100
AcDbVertex
100
AcDb2dVertex
 10
85.5999999785998
 20
-44.23281248894106
 30
0.0
  0
VERTEX
  5
1FA
330
41
100
AcDbEntity
  8
EBENE_1
 62
     7
100
AcDbVertex
100
AcDb2dVertex
 10
85.5999999785998
 20
-44.98249998875383
 30
0.0
  0
VERTEX
  5
1FB
330
41
100
AcDbEntity
  8
EBENE_1
 62
     7
100
AcDbVertex
100
AcDb2dVertex
 10
85.5999999785998
 20
-45.7321874885666
 30
0.0
  0
VERTEX
  5
1FC
330
41
100
AcDbEntity
  8
EBENE_1
 62
     7
100
AcDbVertex
100
AcDb2dVertex
 10
85.5999999785998
 20
-46.48187498837905
 30
0.0
  0
VERTEX
  5
1FD
330
41
100
AcDbEntity
  8
EBENE_1
 62
     7
100
AcDbVertex
100
AcDb2dVertex
 10
85.5999999785998
 20
-47.2315624881915
 30
0.0
  0
VERTEX
  5
1FE
330
41
100
AcDbEntity
  8
EBENE_1
 62
     7
100
AcDbVertex
100
AcDb2dVertex
 10
85.5999999785998
 20
-47.98124998800395
 30
0.0
  0
VERTEX
  5
1FF
330
41
100
AcDbEntity
  8
EBENE_1
 62
     7
100
AcDbVertex
100
AcDb2dVertex
 10
85.5999999785998
 20
-48.7309374878164
 30
0.0
  0
VERTEX
  5
200
330
41
100
AcDbEntity
  8
EBENE_1
 62
     7
100
AcDbVertex
100
AcDb2dVertex
 10
85.5999999785998
 20
-49.48062498762916
 30
0.0
  0
VERTEX
  5
201
330
41
100
AcDbEntity
  8
EBENE_1
 62
     7
100
AcDbVertex
100
AcDb2dVertex
 10
85.5999999785998
 20
-50.23031248744194
 30
0.0
  0
VERTEX
  5
202
330
41
100
AcDbEntity
  8
EBENE_1
 62
     7
100
AcDbVertex
100
AcDb2dVertex
 10
85.5999999785998
 20
-50.97999998725438
 30
0.0
  0
VERTEX
  5
203
330
41
100
AcDbEntity
  8
EBENE_1
 62
     7
100
AcDbVertex
100
AcDb2dVertex
 10
85.59901521450108
 20
-51.05712000524063
 30
0.0
  0
VERTEX
  5
204
330
41
100
AcDbEntity
  8
EBENE_1
 62
     7
100
AcDbVertex
100
AcDb2dVertex
 10
85.5960769439329
 20
-51.13377653750916
 30
0.0
  0
VERTEX
  5
205
330
41
100
AcDbEntity
  8
EBENE_1
 62
     7
100
AcDbVertex
100
AcDb2dVertex
 10
85.59120919948842
 20
-51.20994555146712
 30
0.0
  0
VERTEX
  5
206
330
41
100
AcDbEntity
  8
EBENE_1
 62
     7
100
AcDbVertex
100
AcDb2dVertex
 10
85.58443601375984
 20
-51.28560301452197
 30
0.0
  0
VERTEX
  5
207
330
41
100
AcDbEntity
  8
EBENE_1
 62
     7
100
AcDbVertex
100
AcDb2dVertex
 10
85.57578141934069
 20
-51.36072489408085
 30
0.0
  0
VERTEX
  5
208
330
41
100
AcDbEntity
  8
EBENE_1
 62
     7
100
AcDbVertex
100
AcDb2dVertex
 10
85.56526944882316
 20
-51.4352871575509
 30
0.0
  0
VERTEX
  5
209
330
41
100
AcDbEntity
  8
EBENE_1
 62
     7
100
AcDbVertex
100
AcDb2dVertex
 10
85.55292413480045
 20
-51.50926577233957
 30
0.0
  0
VERTEX
  5
20A
330
41
100
AcDbEntity
  8
EBENE_1
 62
     7
100
AcDbVertex
100
AcDb2dVertex
 10
85.53876950986508
 20
-51.58263670585404
 30
0.0
  0
VERTEX
  5
20B
330
41
100
AcDbEntity
  8
EBENE_1
 62
     7
100
AcDbVertex
100
AcDb2dVertex
 10
85.52282960660959
 20
-51.65537592550141
 30
0.0
  0
VERTEX
  5
20C
330
41
100
AcDbEntity
  8
EBENE_1
 62
     7
100
AcDbVertex
100
AcDb2dVertex
 10
85.5051284576275
 20
-51.72745939868884
 30
0.0
  0
VERTEX
  5
20D
330
41
100
AcDbEntity
  8
EBENE_1
 62
     7
100
AcDbVertex
100
AcDb2dVertex
 10
85.48569009551069
 20
-51.7988630928238
 30
0.0
  0
VERTEX
  5
20E
330
41
100
AcDbEntity
  8
EBENE_1
 62
     7
100
AcDbVertex
100
AcDb2dVertex
 10
85.46453855285235
 20
-51.86956297531374
 30
0.0
  0
VERTEX
  5
20F
330
41
100
AcDbEntity
  8
EBENE_1
 62
     7
100
AcDbVertex
100
AcDb2dVertex
 10
85.44169786224532
 20
-51.93953501356516
 30
0.0
  0
VERTEX
  5
210
330
41
100
AcDbEntity
  8
EBENE_1
 62
     7
100
AcDbVertex
100
AcDb2dVertex
 10
85.41719205628215
 20
-52.00875517498585
 30
0.0
  0
VERTEX
  5
211
330
41
100
AcDbEntity
  8
EBENE_1
 62
     7
100
AcDbVertex
100
AcDb2dVertex
 10
85.391045167556
 20
-52.07719942698295
 30
0.0
  0
VERTEX
  5
212
330
41
100
AcDbEntity
  8
EBENE_1
 62
     7
100
AcDbVertex
100
AcDb2dVertex
 10
85.36328122865912
 20
-52.1448437369636
 30
0.0
  0
VERTEX
  5
213
330
41
100
AcDbEntity
  8
EBENE_1
 62
     7
100
AcDbVertex
100
AcDb2dVertex
 10
85.33392427218467
 20
-52.21166407233495
 30
0.0
  0
VERTEX
  5
214
330
41
100
AcDbEntity
  8
EBENE_1
 62
     7
100
AcDbVertex
100
AcDb2dVertex
 10
85.30299833072488
 20
-52.27763640050444
 30
0.0
  0
VERTEX
  5
215
330
41
100
AcDbEntity
  8
EBENE_1
 62
     7
100
AcDbVertex
100
AcDb2dVertex
 10
85.27052743687322
 20
-52.34273668887923
 30
0.0
  0
VERTEX
  5
216
330
41
100
AcDbEntity
  8
EBENE_1
 62
     7
100
AcDbVertex
100
AcDb2dVertex
 10
85.23653562322225
 20
-52.40694090486679
 30
0.0
  0
VERTEX
  5
217
330
41
100
AcDbEntity
  8
EBENE_1
 62
     7
100
AcDbVertex
100
AcDb2dVertex
 10
85.20104692236451
 20
-52.47022501587391
 30
0.0
  0
VERTEX
  5
218
330
41
100
AcDbEntity
  8
EBENE_1
 62
     7
100
AcDbVertex
100
AcDb2dVertex
 10
85.16408536689254
 20
-52.53256498930809
 30
0.0
  0
VERTEX
  5
219
330
41
100
AcDbEntity
  8
EBENE_1
 62
     7
100
AcDbVertex
100
AcDb2dVertex
 10
85.1256749893995
 20
-52.59393679257644
 30
0.0
  0
VERTEX
  5
21A
330
41
100
AcDbEntity
  8
EBENE_1
 62
     7
100
AcDbVertex
100
AcDb2dVertex
 10
85.08583982247858
 20
-52.65431639308613
 30
0.0
  0
VERTEX
  5
21B
330
41
100
AcDbEntity
  8
EBENE_1
 62
     7
100
AcDbVertex
100
AcDb2dVertex
 10
85.044603898722
 20
-52.7136797582446
 30
0.0
  0
VERTEX
  5
21C
330
41
100
AcDbEntity
  8
EBENE_1
 62
     7
100
AcDbVertex
100
AcDb2dVertex
 10
85.00199125072228
 20
-52.77200285545899
 30
0.0
  0
VERTEX
  5
21D
330
41
100
AcDbEntity
  8
EBENE_1
 62
     7
100
AcDbVertex
100
AcDb2dVertex
 10
84.95802591107264
 20
-52.82926165213646
 30
0.0
  0
VERTEX
  5
21E
330
41
100
AcDbEntity
  8
EBENE_1
 62
     7
100
AcDbVertex
100
AcDb2dVertex
 10
84.9127319123659
 20
-52.88543211568447
 30
0.0
  0
VERTEX
  5
21F
330
41
100
AcDbEntity
  8
EBENE_1
 62
     7
100
AcDbVertex
100
AcDb2dVertex
 10
84.86613328719429
 20
-52.94049021351014
 30
0.0
  0
VERTEX
  5
220
330
41
100
AcDbEntity
  8
EBENE_1
 62
     7
100
AcDbVertex
100
AcDb2dVertex
 10
84.81825406815098
 20
-52.99441191302063
 30
0.0
  0
VERTEX
  5
221
330
41
100
AcDbEntity
  8
EBENE_1
 62
     7
100
AcDbVertex
100
AcDb2dVertex
 10
84.76911828782885
 20
-53.04717318162309
 30
0.0
  0
VERTEX
  5
222
330
41
100
AcDbEntity
  8
EBENE_1
 62
     7
100
AcDbVertex
100
AcDb2dVertex
 10
84.7187499788204
 20
-53.09874998672495
 30
0.0
  0
VERTEX
  5
223
330
41
100
AcDbEntity
  8
EBENE_1
 62
     7
100
AcDbVertex
100
AcDb2dVertex
 10
84.66717317371854
 20
-53.14911829573339
 30
0.0
  0
VERTEX
  5
224
330
41
100
AcDbEntity
  8
EBENE_1
 62
     7
100
AcDbVertex
100
AcDb2dVertex
 10
84.61441190511609
 20
-53.19825407605553
 30
0.0
  0
VERTEX
  5
225
330
41
100
AcDbEntity
  8
EBENE_1
 62
     7
100
AcDbVertex
100
AcDb2dVertex
 10
84.56049020560559
 20
-53.24613329509884
 30
0.0
  0
VERTEX
  5
226
330
41
100
AcDbEntity
  8
EBENE_1
 62
     7
100
AcDbVertex
100
AcDb2dVertex
 10
84.50543210777991
 20
-53.29273192027045
 30
0.0
  0
VERTEX
  5
227
330
41
100
AcDbEntity
  8
EBENE_1
 62
     7
100
AcDbVertex
100
AcDb2dVertex
 10
84.44926164423191
 20
-53.33802591897719
 30
0.0
  0
VERTEX
  5
228
330
41
100
AcDbEntity
  8
EBENE_1
 62
     7
100
AcDbVertex
100
AcDb2dVertex
 10
84.39200284755444
 20
-53.38199125862684
 30
0.0
  0
VERTEX
  5
229
330
41
100
AcDbEntity
  8
EBENE_1
 62
     7
100
AcDbVertex
100
AcDb2dVertex
 10
84.33367975034004
 20
-53.42460390662654
 30
0.0
  0
VERTEX
  5
22A
330
41
100
AcDbEntity
  8
EBENE_1
 62
     7
100
AcDbVertex
100
AcDb2dVertex
 10
84.27431638518158
 20
-53.46583983038313
 30
0.0
  0
VERTEX
  5
22B
330
41
100
AcDbEntity
  8
EBENE_1
 62
     7
100
AcDbVertex
100
AcDb2dVertex
 10
84.21393678467189
 20
-53.50567499730405
 30
0.0
  0
VERTEX
  5
22C
330
41
100
AcDbEntity
  8
EBENE_1
 62
     7
100
AcDbVertex
100
AcDb2dVertex
 10
84.15256498140354
 20
-53.54408537479708
 30
0.0
  0
VERTEX
  5
22D
330
41
100
AcDbEntity
  8
EBENE_1
 62
     7
100
AcDbVertex
100
AcDb2dVertex
 10
84.09022500796937
 20
-53.58104693026907
 30
0.0
  0
VERTEX
  5
22E
330
41
100
AcDbEntity
  8
EBENE_1
 62
     7
100
AcDbVertex
100
AcDb2dVertex
 10
84.02694089696223
 20
-53.61653563112681
 30
0.0
  0
VERTEX
  5
22F
330
41
100
AcDbEntity
  8
EBENE_1
 62
     7
100
AcDbVertex
100
AcDb2dVertex
 10
83.96273668097469
 20
-53.65052744477777
 30
0.0
  0
VERTEX
  5
230
330
41
100
AcDbEntity
  8
EBENE_1
 62
     7
100
AcDbVertex
100
AcDb2dVertex
 10
83.89763639259989
 20
-53.68299833862942
 30
0.0
  0
VERTEX
  5
231
330
41
100
AcDbEntity
  8
EBENE_1
 62
     7
100
AcDbVertex
100
AcDb2dVertex
 10
83.8316640644304
 20
-53.71392428008922
 30
0.0
  0
VERTEX
  5
232
330
41
100
AcDbEntity
  8
EBENE_1
 62
     7
100
AcDbVertex
100
AcDb2dVertex
 10
83.76484372905905
 20
-53.74328123656367
 30
0.0
  0
VERTEX
  5
233
330
41
100
AcDbEntity
  8
EBENE_1
 62
     7
100
AcDbVertex
100
AcDb2dVertex
 10
83.6971994190784
 20
-53.77104517546056
 30
0.0
  0
VERTEX
  5
234
330
41
100
AcDbEntity
  8
EBENE_1
 62
     7
100
AcDbVertex
100
AcDb2dVertex
 10
83.6287551670813
 20
-53.7971920641867
 30
0.0
  0
VERTEX
  5
235
330
41
100
AcDbEntity
  8
EBENE_1
 62
     7
100
AcDbVertex
100
AcDb2dVertex
 10
83.5595350056606
 20
-53.82169787014987
 30
0.0
  0
VERTEX
  5
236
330
41
100
AcDbEntity
  8
EBENE_1
 62
     7
100
AcDbVertex
100
AcDb2dVertex
 10
83.48956296740919
 20
-53.8445385607569
 30
0.0
  0
VERTEX
  5
237
330
41
100
AcDbEntity
  8
EBENE_1
 62
     7
100
AcDbVertex
100
AcDb2dVertex
 10
83.41886308491925
 20
-53.86569010341525
 30
0.0
  0
VERTEX
  5
238
330
41
100
AcDbEntity
  8
EBENE_1
 62
     7
100
AcDbVertex
100
AcDb2dVertex
 10
83.3474593907843
 20
-53.88512846553206
 30
0.0
  0
VERTEX
  5
239
330
41
100
AcDbEntity
  8
EBENE_1
 62
     7
100
AcDbVertex
100
AcDb2dVertex
 10
83.27537591759686
 20
-53.90282961451415
 30
0.0
  0
VERTEX
  5
23A
330
41
100
AcDbEntity
  8
EBENE_1
 62
     7
100
AcDbVertex
100
AcDb2dVertex
 10
83.20263669794949
 20
-53.91876951776963
 30
0.0
  0
VERTEX
  5
23B
330
41
100
AcDbEntity
  8
EBENE_1
 62
     7
100
AcDbVertex
100
AcDb2dVertex
 10
83.12926576443502
 20
-53.93292414270499
 30
0.0
  0
VERTEX
  5
23C
330
41
100
AcDbEntity
  8
EBENE_1
 62
     7
100
AcDbVertex
100
AcDb2dVertex
 10
83.05528714964635
 20
-53.94526945672771
 30
0.0
  0
VERTEX
  5
23D
330
41
100
AcDbEntity
  8
EBENE_1
 62
     7
100
AcDbVertex
100
AcDb2dVertex
 10
82.98072488617629
 20
-53.95578142724523
 30
0.0
  0
VERTEX
  5
23E
330
41
100
AcDbEntity
  8
EBENE_1
 62
     7
100
AcDbVertex
100
AcDb2dVertex
 10
82.90560300661741
 20
-53.96443602166439
 30
0.0
  0
VERTEX
  5
23F
330
41
100
AcDbEntity
  8
EBENE_1
 62
     7
100
AcDbVertex
100
AcDb2dVertex
 10
82.82994554356257
 20
-53.97120920739297
 30
0.0
  0
VERTEX
  5
240
330
41
100
AcDbEntity
  8
EBENE_1
 62
     7
100
AcDbVertex
100
AcDb2dVertex
 10
82.75377652960461
 20
-53.97607695183745
 30
0.0
  0
VERTEX
  5
241
330
41
100
AcDbEntity
  8
EBENE_1
 62
     7
100
AcDbVertex
100
AcDb2dVertex
 10
82.67711999733608
 20
-53.97901522240564
 30
0.0
  0
VERTEX
  5
242
330
41
100
AcDbEntity
  8
EBENE_1
 62
     7
100
AcDbVertex
100
AcDb2dVertex
 10
82.59999997934983
 20
-53.97999998650435
 30
0.0
  0
VERTEX
  5
243
330
41
100
AcDbEntity
  8
EBENE_1
 62
     7
100
AcDbVertex
100
AcDb2dVertex
 10
82.59999997934983
 20
-53.97999998650435
 30
0.0
  0
SEQEND
  5
244
330
41
100
AcDbEntity
  8
EBENE_1
 62
     7
  0
ENDSEC
  0
SECTION
  2
OBJECTS
  0
DICTIONARY
  5
C
330
0
100
AcDbDictionary
  3
ACAD_GROUP
350
D
  3
ACAD_LAYOUT
350
1A
  3
ACAD_MATERIAL
350
3B
  3
ACAD_MLEADERSTYLE
350
247
  3
ACAD_MLINESTYLE
350
17
  3
ACAD_PLOTSETTINGS
350
19
  3
ACAD_VISUALSTYLE
350
2A
  3
ACDBVARIABLEDICTIONARY
350
245
1001
ACAD
1000
TREAT_AS_HARD
1070
     0
  0
DICTIONARY
  5
D
102
{ACAD_REACTORS
330
C
102
}
330
C
100
AcDbDictionary
1001
ACAD
1000
TREAT_AS_HARD
1070
     0
  0
DICTIONARY
  5
1A
102
{ACAD_REACTORS
330
C
102
}
330
C
100
AcDbDictionary
1001
ACAD
1000
TREAT_AS_HARD
1070
     0
  0
DICTIONARY
  5
3B
102
{ACAD_REACTORS
330
C
102
}
330
C
100
AcDbDictionary
  3
BYBLOCK
350
3D
  3
BYLAYER
350
3C
  3
GLOBAL
350
3E
1001
ACAD
1000
TREAT_AS_HARD
1070
     0
  0
DICTIONARY
  5
247
102
{ACAD_REACTORS
330
C
102
}
330
C
100
AcDbDictionary
1001
ACAD
1000
TREAT_AS_HARD
1070
     0
  0
DICTIONARY
  5
17
102
{ACAD_REACTORS
330
C
102
}
330
C
100
AcDbDictionary
  3
STANDARD
350
18
1001
ACAD
1000
TREAT_AS_HARD
1070
     0
  0
DICTIONARY
  5
19
102
{ACAD_REACTORS
330
C
102
}
330
C
100
AcDbDictionary
1001
ACAD
1000
TREAT_AS_HARD
1070
     0
  0
DICTIONARY
  5
2A
102
{ACAD_REACTORS
330
C
102
}
330
C
100
AcDbDictionary
  3
2DWIREFRAME
350
2F
  3
3D_HIDDEN
350
31
  3
3DWIREFRAME
350
30
  3
BASIC
350
32
  3
BRIGHTEN
350
36
  3
COLORCHANGE
350
3A
  3
CONCEPTUAL
350
34
  3
DIM
350
35
  3
FACEPATTERN
350
39
  3
FLAT
350
2B
  3
FLATWITHEDGES
350
2C
  3
GOURAUD
350
2D
  3
GOURAUDWITHEDGES
350
2E
  3
LINEPATTERN
350
38
  3
REALISTIC
350
33
  3
THICKEN
350
37
1001
ACAD
1000
TREAT_AS_HARD
1070
     0
  0
DICTIONARY
  5
245
102
{ACAD_REACTORS
330
C
102
}
330
C
100
AcDbDictionary
  3
DIMASSOC
350
248
  3
HIDETEXT
350
249
1001
ACAD
1000
TREAT_AS_HARD
1070
     0
  0
MATERIAL
  5
3D
102
{ACAD_REACTORS
330
3B
102
}
102
{ACAD_XDICTIONARY
360
24C
102
}
330
3B
100
AcDbMaterial
  1
ByBlock
  0
MATERIAL
  5
3C
102
{ACAD_REACTORS
330
3B
102
}
102
{ACAD_XDICTIONARY
360
24A
102
}
330
3B
100
AcDbMaterial
  1
ByLayer
  0
MATERIAL
  5
3E
102
{ACAD_REACTORS
330
3B
102
}
102
{ACAD_XDICTIONARY
360
24E
102
}
330
3B
100
AcDbMaterial
  1
Global
  0
MLINESTYLE
  5
18
102
{ACAD_REACTORS
330
17
102
}
330
17
100
AcDbMlineStyle
  2
Standard
 70
     0
  3

 62
   256
 51
90.0
 52
90.0
 71
     2
 49
0.5
 62
   256
  6
BYLAYER
 49
-0.5
 62
   256
  6
BYLAYER
  0
ACAD_PROXY_OBJECT
  5
2F
102
{ACAD_REACTORS
330
2A
102
}
330
2A
100
AcDbZombieObject
 90
      499
 91
      501
 93
      436
310
42CC9915DA5C99599C985B595049028333333333333E3BF0000000000000FB0107901411070040501600405405064090741402480A0340
1001
ACAD
1000
AcDbSavedByObjectVersion
1070
     0
  0
ACAD_PROXY_OBJECT
  5
31
102
{ACAD_REACTORS
330
2A
102
}
330
2A
100
AcDbZombieObject
 90
      499
 91
      501
 93
      500
310
424CD108121A5919195B90640502408333333333333E3BF0000000000000FB01079024090700405020000000000001110200405405064090740C02480A0340
1001
ACAD
1000
AcDbSavedByObjectVersion
1070
     0
  0
ACAD_PROXY_OBJECT
  5
30
102
{ACAD_REACTORS
330
2A
102
}
330
2A
100
AcDbZombieObject
 90
      499
 91
      501
 93
      436
310
42CCD915DA5C99599C985B595059028333333333333E3BF0000000000000FB0107901411070040501600405405064090741402480A0340
1001
ACAD
1000
AcDbSavedByObjectVersion
1070
     0
  0
ACAD_PROXY_OBJECT
  5
32
102
{ACAD_REACTORS
330
2A
102
}
330
2A
100
AcDbZombieObject
 90
      499
 91
      501
 93
      388
310
4150985CDA58D07406404333333333333E3BF0000000000000FB0107A41107004050150841D405064090741402480A0350
1001
ACAD
1000
AcDbSavedByObjectVersion
1070
     0
  0
ACAD_PROXY_OBJECT
  5
36
102
{ACAD_REACTORS
330
2A
102
}
330
2A
100
AcDbZombieObject
 90
      499
 91
      501
 93
      428
310
42109C9A59DA1D195B90C409028333333333333E3BF0000000000000FB010790141107004050150841D405064090741402480A029950
1001
ACAD
1000
AcDbSavedByObjectVersion
1070
     0
  0
ACAD_PROXY_OBJECT
  5
3A
102
{ACAD_REACTORS
330
2A
102
}
330
2A
100
AcDbZombieObject
 90
      499
 91
      501
 93
      452
310
42D0DBDB1BDC90DA185B99D95104090240C333333333333E3BF0000000000000FB0108901411070040501508421405064090741402480A0350
1001
ACAD
1000
AcDbSavedByObjectVersion
1070
     0
  0
ACAD_PROXY_OBJECT
  5
34
102
{ACAD_REACTORS
330
2A
102
}
330
2A
100
AcDbZombieObject
 90
      499
 91
      501
 93
      500
310
4290DBDB98D95C1D1D585B10940D028333333333333E3BF0000000000000FB0107902409070040501000000000000111010841D405064090740C02480A0340
1001
ACAD
1000
AcDbSavedByObjectVersion
1070
     0
  0
ACAD_PROXY_OBJECT
  5
35
102
{ACAD_REACTORS
330
2A
102
}
330
2A
100
AcDbZombieObject
 90
      499
 91
      501
 93
      412
310
40D11A5B50B409028333333333333E3BF0000000000000FB010790141107004050150841D405064090741402480A02677FFFFFD0
1001
ACAD
1000
AcDbSavedByObjectVersion
1070
     0
  0
ACAD_PROXY_OBJECT
  5
39
102
{ACAD_REACTORS
330
2A
102
}
330
2A
100
AcDbZombieObject
 90
      499
 91
      501
 93
      444
310
42D19858D95C185D1D195C9B90F409028333333333333E3BF0000000000000FB010790141107004050150841D405064090741402480A0350
1001
ACAD
1000
AcDbSavedByObjectVersion
1070
     0
  0
ACAD_PROXY_OBJECT
  5
2B
102
{ACAD_REACTORS
330
2A
102
}
330
2A
100
AcDbZombieObject
 90
      499
 91
      501
 93
      388
310
41119B185D240901404333333333333E3BF0000000000000F9010740A41107004050150841D405064090741402480A1B50
1001
ACAD
1000
AcDbSavedByObjectVersion
1070
     0
  0
ACAD_PROXY_OBJECT
  5
2C
102
{ACAD_REACTORS
330
2A
102
}
330
2A
100
AcDbZombieObject
 90
      499
 91
      501
 93
      476
310
43519B185D15DA5D1A115919D95CD0140901404333333333333E3BF0000000000000F9010740901411070040501600405405064090741402480A1B50
1001
ACAD
1000
AcDbSavedByObjectVersion
1070
     0
  0
ACAD_PROXY_OBJECT
  5
2D
102
{ACAD_REACTORS
330
2A
102
}
330
2A
100
AcDbZombieObject
 90
      499
 91
      501
 93
      412
310
41D1DBDD5C985D5910240902404333333333333E3BF0000000000000F9010740A411070040501641D405064090741402480A1B50
1001
ACAD
1000
AcDbSavedByObjectVersion
1070
     0
  0
ACAD_PROXY_OBJECT
  5
2E
102
{ACAD_REACTORS
330
2A
102
}
330
2A
100
AcDbZombieObject
 90
      499
 91
      501
 93
      500
310
4411DBDD5C985D5915DA5D1A115919D95CD0340902404333333333333E3BF0000000000000F9010740901411070040501600405405064090741402480A1B50
1001
ACAD
1000
AcDbSavedByObjectVersion
1070
     0
  0
ACAD_PROXY_OBJECT
  5
38
102
{ACAD_REACTORS
330
2A
102
}
330
2A
100
AcDbZombieObject
 90
      499
 91
      501
 93
      444
310
42D31A5B995C185D1D195C9B90E409028333333333333E3BF0000000000000FB010790141107004050750841D405064090741402483A0350
1001
ACAD
1000
AcDbSavedByObjectVersion
1070
     0
  0
ACAD_PROXY_OBJECT
  5
33
102
{ACAD_REACTORS
330
2A
102
}
330
2A
100
AcDbZombieObject
 90
      499
 91
      501
 93
      420
310
425499585B1A5CDD1A58D08409028333333333333E3BF0000000000000FB01079019070040501508421405064090741402480A1B40
1001
ACAD
1000
AcDbSavedByObjectVersion
1070
     0
  0
ACAD_PROXY_OBJECT
  5
37
102
{ACAD_REACTORS
330
2A
102
}
330
2A
100
AcDbZombieObject
 90
      499
 91
      501
 93
      412
310
41D51A1A58DAD95B90D409028333333333333E3BF0000000000000FB010790141107004050150C41D405064090741402480A0350
1001
ACAD
1000
AcDbSavedByObjectVersion
1070
     0
  0
DICTIONARYVAR
  5
248
102
{ACAD_REACTORS
330
245
102
}
330
245
100
DictionaryVariables
280
     0
  1
2
  0
DICTIONARYVAR
  5
249
102
{ACAD_REACTORS
330
245
102
}
330
245
100
DictionaryVariables
280
     0
  1
1
  0
DICTIONARY
  5
24C
330
3D
100
AcDbDictionary
  3
ACAD_XREC_ROUNDTRIP
360
24D
1001
ACAD
1000
TREAT_AS_HARD
1070
     1
  0
DICTIONARY
  5
24A
330
3C
100
AcDbDictionary
  3
ACAD_XREC_ROUNDTRIP
360
24B
1001
ACAD
1000
TREAT_AS_HARD
1070
     1
  0
DICTIONARY
  5
24E
330
3E
100
AcDbDictionary
  3
ACAD_XREC_ROUNDTRIP
360
24F
1001
ACAD
1000
TREAT_AS_HARD
1070
     1
  0
XRECORD
  5
24D
102
{ACAD_REACTORS
330
24C
102
}
330
24C
100
AcDbXrecord
102
MATERIAL
148
0.0
149
0.0
149
0.0
 93
        0
 94
      127
282
     0
 72
     1
 77
     1
171
     1
175
     1
179
     1
273
     0
  0
XRECORD
  5
24B
102
{ACAD_REACTORS
330
24A
102
}
330
24A
100
AcDbXrecord
102
MATERIAL
148
0.0
149
0.0
149
0.0
 93
        0
 94
      127
282
     0
 72
     1
 77
     1
171
     1
175
     1
179
     1
273
     0
  0
XRECORD
  5
24F
102
{ACAD_REACTORS
330
24E
102
}
330
24E
100
AcDbXrecord
102
MATERIAL
148
0.0
149
0.0
149
0.0
 93
        0
 94
      127
282
     0
 72
     1
 77
     1
171
     1
175
     1
179
     1
273
     0
  0
ENDSEC
  0
EOF
