G04 #@! TF.FileFunction,Other,Fab,Top*
%FSLAX46Y46*%
G04 Gerber Fmt 4.6, Leading zero omitted, Abs format (unit mm)*
G04 Created by KiCad (PCBNEW 4.0.7) date 04/10/18 20:30:17*
%MOMM*%
%LPD*%
G01*
G04 APERTURE LIST*
%ADD10C,0.100000*%
%ADD11C,0.150000*%
%ADD12C,0.075000*%
%ADD13C,0.105000*%
G04 APERTURE END LIST*
D10*
X121015000Y-87645000D02*
X121015000Y-88885000D01*
X119015000Y-87645000D02*
X121015000Y-87645000D01*
X119015000Y-88885000D02*
X119015000Y-87645000D01*
X121015000Y-88885000D02*
X119015000Y-88885000D01*
D11*
X131000000Y-92090000D02*
X152000000Y-92090000D01*
X131000000Y-92090000D02*
X131000000Y-78090000D01*
X152000000Y-92090000D02*
X152000000Y-78090000D01*
X131000000Y-78090000D02*
X152000000Y-78090000D01*
D10*
X148903701Y-102603393D02*
X150143701Y-102603393D01*
X148903701Y-104603393D02*
X148903701Y-102603393D01*
X150143701Y-104603393D02*
X148903701Y-104603393D01*
X150143701Y-102603393D02*
X150143701Y-104603393D01*
X121015000Y-81295000D02*
X121015000Y-82535000D01*
X119015000Y-81295000D02*
X121015000Y-81295000D01*
X119015000Y-82535000D02*
X119015000Y-81295000D01*
X121015000Y-82535000D02*
X119015000Y-82535000D01*
X153983701Y-102623393D02*
X155223701Y-102623393D01*
X153983701Y-104623393D02*
X153983701Y-102623393D01*
X155223701Y-104623393D02*
X153983701Y-104623393D01*
X155223701Y-102623393D02*
X155223701Y-104623393D01*
X171685000Y-84925000D02*
X172485000Y-84925000D01*
X171685000Y-86525000D02*
X171685000Y-84925000D01*
X172485000Y-86525000D02*
X171685000Y-86525000D01*
X172485000Y-84925000D02*
X172485000Y-86525000D01*
X168110000Y-89300000D02*
X168110000Y-88500000D01*
X169710000Y-89300000D02*
X168110000Y-89300000D01*
X169710000Y-88500000D02*
X169710000Y-89300000D01*
X168110000Y-88500000D02*
X169710000Y-88500000D01*
X167910000Y-100950000D02*
X167910000Y-99710000D01*
X169910000Y-100950000D02*
X167910000Y-100950000D01*
X169910000Y-99710000D02*
X169910000Y-100950000D01*
X167910000Y-99710000D02*
X169910000Y-99710000D01*
X169390000Y-82150000D02*
X169390000Y-82950000D01*
X167790000Y-82150000D02*
X169390000Y-82150000D01*
X167790000Y-82950000D02*
X167790000Y-82150000D01*
X169390000Y-82950000D02*
X167790000Y-82950000D01*
X176060000Y-79610000D02*
X176060000Y-80410000D01*
X174460000Y-79610000D02*
X176060000Y-79610000D01*
X174460000Y-80410000D02*
X174460000Y-79610000D01*
X176060000Y-80410000D02*
X174460000Y-80410000D01*
X157210000Y-81295000D02*
X157210000Y-82535000D01*
X155210000Y-81295000D02*
X157210000Y-81295000D01*
X155210000Y-82535000D02*
X155210000Y-81295000D01*
X157210000Y-82535000D02*
X155210000Y-82535000D01*
X161055000Y-79540000D02*
X160255000Y-79540000D01*
X161055000Y-77940000D02*
X161055000Y-79540000D01*
X160255000Y-77940000D02*
X161055000Y-77940000D01*
X160255000Y-79540000D02*
X160255000Y-77940000D01*
X155810000Y-115170000D02*
X155810000Y-115970000D01*
X155810000Y-115570000D02*
X156410000Y-115170000D01*
X156410000Y-115970000D02*
X155810000Y-115570000D01*
X156410000Y-115170000D02*
X156410000Y-115970000D01*
X155210000Y-116190000D02*
X155210000Y-114950000D01*
X157210000Y-116190000D02*
X155210000Y-116190000D01*
X157210000Y-114950000D02*
X157210000Y-116190000D01*
X155210000Y-114950000D02*
X157210000Y-114950000D01*
X163430000Y-115170000D02*
X163430000Y-115970000D01*
X163430000Y-115570000D02*
X164030000Y-115170000D01*
X164030000Y-115970000D02*
X163430000Y-115570000D01*
X164030000Y-115170000D02*
X164030000Y-115970000D01*
X162830000Y-116190000D02*
X162830000Y-114950000D01*
X164830000Y-116190000D02*
X162830000Y-116190000D01*
X164830000Y-114950000D02*
X164830000Y-116190000D01*
X162830000Y-114950000D02*
X164830000Y-114950000D01*
X171050000Y-115170000D02*
X171050000Y-115970000D01*
X171050000Y-115570000D02*
X171650000Y-115170000D01*
X171650000Y-115970000D02*
X171050000Y-115570000D01*
X171650000Y-115170000D02*
X171650000Y-115970000D01*
X170450000Y-116190000D02*
X170450000Y-114950000D01*
X172450000Y-116190000D02*
X170450000Y-116190000D01*
X172450000Y-114950000D02*
X172450000Y-116190000D01*
X170450000Y-114950000D02*
X172450000Y-114950000D01*
X178670000Y-115170000D02*
X178670000Y-115970000D01*
X178670000Y-115570000D02*
X179270000Y-115170000D01*
X179270000Y-115970000D02*
X178670000Y-115570000D01*
X179270000Y-115170000D02*
X179270000Y-115970000D01*
X178070000Y-116190000D02*
X178070000Y-114950000D01*
X180070000Y-116190000D02*
X178070000Y-116190000D01*
X180070000Y-114950000D02*
X180070000Y-116190000D01*
X178070000Y-114950000D02*
X180070000Y-114950000D01*
X186290000Y-115170000D02*
X186290000Y-115970000D01*
X186290000Y-115570000D02*
X186890000Y-115170000D01*
X186890000Y-115970000D02*
X186290000Y-115570000D01*
X186890000Y-115170000D02*
X186890000Y-115970000D01*
X185690000Y-116190000D02*
X185690000Y-114950000D01*
X187690000Y-116190000D02*
X185690000Y-116190000D01*
X187690000Y-114950000D02*
X187690000Y-116190000D01*
X185690000Y-114950000D02*
X187690000Y-114950000D01*
X110195000Y-106200000D02*
X120645000Y-106200000D01*
X110195000Y-97000000D02*
X110195000Y-106200000D01*
X120645000Y-97000000D02*
X120645000Y-106200000D01*
X110195000Y-97000000D02*
X120645000Y-97000000D01*
X116190000Y-86090000D02*
X114950000Y-86090000D01*
X116190000Y-84090000D02*
X116190000Y-86090000D01*
X114950000Y-84090000D02*
X116190000Y-84090000D01*
X114950000Y-86090000D02*
X114950000Y-84090000D01*
X149510000Y-93995000D02*
X149510000Y-95235000D01*
X147510000Y-93995000D02*
X149510000Y-93995000D01*
X147510000Y-95235000D02*
X147510000Y-93995000D01*
X149510000Y-95235000D02*
X147510000Y-95235000D01*
X152750000Y-95235000D02*
X152750000Y-93995000D01*
X154750000Y-95235000D02*
X152750000Y-95235000D01*
X154750000Y-93995000D02*
X154750000Y-95235000D01*
X152750000Y-93995000D02*
X154750000Y-93995000D01*
X169910000Y-102250000D02*
X169910000Y-103490000D01*
X167910000Y-102250000D02*
X169910000Y-102250000D01*
X167910000Y-103490000D02*
X167910000Y-102250000D01*
X169910000Y-103490000D02*
X167910000Y-103490000D01*
X173340000Y-102600000D02*
X172100000Y-102600000D01*
X173340000Y-100600000D02*
X173340000Y-102600000D01*
X172100000Y-100600000D02*
X173340000Y-100600000D01*
X172100000Y-102600000D02*
X172100000Y-100600000D01*
X163845000Y-77740000D02*
X165085000Y-77740000D01*
X163845000Y-79740000D02*
X163845000Y-77740000D01*
X165085000Y-79740000D02*
X163845000Y-79740000D01*
X165085000Y-77740000D02*
X165085000Y-79740000D01*
X163180000Y-96330000D02*
X161940000Y-96330000D01*
X163180000Y-94330000D02*
X163180000Y-96330000D01*
X161940000Y-94330000D02*
X163180000Y-94330000D01*
X161940000Y-96330000D02*
X161940000Y-94330000D01*
X155210000Y-113650000D02*
X155210000Y-112410000D01*
X157210000Y-113650000D02*
X155210000Y-113650000D01*
X157210000Y-112410000D02*
X157210000Y-113650000D01*
X155210000Y-112410000D02*
X157210000Y-112410000D01*
X162830000Y-113650000D02*
X162830000Y-112410000D01*
X164830000Y-113650000D02*
X162830000Y-113650000D01*
X164830000Y-112410000D02*
X164830000Y-113650000D01*
X162830000Y-112410000D02*
X164830000Y-112410000D01*
X170450000Y-113650000D02*
X170450000Y-112410000D01*
X172450000Y-113650000D02*
X170450000Y-113650000D01*
X172450000Y-112410000D02*
X172450000Y-113650000D01*
X170450000Y-112410000D02*
X172450000Y-112410000D01*
X178070000Y-113650000D02*
X178070000Y-112410000D01*
X180070000Y-113650000D02*
X178070000Y-113650000D01*
X180070000Y-112410000D02*
X180070000Y-113650000D01*
X178070000Y-112410000D02*
X180070000Y-112410000D01*
X185690000Y-113650000D02*
X185690000Y-112410000D01*
X187690000Y-113650000D02*
X185690000Y-113650000D01*
X187690000Y-112410000D02*
X187690000Y-113650000D01*
X185690000Y-112410000D02*
X187690000Y-112410000D01*
X157210000Y-86375000D02*
X157210000Y-87615000D01*
X155210000Y-86375000D02*
X157210000Y-86375000D01*
X155210000Y-87615000D02*
X155210000Y-86375000D01*
X157210000Y-87615000D02*
X155210000Y-87615000D01*
X157210000Y-88915000D02*
X157210000Y-90155000D01*
X155210000Y-88915000D02*
X157210000Y-88915000D01*
X155210000Y-90155000D02*
X155210000Y-88915000D01*
X157210000Y-90155000D02*
X155210000Y-90155000D01*
X157210000Y-83835000D02*
X157210000Y-85075000D01*
X155210000Y-83835000D02*
X157210000Y-83835000D01*
X155210000Y-85075000D02*
X155210000Y-83835000D01*
X157210000Y-85075000D02*
X155210000Y-85075000D01*
D11*
X120880000Y-85117881D02*
X120880000Y-86117881D01*
X120880000Y-86117881D02*
X117880000Y-86117881D01*
X117880000Y-86117881D02*
X117880000Y-84117881D01*
X117880000Y-84117881D02*
X119880000Y-84117881D01*
X119880000Y-84117881D02*
X120880000Y-85117881D01*
D10*
X160110000Y-102550000D02*
X160110000Y-99650000D01*
X160110000Y-99650000D02*
X165010000Y-99650000D01*
X165010000Y-99650000D02*
X165010000Y-103550000D01*
X165010000Y-103550000D02*
X161110000Y-103550000D01*
X161110000Y-103550000D02*
X160110000Y-102550000D01*
D11*
X165060000Y-83590000D02*
X165060000Y-87590000D01*
X165060000Y-87590000D02*
X160060000Y-87590000D01*
X160060000Y-87590000D02*
X160060000Y-82590000D01*
X160060000Y-82590000D02*
X164060000Y-82590000D01*
X164060000Y-82590000D02*
X165060000Y-83590000D01*
D10*
X170310000Y-86975000D02*
X167510000Y-86975000D01*
X167510000Y-86975000D02*
X167310000Y-86775000D01*
X167310000Y-86775000D02*
X167310000Y-84675000D01*
X167310000Y-84675000D02*
X167510000Y-84475000D01*
X167510000Y-84475000D02*
X170310000Y-84475000D01*
X170310000Y-84475000D02*
X170510000Y-84675000D01*
X170510000Y-84675000D02*
X170510000Y-86775000D01*
X170510000Y-86775000D02*
X170310000Y-86975000D01*
X170510000Y-85475000D02*
X169510000Y-84475000D01*
D11*
X151463701Y-103168393D02*
G75*
G03X151463701Y-103168393I-100000J0D01*
G01*
X151063701Y-102368393D02*
X153063701Y-102368393D01*
X153063701Y-102368393D02*
X153063701Y-103568393D01*
X153063701Y-103568393D02*
X151063701Y-103568393D01*
X151063701Y-103568393D02*
X151063701Y-102368393D01*
X119848334Y-90372143D02*
X119800715Y-90419762D01*
X119657858Y-90467381D01*
X119562620Y-90467381D01*
X119419762Y-90419762D01*
X119324524Y-90324524D01*
X119276905Y-90229286D01*
X119229286Y-90038810D01*
X119229286Y-89895952D01*
X119276905Y-89705476D01*
X119324524Y-89610238D01*
X119419762Y-89515000D01*
X119562620Y-89467381D01*
X119657858Y-89467381D01*
X119800715Y-89515000D01*
X119848334Y-89562619D01*
X120753096Y-89467381D02*
X120276905Y-89467381D01*
X120229286Y-89943571D01*
X120276905Y-89895952D01*
X120372143Y-89848333D01*
X120610239Y-89848333D01*
X120705477Y-89895952D01*
X120753096Y-89943571D01*
X120800715Y-90038810D01*
X120800715Y-90276905D01*
X120753096Y-90372143D01*
X120705477Y-90419762D01*
X120610239Y-90467381D01*
X120372143Y-90467381D01*
X120276905Y-90419762D01*
X120229286Y-90372143D01*
X129468571Y-85018571D02*
X129516190Y-84875714D01*
X129563810Y-84828095D01*
X129659048Y-84780476D01*
X129801905Y-84780476D01*
X129897143Y-84828095D01*
X129944762Y-84875714D01*
X129992381Y-84970952D01*
X129992381Y-85351905D01*
X128992381Y-85351905D01*
X128992381Y-85018571D01*
X129040000Y-84923333D01*
X129087619Y-84875714D01*
X129182857Y-84828095D01*
X129278095Y-84828095D01*
X129373333Y-84875714D01*
X129420952Y-84923333D01*
X129468571Y-85018571D01*
X129468571Y-85351905D01*
X129611429Y-81660952D02*
X129611429Y-80899047D01*
X129992381Y-81279999D02*
X129230476Y-81279999D01*
X129611429Y-89280952D02*
X129611429Y-88519047D01*
X151630844Y-103770059D02*
X151678463Y-103817678D01*
X151726082Y-103960535D01*
X151726082Y-104055773D01*
X151678463Y-104198631D01*
X151583225Y-104293869D01*
X151487987Y-104341488D01*
X151297511Y-104389107D01*
X151154653Y-104389107D01*
X150964177Y-104341488D01*
X150868939Y-104293869D01*
X150773701Y-104198631D01*
X150726082Y-104055773D01*
X150726082Y-103960535D01*
X150773701Y-103817678D01*
X150821320Y-103770059D01*
X150821320Y-103389107D02*
X150773701Y-103341488D01*
X150726082Y-103246250D01*
X150726082Y-103008154D01*
X150773701Y-102912916D01*
X150821320Y-102865297D01*
X150916558Y-102817678D01*
X151011796Y-102817678D01*
X151154653Y-102865297D01*
X151726082Y-103436726D01*
X151726082Y-102817678D01*
X119848334Y-84022143D02*
X119800715Y-84069762D01*
X119657858Y-84117381D01*
X119562620Y-84117381D01*
X119419762Y-84069762D01*
X119324524Y-83974524D01*
X119276905Y-83879286D01*
X119229286Y-83688810D01*
X119229286Y-83545952D01*
X119276905Y-83355476D01*
X119324524Y-83260238D01*
X119419762Y-83165000D01*
X119562620Y-83117381D01*
X119657858Y-83117381D01*
X119800715Y-83165000D01*
X119848334Y-83212619D01*
X120181667Y-83117381D02*
X120800715Y-83117381D01*
X120467381Y-83498333D01*
X120610239Y-83498333D01*
X120705477Y-83545952D01*
X120753096Y-83593571D01*
X120800715Y-83688810D01*
X120800715Y-83926905D01*
X120753096Y-84022143D01*
X120705477Y-84069762D01*
X120610239Y-84117381D01*
X120324524Y-84117381D01*
X120229286Y-84069762D01*
X120181667Y-84022143D01*
X156710844Y-103790059D02*
X156758463Y-103837678D01*
X156806082Y-103980535D01*
X156806082Y-104075773D01*
X156758463Y-104218631D01*
X156663225Y-104313869D01*
X156567987Y-104361488D01*
X156377511Y-104409107D01*
X156234653Y-104409107D01*
X156044177Y-104361488D01*
X155948939Y-104313869D01*
X155853701Y-104218631D01*
X155806082Y-104075773D01*
X155806082Y-103980535D01*
X155853701Y-103837678D01*
X155901320Y-103790059D01*
X156139415Y-102932916D02*
X156806082Y-102932916D01*
X155758463Y-103171012D02*
X156472749Y-103409107D01*
X156472749Y-102790059D01*
X173692143Y-85891666D02*
X173739762Y-85939285D01*
X173787381Y-86082142D01*
X173787381Y-86177380D01*
X173739762Y-86320238D01*
X173644524Y-86415476D01*
X173549286Y-86463095D01*
X173358810Y-86510714D01*
X173215952Y-86510714D01*
X173025476Y-86463095D01*
X172930238Y-86415476D01*
X172835000Y-86320238D01*
X172787381Y-86177380D01*
X172787381Y-86082142D01*
X172835000Y-85939285D01*
X172882619Y-85891666D01*
X172787381Y-85034523D02*
X172787381Y-85225000D01*
X172835000Y-85320238D01*
X172882619Y-85367857D01*
X173025476Y-85463095D01*
X173215952Y-85510714D01*
X173596905Y-85510714D01*
X173692143Y-85463095D01*
X173739762Y-85415476D01*
X173787381Y-85320238D01*
X173787381Y-85129761D01*
X173739762Y-85034523D01*
X173692143Y-84986904D01*
X173596905Y-84939285D01*
X173358810Y-84939285D01*
X173263571Y-84986904D01*
X173215952Y-85034523D01*
X173168333Y-85129761D01*
X173168333Y-85320238D01*
X173215952Y-85415476D01*
X173263571Y-85463095D01*
X173358810Y-85510714D01*
X168743334Y-88007143D02*
X168695715Y-88054762D01*
X168552858Y-88102381D01*
X168457620Y-88102381D01*
X168314762Y-88054762D01*
X168219524Y-87959524D01*
X168171905Y-87864286D01*
X168124286Y-87673810D01*
X168124286Y-87530952D01*
X168171905Y-87340476D01*
X168219524Y-87245238D01*
X168314762Y-87150000D01*
X168457620Y-87102381D01*
X168552858Y-87102381D01*
X168695715Y-87150000D01*
X168743334Y-87197619D01*
X169076667Y-87102381D02*
X169743334Y-87102381D01*
X169314762Y-88102381D01*
X168743334Y-98937143D02*
X168695715Y-98984762D01*
X168552858Y-99032381D01*
X168457620Y-99032381D01*
X168314762Y-98984762D01*
X168219524Y-98889524D01*
X168171905Y-98794286D01*
X168124286Y-98603810D01*
X168124286Y-98460952D01*
X168171905Y-98270476D01*
X168219524Y-98175238D01*
X168314762Y-98080000D01*
X168457620Y-98032381D01*
X168552858Y-98032381D01*
X168695715Y-98080000D01*
X168743334Y-98127619D01*
X169314762Y-98460952D02*
X169219524Y-98413333D01*
X169171905Y-98365714D01*
X169124286Y-98270476D01*
X169124286Y-98222857D01*
X169171905Y-98127619D01*
X169219524Y-98080000D01*
X169314762Y-98032381D01*
X169505239Y-98032381D01*
X169600477Y-98080000D01*
X169648096Y-98127619D01*
X169695715Y-98222857D01*
X169695715Y-98270476D01*
X169648096Y-98365714D01*
X169600477Y-98413333D01*
X169505239Y-98460952D01*
X169314762Y-98460952D01*
X169219524Y-98508571D01*
X169171905Y-98556190D01*
X169124286Y-98651429D01*
X169124286Y-98841905D01*
X169171905Y-98937143D01*
X169219524Y-98984762D01*
X169314762Y-99032381D01*
X169505239Y-99032381D01*
X169600477Y-98984762D01*
X169648096Y-98937143D01*
X169695715Y-98841905D01*
X169695715Y-98651429D01*
X169648096Y-98556190D01*
X169600477Y-98508571D01*
X169505239Y-98460952D01*
X168423334Y-84157143D02*
X168375715Y-84204762D01*
X168232858Y-84252381D01*
X168137620Y-84252381D01*
X167994762Y-84204762D01*
X167899524Y-84109524D01*
X167851905Y-84014286D01*
X167804286Y-83823810D01*
X167804286Y-83680952D01*
X167851905Y-83490476D01*
X167899524Y-83395238D01*
X167994762Y-83300000D01*
X168137620Y-83252381D01*
X168232858Y-83252381D01*
X168375715Y-83300000D01*
X168423334Y-83347619D01*
X168899524Y-84252381D02*
X169090000Y-84252381D01*
X169185239Y-84204762D01*
X169232858Y-84157143D01*
X169328096Y-84014286D01*
X169375715Y-83823810D01*
X169375715Y-83442857D01*
X169328096Y-83347619D01*
X169280477Y-83300000D01*
X169185239Y-83252381D01*
X168994762Y-83252381D01*
X168899524Y-83300000D01*
X168851905Y-83347619D01*
X168804286Y-83442857D01*
X168804286Y-83680952D01*
X168851905Y-83776190D01*
X168899524Y-83823810D01*
X168994762Y-83871429D01*
X169185239Y-83871429D01*
X169280477Y-83823810D01*
X169328096Y-83776190D01*
X169375715Y-83680952D01*
X174617143Y-81617143D02*
X174569524Y-81664762D01*
X174426667Y-81712381D01*
X174331429Y-81712381D01*
X174188571Y-81664762D01*
X174093333Y-81569524D01*
X174045714Y-81474286D01*
X173998095Y-81283810D01*
X173998095Y-81140952D01*
X174045714Y-80950476D01*
X174093333Y-80855238D01*
X174188571Y-80760000D01*
X174331429Y-80712381D01*
X174426667Y-80712381D01*
X174569524Y-80760000D01*
X174617143Y-80807619D01*
X175569524Y-81712381D02*
X174998095Y-81712381D01*
X175283809Y-81712381D02*
X175283809Y-80712381D01*
X175188571Y-80855238D01*
X175093333Y-80950476D01*
X174998095Y-80998095D01*
X176188571Y-80712381D02*
X176283810Y-80712381D01*
X176379048Y-80760000D01*
X176426667Y-80807619D01*
X176474286Y-80902857D01*
X176521905Y-81093333D01*
X176521905Y-81331429D01*
X176474286Y-81521905D01*
X176426667Y-81617143D01*
X176379048Y-81664762D01*
X176283810Y-81712381D01*
X176188571Y-81712381D01*
X176093333Y-81664762D01*
X176045714Y-81617143D01*
X175998095Y-81521905D01*
X175950476Y-81331429D01*
X175950476Y-81093333D01*
X175998095Y-80902857D01*
X176045714Y-80807619D01*
X176093333Y-80760000D01*
X176188571Y-80712381D01*
X155567143Y-84022143D02*
X155519524Y-84069762D01*
X155376667Y-84117381D01*
X155281429Y-84117381D01*
X155138571Y-84069762D01*
X155043333Y-83974524D01*
X154995714Y-83879286D01*
X154948095Y-83688810D01*
X154948095Y-83545952D01*
X154995714Y-83355476D01*
X155043333Y-83260238D01*
X155138571Y-83165000D01*
X155281429Y-83117381D01*
X155376667Y-83117381D01*
X155519524Y-83165000D01*
X155567143Y-83212619D01*
X156519524Y-84117381D02*
X155948095Y-84117381D01*
X156233809Y-84117381D02*
X156233809Y-83117381D01*
X156138571Y-83260238D01*
X156043333Y-83355476D01*
X155948095Y-83403095D01*
X157471905Y-84117381D02*
X156900476Y-84117381D01*
X157186190Y-84117381D02*
X157186190Y-83117381D01*
X157090952Y-83260238D01*
X156995714Y-83355476D01*
X156900476Y-83403095D01*
X159762143Y-79382857D02*
X159809762Y-79430476D01*
X159857381Y-79573333D01*
X159857381Y-79668571D01*
X159809762Y-79811429D01*
X159714524Y-79906667D01*
X159619286Y-79954286D01*
X159428810Y-80001905D01*
X159285952Y-80001905D01*
X159095476Y-79954286D01*
X159000238Y-79906667D01*
X158905000Y-79811429D01*
X158857381Y-79668571D01*
X158857381Y-79573333D01*
X158905000Y-79430476D01*
X158952619Y-79382857D01*
X159857381Y-78430476D02*
X159857381Y-79001905D01*
X159857381Y-78716191D02*
X158857381Y-78716191D01*
X159000238Y-78811429D01*
X159095476Y-78906667D01*
X159143095Y-79001905D01*
X158952619Y-78049524D02*
X158905000Y-78001905D01*
X158857381Y-77906667D01*
X158857381Y-77668571D01*
X158905000Y-77573333D01*
X158952619Y-77525714D01*
X159047857Y-77478095D01*
X159143095Y-77478095D01*
X159285952Y-77525714D01*
X159857381Y-78097143D01*
X159857381Y-77478095D01*
D10*
X114877381Y-101933333D02*
X115591667Y-101933333D01*
X115734524Y-101980953D01*
X115829762Y-102076191D01*
X115877381Y-102219048D01*
X115877381Y-102314286D01*
X115877381Y-100933333D02*
X115877381Y-101504762D01*
X115877381Y-101219048D02*
X114877381Y-101219048D01*
X115020238Y-101314286D01*
X115115476Y-101409524D01*
X115163095Y-101504762D01*
D12*
X148426667Y-94841190D02*
X148260000Y-94603095D01*
X148140953Y-94841190D02*
X148140953Y-94341190D01*
X148331429Y-94341190D01*
X148379048Y-94365000D01*
X148402857Y-94388810D01*
X148426667Y-94436429D01*
X148426667Y-94507857D01*
X148402857Y-94555476D01*
X148379048Y-94579286D01*
X148331429Y-94603095D01*
X148140953Y-94603095D01*
X148617143Y-94388810D02*
X148640953Y-94365000D01*
X148688572Y-94341190D01*
X148807619Y-94341190D01*
X148855238Y-94365000D01*
X148879048Y-94388810D01*
X148902857Y-94436429D01*
X148902857Y-94484048D01*
X148879048Y-94555476D01*
X148593334Y-94841190D01*
X148902857Y-94841190D01*
X153666667Y-94841190D02*
X153500000Y-94603095D01*
X153380953Y-94841190D02*
X153380953Y-94341190D01*
X153571429Y-94341190D01*
X153619048Y-94365000D01*
X153642857Y-94388810D01*
X153666667Y-94436429D01*
X153666667Y-94507857D01*
X153642857Y-94555476D01*
X153619048Y-94579286D01*
X153571429Y-94603095D01*
X153380953Y-94603095D01*
X153833334Y-94341190D02*
X154142857Y-94341190D01*
X153976191Y-94531667D01*
X154047619Y-94531667D01*
X154095238Y-94555476D01*
X154119048Y-94579286D01*
X154142857Y-94626905D01*
X154142857Y-94745952D01*
X154119048Y-94793571D01*
X154095238Y-94817381D01*
X154047619Y-94841190D01*
X153904762Y-94841190D01*
X153857143Y-94817381D01*
X153833334Y-94793571D01*
X168826667Y-103096190D02*
X168660000Y-102858095D01*
X168540953Y-103096190D02*
X168540953Y-102596190D01*
X168731429Y-102596190D01*
X168779048Y-102620000D01*
X168802857Y-102643810D01*
X168826667Y-102691429D01*
X168826667Y-102762857D01*
X168802857Y-102810476D01*
X168779048Y-102834286D01*
X168731429Y-102858095D01*
X168540953Y-102858095D01*
X169255238Y-102762857D02*
X169255238Y-103096190D01*
X169136191Y-102572381D02*
X169017143Y-102929524D01*
X169326667Y-102929524D01*
X172946190Y-101683333D02*
X172708095Y-101850000D01*
X172946190Y-101969047D02*
X172446190Y-101969047D01*
X172446190Y-101778571D01*
X172470000Y-101730952D01*
X172493810Y-101707143D01*
X172541429Y-101683333D01*
X172612857Y-101683333D01*
X172660476Y-101707143D01*
X172684286Y-101730952D01*
X172708095Y-101778571D01*
X172708095Y-101969047D01*
X172446190Y-101230952D02*
X172446190Y-101469047D01*
X172684286Y-101492857D01*
X172660476Y-101469047D01*
X172636667Y-101421428D01*
X172636667Y-101302381D01*
X172660476Y-101254762D01*
X172684286Y-101230952D01*
X172731905Y-101207143D01*
X172850952Y-101207143D01*
X172898571Y-101230952D01*
X172922381Y-101254762D01*
X172946190Y-101302381D01*
X172946190Y-101421428D01*
X172922381Y-101469047D01*
X172898571Y-101492857D01*
X165961190Y-78903333D02*
X165723095Y-79070000D01*
X165961190Y-79189047D02*
X165461190Y-79189047D01*
X165461190Y-78998571D01*
X165485000Y-78950952D01*
X165508810Y-78927143D01*
X165556429Y-78903333D01*
X165627857Y-78903333D01*
X165675476Y-78927143D01*
X165699286Y-78950952D01*
X165723095Y-78998571D01*
X165723095Y-79189047D01*
X165461190Y-78474762D02*
X165461190Y-78570000D01*
X165485000Y-78617619D01*
X165508810Y-78641428D01*
X165580238Y-78689047D01*
X165675476Y-78712857D01*
X165865952Y-78712857D01*
X165913571Y-78689047D01*
X165937381Y-78665238D01*
X165961190Y-78617619D01*
X165961190Y-78522381D01*
X165937381Y-78474762D01*
X165913571Y-78450952D01*
X165865952Y-78427143D01*
X165746905Y-78427143D01*
X165699286Y-78450952D01*
X165675476Y-78474762D01*
X165651667Y-78522381D01*
X165651667Y-78617619D01*
X165675476Y-78665238D01*
X165699286Y-78689047D01*
X165746905Y-78712857D01*
X156126667Y-111986190D02*
X155960000Y-111748095D01*
X155840953Y-111986190D02*
X155840953Y-111486190D01*
X156031429Y-111486190D01*
X156079048Y-111510000D01*
X156102857Y-111533810D01*
X156126667Y-111581429D01*
X156126667Y-111652857D01*
X156102857Y-111700476D01*
X156079048Y-111724286D01*
X156031429Y-111748095D01*
X155840953Y-111748095D01*
X156412381Y-111700476D02*
X156364762Y-111676667D01*
X156340953Y-111652857D01*
X156317143Y-111605238D01*
X156317143Y-111581429D01*
X156340953Y-111533810D01*
X156364762Y-111510000D01*
X156412381Y-111486190D01*
X156507619Y-111486190D01*
X156555238Y-111510000D01*
X156579048Y-111533810D01*
X156602857Y-111581429D01*
X156602857Y-111605238D01*
X156579048Y-111652857D01*
X156555238Y-111676667D01*
X156507619Y-111700476D01*
X156412381Y-111700476D01*
X156364762Y-111724286D01*
X156340953Y-111748095D01*
X156317143Y-111795714D01*
X156317143Y-111890952D01*
X156340953Y-111938571D01*
X156364762Y-111962381D01*
X156412381Y-111986190D01*
X156507619Y-111986190D01*
X156555238Y-111962381D01*
X156579048Y-111938571D01*
X156602857Y-111890952D01*
X156602857Y-111795714D01*
X156579048Y-111748095D01*
X156555238Y-111724286D01*
X156507619Y-111700476D01*
X155888572Y-89126190D02*
X155721905Y-88888095D01*
X155602858Y-89126190D02*
X155602858Y-88626190D01*
X155793334Y-88626190D01*
X155840953Y-88650000D01*
X155864762Y-88673810D01*
X155888572Y-88721429D01*
X155888572Y-88792857D01*
X155864762Y-88840476D01*
X155840953Y-88864286D01*
X155793334Y-88888095D01*
X155602858Y-88888095D01*
X156364762Y-89126190D02*
X156079048Y-89126190D01*
X156221905Y-89126190D02*
X156221905Y-88626190D01*
X156174286Y-88697619D01*
X156126667Y-88745238D01*
X156079048Y-88769048D01*
X156531429Y-88626190D02*
X156840952Y-88626190D01*
X156674286Y-88816667D01*
X156745714Y-88816667D01*
X156793333Y-88840476D01*
X156817143Y-88864286D01*
X156840952Y-88911905D01*
X156840952Y-89030952D01*
X156817143Y-89078571D01*
X156793333Y-89102381D01*
X156745714Y-89126190D01*
X156602857Y-89126190D01*
X156555238Y-89102381D01*
X156531429Y-89078571D01*
D13*
X168576667Y-85708333D02*
X168576667Y-86041667D01*
X168343334Y-85341667D02*
X168576667Y-85708333D01*
X168810000Y-85341667D01*
X169410000Y-86041667D02*
X169010000Y-86041667D01*
X169210000Y-86041667D02*
X169210000Y-85341667D01*
X169143334Y-85441667D01*
X169076667Y-85508333D01*
X169010000Y-85541667D01*
M02*
