G04 #@! TF.FileFunction,Other,User*
%FSLAX46Y46*%
G04 Gerber Fmt 4.6, Leading zero omitted, Abs format (unit mm)*
G04 Created by KiCad (PCBNEW 4.0.7) date 04/10/18 20:11:53*
%MOMM*%
%LPD*%
G01*
G04 APERTURE LIST*
%ADD10C,0.100000*%
%ADD11C,0.050000*%
G04 APERTURE END LIST*
D10*
D11*
X122265000Y-89145000D02*
X117765000Y-89145000D01*
X122265000Y-89145000D02*
X122265000Y-87395000D01*
X117765000Y-87395000D02*
X117765000Y-89145000D01*
X117765000Y-87395000D02*
X122265000Y-87395000D01*
X150403701Y-101353393D02*
X150403701Y-105853393D01*
X150403701Y-101353393D02*
X148653701Y-101353393D01*
X148653701Y-105853393D02*
X150403701Y-105853393D01*
X148653701Y-105853393D02*
X148653701Y-101353393D01*
X122265000Y-82795000D02*
X117765000Y-82795000D01*
X122265000Y-82795000D02*
X122265000Y-81045000D01*
X117765000Y-81045000D02*
X117765000Y-82795000D01*
X117765000Y-81045000D02*
X122265000Y-81045000D01*
X155483701Y-101373393D02*
X155483701Y-105873393D01*
X155483701Y-101373393D02*
X153733701Y-101373393D01*
X153733701Y-105873393D02*
X155483701Y-105873393D01*
X153733701Y-105873393D02*
X153733701Y-101373393D01*
X172735000Y-83925000D02*
X172735000Y-87525000D01*
X172735000Y-83925000D02*
X171435000Y-83925000D01*
X171435000Y-87525000D02*
X172735000Y-87525000D01*
X171435000Y-87525000D02*
X171435000Y-83925000D01*
X167110000Y-88250000D02*
X170710000Y-88250000D01*
X167110000Y-88250000D02*
X167110000Y-89550000D01*
X170710000Y-89550000D02*
X170710000Y-88250000D01*
X170710000Y-89550000D02*
X167110000Y-89550000D01*
X166660000Y-99450000D02*
X171160000Y-99450000D01*
X166660000Y-99450000D02*
X166660000Y-101200000D01*
X171160000Y-101200000D02*
X171160000Y-99450000D01*
X171160000Y-101200000D02*
X166660000Y-101200000D01*
X170390000Y-83200000D02*
X166790000Y-83200000D01*
X170390000Y-83200000D02*
X170390000Y-81900000D01*
X166790000Y-81900000D02*
X166790000Y-83200000D01*
X166790000Y-81900000D02*
X170390000Y-81900000D01*
X177060000Y-80660000D02*
X173460000Y-80660000D01*
X177060000Y-80660000D02*
X177060000Y-79360000D01*
X173460000Y-79360000D02*
X173460000Y-80660000D01*
X173460000Y-79360000D02*
X177060000Y-79360000D01*
X158460000Y-82795000D02*
X153960000Y-82795000D01*
X158460000Y-82795000D02*
X158460000Y-81045000D01*
X153960000Y-81045000D02*
X153960000Y-82795000D01*
X153960000Y-81045000D02*
X158460000Y-81045000D01*
X160005000Y-80540000D02*
X160005000Y-76940000D01*
X160005000Y-80540000D02*
X161305000Y-80540000D01*
X161305000Y-76940000D02*
X160005000Y-76940000D01*
X161305000Y-76940000D02*
X161305000Y-80540000D01*
X153860000Y-114670000D02*
X158560000Y-114670000D01*
X153860000Y-114670000D02*
X153860000Y-116470000D01*
X158560000Y-116470000D02*
X158560000Y-114670000D01*
X158560000Y-116470000D02*
X153860000Y-116470000D01*
X161480000Y-114670000D02*
X166180000Y-114670000D01*
X161480000Y-114670000D02*
X161480000Y-116470000D01*
X166180000Y-116470000D02*
X166180000Y-114670000D01*
X166180000Y-116470000D02*
X161480000Y-116470000D01*
X169100000Y-114670000D02*
X173800000Y-114670000D01*
X169100000Y-114670000D02*
X169100000Y-116470000D01*
X173800000Y-116470000D02*
X173800000Y-114670000D01*
X173800000Y-116470000D02*
X169100000Y-116470000D01*
X176720000Y-114670000D02*
X181420000Y-114670000D01*
X176720000Y-114670000D02*
X176720000Y-116470000D01*
X181420000Y-116470000D02*
X181420000Y-114670000D01*
X181420000Y-116470000D02*
X176720000Y-116470000D01*
X184340000Y-114670000D02*
X189040000Y-114670000D01*
X184340000Y-114670000D02*
X184340000Y-116470000D01*
X189040000Y-116470000D02*
X189040000Y-114670000D01*
X189040000Y-116470000D02*
X184340000Y-116470000D01*
X109695000Y-96210000D02*
X121295000Y-96210000D01*
X109695000Y-106990000D02*
X109695000Y-96210000D01*
X121295000Y-106990000D02*
X109695000Y-106990000D01*
X121295000Y-96210000D02*
X121295000Y-106990000D01*
X114670000Y-87440000D02*
X114670000Y-82740000D01*
X114670000Y-87440000D02*
X116470000Y-87440000D01*
X116470000Y-82740000D02*
X114670000Y-82740000D01*
X116470000Y-82740000D02*
X116470000Y-87440000D01*
X150860000Y-95515000D02*
X146160000Y-95515000D01*
X150860000Y-95515000D02*
X150860000Y-93715000D01*
X146160000Y-93715000D02*
X146160000Y-95515000D01*
X146160000Y-93715000D02*
X150860000Y-93715000D01*
X151400000Y-93715000D02*
X156100000Y-93715000D01*
X151400000Y-93715000D02*
X151400000Y-95515000D01*
X156100000Y-95515000D02*
X156100000Y-93715000D01*
X156100000Y-95515000D02*
X151400000Y-95515000D01*
X171260000Y-103770000D02*
X166560000Y-103770000D01*
X171260000Y-103770000D02*
X171260000Y-101970000D01*
X166560000Y-101970000D02*
X166560000Y-103770000D01*
X166560000Y-101970000D02*
X171260000Y-101970000D01*
X171820000Y-103950000D02*
X171820000Y-99250000D01*
X171820000Y-103950000D02*
X173620000Y-103950000D01*
X173620000Y-99250000D02*
X171820000Y-99250000D01*
X173620000Y-99250000D02*
X173620000Y-103950000D01*
X165365000Y-76390000D02*
X165365000Y-81090000D01*
X165365000Y-76390000D02*
X163565000Y-76390000D01*
X163565000Y-81090000D02*
X165365000Y-81090000D01*
X163565000Y-81090000D02*
X163565000Y-76390000D01*
X161660000Y-97680000D02*
X161660000Y-92980000D01*
X161660000Y-97680000D02*
X163460000Y-97680000D01*
X163460000Y-92980000D02*
X161660000Y-92980000D01*
X163460000Y-92980000D02*
X163460000Y-97680000D01*
X153860000Y-112130000D02*
X158560000Y-112130000D01*
X153860000Y-112130000D02*
X153860000Y-113930000D01*
X158560000Y-113930000D02*
X158560000Y-112130000D01*
X158560000Y-113930000D02*
X153860000Y-113930000D01*
X161480000Y-112130000D02*
X166180000Y-112130000D01*
X161480000Y-112130000D02*
X161480000Y-113930000D01*
X166180000Y-113930000D02*
X166180000Y-112130000D01*
X166180000Y-113930000D02*
X161480000Y-113930000D01*
X169100000Y-112130000D02*
X173800000Y-112130000D01*
X169100000Y-112130000D02*
X169100000Y-113930000D01*
X173800000Y-113930000D02*
X173800000Y-112130000D01*
X173800000Y-113930000D02*
X169100000Y-113930000D01*
X176720000Y-112130000D02*
X181420000Y-112130000D01*
X176720000Y-112130000D02*
X176720000Y-113930000D01*
X181420000Y-113930000D02*
X181420000Y-112130000D01*
X181420000Y-113930000D02*
X176720000Y-113930000D01*
X184340000Y-112130000D02*
X189040000Y-112130000D01*
X184340000Y-112130000D02*
X184340000Y-113930000D01*
X189040000Y-113930000D02*
X189040000Y-112130000D01*
X189040000Y-113930000D02*
X184340000Y-113930000D01*
X158560000Y-87895000D02*
X153860000Y-87895000D01*
X158560000Y-87895000D02*
X158560000Y-86095000D01*
X153860000Y-86095000D02*
X153860000Y-87895000D01*
X153860000Y-86095000D02*
X158560000Y-86095000D01*
X158560000Y-90435000D02*
X153860000Y-90435000D01*
X158560000Y-90435000D02*
X158560000Y-88635000D01*
X153860000Y-88635000D02*
X153860000Y-90435000D01*
X153860000Y-88635000D02*
X158560000Y-88635000D01*
X158560000Y-85355000D02*
X153860000Y-85355000D01*
X158560000Y-85355000D02*
X158560000Y-83555000D01*
X153860000Y-83555000D02*
X153860000Y-85355000D01*
X153860000Y-83555000D02*
X158560000Y-83555000D01*
X121180000Y-83567881D02*
X117580000Y-83567881D01*
X121180000Y-86667881D02*
X117580000Y-86667881D01*
X121180000Y-83567881D02*
X121180000Y-86667881D01*
X117580000Y-83567881D02*
X117580000Y-86667881D01*
X159860000Y-105330000D02*
X165260000Y-105330000D01*
X159860000Y-97870000D02*
X165260000Y-97870000D01*
X159860000Y-105330000D02*
X159860000Y-97870000D01*
X165260000Y-105330000D02*
X165260000Y-97870000D01*
X165560000Y-82090000D02*
X159560000Y-82090000D01*
X165560000Y-88090000D02*
X159560000Y-88090000D01*
X165560000Y-82090000D02*
X165560000Y-88090000D01*
X159560000Y-82090000D02*
X159560000Y-88090000D01*
X171010000Y-87425000D02*
X171010000Y-84025000D01*
X171010000Y-84025000D02*
X166810000Y-84025000D01*
X166810000Y-84025000D02*
X166810000Y-87425000D01*
X166810000Y-87425000D02*
X171010000Y-87425000D01*
X157210000Y-78740000D02*
G75*
G03X157210000Y-78740000I-1000000J0D01*
G01*
M02*
