  0
SECTION
  2
HEADER
  9
$ACADVER
  1
AC1012
  9
$DWGCODEPAGE
  3
ansi_1252
  9
$INSBASE
 10
0.0
 20
0.0
 30
0.0
  9
$EXTMIN
 10
1.000000000000000E+20
 20
1.000000000000000E+20
 30
1.000000000000000E+20
  9
$EXTMAX
 10
-1.000000000000000E+20
 20
-1.000000000000000E+20
 30
-1.000000000000000E+20
  9
$LIMMIN
 10
0.0
 20
0.0
  9
$LIMMAX
 10
12.0
 20
9.0
  9
$ORTHOMODE
 70
     0
  9
$REGENMODE
 70
     1
  9
$FILLMODE
 70
     1
  9
$QTEXTMODE
 70
     0
  9
$MIRRTEXT
 70
     1
  9
$DRAGMODE
 70
     2
  9
$LTSCALE
 40
1.0
  9
$OSMODE
 70
    37
  9
$ATTMODE
 70
     1
  9
$TEXTSIZE
 40
0.2
  9
$TRACEWID
 40
0.05
  9
$TEXTSTYLE
  7
STANDARD
  9
$CLAYER
  8
0
  9
$CELTYPE
  6
BYLAYER
  9
$CECOLOR
 62
   256
  9
$CELTSCALE
 40
1.0
  9
$DELOBJ
 70
     1
  9
$DISPSILH
 70
     0
  9
$DIMSCALE
 40
1.0
  9
$DIMASZ
 40
0.18
  9
$DIMEXO
 40
0.0625
  9
$DIMDLI
 40
0.38
  9
$DIMRND
 40
0.0
  9
$DIMDLE
 40
0.0
  9
$DIMEXE
 40
0.18
  9
$DIMTP
 40
0.0
  9
$DIMTM
 40
0.0
  9
$DIMTXT
 40
0.18
  9
$DIMCEN
 40
0.09
  9
$DIMTSZ
 40
0.0
  9
$DIMTOL
 70
     0
  9
$DIMLIM
 70
     0
  9
$DIMTIH
 70
     1
  9
$DIMTOH
 70
     1
  9
$DIMSE1
 70
     0
  9
$DIMSE2
 70
     0
  9
$DIMTAD
 70
     0
  9
$DIMZIN
 70
     0
  9
$DIMBLK
  1

  9
$DIMASO
 70
     1
  9
$DIMSHO
 70
     1
  9
$DIMPOST
  1

  9
$DIMAPOST
  1

  9
$DIMALT
 70
     0
  9
$DIMALTD
 70
     2
  9
$DIMALTF
 40
25.4
  9
$DIMLFAC
 40
1.0
  9
$DIMTOFL
 70
     0
  9
$DIMTVP
 40
0.0
  9
$DIMTIX
 70
     0
  9
$DIMSOXD
 70
     0
  9
$DIMSAH
 70
     0
  9
$DIMBLK1
  1

  9
$DIMBLK2
  1

  9
$DIMSTYLE
  2
STANDARD
  9
$DIMCLRD
 70
     0
  9
$DIMCLRE
 70
     0
  9
$DIMCLRT
 70
     0
  9
$DIMTFAC
 40
1.0
  9
$DIMGAP
 40
0.09
  9
$DIMJUST
 70
     0
  9
$DIMSD1
 70
     0
  9
$DIMSD2
 70
     0
  9
$DIMTOLJ
 70
     1
  9
$DIMTZIN
 70
     0
  9
$DIMALTZ
 70
     0
  9
$DIMALTTZ
 70
     0
  9
$DIMFIT
 70
     3
  9
$DIMUPT
 70
     0
  9
$DIMUNIT
 70
     2
  9
$DIMDEC
 70
     4
  9
$DIMTDEC
 70
     4
  9
$DIMALTU
 70
     2
  9
$DIMALTTD
 70
     2
  9
$DIMTXSTY
  7
STANDARD
  9
$DIMAUNIT
 70
     0
  9
$LUNITS
 70
     2
  9
$LUPREC
 70
     4
  9
$SKETCHINC
 40
0.1
  9
$FILLETRAD
 40
0.5
  9
$AUNITS
 70
     0
  9
$AUPREC
 70
     0
  9
$MENU
  1
.
  9
$ELEVATION
 40
0.0
  9
$PELEVATION
 40
0.0
  9
$THICKNESS
 40
0.0
  9
$LIMCHECK
 70
     0
  9
$CHAMFERA
 40
0.5
  9
$CHAMFERB
 40
0.5
  9
$CHAMFERC
 40
1.0
  9
$CHAMFERD
 40
0.0
  9
$SKPOLY
 70
     0
  9
$TDCREATE
 40
2458219.056728958
  9
$TDUPDATE
 40
2458219.056729005
  9
$TDINDWG
 40
0.0000000116
  9
$TDUSRTIMER
 40
0.0000000116
  9
$USRTIMER
 70
     1
  9
$ANGBASE
 50
0.0
  9
$ANGDIR
 70
     0
  9
$PDMODE
 70
     0
  9
$PDSIZE
 40
0.0
  9
$PLINEWID
 40
0.0
  9
$COORDS
 70
     1
  9
$SPLFRAME
 70
     0
  9
$SPLINETYPE
 70
     6
  9
$SPLINESEGS
 70
     8
  9
$ATTDIA
 70
     0
  9
$ATTREQ
 70
     1
  9
$HANDLING
 70
     1
  9
$HANDSEED
  5
DB
  9
$SURFTAB1
 70
     6
  9
$SURFTAB2
 70
     6
  9
$SURFTYPE
 70
     6
  9
$SURFU
 70
     6
  9
$SURFV
 70
     6
  9
$UCSNAME
  2

  9
$UCSORG
 10
0.0
 20
0.0
 30
0.0
  9
$UCSXDIR
 10
1.0
 20
0.0
 30
0.0
  9
$UCSYDIR
 10
0.0
 20
1.0
 30
0.0
  9
$PUCSNAME
  2

  9
$PUCSORG
 10
0.0
 20
0.0
 30
0.0
  9
$PUCSXDIR
 10
1.0
 20
0.0
 30
0.0
  9
$PUCSYDIR
 10
0.0
 20
1.0
 30
0.0
  9
$USERI1
 70
     0
  9
$USERI2
 70
     0
  9
$USERI3
 70
     0
  9
$USERI4
 70
     0
  9
$USERI5
 70
     0
  9
$USERR1
 40
0.0
  9
$USERR2
 40
0.0
  9
$USERR3
 40
0.0
  9
$USERR4
 40
0.0
  9
$USERR5
 40
0.0
  9
$WORLDVIEW
 70
     1
  9
$SHADEDGE
 70
     3
  9
$SHADEDIF
 70
    70
  9
$TILEMODE
 70
     1
  9
$MAXACTVP
 70
    64
  9
$PINSBASE
 10
0.0
 20
0.0
 30
0.0
  9
$PLIMCHECK
 70
     0
  9
$PEXTMIN
 10
1.000000000000000E+20
 20
1.000000000000000E+20
 30
1.000000000000000E+20
  9
$PEXTMAX
 10
-1.000000000000000E+20
 20
-1.000000000000000E+20
 30
-1.000000000000000E+20
  9
$PLIMMIN
 10
0.0
 20
0.0
  9
$PLIMMAX
 10
12.0
 20
9.0
  9
$UNITMODE
 70
     0
  9
$VISRETAIN
 70
     1
  9
$PLINEGEN
 70
     0
  9
$PSLTSCALE
 70
     1
  9
$TREEDEPTH
 70
  3020
  9
$PICKSTYLE
 70
     1
  9
$CMLSTYLE
  2
STANDARD
  9
$CMLJUST
 70
     0
  9
$CMLSCALE
 40
1.0
  9
$SAVEIMAGES
 70
     1
  0
ENDSEC
  0
SECTION
  2
CLASSES
  0
CLASS
  1
ACDBDICTIONARYWDFLT
  2
AcDbDictionaryWithDefault
  3
ObjectDBX Classes
 90
    32768
280
     0
281
     0
  0
CLASS
  1
VISUALSTYLE
  2
AcDbVisualStyle
  3
ObjectDBX Classes
 90
     4095
280
     0
281
     0
  0
CLASS
  1
MATERIAL
  2
AcDbMaterial
  3
ObjectDBX Classes
 90
     1153
280
     0
281
     0
  0
CLASS
  1
SUN
  2
AcDbSun
  3
SCENEOE
 90
     1024
280
     0
281
     0
  0
CLASS
  1
DICTIONARYVAR
  2
AcDbDictionaryVar
  3
ObjectDBX Classes
 90
        0
280
     0
281
     0
  0
CLASS
  1
XRECORD
  2
AcDbXrecord
  3
AutoCAD 2000
 90
    32768
280
     0
281
     0
  0
CLASS
  1
LWPOLYLINE
  2
AcDbPolyline
  3
AutoCAD 2000
 90
    32768
280
     0
281
     1
  0
CLASS
  1
HATCH
  2
AcDbHatch
  3
AutoCAD 2000
 90
    32768
280
     0
281
     1
  0
CLASS
  1
ACDBPLACEHOLDER
  2
AcDbPlaceHolder
  3
ObjectDBX Classes
 90
        0
280
     0
281
     0
  0
CLASS
  1
LAYOUT
  2
AcDbLayout
  3
ObjectDBX Classes
 90
        0
280
     0
281
     0
  0
ENDSEC
  0
SECTION
  2
TABLES
  0
TABLE
  2
VPORT
  5
8
330
0
100
AcDbSymbolTable
 70
     1
  0
VPORT
  5
29
330
8
100
AcDbSymbolTableRecord
100
AcDbViewportTableRecord
  2
*ACTIVE
 70
     0
 10
0.0
 20
0.0
 11
1.0
 21
1.0
 12
0.0
 22
0.0
 13
0.0
 23
0.0
 14
0.5
 24
0.5
 15
0.5
 25
0.5
 16
0.0
 26
0.0
 36
1.0
 17
42.80076387818863
 27
-26.98926388214161
 37
0.0
 40
53.97852776428323
 41
1.585844062479572
 42
50.0
 43
0.0
 44
0.0
 50
0.0
 51
0.0
 71
     0
 72
   100
 73
     1
 74
     3
 75
     0
 76
     0
 77
     0
 78
     0
  0
ENDTAB
  0
TABLE
  2
LTYPE
  5
5
330
0
100
AcDbSymbolTable
 70
     1
  0
LTYPE
  5
14
330
5
100
AcDbSymbolTableRecord
100
AcDbLinetypeTableRecord
  2
BYBLOCK
 70
     0
  3

 72
    65
 73
     0
 40
0.0
  0
LTYPE
  5
15
330
5
100
AcDbSymbolTableRecord
100
AcDbLinetypeTableRecord
  2
BYLAYER
 70
     0
  3

 72
    65
 73
     0
 40
0.0
  0
LTYPE
  5
16
330
5
100
AcDbSymbolTableRecord
100
AcDbLinetypeTableRecord
  2
CONTINUOUS
 70
     0
  3
Solid line
 72
    65
 73
     0
 40
0.0
  0
ENDTAB
  0
TABLE
  2
LAYER
  5
2
330
0
100
AcDbSymbolTable
 70
     2
  0
LAYER
  5
10
330
2
100
AcDbSymbolTableRecord
100
AcDbLayerTableRecord
  2
0
 70
     0
 62
     7
  6
CONTINUOUS
  0
LAYER
  5
40
330
2
100
AcDbSymbolTableRecord
100
AcDbLayerTableRecord
  2
COPPER_MASK
 70
     0
 62
     7
  6
CONTINUOUS
  0
ENDTAB
  0
TABLE
  2
STYLE
  5
3
330
0
100
AcDbSymbolTable
 70
     1
  0
STYLE
  5
11
330
3
100
AcDbSymbolTableRecord
100
AcDbTextStyleTableRecord
  2
STANDARD
 70
     0
 40
0.0
 41
1.0
 50
0.0
 71
     0
 42
0.2
  3
txt
  4

  0
ENDTAB
  0
TABLE
  2
VIEW
  5
6
330
0
100
AcDbSymbolTable
 70
     0
  0
ENDTAB
  0
TABLE
  2
UCS
  5
7
330
0
100
AcDbSymbolTable
 70
     0
  0
ENDTAB
  0
TABLE
  2
APPID
  5
9
330
0
100
AcDbSymbolTable
 70
     1
  0
APPID
  5
12
330
9
100
AcDbSymbolTableRecord
100
AcDbRegAppTableRecord
  2
ACAD
 70
     0
  0
ENDTAB
  0
TABLE
  2
DIMSTYLE
  5
A
330
0
100
AcDbSymbolTable
 70
     1
  0
DIMSTYLE
105
27
330
A
100
AcDbSymbolTableRecord
100
AcDbDimStyleTableRecord
  2
STANDARD
 70
     0
  3

  4

  5

  6

  7

 40
1.0
 41
0.18
 42
0.0625
 43
0.38
 44
0.18
 45
0.0
 46
0.0
 47
0.0
 48
0.0
140
0.18
141
0.09
142
0.0
143
25.4
144
1.0
145
0.0
146
1.0
147
0.09
 71
     0
 72
     0
 73
     1
 74
     1
 75
     0
 76
     0
 77
     0
 78
     0
170
     0
171
     2
172
     0
173
     0
174
     0
175
     0
176
     0
177
     0
178
     0
270
     2
271
     4
272
     4
273
     2
274
     2
340
11
275
     0
280
     0
281
     0
282
     0
283
     1
284
     0
285
     0
286
     0
287
     3
288
     0
  0
ENDTAB
  0
TABLE
  2
BLOCK_RECORD
  5
1
330
0
100
AcDbSymbolTable
 70
     3
  0
BLOCK_RECORD
  5
1F
330
1
100
AcDbSymbolTableRecord
100
AcDbBlockTableRecord
  2
*MODEL_SPACE
  0
BLOCK_RECORD
  5
1B
330
1
100
AcDbSymbolTableRecord
100
AcDbBlockTableRecord
  2
*PAPER_SPACE
  0
BLOCK_RECORD
  5
52
330
1
100
AcDbSymbolTableRecord
100
AcDbBlockTableRecord
  2
*U1
  0
BLOCK_RECORD
  5
CD
330
1
100
AcDbSymbolTableRecord
100
AcDbBlockTableRecord
  2
*U2
  0
ENDTAB
  0
ENDSEC
  0
SECTION
  2
BLOCKS
  0
BLOCK
  5
20
330
1F
100
AcDbEntity
  8
0
100
AcDbBlockBegin
  2
*MODEL_SPACE
 70
     0
 10
0.0
 20
0.0
 30
0.0
  3
*MODEL_SPACE
  1

  0
ENDBLK
  5
21
330
1F
100
AcDbEntity
  8
0
100
AcDbBlockEnd
  0
BLOCK
  5
1C
330
1B
100
AcDbEntity
 67
     1
  8
0
100
AcDbBlockBegin
  2
*PAPER_SPACE
 70
     0
 10
0.0
 20
0.0
 30
0.0
  3
*PAPER_SPACE
  1

  0
ENDBLK
  5
1D
330
1B
100
AcDbEntity
 67
     1
  8
0
100
AcDbBlockEnd
  0
BLOCK
  5
D1
330
52
100
AcDbEntity
  8
0
100
AcDbBlockBegin
  2
*U1
 70
     1
 10
0.0
 20
0.0
 30
0.0
  3
*U1
  1

  0
SOLID
  5
53
330
52
100
AcDbEntity
  8
COPPER_MASK
 62
     7
100
AcDbTrace
 10
11.17660371845673
 20
-41.7799287901568
 30
0.0
 11
11.17660371845673
 21
-39.51249980161224
 31
0.0
 12
11.17829494948467
 22
-41.79092401714235
 32
0.0
 13
11.17829494948467
 23
-41.79092401714235
 33
0.0
  0
SOLID
  5
54
330
52
100
AcDbEntity
  8
COPPER_MASK
 62
     7
100
AcDbTrace
 10
11.17829494948467
 20
-41.79092401714235
 30
0.0
 11
11.17660371845673
 21
-39.51249980161224
 31
0.0
 12
11.17829494948467
 22
-39.47782289042608
 32
0.0
 13
11.17829494948467
 23
-39.47782289042608
 33
0.0
  0
SOLID
  5
55
330
52
100
AcDbEntity
  8
COPPER_MASK
 62
     7
100
AcDbTrace
 10
11.17829494948467
 20
-41.79092401714235
 30
0.0
 11
11.17829494948467
 21
-39.47782289042608
 31
0.0
 12
11.18167741154054
 22
-41.81291447111348
 32
0.0
 13
11.18167741154054
 23
-41.81291447111348
 33
0.0
  0
SOLID
  5
56
330
52
100
AcDbEntity
  8
COPPER_MASK
 62
     7
100
AcDbTrace
 10
11.18167741154054
 20
-41.81291447111348
 30
0.0
 11
11.17829494948467
 21
-39.47782289042608
 31
0.0
 12
11.18167741154054
 22
-39.47444042996712
 32
0.0
 13
11.18167741154054
 23
-39.47444042996712
 33
0.0
  0
SOLID
  5
57
330
52
100
AcDbEntity
  8
COPPER_MASK
 62
     7
100
AcDbTrace
 10
11.18167741154054
 20
-41.81291447111348
 30
0.0
 11
11.18167741154054
 21
-39.47444042996712
 31
0.0
 12
11.19969820136697
 22
-41.81291447111348
 32
0.0
 13
11.19969820136697
 23
-41.81291447111348
 33
0.0
  0
SOLID
  5
58
330
52
100
AcDbEntity
  8
COPPER_MASK
 62
     7
100
AcDbTrace
 10
11.19969820136697
 20
-41.81291447111348
 30
0.0
 11
11.18167741154054
 21
-39.47444042996712
 31
0.0
 12
11.19969820136697
 22
-39.45641964864856
 32
0.0
 13
11.19969820136697
 23
-39.45641964864856
 33
0.0
  0
SOLID
  5
59
330
52
100
AcDbEntity
  8
COPPER_MASK
 62
     7
100
AcDbTrace
 10
11.19969820136697
 20
-41.81291447111348
 30
0.0
 11
11.19969820136697
 21
-39.45641964864856
 31
0.0
 12
11.24392138928046
 22
-41.81291447111348
 32
0.0
 13
11.24392138928046
 23
-41.81291447111348
 33
0.0
  0
SOLID
  5
5A
330
52
100
AcDbEntity
  8
COPPER_MASK
 62
     7
100
AcDbTrace
 10
11.24392138928046
 20
-41.81291447111348
 30
0.0
 11
11.19969820136697
 21
-39.45641964864856
 31
0.0
 12
11.24392138928046
 22
-39.41219648161346
 32
0.0
 13
11.24392138928046
 23
-39.41219648161346
 33
0.0
  0
SOLID
  5
5B
330
52
100
AcDbEntity
  8
COPPER_MASK
 62
     7
100
AcDbTrace
 10
11.24392138928046
 20
-41.81291447111348
 30
0.0
 11
11.24392138928046
 21
-39.41219648161346
 31
0.0
 12
11.24588716718745
 22
-41.81291447111348
 32
0.0
 13
11.24588716718745
 23
-41.81291447111348
 33
0.0
  0
SOLID
  5
5C
330
52
100
AcDbEntity
  8
COPPER_MASK
 62
     7
100
AcDbTrace
 10
11.24588716718745
 20
-41.81291447111348
 30
0.0
 11
11.24392138928046
 21
-39.41219648161346
 31
0.0
 12
11.24588716718745
 22
-39.41023070463455
 32
0.0
 13
11.24588716718745
 23
-39.41023070463455
 33
0.0
  0
SOLID
  5
5D
330
52
100
AcDbEntity
  8
COPPER_MASK
 62
     7
100
AcDbTrace
 10
11.24588716718745
 20
-41.81291447111348
 30
0.0
 11
11.24588716718745
 21
-39.41023070463455
 31
0.0
 12
11.37855673092794
 22
-41.81291447111348
 32
0.0
 13
11.37855673092794
 23
-41.81291447111348
 33
0.0
  0
SOLID
  5
5E
330
52
100
AcDbEntity
  8
COPPER_MASK
 62
     7
100
AcDbTrace
 10
11.37855673092794
 20
-41.81291447111348
 30
0.0
 11
11.24588716718745
 21
-39.41023070463455
 31
0.0
 12
11.37855673092794
 22
-39.27756120352925
 32
0.0
 13
11.37855673092794
 23
-39.27756120352925
 33
0.0
  0
SOLID
  5
5F
330
52
100
AcDbEntity
  8
COPPER_MASK
 62
     7
100
AcDbTrace
 10
11.37855673092794
 20
-41.81291447111348
 30
0.0
 11
11.37855673092794
 21
-39.27756120352925
 31
0.0
 12
11.39194193439243
 22
-41.81291447111348
 32
0.0
 13
11.39194193439243
 23
-41.81291447111348
 33
0.0
  0
SOLID
  5
60
330
52
100
AcDbEntity
  8
COPPER_MASK
 62
     7
100
AcDbTrace
 10
11.39194193439243
 20
-41.81291447111348
 30
0.0
 11
11.37855673092794
 21
-39.27756120352925
 31
0.0
 12
11.39194193439243
 22
-39.26417600638411
 32
0.0
 13
11.39194193439243
 23
-39.26417600638411
 33
0.0
  0
SOLID
  5
61
330
52
100
AcDbEntity
  8
COPPER_MASK
 62
     7
100
AcDbTrace
 10
11.39194193439243
 20
-41.81291447111348
 30
0.0
 11
11.39194193439243
 21
-39.26417600638411
 31
0.0
 12
11.57302187365557
 22
-41.81291447111348
 32
0.0
 13
11.57302187365557
 23
-41.81291447111348
 33
0.0
  0
SOLID
  5
62
330
52
100
AcDbEntity
  8
COPPER_MASK
 62
     7
100
AcDbTrace
 10
11.57302187365557
 20
-41.81291447111348
 30
0.0
 11
11.39194193439243
 21
-39.26417600638411
 31
0.0
 12
11.57302187365557
 22
-39.0830961526114
 32
0.0
 13
11.57302187365557
 23
-39.0830961526114
 33
0.0
  0
SOLID
  5
63
330
52
100
AcDbEntity
  8
COPPER_MASK
 62
     7
100
AcDbTrace
 10
11.57302187365557
 20
-41.81291447111348
 30
0.0
 11
11.57302187365557
 21
-39.0830961526114
 31
0.0
 12
11.60458530720335
 22
-41.81291447111348
 32
0.0
 13
11.60458530720335
 23
-41.81291447111348
 33
0.0
  0
SOLID
  5
64
330
52
100
AcDbEntity
  8
COPPER_MASK
 62
     7
100
AcDbTrace
 10
11.60458530720335
 20
-41.81291447111348
 30
0.0
 11
11.57302187365557
 21
-39.0830961526114
 31
0.0
 12
11.60458530720335
 22
-39.05153273396517
 32
0.0
 13
11.60458530720335
 23
-39.05153273396517
 33
0.0
  0
SOLID
  5
65
330
52
100
AcDbEntity
  8
COPPER_MASK
 62
     7
100
AcDbTrace
 10
11.60458530720335
 20
-41.81291447111348
 30
0.0
 11
11.60458530720335
 21
-39.05153273396517
 31
0.0
 12
11.82261836626388
 22
-41.81291447111348
 32
0.0
 13
11.82261836626388
 23
-41.81291447111348
 33
0.0
  0
SOLID
  5
66
330
52
100
AcDbEntity
  8
COPPER_MASK
 62
     7
100
AcDbTrace
 10
11.82261836626388
 20
-41.81291447111348
 30
0.0
 11
11.60458530720335
 21
-39.05153273396517
 31
0.0
 12
11.82261836626388
 22
-38.83349977784118
 32
0.0
 13
11.82261836626388
 23
-38.83349977784118
 33
0.0
  0
SOLID
  5
67
330
52
100
AcDbEntity
  8
COPPER_MASK
 62
     7
100
AcDbTrace
 10
11.82261836626388
 20
-41.81291447111348
 30
0.0
 11
11.82261836626388
 21
-38.83349977784118
 31
0.0
 12
11.86408023009602
 22
-41.81291447111348
 32
0.0
 13
11.86408023009602
 23
-41.81291447111348
 33
0.0
  0
SOLID
  5
68
330
52
100
AcDbEntity
  8
COPPER_MASK
 62
     7
100
AcDbTrace
 10
11.86408023009602
 20
-41.81291447111348
 30
0.0
 11
11.82261836626388
 21
-38.83349977784118
 31
0.0
 12
11.86408023009602
 22
-38.79203793358378
 32
0.0
 13
11.86408023009602
 23
-38.79203793358378
 33
0.0
  0
SOLID
  5
69
330
52
100
AcDbEntity
  8
COPPER_MASK
 62
     7
100
AcDbTrace
 10
11.86408023009602
 20
-41.81291447111348
 30
0.0
 11
11.86408023009602
 21
-38.79203793358378
 31
0.0
 12
12.12068197964641
 22
-41.81291447111348
 32
0.0
 13
12.12068197964641
 23
-41.81291447111348
 33
0.0
  0
SOLID
  5
6A
330
52
100
AcDbEntity
  8
COPPER_MASK
 62
     7
100
AcDbTrace
 10
12.12068197964641
 20
-41.81291447111348
 30
0.0
 11
11.86408023009602
 21
-38.79203793358378
 31
0.0
 12
12.12068197964641
 22
-38.53543630517874
 32
0.0
 13
12.12068197964641
 23
-38.53543630517874
 33
0.0
  0
SOLID
  5
6B
330
52
100
AcDbEntity
  8
COPPER_MASK
 62
     7
100
AcDbTrace
 10
12.12068197964641
 20
-41.81291447111348
 30
0.0
 11
12.12068197964641
 21
-38.53543630517874
 31
0.0
 12
12.45253961565772
 22
-41.81291447111348
 32
0.0
 13
12.45253961565772
 23
-41.81291447111348
 33
0.0
  0
SOLID
  5
6C
330
52
100
AcDbEntity
  8
COPPER_MASK
 62
     7
100
AcDbTrace
 10
12.45253961565772
 20
-41.81291447111348
 30
0.0
 11
12.12068197964641
 21
-38.53543630517874
 31
0.0
 12
12.45253961565772
 22
-38.20357882584216
 32
0.0
 13
12.45253961565772
 23
-38.20357882584216
 33
0.0
  0
SOLID
  5
6D
330
52
100
AcDbEntity
  8
COPPER_MASK
 62
     7
100
AcDbTrace
 10
12.45253961565772
 20
-41.81291447111348
 30
0.0
 11
12.45253961565772
 21
-38.20357882584216
 31
0.0
 12
12.4605484846967
 22
-41.81291447111348
 32
0.0
 13
12.4605484846967
 23
-41.81291447111348
 33
0.0
  0
SOLID
  5
6E
330
52
100
AcDbEntity
  8
COPPER_MASK
 62
     7
100
AcDbTrace
 10
12.4605484846967
 20
-41.81291447111348
 30
0.0
 11
12.45253961565772
 21
-38.20357882584216
 31
0.0
 12
12.4605484846967
 22
-38.19556996058429
 32
0.0
 13
12.4605484846967
 23
-38.19556996058429
 33
0.0
  0
SOLID
  5
6F
330
52
100
AcDbEntity
  8
COPPER_MASK
 62
     7
100
AcDbTrace
 10
12.4605484846967
 20
-41.81291447111348
 30
0.0
 11
12.4605484846967
 21
-38.19556996058429
 31
0.0
 12
12.74596152309234
 22
-41.81291447111348
 32
0.0
 13
12.74596152309234
 23
-41.81291447111348
 33
0.0
  0
SOLID
  5
70
330
52
100
AcDbEntity
  8
COPPER_MASK
 62
     7
100
AcDbTrace
 10
12.74596152309234
 20
-41.81291447111348
 30
0.0
 11
12.4605484846967
 21
-38.19556996058429
 31
0.0
 12
12.74596152309234
 22
-37.91015705693623
 32
0.0
 13
12.74596152309234
 23
-37.91015705693623
 33
0.0
  0
SOLID
  5
71
330
52
100
AcDbEntity
  8
COPPER_MASK
 62
     7
100
AcDbTrace
 10
12.74596152309234
 20
-41.81291447111348
 30
0.0
 11
12.74596152309234
 21
-37.91015705693623
 31
0.0
 12
12.83555365230831
 22
-41.81291447111348
 32
0.0
 13
12.83555365230831
 23
-41.81291447111348
 33
0.0
  0
SOLID
  5
72
330
52
100
AcDbEntity
  8
COPPER_MASK
 62
     7
100
AcDbTrace
 10
12.83555365230831
 20
-41.81291447111348
 30
0.0
 11
12.74596152309234
 21
-37.91015705693623
 31
0.0
 12
12.83555365230831
 22
-37.82056497001798
 32
0.0
 13
12.83555365230831
 23
-37.82056497001798
 33
0.0
  0
SOLID
  5
73
330
52
100
AcDbEntity
  8
COPPER_MASK
 62
     7
100
AcDbTrace
 10
12.83555365230831
 20
-41.81291447111348
 30
0.0
 11
12.83555365230831
 21
-37.82056497001798
 31
0.0
 12
13.01514987013985
 22
-41.81291447111348
 32
0.0
 13
13.01514987013985
 23
-41.81291447111348
 33
0.0
  0
SOLID
  5
74
330
52
100
AcDbEntity
  8
COPPER_MASK
 62
     7
100
AcDbTrace
 10
13.01514987013985
 20
-41.81291447111348
 30
0.0
 11
12.83555365230831
 21
-37.82056497001798
 31
0.0
 12
13.01514987013985
 22
-37.64096883697638
 32
0.0
 13
13.01514987013985
 23
-37.64096883697638
 33
0.0
  0
SOLID
  5
75
330
52
100
AcDbEntity
  8
COPPER_MASK
 62
     7
100
AcDbTrace
 10
13.01514987013985
 20
-41.81291447111348
 30
0.0
 11
13.01514987013985
 21
-37.64096883697638
 31
0.0
 12
13.23903325337477
 22
-41.81291447111348
 32
0.0
 13
13.23903325337477
 23
-41.81291447111348
 33
0.0
  0
SOLID
  5
76
330
52
100
AcDbEntity
  8
COPPER_MASK
 62
     7
100
AcDbTrace
 10
13.23903325337477
 20
-41.81291447111348
 30
0.0
 11
13.01514987013985
 21
-37.64096883697638
 31
0.0
 12
13.23903325337477
 22
-37.41708555944002
 32
0.0
 13
13.23903325337477
 23
-37.41708555944002
 33
0.0
  0
SOLID
  5
77
330
52
100
AcDbEntity
  8
COPPER_MASK
 62
     7
100
AcDbTrace
 10
13.23903325337477
 20
-41.81291447111348
 30
0.0
 11
13.23903325337477
 21
-37.41708555944002
 31
0.0
 12
13.24233337918304
 22
-41.81291447111348
 32
0.0
 13
13.24233337918304
 23
-41.81291447111348
 33
0.0
  0
SOLID
  5
78
330
52
100
AcDbEntity
  8
COPPER_MASK
 62
     7
100
AcDbTrace
 10
13.24233337918304
 20
-41.81291447111348
 30
0.0
 11
13.23903325337477
 21
-37.41708555944002
 31
0.0
 12
13.24233337918304
 22
-37.41378543518979
 32
0.0
 13
13.24233337918304
 23
-37.41378543518979
 33
0.0
  0
SOLID
  5
79
330
52
100
AcDbEntity
  8
COPPER_MASK
 62
     7
100
AcDbTrace
 10
13.24233337918304
 20
-41.81291447111348
 30
0.0
 11
13.24233337918304
 21
-37.41378543518979
 31
0.0
 12
13.40974077260469
 22
-41.81291447111348
 32
0.0
 13
13.40974077260469
 23
-41.81291447111348
 33
0.0
  0
SOLID
  5
7A
330
52
100
AcDbEntity
  8
COPPER_MASK
 62
     7
100
AcDbTrace
 10
13.40974077260469
 20
-41.81291447111348
 30
0.0
 11
13.24233337918304
 21
-37.41378543518979
 31
0.0
 12
13.40974077260469
 22
-37.24637812080356
 32
0.0
 13
13.40974077260469
 23
-37.24637812080356
 33
0.0
  0
SOLID
  5
7B
330
52
100
AcDbEntity
  8
COPPER_MASK
 62
     7
100
AcDbTrace
 10
13.40974077260469
 20
-41.81291447111348
 30
0.0
 11
13.40974077260469
 21
-37.24637812080356
 31
0.0
 12
13.46547490170206
 22
-41.81291447111348
 32
0.0
 13
13.46547490170206
 23
-41.81291447111348
 33
0.0
  0
SOLID
  5
7C
330
52
100
AcDbEntity
  8
COPPER_MASK
 62
     7
100
AcDbTrace
 10
13.46547490170206
 20
-41.81291447111348
 30
0.0
 11
13.40974077260469
 21
-37.24637812080356
 31
0.0
 12
13.46547490170206
 22
-37.19064401801906
 32
0.0
 13
13.46547490170206
 23
-37.19064401801906
 33
0.0
  0
SOLID
  5
7D
330
52
100
AcDbEntity
  8
COPPER_MASK
 62
     7
100
AcDbTrace
 10
13.46547490170206
 20
-41.81291447111348
 30
0.0
 11
13.46547490170206
 21
-37.19064401801906
 31
0.0
 12
13.49960077278759
 22
-41.81291447111348
 32
0.0
 13
13.49960077278759
 23
-41.81291447111348
 33
0.0
  0
SOLID
  5
7E
330
52
100
AcDbEntity
  8
COPPER_MASK
 62
     7
100
AcDbTrace
 10
13.49960077278759
 20
-41.81291447111348
 30
0.0
 11
13.46547490170206
 21
-37.19064401801906
 31
0.0
 12
13.49960077278759
 22
-37.15651816304485
 32
0.0
 13
13.49960077278759
 23
-37.15651816304485
 33
0.0
  0
SOLID
  5
7F
330
52
100
AcDbEntity
  8
COPPER_MASK
 62
     7
100
AcDbTrace
 10
13.49960077278759
 20
-41.81291447111348
 30
0.0
 11
13.49960077278759
 21
-37.15651816304485
 31
0.0
 12
13.51000406891337
 22
-41.81291447111348
 32
0.0
 13
13.51000406891337
 23
-41.81291447111348
 33
0.0
  0
SOLID
  5
80
330
52
100
AcDbEntity
  8
COPPER_MASK
 62
     7
100
AcDbTrace
 10
13.51000406891337
 20
-41.81291447111348
 30
0.0
 11
13.49960077278759
 21
-37.15651816304485
 31
0.0
 12
13.51000406891337
 22
-37.1610155002735
 32
0.0
 13
13.51000406891337
 23
-37.1610155002735
 33
0.0
  0
SOLID
  5
81
330
52
100
AcDbEntity
  8
COPPER_MASK
 62
     7
100
AcDbTrace
 10
13.51000406891337
 20
-41.81291447111348
 30
0.0
 11
13.51000406891337
 21
-39.47908908779526
 31
0.0
 12
13.51845326997809
 22
-41.81291447111348
 32
0.0
 13
13.51845326997809
 23
-41.81291447111348
 33
0.0
  0
SOLID
  5
82
330
52
100
AcDbEntity
  8
COPPER_MASK
 62
     7
100
AcDbTrace
 10
13.51845326997809
 20
-41.81291447111348
 30
0.0
 11
13.51000406891337
 21
-39.47908908779526
 31
0.0
 12
13.51845326997809
 22
-39.47106492357982
 32
0.0
 13
13.51845326997809
 23
-39.47106492357982
 33
0.0
  0
SOLID
  5
83
330
52
100
AcDbEntity
  8
COPPER_MASK
 62
     7
100
AcDbTrace
 10
13.51845326997809
 20
-41.81291447111348
 30
0.0
 11
13.51845326997809
 21
-39.47106492357982
 31
0.0
 12
13.55050460142444
 22
-41.81291447111348
 32
0.0
 13
13.55050460142444
 23
-41.81291447111348
 33
0.0
  0
SOLID
  5
84
330
52
100
AcDbEntity
  8
COPPER_MASK
 62
     7
100
AcDbTrace
 10
13.55050460142444
 20
-41.81291447111348
 30
0.0
 11
13.51845326997809
 21
-39.47106492357982
 31
0.0
 12
13.55050460142444
 22
-39.43901360726539
 32
0.0
 13
13.55050460142444
 23
-39.43901360726539
 33
0.0
  0
SOLID
  5
85
330
52
100
AcDbEntity
  8
COPPER_MASK
 62
     7
100
AcDbTrace
 10
13.55050460142444
 20
-41.81291447111348
 30
0.0
 11
13.55050460142444
 21
-39.43901360726539
 31
0.0
 12
13.67781646766018
 22
-41.81291447111348
 32
0.0
 13
13.67781646766018
 23
-41.81291447111348
 33
0.0
  0
SOLID
  5
86
330
52
100
AcDbEntity
  8
COPPER_MASK
 62
     7
100
AcDbTrace
 10
13.67781646766018
 20
-41.81291447111348
 30
0.0
 11
13.55050460142444
 21
-39.43901360726539
 31
0.0
 12
13.67781646766018
 22
-39.31170180113543
 32
0.0
 13
13.67781646766018
 23
-39.31170180113543
 33
0.0
  0
SOLID
  5
87
330
52
100
AcDbEntity
  8
COPPER_MASK
 62
     7
100
AcDbTrace
 10
13.67781646766018
 20
-41.81291447111348
 30
0.0
 11
13.67781646766018
 21
-39.31170180113543
 31
0.0
 12
13.87459787367232
 22
-41.81291447111348
 32
0.0
 13
13.87459787367232
 23
-41.81291447111348
 33
0.0
  0
SOLID
  5
88
330
52
100
AcDbEntity
  8
COPPER_MASK
 62
     7
100
AcDbTrace
 10
13.87459787367232
 20
-41.81291447111348
 30
0.0
 11
13.67781646766018
 21
-39.31170180113543
 31
0.0
 12
13.87459787367232
 22
-39.11492048802666
 32
0.0
 13
13.87459787367232
 23
-39.11492048802666
 33
0.0
  0
SOLID
  5
89
330
52
100
AcDbEntity
  8
COPPER_MASK
 62
     7
100
AcDbTrace
 10
13.87459787367232
 20
-41.81291447111348
 30
0.0
 11
13.87459787367232
 21
-39.11492048802666
 31
0.0
 12
14.10475883944643
 22
-41.81291447111348
 32
0.0
 13
14.10475883944643
 23
-41.81291447111348
 33
0.0
  0
SOLID
  5
8A
330
52
100
AcDbEntity
  8
COPPER_MASK
 62
     7
100
AcDbTrace
 10
14.10475883944643
 20
-41.81291447111348
 30
0.0
 11
13.87459787367232
 21
-39.11492048802666
 31
0.0
 12
14.10475883944643
 22
-38.8847596309149
 32
0.0
 13
14.10475883944643
 23
-38.8847596309149
 33
0.0
  0
SOLID
  5
8B
330
52
100
AcDbEntity
  8
COPPER_MASK
 62
     7
100
AcDbTrace
 10
14.10475883944643
 20
-41.81291447111348
 30
0.0
 11
14.10475883944643
 21
-38.8847596309149
 31
0.0
 12
14.12307754184364
 22
-41.81291447111348
 32
0.0
 13
14.12307754184364
 23
-41.81291447111348
 33
0.0
  0
SOLID
  5
8C
330
52
100
AcDbEntity
  8
COPPER_MASK
 62
     7
100
AcDbTrace
 10
14.12307754184364
 20
-41.81291447111348
 30
0.0
 11
14.10475883944643
 21
-38.8847596309149
 31
0.0
 12
14.12307754184364
 22
-38.86644093716622
 32
0.0
 13
14.12307754184364
 23
-38.86644093716622
 33
0.0
  0
SOLID
  5
8D
330
52
100
AcDbEntity
  8
COPPER_MASK
 62
     7
100
AcDbTrace
 10
14.12307754184364
 20
-41.81291447111348
 30
0.0
 11
14.12307754184364
 21
-38.86644093716622
 31
0.0
 12
14.40548419455692
 22
-41.81291447111348
 32
0.0
 13
14.40548419455692
 23
-41.81291447111348
 33
0.0
  0
SOLID
  5
8E
330
52
100
AcDbEntity
  8
COPPER_MASK
 62
     7
100
AcDbTrace
 10
14.40548419455692
 20
-41.81291447111348
 30
0.0
 11
14.12307754184364
 21
-38.86644093716622
 31
0.0
 12
14.40548419455692
 22
-38.58403441778123
 32
0.0
 13
14.40548419455692
 23
-38.58403441778123
 33
0.0
  0
SOLID
  5
8F
330
52
100
AcDbEntity
  8
COPPER_MASK
 62
     7
100
AcDbTrace
 10
14.40548419455692
 20
-41.81291447111348
 30
0.0
 11
14.40548419455692
 21
-38.58403441778123
 31
0.0
 12
15.0009933431405
 22
-41.81291447111348
 32
0.0
 13
15.0009933431405
 23
-41.81291447111348
 33
0.0
  0
SOLID
  5
90
330
52
100
AcDbEntity
  8
COPPER_MASK
 62
     7
100
AcDbTrace
 10
15.0009933431405
 20
-41.81291447111348
 30
0.0
 11
14.40548419455692
 21
-38.58403441778123
 31
0.0
 12
15.0009933431405
 22
-37.98852555034621
 32
0.0
 13
15.0009933431405
 23
-37.98852555034621
 33
0.0
  0
SOLID
  5
91
330
52
100
AcDbEntity
  8
COPPER_MASK
 62
     7
100
AcDbTrace
 10
15.0009933431405
 20
-41.81291447111348
 30
0.0
 11
15.0009933431405
 21
-37.98852555034621
 31
0.0
 12
15.00441141006005
 22
-41.81291447111348
 32
0.0
 13
15.00441141006005
 23
-41.81291447111348
 33
0.0
  0
SOLID
  5
92
330
52
100
AcDbEntity
  8
COPPER_MASK
 62
     7
100
AcDbTrace
 10
15.00441141006005
 20
-41.81291447111348
 30
0.0
 11
15.0009933431405
 21
-37.98852555034621
 31
0.0
 12
15.00441141006005
 22
-37.98510748504037
 32
0.0
 13
15.00441141006005
 23
-37.98510748504037
 33
0.0
  0
SOLID
  5
93
330
52
100
AcDbEntity
  8
COPPER_MASK
 62
     7
100
AcDbTrace
 10
15.00441141006005
 20
-41.81291447111348
 30
0.0
 11
15.00441141006005
 21
-37.98510748504037
 31
0.0
 12
15.27855328377636
 22
-41.81291447111348
 32
0.0
 13
15.27855328377636
 23
-41.81291447111348
 33
0.0
  0
SOLID
  5
94
330
52
100
AcDbEntity
  8
COPPER_MASK
 62
     7
100
AcDbTrace
 10
15.27855328377636
 20
-41.81291447111348
 30
0.0
 11
15.00441141006005
 21
-37.98510748504037
 31
0.0
 12
15.27855328377636
 22
-37.71096574075045
 32
0.0
 13
15.27855328377636
 23
-37.71096574075045
 33
0.0
  0
SOLID
  5
95
330
52
100
AcDbEntity
  8
COPPER_MASK
 62
     7
100
AcDbTrace
 10
15.27855328377636
 20
-41.81291447111348
 30
0.0
 11
15.27855328377636
 21
-37.71096574075045
 31
0.0
 12
15.51895509848531
 22
-41.81291447111348
 32
0.0
 13
15.51895509848531
 23
-41.81291447111348
 33
0.0
  0
SOLID
  5
96
330
52
100
AcDbEntity
  8
COPPER_MASK
 62
     7
100
AcDbTrace
 10
15.51895509848531
 20
-41.81291447111348
 30
0.0
 11
15.27855328377636
 21
-37.71096574075045
 31
0.0
 12
15.51895509848531
 22
-37.4705640395387
 32
0.0
 13
15.51895509848531
 23
-37.4705640395387
 33
0.0
  0
SOLID
  5
97
330
52
100
AcDbEntity
  8
COPPER_MASK
 62
     7
100
AcDbTrace
 10
15.51895509848531
 20
-41.81291447111348
 30
0.0
 11
15.51895509848531
 21
-37.4705640395387
 31
0.0
 12
15.70442750965013
 22
-41.81291447111348
 32
0.0
 13
15.70442750965013
 23
-41.81291447111348
 33
0.0
  0
SOLID
  5
98
330
52
100
AcDbEntity
  8
COPPER_MASK
 62
     7
100
AcDbTrace
 10
15.70442750965013
 20
-41.81291447111348
 30
0.0
 11
15.51895509848531
 21
-37.4705640395387
 31
0.0
 12
15.70442750965013
 22
-37.28509171593812
 32
0.0
 13
15.70442750965013
 23
-37.28509171593812
 33
0.0
  0
SOLID
  5
99
330
52
100
AcDbEntity
  8
COPPER_MASK
 62
     7
100
AcDbTrace
 10
15.70442750965013
 20
-41.81291447111348
 30
0.0
 11
15.70442750965013
 21
-37.28509171593812
 31
0.0
 12
15.77101166464811
 22
-41.81291447111348
 32
0.0
 13
15.77101166464811
 23
-41.81291447111348
 33
0.0
  0
SOLID
  5
9A
330
52
100
AcDbEntity
  8
COPPER_MASK
 62
     7
100
AcDbTrace
 10
15.77101166464811
 20
-41.81291447111348
 30
0.0
 11
15.70442750965013
 21
-37.28509171593812
 31
0.0
 12
15.77101166464811
 22
-37.21850759237548
 32
0.0
 13
15.77101166464811
 23
-37.21850759237548
 33
0.0
  0
SOLID
  5
9B
330
52
100
AcDbEntity
  8
COPPER_MASK
 62
     7
100
AcDbTrace
 10
15.77101166464811
 20
-41.81291447111348
 30
0.0
 11
15.77101166464811
 21
-37.21850759237548
 31
0.0
 12
15.8171992396536
 22
-41.81291447111348
 32
0.0
 13
15.8171992396536
 23
-41.81291447111348
 33
0.0
  0
SOLID
  5
9C
330
52
100
AcDbEntity
  8
COPPER_MASK
 62
     7
100
AcDbTrace
 10
15.8171992396536
 20
-41.81291447111348
 30
0.0
 11
15.77101166464811
 21
-37.21850759237548
 31
0.0
 12
15.8171992396536
 22
-37.17232003917581
 32
0.0
 13
15.8171992396536
 23
-37.17232003917581
 33
0.0
  0
SOLID
  5
9D
330
52
100
AcDbEntity
  8
COPPER_MASK
 62
     7
100
AcDbTrace
 10
15.8171992396536
 20
-41.81291447111348
 30
0.0
 11
15.8171992396536
 21
-37.17232003917581
 31
0.0
 12
15.84076882496445
 22
-41.81291447111348
 32
0.0
 13
15.84076882496445
 23
-41.81291447111348
 33
0.0
  0
SOLID
  5
9E
330
52
100
AcDbEntity
  8
COPPER_MASK
 62
     7
100
AcDbTrace
 10
15.84076882496445
 20
-41.81291447111348
 30
0.0
 11
15.8171992396536
 21
-37.17232003917581
 31
0.0
 12
15.84076882496445
 22
-37.14875046499251
 32
0.0
 13
15.84076882496445
 23
-37.14875046499251
 33
0.0
  0
SOLID
  5
9F
330
52
100
AcDbEntity
  8
COPPER_MASK
 62
     7
100
AcDbTrace
 10
15.84076882496445
 20
-41.81291447111348
 30
0.0
 11
15.84076882496445
 21
-37.14875046499251
 31
0.0
 12
15.84340441937065
 22
-41.81291447111348
 32
0.0
 13
15.84340441937065
 23
-41.81291447111348
 33
0.0
  0
SOLID
  5
A0
330
52
100
AcDbEntity
  8
COPPER_MASK
 62
     7
100
AcDbTrace
 10
15.84340441937065
 20
-41.81291447111348
 30
0.0
 11
15.84076882496445
 21
-37.14875046499251
 31
0.0
 12
15.84340441937065
 22
-37.14990011212054
 32
0.0
 13
15.84340441937065
 23
-37.14990011212054
 33
0.0
  0
SOLID
  5
A1
330
52
100
AcDbEntity
  8
COPPER_MASK
 62
     7
100
AcDbTrace
 10
15.84340441937065
 20
-41.81291447111348
 30
0.0
 11
15.84340441937065
 21
-39.47282040943151
 31
0.0
 12
15.84435824029084
 22
-41.81291447111348
 32
0.0
 13
15.84435824029084
 23
-41.81291447111348
 33
0.0
  0
SOLID
  5
A2
330
52
100
AcDbEntity
  8
COPPER_MASK
 62
     7
100
AcDbTrace
 10
15.84435824029084
 20
-41.81291447111348
 30
0.0
 11
15.84340441937065
 21
-39.47282040943151
 31
0.0
 12
15.84435824029084
 22
-39.47856030018568
 32
0.0
 13
15.84435824029084
 23
-39.47856030018568
 33
0.0
  0
SOLID
  5
A3
330
52
100
AcDbEntity
  8
COPPER_MASK
 62
     7
100
AcDbTrace
 10
15.84435824029084
 20
-41.81291447111348
 30
0.0
 11
15.84435824029084
 21
-39.47856030018568
 31
0.0
 12
15.86357679998673
 22
-41.81291447111348
 32
0.0
 13
15.86357679998673
 23
-41.81291447111348
 33
0.0
  0
SOLID
  5
A4
330
52
100
AcDbEntity
  8
COPPER_MASK
 62
     7
100
AcDbTrace
 10
15.86357679998673
 20
-41.81291447111348
 30
0.0
 11
15.84435824029084
 21
-39.47856030018568
 31
0.0
 12
15.86357679998673
 22
-39.45934174956314
 32
0.0
 13
15.86357679998673
 23
-39.45934174956314
 33
0.0
  0
SOLID
  5
A5
330
52
100
AcDbEntity
  8
COPPER_MASK
 62
     7
100
AcDbTrace
 10
15.86357679998673
 20
-41.81291447111348
 30
0.0
 11
15.86357679998673
 21
-39.45934174956314
 31
0.0
 12
15.88467713236399
 22
-41.81291447111348
 32
0.0
 13
15.88467713236399
 23
-41.81291447111348
 33
0.0
  0
SOLID
  5
A6
330
52
100
AcDbEntity
  8
COPPER_MASK
 62
     7
100
AcDbTrace
 10
15.88467713236399
 20
-41.81291447111348
 30
0.0
 11
15.86357679998673
 21
-39.45934174956314
 31
0.0
 12
15.88467713236399
 22
-39.43824142714766
 32
0.0
 13
15.88467713236399
 23
-39.43824142714766
 33
0.0
  0
SOLID
  5
A7
330
52
100
AcDbEntity
  8
COPPER_MASK
 62
     7
100
AcDbTrace
 10
15.88467713236399
 20
-41.81291447111348
 30
0.0
 11
15.88467713236399
 21
-39.43824142714766
 31
0.0
 12
15.90581724205037
 22
-41.81291447111348
 32
0.0
 13
15.90581724205037
 23
-41.81291447111348
 33
0.0
  0
SOLID
  5
A8
330
52
100
AcDbEntity
  8
COPPER_MASK
 62
     7
100
AcDbTrace
 10
15.90581724205037
 20
-41.81291447111348
 30
0.0
 11
15.88467713236399
 21
-39.43824142714766
 31
0.0
 12
15.90581724205037
 22
-39.41710132744182
 32
0.0
 13
15.90581724205037
 23
-39.41710132744182
 33
0.0
  0
SOLID
  5
A9
330
52
100
AcDbEntity
  8
COPPER_MASK
 62
     7
100
AcDbTrace
 10
15.90581724205037
 20
-41.81291447111348
 30
0.0
 11
15.90581724205037
 21
-39.41710132744182
 31
0.0
 12
15.96885815677962
 22
-41.81291447111348
 32
0.0
 13
15.96885815677962
 23
-41.81291447111348
 33
0.0
  0
SOLID
  5
AA
330
52
100
AcDbEntity
  8
COPPER_MASK
 62
     7
100
AcDbTrace
 10
15.96885815677962
 20
-41.81291447111348
 30
0.0
 11
15.90581724205037
 21
-39.41710132744182
 31
0.0
 12
15.96885815677962
 22
-39.3540604424751
 32
0.0
 13
15.96885815677962
 23
-39.3540604424751
 33
0.0
  0
SOLID
  5
AB
330
52
100
AcDbEntity
  8
COPPER_MASK
 62
     7
100
AcDbTrace
 10
15.96885815677962
 20
-41.81291447111348
 30
0.0
 11
15.96885815677962
 21
-39.3540604424751
 31
0.0
 12
16.1484557654263
 22
-41.81291447111348
 32
0.0
 13
16.1484557654263
 23
-41.81291447111348
 33
0.0
  0
SOLID
  5
AC
330
52
100
AcDbEntity
  8
COPPER_MASK
 62
     7
100
AcDbTrace
 10
16.1484557654263
 20
-41.81291447111348
 30
0.0
 11
15.96885815677962
 21
-39.3540604424751
 31
0.0
 12
16.1484557654263
 22
-39.17446291861901
 32
0.0
 13
16.1484557654263
 23
-39.17446291861901
 33
0.0
  0
SOLID
  5
AD
330
52
100
AcDbEntity
  8
COPPER_MASK
 62
     7
100
AcDbTrace
 10
16.1484557654263
 20
-41.81291447111348
 30
0.0
 11
16.1484557654263
 21
-39.17446291861901
 31
0.0
 12
16.38459834830957
 22
-41.81291447111348
 32
0.0
 13
16.38459834830957
 23
-41.81291447111348
 33
0.0
  0
SOLID
  5
AE
330
52
100
AcDbEntity
  8
COPPER_MASK
 62
     7
100
AcDbTrace
 10
16.38459834830957
 20
-41.81291447111348
 30
0.0
 11
16.1484557654263
 21
-39.17446291861901
 31
0.0
 12
16.38459834830957
 22
-38.93832044722204
 32
0.0
 13
16.38459834830957
 23
-38.93832044722204
 33
0.0
  0
SOLID
  5
AF
330
52
100
AcDbEntity
  8
COPPER_MASK
 62
     7
100
AcDbTrace
 10
16.38459834830957
 20
-41.81291447111348
 30
0.0
 11
16.38459834830957
 21
-38.93832044722204
 31
0.0
 12
16.65951462781221
 22
-41.81291447111348
 32
0.0
 13
16.65951462781221
 23
-41.81291447111348
 33
0.0
  0
SOLID
  5
B0
330
52
100
AcDbEntity
  8
COPPER_MASK
 62
     7
100
AcDbTrace
 10
16.65951462781221
 20
-41.81291447111348
 30
0.0
 11
16.38459834830957
 21
-38.93832044722204
 31
0.0
 12
16.65951462781221
 22
-38.66340429751131
 32
0.0
 13
16.65951462781221
 23
-38.66340429751131
 33
0.0
  0
SOLID
  5
B1
330
52
100
AcDbEntity
  8
COPPER_MASK
 62
     7
100
AcDbTrace
 10
16.65951462781221
 20
-41.81291447111348
 30
0.0
 11
16.65951462781221
 21
-38.66340429751131
 31
0.0
 12
16.69224217350659
 22
-41.81291447111348
 32
0.0
 13
16.69224217350659
 23
-41.81291447111348
 33
0.0
  0
SOLID
  5
B2
330
52
100
AcDbEntity
  8
COPPER_MASK
 62
     7
100
AcDbTrace
 10
16.69224217350659
 20
-41.81291447111348
 30
0.0
 11
16.65951462781221
 21
-38.66340429751131
 31
0.0
 12
16.69224217350659
 22
-38.63067676726807
 32
0.0
 13
16.69224217350659
 23
-38.63067676726807
 33
0.0
  0
SOLID
  5
B3
330
52
100
AcDbEntity
  8
COPPER_MASK
 62
     7
100
AcDbTrace
 10
16.69224217350659
 20
-41.81291447111348
 30
0.0
 11
16.69224217350659
 21
-38.63067676726807
 31
0.0
 12
16.95543332631701
 22
-41.81291447111348
 32
0.0
 13
16.95543332631701
 23
-41.81291447111348
 33
0.0
  0
SOLID
  5
B4
330
52
100
AcDbEntity
  8
COPPER_MASK
 62
     7
100
AcDbTrace
 10
16.95543332631701
 20
-41.81291447111348
 30
0.0
 11
16.69224217350659
 21
-38.63067676726807
 31
0.0
 12
16.95543332631701
 22
-38.36748573871395
 32
0.0
 13
16.95543332631701
 23
-38.36748573871395
 33
0.0
  0
SOLID
  5
B5
330
52
100
AcDbEntity
  8
COPPER_MASK
 62
     7
100
AcDbTrace
 10
16.95543332631701
 20
-41.81291447111348
 30
0.0
 11
16.95543332631701
 21
-38.36748573871395
 31
0.0
 12
17.05210136587625
 22
-41.81291447111348
 32
0.0
 13
17.05210136587625
 23
-41.81291447111348
 33
0.0
  0
SOLID
  5
B6
330
52
100
AcDbEntity
  8
COPPER_MASK
 62
     7
100
AcDbTrace
 10
17.05210136587625
 20
-41.81291447111348
 30
0.0
 11
16.95543332631701
 21
-38.36748573871395
 31
0.0
 12
17.05210136587625
 22
-38.27081774479309
 32
0.0
 13
17.05210136587625
 23
-38.27081774479309
 33
0.0
  0
SOLID
  5
B7
330
52
100
AcDbEntity
  8
COPPER_MASK
 62
     7
100
AcDbTrace
 10
17.05210136587625
 20
-41.81291447111348
 30
0.0
 11
17.05210136587625
 21
-38.27081774479309
 31
0.0
 12
17.37379270063621
 22
-41.81291447111348
 32
0.0
 13
17.37379270063621
 23
-41.81291447111348
 33
0.0
  0
SOLID
  5
B8
330
52
100
AcDbEntity
  8
COPPER_MASK
 62
     7
100
AcDbTrace
 10
17.37379270063621
 20
-41.81291447111348
 30
0.0
 11
17.05210136587625
 21
-38.27081774479309
 31
0.0
 12
17.37379270063621
 22
-37.9491265619082
 32
0.0
 13
17.37379270063621
 23
-37.9491265619082
 33
0.0
  0
SOLID
  5
B9
330
52
100
AcDbEntity
  8
COPPER_MASK
 62
     7
100
AcDbTrace
 10
17.37379270063621
 20
-41.81291447111348
 30
0.0
 11
17.37379270063621
 21
-37.9491265619082
 31
0.0
 12
17.53919286986425
 22
-41.81291447111348
 32
0.0
 13
17.53919286986425
 23
-41.81291447111348
 33
0.0
  0
SOLID
  5
BA
330
52
100
AcDbEntity
  8
COPPER_MASK
 62
     7
100
AcDbTrace
 10
17.53919286986425
 20
-41.81291447111348
 30
0.0
 11
17.37379270063621
 21
-37.9491265619082
 31
0.0
 12
17.53919286986425
 22
-37.78372647076795
 32
0.0
 13
17.53919286986425
 23
-37.78372647076795
 33
0.0
  0
SOLID
  5
BB
330
52
100
AcDbEntity
  8
COPPER_MASK
 62
     7
100
AcDbTrace
 10
17.53919286986425
 20
-41.81291447111348
 30
0.0
 11
17.53919286986425
 21
-37.78372647076795
 31
0.0
 12
17.65065194868001
 22
-41.81291447111348
 32
0.0
 13
17.65065194868001
 23
-41.81291447111348
 33
0.0
  0
SOLID
  5
BC
330
52
100
AcDbEntity
  8
COPPER_MASK
 62
     7
100
AcDbTrace
 10
17.65065194868001
 20
-41.81291447111348
 30
0.0
 11
17.53919286986425
 21
-37.78372647076795
 31
0.0
 12
17.65065194868001
 22
-37.67226744457361
 32
0.0
 13
17.65065194868001
 23
-37.67226744457361
 33
0.0
  0
SOLID
  5
BD
330
52
100
AcDbEntity
  8
COPPER_MASK
 62
     7
100
AcDbTrace
 10
17.65065194868001
 20
-41.81291447111348
 30
0.0
 11
17.65065194868001
 21
-37.67226744457361
 31
0.0
 12
17.79149115967226
 22
-41.81291447111348
 32
0.0
 13
17.79149115967226
 23
-41.81291447111348
 33
0.0
  0
SOLID
  5
BE
330
52
100
AcDbEntity
  8
COPPER_MASK
 62
     7
100
AcDbTrace
 10
17.79149115967226
 20
-41.81291447111348
 30
0.0
 11
17.65065194868001
 21
-37.67226744457361
 31
0.0
 12
17.79149115967226
 22
-37.53142830007357
 32
0.0
 13
17.79149115967226
 23
-37.53142830007357
 33
0.0
  0
SOLID
  5
BF
330
52
100
AcDbEntity
  8
COPPER_MASK
 62
     7
100
AcDbTrace
 10
17.79149115967226
 20
-41.81291447111348
 30
0.0
 11
17.79149115967226
 21
-37.53142830007357
 31
0.0
 12
17.87601488090121
 22
-41.81291447111348
 32
0.0
 13
17.87601488090121
 23
-41.81291447111348
 33
0.0
  0
SOLID
  5
C0
330
52
100
AcDbEntity
  8
COPPER_MASK
 62
     7
100
AcDbTrace
 10
17.87601488090121
 20
-41.81291447111348
 30
0.0
 11
17.79149115967226
 21
-37.53142830007357
 31
0.0
 12
17.87601488090121
 22
-37.44690461874949
 32
0.0
 13
17.87601488090121
 23
-37.44690461874949
 33
0.0
  0
SOLID
  5
C1
330
52
100
AcDbEntity
  8
COPPER_MASK
 62
     7
100
AcDbTrace
 10
17.87601488090121
 20
-41.81291447111348
 30
0.0
 11
17.87601488090121
 21
-37.44690461874949
 31
0.0
 12
17.99370675801358
 22
-41.81291447111348
 32
0.0
 13
17.99370675801358
 23
-41.81291447111348
 33
0.0
  0
SOLID
  5
C2
330
52
100
AcDbEntity
  8
COPPER_MASK
 62
     7
100
AcDbTrace
 10
17.99370675801358
 20
-41.81291447111348
 30
0.0
 11
17.87601488090121
 21
-37.44690461874949
 31
0.0
 12
17.99370675801358
 22
-37.32921279720113
 32
0.0
 13
17.99370675801358
 23
-37.32921279720113
 33
0.0
  0
SOLID
  5
C3
330
52
100
AcDbEntity
  8
COPPER_MASK
 62
     7
100
AcDbTrace
 10
17.99370675801358
 20
-41.81291447111348
 30
0.0
 11
17.99370675801358
 21
-37.32921279720113
 31
0.0
 12
18.04321726819334
 22
-41.81291447111348
 32
0.0
 13
18.04321726819334
 23
-41.81291447111348
 33
0.0
  0
SOLID
  5
C4
330
52
100
AcDbEntity
  8
COPPER_MASK
 62
     7
100
AcDbTrace
 10
18.04321726819334
 20
-41.81291447111348
 30
0.0
 11
17.99370675801358
 21
-37.32921279720113
 31
0.0
 12
18.04321726819334
 22
-37.27970231039599
 32
0.0
 13
18.04321726819334
 23
-37.27970231039599
 33
0.0
  0
SOLID
  5
C5
330
52
100
AcDbEntity
  8
COPPER_MASK
 62
     7
100
AcDbTrace
 10
18.04321726819334
 20
-41.81291447111348
 30
0.0
 11
18.04321726819334
 21
-37.27970231039599
 31
0.0
 12
18.12806838727099
 22
-41.81291447111348
 32
0.0
 13
18.12806838727099
 23
-41.81291447111348
 33
0.0
  0
SOLID
  5
C6
330
52
100
AcDbEntity
  8
COPPER_MASK
 62
     7
100
AcDbTrace
 10
18.12806838727099
 20
-41.81291447111348
 30
0.0
 11
18.04321726819334
 21
-37.27970231039599
 31
0.0
 12
18.12806838727099
 22
-37.19485123137777
 32
0.0
 13
18.12806838727099
 23
-37.19485123137777
 33
0.0
  0
SOLID
  5
C7
330
52
100
AcDbEntity
  8
COPPER_MASK
 62
     7
100
AcDbTrace
 10
18.12806838727099
 20
-41.81291447111348
 30
0.0
 11
18.12806838727099
 21
-37.19485123137777
 31
0.0
 12
18.14559488144995
 22
-41.81291447111348
 32
0.0
 13
18.14559488144995
 23
-41.81291447111348
 33
0.0
  0
SOLID
  5
C8
330
52
100
AcDbEntity
  8
COPPER_MASK
 62
     7
100
AcDbTrace
 10
18.14559488144995
 20
-41.81291447111348
 30
0.0
 11
18.12806838727099
 21
-37.19485123137777
 31
0.0
 12
18.14559488144995
 22
-37.17732474547332
 32
0.0
 13
18.14559488144995
 23
-37.17732474547332
 33
0.0
  0
SOLID
  5
C9
330
52
100
AcDbEntity
  8
COPPER_MASK
 62
     7
100
AcDbTrace
 10
18.14559488144995
 20
-41.81291447111348
 30
0.0
 11
18.14559488144995
 21
-37.17732474547332
 31
0.0
 12
18.16425043923786
 22
-41.81278710788806
 32
0.0
 13
18.16425043923786
 23
-41.81278710788806
 33
0.0
  0
SOLID
  5
CA
330
52
100
AcDbEntity
  8
COPPER_MASK
 62
     7
100
AcDbTrace
 10
18.16425043923786
 20
-41.81278710788806
 30
0.0
 11
18.14559488144995
 21
-37.17732474547332
 31
0.0
 12
18.16425043923786
 22
-37.15866919649297
 32
0.0
 13
18.16425043923786
 23
-37.15866919649297
 33
0.0
  0
SOLID
  5
CB
330
52
100
AcDbEntity
  8
COPPER_MASK
 62
     7
100
AcDbTrace
 10
18.16425043923786
 20
-41.81278710788806
 30
0.0
 11
18.16425043923786
 21
-37.15866919649297
 31
0.0
 12
18.17680476982729
 22
-41.8127013983073
 32
0.0
 13
18.17680476982729
 23
-41.8127013983073
 33
0.0
  0
SOLID
  5
CC
330
52
100
AcDbEntity
  8
COPPER_MASK
 62
     7
100
AcDbTrace
 10
18.17680476982729
 20
-41.8127013983073
 30
0.0
 11
18.16425043923786
 21
-37.15866919649297
 31
0.0
 12
18.17680476982729
 22
-37.14611487183061
 32
0.0
 13
18.17680476982729
 23
-37.14611487183061
 33
0.0
  0
ENDBLK
  5
D2
330
52
100
AcDbEntity
  8
0
100
AcDbBlockEnd
  0
BLOCK
  5
D3
330
CD
100
AcDbEntity
  8
0
100
AcDbBlockBegin
  2
*U2
 70
     1
 10
0.0
 20
0.0
 30
0.0
  3
*U2
  1

  0
SOLID
  5
CE
330
CD
100
AcDbEntity
  8
COPPER_MASK
 62
     7
100
AcDbTrace
 10
6.509799712645172
 20
-41.81291226784752
 30
0.0
 11
6.509799712645172
 21
-37.14611597346359
 31
0.0
 12
6.791368106641697
 22
-41.81291226784752
 32
0.0
 13
6.791368106641697
 23
-41.81291226784752
 33
0.0
  0
SOLID
  5
CF
330
CD
100
AcDbEntity
  8
COPPER_MASK
 62
     7
100
AcDbTrace
 10
6.791368106641697
 20
-41.81291226784752
 30
0.0
 11
6.509799712645172
 21
-37.14611597346359
 31
0.0
 12
6.791368106641697
 22
-37.42768330400276
 32
0.0
 13
6.791368106641697
 23
-37.42768330400276
 33
0.0
  0
SOLID
  5
D0
330
CD
100
AcDbEntity
  8
COPPER_MASK
 62
     7
100
AcDbTrace
 10
6.791368106641697
 20
-39.47951412065556
 30
0.0
 11
6.791368106641697
 21
-37.42768330400276
 31
0.0
 12
8.843206672895814
 22
-39.47951412065556
 32
0.0
 13
8.843206672895814
 23
-39.47951412065556
 33
0.0
  0
ENDBLK
  5
D4
330
CD
100
AcDbEntity
  8
0
100
AcDbBlockEnd
  0
ENDSEC
  0
SECTION
  2
ENTITIES
  0
SPLINE
  5
41
330
1F
100
AcDbEntity
  8
COPPER_MASK
100
AcDbSpline
210
0.0
220
0.0
230
1.0
 70
    11
 71
     3
 72
    38
 73
    34
 74
     0
 42
0.0000000001
 43
0.0000000001
 12
1.0
 22
0.0
 32
0.0
 13
1.0
 23
0.0
 33
0.0
 40
0.0
 40
0.0
 40
0.0
 40
0.0
 40
1.0
 40
1.0
 40
1.0
 40
2.0
 40
2.0
 40
2.0
 40
3.0
 40
3.0
 40
3.0
 40
4.0
 40
4.0
 40
4.0
 40
5.0
 40
5.0
 40
5.0
 40
6.0
 40
6.0
 40
6.0
 40
7.0
 40
7.0
 40
7.0
 40
8.0
 40
8.0
 40
8.0
 40
9.0
 40
9.0
 40
9.0
 40
10.0
 40
10.0
 40
10.0
 40
11.0
 40
11.0
 40
11.0
 40
11.0
 10
18.17680476982729
 20
-37.14611487183061
 30
0.0
 10
18.17680476982729
 20
-37.14611487183061
 30
0.0
 10
15.84340441937065
 20
-39.47951412065556
 30
0.0
 10
15.84340441937065
 20
-39.47951412065556
 30
0.0
 10
15.84340441937065
 20
-39.47951412065556
 30
0.0
 10
15.84340441937065
 20
-37.14611487183061
 30
0.0
 10
15.84340441937065
 20
-37.14611487183061
 30
0.0
 10
15.84340441937065
 20
-37.14611487183061
 30
0.0
 10
13.51000406891337
 20
-39.47951412065556
 30
0.0
 10
13.51000406891337
 20
-39.47951412065556
 30
0.0
 10
13.51000406891337
 20
-39.47951412065556
 30
0.0
 10
13.51000406891337
 20
-37.14611487183061
 30
0.0
 10
13.51000406891337
 20
-37.14611487183061
 30
0.0
 10
13.51000406891337
 20
-37.14611487183061
 30
0.0
 10
11.17660371845673
 20
-39.47951412065556
 30
0.0
 10
11.17660371845673
 20
-39.47951412065556
 30
0.0
 10
11.17660371845673
 20
-39.47951412065556
 30
0.0
 10
11.17660371845673
 20
-41.81291447111348
 30
0.0
 10
11.17660371845673
 20
-41.81291447111348
 30
0.0
 10
11.17660371845673
 20
-41.81291447111348
 30
0.0
 10
18.17680476982729
 20
-41.81291447111348
 30
0.0
 10
18.17680476982729
 20
-41.81291447111348
 30
0.0
 10
18.17680476982729
 20
-41.81291447111348
 30
0.0
 10
18.17680476982729
 20
-37.14611487183061
 30
0.0
 10
18.17680476982729
 20
-37.14611487183061
 30
0.0
 10
18.17680476982729
 20
-37.14611487183061
 30
0.0
 10
18.17680476982729
 20
-37.14611487183061
 30
0.0
 10
18.17680476982729
 20
-37.14611487183061
 30
0.0
 10
18.17680476982729
 20
-37.14611487183061
 30
0.0
 10
18.17680476982729
 20
-37.14611487183061
 30
0.0
 10
18.17680476982729
 20
-37.14611487183061
 30
0.0
 10
18.17680476982729
 20
-37.14611487183061
 30
0.0
 10
18.17680476982729
 20
-37.14611487183061
 30
0.0
 10
18.17680476982729
 20
-37.14611487183061
 30
0.0
  0
INSERT
  5
42
330
1F
100
AcDbEntity
  8
COPPER_MASK
 62
     7
100
AcDbBlockReference
  2
*U1
 10
0.0
 20
0.0
 30
0.0
1001
ACAD
1002
{
1000
R14_HATCH_DATA
1000
42
1011
1.0
1021
0.0
1031
0.0
1011
0.0
1021
1.0
1031
0.0
1011
0.0
1021
0.0
1031
1.0
1040
0.0
1010
0.0
1020
0.0
1030
1.0
1000
SOLID
1070
     1
1070
     1
1071
        1
1071
        1
1071
        1
1070
     4
1070
     3
1070
     0
1070
     1
1071
       38
1071
       34
1040
0.0
1040
0.0
1040
0.0
1040
0.0
1040
1.0
1040
1.0
1040
1.0
1040
2.0
1040
2.0
1040
2.0
1040
3.0
1040
3.0
1040
3.0
1040
4.0
1040
4.0
1040
4.0
1040
5.0
1040
5.0
1040
5.0
1040
6.0
1040
6.0
1040
6.0
1040
7.0
1040
7.0
1040
7.0
1040
8.0
1040
8.0
1040
8.0
1040
9.0
1040
9.0
1040
9.0
1040
10.0
1040
10.0
1040
10.0
1040
11.0
1040
11.0
1040
11.0
1040
11.0
1040
18.17680476982729
1040
-37.14611487183061
1040
18.17680476982729
1040
-37.14611487183061
1040
15.84340441937065
1040
-39.47951412065556
1040
15.84340441937065
1040
-39.47951412065556
1040
15.84340441937065
1040
-39.47951412065556
1040
15.84340441937065
1040
-37.14611487183061
1040
15.84340441937065
1040
-37.14611487183061
1040
15.84340441937065
1040
-37.14611487183061
1040
13.51000406891337
1040
-39.47951412065556
1040
13.51000406891337
1040
-39.47951412065556
1040
13.51000406891337
1040
-39.47951412065556
1040
13.51000406891337
1040
-37.14611487183061
1040
13.51000406891337
1040
-37.14611487183061
1040
13.51000406891337
1040
-37.14611487183061
1040
11.17660371845673
1040
-39.47951412065556
1040
11.17660371845673
1040
-39.47951412065556
1040
11.17660371845673
1040
-39.47951412065556
1040
11.17660371845673
1040
-41.81291447111348
1040
11.17660371845673
1040
-41.81291447111348
1040
11.17660371845673
1040
-41.81291447111348
1040
18.17680476982729
1040
-41.81291447111348
1040
18.17680476982729
1040
-41.81291447111348
1040
18.17680476982729
1040
-41.81291447111348
1040
18.17680476982729
1040
-37.14611487183061
1040
18.17680476982729
1040
-37.14611487183061
1040
18.17680476982729
1040
-37.14611487183061
1040
18.17680476982729
1040
-37.14611487183061
1040
18.17680476982729
1040
-37.14611487183061
1040
18.17680476982729
1040
-37.14611487183061
1040
18.17680476982729
1040
-37.14611487183061
1040
18.17680476982729
1040
-37.14611487183061
1040
18.17680476982729
1040
-37.14611487183061
1040
18.17680476982729
1040
-37.14611487183061
1040
18.17680476982729
1040
-37.14611487183061
1071
        0
1070
     2
1070
     1
1071
        0
1002
}
  0
POLYLINE
  5
43
330
1F
100
AcDbEntity
  8
COPPER_MASK
100
AcDb2dPolyline
 66
     1
 10
0.0
 20
0.0
 30
0.0
  0
VERTEX
  5
44
330
43
100
AcDbEntity
  8
COPPER_MASK
100
AcDbVertex
100
AcDb2dVertex
 10
8.843206672895814
 20
-39.47951412065556
 30
0.0
  0
VERTEX
  5
45
330
43
100
AcDbEntity
  8
COPPER_MASK
100
AcDbVertex
100
AcDb2dVertex
 10
6.509799712645172
 20
-37.14611597346359
 30
0.0
  0
VERTEX
  5
46
330
43
100
AcDbEntity
  8
COPPER_MASK
100
AcDbVertex
100
AcDb2dVertex
 10
6.509799712645172
 20
-41.81291226784752
 30
0.0
  0
VERTEX
  5
47
330
43
100
AcDbEntity
  8
COPPER_MASK
100
AcDbVertex
100
AcDb2dVertex
 10
6.791368106641697
 20
-41.81291226784752
 30
0.0
  0
VERTEX
  5
48
330
43
100
AcDbEntity
  8
COPPER_MASK
100
AcDbVertex
100
AcDb2dVertex
 10
6.791368106641697
 20
-39.47951412065556
 30
0.0
  0
VERTEX
  5
49
330
43
100
AcDbEntity
  8
COPPER_MASK
100
AcDbVertex
100
AcDb2dVertex
 10
8.843206672895814
 20
-39.47951412065556
 30
0.0
  0
VERTEX
  5
4A
330
43
100
AcDbEntity
  8
COPPER_MASK
100
AcDbVertex
100
AcDb2dVertex
 10
8.843206672895814
 20
-39.47951412065556
 30
0.0
  0
SEQEND
  5
4B
330
43
100
AcDbEntity
  8
COPPER_MASK
  0
INSERT
  5
4C
330
1F
100
AcDbEntity
  8
COPPER_MASK
 62
     7
100
AcDbBlockReference
  2
*U2
 10
0.0
 20
0.0
 30
0.0
1001
ACAD
1002
{
1000
R14_HATCH_DATA
1000
4C
1011
1.0
1021
0.0
1031
0.0
1011
0.0
1021
1.0
1031
0.0
1011
0.0
1021
0.0
1031
1.0
1040
0.0
1010
0.0
1020
0.0
1030
1.0
1000
SOLID
1070
     1
1070
     1
1071
        1
1071
        1
1071
        5
1070
     1
1040
8.843206672895814
1040
-39.47951412065556
1040
6.509799712645172
1040
-37.14611597346359
1070
     1
1040
6.509799712645172
1040
-37.14611597346359
1040
6.509799712645172
1040
-41.81291226784752
1070
     1
1040
6.509799712645172
1040
-41.81291226784752
1040
6.791368106641697
1040
-41.81291226784752
1070
     1
1040
6.791368106641697
1040
-41.81291226784752
1040
6.791368106641697
1040
-39.47951412065556
1070
     1
1040
6.791368106641697
1040
-39.47951412065556
1040
8.843206672895814
1040
-39.47951412065556
1071
        0
1070
     2
1070
     1
1071
        0
1002
}
  0
ENDSEC
  0
SECTION
  2
OBJECTS
  0
DICTIONARY
  5
C
330
0
100
AcDbDictionary
  3
ACAD_GROUP
350
D
  3
ACAD_LAYOUT
350
1A
  3
ACAD_MATERIAL
350
3B
  3
ACAD_MLEADERSTYLE
350
4F
  3
ACAD_MLINESTYLE
350
17
  3
ACAD_PLOTSETTINGS
350
19
  3
ACAD_VISUALSTYLE
350
2A
  3
ACDBVARIABLEDICTIONARY
350
4D
1001
ACAD
1000
TREAT_AS_HARD
1070
     0
  0
DICTIONARY
  5
D
102
{ACAD_REACTORS
330
C
102
}
330
C
100
AcDbDictionary
1001
ACAD
1000
TREAT_AS_HARD
1070
     0
  0
DICTIONARY
  5
1A
102
{ACAD_REACTORS
330
C
102
}
330
C
100
AcDbDictionary
1001
ACAD
1000
TREAT_AS_HARD
1070
     0
  0
DICTIONARY
  5
3B
102
{ACAD_REACTORS
330
C
102
}
330
C
100
AcDbDictionary
  3
BYBLOCK
350
3D
  3
BYLAYER
350
3C
  3
GLOBAL
350
3E
1001
ACAD
1000
TREAT_AS_HARD
1070
     0
  0
DICTIONARY
  5
4F
102
{ACAD_REACTORS
330
C
102
}
330
C
100
AcDbDictionary
1001
ACAD
1000
TREAT_AS_HARD
1070
     0
  0
DICTIONARY
  5
17
102
{ACAD_REACTORS
330
C
102
}
330
C
100
AcDbDictionary
  3
STANDARD
350
18
1001
ACAD
1000
TREAT_AS_HARD
1070
     0
  0
DICTIONARY
  5
19
102
{ACAD_REACTORS
330
C
102
}
330
C
100
AcDbDictionary
1001
ACAD
1000
TREAT_AS_HARD
1070
     0
  0
DICTIONARY
  5
2A
102
{ACAD_REACTORS
330
C
102
}
330
C
100
AcDbDictionary
  3
2DWIREFRAME
350
2F
  3
3D_HIDDEN
350
31
  3
3DWIREFRAME
350
30
  3
BASIC
350
32
  3
BRIGHTEN
350
36
  3
COLORCHANGE
350
3A
  3
CONCEPTUAL
350
34
  3
DIM
350
35
  3
FACEPATTERN
350
39
  3
FLAT
350
2B
  3
FLATWITHEDGES
350
2C
  3
GOURAUD
350
2D
  3
GOURAUDWITHEDGES
350
2E
  3
LINEPATTERN
350
38
  3
REALISTIC
350
33
  3
THICKEN
350
37
1001
ACAD
1000
TREAT_AS_HARD
1070
     0
  0
DICTIONARY
  5
4D
102
{ACAD_REACTORS
330
C
102
}
330
C
100
AcDbDictionary
  3
DIMASSOC
350
50
  3
HIDETEXT
350
51
1001
ACAD
1000
TREAT_AS_HARD
1070
     0
  0
MATERIAL
  5
3D
102
{ACAD_REACTORS
330
3B
102
}
102
{ACAD_XDICTIONARY
360
D7
102
}
330
3B
100
AcDbMaterial
  1
ByBlock
  0
MATERIAL
  5
3C
102
{ACAD_REACTORS
330
3B
102
}
102
{ACAD_XDICTIONARY
360
D5
102
}
330
3B
100
AcDbMaterial
  1
ByLayer
  0
MATERIAL
  5
3E
102
{ACAD_REACTORS
330
3B
102
}
102
{ACAD_XDICTIONARY
360
D9
102
}
330
3B
100
AcDbMaterial
  1
Global
  0
MLINESTYLE
  5
18
102
{ACAD_REACTORS
330
17
102
}
330
17
100
AcDbMlineStyle
  2
Standard
 70
     0
  3

 62
   256
 51
90.0
 52
90.0
 71
     2
 49
0.5
 62
   256
  6
BYLAYER
 49
-0.5
 62
   256
  6
BYLAYER
  0
ACAD_PROXY_OBJECT
  5
2F
102
{ACAD_REACTORS
330
2A
102
}
330
2A
100
AcDbZombieObject
 90
      499
 91
      501
 93
      436
310
42CC9915DA5C99599C985B595049028333333333333E3BF0000000000000FB0107901411070040501600405405064090741402480A0340
1001
ACAD
1000
AcDbSavedByObjectVersion
1070
     0
  0
ACAD_PROXY_OBJECT
  5
31
102
{ACAD_REACTORS
330
2A
102
}
330
2A
100
AcDbZombieObject
 90
      499
 91
      501
 93
      500
310
424CD108121A5919195B90640502408333333333333E3BF0000000000000FB01079024090700405020000000000001110200405405064090740C02480A0340
1001
ACAD
1000
AcDbSavedByObjectVersion
1070
     0
  0
ACAD_PROXY_OBJECT
  5
30
102
{ACAD_REACTORS
330
2A
102
}
330
2A
100
AcDbZombieObject
 90
      499
 91
      501
 93
      436
310
42CCD915DA5C99599C985B595059028333333333333E3BF0000000000000FB0107901411070040501600405405064090741402480A0340
1001
ACAD
1000
AcDbSavedByObjectVersion
1070
     0
  0
ACAD_PROXY_OBJECT
  5
32
102
{ACAD_REACTORS
330
2A
102
}
330
2A
100
AcDbZombieObject
 90
      499
 91
      501
 93
      388
310
4150985CDA58D07406404333333333333E3BF0000000000000FB0107A41107004050150841D405064090741402480A0350
1001
ACAD
1000
AcDbSavedByObjectVersion
1070
     0
  0
ACAD_PROXY_OBJECT
  5
36
102
{ACAD_REACTORS
330
2A
102
}
330
2A
100
AcDbZombieObject
 90
      499
 91
      501
 93
      428
310
42109C9A59DA1D195B90C409028333333333333E3BF0000000000000FB010790141107004050150841D405064090741402480A029950
1001
ACAD
1000
AcDbSavedByObjectVersion
1070
     0
  0
ACAD_PROXY_OBJECT
  5
3A
102
{ACAD_REACTORS
330
2A
102
}
330
2A
100
AcDbZombieObject
 90
      499
 91
      501
 93
      452
310
42D0DBDB1BDC90DA185B99D95104090240C333333333333E3BF0000000000000FB0108901411070040501508421405064090741402480A0350
1001
ACAD
1000
AcDbSavedByObjectVersion
1070
     0
  0
ACAD_PROXY_OBJECT
  5
34
102
{ACAD_REACTORS
330
2A
102
}
330
2A
100
AcDbZombieObject
 90
      499
 91
      501
 93
      500
310
4290DBDB98D95C1D1D585B10940D028333333333333E3BF0000000000000FB0107902409070040501000000000000111010841D405064090740C02480A0340
1001
ACAD
1000
AcDbSavedByObjectVersion
1070
     0
  0
ACAD_PROXY_OBJECT
  5
35
102
{ACAD_REACTORS
330
2A
102
}
330
2A
100
AcDbZombieObject
 90
      499
 91
      501
 93
      412
310
40D11A5B50B409028333333333333E3BF0000000000000FB010790141107004050150841D405064090741402480A02677FFFFFD0
1001
ACAD
1000
AcDbSavedByObjectVersion
1070
     0
  0
ACAD_PROXY_OBJECT
  5
39
102
{ACAD_REACTORS
330
2A
102
}
330
2A
100
AcDbZombieObject
 90
      499
 91
      501
 93
      444
310
42D19858D95C185D1D195C9B90F409028333333333333E3BF0000000000000FB010790141107004050150841D405064090741402480A0350
1001
ACAD
1000
AcDbSavedByObjectVersion
1070
     0
  0
ACAD_PROXY_OBJECT
  5
2B
102
{ACAD_REACTORS
330
2A
102
}
330
2A
100
AcDbZombieObject
 90
      499
 91
      501
 93
      388
310
41119B185D240901404333333333333E3BF0000000000000F9010740A41107004050150841D405064090741402480A1B50
1001
ACAD
1000
AcDbSavedByObjectVersion
1070
     0
  0
ACAD_PROXY_OBJECT
  5
2C
102
{ACAD_REACTORS
330
2A
102
}
330
2A
100
AcDbZombieObject
 90
      499
 91
      501
 93
      476
310
43519B185D15DA5D1A115919D95CD0140901404333333333333E3BF0000000000000F9010740901411070040501600405405064090741402480A1B50
1001
ACAD
1000
AcDbSavedByObjectVersion
1070
     0
  0
ACAD_PROXY_OBJECT
  5
2D
102
{ACAD_REACTORS
330
2A
102
}
330
2A
100
AcDbZombieObject
 90
      499
 91
      501
 93
      412
310
41D1DBDD5C985D5910240902404333333333333E3BF0000000000000F9010740A411070040501641D405064090741402480A1B50
1001
ACAD
1000
AcDbSavedByObjectVersion
1070
     0
  0
ACAD_PROXY_OBJECT
  5
2E
102
{ACAD_REACTORS
330
2A
102
}
330
2A
100
AcDbZombieObject
 90
      499
 91
      501
 93
      500
310
4411DBDD5C985D5915DA5D1A115919D95CD0340902404333333333333E3BF0000000000000F9010740901411070040501600405405064090741402480A1B50
1001
ACAD
1000
AcDbSavedByObjectVersion
1070
     0
  0
ACAD_PROXY_OBJECT
  5
38
102
{ACAD_REACTORS
330
2A
102
}
330
2A
100
AcDbZombieObject
 90
      499
 91
      501
 93
      444
310
42D31A5B995C185D1D195C9B90E409028333333333333E3BF0000000000000FB010790141107004050750841D405064090741402483A0350
1001
ACAD
1000
AcDbSavedByObjectVersion
1070
     0
  0
ACAD_PROXY_OBJECT
  5
33
102
{ACAD_REACTORS
330
2A
102
}
330
2A
100
AcDbZombieObject
 90
      499
 91
      501
 93
      420
310
425499585B1A5CDD1A58D08409028333333333333E3BF0000000000000FB01079019070040501508421405064090741402480A1B40
1001
ACAD
1000
AcDbSavedByObjectVersion
1070
     0
  0
ACAD_PROXY_OBJECT
  5
37
102
{ACAD_REACTORS
330
2A
102
}
330
2A
100
AcDbZombieObject
 90
      499
 91
      501
 93
      412
310
41D51A1A58DAD95B90D409028333333333333E3BF0000000000000FB010790141107004050150C41D405064090741402480A0350
1001
ACAD
1000
AcDbSavedByObjectVersion
1070
     0
  0
DICTIONARYVAR
  5
50
102
{ACAD_REACTORS
330
4D
102
}
330
4D
100
DictionaryVariables
280
     0
  1
2
  0
DICTIONARYVAR
  5
51
102
{ACAD_REACTORS
330
4D
102
}
330
4D
100
DictionaryVariables
280
     0
  1
1
  0
DICTIONARY
  5
D7
330
3D
100
AcDbDictionary
  3
ACAD_XREC_ROUNDTRIP
360
D8
1001
ACAD
1000
TREAT_AS_HARD
1070
     1
  0
DICTIONARY
  5
D5
330
3C
100
AcDbDictionary
  3
ACAD_XREC_ROUNDTRIP
360
D6
1001
ACAD
1000
TREAT_AS_HARD
1070
     1
  0
DICTIONARY
  5
D9
330
3E
100
AcDbDictionary
  3
ACAD_XREC_ROUNDTRIP
360
DA
1001
ACAD
1000
TREAT_AS_HARD
1070
     1
  0
XRECORD
  5
D8
102
{ACAD_REACTORS
330
D7
102
}
330
D7
100
AcDbXrecord
102
MATERIAL
148
0.0
149
0.0
149
0.0
 93
        0
 94
      127
282
     0
 72
     1
 77
     1
171
     1
175
     1
179
     1
273
     0
  0
XRECORD
  5
D6
102
{ACAD_REACTORS
330
D5
102
}
330
D5
100
AcDbXrecord
102
MATERIAL
148
0.0
149
0.0
149
0.0
 93
        0
 94
      127
282
     0
 72
     1
 77
     1
171
     1
175
     1
179
     1
273
     0
  0
XRECORD
  5
DA
102
{ACAD_REACTORS
330
D9
102
}
330
D9
100
AcDbXrecord
102
MATERIAL
148
0.0
149
0.0
149
0.0
 93
        0
 94
      127
282
     0
 72
     1
 77
     1
171
     1
175
     1
179
     1
273
     0
  0
ENDSEC
  0
EOF
