G04 #@! TF.GenerationSoftware,KiCad,Pcbnew,(5.1.2)-1*
G04 #@! TF.CreationDate,2019-05-23T18:27:22+02:00*
G04 #@! TF.ProjectId,2018-03-08 Intercourse 01,32303138-2d30-4332-9d30-3820496e7465,rev?*
G04 #@! TF.SameCoordinates,Original*
G04 #@! TF.FileFunction,Soldermask,Bot*
G04 #@! TF.FilePolarity,Negative*
%FSLAX46Y46*%
G04 Gerber Fmt 4.6, Leading zero omitted, Abs format (unit mm)*
G04 Created by KiCad (PCBNEW (5.1.2)-1) date 2019-05-23 18:27:22*
%MOMM*%
%LPD*%
G04 APERTURE LIST*
%ADD10O,1.800000X1.200000*%
%ADD11O,1.050000X1.350000*%
%ADD12C,1.050000*%
%ADD13C,2.900000*%
%ADD14C,1.000000*%
%ADD15C,0.800000*%
G04 APERTURE END LIST*
D10*
X118535000Y-97470000D03*
X118535000Y-105730000D03*
X112585000Y-106090000D03*
X112585000Y-97110000D03*
D11*
X119785000Y-105200000D03*
D12*
X119785000Y-98000000D03*
D13*
X176530000Y-106045000D03*
X185420000Y-97155000D03*
X185420000Y-106045000D03*
X190500000Y-106045000D03*
X190500000Y-97155000D03*
X176530000Y-97155000D03*
D14*
X116840000Y-88265000D03*
X115570000Y-90170000D03*
X161697500Y-85952500D03*
X163422500Y-85952500D03*
X163422500Y-84227500D03*
X161697500Y-84227500D03*
X155956000Y-103632000D03*
X155956000Y-100838000D03*
X121920000Y-101600000D03*
X116840000Y-101600000D03*
D15*
X166624000Y-84455000D03*
X161544000Y-78486000D03*
D14*
X179070000Y-77089000D03*
D15*
X159512000Y-90170000D03*
X160782000Y-88900000D03*
X170942000Y-82550000D03*
X147320000Y-96012090D03*
D14*
X131064000Y-90170000D03*
D15*
X147320000Y-100076000D03*
D14*
X122555000Y-90170000D03*
D15*
X169926000Y-83566000D03*
X166370000Y-85090000D03*
X166370000Y-88900000D03*
X166370000Y-81788000D03*
X117602000Y-84074000D03*
X123444000Y-87122000D03*
X117094000Y-97028000D03*
X114300000Y-97028000D03*
X170688000Y-90170000D03*
X165769997Y-88900000D03*
X170688000Y-90770003D03*
X165100000Y-88900000D03*
X154432000Y-80772000D03*
X156863761Y-88259937D03*
X159371432Y-81201536D03*
X151130000Y-93472000D03*
X166370000Y-82550000D03*
X162687000Y-78486000D03*
X159004118Y-81695977D03*
X167640000Y-107972069D03*
X159004000Y-82295978D03*
X167640000Y-107372056D03*
X167640000Y-106772043D03*
X159004000Y-84836000D03*
X167640000Y-106171936D03*
X159512000Y-97536000D03*
X161290000Y-101346000D03*
X161036000Y-102870000D03*
X163830000Y-101346000D03*
X162052000Y-102870000D03*
X163068000Y-102870000D03*
X160782000Y-97536000D03*
X162052000Y-100330000D03*
X160181997Y-97536000D03*
X121920000Y-104140000D03*
M02*
