M48
; DRILL file {KiCad (5.1.2)-1} date 23.05.2019 18:27:37
; FORMAT={-:-/ absolute / inch / decimal}
; #@! TF.CreationDate,2019-05-23T18:27:37+02:00
; #@! TF.GenerationSoftware,Kicad,Pcbnew,(5.1.2)-1
; #@! TF.FileFunction,Plated,1,2,PTH
FMAT,2
INCH
T1C0.0118
T2C0.0120
T3C0.0157
T4C0.0197
T5C0.0787
%
G90
G05
T1
X4.5Y-3.82
X4.61Y-3.82
X4.63Y-3.31
X4.8Y-4.1
X4.86Y-3.43
X5.8Y-3.78
X5.8Y-3.94
X5.95Y-3.68
X6.08Y-3.18
X6.1757Y-3.4748
X6.26Y-3.24
X6.26Y-3.34
X6.26Y-3.2164
X6.2745Y-3.1969
X6.28Y-3.55
X6.28Y-3.84
X6.3064Y-3.84
X6.33Y-3.5
X6.33Y-3.84
X6.34Y-4.05
X6.35Y-3.99
X6.36Y-3.09
X6.38Y-3.95
X6.38Y-4.05
X6.405Y-3.09
X6.42Y-4.05
X6.45Y-3.99
X6.5Y-3.5
X6.5264Y-3.5
X6.55Y-3.22
X6.55Y-3.25
X6.55Y-3.35
X6.55Y-3.5
X6.56Y-3.325
X6.6Y-4.18
X6.6Y-4.2036
X6.6Y-4.2272
X6.6Y-4.2509
X6.69Y-3.29
X6.72Y-3.55
X6.72Y-3.5736
X6.73Y-3.25
T2
X7.125Y-3.385
T3
X4.55Y-3.55
X4.6Y-3.475
X4.6Y-4.0
X4.8Y-4.0
X4.825Y-3.55
X5.16Y-3.55
X6.14Y-3.97
X6.14Y-4.08
X6.366Y-3.316
X6.366Y-3.384
X6.434Y-3.316
X6.434Y-3.384
X7.05Y-3.035
T5
X6.95Y-4.175
X7.3Y-3.825
X7.5Y-4.175
X6.95Y-3.825
X7.3Y-4.175
X7.5Y-3.825
T4
G00X4.4443Y-3.8232
M15
G01X4.4207Y-3.8232
M16
G05
G00X4.4443Y-4.1768
M15
G01X4.4207Y-4.1768
M16
G05
G00X4.6785Y-3.8374
M15
G01X4.6549Y-3.8374
M16
G05
G00X4.6785Y-4.1626
M15
G01X4.6549Y-4.1626
M16
G05
T0
M30
