G04 #@! TF.GenerationSoftware,KiCad,Pcbnew,(5.1.2)-1*
G04 #@! TF.CreationDate,2019-05-23T18:27:22+02:00*
G04 #@! TF.ProjectId,2018-03-08 Intercourse 01,32303138-2d30-4332-9d30-3820496e7465,rev?*
G04 #@! TF.SameCoordinates,Original*
G04 #@! TF.FileFunction,Other,Fab,Top*
%FSLAX46Y46*%
G04 Gerber Fmt 4.6, Leading zero omitted, Abs format (unit mm)*
G04 Created by KiCad (PCBNEW (5.1.2)-1) date 2019-05-23 18:27:22*
%MOMM*%
%LPD*%
G04 APERTURE LIST*
%ADD10C,0.100000*%
%ADD11C,0.150000*%
G04 APERTURE END LIST*
D10*
X121015000Y-87645000D02*
X121015000Y-88885000D01*
X119015000Y-87645000D02*
X121015000Y-87645000D01*
X119015000Y-88885000D02*
X119015000Y-87645000D01*
X121015000Y-88885000D02*
X119015000Y-88885000D01*
D11*
X131000000Y-92090000D02*
X152000000Y-92090000D01*
X131000000Y-92090000D02*
X131000000Y-78090000D01*
X152000000Y-92090000D02*
X152000000Y-78090000D01*
X131000000Y-78090000D02*
X152000000Y-78090000D01*
D10*
X148903701Y-102603393D02*
X150143701Y-102603393D01*
X148903701Y-104603393D02*
X148903701Y-102603393D01*
X150143701Y-104603393D02*
X148903701Y-104603393D01*
X150143701Y-102603393D02*
X150143701Y-104603393D01*
X121015000Y-81295000D02*
X121015000Y-82535000D01*
X119015000Y-81295000D02*
X121015000Y-81295000D01*
X119015000Y-82535000D02*
X119015000Y-81295000D01*
X121015000Y-82535000D02*
X119015000Y-82535000D01*
X153983701Y-102623393D02*
X155223701Y-102623393D01*
X153983701Y-104623393D02*
X153983701Y-102623393D01*
X155223701Y-104623393D02*
X153983701Y-104623393D01*
X155223701Y-102623393D02*
X155223701Y-104623393D01*
X171685000Y-84925000D02*
X172485000Y-84925000D01*
X171685000Y-86525000D02*
X171685000Y-84925000D01*
X172485000Y-86525000D02*
X171685000Y-86525000D01*
X172485000Y-84925000D02*
X172485000Y-86525000D01*
X168110000Y-89300000D02*
X168110000Y-88500000D01*
X169710000Y-89300000D02*
X168110000Y-89300000D01*
X169710000Y-88500000D02*
X169710000Y-89300000D01*
X168110000Y-88500000D02*
X169710000Y-88500000D01*
X167910000Y-100950000D02*
X167910000Y-99710000D01*
X169910000Y-100950000D02*
X167910000Y-100950000D01*
X169910000Y-99710000D02*
X169910000Y-100950000D01*
X167910000Y-99710000D02*
X169910000Y-99710000D01*
X169390000Y-82150000D02*
X169390000Y-82950000D01*
X167790000Y-82150000D02*
X169390000Y-82150000D01*
X167790000Y-82950000D02*
X167790000Y-82150000D01*
X169390000Y-82950000D02*
X167790000Y-82950000D01*
X173891000Y-79521000D02*
X173891000Y-78721000D01*
X175491000Y-79521000D02*
X173891000Y-79521000D01*
X175491000Y-78721000D02*
X175491000Y-79521000D01*
X173891000Y-78721000D02*
X175491000Y-78721000D01*
X157210000Y-81295000D02*
X157210000Y-82535000D01*
X155210000Y-81295000D02*
X157210000Y-81295000D01*
X155210000Y-82535000D02*
X155210000Y-81295000D01*
X157210000Y-82535000D02*
X155210000Y-82535000D01*
X161055000Y-79540000D02*
X160255000Y-79540000D01*
X161055000Y-77940000D02*
X161055000Y-79540000D01*
X160255000Y-77940000D02*
X161055000Y-77940000D01*
X160255000Y-79540000D02*
X160255000Y-77940000D01*
X155810000Y-115170000D02*
X155810000Y-115970000D01*
X155810000Y-115570000D02*
X156410000Y-115170000D01*
X156410000Y-115970000D02*
X155810000Y-115570000D01*
X156410000Y-115170000D02*
X156410000Y-115970000D01*
X155210000Y-116190000D02*
X155210000Y-114950000D01*
X157210000Y-116190000D02*
X155210000Y-116190000D01*
X157210000Y-114950000D02*
X157210000Y-116190000D01*
X155210000Y-114950000D02*
X157210000Y-114950000D01*
X163430000Y-115170000D02*
X163430000Y-115970000D01*
X163430000Y-115570000D02*
X164030000Y-115170000D01*
X164030000Y-115970000D02*
X163430000Y-115570000D01*
X164030000Y-115170000D02*
X164030000Y-115970000D01*
X162830000Y-116190000D02*
X162830000Y-114950000D01*
X164830000Y-116190000D02*
X162830000Y-116190000D01*
X164830000Y-114950000D02*
X164830000Y-116190000D01*
X162830000Y-114950000D02*
X164830000Y-114950000D01*
X171050000Y-115170000D02*
X171050000Y-115970000D01*
X171050000Y-115570000D02*
X171650000Y-115170000D01*
X171650000Y-115970000D02*
X171050000Y-115570000D01*
X171650000Y-115170000D02*
X171650000Y-115970000D01*
X170450000Y-116190000D02*
X170450000Y-114950000D01*
X172450000Y-116190000D02*
X170450000Y-116190000D01*
X172450000Y-114950000D02*
X172450000Y-116190000D01*
X170450000Y-114950000D02*
X172450000Y-114950000D01*
X178670000Y-115170000D02*
X178670000Y-115970000D01*
X178670000Y-115570000D02*
X179270000Y-115170000D01*
X179270000Y-115970000D02*
X178670000Y-115570000D01*
X179270000Y-115170000D02*
X179270000Y-115970000D01*
X178070000Y-116190000D02*
X178070000Y-114950000D01*
X180070000Y-116190000D02*
X178070000Y-116190000D01*
X180070000Y-114950000D02*
X180070000Y-116190000D01*
X178070000Y-114950000D02*
X180070000Y-114950000D01*
X186290000Y-115170000D02*
X186290000Y-115970000D01*
X186290000Y-115570000D02*
X186890000Y-115170000D01*
X186890000Y-115970000D02*
X186290000Y-115570000D01*
X186890000Y-115170000D02*
X186890000Y-115970000D01*
X185690000Y-116190000D02*
X185690000Y-114950000D01*
X187690000Y-116190000D02*
X185690000Y-116190000D01*
X187690000Y-114950000D02*
X187690000Y-116190000D01*
X185690000Y-114950000D02*
X187690000Y-114950000D01*
X110195000Y-106200000D02*
X120645000Y-106200000D01*
X110195000Y-97000000D02*
X110195000Y-106200000D01*
X120645000Y-97000000D02*
X120645000Y-106200000D01*
X110195000Y-97000000D02*
X120645000Y-97000000D01*
X116190000Y-86090000D02*
X114950000Y-86090000D01*
X116190000Y-84090000D02*
X116190000Y-86090000D01*
X114950000Y-84090000D02*
X116190000Y-84090000D01*
X114950000Y-86090000D02*
X114950000Y-84090000D01*
X149510000Y-93995000D02*
X149510000Y-95235000D01*
X147510000Y-93995000D02*
X149510000Y-93995000D01*
X147510000Y-95235000D02*
X147510000Y-93995000D01*
X149510000Y-95235000D02*
X147510000Y-95235000D01*
X152750000Y-95235000D02*
X152750000Y-93995000D01*
X154750000Y-95235000D02*
X152750000Y-95235000D01*
X154750000Y-93995000D02*
X154750000Y-95235000D01*
X152750000Y-93995000D02*
X154750000Y-93995000D01*
X169910000Y-102250000D02*
X169910000Y-103490000D01*
X167910000Y-102250000D02*
X169910000Y-102250000D01*
X167910000Y-103490000D02*
X167910000Y-102250000D01*
X169910000Y-103490000D02*
X167910000Y-103490000D01*
X173340000Y-102600000D02*
X172100000Y-102600000D01*
X173340000Y-100600000D02*
X173340000Y-102600000D01*
X172100000Y-100600000D02*
X173340000Y-100600000D01*
X172100000Y-102600000D02*
X172100000Y-100600000D01*
X162067000Y-77439000D02*
X163307000Y-77439000D01*
X162067000Y-79439000D02*
X162067000Y-77439000D01*
X163307000Y-79439000D02*
X162067000Y-79439000D01*
X163307000Y-77439000D02*
X163307000Y-79439000D01*
X163180000Y-96330000D02*
X161940000Y-96330000D01*
X163180000Y-94330000D02*
X163180000Y-96330000D01*
X161940000Y-94330000D02*
X163180000Y-94330000D01*
X161940000Y-96330000D02*
X161940000Y-94330000D01*
X155210000Y-113650000D02*
X155210000Y-112410000D01*
X157210000Y-113650000D02*
X155210000Y-113650000D01*
X157210000Y-112410000D02*
X157210000Y-113650000D01*
X155210000Y-112410000D02*
X157210000Y-112410000D01*
X162830000Y-113650000D02*
X162830000Y-112410000D01*
X164830000Y-113650000D02*
X162830000Y-113650000D01*
X164830000Y-112410000D02*
X164830000Y-113650000D01*
X162830000Y-112410000D02*
X164830000Y-112410000D01*
X170450000Y-113650000D02*
X170450000Y-112410000D01*
X172450000Y-113650000D02*
X170450000Y-113650000D01*
X172450000Y-112410000D02*
X172450000Y-113650000D01*
X170450000Y-112410000D02*
X172450000Y-112410000D01*
X178070000Y-113650000D02*
X178070000Y-112410000D01*
X180070000Y-113650000D02*
X178070000Y-113650000D01*
X180070000Y-112410000D02*
X180070000Y-113650000D01*
X178070000Y-112410000D02*
X180070000Y-112410000D01*
X185690000Y-113650000D02*
X185690000Y-112410000D01*
X187690000Y-113650000D02*
X185690000Y-113650000D01*
X187690000Y-112410000D02*
X187690000Y-113650000D01*
X185690000Y-112410000D02*
X187690000Y-112410000D01*
X157210000Y-86375000D02*
X157210000Y-87615000D01*
X155210000Y-86375000D02*
X157210000Y-86375000D01*
X155210000Y-87615000D02*
X155210000Y-86375000D01*
X157210000Y-87615000D02*
X155210000Y-87615000D01*
X157210000Y-88915000D02*
X157210000Y-90155000D01*
X155210000Y-88915000D02*
X157210000Y-88915000D01*
X155210000Y-90155000D02*
X155210000Y-88915000D01*
X157210000Y-90155000D02*
X155210000Y-90155000D01*
X157210000Y-83835000D02*
X157210000Y-85075000D01*
X155210000Y-83835000D02*
X157210000Y-83835000D01*
X155210000Y-85075000D02*
X155210000Y-83835000D01*
X157210000Y-85075000D02*
X155210000Y-85075000D01*
D11*
X120880000Y-85117881D02*
X120880000Y-86117881D01*
X120880000Y-86117881D02*
X117880000Y-86117881D01*
X117880000Y-86117881D02*
X117880000Y-84117881D01*
X117880000Y-84117881D02*
X119880000Y-84117881D01*
X119880000Y-84117881D02*
X120880000Y-85117881D01*
D10*
X160110000Y-102550000D02*
X160110000Y-99650000D01*
X160110000Y-99650000D02*
X165010000Y-99650000D01*
X165010000Y-99650000D02*
X165010000Y-103550000D01*
X165010000Y-103550000D02*
X161110000Y-103550000D01*
X161110000Y-103550000D02*
X160110000Y-102550000D01*
D11*
X165060000Y-83590000D02*
X165060000Y-87590000D01*
X165060000Y-87590000D02*
X160060000Y-87590000D01*
X160060000Y-87590000D02*
X160060000Y-82590000D01*
X160060000Y-82590000D02*
X164060000Y-82590000D01*
X164060000Y-82590000D02*
X165060000Y-83590000D01*
D10*
X170310000Y-86975000D02*
X167510000Y-86975000D01*
X167510000Y-86975000D02*
X167310000Y-86775000D01*
X167310000Y-86775000D02*
X167310000Y-84675000D01*
X167310000Y-84675000D02*
X167510000Y-84475000D01*
X167510000Y-84475000D02*
X170310000Y-84475000D01*
X170310000Y-84475000D02*
X170510000Y-84675000D01*
X170510000Y-84675000D02*
X170510000Y-86775000D01*
X170510000Y-86775000D02*
X170310000Y-86975000D01*
X170510000Y-85475000D02*
X169510000Y-84475000D01*
D11*
X151463701Y-103168393D02*
G75*
G03X151463701Y-103168393I-100000J0D01*
G01*
X151063701Y-102368393D02*
X153063701Y-102368393D01*
X153063701Y-102368393D02*
X153063701Y-103568393D01*
X153063701Y-103568393D02*
X151063701Y-103568393D01*
X151063701Y-103568393D02*
X151063701Y-102368393D01*
D10*
X177946000Y-79018000D02*
X177146000Y-79018000D01*
X177146000Y-79018000D02*
X177146000Y-77418000D01*
X177146000Y-77418000D02*
X177946000Y-77418000D01*
X177946000Y-77418000D02*
X177946000Y-79018000D01*
X172231000Y-77446000D02*
X172231000Y-79046000D01*
X171431000Y-77446000D02*
X172231000Y-77446000D01*
X171431000Y-79046000D02*
X171431000Y-77446000D01*
X172231000Y-79046000D02*
X171431000Y-79046000D01*
D11*
X129468571Y-85018571D02*
X129516190Y-84875714D01*
X129563809Y-84828095D01*
X129659047Y-84780476D01*
X129801904Y-84780476D01*
X129897142Y-84828095D01*
X129944761Y-84875714D01*
X129992380Y-84970952D01*
X129992380Y-85351904D01*
X128992380Y-85351904D01*
X128992380Y-85018571D01*
X129040000Y-84923333D01*
X129087619Y-84875714D01*
X129182857Y-84828095D01*
X129278095Y-84828095D01*
X129373333Y-84875714D01*
X129420952Y-84923333D01*
X129468571Y-85018571D01*
X129468571Y-85351904D01*
X129611428Y-81660952D02*
X129611428Y-80899047D01*
X129992380Y-81280000D02*
X129230476Y-81280000D01*
X129611428Y-89280952D02*
X129611428Y-88519047D01*
M02*
