G04 #@! TF.GenerationSoftware,KiCad,Pcbnew,(5.1.2)-1*
G04 #@! TF.CreationDate,2019-05-23T18:27:22+02:00*
G04 #@! TF.ProjectId,2018-03-08 Intercourse 01,32303138-2d30-4332-9d30-3820496e7465,rev?*
G04 #@! TF.SameCoordinates,Original*
G04 #@! TF.FileFunction,Copper,L1,Top*
G04 #@! TF.FilePolarity,Positive*
%FSLAX46Y46*%
G04 Gerber Fmt 4.6, Leading zero omitted, Abs format (unit mm)*
G04 Created by KiCad (PCBNEW (5.1.2)-1) date 2019-05-23 18:27:22*
%MOMM*%
%LPD*%
G04 APERTURE LIST*
%ADD10C,0.381000*%
%ADD11C,1.422400*%
%ADD12C,0.100000*%
%ADD13R,1.500000X1.250000*%
%ADD14R,2.000000X1.700000*%
%ADD15R,1.250000X1.500000*%
%ADD16R,0.750000X1.200000*%
%ADD17R,1.200000X0.750000*%
%ADD18R,1.500000X1.300000*%
%ADD19O,1.400000X0.800000*%
%ADD20R,0.700000X0.300000*%
%ADD21C,2.500000*%
%ADD22R,1.200000X2.700000*%
%ADD23R,1.300000X1.500000*%
%ADD24R,0.250000X0.700000*%
%ADD25R,1.200000X0.640000*%
%ADD26R,0.600000X1.550000*%
%ADD27R,0.700000X0.250000*%
%ADD28R,1.725000X1.725000*%
%ADD29R,1.400000X1.200000*%
%ADD30R,0.400000X0.700000*%
%ADD31C,1.500000*%
%ADD32C,0.950000*%
%ADD33C,0.600000*%
%ADD34C,0.400000*%
%ADD35C,0.400000*%
%ADD36C,0.250000*%
%ADD37C,0.160000*%
%ADD38C,0.300000*%
%ADD39C,0.750000*%
%ADD40C,0.254000*%
%ADD41C,0.025400*%
G04 APERTURE END LIST*
D10*
X180975000Y-85979000D03*
D11*
X176911000Y-79121000D03*
D12*
G36*
X183261000Y-80518000D02*
G01*
X183261000Y-81153000D01*
X187071000Y-81153000D01*
X187071000Y-82804000D01*
X183261000Y-82804000D01*
X183261000Y-83439000D01*
X187071000Y-83439000D01*
X187071000Y-85090000D01*
X183261000Y-85090000D01*
X183261000Y-85725000D01*
X187071000Y-85725000D01*
X187071000Y-88900000D01*
X186563000Y-88900000D01*
X186563000Y-86233000D01*
X182753000Y-86233000D01*
X182753000Y-84582000D01*
X186563000Y-84582000D01*
X186563000Y-83947000D01*
X182753000Y-83947000D01*
X182753000Y-82296000D01*
X186563000Y-82296000D01*
X186563000Y-81661000D01*
X182753000Y-81661000D01*
X182753000Y-80010000D01*
X186563000Y-80010000D01*
X186563000Y-79375000D01*
X181229000Y-79375000D01*
X181229000Y-86309200D01*
X180721000Y-86309200D01*
X180721000Y-79375000D01*
X179959000Y-79375000D01*
X178943000Y-79832200D01*
X174879000Y-79832200D01*
X174879000Y-78409800D01*
X178943000Y-78409800D01*
X179959000Y-78867000D01*
X187071000Y-78867000D01*
X187071000Y-80518000D01*
X183261000Y-80518000D01*
X183261000Y-80518000D01*
G37*
D13*
X121265000Y-88265000D03*
X118765000Y-88265000D03*
D14*
X127000000Y-81590000D03*
X127000000Y-85090000D03*
X127000000Y-88590000D03*
D15*
X149523701Y-102353393D03*
X149523701Y-104853393D03*
D13*
X121265000Y-81915000D03*
X118765000Y-81915000D03*
D15*
X154603701Y-102373393D03*
X154603701Y-104873393D03*
D16*
X172085000Y-84775000D03*
X172085000Y-86675000D03*
D17*
X167960000Y-88900000D03*
X169860000Y-88900000D03*
D13*
X167660000Y-100330000D03*
X170160000Y-100330000D03*
D17*
X169540000Y-82550000D03*
X167640000Y-82550000D03*
X173741000Y-79121000D03*
X175641000Y-79121000D03*
D13*
X157460000Y-81915000D03*
X154960000Y-81915000D03*
D16*
X160655000Y-79690000D03*
X160655000Y-77790000D03*
D18*
X154860000Y-115570000D03*
X157560000Y-115570000D03*
X162480000Y-115570000D03*
X165180000Y-115570000D03*
X170100000Y-115570000D03*
X172800000Y-115570000D03*
X177720000Y-115570000D03*
X180420000Y-115570000D03*
X185340000Y-115570000D03*
X188040000Y-115570000D03*
D19*
X118535000Y-97470000D03*
D20*
X120445000Y-98850000D03*
X120445000Y-99350000D03*
X120445000Y-99850000D03*
X120445000Y-100350000D03*
X120445000Y-100850000D03*
X120445000Y-101350000D03*
X120445000Y-101850000D03*
X120445000Y-104350000D03*
X120445000Y-103350000D03*
X120445000Y-102850000D03*
X120445000Y-102350000D03*
X120445000Y-103850000D03*
X118745000Y-104100000D03*
D19*
X118535000Y-105730000D03*
X112585000Y-106090000D03*
X112585000Y-97110000D03*
D20*
X118745000Y-103600000D03*
X118745000Y-103100000D03*
X118745000Y-102600000D03*
X118745000Y-102100000D03*
X118745000Y-101600000D03*
X118745000Y-101100000D03*
X118745000Y-100600000D03*
X118745000Y-100100000D03*
X118745000Y-99600000D03*
X118745000Y-99100000D03*
X118745000Y-98600000D03*
D21*
X176530000Y-106045000D03*
X185420000Y-97155000D03*
X185420000Y-106045000D03*
X190500000Y-106045000D03*
X190500000Y-97155000D03*
D22*
X152093701Y-99158393D03*
X149493701Y-99158393D03*
D23*
X115570000Y-86440000D03*
X115570000Y-83740000D03*
D18*
X149860000Y-94615000D03*
X147160000Y-94615000D03*
X152400000Y-94615000D03*
X155100000Y-94615000D03*
X170260000Y-102870000D03*
X167560000Y-102870000D03*
D23*
X172720000Y-102950000D03*
X172720000Y-100250000D03*
X162687000Y-77089000D03*
X162687000Y-79789000D03*
X162560000Y-96680000D03*
X162560000Y-93980000D03*
D18*
X154860000Y-113030000D03*
X157560000Y-113030000D03*
X162480000Y-113030000D03*
X165180000Y-113030000D03*
X170100000Y-113030000D03*
X172800000Y-113030000D03*
X177720000Y-113030000D03*
X180420000Y-113030000D03*
X185340000Y-113030000D03*
X188040000Y-113030000D03*
X157560000Y-86995000D03*
X154860000Y-86995000D03*
X157560000Y-89535000D03*
X154860000Y-89535000D03*
X157560000Y-84455000D03*
X154860000Y-84455000D03*
D24*
X120380000Y-84192881D03*
X119880000Y-84192881D03*
X119380000Y-84192881D03*
X118880000Y-84192881D03*
X118380000Y-84192881D03*
X118380000Y-86042881D03*
X118880000Y-86042881D03*
X119380000Y-86042881D03*
X119880000Y-86042881D03*
X120380000Y-86042881D03*
D25*
X118780000Y-85117881D03*
X119980000Y-85117881D03*
D26*
X160655000Y-104300000D03*
X161925000Y-104300000D03*
X163195000Y-104300000D03*
X164465000Y-104300000D03*
X164465000Y-98900000D03*
X163195000Y-98900000D03*
X161925000Y-98900000D03*
X160655000Y-98900000D03*
D24*
X164310000Y-82690000D03*
X163810000Y-82690000D03*
X163310000Y-82690000D03*
X162810000Y-82690000D03*
X162310000Y-82690000D03*
X161810000Y-82690000D03*
X161310000Y-82690000D03*
X160810000Y-82690000D03*
D27*
X160160000Y-83340000D03*
X160160000Y-83840000D03*
X160160000Y-84340000D03*
X160160000Y-84840000D03*
X160160000Y-85340000D03*
X160160000Y-85840000D03*
X160160000Y-86340000D03*
X160160000Y-86840000D03*
D24*
X160810000Y-87490000D03*
X161310000Y-87490000D03*
X161810000Y-87490000D03*
X162310000Y-87490000D03*
X162810000Y-87490000D03*
X163310000Y-87490000D03*
X163810000Y-87490000D03*
X164310000Y-87490000D03*
D27*
X164960000Y-86840000D03*
X164960000Y-86340000D03*
X164960000Y-85840000D03*
X164960000Y-85340000D03*
X164960000Y-84840000D03*
X164960000Y-84340000D03*
X164960000Y-83840000D03*
X164960000Y-83340000D03*
D28*
X161697500Y-85952500D03*
X163422500Y-85952500D03*
X161697500Y-84227500D03*
X163422500Y-84227500D03*
D29*
X170010000Y-84875000D03*
X167810000Y-84875000D03*
X167810000Y-86575000D03*
X170010000Y-86575000D03*
D30*
X151413701Y-103918393D03*
X152063701Y-103918393D03*
X152713701Y-103918393D03*
X152713701Y-102018393D03*
X151413701Y-102018393D03*
X152063701Y-102018393D03*
D21*
X176530000Y-97155000D03*
D31*
X156210000Y-78740000D03*
D12*
G36*
X177806779Y-78569144D02*
G01*
X177829834Y-78572563D01*
X177852443Y-78578227D01*
X177874387Y-78586079D01*
X177895457Y-78596044D01*
X177915448Y-78608026D01*
X177934168Y-78621910D01*
X177951438Y-78637562D01*
X177967090Y-78654832D01*
X177980974Y-78673552D01*
X177992956Y-78693543D01*
X178002921Y-78714613D01*
X178010773Y-78736557D01*
X178016437Y-78759166D01*
X178019856Y-78782221D01*
X178021000Y-78805500D01*
X178021000Y-79380500D01*
X178019856Y-79403779D01*
X178016437Y-79426834D01*
X178010773Y-79449443D01*
X178002921Y-79471387D01*
X177992956Y-79492457D01*
X177980974Y-79512448D01*
X177967090Y-79531168D01*
X177951438Y-79548438D01*
X177934168Y-79564090D01*
X177915448Y-79577974D01*
X177895457Y-79589956D01*
X177874387Y-79599921D01*
X177852443Y-79607773D01*
X177829834Y-79613437D01*
X177806779Y-79616856D01*
X177783500Y-79618000D01*
X177308500Y-79618000D01*
X177285221Y-79616856D01*
X177262166Y-79613437D01*
X177239557Y-79607773D01*
X177217613Y-79599921D01*
X177196543Y-79589956D01*
X177176552Y-79577974D01*
X177157832Y-79564090D01*
X177140562Y-79548438D01*
X177124910Y-79531168D01*
X177111026Y-79512448D01*
X177099044Y-79492457D01*
X177089079Y-79471387D01*
X177081227Y-79449443D01*
X177075563Y-79426834D01*
X177072144Y-79403779D01*
X177071000Y-79380500D01*
X177071000Y-78805500D01*
X177072144Y-78782221D01*
X177075563Y-78759166D01*
X177081227Y-78736557D01*
X177089079Y-78714613D01*
X177099044Y-78693543D01*
X177111026Y-78673552D01*
X177124910Y-78654832D01*
X177140562Y-78637562D01*
X177157832Y-78621910D01*
X177176552Y-78608026D01*
X177196543Y-78596044D01*
X177217613Y-78586079D01*
X177239557Y-78578227D01*
X177262166Y-78572563D01*
X177285221Y-78569144D01*
X177308500Y-78568000D01*
X177783500Y-78568000D01*
X177806779Y-78569144D01*
X177806779Y-78569144D01*
G37*
D32*
X177546000Y-79093000D03*
D12*
G36*
X177806779Y-76819144D02*
G01*
X177829834Y-76822563D01*
X177852443Y-76828227D01*
X177874387Y-76836079D01*
X177895457Y-76846044D01*
X177915448Y-76858026D01*
X177934168Y-76871910D01*
X177951438Y-76887562D01*
X177967090Y-76904832D01*
X177980974Y-76923552D01*
X177992956Y-76943543D01*
X178002921Y-76964613D01*
X178010773Y-76986557D01*
X178016437Y-77009166D01*
X178019856Y-77032221D01*
X178021000Y-77055500D01*
X178021000Y-77630500D01*
X178019856Y-77653779D01*
X178016437Y-77676834D01*
X178010773Y-77699443D01*
X178002921Y-77721387D01*
X177992956Y-77742457D01*
X177980974Y-77762448D01*
X177967090Y-77781168D01*
X177951438Y-77798438D01*
X177934168Y-77814090D01*
X177915448Y-77827974D01*
X177895457Y-77839956D01*
X177874387Y-77849921D01*
X177852443Y-77857773D01*
X177829834Y-77863437D01*
X177806779Y-77866856D01*
X177783500Y-77868000D01*
X177308500Y-77868000D01*
X177285221Y-77866856D01*
X177262166Y-77863437D01*
X177239557Y-77857773D01*
X177217613Y-77849921D01*
X177196543Y-77839956D01*
X177176552Y-77827974D01*
X177157832Y-77814090D01*
X177140562Y-77798438D01*
X177124910Y-77781168D01*
X177111026Y-77762448D01*
X177099044Y-77742457D01*
X177089079Y-77721387D01*
X177081227Y-77699443D01*
X177075563Y-77676834D01*
X177072144Y-77653779D01*
X177071000Y-77630500D01*
X177071000Y-77055500D01*
X177072144Y-77032221D01*
X177075563Y-77009166D01*
X177081227Y-76986557D01*
X177089079Y-76964613D01*
X177099044Y-76943543D01*
X177111026Y-76923552D01*
X177124910Y-76904832D01*
X177140562Y-76887562D01*
X177157832Y-76871910D01*
X177176552Y-76858026D01*
X177196543Y-76846044D01*
X177217613Y-76836079D01*
X177239557Y-76828227D01*
X177262166Y-76822563D01*
X177285221Y-76819144D01*
X177308500Y-76818000D01*
X177783500Y-76818000D01*
X177806779Y-76819144D01*
X177806779Y-76819144D01*
G37*
D32*
X177546000Y-77343000D03*
D12*
G36*
X172091779Y-76847144D02*
G01*
X172114834Y-76850563D01*
X172137443Y-76856227D01*
X172159387Y-76864079D01*
X172180457Y-76874044D01*
X172200448Y-76886026D01*
X172219168Y-76899910D01*
X172236438Y-76915562D01*
X172252090Y-76932832D01*
X172265974Y-76951552D01*
X172277956Y-76971543D01*
X172287921Y-76992613D01*
X172295773Y-77014557D01*
X172301437Y-77037166D01*
X172304856Y-77060221D01*
X172306000Y-77083500D01*
X172306000Y-77658500D01*
X172304856Y-77681779D01*
X172301437Y-77704834D01*
X172295773Y-77727443D01*
X172287921Y-77749387D01*
X172277956Y-77770457D01*
X172265974Y-77790448D01*
X172252090Y-77809168D01*
X172236438Y-77826438D01*
X172219168Y-77842090D01*
X172200448Y-77855974D01*
X172180457Y-77867956D01*
X172159387Y-77877921D01*
X172137443Y-77885773D01*
X172114834Y-77891437D01*
X172091779Y-77894856D01*
X172068500Y-77896000D01*
X171593500Y-77896000D01*
X171570221Y-77894856D01*
X171547166Y-77891437D01*
X171524557Y-77885773D01*
X171502613Y-77877921D01*
X171481543Y-77867956D01*
X171461552Y-77855974D01*
X171442832Y-77842090D01*
X171425562Y-77826438D01*
X171409910Y-77809168D01*
X171396026Y-77790448D01*
X171384044Y-77770457D01*
X171374079Y-77749387D01*
X171366227Y-77727443D01*
X171360563Y-77704834D01*
X171357144Y-77681779D01*
X171356000Y-77658500D01*
X171356000Y-77083500D01*
X171357144Y-77060221D01*
X171360563Y-77037166D01*
X171366227Y-77014557D01*
X171374079Y-76992613D01*
X171384044Y-76971543D01*
X171396026Y-76951552D01*
X171409910Y-76932832D01*
X171425562Y-76915562D01*
X171442832Y-76899910D01*
X171461552Y-76886026D01*
X171481543Y-76874044D01*
X171502613Y-76864079D01*
X171524557Y-76856227D01*
X171547166Y-76850563D01*
X171570221Y-76847144D01*
X171593500Y-76846000D01*
X172068500Y-76846000D01*
X172091779Y-76847144D01*
X172091779Y-76847144D01*
G37*
D32*
X171831000Y-77371000D03*
D12*
G36*
X172091779Y-78597144D02*
G01*
X172114834Y-78600563D01*
X172137443Y-78606227D01*
X172159387Y-78614079D01*
X172180457Y-78624044D01*
X172200448Y-78636026D01*
X172219168Y-78649910D01*
X172236438Y-78665562D01*
X172252090Y-78682832D01*
X172265974Y-78701552D01*
X172277956Y-78721543D01*
X172287921Y-78742613D01*
X172295773Y-78764557D01*
X172301437Y-78787166D01*
X172304856Y-78810221D01*
X172306000Y-78833500D01*
X172306000Y-79408500D01*
X172304856Y-79431779D01*
X172301437Y-79454834D01*
X172295773Y-79477443D01*
X172287921Y-79499387D01*
X172277956Y-79520457D01*
X172265974Y-79540448D01*
X172252090Y-79559168D01*
X172236438Y-79576438D01*
X172219168Y-79592090D01*
X172200448Y-79605974D01*
X172180457Y-79617956D01*
X172159387Y-79627921D01*
X172137443Y-79635773D01*
X172114834Y-79641437D01*
X172091779Y-79644856D01*
X172068500Y-79646000D01*
X171593500Y-79646000D01*
X171570221Y-79644856D01*
X171547166Y-79641437D01*
X171524557Y-79635773D01*
X171502613Y-79627921D01*
X171481543Y-79617956D01*
X171461552Y-79605974D01*
X171442832Y-79592090D01*
X171425562Y-79576438D01*
X171409910Y-79559168D01*
X171396026Y-79540448D01*
X171384044Y-79520457D01*
X171374079Y-79499387D01*
X171366227Y-79477443D01*
X171360563Y-79454834D01*
X171357144Y-79431779D01*
X171356000Y-79408500D01*
X171356000Y-78833500D01*
X171357144Y-78810221D01*
X171360563Y-78787166D01*
X171366227Y-78764557D01*
X171374079Y-78742613D01*
X171384044Y-78721543D01*
X171396026Y-78701552D01*
X171409910Y-78682832D01*
X171425562Y-78665562D01*
X171442832Y-78649910D01*
X171461552Y-78636026D01*
X171481543Y-78624044D01*
X171502613Y-78614079D01*
X171524557Y-78606227D01*
X171547166Y-78600563D01*
X171570221Y-78597144D01*
X171593500Y-78596000D01*
X172068500Y-78596000D01*
X172091779Y-78597144D01*
X172091779Y-78597144D01*
G37*
D32*
X171831000Y-79121000D03*
D33*
X116840000Y-88265000D03*
X115570000Y-90170000D03*
X161697500Y-85952500D03*
X163422500Y-85952500D03*
X163422500Y-84227500D03*
X161697500Y-84227500D03*
X155956000Y-103632000D03*
X155956000Y-100838000D03*
X121920000Y-101600000D03*
X116840000Y-101600000D03*
D34*
X166624000Y-84455000D03*
X161544000Y-78486000D03*
D33*
X179070000Y-77089000D03*
D34*
X159512000Y-90170000D03*
X160782000Y-88900000D03*
X170942000Y-82550000D03*
X147320000Y-96012090D03*
D33*
X131064000Y-90170000D03*
D34*
X147320000Y-100076000D03*
D33*
X122555000Y-90170000D03*
D34*
X169926000Y-83566000D03*
X166370000Y-85090000D03*
X166370000Y-88900000D03*
X166370000Y-81788000D03*
X117602000Y-84074000D03*
X123444000Y-87122000D03*
X117094000Y-97028000D03*
X114300000Y-97028000D03*
X170688000Y-90170000D03*
X165769997Y-88900000D03*
X170688000Y-90770003D03*
X165100000Y-88900000D03*
X154432000Y-80772000D03*
X156863761Y-88259937D03*
X159371432Y-81201536D03*
X151130000Y-93472000D03*
X166370000Y-82550000D03*
X162687000Y-78486000D03*
X159004118Y-81695977D03*
X167640000Y-107972069D03*
X159004000Y-82295978D03*
X167640000Y-107372056D03*
X167640000Y-106772043D03*
X159004000Y-84836000D03*
X167640000Y-106171936D03*
X159512000Y-97536000D03*
X161290000Y-101346000D03*
X161036000Y-102870000D03*
X163830000Y-101346000D03*
X162052000Y-102870000D03*
X163068000Y-102870000D03*
X160782000Y-97536000D03*
X162052000Y-100330000D03*
X160181997Y-97536000D03*
X121920000Y-104140000D03*
D35*
X140335000Y-93472000D02*
X140462000Y-93472000D01*
X140462000Y-93472000D02*
X146148393Y-99158393D01*
X146148393Y-99158393D02*
X149493701Y-99158393D01*
X151413701Y-102018393D02*
X151413701Y-101375701D01*
X151413701Y-101375701D02*
X151130000Y-101092000D01*
X151130000Y-101092000D02*
X150677308Y-101092000D01*
X150677308Y-101092000D02*
X149493701Y-99908393D01*
X149493701Y-99908393D02*
X149493701Y-99158393D01*
X127000000Y-81590000D02*
X126690000Y-81590000D01*
X126690000Y-81590000D02*
X124460000Y-83820000D01*
X124460000Y-83820000D02*
X124460000Y-90170000D01*
X124460000Y-90170000D02*
X127762000Y-93472000D01*
X127762000Y-93472000D02*
X140335000Y-93472000D01*
X149493701Y-99158393D02*
X149493701Y-102323393D01*
X149493701Y-102323393D02*
X149523701Y-102353393D01*
X127000000Y-81590000D02*
X126850000Y-81590000D01*
X151413701Y-103918393D02*
X151088701Y-103918393D01*
X151088701Y-103918393D02*
X149523701Y-102353393D01*
X151413701Y-102018393D02*
X149858701Y-102018393D01*
X149858701Y-102018393D02*
X149523701Y-102353393D01*
D36*
X127000000Y-81590000D02*
X125750000Y-81590000D01*
X125750000Y-81590000D02*
X121297119Y-86042881D01*
X121297119Y-86042881D02*
X120755000Y-86042881D01*
X120755000Y-86042881D02*
X120380000Y-86042881D01*
X119380000Y-84192881D02*
X119380000Y-83456471D01*
X119380000Y-83456471D02*
X118991399Y-83067870D01*
X118991399Y-83067870D02*
X117357870Y-83067870D01*
X117357870Y-83067870D02*
X116840000Y-82550000D01*
X116840000Y-82550000D02*
X116840000Y-81280000D01*
X116840000Y-81280000D02*
X118110000Y-80010000D01*
X118110000Y-80010000D02*
X129540000Y-80010000D01*
X129540000Y-80010000D02*
X129540000Y-82550000D01*
X129540000Y-82550000D02*
X127000000Y-85090000D01*
D35*
X128016000Y-88590000D02*
X128400000Y-88590000D01*
X155000000Y-94615000D02*
X155100000Y-94615000D01*
X128400000Y-88590000D02*
X128839999Y-89029999D01*
X146853996Y-97450000D02*
X147786002Y-97450000D01*
X128839999Y-89029999D02*
X128839999Y-90506001D01*
X128839999Y-90506001D02*
X130883998Y-92550000D01*
X130883998Y-92550000D02*
X141953996Y-92550000D01*
X141953996Y-92550000D02*
X146853996Y-97450000D01*
X147786002Y-97450000D02*
X148716002Y-96520000D01*
X148716002Y-96520000D02*
X153095000Y-96520000D01*
X153095000Y-96520000D02*
X155000000Y-94615000D01*
D36*
X113774990Y-90170000D02*
X115570000Y-90170000D01*
X119380000Y-86042881D02*
X119380000Y-87650000D01*
X119380000Y-87650000D02*
X118765000Y-88265000D01*
X119380000Y-87650000D02*
X118765000Y-88265000D01*
D35*
X161697500Y-84227500D02*
X163422500Y-85952500D01*
X163422500Y-84227500D02*
X161697500Y-85952500D01*
X160655000Y-77790000D02*
X159210000Y-77790000D01*
X127000000Y-88590000D02*
X128016000Y-88590000D01*
D37*
X127000000Y-88590000D02*
X127150000Y-88590000D01*
X127150000Y-88590000D02*
X128016000Y-88590000D01*
D35*
X174752000Y-110236000D02*
X180848000Y-110236000D01*
X180848000Y-110236000D02*
X186309000Y-110236000D01*
X160020000Y-111439692D02*
X165887757Y-105571935D01*
X165887757Y-105571935D02*
X170087935Y-105571935D01*
X170087935Y-105571935D02*
X174752000Y-110236000D01*
X121920000Y-101600000D02*
X121920000Y-100076000D01*
X121920000Y-100076000D02*
X126492000Y-95504000D01*
X159004000Y-119380000D02*
X160020000Y-118364000D01*
X126492000Y-95504000D02*
X139446000Y-95504000D01*
X160020000Y-118364000D02*
X160020000Y-116840000D01*
X139446000Y-95504000D02*
X145542000Y-101600000D01*
X145542000Y-101600000D02*
X145542000Y-110998000D01*
X145542000Y-110998000D02*
X153924000Y-119380000D01*
X153924000Y-119380000D02*
X159004000Y-119380000D01*
D38*
X162560000Y-116840000D02*
X160020000Y-116840000D01*
X162480000Y-115570000D02*
X162480000Y-116760000D01*
X162480000Y-116760000D02*
X162560000Y-116840000D01*
X162560000Y-116840000D02*
X162800000Y-116840000D01*
D35*
X160020000Y-116840000D02*
X160020000Y-111439692D01*
D36*
X164465000Y-104300000D02*
X164465000Y-105325000D01*
X155478701Y-104873393D02*
X154603701Y-104873393D01*
X164465000Y-105325000D02*
X163916607Y-105873393D01*
X156478701Y-105873393D02*
X155478701Y-104873393D01*
X163916607Y-105873393D02*
X156478701Y-105873393D01*
D35*
X155956000Y-103632000D02*
X155956000Y-104394000D01*
X155956000Y-104394000D02*
X155476607Y-104873393D01*
X155476607Y-104873393D02*
X154603701Y-104873393D01*
X155100000Y-94615000D02*
X155100000Y-99982000D01*
X155100000Y-99982000D02*
X155956000Y-100838000D01*
X154603701Y-104873393D02*
X154149393Y-104873393D01*
X154149393Y-104873393D02*
X153194393Y-103918393D01*
X153194393Y-103918393D02*
X152713701Y-103918393D01*
X160020000Y-111439692D02*
X154603701Y-106023393D01*
X154603701Y-106023393D02*
X154603701Y-104873393D01*
X117265000Y-98298000D02*
X113774990Y-94807990D01*
X117856000Y-98889000D02*
X117265000Y-98298000D01*
X117265000Y-98298000D02*
X117265000Y-101175000D01*
X117265000Y-101175000D02*
X116840000Y-101600000D01*
X172085000Y-86675000D02*
X172085000Y-87503000D01*
X172085000Y-87503000D02*
X170688000Y-88900000D01*
X170688000Y-88900000D02*
X169860000Y-88900000D01*
D38*
X170100000Y-115570000D02*
X170100000Y-116760000D01*
X170180000Y-116840000D02*
X169926000Y-116840000D01*
X170100000Y-116760000D02*
X170180000Y-116840000D01*
X177720000Y-115570000D02*
X177720000Y-116760000D01*
X177720000Y-116760000D02*
X177800000Y-116840000D01*
X177800000Y-116840000D02*
X177292000Y-116840000D01*
X169926000Y-116840000D02*
X177292000Y-116840000D01*
X177292000Y-116840000D02*
X185166000Y-116840000D01*
X162800000Y-116840000D02*
X169926000Y-116840000D01*
X185340000Y-116666000D02*
X185340000Y-115570000D01*
X185166000Y-116840000D02*
X185340000Y-116666000D01*
D35*
X153162000Y-91627000D02*
X153162000Y-88646000D01*
X153162000Y-88646000D02*
X153162000Y-86053000D01*
X127000000Y-88590000D02*
X153106000Y-88590000D01*
X153106000Y-88590000D02*
X153162000Y-88646000D01*
X154835000Y-81915000D02*
X154960000Y-81915000D01*
X154960000Y-81915000D02*
X154960000Y-82940000D01*
X113774990Y-94807990D02*
X113774990Y-90170000D01*
X113774990Y-90170000D02*
X113774990Y-84485010D01*
X114520000Y-83740000D02*
X115570000Y-83740000D01*
X113774990Y-84485010D02*
X114520000Y-83740000D01*
D36*
X117856000Y-98889000D02*
X117856000Y-103811000D01*
X117856000Y-103811000D02*
X118145000Y-104100000D01*
X118145000Y-104100000D02*
X118745000Y-104100000D01*
X118745000Y-98600000D02*
X118145000Y-98600000D01*
X118145000Y-98600000D02*
X117856000Y-98889000D01*
D35*
X115570000Y-82590000D02*
X115570000Y-83740000D01*
X127150000Y-88590000D02*
X130065010Y-85674990D01*
X130065010Y-85674990D02*
X130065010Y-79792534D01*
X115570000Y-81807524D02*
X115570000Y-82590000D01*
X130065010Y-79792534D02*
X129757466Y-79484990D01*
X129757466Y-79484990D02*
X117892533Y-79484991D01*
X117892533Y-79484991D02*
X115570000Y-81807524D01*
X154960000Y-81915000D02*
X155085000Y-81915000D01*
X155085000Y-81915000D02*
X159210000Y-77790000D01*
X154860000Y-84455000D02*
X154860000Y-82015000D01*
X154860000Y-82015000D02*
X154960000Y-81915000D01*
X153162000Y-86053000D02*
X154760000Y-84455000D01*
X154760000Y-84455000D02*
X154860000Y-84455000D01*
X155100000Y-94615000D02*
X155100000Y-93565000D01*
X155100000Y-93565000D02*
X153162000Y-91627000D01*
X149523701Y-104853393D02*
X154583701Y-104853393D01*
X154583701Y-104853393D02*
X154603701Y-104873393D01*
D36*
X167810000Y-84875000D02*
X167933000Y-84875000D01*
X167933000Y-84875000D02*
X168656000Y-85598000D01*
X168656000Y-85598000D02*
X168910000Y-85598000D01*
X168910000Y-85598000D02*
X168910000Y-85852000D01*
X168910000Y-85852000D02*
X169287000Y-85852000D01*
X169287000Y-85852000D02*
X170010000Y-86575000D01*
X169541000Y-86106000D02*
X170010000Y-86575000D01*
X170010000Y-86575000D02*
X171985000Y-86575000D01*
X171985000Y-86575000D02*
X172085000Y-86675000D01*
X169860000Y-88900000D02*
X169860000Y-86725000D01*
X169860000Y-86725000D02*
X170010000Y-86575000D01*
X118745000Y-98600000D02*
X119345000Y-98600000D01*
X119345000Y-98600000D02*
X119595000Y-98850000D01*
X119595000Y-98850000D02*
X119845000Y-98850000D01*
X119845000Y-98850000D02*
X120445000Y-98850000D01*
D38*
X167810000Y-84875000D02*
X167044000Y-84875000D01*
X167044000Y-84875000D02*
X166624000Y-84455000D01*
X160655000Y-77790000D02*
X161330000Y-77790000D01*
X162031000Y-77089000D02*
X162560000Y-77089000D01*
X162560000Y-77089000D02*
X162687000Y-77089000D01*
X161544000Y-77576000D02*
X161597000Y-77523000D01*
X161544000Y-78486000D02*
X161544000Y-77576000D01*
X161330000Y-77790000D02*
X161597000Y-77523000D01*
X161597000Y-77523000D02*
X162031000Y-77089000D01*
D36*
X120380000Y-84192881D02*
X120380000Y-82800000D01*
X120380000Y-82800000D02*
X121265000Y-81915000D01*
X119880000Y-84192881D02*
X119880000Y-82905000D01*
X119880000Y-82905000D02*
X118890000Y-81915000D01*
X118890000Y-81915000D02*
X118765000Y-81915000D01*
X155628701Y-102373393D02*
X160516607Y-102373393D01*
X160516607Y-102373393D02*
X160782000Y-102108000D01*
X160782000Y-102108000D02*
X164338000Y-102108000D01*
X166370000Y-104140000D02*
X168890000Y-104140000D01*
X164338000Y-102108000D02*
X166370000Y-104140000D01*
X168890000Y-104140000D02*
X170160000Y-102870000D01*
X170160000Y-102870000D02*
X170260000Y-102870000D01*
D35*
X169315000Y-82550000D02*
X169540000Y-82550000D01*
D36*
X172720000Y-102950000D02*
X170340000Y-102950000D01*
X170340000Y-102950000D02*
X170260000Y-102870000D01*
X158478999Y-82786999D02*
X159004000Y-83312000D01*
X159004000Y-83312000D02*
X159004000Y-84074000D01*
X158750000Y-80750000D02*
X158478999Y-81021001D01*
X158478999Y-81021001D02*
X158478999Y-82786999D01*
X159004000Y-84074000D02*
X159270000Y-84340000D01*
X159270000Y-84340000D02*
X159560000Y-84340000D01*
X159560000Y-84340000D02*
X160160000Y-84340000D01*
X158750000Y-80750000D02*
X158823466Y-80676534D01*
D35*
X156210000Y-91935000D02*
X155448000Y-91173000D01*
X155448000Y-91173000D02*
X154860000Y-90585000D01*
D38*
X159512000Y-90170000D02*
X158496000Y-91186000D01*
X158496000Y-91186000D02*
X155461000Y-91186000D01*
X155461000Y-91186000D02*
X155448000Y-91173000D01*
X160810000Y-87490000D02*
X160810000Y-88872000D01*
X160810000Y-88872000D02*
X160782000Y-88900000D01*
X157480000Y-81935000D02*
X157460000Y-81915000D01*
D36*
X164960000Y-84340000D02*
X164960000Y-84840000D01*
D35*
X165540002Y-84455000D02*
X165100000Y-84455000D01*
X169315000Y-82550000D02*
X168339676Y-83525324D01*
X168339676Y-83525324D02*
X166469678Y-83525324D01*
X166469678Y-83525324D02*
X165540002Y-84455000D01*
D36*
X172370000Y-102870000D02*
X172450000Y-102950000D01*
D35*
X157480000Y-99060000D02*
X157480000Y-93205000D01*
D36*
X157480000Y-99060000D02*
X157640000Y-98900000D01*
D35*
X157480000Y-100522094D02*
X157480000Y-99060000D01*
D36*
X157640000Y-98900000D02*
X160655000Y-98900000D01*
D35*
X157480000Y-93205000D02*
X156210000Y-91935000D01*
D36*
X165009999Y-84889999D02*
X164960000Y-84840000D01*
X162810000Y-82690000D02*
X163310000Y-82690000D01*
X162810000Y-81530000D02*
X162810000Y-82690000D01*
X161310000Y-82090000D02*
X161310000Y-82690000D01*
D35*
X158750000Y-80750000D02*
X159810000Y-79690000D01*
X157585000Y-81915000D02*
X158750000Y-80750000D01*
X157460000Y-81915000D02*
X157585000Y-81915000D01*
X159810000Y-79690000D02*
X159880000Y-79690000D01*
X159880000Y-79690000D02*
X160655000Y-79690000D01*
X156210000Y-85745000D02*
X156210000Y-83040000D01*
X156210000Y-83040000D02*
X157335000Y-81915000D01*
X157335000Y-81915000D02*
X157460000Y-81915000D01*
X154860000Y-86995000D02*
X154960000Y-86995000D01*
X154960000Y-86995000D02*
X156210000Y-85745000D01*
X154860000Y-89535000D02*
X154860000Y-86995000D01*
X154860000Y-90585000D02*
X154860000Y-89535000D01*
X154603701Y-102373393D02*
X155628701Y-102373393D01*
X155628701Y-102373393D02*
X157480000Y-100522094D01*
X152063701Y-103918393D02*
X152063701Y-103168393D01*
X152063701Y-103168393D02*
X152713701Y-102518393D01*
X152713701Y-102518393D02*
X152713701Y-102018393D01*
X152713701Y-102018393D02*
X154248701Y-102018393D01*
X154248701Y-102018393D02*
X154603701Y-102373393D01*
D36*
X162560000Y-81280000D02*
X162810000Y-81530000D01*
X161310000Y-81195000D02*
X161310000Y-82090000D01*
X160655000Y-80540000D02*
X161310000Y-81195000D01*
X160655000Y-79690000D02*
X160655000Y-80540000D01*
X161395000Y-81280000D02*
X161310000Y-81195000D01*
X162560000Y-81280000D02*
X161395000Y-81280000D01*
D38*
X170942000Y-82550000D02*
X170659158Y-82550000D01*
X170659158Y-82550000D02*
X169545000Y-82550000D01*
D36*
X119880000Y-87005000D02*
X121140000Y-88265000D01*
X119880000Y-86042881D02*
X119880000Y-87005000D01*
X147160000Y-94615000D02*
X146160000Y-94615000D01*
X146160000Y-94615000D02*
X143239000Y-91694000D01*
X143239000Y-91694000D02*
X133012264Y-91694000D01*
X133012264Y-91694000D02*
X131488264Y-90170000D01*
X131488264Y-90170000D02*
X131064000Y-90170000D01*
X147160000Y-94615000D02*
X147160000Y-94836000D01*
X147160000Y-94836000D02*
X147320000Y-94996000D01*
X147320000Y-94996000D02*
X147320000Y-96012090D01*
X147320000Y-100358842D02*
X147320000Y-100076000D01*
X153162000Y-113030000D02*
X147320000Y-107188000D01*
X147320000Y-107188000D02*
X147320000Y-100358842D01*
X154860000Y-113030000D02*
X153162000Y-113030000D01*
X122555000Y-90170000D02*
X121265000Y-90170000D01*
X117052119Y-85090000D02*
X117052119Y-83607881D01*
X117052119Y-83607881D02*
X117142120Y-83517880D01*
X121265000Y-90170000D02*
X121265000Y-89140000D01*
X118380000Y-86042881D02*
X118005000Y-86042881D01*
X114300000Y-85724998D02*
X114300000Y-87155002D01*
X117314998Y-90170000D02*
X121265000Y-90170000D01*
X117052119Y-85090000D02*
X114934998Y-85090000D01*
X114934998Y-85090000D02*
X114300000Y-85724998D01*
X114300000Y-87155002D02*
X117314998Y-90170000D01*
X118880000Y-84192881D02*
X118880000Y-83592881D01*
X121140000Y-88265000D02*
X121265000Y-88265000D01*
X121045000Y-100350000D02*
X121265000Y-100130000D01*
X119595000Y-102850000D02*
X119595000Y-100545000D01*
X118880000Y-83592881D02*
X118804999Y-83517880D01*
X118005000Y-86042881D02*
X117052119Y-85090000D01*
X118745000Y-102600000D02*
X119345000Y-102600000D01*
X121265000Y-89140000D02*
X121265000Y-88265000D01*
X119595000Y-102850000D02*
X119845000Y-102850000D01*
X119845000Y-102850000D02*
X120445000Y-102850000D01*
X121045000Y-100350000D02*
X120445000Y-100350000D01*
X118745000Y-100100000D02*
X119345000Y-100100000D01*
X119345000Y-100100000D02*
X119595000Y-100350000D01*
X119345000Y-102600000D02*
X119595000Y-102850000D01*
X119595000Y-100545000D02*
X119595000Y-100350000D01*
X119595000Y-100350000D02*
X119845000Y-100350000D01*
X118804999Y-83517880D02*
X117142120Y-83517880D01*
X121265000Y-100130000D02*
X121265000Y-90170000D01*
X119845000Y-100350000D02*
X120445000Y-100350000D01*
X166370000Y-85090000D02*
X166119992Y-85340008D01*
X166119992Y-85340008D02*
X165196400Y-85340008D01*
X165196400Y-85340008D02*
X164960000Y-85340008D01*
X169926000Y-83566000D02*
X169926000Y-84791000D01*
X169926000Y-84791000D02*
X170010000Y-84875000D01*
X170010000Y-84875000D02*
X171985000Y-84875000D01*
X171985000Y-84875000D02*
X172085000Y-84775000D01*
X165596000Y-85840000D02*
X166331000Y-86575000D01*
X166331000Y-86575000D02*
X167810000Y-86575000D01*
X164960000Y-85840000D02*
X165596000Y-85840000D01*
X167810000Y-86575000D02*
X167810000Y-88750000D01*
X167810000Y-88750000D02*
X167960000Y-88900000D01*
X167660000Y-100330000D02*
X167660000Y-102770000D01*
X167660000Y-102770000D02*
X167560000Y-102870000D01*
X166370000Y-88900000D02*
X166370000Y-90170000D01*
X166370000Y-90170000D02*
X167660000Y-91460000D01*
X167660000Y-91460000D02*
X167660000Y-100330000D01*
X164960000Y-83340000D02*
X164960000Y-83198000D01*
X164960000Y-83198000D02*
X166370000Y-81788000D01*
X164310000Y-82465000D02*
X164310000Y-82690000D01*
D37*
X164310000Y-82465000D02*
X165876000Y-80899000D01*
X165876000Y-80899000D02*
X167132000Y-80899000D01*
X167132000Y-80899000D02*
X167640000Y-81407000D01*
X167640000Y-81407000D02*
X167640000Y-82550000D01*
D38*
X163810000Y-82690000D02*
X163810000Y-82316000D01*
D35*
X163830000Y-81280000D02*
X163830000Y-81974998D01*
D38*
X163830000Y-82296000D02*
X163810000Y-82316000D01*
X163830000Y-81974998D02*
X163830000Y-82296000D01*
D36*
X154860000Y-115570000D02*
X153162000Y-115570000D01*
X153162000Y-115570000D02*
X146794999Y-109202999D01*
X146794999Y-109202999D02*
X146794999Y-101328999D01*
X123444000Y-90932000D02*
X123444000Y-87122000D01*
X146794999Y-101328999D02*
X139954000Y-94488000D01*
X139954000Y-94488000D02*
X127000000Y-94488000D01*
X127000000Y-94488000D02*
X123444000Y-90932000D01*
X117602000Y-84074000D02*
X118261119Y-84074000D01*
X118261119Y-84074000D02*
X118380000Y-84192881D01*
X157560000Y-113030000D02*
X157560000Y-113930000D01*
X157560000Y-113930000D02*
X157560000Y-115570000D01*
X165180000Y-113030000D02*
X165180000Y-113930000D01*
X165180000Y-113930000D02*
X165180000Y-115570000D01*
X172800000Y-113030000D02*
X172800000Y-113930000D01*
X172800000Y-113930000D02*
X172800000Y-115570000D01*
X180420000Y-113030000D02*
X180420000Y-113930000D01*
X180420000Y-113930000D02*
X180420000Y-115570000D01*
X188040000Y-113030000D02*
X188040000Y-113930000D01*
X188040000Y-113930000D02*
X188040000Y-115570000D01*
X117094000Y-97028000D02*
X118093000Y-97028000D01*
X118093000Y-97028000D02*
X118535000Y-97470000D01*
X112585000Y-97110000D02*
X114218000Y-97110000D01*
X114218000Y-97110000D02*
X114300000Y-97028000D01*
X112585000Y-106090000D02*
X112585000Y-105440000D01*
X112585000Y-105440000D02*
X112585000Y-97110000D01*
X118535000Y-105730000D02*
X112945000Y-105730000D01*
X112945000Y-105730000D02*
X112585000Y-106090000D01*
X170688000Y-90170000D02*
X174625000Y-90170000D01*
X174625000Y-90170000D02*
X181610000Y-97155000D01*
X181610000Y-97155000D02*
X185420000Y-97155000D01*
X164960000Y-86340000D02*
X165459590Y-86340000D01*
X165459590Y-86340000D02*
X165769997Y-86650407D01*
X165769997Y-86650407D02*
X165769997Y-88900000D01*
X170688000Y-90770003D02*
X173955003Y-90770003D01*
X173955003Y-90770003D02*
X185420000Y-102235000D01*
X185420000Y-102235000D02*
X185420000Y-104277234D01*
X185420000Y-104277234D02*
X185420000Y-106045000D01*
X164960000Y-86840000D02*
X165072000Y-86840000D01*
X165072000Y-86840000D02*
X165100000Y-86868000D01*
X165100000Y-86868000D02*
X165100000Y-88900000D01*
D37*
X156210000Y-78740000D02*
X155448000Y-78740000D01*
X155448000Y-78740000D02*
X154432000Y-79756000D01*
X154432000Y-79756000D02*
X154432000Y-80772000D01*
X157560000Y-86995000D02*
X158877000Y-86995000D01*
X158877000Y-86995000D02*
X159532000Y-86340000D01*
X159532000Y-86340000D02*
X160160000Y-86340000D01*
X157560000Y-86995000D02*
X157560000Y-87804000D01*
X157560000Y-87804000D02*
X157104063Y-88259937D01*
X157104063Y-88259937D02*
X156863761Y-88259937D01*
D35*
X152063701Y-102018393D02*
X152063701Y-99188393D01*
X152063701Y-99188393D02*
X152093701Y-99158393D01*
D36*
X116125000Y-86995000D02*
X115570000Y-86440000D01*
X118745000Y-86995000D02*
X116125000Y-86995000D01*
X118880000Y-86860000D02*
X118745000Y-86995000D01*
X118880000Y-86042881D02*
X118880000Y-86860000D01*
X115570000Y-86440000D02*
X115570000Y-86540000D01*
X115570000Y-86540000D02*
X115747882Y-86717882D01*
D37*
X160810000Y-82465000D02*
X159546536Y-81201536D01*
X159546536Y-81201536D02*
X159371432Y-81201536D01*
X160810000Y-82690000D02*
X160810000Y-82465000D01*
X151130000Y-93472000D02*
X151130000Y-94615000D01*
D36*
X150860000Y-94615000D02*
X151130000Y-94615000D01*
X151130000Y-94615000D02*
X152400000Y-94615000D01*
X149860000Y-94615000D02*
X150860000Y-94615000D01*
D37*
X164960000Y-83840000D02*
X165470000Y-83840000D01*
X165470000Y-83840000D02*
X166370000Y-82940000D01*
X166370000Y-82940000D02*
X166370000Y-82550000D01*
X162687000Y-78486000D02*
X162687000Y-79756000D01*
X162560000Y-96680000D02*
X162560000Y-97282000D01*
X162560000Y-97282000D02*
X163195000Y-97917000D01*
X163195000Y-97917000D02*
X163195000Y-98900000D01*
X162810000Y-93218000D02*
X162810000Y-93570000D01*
X162810000Y-87490000D02*
X162810000Y-93218000D01*
X162810000Y-93218000D02*
X162810000Y-93730000D01*
X162810000Y-93730000D02*
X162560000Y-93980000D01*
D36*
X160160000Y-82661058D02*
X159194919Y-81695977D01*
X159194919Y-81695977D02*
X159004118Y-81695977D01*
X160160000Y-83340000D02*
X160160000Y-82661058D01*
X162480000Y-113030000D02*
X162480000Y-111840000D01*
X162480000Y-111840000D02*
X166347931Y-107972069D01*
X166347931Y-107972069D02*
X167640000Y-107972069D01*
X159454011Y-82745989D02*
X159203999Y-82495977D01*
X159454011Y-83734011D02*
X159454011Y-82745989D01*
X159203999Y-82495977D02*
X159004000Y-82295978D01*
X160160000Y-83840000D02*
X159560000Y-83840000D01*
X159560000Y-83840000D02*
X159454011Y-83734011D01*
X170100000Y-113030000D02*
X170100000Y-109140000D01*
X170100000Y-109140000D02*
X168332056Y-107372056D01*
X168332056Y-107372056D02*
X167640000Y-107372056D01*
X167640000Y-106772043D02*
X168748043Y-106772043D01*
X168748043Y-106772043D02*
X173736000Y-111760000D01*
X173736000Y-111760000D02*
X176450000Y-111760000D01*
X176450000Y-111760000D02*
X177720000Y-113030000D01*
X160160000Y-84840000D02*
X159008000Y-84840000D01*
X159008000Y-84840000D02*
X159004000Y-84836000D01*
X167640000Y-106171936D02*
X169163936Y-106171936D01*
X169163936Y-106171936D02*
X174244000Y-111252000D01*
X174244000Y-111252000D02*
X183388000Y-111252000D01*
X183388000Y-111252000D02*
X185166000Y-113030000D01*
X185166000Y-113030000D02*
X185340000Y-113030000D01*
X160160000Y-86840000D02*
X160160000Y-92570000D01*
X160160000Y-92570000D02*
X159512000Y-93218000D01*
X159512000Y-93218000D02*
X159512000Y-97536000D01*
D37*
X156845000Y-85788836D02*
X159956164Y-85788836D01*
X159956164Y-85788836D02*
X160007328Y-85840000D01*
X160007328Y-85840000D02*
X160160000Y-85840000D01*
X156210000Y-86423836D02*
X156845000Y-85788836D01*
X157460000Y-89535000D02*
X156210000Y-88285000D01*
X156210000Y-88285000D02*
X156210000Y-86423836D01*
X160160000Y-85340000D02*
X160071174Y-85428826D01*
X160071174Y-85428826D02*
X158834826Y-85428826D01*
X158834826Y-85428826D02*
X157861000Y-84455000D01*
X157861000Y-84455000D02*
X157560000Y-84455000D01*
X161290000Y-101063158D02*
X161290000Y-101346000D01*
X161290000Y-93185998D02*
X161290000Y-101063158D01*
X162310000Y-92165998D02*
X161290000Y-93185998D01*
X162310000Y-87490000D02*
X162310000Y-92165998D01*
X160836001Y-103069999D02*
X161036000Y-102870000D01*
X160655000Y-103251000D02*
X160836001Y-103069999D01*
X160655000Y-104300000D02*
X160655000Y-103251000D01*
X163830000Y-101063158D02*
X163830000Y-101346000D01*
X163310000Y-87490000D02*
X163310000Y-92190000D01*
X163830000Y-92710000D02*
X163830000Y-101063158D01*
X163830000Y-97536000D02*
X163830000Y-101346000D01*
X163310000Y-92190000D02*
X163830000Y-92710000D01*
X161925000Y-104300000D02*
X161925000Y-102997000D01*
X161925000Y-102997000D02*
X162052000Y-102870000D01*
X163195000Y-102997000D02*
X163068000Y-102870000D01*
X163195000Y-104300000D02*
X163195000Y-102997000D01*
X161810000Y-87490000D02*
X161810000Y-92156868D01*
X161810000Y-92156868D02*
X160782000Y-93184868D01*
X160782000Y-93184868D02*
X160782000Y-97536000D01*
X163810000Y-87490000D02*
X163810000Y-92180870D01*
X163810000Y-92180870D02*
X164465000Y-92835870D01*
X164465000Y-92835870D02*
X164465000Y-98900000D01*
X162052000Y-100330000D02*
X162052000Y-99027000D01*
X162052000Y-99027000D02*
X161925000Y-98900000D01*
X161310000Y-87490000D02*
X161310000Y-92147738D01*
X161310000Y-92147738D02*
X160181997Y-93275741D01*
X160181997Y-93275741D02*
X160181997Y-97536000D01*
X121710000Y-104350000D02*
X121920000Y-104140000D01*
X120445000Y-104350000D02*
X121710000Y-104350000D01*
D36*
X172720000Y-100250000D02*
X173620000Y-100250000D01*
X173620000Y-100250000D02*
X176530000Y-103160000D01*
X176530000Y-103160000D02*
X176530000Y-104277234D01*
X176530000Y-104277234D02*
X176530000Y-106045000D01*
X170160000Y-100330000D02*
X172640000Y-100330000D01*
X172640000Y-100330000D02*
X172720000Y-100250000D01*
X172370000Y-100330000D02*
X172450000Y-100250000D01*
D39*
X173741000Y-79121000D02*
X171831000Y-79121000D01*
X165989000Y-79121000D02*
X163830000Y-81280000D01*
X171831000Y-79121000D02*
X165989000Y-79121000D01*
D40*
G36*
X122112111Y-90998586D02*
G01*
X122282271Y-91069068D01*
X122462911Y-91105000D01*
X122647089Y-91105000D01*
X122699141Y-91094646D01*
X122729364Y-91194279D01*
X122738454Y-91224246D01*
X122809026Y-91356276D01*
X122846348Y-91401753D01*
X122903999Y-91472001D01*
X122933003Y-91495804D01*
X126436205Y-94999008D01*
X126459999Y-95028001D01*
X126488992Y-95051795D01*
X126488996Y-95051799D01*
X126528836Y-95084494D01*
X126575724Y-95122974D01*
X126707753Y-95193546D01*
X126851014Y-95237003D01*
X126962667Y-95248000D01*
X126962676Y-95248000D01*
X126999999Y-95251676D01*
X127037322Y-95248000D01*
X139639199Y-95248000D01*
X146035000Y-101643802D01*
X146034999Y-109165677D01*
X146031323Y-109202999D01*
X146034999Y-109240321D01*
X146034999Y-109240331D01*
X146045996Y-109351984D01*
X146084611Y-109479282D01*
X146089453Y-109495245D01*
X146160025Y-109627275D01*
X146194422Y-109669187D01*
X146254998Y-109743000D01*
X146284002Y-109766803D01*
X152598201Y-116081003D01*
X152621999Y-116110001D01*
X152737724Y-116204974D01*
X152869753Y-116275546D01*
X153013014Y-116319003D01*
X153124667Y-116330000D01*
X153124676Y-116330000D01*
X153161999Y-116333676D01*
X153199322Y-116330000D01*
X153482762Y-116330000D01*
X153484188Y-116344482D01*
X153520498Y-116464180D01*
X153579463Y-116574494D01*
X153658815Y-116671185D01*
X153755506Y-116750537D01*
X153865820Y-116809502D01*
X153985518Y-116845812D01*
X154110000Y-116858072D01*
X155610000Y-116858072D01*
X155734482Y-116845812D01*
X155854180Y-116809502D01*
X155964494Y-116750537D01*
X156061185Y-116671185D01*
X156140537Y-116574494D01*
X156199502Y-116464180D01*
X156210000Y-116429573D01*
X156220498Y-116464180D01*
X156279463Y-116574494D01*
X156358815Y-116671185D01*
X156455506Y-116750537D01*
X156565820Y-116809502D01*
X156685518Y-116845812D01*
X156810000Y-116858072D01*
X158310000Y-116858072D01*
X158434482Y-116845812D01*
X158554180Y-116809502D01*
X158664494Y-116750537D01*
X158761185Y-116671185D01*
X158840537Y-116574494D01*
X158899502Y-116464180D01*
X158935812Y-116344482D01*
X158948072Y-116220000D01*
X158948072Y-114920000D01*
X158935812Y-114795518D01*
X158899502Y-114675820D01*
X158840537Y-114565506D01*
X158761185Y-114468815D01*
X158664494Y-114389463D01*
X158554180Y-114330498D01*
X158453642Y-114300000D01*
X158554180Y-114269502D01*
X158664494Y-114210537D01*
X158761185Y-114131185D01*
X158840537Y-114034494D01*
X158899502Y-113924180D01*
X158935812Y-113804482D01*
X158948072Y-113680000D01*
X158948072Y-112380000D01*
X161091928Y-112380000D01*
X161091928Y-113680000D01*
X161104188Y-113804482D01*
X161140498Y-113924180D01*
X161199463Y-114034494D01*
X161278815Y-114131185D01*
X161375506Y-114210537D01*
X161485820Y-114269502D01*
X161605518Y-114305812D01*
X161730000Y-114318072D01*
X163230000Y-114318072D01*
X163354482Y-114305812D01*
X163474180Y-114269502D01*
X163584494Y-114210537D01*
X163681185Y-114131185D01*
X163760537Y-114034494D01*
X163819502Y-113924180D01*
X163830000Y-113889573D01*
X163840498Y-113924180D01*
X163899463Y-114034494D01*
X163978815Y-114131185D01*
X164075506Y-114210537D01*
X164185820Y-114269502D01*
X164286358Y-114300000D01*
X164185820Y-114330498D01*
X164075506Y-114389463D01*
X163978815Y-114468815D01*
X163899463Y-114565506D01*
X163840498Y-114675820D01*
X163804188Y-114795518D01*
X163791928Y-114920000D01*
X163791928Y-116220000D01*
X163804188Y-116344482D01*
X163840498Y-116464180D01*
X163899463Y-116574494D01*
X163978815Y-116671185D01*
X164075506Y-116750537D01*
X164185820Y-116809502D01*
X164305518Y-116845812D01*
X164430000Y-116858072D01*
X165930000Y-116858072D01*
X166054482Y-116845812D01*
X166174180Y-116809502D01*
X166284494Y-116750537D01*
X166381185Y-116671185D01*
X166460537Y-116574494D01*
X166519502Y-116464180D01*
X166555812Y-116344482D01*
X166568072Y-116220000D01*
X166568072Y-114920000D01*
X166555812Y-114795518D01*
X166519502Y-114675820D01*
X166460537Y-114565506D01*
X166381185Y-114468815D01*
X166284494Y-114389463D01*
X166174180Y-114330498D01*
X166073642Y-114300000D01*
X166174180Y-114269502D01*
X166284494Y-114210537D01*
X166381185Y-114131185D01*
X166460537Y-114034494D01*
X166519502Y-113924180D01*
X166555812Y-113804482D01*
X166568072Y-113680000D01*
X166568072Y-112380000D01*
X166555812Y-112255518D01*
X166519502Y-112135820D01*
X166460537Y-112025506D01*
X166381185Y-111928815D01*
X166284494Y-111849463D01*
X166174180Y-111790498D01*
X166054482Y-111754188D01*
X165930000Y-111741928D01*
X164430000Y-111741928D01*
X164305518Y-111754188D01*
X164185820Y-111790498D01*
X164075506Y-111849463D01*
X163978815Y-111928815D01*
X163899463Y-112025506D01*
X163840498Y-112135820D01*
X163830000Y-112170427D01*
X163819502Y-112135820D01*
X163760537Y-112025506D01*
X163681185Y-111928815D01*
X163584494Y-111849463D01*
X163558977Y-111835824D01*
X166662734Y-108732069D01*
X167292843Y-108732069D01*
X167396440Y-108774980D01*
X167557760Y-108807069D01*
X167722240Y-108807069D01*
X167883560Y-108774980D01*
X168035521Y-108712036D01*
X168172281Y-108620656D01*
X168288587Y-108504350D01*
X168329026Y-108443828D01*
X169340001Y-109454804D01*
X169340000Y-111742913D01*
X169225518Y-111754188D01*
X169105820Y-111790498D01*
X168995506Y-111849463D01*
X168898815Y-111928815D01*
X168819463Y-112025506D01*
X168760498Y-112135820D01*
X168724188Y-112255518D01*
X168711928Y-112380000D01*
X168711928Y-113680000D01*
X168724188Y-113804482D01*
X168760498Y-113924180D01*
X168819463Y-114034494D01*
X168898815Y-114131185D01*
X168995506Y-114210537D01*
X169105820Y-114269502D01*
X169225518Y-114305812D01*
X169350000Y-114318072D01*
X170850000Y-114318072D01*
X170974482Y-114305812D01*
X171094180Y-114269502D01*
X171204494Y-114210537D01*
X171301185Y-114131185D01*
X171380537Y-114034494D01*
X171439502Y-113924180D01*
X171450000Y-113889573D01*
X171460498Y-113924180D01*
X171519463Y-114034494D01*
X171598815Y-114131185D01*
X171695506Y-114210537D01*
X171805820Y-114269502D01*
X171906358Y-114300000D01*
X171805820Y-114330498D01*
X171695506Y-114389463D01*
X171598815Y-114468815D01*
X171519463Y-114565506D01*
X171460498Y-114675820D01*
X171424188Y-114795518D01*
X171411928Y-114920000D01*
X171411928Y-116220000D01*
X171424188Y-116344482D01*
X171460498Y-116464180D01*
X171519463Y-116574494D01*
X171598815Y-116671185D01*
X171695506Y-116750537D01*
X171805820Y-116809502D01*
X171925518Y-116845812D01*
X172050000Y-116858072D01*
X173550000Y-116858072D01*
X173674482Y-116845812D01*
X173794180Y-116809502D01*
X173904494Y-116750537D01*
X174001185Y-116671185D01*
X174080537Y-116574494D01*
X174139502Y-116464180D01*
X174175812Y-116344482D01*
X174188072Y-116220000D01*
X174188072Y-114920000D01*
X174175812Y-114795518D01*
X174139502Y-114675820D01*
X174080537Y-114565506D01*
X174001185Y-114468815D01*
X173904494Y-114389463D01*
X173794180Y-114330498D01*
X173693642Y-114300000D01*
X173794180Y-114269502D01*
X173904494Y-114210537D01*
X174001185Y-114131185D01*
X174080537Y-114034494D01*
X174139502Y-113924180D01*
X174175812Y-113804482D01*
X174188072Y-113680000D01*
X174188072Y-112520000D01*
X176135199Y-112520000D01*
X176331928Y-112716729D01*
X176331928Y-113680000D01*
X176344188Y-113804482D01*
X176380498Y-113924180D01*
X176439463Y-114034494D01*
X176518815Y-114131185D01*
X176615506Y-114210537D01*
X176725820Y-114269502D01*
X176845518Y-114305812D01*
X176970000Y-114318072D01*
X178470000Y-114318072D01*
X178594482Y-114305812D01*
X178714180Y-114269502D01*
X178824494Y-114210537D01*
X178921185Y-114131185D01*
X179000537Y-114034494D01*
X179059502Y-113924180D01*
X179070000Y-113889573D01*
X179080498Y-113924180D01*
X179139463Y-114034494D01*
X179218815Y-114131185D01*
X179315506Y-114210537D01*
X179425820Y-114269502D01*
X179526358Y-114300000D01*
X179425820Y-114330498D01*
X179315506Y-114389463D01*
X179218815Y-114468815D01*
X179139463Y-114565506D01*
X179080498Y-114675820D01*
X179044188Y-114795518D01*
X179031928Y-114920000D01*
X179031928Y-116220000D01*
X179044188Y-116344482D01*
X179080498Y-116464180D01*
X179139463Y-116574494D01*
X179218815Y-116671185D01*
X179315506Y-116750537D01*
X179425820Y-116809502D01*
X179545518Y-116845812D01*
X179670000Y-116858072D01*
X181170000Y-116858072D01*
X181294482Y-116845812D01*
X181414180Y-116809502D01*
X181524494Y-116750537D01*
X181621185Y-116671185D01*
X181700537Y-116574494D01*
X181759502Y-116464180D01*
X181795812Y-116344482D01*
X181808072Y-116220000D01*
X181808072Y-114920000D01*
X181795812Y-114795518D01*
X181759502Y-114675820D01*
X181700537Y-114565506D01*
X181621185Y-114468815D01*
X181524494Y-114389463D01*
X181414180Y-114330498D01*
X181313642Y-114300000D01*
X181414180Y-114269502D01*
X181524494Y-114210537D01*
X181621185Y-114131185D01*
X181700537Y-114034494D01*
X181759502Y-113924180D01*
X181795812Y-113804482D01*
X181808072Y-113680000D01*
X181808072Y-112380000D01*
X181795812Y-112255518D01*
X181759502Y-112135820D01*
X181700537Y-112025506D01*
X181689453Y-112012000D01*
X183073199Y-112012000D01*
X183951928Y-112890730D01*
X183951928Y-113680000D01*
X183964188Y-113804482D01*
X184000498Y-113924180D01*
X184059463Y-114034494D01*
X184138815Y-114131185D01*
X184235506Y-114210537D01*
X184345820Y-114269502D01*
X184465518Y-114305812D01*
X184590000Y-114318072D01*
X186090000Y-114318072D01*
X186214482Y-114305812D01*
X186334180Y-114269502D01*
X186444494Y-114210537D01*
X186541185Y-114131185D01*
X186620537Y-114034494D01*
X186679502Y-113924180D01*
X186690000Y-113889573D01*
X186700498Y-113924180D01*
X186759463Y-114034494D01*
X186838815Y-114131185D01*
X186935506Y-114210537D01*
X187045820Y-114269502D01*
X187146358Y-114300000D01*
X187045820Y-114330498D01*
X186935506Y-114389463D01*
X186838815Y-114468815D01*
X186759463Y-114565506D01*
X186700498Y-114675820D01*
X186664188Y-114795518D01*
X186651928Y-114920000D01*
X186651928Y-116220000D01*
X186664188Y-116344482D01*
X186700498Y-116464180D01*
X186759463Y-116574494D01*
X186838815Y-116671185D01*
X186935506Y-116750537D01*
X187045820Y-116809502D01*
X187165518Y-116845812D01*
X187290000Y-116858072D01*
X188790000Y-116858072D01*
X188914482Y-116845812D01*
X189034180Y-116809502D01*
X189144494Y-116750537D01*
X189241185Y-116671185D01*
X189320537Y-116574494D01*
X189379502Y-116464180D01*
X189415812Y-116344482D01*
X189428072Y-116220000D01*
X189428072Y-114920000D01*
X189415812Y-114795518D01*
X189379502Y-114675820D01*
X189320537Y-114565506D01*
X189241185Y-114468815D01*
X189144494Y-114389463D01*
X189034180Y-114330498D01*
X188933642Y-114300000D01*
X189034180Y-114269502D01*
X189144494Y-114210537D01*
X189241185Y-114131185D01*
X189320537Y-114034494D01*
X189379502Y-113924180D01*
X189415812Y-113804482D01*
X189428072Y-113680000D01*
X189428072Y-112380000D01*
X189415812Y-112255518D01*
X189379502Y-112135820D01*
X189320537Y-112025506D01*
X189241185Y-111928815D01*
X189144494Y-111849463D01*
X189034180Y-111790498D01*
X188914482Y-111754188D01*
X188790000Y-111741928D01*
X187290000Y-111741928D01*
X187165518Y-111754188D01*
X187045820Y-111790498D01*
X186935506Y-111849463D01*
X186838815Y-111928815D01*
X186759463Y-112025506D01*
X186700498Y-112135820D01*
X186690000Y-112170427D01*
X186679502Y-112135820D01*
X186620537Y-112025506D01*
X186541185Y-111928815D01*
X186444494Y-111849463D01*
X186334180Y-111790498D01*
X186214482Y-111754188D01*
X186090000Y-111741928D01*
X184952730Y-111741928D01*
X183951804Y-110741003D01*
X183928001Y-110711999D01*
X183812276Y-110617026D01*
X183680247Y-110546454D01*
X183536986Y-110502997D01*
X183425333Y-110492000D01*
X183425322Y-110492000D01*
X183388000Y-110488324D01*
X183350678Y-110492000D01*
X174558803Y-110492000D01*
X169727740Y-105660939D01*
X169703937Y-105631935D01*
X169588212Y-105536962D01*
X169456183Y-105466390D01*
X169312922Y-105422933D01*
X169201269Y-105411936D01*
X169201258Y-105411936D01*
X169163936Y-105408260D01*
X169126614Y-105411936D01*
X167987157Y-105411936D01*
X167883560Y-105369025D01*
X167722240Y-105336936D01*
X167557760Y-105336936D01*
X167396440Y-105369025D01*
X167244479Y-105431969D01*
X167107719Y-105523349D01*
X166991413Y-105639655D01*
X166900033Y-105776415D01*
X166837089Y-105928376D01*
X166805000Y-106089696D01*
X166805000Y-106254176D01*
X166837089Y-106415496D01*
X166860489Y-106471990D01*
X166837089Y-106528483D01*
X166805000Y-106689803D01*
X166805000Y-106854283D01*
X166837089Y-107015603D01*
X166860470Y-107072050D01*
X166837089Y-107128496D01*
X166820465Y-107212069D01*
X166385253Y-107212069D01*
X166347930Y-107208393D01*
X166310607Y-107212069D01*
X166310598Y-107212069D01*
X166198945Y-107223066D01*
X166055684Y-107266523D01*
X165923655Y-107337095D01*
X165923653Y-107337096D01*
X165923654Y-107337096D01*
X165836927Y-107408270D01*
X165836923Y-107408274D01*
X165807930Y-107432068D01*
X165784136Y-107461061D01*
X161968998Y-111276201D01*
X161940000Y-111299999D01*
X161916202Y-111328997D01*
X161916201Y-111328998D01*
X161845026Y-111415724D01*
X161774454Y-111547754D01*
X161755265Y-111611014D01*
X161730998Y-111691014D01*
X161725944Y-111742327D01*
X161605518Y-111754188D01*
X161485820Y-111790498D01*
X161375506Y-111849463D01*
X161278815Y-111928815D01*
X161199463Y-112025506D01*
X161140498Y-112135820D01*
X161104188Y-112255518D01*
X161091928Y-112380000D01*
X158948072Y-112380000D01*
X158935812Y-112255518D01*
X158899502Y-112135820D01*
X158840537Y-112025506D01*
X158761185Y-111928815D01*
X158664494Y-111849463D01*
X158554180Y-111790498D01*
X158434482Y-111754188D01*
X158310000Y-111741928D01*
X156810000Y-111741928D01*
X156685518Y-111754188D01*
X156565820Y-111790498D01*
X156455506Y-111849463D01*
X156358815Y-111928815D01*
X156279463Y-112025506D01*
X156220498Y-112135820D01*
X156210000Y-112170427D01*
X156199502Y-112135820D01*
X156140537Y-112025506D01*
X156061185Y-111928815D01*
X155964494Y-111849463D01*
X155854180Y-111790498D01*
X155734482Y-111754188D01*
X155610000Y-111741928D01*
X154110000Y-111741928D01*
X153985518Y-111754188D01*
X153865820Y-111790498D01*
X153755506Y-111849463D01*
X153658815Y-111928815D01*
X153579463Y-112025506D01*
X153520498Y-112135820D01*
X153484188Y-112255518D01*
X153482762Y-112270000D01*
X153476802Y-112270000D01*
X148080000Y-106873199D01*
X148080000Y-100423157D01*
X148122911Y-100319560D01*
X148155000Y-100158240D01*
X148155000Y-99993760D01*
X148154927Y-99993393D01*
X148255629Y-99993393D01*
X148255629Y-100508393D01*
X148267889Y-100632875D01*
X148304199Y-100752573D01*
X148363164Y-100862887D01*
X148442516Y-100959578D01*
X148539207Y-101038930D01*
X148573442Y-101057229D01*
X148544207Y-101072856D01*
X148447516Y-101152208D01*
X148368164Y-101248899D01*
X148309199Y-101359213D01*
X148272889Y-101478911D01*
X148260629Y-101603393D01*
X148260629Y-103103393D01*
X148272889Y-103227875D01*
X148309199Y-103347573D01*
X148368164Y-103457887D01*
X148447516Y-103554578D01*
X148544207Y-103633930D01*
X148654521Y-103692895D01*
X148774219Y-103729205D01*
X148898701Y-103741465D01*
X149730905Y-103741465D01*
X150469260Y-104479819D01*
X150495410Y-104511684D01*
X150622555Y-104616029D01*
X150720501Y-104668383D01*
X150762516Y-104719578D01*
X150859207Y-104798930D01*
X150969521Y-104857895D01*
X151089219Y-104894205D01*
X151213701Y-104906465D01*
X151613701Y-104906465D01*
X151738183Y-104894205D01*
X151738701Y-104894048D01*
X151739219Y-104894205D01*
X151863701Y-104906465D01*
X152263701Y-104906465D01*
X152388183Y-104894205D01*
X152507881Y-104857895D01*
X152618195Y-104798930D01*
X152714886Y-104719578D01*
X152794238Y-104622887D01*
X152853203Y-104512573D01*
X152889513Y-104392875D01*
X152901773Y-104268393D01*
X152901773Y-103568393D01*
X152898701Y-103537201D01*
X152898701Y-103514261D01*
X153275133Y-103137829D01*
X153306992Y-103111684D01*
X153338071Y-103073815D01*
X153340629Y-103070698D01*
X153340629Y-103123393D01*
X153352889Y-103247875D01*
X153389199Y-103367573D01*
X153448164Y-103477887D01*
X153527516Y-103574578D01*
X153624207Y-103653930D01*
X153734521Y-103712895D01*
X153854219Y-103749205D01*
X153978701Y-103761465D01*
X155228701Y-103761465D01*
X155353183Y-103749205D01*
X155472881Y-103712895D01*
X155583195Y-103653930D01*
X155679886Y-103574578D01*
X155759238Y-103477887D01*
X155818203Y-103367573D01*
X155854513Y-103247875D01*
X155861661Y-103175298D01*
X155949788Y-103148565D01*
X155978173Y-103133393D01*
X159854921Y-103133393D01*
X159824463Y-103170506D01*
X159765498Y-103280820D01*
X159729188Y-103400518D01*
X159716928Y-103525000D01*
X159716928Y-105075000D01*
X159729188Y-105199482D01*
X159765498Y-105319180D01*
X159824463Y-105429494D01*
X159903815Y-105526185D01*
X160000506Y-105605537D01*
X160110820Y-105664502D01*
X160230518Y-105700812D01*
X160355000Y-105713072D01*
X160955000Y-105713072D01*
X161079482Y-105700812D01*
X161199180Y-105664502D01*
X161290000Y-105615957D01*
X161380820Y-105664502D01*
X161500518Y-105700812D01*
X161625000Y-105713072D01*
X162225000Y-105713072D01*
X162349482Y-105700812D01*
X162469180Y-105664502D01*
X162560000Y-105615957D01*
X162650820Y-105664502D01*
X162770518Y-105700812D01*
X162895000Y-105713072D01*
X163495000Y-105713072D01*
X163619482Y-105700812D01*
X163739180Y-105664502D01*
X163849494Y-105605537D01*
X163946185Y-105526185D01*
X164025537Y-105429494D01*
X164084502Y-105319180D01*
X164120812Y-105199482D01*
X164133072Y-105075000D01*
X164133072Y-103525000D01*
X164120812Y-103400518D01*
X164084502Y-103280820D01*
X164025537Y-103170506D01*
X163946185Y-103073815D01*
X163910000Y-103044119D01*
X163910000Y-103032109D01*
X163913458Y-102996999D01*
X163910000Y-102961890D01*
X163910000Y-102961880D01*
X163903000Y-102890808D01*
X163903000Y-102868000D01*
X164023199Y-102868000D01*
X165806201Y-104651003D01*
X165829999Y-104680001D01*
X165858997Y-104703799D01*
X165945723Y-104774974D01*
X166073704Y-104843382D01*
X166077753Y-104845546D01*
X166221014Y-104889003D01*
X166332667Y-104900000D01*
X166332677Y-104900000D01*
X166370000Y-104903676D01*
X166407323Y-104900000D01*
X168852678Y-104900000D01*
X168890000Y-104903676D01*
X168927322Y-104900000D01*
X168927333Y-104900000D01*
X169038986Y-104889003D01*
X169182247Y-104845546D01*
X169314276Y-104774974D01*
X169430001Y-104680001D01*
X169453804Y-104650997D01*
X169946729Y-104158072D01*
X171010000Y-104158072D01*
X171134482Y-104145812D01*
X171254180Y-104109502D01*
X171364494Y-104050537D01*
X171461185Y-103971185D01*
X171481622Y-103946283D01*
X171539463Y-104054494D01*
X171618815Y-104151185D01*
X171715506Y-104230537D01*
X171825820Y-104289502D01*
X171945518Y-104325812D01*
X172070000Y-104338072D01*
X173370000Y-104338072D01*
X173494482Y-104325812D01*
X173614180Y-104289502D01*
X173724494Y-104230537D01*
X173821185Y-104151185D01*
X173900537Y-104054494D01*
X173959502Y-103944180D01*
X173995812Y-103824482D01*
X174008072Y-103700000D01*
X174008072Y-102200000D01*
X173995812Y-102075518D01*
X173959502Y-101955820D01*
X173900537Y-101845506D01*
X173821185Y-101748815D01*
X173724494Y-101669463D01*
X173614180Y-101610498D01*
X173579573Y-101600000D01*
X173614180Y-101589502D01*
X173724494Y-101530537D01*
X173780101Y-101484902D01*
X174117000Y-101821801D01*
X174117000Y-108585000D01*
X174119440Y-108609776D01*
X174126667Y-108633601D01*
X174138403Y-108655557D01*
X174154197Y-108674803D01*
X174173443Y-108690597D01*
X174195399Y-108702333D01*
X174219224Y-108709560D01*
X174244000Y-108712000D01*
X194515000Y-108712000D01*
X194515000Y-117221000D01*
X160020000Y-117221000D01*
X159995224Y-117223440D01*
X159971399Y-117230667D01*
X159949443Y-117242403D01*
X159930197Y-117258197D01*
X159914403Y-117277443D01*
X159902667Y-117299399D01*
X159895440Y-117323224D01*
X159893000Y-117348000D01*
X159893000Y-118311394D01*
X158951394Y-119253000D01*
X153976606Y-119253000D01*
X145669000Y-110945394D01*
X145669000Y-101600000D01*
X145666560Y-101575224D01*
X145659333Y-101551399D01*
X145647597Y-101529443D01*
X145631803Y-101510197D01*
X139535803Y-95414197D01*
X139516557Y-95398403D01*
X139494601Y-95386667D01*
X139470776Y-95379440D01*
X139446000Y-95377000D01*
X126492000Y-95377000D01*
X126467224Y-95379440D01*
X126443399Y-95386667D01*
X126421443Y-95398403D01*
X126402197Y-95414197D01*
X122025000Y-99791394D01*
X122025000Y-90940380D01*
X122112111Y-90998586D01*
X122112111Y-90998586D01*
G37*
X122112111Y-90998586D02*
X122282271Y-91069068D01*
X122462911Y-91105000D01*
X122647089Y-91105000D01*
X122699141Y-91094646D01*
X122729364Y-91194279D01*
X122738454Y-91224246D01*
X122809026Y-91356276D01*
X122846348Y-91401753D01*
X122903999Y-91472001D01*
X122933003Y-91495804D01*
X126436205Y-94999008D01*
X126459999Y-95028001D01*
X126488992Y-95051795D01*
X126488996Y-95051799D01*
X126528836Y-95084494D01*
X126575724Y-95122974D01*
X126707753Y-95193546D01*
X126851014Y-95237003D01*
X126962667Y-95248000D01*
X126962676Y-95248000D01*
X126999999Y-95251676D01*
X127037322Y-95248000D01*
X139639199Y-95248000D01*
X146035000Y-101643802D01*
X146034999Y-109165677D01*
X146031323Y-109202999D01*
X146034999Y-109240321D01*
X146034999Y-109240331D01*
X146045996Y-109351984D01*
X146084611Y-109479282D01*
X146089453Y-109495245D01*
X146160025Y-109627275D01*
X146194422Y-109669187D01*
X146254998Y-109743000D01*
X146284002Y-109766803D01*
X152598201Y-116081003D01*
X152621999Y-116110001D01*
X152737724Y-116204974D01*
X152869753Y-116275546D01*
X153013014Y-116319003D01*
X153124667Y-116330000D01*
X153124676Y-116330000D01*
X153161999Y-116333676D01*
X153199322Y-116330000D01*
X153482762Y-116330000D01*
X153484188Y-116344482D01*
X153520498Y-116464180D01*
X153579463Y-116574494D01*
X153658815Y-116671185D01*
X153755506Y-116750537D01*
X153865820Y-116809502D01*
X153985518Y-116845812D01*
X154110000Y-116858072D01*
X155610000Y-116858072D01*
X155734482Y-116845812D01*
X155854180Y-116809502D01*
X155964494Y-116750537D01*
X156061185Y-116671185D01*
X156140537Y-116574494D01*
X156199502Y-116464180D01*
X156210000Y-116429573D01*
X156220498Y-116464180D01*
X156279463Y-116574494D01*
X156358815Y-116671185D01*
X156455506Y-116750537D01*
X156565820Y-116809502D01*
X156685518Y-116845812D01*
X156810000Y-116858072D01*
X158310000Y-116858072D01*
X158434482Y-116845812D01*
X158554180Y-116809502D01*
X158664494Y-116750537D01*
X158761185Y-116671185D01*
X158840537Y-116574494D01*
X158899502Y-116464180D01*
X158935812Y-116344482D01*
X158948072Y-116220000D01*
X158948072Y-114920000D01*
X158935812Y-114795518D01*
X158899502Y-114675820D01*
X158840537Y-114565506D01*
X158761185Y-114468815D01*
X158664494Y-114389463D01*
X158554180Y-114330498D01*
X158453642Y-114300000D01*
X158554180Y-114269502D01*
X158664494Y-114210537D01*
X158761185Y-114131185D01*
X158840537Y-114034494D01*
X158899502Y-113924180D01*
X158935812Y-113804482D01*
X158948072Y-113680000D01*
X158948072Y-112380000D01*
X161091928Y-112380000D01*
X161091928Y-113680000D01*
X161104188Y-113804482D01*
X161140498Y-113924180D01*
X161199463Y-114034494D01*
X161278815Y-114131185D01*
X161375506Y-114210537D01*
X161485820Y-114269502D01*
X161605518Y-114305812D01*
X161730000Y-114318072D01*
X163230000Y-114318072D01*
X163354482Y-114305812D01*
X163474180Y-114269502D01*
X163584494Y-114210537D01*
X163681185Y-114131185D01*
X163760537Y-114034494D01*
X163819502Y-113924180D01*
X163830000Y-113889573D01*
X163840498Y-113924180D01*
X163899463Y-114034494D01*
X163978815Y-114131185D01*
X164075506Y-114210537D01*
X164185820Y-114269502D01*
X164286358Y-114300000D01*
X164185820Y-114330498D01*
X164075506Y-114389463D01*
X163978815Y-114468815D01*
X163899463Y-114565506D01*
X163840498Y-114675820D01*
X163804188Y-114795518D01*
X163791928Y-114920000D01*
X163791928Y-116220000D01*
X163804188Y-116344482D01*
X163840498Y-116464180D01*
X163899463Y-116574494D01*
X163978815Y-116671185D01*
X164075506Y-116750537D01*
X164185820Y-116809502D01*
X164305518Y-116845812D01*
X164430000Y-116858072D01*
X165930000Y-116858072D01*
X166054482Y-116845812D01*
X166174180Y-116809502D01*
X166284494Y-116750537D01*
X166381185Y-116671185D01*
X166460537Y-116574494D01*
X166519502Y-116464180D01*
X166555812Y-116344482D01*
X166568072Y-116220000D01*
X166568072Y-114920000D01*
X166555812Y-114795518D01*
X166519502Y-114675820D01*
X166460537Y-114565506D01*
X166381185Y-114468815D01*
X166284494Y-114389463D01*
X166174180Y-114330498D01*
X166073642Y-114300000D01*
X166174180Y-114269502D01*
X166284494Y-114210537D01*
X166381185Y-114131185D01*
X166460537Y-114034494D01*
X166519502Y-113924180D01*
X166555812Y-113804482D01*
X166568072Y-113680000D01*
X166568072Y-112380000D01*
X166555812Y-112255518D01*
X166519502Y-112135820D01*
X166460537Y-112025506D01*
X166381185Y-111928815D01*
X166284494Y-111849463D01*
X166174180Y-111790498D01*
X166054482Y-111754188D01*
X165930000Y-111741928D01*
X164430000Y-111741928D01*
X164305518Y-111754188D01*
X164185820Y-111790498D01*
X164075506Y-111849463D01*
X163978815Y-111928815D01*
X163899463Y-112025506D01*
X163840498Y-112135820D01*
X163830000Y-112170427D01*
X163819502Y-112135820D01*
X163760537Y-112025506D01*
X163681185Y-111928815D01*
X163584494Y-111849463D01*
X163558977Y-111835824D01*
X166662734Y-108732069D01*
X167292843Y-108732069D01*
X167396440Y-108774980D01*
X167557760Y-108807069D01*
X167722240Y-108807069D01*
X167883560Y-108774980D01*
X168035521Y-108712036D01*
X168172281Y-108620656D01*
X168288587Y-108504350D01*
X168329026Y-108443828D01*
X169340001Y-109454804D01*
X169340000Y-111742913D01*
X169225518Y-111754188D01*
X169105820Y-111790498D01*
X168995506Y-111849463D01*
X168898815Y-111928815D01*
X168819463Y-112025506D01*
X168760498Y-112135820D01*
X168724188Y-112255518D01*
X168711928Y-112380000D01*
X168711928Y-113680000D01*
X168724188Y-113804482D01*
X168760498Y-113924180D01*
X168819463Y-114034494D01*
X168898815Y-114131185D01*
X168995506Y-114210537D01*
X169105820Y-114269502D01*
X169225518Y-114305812D01*
X169350000Y-114318072D01*
X170850000Y-114318072D01*
X170974482Y-114305812D01*
X171094180Y-114269502D01*
X171204494Y-114210537D01*
X171301185Y-114131185D01*
X171380537Y-114034494D01*
X171439502Y-113924180D01*
X171450000Y-113889573D01*
X171460498Y-113924180D01*
X171519463Y-114034494D01*
X171598815Y-114131185D01*
X171695506Y-114210537D01*
X171805820Y-114269502D01*
X171906358Y-114300000D01*
X171805820Y-114330498D01*
X171695506Y-114389463D01*
X171598815Y-114468815D01*
X171519463Y-114565506D01*
X171460498Y-114675820D01*
X171424188Y-114795518D01*
X171411928Y-114920000D01*
X171411928Y-116220000D01*
X171424188Y-116344482D01*
X171460498Y-116464180D01*
X171519463Y-116574494D01*
X171598815Y-116671185D01*
X171695506Y-116750537D01*
X171805820Y-116809502D01*
X171925518Y-116845812D01*
X172050000Y-116858072D01*
X173550000Y-116858072D01*
X173674482Y-116845812D01*
X173794180Y-116809502D01*
X173904494Y-116750537D01*
X174001185Y-116671185D01*
X174080537Y-116574494D01*
X174139502Y-116464180D01*
X174175812Y-116344482D01*
X174188072Y-116220000D01*
X174188072Y-114920000D01*
X174175812Y-114795518D01*
X174139502Y-114675820D01*
X174080537Y-114565506D01*
X174001185Y-114468815D01*
X173904494Y-114389463D01*
X173794180Y-114330498D01*
X173693642Y-114300000D01*
X173794180Y-114269502D01*
X173904494Y-114210537D01*
X174001185Y-114131185D01*
X174080537Y-114034494D01*
X174139502Y-113924180D01*
X174175812Y-113804482D01*
X174188072Y-113680000D01*
X174188072Y-112520000D01*
X176135199Y-112520000D01*
X176331928Y-112716729D01*
X176331928Y-113680000D01*
X176344188Y-113804482D01*
X176380498Y-113924180D01*
X176439463Y-114034494D01*
X176518815Y-114131185D01*
X176615506Y-114210537D01*
X176725820Y-114269502D01*
X176845518Y-114305812D01*
X176970000Y-114318072D01*
X178470000Y-114318072D01*
X178594482Y-114305812D01*
X178714180Y-114269502D01*
X178824494Y-114210537D01*
X178921185Y-114131185D01*
X179000537Y-114034494D01*
X179059502Y-113924180D01*
X179070000Y-113889573D01*
X179080498Y-113924180D01*
X179139463Y-114034494D01*
X179218815Y-114131185D01*
X179315506Y-114210537D01*
X179425820Y-114269502D01*
X179526358Y-114300000D01*
X179425820Y-114330498D01*
X179315506Y-114389463D01*
X179218815Y-114468815D01*
X179139463Y-114565506D01*
X179080498Y-114675820D01*
X179044188Y-114795518D01*
X179031928Y-114920000D01*
X179031928Y-116220000D01*
X179044188Y-116344482D01*
X179080498Y-116464180D01*
X179139463Y-116574494D01*
X179218815Y-116671185D01*
X179315506Y-116750537D01*
X179425820Y-116809502D01*
X179545518Y-116845812D01*
X179670000Y-116858072D01*
X181170000Y-116858072D01*
X181294482Y-116845812D01*
X181414180Y-116809502D01*
X181524494Y-116750537D01*
X181621185Y-116671185D01*
X181700537Y-116574494D01*
X181759502Y-116464180D01*
X181795812Y-116344482D01*
X181808072Y-116220000D01*
X181808072Y-114920000D01*
X181795812Y-114795518D01*
X181759502Y-114675820D01*
X181700537Y-114565506D01*
X181621185Y-114468815D01*
X181524494Y-114389463D01*
X181414180Y-114330498D01*
X181313642Y-114300000D01*
X181414180Y-114269502D01*
X181524494Y-114210537D01*
X181621185Y-114131185D01*
X181700537Y-114034494D01*
X181759502Y-113924180D01*
X181795812Y-113804482D01*
X181808072Y-113680000D01*
X181808072Y-112380000D01*
X181795812Y-112255518D01*
X181759502Y-112135820D01*
X181700537Y-112025506D01*
X181689453Y-112012000D01*
X183073199Y-112012000D01*
X183951928Y-112890730D01*
X183951928Y-113680000D01*
X183964188Y-113804482D01*
X184000498Y-113924180D01*
X184059463Y-114034494D01*
X184138815Y-114131185D01*
X184235506Y-114210537D01*
X184345820Y-114269502D01*
X184465518Y-114305812D01*
X184590000Y-114318072D01*
X186090000Y-114318072D01*
X186214482Y-114305812D01*
X186334180Y-114269502D01*
X186444494Y-114210537D01*
X186541185Y-114131185D01*
X186620537Y-114034494D01*
X186679502Y-113924180D01*
X186690000Y-113889573D01*
X186700498Y-113924180D01*
X186759463Y-114034494D01*
X186838815Y-114131185D01*
X186935506Y-114210537D01*
X187045820Y-114269502D01*
X187146358Y-114300000D01*
X187045820Y-114330498D01*
X186935506Y-114389463D01*
X186838815Y-114468815D01*
X186759463Y-114565506D01*
X186700498Y-114675820D01*
X186664188Y-114795518D01*
X186651928Y-114920000D01*
X186651928Y-116220000D01*
X186664188Y-116344482D01*
X186700498Y-116464180D01*
X186759463Y-116574494D01*
X186838815Y-116671185D01*
X186935506Y-116750537D01*
X187045820Y-116809502D01*
X187165518Y-116845812D01*
X187290000Y-116858072D01*
X188790000Y-116858072D01*
X188914482Y-116845812D01*
X189034180Y-116809502D01*
X189144494Y-116750537D01*
X189241185Y-116671185D01*
X189320537Y-116574494D01*
X189379502Y-116464180D01*
X189415812Y-116344482D01*
X189428072Y-116220000D01*
X189428072Y-114920000D01*
X189415812Y-114795518D01*
X189379502Y-114675820D01*
X189320537Y-114565506D01*
X189241185Y-114468815D01*
X189144494Y-114389463D01*
X189034180Y-114330498D01*
X188933642Y-114300000D01*
X189034180Y-114269502D01*
X189144494Y-114210537D01*
X189241185Y-114131185D01*
X189320537Y-114034494D01*
X189379502Y-113924180D01*
X189415812Y-113804482D01*
X189428072Y-113680000D01*
X189428072Y-112380000D01*
X189415812Y-112255518D01*
X189379502Y-112135820D01*
X189320537Y-112025506D01*
X189241185Y-111928815D01*
X189144494Y-111849463D01*
X189034180Y-111790498D01*
X188914482Y-111754188D01*
X188790000Y-111741928D01*
X187290000Y-111741928D01*
X187165518Y-111754188D01*
X187045820Y-111790498D01*
X186935506Y-111849463D01*
X186838815Y-111928815D01*
X186759463Y-112025506D01*
X186700498Y-112135820D01*
X186690000Y-112170427D01*
X186679502Y-112135820D01*
X186620537Y-112025506D01*
X186541185Y-111928815D01*
X186444494Y-111849463D01*
X186334180Y-111790498D01*
X186214482Y-111754188D01*
X186090000Y-111741928D01*
X184952730Y-111741928D01*
X183951804Y-110741003D01*
X183928001Y-110711999D01*
X183812276Y-110617026D01*
X183680247Y-110546454D01*
X183536986Y-110502997D01*
X183425333Y-110492000D01*
X183425322Y-110492000D01*
X183388000Y-110488324D01*
X183350678Y-110492000D01*
X174558803Y-110492000D01*
X169727740Y-105660939D01*
X169703937Y-105631935D01*
X169588212Y-105536962D01*
X169456183Y-105466390D01*
X169312922Y-105422933D01*
X169201269Y-105411936D01*
X169201258Y-105411936D01*
X169163936Y-105408260D01*
X169126614Y-105411936D01*
X167987157Y-105411936D01*
X167883560Y-105369025D01*
X167722240Y-105336936D01*
X167557760Y-105336936D01*
X167396440Y-105369025D01*
X167244479Y-105431969D01*
X167107719Y-105523349D01*
X166991413Y-105639655D01*
X166900033Y-105776415D01*
X166837089Y-105928376D01*
X166805000Y-106089696D01*
X166805000Y-106254176D01*
X166837089Y-106415496D01*
X166860489Y-106471990D01*
X166837089Y-106528483D01*
X166805000Y-106689803D01*
X166805000Y-106854283D01*
X166837089Y-107015603D01*
X166860470Y-107072050D01*
X166837089Y-107128496D01*
X166820465Y-107212069D01*
X166385253Y-107212069D01*
X166347930Y-107208393D01*
X166310607Y-107212069D01*
X166310598Y-107212069D01*
X166198945Y-107223066D01*
X166055684Y-107266523D01*
X165923655Y-107337095D01*
X165923653Y-107337096D01*
X165923654Y-107337096D01*
X165836927Y-107408270D01*
X165836923Y-107408274D01*
X165807930Y-107432068D01*
X165784136Y-107461061D01*
X161968998Y-111276201D01*
X161940000Y-111299999D01*
X161916202Y-111328997D01*
X161916201Y-111328998D01*
X161845026Y-111415724D01*
X161774454Y-111547754D01*
X161755265Y-111611014D01*
X161730998Y-111691014D01*
X161725944Y-111742327D01*
X161605518Y-111754188D01*
X161485820Y-111790498D01*
X161375506Y-111849463D01*
X161278815Y-111928815D01*
X161199463Y-112025506D01*
X161140498Y-112135820D01*
X161104188Y-112255518D01*
X161091928Y-112380000D01*
X158948072Y-112380000D01*
X158935812Y-112255518D01*
X158899502Y-112135820D01*
X158840537Y-112025506D01*
X158761185Y-111928815D01*
X158664494Y-111849463D01*
X158554180Y-111790498D01*
X158434482Y-111754188D01*
X158310000Y-111741928D01*
X156810000Y-111741928D01*
X156685518Y-111754188D01*
X156565820Y-111790498D01*
X156455506Y-111849463D01*
X156358815Y-111928815D01*
X156279463Y-112025506D01*
X156220498Y-112135820D01*
X156210000Y-112170427D01*
X156199502Y-112135820D01*
X156140537Y-112025506D01*
X156061185Y-111928815D01*
X155964494Y-111849463D01*
X155854180Y-111790498D01*
X155734482Y-111754188D01*
X155610000Y-111741928D01*
X154110000Y-111741928D01*
X153985518Y-111754188D01*
X153865820Y-111790498D01*
X153755506Y-111849463D01*
X153658815Y-111928815D01*
X153579463Y-112025506D01*
X153520498Y-112135820D01*
X153484188Y-112255518D01*
X153482762Y-112270000D01*
X153476802Y-112270000D01*
X148080000Y-106873199D01*
X148080000Y-100423157D01*
X148122911Y-100319560D01*
X148155000Y-100158240D01*
X148155000Y-99993760D01*
X148154927Y-99993393D01*
X148255629Y-99993393D01*
X148255629Y-100508393D01*
X148267889Y-100632875D01*
X148304199Y-100752573D01*
X148363164Y-100862887D01*
X148442516Y-100959578D01*
X148539207Y-101038930D01*
X148573442Y-101057229D01*
X148544207Y-101072856D01*
X148447516Y-101152208D01*
X148368164Y-101248899D01*
X148309199Y-101359213D01*
X148272889Y-101478911D01*
X148260629Y-101603393D01*
X148260629Y-103103393D01*
X148272889Y-103227875D01*
X148309199Y-103347573D01*
X148368164Y-103457887D01*
X148447516Y-103554578D01*
X148544207Y-103633930D01*
X148654521Y-103692895D01*
X148774219Y-103729205D01*
X148898701Y-103741465D01*
X149730905Y-103741465D01*
X150469260Y-104479819D01*
X150495410Y-104511684D01*
X150622555Y-104616029D01*
X150720501Y-104668383D01*
X150762516Y-104719578D01*
X150859207Y-104798930D01*
X150969521Y-104857895D01*
X151089219Y-104894205D01*
X151213701Y-104906465D01*
X151613701Y-104906465D01*
X151738183Y-104894205D01*
X151738701Y-104894048D01*
X151739219Y-104894205D01*
X151863701Y-104906465D01*
X152263701Y-104906465D01*
X152388183Y-104894205D01*
X152507881Y-104857895D01*
X152618195Y-104798930D01*
X152714886Y-104719578D01*
X152794238Y-104622887D01*
X152853203Y-104512573D01*
X152889513Y-104392875D01*
X152901773Y-104268393D01*
X152901773Y-103568393D01*
X152898701Y-103537201D01*
X152898701Y-103514261D01*
X153275133Y-103137829D01*
X153306992Y-103111684D01*
X153338071Y-103073815D01*
X153340629Y-103070698D01*
X153340629Y-103123393D01*
X153352889Y-103247875D01*
X153389199Y-103367573D01*
X153448164Y-103477887D01*
X153527516Y-103574578D01*
X153624207Y-103653930D01*
X153734521Y-103712895D01*
X153854219Y-103749205D01*
X153978701Y-103761465D01*
X155228701Y-103761465D01*
X155353183Y-103749205D01*
X155472881Y-103712895D01*
X155583195Y-103653930D01*
X155679886Y-103574578D01*
X155759238Y-103477887D01*
X155818203Y-103367573D01*
X155854513Y-103247875D01*
X155861661Y-103175298D01*
X155949788Y-103148565D01*
X155978173Y-103133393D01*
X159854921Y-103133393D01*
X159824463Y-103170506D01*
X159765498Y-103280820D01*
X159729188Y-103400518D01*
X159716928Y-103525000D01*
X159716928Y-105075000D01*
X159729188Y-105199482D01*
X159765498Y-105319180D01*
X159824463Y-105429494D01*
X159903815Y-105526185D01*
X160000506Y-105605537D01*
X160110820Y-105664502D01*
X160230518Y-105700812D01*
X160355000Y-105713072D01*
X160955000Y-105713072D01*
X161079482Y-105700812D01*
X161199180Y-105664502D01*
X161290000Y-105615957D01*
X161380820Y-105664502D01*
X161500518Y-105700812D01*
X161625000Y-105713072D01*
X162225000Y-105713072D01*
X162349482Y-105700812D01*
X162469180Y-105664502D01*
X162560000Y-105615957D01*
X162650820Y-105664502D01*
X162770518Y-105700812D01*
X162895000Y-105713072D01*
X163495000Y-105713072D01*
X163619482Y-105700812D01*
X163739180Y-105664502D01*
X163849494Y-105605537D01*
X163946185Y-105526185D01*
X164025537Y-105429494D01*
X164084502Y-105319180D01*
X164120812Y-105199482D01*
X164133072Y-105075000D01*
X164133072Y-103525000D01*
X164120812Y-103400518D01*
X164084502Y-103280820D01*
X164025537Y-103170506D01*
X163946185Y-103073815D01*
X163910000Y-103044119D01*
X163910000Y-103032109D01*
X163913458Y-102996999D01*
X163910000Y-102961890D01*
X163910000Y-102961880D01*
X163903000Y-102890808D01*
X163903000Y-102868000D01*
X164023199Y-102868000D01*
X165806201Y-104651003D01*
X165829999Y-104680001D01*
X165858997Y-104703799D01*
X165945723Y-104774974D01*
X166073704Y-104843382D01*
X166077753Y-104845546D01*
X166221014Y-104889003D01*
X166332667Y-104900000D01*
X166332677Y-104900000D01*
X166370000Y-104903676D01*
X166407323Y-104900000D01*
X168852678Y-104900000D01*
X168890000Y-104903676D01*
X168927322Y-104900000D01*
X168927333Y-104900000D01*
X169038986Y-104889003D01*
X169182247Y-104845546D01*
X169314276Y-104774974D01*
X169430001Y-104680001D01*
X169453804Y-104650997D01*
X169946729Y-104158072D01*
X171010000Y-104158072D01*
X171134482Y-104145812D01*
X171254180Y-104109502D01*
X171364494Y-104050537D01*
X171461185Y-103971185D01*
X171481622Y-103946283D01*
X171539463Y-104054494D01*
X171618815Y-104151185D01*
X171715506Y-104230537D01*
X171825820Y-104289502D01*
X171945518Y-104325812D01*
X172070000Y-104338072D01*
X173370000Y-104338072D01*
X173494482Y-104325812D01*
X173614180Y-104289502D01*
X173724494Y-104230537D01*
X173821185Y-104151185D01*
X173900537Y-104054494D01*
X173959502Y-103944180D01*
X173995812Y-103824482D01*
X174008072Y-103700000D01*
X174008072Y-102200000D01*
X173995812Y-102075518D01*
X173959502Y-101955820D01*
X173900537Y-101845506D01*
X173821185Y-101748815D01*
X173724494Y-101669463D01*
X173614180Y-101610498D01*
X173579573Y-101600000D01*
X173614180Y-101589502D01*
X173724494Y-101530537D01*
X173780101Y-101484902D01*
X174117000Y-101821801D01*
X174117000Y-108585000D01*
X174119440Y-108609776D01*
X174126667Y-108633601D01*
X174138403Y-108655557D01*
X174154197Y-108674803D01*
X174173443Y-108690597D01*
X174195399Y-108702333D01*
X174219224Y-108709560D01*
X174244000Y-108712000D01*
X194515000Y-108712000D01*
X194515000Y-117221000D01*
X160020000Y-117221000D01*
X159995224Y-117223440D01*
X159971399Y-117230667D01*
X159949443Y-117242403D01*
X159930197Y-117258197D01*
X159914403Y-117277443D01*
X159902667Y-117299399D01*
X159895440Y-117323224D01*
X159893000Y-117348000D01*
X159893000Y-118311394D01*
X158951394Y-119253000D01*
X153976606Y-119253000D01*
X145669000Y-110945394D01*
X145669000Y-101600000D01*
X145666560Y-101575224D01*
X145659333Y-101551399D01*
X145647597Y-101529443D01*
X145631803Y-101510197D01*
X139535803Y-95414197D01*
X139516557Y-95398403D01*
X139494601Y-95386667D01*
X139470776Y-95379440D01*
X139446000Y-95377000D01*
X126492000Y-95377000D01*
X126467224Y-95379440D01*
X126443399Y-95386667D01*
X126421443Y-95398403D01*
X126402197Y-95414197D01*
X122025000Y-99791394D01*
X122025000Y-90940380D01*
X122112111Y-90998586D01*
G36*
X121793000Y-101092000D02*
G01*
X121795440Y-101116776D01*
X121802667Y-101140601D01*
X121814403Y-101162557D01*
X121830197Y-101181803D01*
X122301000Y-101652606D01*
X122301000Y-102309394D01*
X121431039Y-103179355D01*
X121423223Y-103100000D01*
X121433072Y-103000000D01*
X121433072Y-102700000D01*
X121423223Y-102600000D01*
X121433072Y-102500000D01*
X121433072Y-102200000D01*
X121423223Y-102100000D01*
X121433072Y-102000000D01*
X121433072Y-101700000D01*
X121423223Y-101600000D01*
X121433072Y-101500000D01*
X121433072Y-101200000D01*
X121423223Y-101100000D01*
X121432622Y-101004566D01*
X121469276Y-100984974D01*
X121585001Y-100890001D01*
X121608804Y-100860997D01*
X121775998Y-100693803D01*
X121793000Y-100679850D01*
X121793000Y-101092000D01*
X121793000Y-101092000D01*
G37*
X121793000Y-101092000D02*
X121795440Y-101116776D01*
X121802667Y-101140601D01*
X121814403Y-101162557D01*
X121830197Y-101181803D01*
X122301000Y-101652606D01*
X122301000Y-102309394D01*
X121431039Y-103179355D01*
X121423223Y-103100000D01*
X121433072Y-103000000D01*
X121433072Y-102700000D01*
X121423223Y-102600000D01*
X121433072Y-102500000D01*
X121433072Y-102200000D01*
X121423223Y-102100000D01*
X121433072Y-102000000D01*
X121433072Y-101700000D01*
X121423223Y-101600000D01*
X121433072Y-101500000D01*
X121433072Y-101200000D01*
X121423223Y-101100000D01*
X121432622Y-101004566D01*
X121469276Y-100984974D01*
X121585001Y-100890001D01*
X121608804Y-100860997D01*
X121775998Y-100693803D01*
X121793000Y-100679850D01*
X121793000Y-101092000D01*
G36*
X174117000Y-78107928D02*
G01*
X173141000Y-78107928D01*
X173109808Y-78111000D01*
X172561658Y-78111000D01*
X172554942Y-78105488D01*
X172403567Y-78024577D01*
X172239316Y-77974752D01*
X172068500Y-77957928D01*
X171593500Y-77957928D01*
X171422684Y-77974752D01*
X171258433Y-78024577D01*
X171107058Y-78105488D01*
X171100342Y-78111000D01*
X166038604Y-78111000D01*
X165988999Y-78106114D01*
X165939394Y-78111000D01*
X165939392Y-78111000D01*
X165791006Y-78125615D01*
X165600620Y-78183368D01*
X165425160Y-78277153D01*
X165271367Y-78403367D01*
X165239739Y-78441906D01*
X163975072Y-79706573D01*
X163975072Y-79039000D01*
X163962812Y-78914518D01*
X163926502Y-78794820D01*
X163867537Y-78684506D01*
X163788185Y-78587815D01*
X163691494Y-78508463D01*
X163581180Y-78449498D01*
X163522000Y-78431546D01*
X163522000Y-78403760D01*
X163489911Y-78242440D01*
X163426967Y-78090479D01*
X163335587Y-77953719D01*
X163219281Y-77837413D01*
X163082521Y-77746033D01*
X162930560Y-77683089D01*
X162769240Y-77651000D01*
X162604760Y-77651000D01*
X162443440Y-77683089D01*
X162291479Y-77746033D01*
X162154719Y-77837413D01*
X162038413Y-77953719D01*
X161947033Y-78090479D01*
X161884089Y-78242440D01*
X161852000Y-78403760D01*
X161852000Y-78431546D01*
X161792820Y-78449498D01*
X161682506Y-78508463D01*
X161585815Y-78587815D01*
X161512573Y-78677061D01*
X161481185Y-78638815D01*
X161384494Y-78559463D01*
X161274180Y-78500498D01*
X161154482Y-78464188D01*
X161030000Y-78451928D01*
X160280000Y-78451928D01*
X160155518Y-78464188D01*
X160035820Y-78500498D01*
X159925506Y-78559463D01*
X159828815Y-78638815D01*
X159749463Y-78735506D01*
X159690498Y-78845820D01*
X159685210Y-78863251D01*
X159646311Y-78867082D01*
X159488913Y-78914828D01*
X159343854Y-78992364D01*
X159216709Y-79096709D01*
X159190558Y-79128574D01*
X158188581Y-80130552D01*
X158188570Y-80130561D01*
X157667204Y-80651928D01*
X156710000Y-80651928D01*
X156585518Y-80664188D01*
X156465820Y-80700498D01*
X156355506Y-80759463D01*
X156258815Y-80838815D01*
X156179463Y-80935506D01*
X156120498Y-81045820D01*
X156084188Y-81165518D01*
X156071928Y-81290000D01*
X156071928Y-81997205D01*
X155648574Y-82420559D01*
X155616710Y-82446709D01*
X155547553Y-82530977D01*
X155512364Y-82573855D01*
X155434828Y-82718914D01*
X155387082Y-82876312D01*
X155370960Y-83040000D01*
X155375001Y-83081028D01*
X155375000Y-85399131D01*
X155067204Y-85706928D01*
X154110000Y-85706928D01*
X153985518Y-85719188D01*
X153865820Y-85755498D01*
X153755506Y-85814463D01*
X153658815Y-85893815D01*
X153579463Y-85990506D01*
X153520498Y-86100820D01*
X153484188Y-86220518D01*
X153471928Y-86345000D01*
X153471928Y-87645000D01*
X153484188Y-87769482D01*
X153520498Y-87889180D01*
X153579463Y-87999494D01*
X153658815Y-88096185D01*
X153755506Y-88175537D01*
X153865820Y-88234502D01*
X153966358Y-88265000D01*
X153865820Y-88295498D01*
X153755506Y-88354463D01*
X153658815Y-88433815D01*
X153579463Y-88530506D01*
X153520498Y-88640820D01*
X153484188Y-88760518D01*
X153471928Y-88885000D01*
X153471928Y-90185000D01*
X153484188Y-90309482D01*
X153520498Y-90429180D01*
X153579463Y-90539494D01*
X153658815Y-90636185D01*
X153755506Y-90715537D01*
X153865820Y-90774502D01*
X153985518Y-90810812D01*
X154058095Y-90817960D01*
X154084828Y-90906086D01*
X154162364Y-91051145D01*
X154266709Y-91178291D01*
X154298578Y-91204445D01*
X154886570Y-91792439D01*
X154886580Y-91792448D01*
X155648570Y-92554439D01*
X155648581Y-92554448D01*
X156645001Y-93550869D01*
X156645000Y-99101018D01*
X156645001Y-99101028D01*
X156645000Y-100176226D01*
X155662932Y-101158294D01*
X155583195Y-101092856D01*
X155472881Y-101033891D01*
X155353183Y-100997581D01*
X155228701Y-100985321D01*
X153978701Y-100985321D01*
X153854219Y-100997581D01*
X153734521Y-101033891D01*
X153624207Y-101092856D01*
X153527516Y-101172208D01*
X153518337Y-101183393D01*
X153323682Y-101183393D01*
X153268195Y-101137856D01*
X153157881Y-101078891D01*
X153040213Y-101043197D01*
X153048195Y-101038930D01*
X153144886Y-100959578D01*
X153224238Y-100862887D01*
X153283203Y-100752573D01*
X153319513Y-100632875D01*
X153331773Y-100508393D01*
X153331773Y-97808393D01*
X153319513Y-97683911D01*
X153283203Y-97564213D01*
X153224238Y-97453899D01*
X153144886Y-97357208D01*
X153048195Y-97277856D01*
X152937881Y-97218891D01*
X152818183Y-97182581D01*
X152693701Y-97170321D01*
X151493701Y-97170321D01*
X151369219Y-97182581D01*
X151249521Y-97218891D01*
X151139207Y-97277856D01*
X151042516Y-97357208D01*
X150963164Y-97453899D01*
X150904199Y-97564213D01*
X150867889Y-97683911D01*
X150855629Y-97808393D01*
X150855629Y-100089453D01*
X150731773Y-99965597D01*
X150731773Y-97808393D01*
X150719513Y-97683911D01*
X150683203Y-97564213D01*
X150624238Y-97453899D01*
X150544886Y-97357208D01*
X150448195Y-97277856D01*
X150337881Y-97218891D01*
X150218183Y-97182581D01*
X150093701Y-97170321D01*
X148893701Y-97170321D01*
X148769219Y-97182581D01*
X148649521Y-97218891D01*
X148539207Y-97277856D01*
X148442516Y-97357208D01*
X148363164Y-97453899D01*
X148304199Y-97564213D01*
X148267889Y-97683911D01*
X148255629Y-97808393D01*
X148255629Y-98323393D01*
X146494261Y-98323393D01*
X141081446Y-92910579D01*
X141055291Y-92878709D01*
X140928146Y-92774364D01*
X140783087Y-92696828D01*
X140625689Y-92649082D01*
X140503019Y-92637000D01*
X140503018Y-92637000D01*
X140462000Y-92632960D01*
X140420982Y-92637000D01*
X128107868Y-92637000D01*
X125548779Y-90077911D01*
X130129000Y-90077911D01*
X130129000Y-90262089D01*
X130164932Y-90442729D01*
X130235414Y-90612889D01*
X130337738Y-90766028D01*
X130467972Y-90896262D01*
X130621111Y-90998586D01*
X130791271Y-91069068D01*
X130971911Y-91105000D01*
X131156089Y-91105000D01*
X131316545Y-91073083D01*
X132448469Y-92205008D01*
X132472263Y-92234001D01*
X132501256Y-92257795D01*
X132501260Y-92257799D01*
X132560191Y-92306162D01*
X132587988Y-92328974D01*
X132720017Y-92399546D01*
X132863278Y-92443003D01*
X132974931Y-92454000D01*
X132974940Y-92454000D01*
X133012263Y-92457676D01*
X133049586Y-92454000D01*
X142924199Y-92454000D01*
X145596201Y-95126003D01*
X145619999Y-95155001D01*
X145735724Y-95249974D01*
X145772378Y-95269566D01*
X145784188Y-95389482D01*
X145820498Y-95509180D01*
X145879463Y-95619494D01*
X145958815Y-95716185D01*
X146055506Y-95795537D01*
X146165820Y-95854502D01*
X146285518Y-95890812D01*
X146410000Y-95903072D01*
X146490327Y-95903072D01*
X146485000Y-95929850D01*
X146485000Y-96094330D01*
X146517089Y-96255650D01*
X146580033Y-96407611D01*
X146671413Y-96544371D01*
X146787719Y-96660677D01*
X146924479Y-96752057D01*
X147076440Y-96815001D01*
X147237760Y-96847090D01*
X147402240Y-96847090D01*
X147563560Y-96815001D01*
X147715521Y-96752057D01*
X147852281Y-96660677D01*
X147968587Y-96544371D01*
X148059967Y-96407611D01*
X148122911Y-96255650D01*
X148155000Y-96094330D01*
X148155000Y-95929850D01*
X148140818Y-95858555D01*
X148154180Y-95854502D01*
X148264494Y-95795537D01*
X148361185Y-95716185D01*
X148440537Y-95619494D01*
X148499502Y-95509180D01*
X148510000Y-95474573D01*
X148520498Y-95509180D01*
X148579463Y-95619494D01*
X148658815Y-95716185D01*
X148755506Y-95795537D01*
X148865820Y-95854502D01*
X148985518Y-95890812D01*
X149110000Y-95903072D01*
X150610000Y-95903072D01*
X150734482Y-95890812D01*
X150854180Y-95854502D01*
X150964494Y-95795537D01*
X151061185Y-95716185D01*
X151130000Y-95632333D01*
X151198815Y-95716185D01*
X151295506Y-95795537D01*
X151405820Y-95854502D01*
X151525518Y-95890812D01*
X151650000Y-95903072D01*
X153150000Y-95903072D01*
X153274482Y-95890812D01*
X153394180Y-95854502D01*
X153504494Y-95795537D01*
X153601185Y-95716185D01*
X153680537Y-95619494D01*
X153739502Y-95509180D01*
X153775812Y-95389482D01*
X153788072Y-95265000D01*
X153788072Y-93965000D01*
X153775812Y-93840518D01*
X153739502Y-93720820D01*
X153680537Y-93610506D01*
X153601185Y-93513815D01*
X153504494Y-93434463D01*
X153394180Y-93375498D01*
X153274482Y-93339188D01*
X153150000Y-93326928D01*
X151952502Y-93326928D01*
X151932911Y-93228440D01*
X151869967Y-93076479D01*
X151778587Y-92939719D01*
X151662281Y-92823413D01*
X151525521Y-92732033D01*
X151373560Y-92669089D01*
X151212240Y-92637000D01*
X151047760Y-92637000D01*
X150886440Y-92669089D01*
X150734479Y-92732033D01*
X150597719Y-92823413D01*
X150481413Y-92939719D01*
X150390033Y-93076479D01*
X150327089Y-93228440D01*
X150307498Y-93326928D01*
X149110000Y-93326928D01*
X148985518Y-93339188D01*
X148865820Y-93375498D01*
X148755506Y-93434463D01*
X148658815Y-93513815D01*
X148579463Y-93610506D01*
X148520498Y-93720820D01*
X148510000Y-93755427D01*
X148499502Y-93720820D01*
X148440537Y-93610506D01*
X148361185Y-93513815D01*
X148264494Y-93434463D01*
X148154180Y-93375498D01*
X148034482Y-93339188D01*
X147910000Y-93326928D01*
X146410000Y-93326928D01*
X146285518Y-93339188D01*
X146165820Y-93375498D01*
X146055506Y-93434463D01*
X146054824Y-93435022D01*
X143802804Y-91183003D01*
X143779001Y-91153999D01*
X143663276Y-91059026D01*
X143531247Y-90988454D01*
X143387986Y-90944997D01*
X143276333Y-90934000D01*
X143276322Y-90934000D01*
X143239000Y-90930324D01*
X143201678Y-90934000D01*
X133327067Y-90934000D01*
X132052067Y-89659002D01*
X132028265Y-89629999D01*
X131912540Y-89535026D01*
X131780511Y-89464454D01*
X131637250Y-89420997D01*
X131624048Y-89419697D01*
X131506889Y-89341414D01*
X131336729Y-89270932D01*
X131156089Y-89235000D01*
X130971911Y-89235000D01*
X130791271Y-89270932D01*
X130621111Y-89341414D01*
X130467972Y-89443738D01*
X130337738Y-89573972D01*
X130235414Y-89727111D01*
X130164932Y-89897271D01*
X130129000Y-90077911D01*
X125548779Y-90077911D01*
X125295000Y-89824133D01*
X125295000Y-84165867D01*
X125386745Y-84074122D01*
X125374188Y-84115518D01*
X125361928Y-84240000D01*
X125361928Y-85940000D01*
X125374188Y-86064482D01*
X125410498Y-86184180D01*
X125469463Y-86294494D01*
X125548815Y-86391185D01*
X125645506Y-86470537D01*
X125755820Y-86529502D01*
X125875518Y-86565812D01*
X126000000Y-86578072D01*
X128000000Y-86578072D01*
X128124482Y-86565812D01*
X128244180Y-86529502D01*
X128354494Y-86470537D01*
X128451185Y-86391185D01*
X128530537Y-86294494D01*
X128589502Y-86184180D01*
X128625812Y-86064482D01*
X128638072Y-85940000D01*
X128638072Y-84526730D01*
X130051008Y-83113795D01*
X130080001Y-83090001D01*
X130103795Y-83061008D01*
X130103799Y-83061004D01*
X130168433Y-82982246D01*
X130174974Y-82974276D01*
X130245546Y-82842247D01*
X130289003Y-82698986D01*
X130300000Y-82587333D01*
X130300000Y-82587324D01*
X130303676Y-82550001D01*
X130300000Y-82512678D01*
X130300000Y-80689760D01*
X153597000Y-80689760D01*
X153597000Y-80854240D01*
X153629089Y-81015560D01*
X153692033Y-81167521D01*
X153783413Y-81304281D01*
X153899719Y-81420587D01*
X154036479Y-81511967D01*
X154188440Y-81574911D01*
X154349760Y-81607000D01*
X154514240Y-81607000D01*
X154675560Y-81574911D01*
X154827521Y-81511967D01*
X154964281Y-81420587D01*
X155080587Y-81304281D01*
X155171967Y-81167521D01*
X155234911Y-81015560D01*
X155267000Y-80854240D01*
X155267000Y-80689760D01*
X155234911Y-80528440D01*
X155171967Y-80376479D01*
X155147000Y-80339113D01*
X155147000Y-80052161D01*
X155360832Y-79838329D01*
X155553957Y-79967371D01*
X155806011Y-80071775D01*
X156073589Y-80125000D01*
X156346411Y-80125000D01*
X156613989Y-80071775D01*
X156866043Y-79967371D01*
X157092886Y-79815799D01*
X157285799Y-79622886D01*
X157437371Y-79396043D01*
X157541775Y-79143989D01*
X157595000Y-78876411D01*
X157595000Y-78603589D01*
X157541775Y-78336011D01*
X157437371Y-78083957D01*
X157285799Y-77857114D01*
X157092886Y-77664201D01*
X156866043Y-77512629D01*
X156613989Y-77408225D01*
X156346411Y-77355000D01*
X156073589Y-77355000D01*
X155806011Y-77408225D01*
X155553957Y-77512629D01*
X155327114Y-77664201D01*
X155134201Y-77857114D01*
X154982629Y-78083957D01*
X154904669Y-78272169D01*
X153951255Y-79225584D01*
X153923973Y-79247974D01*
X153834623Y-79356847D01*
X153768230Y-79481059D01*
X153727346Y-79615837D01*
X153717000Y-79720881D01*
X153717000Y-79720890D01*
X153713542Y-79756000D01*
X153717000Y-79791110D01*
X153717001Y-80339112D01*
X153692033Y-80376479D01*
X153629089Y-80528440D01*
X153597000Y-80689760D01*
X130300000Y-80689760D01*
X130300000Y-80047333D01*
X130303677Y-80010000D01*
X130289003Y-79861014D01*
X130245546Y-79717753D01*
X130174974Y-79585724D01*
X130080001Y-79469999D01*
X129964276Y-79375026D01*
X129832247Y-79304454D01*
X129688986Y-79260997D01*
X129577333Y-79250000D01*
X129540000Y-79246323D01*
X129502667Y-79250000D01*
X118173396Y-79250000D01*
X118418266Y-78994000D01*
X129540000Y-78994000D01*
X129564776Y-78991560D01*
X129588601Y-78984333D01*
X129608676Y-78973830D01*
X131355300Y-77851000D01*
X154940000Y-77851000D01*
X154964776Y-77848560D01*
X154988601Y-77841333D01*
X155010557Y-77829597D01*
X155029803Y-77813803D01*
X156770606Y-76073000D01*
X174117000Y-76073000D01*
X174117000Y-78107928D01*
X174117000Y-78107928D01*
G37*
X174117000Y-78107928D02*
X173141000Y-78107928D01*
X173109808Y-78111000D01*
X172561658Y-78111000D01*
X172554942Y-78105488D01*
X172403567Y-78024577D01*
X172239316Y-77974752D01*
X172068500Y-77957928D01*
X171593500Y-77957928D01*
X171422684Y-77974752D01*
X171258433Y-78024577D01*
X171107058Y-78105488D01*
X171100342Y-78111000D01*
X166038604Y-78111000D01*
X165988999Y-78106114D01*
X165939394Y-78111000D01*
X165939392Y-78111000D01*
X165791006Y-78125615D01*
X165600620Y-78183368D01*
X165425160Y-78277153D01*
X165271367Y-78403367D01*
X165239739Y-78441906D01*
X163975072Y-79706573D01*
X163975072Y-79039000D01*
X163962812Y-78914518D01*
X163926502Y-78794820D01*
X163867537Y-78684506D01*
X163788185Y-78587815D01*
X163691494Y-78508463D01*
X163581180Y-78449498D01*
X163522000Y-78431546D01*
X163522000Y-78403760D01*
X163489911Y-78242440D01*
X163426967Y-78090479D01*
X163335587Y-77953719D01*
X163219281Y-77837413D01*
X163082521Y-77746033D01*
X162930560Y-77683089D01*
X162769240Y-77651000D01*
X162604760Y-77651000D01*
X162443440Y-77683089D01*
X162291479Y-77746033D01*
X162154719Y-77837413D01*
X162038413Y-77953719D01*
X161947033Y-78090479D01*
X161884089Y-78242440D01*
X161852000Y-78403760D01*
X161852000Y-78431546D01*
X161792820Y-78449498D01*
X161682506Y-78508463D01*
X161585815Y-78587815D01*
X161512573Y-78677061D01*
X161481185Y-78638815D01*
X161384494Y-78559463D01*
X161274180Y-78500498D01*
X161154482Y-78464188D01*
X161030000Y-78451928D01*
X160280000Y-78451928D01*
X160155518Y-78464188D01*
X160035820Y-78500498D01*
X159925506Y-78559463D01*
X159828815Y-78638815D01*
X159749463Y-78735506D01*
X159690498Y-78845820D01*
X159685210Y-78863251D01*
X159646311Y-78867082D01*
X159488913Y-78914828D01*
X159343854Y-78992364D01*
X159216709Y-79096709D01*
X159190558Y-79128574D01*
X158188581Y-80130552D01*
X158188570Y-80130561D01*
X157667204Y-80651928D01*
X156710000Y-80651928D01*
X156585518Y-80664188D01*
X156465820Y-80700498D01*
X156355506Y-80759463D01*
X156258815Y-80838815D01*
X156179463Y-80935506D01*
X156120498Y-81045820D01*
X156084188Y-81165518D01*
X156071928Y-81290000D01*
X156071928Y-81997205D01*
X155648574Y-82420559D01*
X155616710Y-82446709D01*
X155547553Y-82530977D01*
X155512364Y-82573855D01*
X155434828Y-82718914D01*
X155387082Y-82876312D01*
X155370960Y-83040000D01*
X155375001Y-83081028D01*
X155375000Y-85399131D01*
X155067204Y-85706928D01*
X154110000Y-85706928D01*
X153985518Y-85719188D01*
X153865820Y-85755498D01*
X153755506Y-85814463D01*
X153658815Y-85893815D01*
X153579463Y-85990506D01*
X153520498Y-86100820D01*
X153484188Y-86220518D01*
X153471928Y-86345000D01*
X153471928Y-87645000D01*
X153484188Y-87769482D01*
X153520498Y-87889180D01*
X153579463Y-87999494D01*
X153658815Y-88096185D01*
X153755506Y-88175537D01*
X153865820Y-88234502D01*
X153966358Y-88265000D01*
X153865820Y-88295498D01*
X153755506Y-88354463D01*
X153658815Y-88433815D01*
X153579463Y-88530506D01*
X153520498Y-88640820D01*
X153484188Y-88760518D01*
X153471928Y-88885000D01*
X153471928Y-90185000D01*
X153484188Y-90309482D01*
X153520498Y-90429180D01*
X153579463Y-90539494D01*
X153658815Y-90636185D01*
X153755506Y-90715537D01*
X153865820Y-90774502D01*
X153985518Y-90810812D01*
X154058095Y-90817960D01*
X154084828Y-90906086D01*
X154162364Y-91051145D01*
X154266709Y-91178291D01*
X154298578Y-91204445D01*
X154886570Y-91792439D01*
X154886580Y-91792448D01*
X155648570Y-92554439D01*
X155648581Y-92554448D01*
X156645001Y-93550869D01*
X156645000Y-99101018D01*
X156645001Y-99101028D01*
X156645000Y-100176226D01*
X155662932Y-101158294D01*
X155583195Y-101092856D01*
X155472881Y-101033891D01*
X155353183Y-100997581D01*
X155228701Y-100985321D01*
X153978701Y-100985321D01*
X153854219Y-100997581D01*
X153734521Y-101033891D01*
X153624207Y-101092856D01*
X153527516Y-101172208D01*
X153518337Y-101183393D01*
X153323682Y-101183393D01*
X153268195Y-101137856D01*
X153157881Y-101078891D01*
X153040213Y-101043197D01*
X153048195Y-101038930D01*
X153144886Y-100959578D01*
X153224238Y-100862887D01*
X153283203Y-100752573D01*
X153319513Y-100632875D01*
X153331773Y-100508393D01*
X153331773Y-97808393D01*
X153319513Y-97683911D01*
X153283203Y-97564213D01*
X153224238Y-97453899D01*
X153144886Y-97357208D01*
X153048195Y-97277856D01*
X152937881Y-97218891D01*
X152818183Y-97182581D01*
X152693701Y-97170321D01*
X151493701Y-97170321D01*
X151369219Y-97182581D01*
X151249521Y-97218891D01*
X151139207Y-97277856D01*
X151042516Y-97357208D01*
X150963164Y-97453899D01*
X150904199Y-97564213D01*
X150867889Y-97683911D01*
X150855629Y-97808393D01*
X150855629Y-100089453D01*
X150731773Y-99965597D01*
X150731773Y-97808393D01*
X150719513Y-97683911D01*
X150683203Y-97564213D01*
X150624238Y-97453899D01*
X150544886Y-97357208D01*
X150448195Y-97277856D01*
X150337881Y-97218891D01*
X150218183Y-97182581D01*
X150093701Y-97170321D01*
X148893701Y-97170321D01*
X148769219Y-97182581D01*
X148649521Y-97218891D01*
X148539207Y-97277856D01*
X148442516Y-97357208D01*
X148363164Y-97453899D01*
X148304199Y-97564213D01*
X148267889Y-97683911D01*
X148255629Y-97808393D01*
X148255629Y-98323393D01*
X146494261Y-98323393D01*
X141081446Y-92910579D01*
X141055291Y-92878709D01*
X140928146Y-92774364D01*
X140783087Y-92696828D01*
X140625689Y-92649082D01*
X140503019Y-92637000D01*
X140503018Y-92637000D01*
X140462000Y-92632960D01*
X140420982Y-92637000D01*
X128107868Y-92637000D01*
X125548779Y-90077911D01*
X130129000Y-90077911D01*
X130129000Y-90262089D01*
X130164932Y-90442729D01*
X130235414Y-90612889D01*
X130337738Y-90766028D01*
X130467972Y-90896262D01*
X130621111Y-90998586D01*
X130791271Y-91069068D01*
X130971911Y-91105000D01*
X131156089Y-91105000D01*
X131316545Y-91073083D01*
X132448469Y-92205008D01*
X132472263Y-92234001D01*
X132501256Y-92257795D01*
X132501260Y-92257799D01*
X132560191Y-92306162D01*
X132587988Y-92328974D01*
X132720017Y-92399546D01*
X132863278Y-92443003D01*
X132974931Y-92454000D01*
X132974940Y-92454000D01*
X133012263Y-92457676D01*
X133049586Y-92454000D01*
X142924199Y-92454000D01*
X145596201Y-95126003D01*
X145619999Y-95155001D01*
X145735724Y-95249974D01*
X145772378Y-95269566D01*
X145784188Y-95389482D01*
X145820498Y-95509180D01*
X145879463Y-95619494D01*
X145958815Y-95716185D01*
X146055506Y-95795537D01*
X146165820Y-95854502D01*
X146285518Y-95890812D01*
X146410000Y-95903072D01*
X146490327Y-95903072D01*
X146485000Y-95929850D01*
X146485000Y-96094330D01*
X146517089Y-96255650D01*
X146580033Y-96407611D01*
X146671413Y-96544371D01*
X146787719Y-96660677D01*
X146924479Y-96752057D01*
X147076440Y-96815001D01*
X147237760Y-96847090D01*
X147402240Y-96847090D01*
X147563560Y-96815001D01*
X147715521Y-96752057D01*
X147852281Y-96660677D01*
X147968587Y-96544371D01*
X148059967Y-96407611D01*
X148122911Y-96255650D01*
X148155000Y-96094330D01*
X148155000Y-95929850D01*
X148140818Y-95858555D01*
X148154180Y-95854502D01*
X148264494Y-95795537D01*
X148361185Y-95716185D01*
X148440537Y-95619494D01*
X148499502Y-95509180D01*
X148510000Y-95474573D01*
X148520498Y-95509180D01*
X148579463Y-95619494D01*
X148658815Y-95716185D01*
X148755506Y-95795537D01*
X148865820Y-95854502D01*
X148985518Y-95890812D01*
X149110000Y-95903072D01*
X150610000Y-95903072D01*
X150734482Y-95890812D01*
X150854180Y-95854502D01*
X150964494Y-95795537D01*
X151061185Y-95716185D01*
X151130000Y-95632333D01*
X151198815Y-95716185D01*
X151295506Y-95795537D01*
X151405820Y-95854502D01*
X151525518Y-95890812D01*
X151650000Y-95903072D01*
X153150000Y-95903072D01*
X153274482Y-95890812D01*
X153394180Y-95854502D01*
X153504494Y-95795537D01*
X153601185Y-95716185D01*
X153680537Y-95619494D01*
X153739502Y-95509180D01*
X153775812Y-95389482D01*
X153788072Y-95265000D01*
X153788072Y-93965000D01*
X153775812Y-93840518D01*
X153739502Y-93720820D01*
X153680537Y-93610506D01*
X153601185Y-93513815D01*
X153504494Y-93434463D01*
X153394180Y-93375498D01*
X153274482Y-93339188D01*
X153150000Y-93326928D01*
X151952502Y-93326928D01*
X151932911Y-93228440D01*
X151869967Y-93076479D01*
X151778587Y-92939719D01*
X151662281Y-92823413D01*
X151525521Y-92732033D01*
X151373560Y-92669089D01*
X151212240Y-92637000D01*
X151047760Y-92637000D01*
X150886440Y-92669089D01*
X150734479Y-92732033D01*
X150597719Y-92823413D01*
X150481413Y-92939719D01*
X150390033Y-93076479D01*
X150327089Y-93228440D01*
X150307498Y-93326928D01*
X149110000Y-93326928D01*
X148985518Y-93339188D01*
X148865820Y-93375498D01*
X148755506Y-93434463D01*
X148658815Y-93513815D01*
X148579463Y-93610506D01*
X148520498Y-93720820D01*
X148510000Y-93755427D01*
X148499502Y-93720820D01*
X148440537Y-93610506D01*
X148361185Y-93513815D01*
X148264494Y-93434463D01*
X148154180Y-93375498D01*
X148034482Y-93339188D01*
X147910000Y-93326928D01*
X146410000Y-93326928D01*
X146285518Y-93339188D01*
X146165820Y-93375498D01*
X146055506Y-93434463D01*
X146054824Y-93435022D01*
X143802804Y-91183003D01*
X143779001Y-91153999D01*
X143663276Y-91059026D01*
X143531247Y-90988454D01*
X143387986Y-90944997D01*
X143276333Y-90934000D01*
X143276322Y-90934000D01*
X143239000Y-90930324D01*
X143201678Y-90934000D01*
X133327067Y-90934000D01*
X132052067Y-89659002D01*
X132028265Y-89629999D01*
X131912540Y-89535026D01*
X131780511Y-89464454D01*
X131637250Y-89420997D01*
X131624048Y-89419697D01*
X131506889Y-89341414D01*
X131336729Y-89270932D01*
X131156089Y-89235000D01*
X130971911Y-89235000D01*
X130791271Y-89270932D01*
X130621111Y-89341414D01*
X130467972Y-89443738D01*
X130337738Y-89573972D01*
X130235414Y-89727111D01*
X130164932Y-89897271D01*
X130129000Y-90077911D01*
X125548779Y-90077911D01*
X125295000Y-89824133D01*
X125295000Y-84165867D01*
X125386745Y-84074122D01*
X125374188Y-84115518D01*
X125361928Y-84240000D01*
X125361928Y-85940000D01*
X125374188Y-86064482D01*
X125410498Y-86184180D01*
X125469463Y-86294494D01*
X125548815Y-86391185D01*
X125645506Y-86470537D01*
X125755820Y-86529502D01*
X125875518Y-86565812D01*
X126000000Y-86578072D01*
X128000000Y-86578072D01*
X128124482Y-86565812D01*
X128244180Y-86529502D01*
X128354494Y-86470537D01*
X128451185Y-86391185D01*
X128530537Y-86294494D01*
X128589502Y-86184180D01*
X128625812Y-86064482D01*
X128638072Y-85940000D01*
X128638072Y-84526730D01*
X130051008Y-83113795D01*
X130080001Y-83090001D01*
X130103795Y-83061008D01*
X130103799Y-83061004D01*
X130168433Y-82982246D01*
X130174974Y-82974276D01*
X130245546Y-82842247D01*
X130289003Y-82698986D01*
X130300000Y-82587333D01*
X130300000Y-82587324D01*
X130303676Y-82550001D01*
X130300000Y-82512678D01*
X130300000Y-80689760D01*
X153597000Y-80689760D01*
X153597000Y-80854240D01*
X153629089Y-81015560D01*
X153692033Y-81167521D01*
X153783413Y-81304281D01*
X153899719Y-81420587D01*
X154036479Y-81511967D01*
X154188440Y-81574911D01*
X154349760Y-81607000D01*
X154514240Y-81607000D01*
X154675560Y-81574911D01*
X154827521Y-81511967D01*
X154964281Y-81420587D01*
X155080587Y-81304281D01*
X155171967Y-81167521D01*
X155234911Y-81015560D01*
X155267000Y-80854240D01*
X155267000Y-80689760D01*
X155234911Y-80528440D01*
X155171967Y-80376479D01*
X155147000Y-80339113D01*
X155147000Y-80052161D01*
X155360832Y-79838329D01*
X155553957Y-79967371D01*
X155806011Y-80071775D01*
X156073589Y-80125000D01*
X156346411Y-80125000D01*
X156613989Y-80071775D01*
X156866043Y-79967371D01*
X157092886Y-79815799D01*
X157285799Y-79622886D01*
X157437371Y-79396043D01*
X157541775Y-79143989D01*
X157595000Y-78876411D01*
X157595000Y-78603589D01*
X157541775Y-78336011D01*
X157437371Y-78083957D01*
X157285799Y-77857114D01*
X157092886Y-77664201D01*
X156866043Y-77512629D01*
X156613989Y-77408225D01*
X156346411Y-77355000D01*
X156073589Y-77355000D01*
X155806011Y-77408225D01*
X155553957Y-77512629D01*
X155327114Y-77664201D01*
X155134201Y-77857114D01*
X154982629Y-78083957D01*
X154904669Y-78272169D01*
X153951255Y-79225584D01*
X153923973Y-79247974D01*
X153834623Y-79356847D01*
X153768230Y-79481059D01*
X153727346Y-79615837D01*
X153717000Y-79720881D01*
X153717000Y-79720890D01*
X153713542Y-79756000D01*
X153717000Y-79791110D01*
X153717001Y-80339112D01*
X153692033Y-80376479D01*
X153629089Y-80528440D01*
X153597000Y-80689760D01*
X130300000Y-80689760D01*
X130300000Y-80047333D01*
X130303677Y-80010000D01*
X130289003Y-79861014D01*
X130245546Y-79717753D01*
X130174974Y-79585724D01*
X130080001Y-79469999D01*
X129964276Y-79375026D01*
X129832247Y-79304454D01*
X129688986Y-79260997D01*
X129577333Y-79250000D01*
X129540000Y-79246323D01*
X129502667Y-79250000D01*
X118173396Y-79250000D01*
X118418266Y-78994000D01*
X129540000Y-78994000D01*
X129564776Y-78991560D01*
X129588601Y-78984333D01*
X129608676Y-78973830D01*
X131355300Y-77851000D01*
X154940000Y-77851000D01*
X154964776Y-77848560D01*
X154988601Y-77841333D01*
X155010557Y-77829597D01*
X155029803Y-77813803D01*
X156770606Y-76073000D01*
X174117000Y-76073000D01*
X174117000Y-78107928D01*
G36*
X171107058Y-80136512D02*
G01*
X171258433Y-80217423D01*
X171422684Y-80267248D01*
X171593500Y-80284072D01*
X172068500Y-80284072D01*
X172239316Y-80267248D01*
X172403567Y-80217423D01*
X172554942Y-80136512D01*
X172561658Y-80131000D01*
X173109808Y-80131000D01*
X173141000Y-80134072D01*
X174117000Y-80134072D01*
X174117000Y-89410000D01*
X171035157Y-89410000D01*
X170931560Y-89367089D01*
X170770240Y-89335000D01*
X170605760Y-89335000D01*
X170444440Y-89367089D01*
X170292479Y-89430033D01*
X170155719Y-89521413D01*
X170039413Y-89637719D01*
X169948033Y-89774479D01*
X169885089Y-89926440D01*
X169853000Y-90087760D01*
X169853000Y-90252240D01*
X169885089Y-90413560D01*
X169908468Y-90470002D01*
X169885089Y-90526443D01*
X169853000Y-90687763D01*
X169853000Y-90852243D01*
X169885089Y-91013563D01*
X169948033Y-91165524D01*
X170039413Y-91302284D01*
X170155719Y-91418590D01*
X170292479Y-91509970D01*
X170444440Y-91572914D01*
X170605760Y-91605003D01*
X170770240Y-91605003D01*
X170931560Y-91572914D01*
X171035157Y-91530003D01*
X173640202Y-91530003D01*
X174117000Y-92006801D01*
X174117000Y-99674709D01*
X174044276Y-99615026D01*
X174008072Y-99595674D01*
X174008072Y-99500000D01*
X173995812Y-99375518D01*
X173959502Y-99255820D01*
X173900537Y-99145506D01*
X173821185Y-99048815D01*
X173724494Y-98969463D01*
X173614180Y-98910498D01*
X173494482Y-98874188D01*
X173370000Y-98861928D01*
X172070000Y-98861928D01*
X171945518Y-98874188D01*
X171825820Y-98910498D01*
X171715506Y-98969463D01*
X171618815Y-99048815D01*
X171539463Y-99145506D01*
X171480498Y-99255820D01*
X171447707Y-99363919D01*
X171440537Y-99350506D01*
X171361185Y-99253815D01*
X171264494Y-99174463D01*
X171154180Y-99115498D01*
X171034482Y-99079188D01*
X170910000Y-99066928D01*
X169410000Y-99066928D01*
X169285518Y-99079188D01*
X169165820Y-99115498D01*
X169055506Y-99174463D01*
X168958815Y-99253815D01*
X168910000Y-99313296D01*
X168861185Y-99253815D01*
X168764494Y-99174463D01*
X168654180Y-99115498D01*
X168534482Y-99079188D01*
X168420000Y-99067913D01*
X168420000Y-91497322D01*
X168423676Y-91459999D01*
X168420000Y-91422676D01*
X168420000Y-91422667D01*
X168409003Y-91311014D01*
X168365546Y-91167753D01*
X168294974Y-91035724D01*
X168273075Y-91009040D01*
X168223799Y-90948996D01*
X168223795Y-90948992D01*
X168200001Y-90919999D01*
X168171009Y-90896206D01*
X167149529Y-89874727D01*
X167235518Y-89900812D01*
X167360000Y-89913072D01*
X168560000Y-89913072D01*
X168684482Y-89900812D01*
X168804180Y-89864502D01*
X168914494Y-89805537D01*
X169011185Y-89726185D01*
X169090537Y-89629494D01*
X169149502Y-89519180D01*
X169185812Y-89399482D01*
X169198072Y-89275000D01*
X169198072Y-88525000D01*
X169185812Y-88400518D01*
X169149502Y-88280820D01*
X169090537Y-88170506D01*
X169011185Y-88073815D01*
X168914494Y-87994463D01*
X168804180Y-87935498D01*
X168684482Y-87899188D01*
X168570000Y-87887913D01*
X168570000Y-87807163D01*
X168634482Y-87800812D01*
X168754180Y-87764502D01*
X168864494Y-87705537D01*
X168961185Y-87626185D01*
X169040537Y-87529494D01*
X169099502Y-87419180D01*
X169135812Y-87299482D01*
X169148072Y-87175000D01*
X169148072Y-86089453D01*
X169185518Y-86100812D01*
X169310000Y-86113072D01*
X170710000Y-86113072D01*
X170834482Y-86100812D01*
X170954180Y-86064502D01*
X171064494Y-86005537D01*
X171161185Y-85926185D01*
X171240537Y-85829494D01*
X171248817Y-85814003D01*
X171258815Y-85826185D01*
X171355506Y-85905537D01*
X171465820Y-85964502D01*
X171585518Y-86000812D01*
X171710000Y-86013072D01*
X172460000Y-86013072D01*
X172584482Y-86000812D01*
X172704180Y-85964502D01*
X172814494Y-85905537D01*
X172911185Y-85826185D01*
X172990537Y-85729494D01*
X173049502Y-85619180D01*
X173085812Y-85499482D01*
X173098072Y-85375000D01*
X173098072Y-84175000D01*
X173085812Y-84050518D01*
X173049502Y-83930820D01*
X172990537Y-83820506D01*
X172911185Y-83723815D01*
X172814494Y-83644463D01*
X172704180Y-83585498D01*
X172584482Y-83549188D01*
X172460000Y-83536928D01*
X171710000Y-83536928D01*
X171585518Y-83549188D01*
X171465820Y-83585498D01*
X171355506Y-83644463D01*
X171258815Y-83723815D01*
X171179463Y-83820506D01*
X171171183Y-83835997D01*
X171161185Y-83823815D01*
X171064494Y-83744463D01*
X170954180Y-83685498D01*
X170834482Y-83649188D01*
X170761000Y-83641951D01*
X170761000Y-83483760D01*
X170736477Y-83360477D01*
X170859760Y-83385000D01*
X171024240Y-83385000D01*
X171185560Y-83352911D01*
X171337521Y-83289967D01*
X171474281Y-83198587D01*
X171590587Y-83082281D01*
X171681967Y-82945521D01*
X171744911Y-82793560D01*
X171777000Y-82632240D01*
X171777000Y-82467760D01*
X171744911Y-82306440D01*
X171681967Y-82154479D01*
X171590587Y-82017719D01*
X171474281Y-81901413D01*
X171337521Y-81810033D01*
X171185560Y-81747089D01*
X171024240Y-81715000D01*
X170859760Y-81715000D01*
X170698440Y-81747089D01*
X170655199Y-81765000D01*
X170624985Y-81765000D01*
X170591185Y-81723815D01*
X170494494Y-81644463D01*
X170384180Y-81585498D01*
X170264482Y-81549188D01*
X170140000Y-81536928D01*
X168940000Y-81536928D01*
X168815518Y-81549188D01*
X168695820Y-81585498D01*
X168590000Y-81642061D01*
X168484180Y-81585498D01*
X168364482Y-81549188D01*
X168355000Y-81548254D01*
X168355000Y-81442109D01*
X168358458Y-81406999D01*
X168355000Y-81371889D01*
X168355000Y-81371880D01*
X168344654Y-81266836D01*
X168303770Y-81132058D01*
X168265790Y-81061003D01*
X168237376Y-81007844D01*
X168170414Y-80926251D01*
X168170407Y-80926244D01*
X168148026Y-80898973D01*
X168120755Y-80876592D01*
X167662420Y-80418259D01*
X167640027Y-80390973D01*
X167531154Y-80301623D01*
X167406942Y-80235230D01*
X167272164Y-80194346D01*
X167167120Y-80184000D01*
X167167110Y-80184000D01*
X167132000Y-80180542D01*
X167096890Y-80184000D01*
X166354355Y-80184000D01*
X166407355Y-80131000D01*
X171100342Y-80131000D01*
X171107058Y-80136512D01*
X171107058Y-80136512D01*
G37*
X171107058Y-80136512D02*
X171258433Y-80217423D01*
X171422684Y-80267248D01*
X171593500Y-80284072D01*
X172068500Y-80284072D01*
X172239316Y-80267248D01*
X172403567Y-80217423D01*
X172554942Y-80136512D01*
X172561658Y-80131000D01*
X173109808Y-80131000D01*
X173141000Y-80134072D01*
X174117000Y-80134072D01*
X174117000Y-89410000D01*
X171035157Y-89410000D01*
X170931560Y-89367089D01*
X170770240Y-89335000D01*
X170605760Y-89335000D01*
X170444440Y-89367089D01*
X170292479Y-89430033D01*
X170155719Y-89521413D01*
X170039413Y-89637719D01*
X169948033Y-89774479D01*
X169885089Y-89926440D01*
X169853000Y-90087760D01*
X169853000Y-90252240D01*
X169885089Y-90413560D01*
X169908468Y-90470002D01*
X169885089Y-90526443D01*
X169853000Y-90687763D01*
X169853000Y-90852243D01*
X169885089Y-91013563D01*
X169948033Y-91165524D01*
X170039413Y-91302284D01*
X170155719Y-91418590D01*
X170292479Y-91509970D01*
X170444440Y-91572914D01*
X170605760Y-91605003D01*
X170770240Y-91605003D01*
X170931560Y-91572914D01*
X171035157Y-91530003D01*
X173640202Y-91530003D01*
X174117000Y-92006801D01*
X174117000Y-99674709D01*
X174044276Y-99615026D01*
X174008072Y-99595674D01*
X174008072Y-99500000D01*
X173995812Y-99375518D01*
X173959502Y-99255820D01*
X173900537Y-99145506D01*
X173821185Y-99048815D01*
X173724494Y-98969463D01*
X173614180Y-98910498D01*
X173494482Y-98874188D01*
X173370000Y-98861928D01*
X172070000Y-98861928D01*
X171945518Y-98874188D01*
X171825820Y-98910498D01*
X171715506Y-98969463D01*
X171618815Y-99048815D01*
X171539463Y-99145506D01*
X171480498Y-99255820D01*
X171447707Y-99363919D01*
X171440537Y-99350506D01*
X171361185Y-99253815D01*
X171264494Y-99174463D01*
X171154180Y-99115498D01*
X171034482Y-99079188D01*
X170910000Y-99066928D01*
X169410000Y-99066928D01*
X169285518Y-99079188D01*
X169165820Y-99115498D01*
X169055506Y-99174463D01*
X168958815Y-99253815D01*
X168910000Y-99313296D01*
X168861185Y-99253815D01*
X168764494Y-99174463D01*
X168654180Y-99115498D01*
X168534482Y-99079188D01*
X168420000Y-99067913D01*
X168420000Y-91497322D01*
X168423676Y-91459999D01*
X168420000Y-91422676D01*
X168420000Y-91422667D01*
X168409003Y-91311014D01*
X168365546Y-91167753D01*
X168294974Y-91035724D01*
X168273075Y-91009040D01*
X168223799Y-90948996D01*
X168223795Y-90948992D01*
X168200001Y-90919999D01*
X168171009Y-90896206D01*
X167149529Y-89874727D01*
X167235518Y-89900812D01*
X167360000Y-89913072D01*
X168560000Y-89913072D01*
X168684482Y-89900812D01*
X168804180Y-89864502D01*
X168914494Y-89805537D01*
X169011185Y-89726185D01*
X169090537Y-89629494D01*
X169149502Y-89519180D01*
X169185812Y-89399482D01*
X169198072Y-89275000D01*
X169198072Y-88525000D01*
X169185812Y-88400518D01*
X169149502Y-88280820D01*
X169090537Y-88170506D01*
X169011185Y-88073815D01*
X168914494Y-87994463D01*
X168804180Y-87935498D01*
X168684482Y-87899188D01*
X168570000Y-87887913D01*
X168570000Y-87807163D01*
X168634482Y-87800812D01*
X168754180Y-87764502D01*
X168864494Y-87705537D01*
X168961185Y-87626185D01*
X169040537Y-87529494D01*
X169099502Y-87419180D01*
X169135812Y-87299482D01*
X169148072Y-87175000D01*
X169148072Y-86089453D01*
X169185518Y-86100812D01*
X169310000Y-86113072D01*
X170710000Y-86113072D01*
X170834482Y-86100812D01*
X170954180Y-86064502D01*
X171064494Y-86005537D01*
X171161185Y-85926185D01*
X171240537Y-85829494D01*
X171248817Y-85814003D01*
X171258815Y-85826185D01*
X171355506Y-85905537D01*
X171465820Y-85964502D01*
X171585518Y-86000812D01*
X171710000Y-86013072D01*
X172460000Y-86013072D01*
X172584482Y-86000812D01*
X172704180Y-85964502D01*
X172814494Y-85905537D01*
X172911185Y-85826185D01*
X172990537Y-85729494D01*
X173049502Y-85619180D01*
X173085812Y-85499482D01*
X173098072Y-85375000D01*
X173098072Y-84175000D01*
X173085812Y-84050518D01*
X173049502Y-83930820D01*
X172990537Y-83820506D01*
X172911185Y-83723815D01*
X172814494Y-83644463D01*
X172704180Y-83585498D01*
X172584482Y-83549188D01*
X172460000Y-83536928D01*
X171710000Y-83536928D01*
X171585518Y-83549188D01*
X171465820Y-83585498D01*
X171355506Y-83644463D01*
X171258815Y-83723815D01*
X171179463Y-83820506D01*
X171171183Y-83835997D01*
X171161185Y-83823815D01*
X171064494Y-83744463D01*
X170954180Y-83685498D01*
X170834482Y-83649188D01*
X170761000Y-83641951D01*
X170761000Y-83483760D01*
X170736477Y-83360477D01*
X170859760Y-83385000D01*
X171024240Y-83385000D01*
X171185560Y-83352911D01*
X171337521Y-83289967D01*
X171474281Y-83198587D01*
X171590587Y-83082281D01*
X171681967Y-82945521D01*
X171744911Y-82793560D01*
X171777000Y-82632240D01*
X171777000Y-82467760D01*
X171744911Y-82306440D01*
X171681967Y-82154479D01*
X171590587Y-82017719D01*
X171474281Y-81901413D01*
X171337521Y-81810033D01*
X171185560Y-81747089D01*
X171024240Y-81715000D01*
X170859760Y-81715000D01*
X170698440Y-81747089D01*
X170655199Y-81765000D01*
X170624985Y-81765000D01*
X170591185Y-81723815D01*
X170494494Y-81644463D01*
X170384180Y-81585498D01*
X170264482Y-81549188D01*
X170140000Y-81536928D01*
X168940000Y-81536928D01*
X168815518Y-81549188D01*
X168695820Y-81585498D01*
X168590000Y-81642061D01*
X168484180Y-81585498D01*
X168364482Y-81549188D01*
X168355000Y-81548254D01*
X168355000Y-81442109D01*
X168358458Y-81406999D01*
X168355000Y-81371889D01*
X168355000Y-81371880D01*
X168344654Y-81266836D01*
X168303770Y-81132058D01*
X168265790Y-81061003D01*
X168237376Y-81007844D01*
X168170414Y-80926251D01*
X168170407Y-80926244D01*
X168148026Y-80898973D01*
X168120755Y-80876592D01*
X167662420Y-80418259D01*
X167640027Y-80390973D01*
X167531154Y-80301623D01*
X167406942Y-80235230D01*
X167272164Y-80194346D01*
X167167120Y-80184000D01*
X167167110Y-80184000D01*
X167132000Y-80180542D01*
X167096890Y-80184000D01*
X166354355Y-80184000D01*
X166407355Y-80131000D01*
X171100342Y-80131000D01*
X171107058Y-80136512D01*
G36*
X117274159Y-97867993D02*
G01*
X117370266Y-98047797D01*
X117499604Y-98205396D01*
X117657203Y-98334734D01*
X117837007Y-98430841D01*
X117975464Y-98472842D01*
X117943815Y-98498815D01*
X117864463Y-98595506D01*
X117850756Y-98621150D01*
X117092606Y-97863000D01*
X117176240Y-97863000D01*
X117267158Y-97844915D01*
X117274159Y-97867993D01*
X117274159Y-97867993D01*
G37*
X117274159Y-97867993D02*
X117370266Y-98047797D01*
X117499604Y-98205396D01*
X117657203Y-98334734D01*
X117837007Y-98430841D01*
X117975464Y-98472842D01*
X117943815Y-98498815D01*
X117864463Y-98595506D01*
X117850756Y-98621150D01*
X117092606Y-97863000D01*
X117176240Y-97863000D01*
X117267158Y-97844915D01*
X117274159Y-97867993D01*
G36*
X116751198Y-90681002D02*
G01*
X116774997Y-90710001D01*
X116803995Y-90733799D01*
X116890721Y-90804974D01*
X117007953Y-90867636D01*
X117022751Y-90875546D01*
X117166012Y-90919003D01*
X117277665Y-90930000D01*
X117277674Y-90930000D01*
X117314997Y-90933676D01*
X117352320Y-90930000D01*
X120505001Y-90930000D01*
X120505000Y-97362355D01*
X120396964Y-97254319D01*
X120239731Y-97149259D01*
X120065022Y-97076892D01*
X119879552Y-97040000D01*
X119778733Y-97040000D01*
X119699734Y-96892203D01*
X119570396Y-96734604D01*
X119412797Y-96605266D01*
X119232993Y-96509159D01*
X119037895Y-96449976D01*
X118885838Y-96435000D01*
X118568421Y-96435000D01*
X118517276Y-96393026D01*
X118385247Y-96322454D01*
X118241986Y-96278997D01*
X118130333Y-96268000D01*
X118130322Y-96268000D01*
X118093000Y-96264324D01*
X118055678Y-96268000D01*
X117441157Y-96268000D01*
X117337560Y-96225089D01*
X117176240Y-96193000D01*
X117011760Y-96193000D01*
X116850440Y-96225089D01*
X116698479Y-96288033D01*
X116561719Y-96379413D01*
X116445413Y-96495719D01*
X116354033Y-96632479D01*
X116291089Y-96784440D01*
X116259000Y-96945760D01*
X116259000Y-97029394D01*
X113919000Y-94689394D01*
X113919000Y-87848803D01*
X116751198Y-90681002D01*
X116751198Y-90681002D01*
G37*
X116751198Y-90681002D02*
X116774997Y-90710001D01*
X116803995Y-90733799D01*
X116890721Y-90804974D01*
X117007953Y-90867636D01*
X117022751Y-90875546D01*
X117166012Y-90919003D01*
X117277665Y-90930000D01*
X117277674Y-90930000D01*
X117314997Y-90933676D01*
X117352320Y-90930000D01*
X120505001Y-90930000D01*
X120505000Y-97362355D01*
X120396964Y-97254319D01*
X120239731Y-97149259D01*
X120065022Y-97076892D01*
X119879552Y-97040000D01*
X119778733Y-97040000D01*
X119699734Y-96892203D01*
X119570396Y-96734604D01*
X119412797Y-96605266D01*
X119232993Y-96509159D01*
X119037895Y-96449976D01*
X118885838Y-96435000D01*
X118568421Y-96435000D01*
X118517276Y-96393026D01*
X118385247Y-96322454D01*
X118241986Y-96278997D01*
X118130333Y-96268000D01*
X118130322Y-96268000D01*
X118093000Y-96264324D01*
X118055678Y-96268000D01*
X117441157Y-96268000D01*
X117337560Y-96225089D01*
X117176240Y-96193000D01*
X117011760Y-96193000D01*
X116850440Y-96225089D01*
X116698479Y-96288033D01*
X116561719Y-96379413D01*
X116445413Y-96495719D01*
X116354033Y-96632479D01*
X116291089Y-96784440D01*
X116259000Y-96945760D01*
X116259000Y-97029394D01*
X113919000Y-94689394D01*
X113919000Y-87848803D01*
X116751198Y-90681002D01*
G36*
X119340000Y-87545001D02*
G01*
X119368998Y-87568799D01*
X119876928Y-88076729D01*
X119876928Y-88890000D01*
X119889188Y-89014482D01*
X119925498Y-89134180D01*
X119984463Y-89244494D01*
X120063815Y-89341185D01*
X120147667Y-89410000D01*
X117629800Y-89410000D01*
X116047871Y-87828072D01*
X116220000Y-87828072D01*
X116344482Y-87815812D01*
X116464180Y-87779502D01*
X116510019Y-87755000D01*
X118707678Y-87755000D01*
X118745000Y-87758676D01*
X118782322Y-87755000D01*
X118782333Y-87755000D01*
X118893986Y-87744003D01*
X119037247Y-87700546D01*
X119169276Y-87629974D01*
X119285001Y-87535001D01*
X119308397Y-87506493D01*
X119340000Y-87545001D01*
X119340000Y-87545001D01*
G37*
X119340000Y-87545001D02*
X119368998Y-87568799D01*
X119876928Y-88076729D01*
X119876928Y-88890000D01*
X119889188Y-89014482D01*
X119925498Y-89134180D01*
X119984463Y-89244494D01*
X120063815Y-89341185D01*
X120147667Y-89410000D01*
X117629800Y-89410000D01*
X116047871Y-87828072D01*
X116220000Y-87828072D01*
X116344482Y-87815812D01*
X116464180Y-87779502D01*
X116510019Y-87755000D01*
X118707678Y-87755000D01*
X118745000Y-87758676D01*
X118782322Y-87755000D01*
X118782333Y-87755000D01*
X118893986Y-87744003D01*
X119037247Y-87700546D01*
X119169276Y-87629974D01*
X119285001Y-87535001D01*
X119308397Y-87506493D01*
X119340000Y-87545001D01*
G36*
X163560518Y-83665812D02*
G01*
X163685000Y-83678072D01*
X163935000Y-83678072D01*
X163975962Y-83674038D01*
X163971928Y-83715000D01*
X163971928Y-83965000D01*
X163984188Y-84089482D01*
X163984345Y-84090000D01*
X163984188Y-84090518D01*
X163971928Y-84215000D01*
X163971928Y-84465000D01*
X163984188Y-84589482D01*
X163984345Y-84590000D01*
X163984188Y-84590518D01*
X163971928Y-84715000D01*
X163971928Y-84965000D01*
X163984188Y-85089482D01*
X163984345Y-85090000D01*
X163984188Y-85090518D01*
X163971928Y-85215000D01*
X163971928Y-85465000D01*
X163984188Y-85589482D01*
X163984345Y-85590000D01*
X163984188Y-85590518D01*
X163971928Y-85715000D01*
X163971928Y-85965000D01*
X163984188Y-86089482D01*
X163984345Y-86090000D01*
X163984188Y-86090518D01*
X163971928Y-86215000D01*
X163971928Y-86465000D01*
X163975962Y-86505962D01*
X163935000Y-86501928D01*
X163685000Y-86501928D01*
X163560518Y-86514188D01*
X163560000Y-86514345D01*
X163559482Y-86514188D01*
X163435000Y-86501928D01*
X163185000Y-86501928D01*
X163060518Y-86514188D01*
X163060000Y-86514345D01*
X163059482Y-86514188D01*
X162935000Y-86501928D01*
X162685000Y-86501928D01*
X162560518Y-86514188D01*
X162560000Y-86514345D01*
X162559482Y-86514188D01*
X162435000Y-86501928D01*
X162185000Y-86501928D01*
X162060518Y-86514188D01*
X162060000Y-86514345D01*
X162059482Y-86514188D01*
X161935000Y-86501928D01*
X161685000Y-86501928D01*
X161560518Y-86514188D01*
X161560000Y-86514345D01*
X161559482Y-86514188D01*
X161435000Y-86501928D01*
X161185000Y-86501928D01*
X161144038Y-86505962D01*
X161148072Y-86465000D01*
X161148072Y-86215000D01*
X161135812Y-86090518D01*
X161135655Y-86090000D01*
X161135812Y-86089482D01*
X161148072Y-85965000D01*
X161148072Y-85715000D01*
X161135812Y-85590518D01*
X161135655Y-85590000D01*
X161135812Y-85589482D01*
X161148072Y-85465000D01*
X161148072Y-85215000D01*
X161135812Y-85090518D01*
X161135655Y-85090000D01*
X161135812Y-85089482D01*
X161148072Y-84965000D01*
X161148072Y-84715000D01*
X161135812Y-84590518D01*
X161135655Y-84590000D01*
X161135812Y-84589482D01*
X161148072Y-84465000D01*
X161148072Y-84215000D01*
X161135812Y-84090518D01*
X161135655Y-84090000D01*
X161135812Y-84089482D01*
X161148072Y-83965000D01*
X161148072Y-83715000D01*
X161144038Y-83674038D01*
X161185000Y-83678072D01*
X161435000Y-83678072D01*
X161559482Y-83665812D01*
X161560000Y-83665655D01*
X161560518Y-83665812D01*
X161685000Y-83678072D01*
X161935000Y-83678072D01*
X162059482Y-83665812D01*
X162060000Y-83665655D01*
X162060518Y-83665812D01*
X162185000Y-83678072D01*
X162435000Y-83678072D01*
X162559482Y-83665812D01*
X162560000Y-83665655D01*
X162560518Y-83665812D01*
X162685000Y-83678072D01*
X162935000Y-83678072D01*
X163059482Y-83665812D01*
X163060000Y-83665655D01*
X163060518Y-83665812D01*
X163185000Y-83678072D01*
X163435000Y-83678072D01*
X163559482Y-83665812D01*
X163560000Y-83665655D01*
X163560518Y-83665812D01*
X163560518Y-83665812D01*
G37*
X163560518Y-83665812D02*
X163685000Y-83678072D01*
X163935000Y-83678072D01*
X163975962Y-83674038D01*
X163971928Y-83715000D01*
X163971928Y-83965000D01*
X163984188Y-84089482D01*
X163984345Y-84090000D01*
X163984188Y-84090518D01*
X163971928Y-84215000D01*
X163971928Y-84465000D01*
X163984188Y-84589482D01*
X163984345Y-84590000D01*
X163984188Y-84590518D01*
X163971928Y-84715000D01*
X163971928Y-84965000D01*
X163984188Y-85089482D01*
X163984345Y-85090000D01*
X163984188Y-85090518D01*
X163971928Y-85215000D01*
X163971928Y-85465000D01*
X163984188Y-85589482D01*
X163984345Y-85590000D01*
X163984188Y-85590518D01*
X163971928Y-85715000D01*
X163971928Y-85965000D01*
X163984188Y-86089482D01*
X163984345Y-86090000D01*
X163984188Y-86090518D01*
X163971928Y-86215000D01*
X163971928Y-86465000D01*
X163975962Y-86505962D01*
X163935000Y-86501928D01*
X163685000Y-86501928D01*
X163560518Y-86514188D01*
X163560000Y-86514345D01*
X163559482Y-86514188D01*
X163435000Y-86501928D01*
X163185000Y-86501928D01*
X163060518Y-86514188D01*
X163060000Y-86514345D01*
X163059482Y-86514188D01*
X162935000Y-86501928D01*
X162685000Y-86501928D01*
X162560518Y-86514188D01*
X162560000Y-86514345D01*
X162559482Y-86514188D01*
X162435000Y-86501928D01*
X162185000Y-86501928D01*
X162060518Y-86514188D01*
X162060000Y-86514345D01*
X162059482Y-86514188D01*
X161935000Y-86501928D01*
X161685000Y-86501928D01*
X161560518Y-86514188D01*
X161560000Y-86514345D01*
X161559482Y-86514188D01*
X161435000Y-86501928D01*
X161185000Y-86501928D01*
X161144038Y-86505962D01*
X161148072Y-86465000D01*
X161148072Y-86215000D01*
X161135812Y-86090518D01*
X161135655Y-86090000D01*
X161135812Y-86089482D01*
X161148072Y-85965000D01*
X161148072Y-85715000D01*
X161135812Y-85590518D01*
X161135655Y-85590000D01*
X161135812Y-85589482D01*
X161148072Y-85465000D01*
X161148072Y-85215000D01*
X161135812Y-85090518D01*
X161135655Y-85090000D01*
X161135812Y-85089482D01*
X161148072Y-84965000D01*
X161148072Y-84715000D01*
X161135812Y-84590518D01*
X161135655Y-84590000D01*
X161135812Y-84589482D01*
X161148072Y-84465000D01*
X161148072Y-84215000D01*
X161135812Y-84090518D01*
X161135655Y-84090000D01*
X161135812Y-84089482D01*
X161148072Y-83965000D01*
X161148072Y-83715000D01*
X161144038Y-83674038D01*
X161185000Y-83678072D01*
X161435000Y-83678072D01*
X161559482Y-83665812D01*
X161560000Y-83665655D01*
X161560518Y-83665812D01*
X161685000Y-83678072D01*
X161935000Y-83678072D01*
X162059482Y-83665812D01*
X162060000Y-83665655D01*
X162060518Y-83665812D01*
X162185000Y-83678072D01*
X162435000Y-83678072D01*
X162559482Y-83665812D01*
X162560000Y-83665655D01*
X162560518Y-83665812D01*
X162685000Y-83678072D01*
X162935000Y-83678072D01*
X163059482Y-83665812D01*
X163060000Y-83665655D01*
X163060518Y-83665812D01*
X163185000Y-83678072D01*
X163435000Y-83678072D01*
X163559482Y-83665812D01*
X163560000Y-83665655D01*
X163560518Y-83665812D01*
G36*
X168671928Y-85360547D02*
G01*
X168634482Y-85349188D01*
X168510000Y-85336928D01*
X167171516Y-85336928D01*
X167172911Y-85333560D01*
X167205000Y-85172240D01*
X167205000Y-85007760D01*
X167172911Y-84846440D01*
X167109967Y-84694479D01*
X167018587Y-84557719D01*
X166902281Y-84441413D01*
X166801678Y-84374192D01*
X166815546Y-84360324D01*
X168298658Y-84360324D01*
X168339676Y-84364364D01*
X168380694Y-84360324D01*
X168380695Y-84360324D01*
X168503365Y-84348242D01*
X168660763Y-84300496D01*
X168671928Y-84294528D01*
X168671928Y-85360547D01*
X168671928Y-85360547D01*
G37*
X168671928Y-85360547D02*
X168634482Y-85349188D01*
X168510000Y-85336928D01*
X167171516Y-85336928D01*
X167172911Y-85333560D01*
X167205000Y-85172240D01*
X167205000Y-85007760D01*
X167172911Y-84846440D01*
X167109967Y-84694479D01*
X167018587Y-84557719D01*
X166902281Y-84441413D01*
X166801678Y-84374192D01*
X166815546Y-84360324D01*
X168298658Y-84360324D01*
X168339676Y-84364364D01*
X168380694Y-84360324D01*
X168380695Y-84360324D01*
X168503365Y-84348242D01*
X168660763Y-84300496D01*
X168671928Y-84294528D01*
X168671928Y-85360547D01*
G36*
X116080000Y-82512677D02*
G01*
X116076324Y-82550000D01*
X116080000Y-82587322D01*
X116080000Y-82587332D01*
X116090997Y-82698985D01*
X116126795Y-82816997D01*
X116134454Y-82842246D01*
X116205026Y-82974276D01*
X116231865Y-83006979D01*
X116299999Y-83090001D01*
X116329002Y-83113803D01*
X116410756Y-83195557D01*
X116346573Y-83315635D01*
X116329197Y-83372918D01*
X116303117Y-83458895D01*
X116294525Y-83546126D01*
X116288443Y-83607881D01*
X116292120Y-83645213D01*
X116292120Y-84330000D01*
X114972323Y-84330000D01*
X114934998Y-84326324D01*
X114897673Y-84330000D01*
X114897665Y-84330000D01*
X114786012Y-84340997D01*
X114642751Y-84384454D01*
X114510722Y-84455026D01*
X114394997Y-84549999D01*
X114371198Y-84578998D01*
X113919000Y-85031197D01*
X113919000Y-84380606D01*
X114479606Y-83820000D01*
X115570000Y-83820000D01*
X115594776Y-83817560D01*
X115618601Y-83810333D01*
X115640557Y-83798597D01*
X115659803Y-83782803D01*
X115675597Y-83763557D01*
X115687333Y-83741601D01*
X115694560Y-83717776D01*
X115697000Y-83693000D01*
X115697000Y-81838960D01*
X116080001Y-81438550D01*
X116080000Y-82512677D01*
X116080000Y-82512677D01*
G37*
X116080000Y-82512677D02*
X116076324Y-82550000D01*
X116080000Y-82587322D01*
X116080000Y-82587332D01*
X116090997Y-82698985D01*
X116126795Y-82816997D01*
X116134454Y-82842246D01*
X116205026Y-82974276D01*
X116231865Y-83006979D01*
X116299999Y-83090001D01*
X116329002Y-83113803D01*
X116410756Y-83195557D01*
X116346573Y-83315635D01*
X116329197Y-83372918D01*
X116303117Y-83458895D01*
X116294525Y-83546126D01*
X116288443Y-83607881D01*
X116292120Y-83645213D01*
X116292120Y-84330000D01*
X114972323Y-84330000D01*
X114934998Y-84326324D01*
X114897673Y-84330000D01*
X114897665Y-84330000D01*
X114786012Y-84340997D01*
X114642751Y-84384454D01*
X114510722Y-84455026D01*
X114394997Y-84549999D01*
X114371198Y-84578998D01*
X113919000Y-85031197D01*
X113919000Y-84380606D01*
X114479606Y-83820000D01*
X115570000Y-83820000D01*
X115594776Y-83817560D01*
X115618601Y-83810333D01*
X115640557Y-83798597D01*
X115659803Y-83782803D01*
X115675597Y-83763557D01*
X115687333Y-83741601D01*
X115694560Y-83717776D01*
X115697000Y-83693000D01*
X115697000Y-81838960D01*
X116080001Y-81438550D01*
X116080000Y-82512677D01*
D12*
G36*
X125425000Y-114050000D02*
G01*
X125425961Y-114059755D01*
X125428806Y-114069134D01*
X125433427Y-114077779D01*
X125439645Y-114085355D01*
X125447221Y-114091573D01*
X125455866Y-114096194D01*
X125465245Y-114099039D01*
X125475000Y-114100000D01*
X125484755Y-114099039D01*
X125494134Y-114096194D01*
X125502779Y-114091573D01*
X125510162Y-114085548D01*
X127725000Y-111894784D01*
X127725000Y-116375000D01*
X120850000Y-116375000D01*
X120850000Y-114071030D01*
X123075000Y-111893880D01*
X123075000Y-114050000D01*
X123075961Y-114059755D01*
X123078806Y-114069134D01*
X123083427Y-114077779D01*
X123089645Y-114085355D01*
X123097221Y-114091573D01*
X123105866Y-114096194D01*
X123115245Y-114099039D01*
X123125000Y-114100000D01*
X123134755Y-114099039D01*
X123144134Y-114096194D01*
X123152779Y-114091573D01*
X123159777Y-114085924D01*
X125425000Y-111892995D01*
X125425000Y-114050000D01*
X125425000Y-114050000D01*
G37*
X125425000Y-114050000D02*
X125425961Y-114059755D01*
X125428806Y-114069134D01*
X125433427Y-114077779D01*
X125439645Y-114085355D01*
X125447221Y-114091573D01*
X125455866Y-114096194D01*
X125465245Y-114099039D01*
X125475000Y-114100000D01*
X125484755Y-114099039D01*
X125494134Y-114096194D01*
X125502779Y-114091573D01*
X125510162Y-114085548D01*
X127725000Y-111894784D01*
X127725000Y-116375000D01*
X120850000Y-116375000D01*
X120850000Y-114071030D01*
X123075000Y-111893880D01*
X123075000Y-114050000D01*
X123075961Y-114059755D01*
X123078806Y-114069134D01*
X123083427Y-114077779D01*
X123089645Y-114085355D01*
X123097221Y-114091573D01*
X123105866Y-114096194D01*
X123115245Y-114099039D01*
X123125000Y-114100000D01*
X123134755Y-114099039D01*
X123144134Y-114096194D01*
X123152779Y-114091573D01*
X123159777Y-114085924D01*
X125425000Y-111892995D01*
X125425000Y-114050000D01*
G36*
X118304290Y-114025000D02*
G01*
X116400000Y-114025000D01*
X116390245Y-114025961D01*
X116380866Y-114028806D01*
X116372221Y-114033427D01*
X116364645Y-114039645D01*
X116358427Y-114047221D01*
X116353806Y-114055866D01*
X116350961Y-114065245D01*
X116350000Y-114075000D01*
X116350000Y-116375000D01*
X116175000Y-116375000D01*
X116175000Y-111895710D01*
X118304290Y-114025000D01*
X118304290Y-114025000D01*
G37*
X118304290Y-114025000D02*
X116400000Y-114025000D01*
X116390245Y-114025961D01*
X116380866Y-114028806D01*
X116372221Y-114033427D01*
X116364645Y-114039645D01*
X116358427Y-114047221D01*
X116353806Y-114055866D01*
X116350961Y-114065245D01*
X116350000Y-114075000D01*
X116350000Y-116375000D01*
X116175000Y-116375000D01*
X116175000Y-111895710D01*
X118304290Y-114025000D01*
D40*
G36*
X181011406Y-94196004D02*
G01*
X181030511Y-94211968D01*
X181052363Y-94223898D01*
X181076122Y-94231336D01*
X181102000Y-94234000D01*
X194515000Y-94234000D01*
X194515000Y-109601000D01*
X186851468Y-109601000D01*
X186775146Y-109538364D01*
X186630087Y-109460828D01*
X186472689Y-109413082D01*
X186350019Y-109401000D01*
X175097868Y-109401000D01*
X174117000Y-108420132D01*
X174117000Y-101821801D01*
X175770000Y-103474803D01*
X175770001Y-104239892D01*
X175770000Y-104239902D01*
X175770000Y-104319493D01*
X175637118Y-104374534D01*
X175328382Y-104580825D01*
X175065825Y-104843382D01*
X174859534Y-105152118D01*
X174717439Y-105495166D01*
X174645000Y-105859344D01*
X174645000Y-106230656D01*
X174717439Y-106594834D01*
X174859534Y-106937882D01*
X175065825Y-107246618D01*
X175328382Y-107509175D01*
X175637118Y-107715466D01*
X175980166Y-107857561D01*
X176344344Y-107930000D01*
X176715656Y-107930000D01*
X177079834Y-107857561D01*
X177422882Y-107715466D01*
X177731618Y-107509175D01*
X177994175Y-107246618D01*
X178200466Y-106937882D01*
X178342561Y-106594834D01*
X178415000Y-106230656D01*
X178415000Y-105859344D01*
X178342561Y-105495166D01*
X178200466Y-105152118D01*
X177994175Y-104843382D01*
X177731618Y-104580825D01*
X177422882Y-104374534D01*
X177290000Y-104319493D01*
X177290000Y-103197322D01*
X177293676Y-103159999D01*
X177290000Y-103122676D01*
X177290000Y-103122667D01*
X177279003Y-103011014D01*
X177235546Y-102867753D01*
X177164974Y-102735724D01*
X177149581Y-102716968D01*
X177093799Y-102648996D01*
X177093795Y-102648992D01*
X177070001Y-102619999D01*
X177041009Y-102596206D01*
X174183804Y-99739003D01*
X174160001Y-99709999D01*
X174117000Y-99674709D01*
X174117000Y-96969344D01*
X174645000Y-96969344D01*
X174645000Y-97340656D01*
X174717439Y-97704834D01*
X174859534Y-98047882D01*
X175065825Y-98356618D01*
X175328382Y-98619175D01*
X175637118Y-98825466D01*
X175980166Y-98967561D01*
X176344344Y-99040000D01*
X176715656Y-99040000D01*
X177079834Y-98967561D01*
X177422882Y-98825466D01*
X177731618Y-98619175D01*
X177994175Y-98356618D01*
X178200466Y-98047882D01*
X178342561Y-97704834D01*
X178415000Y-97340656D01*
X178415000Y-96969344D01*
X178342561Y-96605166D01*
X178200466Y-96262118D01*
X177994175Y-95953382D01*
X177731618Y-95690825D01*
X177422882Y-95484534D01*
X177079834Y-95342439D01*
X176715656Y-95270000D01*
X176344344Y-95270000D01*
X175980166Y-95342439D01*
X175637118Y-95484534D01*
X175328382Y-95690825D01*
X175065825Y-95953382D01*
X174859534Y-96262118D01*
X174717439Y-96605166D01*
X174645000Y-96969344D01*
X174117000Y-96969344D01*
X174117000Y-92006801D01*
X184660000Y-102549802D01*
X184660001Y-104239892D01*
X184660000Y-104239902D01*
X184660000Y-104319493D01*
X184527118Y-104374534D01*
X184218382Y-104580825D01*
X183955825Y-104843382D01*
X183749534Y-105152118D01*
X183607439Y-105495166D01*
X183535000Y-105859344D01*
X183535000Y-106230656D01*
X183607439Y-106594834D01*
X183749534Y-106937882D01*
X183955825Y-107246618D01*
X184218382Y-107509175D01*
X184527118Y-107715466D01*
X184870166Y-107857561D01*
X185234344Y-107930000D01*
X185605656Y-107930000D01*
X185969834Y-107857561D01*
X186312882Y-107715466D01*
X186621618Y-107509175D01*
X186884175Y-107246618D01*
X187090466Y-106937882D01*
X187232561Y-106594834D01*
X187305000Y-106230656D01*
X187305000Y-105859344D01*
X188615000Y-105859344D01*
X188615000Y-106230656D01*
X188687439Y-106594834D01*
X188829534Y-106937882D01*
X189035825Y-107246618D01*
X189298382Y-107509175D01*
X189607118Y-107715466D01*
X189950166Y-107857561D01*
X190314344Y-107930000D01*
X190685656Y-107930000D01*
X191049834Y-107857561D01*
X191392882Y-107715466D01*
X191701618Y-107509175D01*
X191964175Y-107246618D01*
X192170466Y-106937882D01*
X192312561Y-106594834D01*
X192385000Y-106230656D01*
X192385000Y-105859344D01*
X192312561Y-105495166D01*
X192170466Y-105152118D01*
X191964175Y-104843382D01*
X191701618Y-104580825D01*
X191392882Y-104374534D01*
X191049834Y-104232439D01*
X190685656Y-104160000D01*
X190314344Y-104160000D01*
X189950166Y-104232439D01*
X189607118Y-104374534D01*
X189298382Y-104580825D01*
X189035825Y-104843382D01*
X188829534Y-105152118D01*
X188687439Y-105495166D01*
X188615000Y-105859344D01*
X187305000Y-105859344D01*
X187232561Y-105495166D01*
X187090466Y-105152118D01*
X186884175Y-104843382D01*
X186621618Y-104580825D01*
X186312882Y-104374534D01*
X186180000Y-104319493D01*
X186180000Y-102272322D01*
X186183676Y-102234999D01*
X186180000Y-102197676D01*
X186180000Y-102197667D01*
X186169003Y-102086014D01*
X186125546Y-101942753D01*
X186054974Y-101810724D01*
X185960001Y-101694999D01*
X185931004Y-101671202D01*
X182174802Y-97915000D01*
X183694493Y-97915000D01*
X183749534Y-98047882D01*
X183955825Y-98356618D01*
X184218382Y-98619175D01*
X184527118Y-98825466D01*
X184870166Y-98967561D01*
X185234344Y-99040000D01*
X185605656Y-99040000D01*
X185969834Y-98967561D01*
X186312882Y-98825466D01*
X186621618Y-98619175D01*
X186884175Y-98356618D01*
X187090466Y-98047882D01*
X187232561Y-97704834D01*
X187305000Y-97340656D01*
X187305000Y-96969344D01*
X188615000Y-96969344D01*
X188615000Y-97340656D01*
X188687439Y-97704834D01*
X188829534Y-98047882D01*
X189035825Y-98356618D01*
X189298382Y-98619175D01*
X189607118Y-98825466D01*
X189950166Y-98967561D01*
X190314344Y-99040000D01*
X190685656Y-99040000D01*
X191049834Y-98967561D01*
X191392882Y-98825466D01*
X191701618Y-98619175D01*
X191964175Y-98356618D01*
X192170466Y-98047882D01*
X192312561Y-97704834D01*
X192385000Y-97340656D01*
X192385000Y-96969344D01*
X192312561Y-96605166D01*
X192170466Y-96262118D01*
X191964175Y-95953382D01*
X191701618Y-95690825D01*
X191392882Y-95484534D01*
X191049834Y-95342439D01*
X190685656Y-95270000D01*
X190314344Y-95270000D01*
X189950166Y-95342439D01*
X189607118Y-95484534D01*
X189298382Y-95690825D01*
X189035825Y-95953382D01*
X188829534Y-96262118D01*
X188687439Y-96605166D01*
X188615000Y-96969344D01*
X187305000Y-96969344D01*
X187232561Y-96605166D01*
X187090466Y-96262118D01*
X186884175Y-95953382D01*
X186621618Y-95690825D01*
X186312882Y-95484534D01*
X185969834Y-95342439D01*
X185605656Y-95270000D01*
X185234344Y-95270000D01*
X184870166Y-95342439D01*
X184527118Y-95484534D01*
X184218382Y-95690825D01*
X183955825Y-95953382D01*
X183749534Y-96262118D01*
X183694493Y-96395000D01*
X181924802Y-96395000D01*
X175188804Y-89659003D01*
X175165001Y-89629999D01*
X175049276Y-89535026D01*
X174917247Y-89464454D01*
X174773986Y-89420997D01*
X174662333Y-89410000D01*
X174662322Y-89410000D01*
X174625000Y-89406324D01*
X174587678Y-89410000D01*
X174117000Y-89410000D01*
X174117000Y-87178484D01*
X181011406Y-94196004D01*
X181011406Y-94196004D01*
G37*
X181011406Y-94196004D02*
X181030511Y-94211968D01*
X181052363Y-94223898D01*
X181076122Y-94231336D01*
X181102000Y-94234000D01*
X194515000Y-94234000D01*
X194515000Y-109601000D01*
X186851468Y-109601000D01*
X186775146Y-109538364D01*
X186630087Y-109460828D01*
X186472689Y-109413082D01*
X186350019Y-109401000D01*
X175097868Y-109401000D01*
X174117000Y-108420132D01*
X174117000Y-101821801D01*
X175770000Y-103474803D01*
X175770001Y-104239892D01*
X175770000Y-104239902D01*
X175770000Y-104319493D01*
X175637118Y-104374534D01*
X175328382Y-104580825D01*
X175065825Y-104843382D01*
X174859534Y-105152118D01*
X174717439Y-105495166D01*
X174645000Y-105859344D01*
X174645000Y-106230656D01*
X174717439Y-106594834D01*
X174859534Y-106937882D01*
X175065825Y-107246618D01*
X175328382Y-107509175D01*
X175637118Y-107715466D01*
X175980166Y-107857561D01*
X176344344Y-107930000D01*
X176715656Y-107930000D01*
X177079834Y-107857561D01*
X177422882Y-107715466D01*
X177731618Y-107509175D01*
X177994175Y-107246618D01*
X178200466Y-106937882D01*
X178342561Y-106594834D01*
X178415000Y-106230656D01*
X178415000Y-105859344D01*
X178342561Y-105495166D01*
X178200466Y-105152118D01*
X177994175Y-104843382D01*
X177731618Y-104580825D01*
X177422882Y-104374534D01*
X177290000Y-104319493D01*
X177290000Y-103197322D01*
X177293676Y-103159999D01*
X177290000Y-103122676D01*
X177290000Y-103122667D01*
X177279003Y-103011014D01*
X177235546Y-102867753D01*
X177164974Y-102735724D01*
X177149581Y-102716968D01*
X177093799Y-102648996D01*
X177093795Y-102648992D01*
X177070001Y-102619999D01*
X177041009Y-102596206D01*
X174183804Y-99739003D01*
X174160001Y-99709999D01*
X174117000Y-99674709D01*
X174117000Y-96969344D01*
X174645000Y-96969344D01*
X174645000Y-97340656D01*
X174717439Y-97704834D01*
X174859534Y-98047882D01*
X175065825Y-98356618D01*
X175328382Y-98619175D01*
X175637118Y-98825466D01*
X175980166Y-98967561D01*
X176344344Y-99040000D01*
X176715656Y-99040000D01*
X177079834Y-98967561D01*
X177422882Y-98825466D01*
X177731618Y-98619175D01*
X177994175Y-98356618D01*
X178200466Y-98047882D01*
X178342561Y-97704834D01*
X178415000Y-97340656D01*
X178415000Y-96969344D01*
X178342561Y-96605166D01*
X178200466Y-96262118D01*
X177994175Y-95953382D01*
X177731618Y-95690825D01*
X177422882Y-95484534D01*
X177079834Y-95342439D01*
X176715656Y-95270000D01*
X176344344Y-95270000D01*
X175980166Y-95342439D01*
X175637118Y-95484534D01*
X175328382Y-95690825D01*
X175065825Y-95953382D01*
X174859534Y-96262118D01*
X174717439Y-96605166D01*
X174645000Y-96969344D01*
X174117000Y-96969344D01*
X174117000Y-92006801D01*
X184660000Y-102549802D01*
X184660001Y-104239892D01*
X184660000Y-104239902D01*
X184660000Y-104319493D01*
X184527118Y-104374534D01*
X184218382Y-104580825D01*
X183955825Y-104843382D01*
X183749534Y-105152118D01*
X183607439Y-105495166D01*
X183535000Y-105859344D01*
X183535000Y-106230656D01*
X183607439Y-106594834D01*
X183749534Y-106937882D01*
X183955825Y-107246618D01*
X184218382Y-107509175D01*
X184527118Y-107715466D01*
X184870166Y-107857561D01*
X185234344Y-107930000D01*
X185605656Y-107930000D01*
X185969834Y-107857561D01*
X186312882Y-107715466D01*
X186621618Y-107509175D01*
X186884175Y-107246618D01*
X187090466Y-106937882D01*
X187232561Y-106594834D01*
X187305000Y-106230656D01*
X187305000Y-105859344D01*
X188615000Y-105859344D01*
X188615000Y-106230656D01*
X188687439Y-106594834D01*
X188829534Y-106937882D01*
X189035825Y-107246618D01*
X189298382Y-107509175D01*
X189607118Y-107715466D01*
X189950166Y-107857561D01*
X190314344Y-107930000D01*
X190685656Y-107930000D01*
X191049834Y-107857561D01*
X191392882Y-107715466D01*
X191701618Y-107509175D01*
X191964175Y-107246618D01*
X192170466Y-106937882D01*
X192312561Y-106594834D01*
X192385000Y-106230656D01*
X192385000Y-105859344D01*
X192312561Y-105495166D01*
X192170466Y-105152118D01*
X191964175Y-104843382D01*
X191701618Y-104580825D01*
X191392882Y-104374534D01*
X191049834Y-104232439D01*
X190685656Y-104160000D01*
X190314344Y-104160000D01*
X189950166Y-104232439D01*
X189607118Y-104374534D01*
X189298382Y-104580825D01*
X189035825Y-104843382D01*
X188829534Y-105152118D01*
X188687439Y-105495166D01*
X188615000Y-105859344D01*
X187305000Y-105859344D01*
X187232561Y-105495166D01*
X187090466Y-105152118D01*
X186884175Y-104843382D01*
X186621618Y-104580825D01*
X186312882Y-104374534D01*
X186180000Y-104319493D01*
X186180000Y-102272322D01*
X186183676Y-102234999D01*
X186180000Y-102197676D01*
X186180000Y-102197667D01*
X186169003Y-102086014D01*
X186125546Y-101942753D01*
X186054974Y-101810724D01*
X185960001Y-101694999D01*
X185931004Y-101671202D01*
X182174802Y-97915000D01*
X183694493Y-97915000D01*
X183749534Y-98047882D01*
X183955825Y-98356618D01*
X184218382Y-98619175D01*
X184527118Y-98825466D01*
X184870166Y-98967561D01*
X185234344Y-99040000D01*
X185605656Y-99040000D01*
X185969834Y-98967561D01*
X186312882Y-98825466D01*
X186621618Y-98619175D01*
X186884175Y-98356618D01*
X187090466Y-98047882D01*
X187232561Y-97704834D01*
X187305000Y-97340656D01*
X187305000Y-96969344D01*
X188615000Y-96969344D01*
X188615000Y-97340656D01*
X188687439Y-97704834D01*
X188829534Y-98047882D01*
X189035825Y-98356618D01*
X189298382Y-98619175D01*
X189607118Y-98825466D01*
X189950166Y-98967561D01*
X190314344Y-99040000D01*
X190685656Y-99040000D01*
X191049834Y-98967561D01*
X191392882Y-98825466D01*
X191701618Y-98619175D01*
X191964175Y-98356618D01*
X192170466Y-98047882D01*
X192312561Y-97704834D01*
X192385000Y-97340656D01*
X192385000Y-96969344D01*
X192312561Y-96605166D01*
X192170466Y-96262118D01*
X191964175Y-95953382D01*
X191701618Y-95690825D01*
X191392882Y-95484534D01*
X191049834Y-95342439D01*
X190685656Y-95270000D01*
X190314344Y-95270000D01*
X189950166Y-95342439D01*
X189607118Y-95484534D01*
X189298382Y-95690825D01*
X189035825Y-95953382D01*
X188829534Y-96262118D01*
X188687439Y-96605166D01*
X188615000Y-96969344D01*
X187305000Y-96969344D01*
X187232561Y-96605166D01*
X187090466Y-96262118D01*
X186884175Y-95953382D01*
X186621618Y-95690825D01*
X186312882Y-95484534D01*
X185969834Y-95342439D01*
X185605656Y-95270000D01*
X185234344Y-95270000D01*
X184870166Y-95342439D01*
X184527118Y-95484534D01*
X184218382Y-95690825D01*
X183955825Y-95953382D01*
X183749534Y-96262118D01*
X183694493Y-96395000D01*
X181924802Y-96395000D01*
X175188804Y-89659003D01*
X175165001Y-89629999D01*
X175049276Y-89535026D01*
X174917247Y-89464454D01*
X174773986Y-89420997D01*
X174662333Y-89410000D01*
X174662322Y-89410000D01*
X174625000Y-89406324D01*
X174587678Y-89410000D01*
X174117000Y-89410000D01*
X174117000Y-87178484D01*
X181011406Y-94196004D01*
D41*
G36*
X180073300Y-97922260D02*
G01*
X180073300Y-99047300D01*
X174002700Y-99047300D01*
X174002700Y-95008700D01*
X177159740Y-95008700D01*
X180073300Y-97922260D01*
X180073300Y-97922260D01*
G37*
X180073300Y-97922260D02*
X180073300Y-99047300D01*
X174002700Y-99047300D01*
X174002700Y-95008700D01*
X177159740Y-95008700D01*
X180073300Y-97922260D01*
G36*
X193027300Y-108064300D02*
G01*
X187972700Y-108064300D01*
X187972700Y-95262700D01*
X193027300Y-95262700D01*
X193027300Y-108064300D01*
X193027300Y-108064300D01*
G37*
X193027300Y-108064300D02*
X187972700Y-108064300D01*
X187972700Y-95262700D01*
X193027300Y-95262700D01*
X193027300Y-108064300D01*
G36*
X174362020Y-80145980D02*
G01*
X174363944Y-80147560D01*
X174366140Y-80148733D01*
X174368522Y-80149456D01*
X174371000Y-80149700D01*
X179946300Y-80149700D01*
X179946300Y-93060340D01*
X173748700Y-86862740D01*
X173748700Y-80022700D01*
X174238740Y-80022700D01*
X174362020Y-80145980D01*
X174362020Y-80145980D01*
G37*
X174362020Y-80145980D02*
X174363944Y-80147560D01*
X174366140Y-80148733D01*
X174368522Y-80149456D01*
X174371000Y-80149700D01*
X179946300Y-80149700D01*
X179946300Y-93060340D01*
X173748700Y-86862740D01*
X173748700Y-80022700D01*
X174238740Y-80022700D01*
X174362020Y-80145980D01*
D40*
G36*
X179832000Y-77978000D02*
G01*
X178648238Y-77978000D01*
X178659072Y-77868000D01*
X178656000Y-77628750D01*
X178497250Y-77470000D01*
X177673000Y-77470000D01*
X177673000Y-77490000D01*
X177419000Y-77490000D01*
X177419000Y-77470000D01*
X176594750Y-77470000D01*
X176436000Y-77628750D01*
X176432928Y-77868000D01*
X176443762Y-77978000D01*
X174371000Y-77978000D01*
X174346224Y-77980440D01*
X174322399Y-77987667D01*
X174300443Y-77999403D01*
X174281197Y-78015197D01*
X174191394Y-78105000D01*
X173863000Y-78105000D01*
X173863000Y-76818000D01*
X176432928Y-76818000D01*
X176436000Y-77057250D01*
X176594750Y-77216000D01*
X177419000Y-77216000D01*
X177419000Y-76341750D01*
X177673000Y-76341750D01*
X177673000Y-77216000D01*
X178497250Y-77216000D01*
X178656000Y-77057250D01*
X178659072Y-76818000D01*
X178646812Y-76693518D01*
X178610502Y-76573820D01*
X178551537Y-76463506D01*
X178472185Y-76366815D01*
X178375494Y-76287463D01*
X178265180Y-76228498D01*
X178145482Y-76192188D01*
X178021000Y-76179928D01*
X177831750Y-76183000D01*
X177673000Y-76341750D01*
X177419000Y-76341750D01*
X177260250Y-76183000D01*
X177071000Y-76179928D01*
X176946518Y-76192188D01*
X176826820Y-76228498D01*
X176716506Y-76287463D01*
X176619815Y-76366815D01*
X176540463Y-76463506D01*
X176481498Y-76573820D01*
X176445188Y-76693518D01*
X176432928Y-76818000D01*
X173863000Y-76818000D01*
X173863000Y-76073000D01*
X179832000Y-76073000D01*
X179832000Y-77978000D01*
X179832000Y-77978000D01*
G37*
X179832000Y-77978000D02*
X178648238Y-77978000D01*
X178659072Y-77868000D01*
X178656000Y-77628750D01*
X178497250Y-77470000D01*
X177673000Y-77470000D01*
X177673000Y-77490000D01*
X177419000Y-77490000D01*
X177419000Y-77470000D01*
X176594750Y-77470000D01*
X176436000Y-77628750D01*
X176432928Y-77868000D01*
X176443762Y-77978000D01*
X174371000Y-77978000D01*
X174346224Y-77980440D01*
X174322399Y-77987667D01*
X174300443Y-77999403D01*
X174281197Y-78015197D01*
X174191394Y-78105000D01*
X173863000Y-78105000D01*
X173863000Y-76818000D01*
X176432928Y-76818000D01*
X176436000Y-77057250D01*
X176594750Y-77216000D01*
X177419000Y-77216000D01*
X177419000Y-76341750D01*
X177673000Y-76341750D01*
X177673000Y-77216000D01*
X178497250Y-77216000D01*
X178656000Y-77057250D01*
X178659072Y-76818000D01*
X178646812Y-76693518D01*
X178610502Y-76573820D01*
X178551537Y-76463506D01*
X178472185Y-76366815D01*
X178375494Y-76287463D01*
X178265180Y-76228498D01*
X178145482Y-76192188D01*
X178021000Y-76179928D01*
X177831750Y-76183000D01*
X177673000Y-76341750D01*
X177419000Y-76341750D01*
X177260250Y-76183000D01*
X177071000Y-76179928D01*
X176946518Y-76192188D01*
X176826820Y-76228498D01*
X176716506Y-76287463D01*
X176619815Y-76366815D01*
X176540463Y-76463506D01*
X176481498Y-76573820D01*
X176445188Y-76693518D01*
X176432928Y-76818000D01*
X173863000Y-76818000D01*
X173863000Y-76073000D01*
X179832000Y-76073000D01*
X179832000Y-77978000D01*
M02*
