G04 #@! TF.GenerationSoftware,KiCad,Pcbnew,(5.1.2)-1*
G04 #@! TF.CreationDate,2019-05-23T18:27:22+02:00*
G04 #@! TF.ProjectId,2018-03-08 Intercourse 01,32303138-2d30-4332-9d30-3820496e7465,rev?*
G04 #@! TF.SameCoordinates,Original*
G04 #@! TF.FileFunction,Copper,L2,Bot*
G04 #@! TF.FilePolarity,Positive*
%FSLAX46Y46*%
G04 Gerber Fmt 4.6, Leading zero omitted, Abs format (unit mm)*
G04 Created by KiCad (PCBNEW (5.1.2)-1) date 2019-05-23 18:27:22*
%MOMM*%
%LPD*%
G04 APERTURE LIST*
%ADD10C,0.381000*%
%ADD11O,1.400000X0.800000*%
%ADD12C,2.500000*%
%ADD13C,0.600000*%
%ADD14C,0.400000*%
%ADD15C,0.250000*%
%ADD16C,0.400000*%
%ADD17C,0.300000*%
%ADD18C,0.160000*%
%ADD19C,0.025400*%
G04 APERTURE END LIST*
D10*
X180975000Y-85979000D03*
D11*
X118535000Y-97470000D03*
X118535000Y-105730000D03*
X112585000Y-106090000D03*
X112585000Y-97110000D03*
D12*
X176530000Y-106045000D03*
X185420000Y-97155000D03*
X185420000Y-106045000D03*
X190500000Y-106045000D03*
X190500000Y-97155000D03*
X176530000Y-97155000D03*
D13*
X116840000Y-88265000D03*
X115570000Y-90170000D03*
X161697500Y-85952500D03*
X163422500Y-85952500D03*
X163422500Y-84227500D03*
X161697500Y-84227500D03*
X155956000Y-103632000D03*
X155956000Y-100838000D03*
X121920000Y-101600000D03*
X116840000Y-101600000D03*
D14*
X166624000Y-84455000D03*
X161544000Y-78486000D03*
D13*
X179070000Y-77089000D03*
D14*
X159512000Y-90170000D03*
X160782000Y-88900000D03*
X170942000Y-82550000D03*
X147320000Y-96012090D03*
D13*
X131064000Y-90170000D03*
D14*
X147320000Y-100076000D03*
D13*
X122555000Y-90170000D03*
D14*
X169926000Y-83566000D03*
X166370000Y-85090000D03*
X166370000Y-88900000D03*
X166370000Y-81788000D03*
X117602000Y-84074000D03*
X123444000Y-87122000D03*
X117094000Y-97028000D03*
X114300000Y-97028000D03*
X170688000Y-90170000D03*
X165769997Y-88900000D03*
X170688000Y-90770003D03*
X165100000Y-88900000D03*
X154432000Y-80772000D03*
X156863761Y-88259937D03*
X159371432Y-81201536D03*
X151130000Y-93472000D03*
X166370000Y-82550000D03*
X162687000Y-78486000D03*
X159004118Y-81695977D03*
X167640000Y-107972069D03*
X159004000Y-82295978D03*
X167640000Y-107372056D03*
X167640000Y-106772043D03*
X159004000Y-84836000D03*
X167640000Y-106171936D03*
X159512000Y-97536000D03*
X161290000Y-101346000D03*
X161036000Y-102870000D03*
X163830000Y-101346000D03*
X162052000Y-102870000D03*
X163068000Y-102870000D03*
X160782000Y-97536000D03*
X162052000Y-100330000D03*
X160181997Y-97536000D03*
X121920000Y-104140000D03*
D15*
X115570000Y-89535000D02*
X115570000Y-90170000D01*
X115570000Y-89535000D02*
X116840000Y-88265000D01*
D16*
X161697500Y-84227500D02*
X161697500Y-79094426D01*
X176403000Y-97155000D02*
X176530000Y-97155000D01*
X161697500Y-84227500D02*
X163422500Y-84227500D01*
X161697500Y-85952500D02*
X163422500Y-85952500D01*
X155956000Y-100838000D02*
X155956000Y-103632000D01*
X116840000Y-101600000D02*
X121920000Y-101600000D01*
X161697500Y-84227500D02*
X161697500Y-85952500D01*
X163422500Y-84227500D02*
X163422500Y-85952500D01*
D17*
X166396500Y-84227500D02*
X163422500Y-84227500D01*
X166624000Y-84455000D02*
X166396500Y-84227500D01*
X161697500Y-79094426D02*
X161697500Y-78639500D01*
X161697500Y-78639500D02*
X161544000Y-78486000D01*
D16*
X161544000Y-78486000D02*
X161544000Y-77724000D01*
X161544000Y-77724000D02*
X162052000Y-77216000D01*
X162052000Y-77216000D02*
X172212000Y-77216000D01*
X172212000Y-77216000D02*
X180975000Y-85979000D01*
D17*
X160782000Y-88900000D02*
X159512000Y-90170000D01*
X160782000Y-88900000D02*
X160981999Y-88700001D01*
X160981999Y-88700001D02*
X162814000Y-86868000D01*
X162814000Y-86868000D02*
X166624000Y-86868000D01*
X166624000Y-86868000D02*
X169037000Y-84455000D01*
X169037000Y-84455000D02*
X170434000Y-84455000D01*
X170434000Y-84455000D02*
X170942000Y-83947000D01*
X170942000Y-83947000D02*
X170942000Y-82550000D01*
D15*
X147320000Y-100076000D02*
X147320000Y-96012090D01*
X122555000Y-90170000D02*
X131064000Y-90170000D01*
X166370000Y-85090000D02*
X167386000Y-85090000D01*
X167386000Y-85090000D02*
X168910000Y-83566000D01*
X168910000Y-83566000D02*
X169926000Y-83566000D01*
X166370000Y-81788000D02*
X166624000Y-81534000D01*
X166624000Y-81534000D02*
X171069000Y-81534000D01*
X171069000Y-81534000D02*
X173228000Y-83693000D01*
X173228000Y-83693000D02*
X173228000Y-87884000D01*
X166370000Y-88646000D02*
X166370000Y-88900000D01*
X173228000Y-87884000D02*
X166878000Y-87884000D01*
X166878000Y-87884000D02*
X166370000Y-88392000D01*
X166370000Y-88392000D02*
X166370000Y-88646000D01*
X123444000Y-87122000D02*
X123444000Y-86868000D01*
X123444000Y-86868000D02*
X121666000Y-85090000D01*
X121666000Y-85090000D02*
X118110000Y-85090000D01*
X118110000Y-85090000D02*
X117602000Y-84582000D01*
X117602000Y-84582000D02*
X117602000Y-84074000D01*
X114300000Y-97028000D02*
X117094000Y-97028000D01*
X165769997Y-88900000D02*
X165769997Y-89182842D01*
X165769997Y-89182842D02*
X166757155Y-90170000D01*
X166757155Y-90170000D02*
X170688000Y-90170000D01*
X165100000Y-88900000D02*
X165100000Y-89182842D01*
X165100000Y-89182842D02*
X166687161Y-90770003D01*
X166687161Y-90770003D02*
X170688000Y-90770003D01*
D18*
X154631999Y-80971999D02*
X154432000Y-80772000D01*
X156863761Y-83203761D02*
X154631999Y-80971999D01*
X156863761Y-88259937D02*
X156863761Y-83203761D01*
X158179896Y-80010000D02*
X159171433Y-81001537D01*
X151130000Y-93472000D02*
X151130000Y-81915000D01*
X153035000Y-80010000D02*
X158179896Y-80010000D01*
X159171433Y-81001537D02*
X159371432Y-81201536D01*
X151130000Y-81915000D02*
X153035000Y-80010000D01*
X165354000Y-83566000D02*
X166370000Y-82550000D01*
X162814000Y-83566000D02*
X165354000Y-83566000D01*
X162814000Y-83566000D02*
X162814000Y-78613000D01*
X162814000Y-78613000D02*
X162687000Y-78486000D01*
D15*
X157988000Y-103124001D02*
X157988000Y-82429253D01*
X162836069Y-107972069D02*
X157988000Y-103124001D01*
X167640000Y-107972069D02*
X162836069Y-107972069D01*
X158721276Y-81695977D02*
X159004118Y-81695977D01*
X157988000Y-82429253D02*
X158721276Y-81695977D01*
X167640000Y-107372056D02*
X162872466Y-107372056D01*
X162872466Y-107372056D02*
X158438011Y-102937601D01*
X158438011Y-102937601D02*
X158438011Y-82861967D01*
X158438011Y-82861967D02*
X158804001Y-82495977D01*
X158804001Y-82495977D02*
X159004000Y-82295978D01*
X159004000Y-84836000D02*
X158888022Y-84951978D01*
X158888022Y-102751202D02*
X162908863Y-106772043D01*
X162908863Y-106772043D02*
X167357158Y-106772043D01*
X158888022Y-84951978D02*
X158888022Y-102751202D01*
X167357158Y-106772043D02*
X167640000Y-106772043D01*
X167357158Y-106171936D02*
X167640000Y-106171936D01*
X162945166Y-106171936D02*
X167357158Y-106171936D01*
X159512000Y-102738770D02*
X162945166Y-106171936D01*
X159512000Y-97536000D02*
X159512000Y-102738770D01*
D18*
X161290000Y-102616000D02*
X161290000Y-101628842D01*
X161036000Y-102870000D02*
X161290000Y-102616000D01*
X161290000Y-101628842D02*
X161290000Y-101346000D01*
X163830000Y-103124000D02*
X163830000Y-101628842D01*
X163345205Y-103608795D02*
X163830000Y-103124000D01*
X162052000Y-102870000D02*
X162790795Y-103608795D01*
X163830000Y-101628842D02*
X163830000Y-101346000D01*
X162790795Y-103608795D02*
X163345205Y-103608795D01*
X163068000Y-102587158D02*
X163068000Y-102870000D01*
X160782000Y-100076000D02*
X163068000Y-102362000D01*
X160782000Y-97536000D02*
X160782000Y-100076000D01*
X163068000Y-102362000D02*
X163068000Y-102587158D01*
X160181997Y-97536000D02*
X160181997Y-97120003D01*
X160528000Y-96774000D02*
X161036000Y-96774000D01*
X160181997Y-97120003D02*
X160528000Y-96774000D01*
X161036000Y-96774000D02*
X162052000Y-97790000D01*
X162052000Y-97790000D02*
X162052000Y-100330000D01*
X121920000Y-104140000D02*
X128905000Y-97155000D01*
X128905000Y-97155000D02*
X137795000Y-97155000D01*
X137795000Y-97155000D02*
X149225000Y-108585000D01*
X149225000Y-108585000D02*
X173990000Y-108585000D01*
X173990000Y-108585000D02*
X176530000Y-106045000D01*
D19*
G36*
X179946300Y-80137000D02*
G01*
X179946544Y-80139478D01*
X179947267Y-80141860D01*
X179948440Y-80144056D01*
X179950020Y-80145980D01*
X179951944Y-80147560D01*
X179954140Y-80148733D01*
X179956522Y-80149456D01*
X179959000Y-80149700D01*
X181470300Y-80149700D01*
X181470300Y-101587300D01*
X174256700Y-101587300D01*
X174256700Y-83820000D01*
X174256456Y-83817522D01*
X174255733Y-83815140D01*
X174254560Y-83812944D01*
X174252980Y-83811020D01*
X171458980Y-81017020D01*
X171457056Y-81015440D01*
X171454860Y-81014267D01*
X171452478Y-81013544D01*
X171450000Y-81013300D01*
X165735000Y-81013300D01*
X165732522Y-81013544D01*
X165730140Y-81014267D01*
X165727944Y-81015440D01*
X165726020Y-81017020D01*
X165724440Y-81018944D01*
X165723267Y-81021140D01*
X165722544Y-81023522D01*
X165722300Y-81026000D01*
X165722300Y-82291767D01*
X164986150Y-83273300D01*
X163106700Y-83273300D01*
X163106700Y-78627367D01*
X163108115Y-78612999D01*
X163106700Y-78598631D01*
X163106700Y-78598622D01*
X163102465Y-78555621D01*
X163097314Y-78538641D01*
X163099700Y-78526647D01*
X163099700Y-78445353D01*
X163083840Y-78365620D01*
X163080700Y-78358039D01*
X163080700Y-78232000D01*
X163080456Y-78229522D01*
X163079733Y-78227140D01*
X163078560Y-78224944D01*
X163076980Y-78223020D01*
X162822980Y-77969020D01*
X162821056Y-77967440D01*
X162818860Y-77966267D01*
X162816478Y-77965544D01*
X162814000Y-77965300D01*
X162560000Y-77965300D01*
X162557522Y-77965544D01*
X162555140Y-77966267D01*
X162552944Y-77967440D01*
X162551020Y-77969020D01*
X162297020Y-78223020D01*
X162295440Y-78224944D01*
X162294267Y-78227140D01*
X162293544Y-78229522D01*
X162293300Y-78232000D01*
X162293300Y-78358039D01*
X162290160Y-78365620D01*
X162274300Y-78445353D01*
X162274300Y-78526647D01*
X162290160Y-78606380D01*
X162293300Y-78613961D01*
X162293300Y-78734740D01*
X162043020Y-78985020D01*
X162041440Y-78986944D01*
X162040267Y-78989140D01*
X162039544Y-78991522D01*
X162039300Y-78994000D01*
X162039300Y-83820000D01*
X162039544Y-83822478D01*
X162040267Y-83824860D01*
X162041440Y-83827056D01*
X162043020Y-83828980D01*
X162044944Y-83830560D01*
X162047140Y-83831733D01*
X162049522Y-83832456D01*
X162052000Y-83832700D01*
X162692040Y-83832700D01*
X162701447Y-83837728D01*
X162756621Y-83854465D01*
X162814000Y-83860116D01*
X162828377Y-83858700D01*
X163817300Y-83858700D01*
X163817300Y-86347300D01*
X161302700Y-86347300D01*
X161302700Y-81661000D01*
X161302456Y-81658522D01*
X161301733Y-81656140D01*
X161300560Y-81653944D01*
X161298980Y-81652020D01*
X158885980Y-79239020D01*
X158884056Y-79237440D01*
X158881860Y-79236267D01*
X158879478Y-79235544D01*
X158877000Y-79235300D01*
X153035000Y-79235300D01*
X153032522Y-79235544D01*
X153030140Y-79236267D01*
X153027944Y-79237440D01*
X153026020Y-79239020D01*
X150613020Y-81652020D01*
X150611440Y-81653944D01*
X150610267Y-81656140D01*
X150609544Y-81658522D01*
X150609300Y-81661000D01*
X150609300Y-89656740D01*
X149219740Y-91046300D01*
X133482260Y-91046300D01*
X131707980Y-89272020D01*
X131706056Y-89270440D01*
X131703860Y-89269267D01*
X131701478Y-89268544D01*
X131699000Y-89268300D01*
X129552700Y-89268300D01*
X129552700Y-78872260D01*
X130688260Y-77736700D01*
X154940000Y-77736700D01*
X154942478Y-77736456D01*
X154944860Y-77735733D01*
X154947056Y-77734560D01*
X154948980Y-77732980D01*
X156723260Y-75958700D01*
X179946300Y-75958700D01*
X179946300Y-80137000D01*
X179946300Y-80137000D01*
G37*
X179946300Y-80137000D02*
X179946544Y-80139478D01*
X179947267Y-80141860D01*
X179948440Y-80144056D01*
X179950020Y-80145980D01*
X179951944Y-80147560D01*
X179954140Y-80148733D01*
X179956522Y-80149456D01*
X179959000Y-80149700D01*
X181470300Y-80149700D01*
X181470300Y-101587300D01*
X174256700Y-101587300D01*
X174256700Y-83820000D01*
X174256456Y-83817522D01*
X174255733Y-83815140D01*
X174254560Y-83812944D01*
X174252980Y-83811020D01*
X171458980Y-81017020D01*
X171457056Y-81015440D01*
X171454860Y-81014267D01*
X171452478Y-81013544D01*
X171450000Y-81013300D01*
X165735000Y-81013300D01*
X165732522Y-81013544D01*
X165730140Y-81014267D01*
X165727944Y-81015440D01*
X165726020Y-81017020D01*
X165724440Y-81018944D01*
X165723267Y-81021140D01*
X165722544Y-81023522D01*
X165722300Y-81026000D01*
X165722300Y-82291767D01*
X164986150Y-83273300D01*
X163106700Y-83273300D01*
X163106700Y-78627367D01*
X163108115Y-78612999D01*
X163106700Y-78598631D01*
X163106700Y-78598622D01*
X163102465Y-78555621D01*
X163097314Y-78538641D01*
X163099700Y-78526647D01*
X163099700Y-78445353D01*
X163083840Y-78365620D01*
X163080700Y-78358039D01*
X163080700Y-78232000D01*
X163080456Y-78229522D01*
X163079733Y-78227140D01*
X163078560Y-78224944D01*
X163076980Y-78223020D01*
X162822980Y-77969020D01*
X162821056Y-77967440D01*
X162818860Y-77966267D01*
X162816478Y-77965544D01*
X162814000Y-77965300D01*
X162560000Y-77965300D01*
X162557522Y-77965544D01*
X162555140Y-77966267D01*
X162552944Y-77967440D01*
X162551020Y-77969020D01*
X162297020Y-78223020D01*
X162295440Y-78224944D01*
X162294267Y-78227140D01*
X162293544Y-78229522D01*
X162293300Y-78232000D01*
X162293300Y-78358039D01*
X162290160Y-78365620D01*
X162274300Y-78445353D01*
X162274300Y-78526647D01*
X162290160Y-78606380D01*
X162293300Y-78613961D01*
X162293300Y-78734740D01*
X162043020Y-78985020D01*
X162041440Y-78986944D01*
X162040267Y-78989140D01*
X162039544Y-78991522D01*
X162039300Y-78994000D01*
X162039300Y-83820000D01*
X162039544Y-83822478D01*
X162040267Y-83824860D01*
X162041440Y-83827056D01*
X162043020Y-83828980D01*
X162044944Y-83830560D01*
X162047140Y-83831733D01*
X162049522Y-83832456D01*
X162052000Y-83832700D01*
X162692040Y-83832700D01*
X162701447Y-83837728D01*
X162756621Y-83854465D01*
X162814000Y-83860116D01*
X162828377Y-83858700D01*
X163817300Y-83858700D01*
X163817300Y-86347300D01*
X161302700Y-86347300D01*
X161302700Y-81661000D01*
X161302456Y-81658522D01*
X161301733Y-81656140D01*
X161300560Y-81653944D01*
X161298980Y-81652020D01*
X158885980Y-79239020D01*
X158884056Y-79237440D01*
X158881860Y-79236267D01*
X158879478Y-79235544D01*
X158877000Y-79235300D01*
X153035000Y-79235300D01*
X153032522Y-79235544D01*
X153030140Y-79236267D01*
X153027944Y-79237440D01*
X153026020Y-79239020D01*
X150613020Y-81652020D01*
X150611440Y-81653944D01*
X150610267Y-81656140D01*
X150609544Y-81658522D01*
X150609300Y-81661000D01*
X150609300Y-89656740D01*
X149219740Y-91046300D01*
X133482260Y-91046300D01*
X131707980Y-89272020D01*
X131706056Y-89270440D01*
X131703860Y-89269267D01*
X131701478Y-89268544D01*
X131699000Y-89268300D01*
X129552700Y-89268300D01*
X129552700Y-78872260D01*
X130688260Y-77736700D01*
X154940000Y-77736700D01*
X154942478Y-77736456D01*
X154944860Y-77735733D01*
X154947056Y-77734560D01*
X154948980Y-77732980D01*
X156723260Y-75958700D01*
X179946300Y-75958700D01*
X179946300Y-80137000D01*
M02*
