G04 #@! TF.GenerationSoftware,KiCad,Pcbnew,(5.1.2)-1*
G04 #@! TF.CreationDate,2019-05-23T18:27:22+02:00*
G04 #@! TF.ProjectId,2018-03-08 Intercourse 01,32303138-2d30-4332-9d30-3820496e7465,rev?*
G04 #@! TF.SameCoordinates,Original*
G04 #@! TF.FileFunction,Soldermask,Top*
G04 #@! TF.FilePolarity,Negative*
%FSLAX46Y46*%
G04 Gerber Fmt 4.6, Leading zero omitted, Abs format (unit mm)*
G04 Created by KiCad (PCBNEW (5.1.2)-1) date 2019-05-23 18:27:22*
%MOMM*%
%LPD*%
G04 APERTURE LIST*
%ADD10R,1.900000X1.650000*%
%ADD11R,2.400000X2.100000*%
%ADD12R,1.650000X1.900000*%
%ADD13R,1.150000X1.600000*%
%ADD14R,1.600000X1.150000*%
%ADD15R,1.900000X1.700000*%
%ADD16O,1.800000X1.200000*%
%ADD17R,1.100000X0.700000*%
%ADD18O,1.050000X1.350000*%
%ADD19C,1.050000*%
%ADD20C,2.900000*%
%ADD21R,1.600000X3.100000*%
%ADD22R,1.700000X1.900000*%
%ADD23R,0.650000X1.100000*%
%ADD24R,1.600000X1.040000*%
%ADD25R,1.000000X1.950000*%
%ADD26R,1.100000X0.650000*%
%ADD27R,2.125000X2.125000*%
%ADD28R,1.800000X1.600000*%
%ADD29R,0.800000X1.100000*%
%ADD30C,1.900000*%
%ADD31C,0.100000*%
%ADD32C,1.350000*%
%ADD33C,1.000000*%
%ADD34C,0.800000*%
G04 APERTURE END LIST*
D10*
X121265000Y-88265000D03*
X118765000Y-88265000D03*
D11*
X127000000Y-81590000D03*
X127000000Y-85090000D03*
X127000000Y-88590000D03*
D12*
X149523701Y-102353393D03*
X149523701Y-104853393D03*
D10*
X121265000Y-81915000D03*
X118765000Y-81915000D03*
D12*
X154603701Y-102373393D03*
X154603701Y-104873393D03*
D13*
X172085000Y-84775000D03*
X172085000Y-86675000D03*
D14*
X167960000Y-88900000D03*
X169860000Y-88900000D03*
D10*
X167660000Y-100330000D03*
X170160000Y-100330000D03*
D14*
X169540000Y-82550000D03*
X167640000Y-82550000D03*
X173741000Y-79121000D03*
X175641000Y-79121000D03*
D10*
X157460000Y-81915000D03*
X154960000Y-81915000D03*
D13*
X160655000Y-79690000D03*
X160655000Y-77790000D03*
D15*
X154860000Y-115570000D03*
X157560000Y-115570000D03*
X162480000Y-115570000D03*
X165180000Y-115570000D03*
X170100000Y-115570000D03*
X172800000Y-115570000D03*
X177720000Y-115570000D03*
X180420000Y-115570000D03*
X185340000Y-115570000D03*
X188040000Y-115570000D03*
D16*
X118535000Y-97470000D03*
D17*
X120445000Y-98850000D03*
X120445000Y-99350000D03*
X120445000Y-99850000D03*
X120445000Y-100350000D03*
X120445000Y-100850000D03*
X120445000Y-101350000D03*
X120445000Y-101850000D03*
X120445000Y-104350000D03*
X120445000Y-103350000D03*
X120445000Y-102850000D03*
X120445000Y-102350000D03*
X120445000Y-103850000D03*
X118745000Y-104100000D03*
D16*
X118535000Y-105730000D03*
X112585000Y-106090000D03*
X112585000Y-97110000D03*
D18*
X119785000Y-105200000D03*
D19*
X119785000Y-98000000D03*
D17*
X118745000Y-103600000D03*
X118745000Y-103100000D03*
X118745000Y-102600000D03*
X118745000Y-102100000D03*
X118745000Y-101600000D03*
X118745000Y-101100000D03*
X118745000Y-100600000D03*
X118745000Y-100100000D03*
X118745000Y-99600000D03*
X118745000Y-99100000D03*
X118745000Y-98600000D03*
D20*
X176530000Y-106045000D03*
X185420000Y-97155000D03*
X185420000Y-106045000D03*
X190500000Y-106045000D03*
X190500000Y-97155000D03*
D21*
X152093701Y-99158393D03*
X149493701Y-99158393D03*
D22*
X115570000Y-86440000D03*
X115570000Y-83740000D03*
D15*
X149860000Y-94615000D03*
X147160000Y-94615000D03*
X152400000Y-94615000D03*
X155100000Y-94615000D03*
X170260000Y-102870000D03*
X167560000Y-102870000D03*
D22*
X172720000Y-102950000D03*
X172720000Y-100250000D03*
X162687000Y-77089000D03*
X162687000Y-79789000D03*
X162560000Y-96680000D03*
X162560000Y-93980000D03*
D15*
X154860000Y-113030000D03*
X157560000Y-113030000D03*
X162480000Y-113030000D03*
X165180000Y-113030000D03*
X170100000Y-113030000D03*
X172800000Y-113030000D03*
X177720000Y-113030000D03*
X180420000Y-113030000D03*
X185340000Y-113030000D03*
X188040000Y-113030000D03*
X157560000Y-86995000D03*
X154860000Y-86995000D03*
X157560000Y-89535000D03*
X154860000Y-89535000D03*
X157560000Y-84455000D03*
X154860000Y-84455000D03*
D23*
X120380000Y-84192881D03*
X119880000Y-84192881D03*
X119380000Y-84192881D03*
X118880000Y-84192881D03*
X118380000Y-84192881D03*
X118380000Y-86042881D03*
X118880000Y-86042881D03*
X119380000Y-86042881D03*
X119880000Y-86042881D03*
X120380000Y-86042881D03*
D24*
X118780000Y-85117881D03*
X119980000Y-85117881D03*
D25*
X160655000Y-104300000D03*
X161925000Y-104300000D03*
X163195000Y-104300000D03*
X164465000Y-104300000D03*
X164465000Y-98900000D03*
X163195000Y-98900000D03*
X161925000Y-98900000D03*
X160655000Y-98900000D03*
D23*
X164310000Y-82690000D03*
X163810000Y-82690000D03*
X163310000Y-82690000D03*
X162810000Y-82690000D03*
X162310000Y-82690000D03*
X161810000Y-82690000D03*
X161310000Y-82690000D03*
X160810000Y-82690000D03*
D26*
X160160000Y-83340000D03*
X160160000Y-83840000D03*
X160160000Y-84340000D03*
X160160000Y-84840000D03*
X160160000Y-85340000D03*
X160160000Y-85840000D03*
X160160000Y-86340000D03*
X160160000Y-86840000D03*
D23*
X160810000Y-87490000D03*
X161310000Y-87490000D03*
X161810000Y-87490000D03*
X162310000Y-87490000D03*
X162810000Y-87490000D03*
X163310000Y-87490000D03*
X163810000Y-87490000D03*
X164310000Y-87490000D03*
D26*
X164960000Y-86840000D03*
X164960000Y-86340000D03*
X164960000Y-85840000D03*
X164960000Y-85340000D03*
X164960000Y-84840000D03*
X164960000Y-84340000D03*
X164960000Y-83840000D03*
X164960000Y-83340000D03*
D27*
X161697500Y-85952500D03*
X163422500Y-85952500D03*
X161697500Y-84227500D03*
X163422500Y-84227500D03*
D28*
X170010000Y-84875000D03*
X167810000Y-84875000D03*
X167810000Y-86575000D03*
X170010000Y-86575000D03*
D29*
X151413701Y-103918393D03*
X152063701Y-103918393D03*
X152713701Y-103918393D03*
X152713701Y-102018393D03*
X151413701Y-102018393D03*
X152063701Y-102018393D03*
D20*
X176530000Y-97155000D03*
D30*
X156210000Y-78740000D03*
D31*
G36*
X177916581Y-78369625D02*
G01*
X177949343Y-78374485D01*
X177981471Y-78382533D01*
X178012656Y-78393691D01*
X178042596Y-78407852D01*
X178071005Y-78424879D01*
X178097608Y-78444609D01*
X178122149Y-78466851D01*
X178144391Y-78491392D01*
X178164121Y-78517995D01*
X178181148Y-78546404D01*
X178195309Y-78576344D01*
X178206467Y-78607529D01*
X178214515Y-78639657D01*
X178219375Y-78672419D01*
X178221000Y-78705500D01*
X178221000Y-79480500D01*
X178219375Y-79513581D01*
X178214515Y-79546343D01*
X178206467Y-79578471D01*
X178195309Y-79609656D01*
X178181148Y-79639596D01*
X178164121Y-79668005D01*
X178144391Y-79694608D01*
X178122149Y-79719149D01*
X178097608Y-79741391D01*
X178071005Y-79761121D01*
X178042596Y-79778148D01*
X178012656Y-79792309D01*
X177981471Y-79803467D01*
X177949343Y-79811515D01*
X177916581Y-79816375D01*
X177883500Y-79818000D01*
X177208500Y-79818000D01*
X177175419Y-79816375D01*
X177142657Y-79811515D01*
X177110529Y-79803467D01*
X177079344Y-79792309D01*
X177049404Y-79778148D01*
X177020995Y-79761121D01*
X176994392Y-79741391D01*
X176969851Y-79719149D01*
X176947609Y-79694608D01*
X176927879Y-79668005D01*
X176910852Y-79639596D01*
X176896691Y-79609656D01*
X176885533Y-79578471D01*
X176877485Y-79546343D01*
X176872625Y-79513581D01*
X176871000Y-79480500D01*
X176871000Y-78705500D01*
X176872625Y-78672419D01*
X176877485Y-78639657D01*
X176885533Y-78607529D01*
X176896691Y-78576344D01*
X176910852Y-78546404D01*
X176927879Y-78517995D01*
X176947609Y-78491392D01*
X176969851Y-78466851D01*
X176994392Y-78444609D01*
X177020995Y-78424879D01*
X177049404Y-78407852D01*
X177079344Y-78393691D01*
X177110529Y-78382533D01*
X177142657Y-78374485D01*
X177175419Y-78369625D01*
X177208500Y-78368000D01*
X177883500Y-78368000D01*
X177916581Y-78369625D01*
X177916581Y-78369625D01*
G37*
D32*
X177546000Y-79093000D03*
D31*
G36*
X177916581Y-76619625D02*
G01*
X177949343Y-76624485D01*
X177981471Y-76632533D01*
X178012656Y-76643691D01*
X178042596Y-76657852D01*
X178071005Y-76674879D01*
X178097608Y-76694609D01*
X178122149Y-76716851D01*
X178144391Y-76741392D01*
X178164121Y-76767995D01*
X178181148Y-76796404D01*
X178195309Y-76826344D01*
X178206467Y-76857529D01*
X178214515Y-76889657D01*
X178219375Y-76922419D01*
X178221000Y-76955500D01*
X178221000Y-77730500D01*
X178219375Y-77763581D01*
X178214515Y-77796343D01*
X178206467Y-77828471D01*
X178195309Y-77859656D01*
X178181148Y-77889596D01*
X178164121Y-77918005D01*
X178144391Y-77944608D01*
X178122149Y-77969149D01*
X178097608Y-77991391D01*
X178071005Y-78011121D01*
X178042596Y-78028148D01*
X178012656Y-78042309D01*
X177981471Y-78053467D01*
X177949343Y-78061515D01*
X177916581Y-78066375D01*
X177883500Y-78068000D01*
X177208500Y-78068000D01*
X177175419Y-78066375D01*
X177142657Y-78061515D01*
X177110529Y-78053467D01*
X177079344Y-78042309D01*
X177049404Y-78028148D01*
X177020995Y-78011121D01*
X176994392Y-77991391D01*
X176969851Y-77969149D01*
X176947609Y-77944608D01*
X176927879Y-77918005D01*
X176910852Y-77889596D01*
X176896691Y-77859656D01*
X176885533Y-77828471D01*
X176877485Y-77796343D01*
X176872625Y-77763581D01*
X176871000Y-77730500D01*
X176871000Y-76955500D01*
X176872625Y-76922419D01*
X176877485Y-76889657D01*
X176885533Y-76857529D01*
X176896691Y-76826344D01*
X176910852Y-76796404D01*
X176927879Y-76767995D01*
X176947609Y-76741392D01*
X176969851Y-76716851D01*
X176994392Y-76694609D01*
X177020995Y-76674879D01*
X177049404Y-76657852D01*
X177079344Y-76643691D01*
X177110529Y-76632533D01*
X177142657Y-76624485D01*
X177175419Y-76619625D01*
X177208500Y-76618000D01*
X177883500Y-76618000D01*
X177916581Y-76619625D01*
X177916581Y-76619625D01*
G37*
D32*
X177546000Y-77343000D03*
D31*
G36*
X172201581Y-76647625D02*
G01*
X172234343Y-76652485D01*
X172266471Y-76660533D01*
X172297656Y-76671691D01*
X172327596Y-76685852D01*
X172356005Y-76702879D01*
X172382608Y-76722609D01*
X172407149Y-76744851D01*
X172429391Y-76769392D01*
X172449121Y-76795995D01*
X172466148Y-76824404D01*
X172480309Y-76854344D01*
X172491467Y-76885529D01*
X172499515Y-76917657D01*
X172504375Y-76950419D01*
X172506000Y-76983500D01*
X172506000Y-77758500D01*
X172504375Y-77791581D01*
X172499515Y-77824343D01*
X172491467Y-77856471D01*
X172480309Y-77887656D01*
X172466148Y-77917596D01*
X172449121Y-77946005D01*
X172429391Y-77972608D01*
X172407149Y-77997149D01*
X172382608Y-78019391D01*
X172356005Y-78039121D01*
X172327596Y-78056148D01*
X172297656Y-78070309D01*
X172266471Y-78081467D01*
X172234343Y-78089515D01*
X172201581Y-78094375D01*
X172168500Y-78096000D01*
X171493500Y-78096000D01*
X171460419Y-78094375D01*
X171427657Y-78089515D01*
X171395529Y-78081467D01*
X171364344Y-78070309D01*
X171334404Y-78056148D01*
X171305995Y-78039121D01*
X171279392Y-78019391D01*
X171254851Y-77997149D01*
X171232609Y-77972608D01*
X171212879Y-77946005D01*
X171195852Y-77917596D01*
X171181691Y-77887656D01*
X171170533Y-77856471D01*
X171162485Y-77824343D01*
X171157625Y-77791581D01*
X171156000Y-77758500D01*
X171156000Y-76983500D01*
X171157625Y-76950419D01*
X171162485Y-76917657D01*
X171170533Y-76885529D01*
X171181691Y-76854344D01*
X171195852Y-76824404D01*
X171212879Y-76795995D01*
X171232609Y-76769392D01*
X171254851Y-76744851D01*
X171279392Y-76722609D01*
X171305995Y-76702879D01*
X171334404Y-76685852D01*
X171364344Y-76671691D01*
X171395529Y-76660533D01*
X171427657Y-76652485D01*
X171460419Y-76647625D01*
X171493500Y-76646000D01*
X172168500Y-76646000D01*
X172201581Y-76647625D01*
X172201581Y-76647625D01*
G37*
D32*
X171831000Y-77371000D03*
D31*
G36*
X172201581Y-78397625D02*
G01*
X172234343Y-78402485D01*
X172266471Y-78410533D01*
X172297656Y-78421691D01*
X172327596Y-78435852D01*
X172356005Y-78452879D01*
X172382608Y-78472609D01*
X172407149Y-78494851D01*
X172429391Y-78519392D01*
X172449121Y-78545995D01*
X172466148Y-78574404D01*
X172480309Y-78604344D01*
X172491467Y-78635529D01*
X172499515Y-78667657D01*
X172504375Y-78700419D01*
X172506000Y-78733500D01*
X172506000Y-79508500D01*
X172504375Y-79541581D01*
X172499515Y-79574343D01*
X172491467Y-79606471D01*
X172480309Y-79637656D01*
X172466148Y-79667596D01*
X172449121Y-79696005D01*
X172429391Y-79722608D01*
X172407149Y-79747149D01*
X172382608Y-79769391D01*
X172356005Y-79789121D01*
X172327596Y-79806148D01*
X172297656Y-79820309D01*
X172266471Y-79831467D01*
X172234343Y-79839515D01*
X172201581Y-79844375D01*
X172168500Y-79846000D01*
X171493500Y-79846000D01*
X171460419Y-79844375D01*
X171427657Y-79839515D01*
X171395529Y-79831467D01*
X171364344Y-79820309D01*
X171334404Y-79806148D01*
X171305995Y-79789121D01*
X171279392Y-79769391D01*
X171254851Y-79747149D01*
X171232609Y-79722608D01*
X171212879Y-79696005D01*
X171195852Y-79667596D01*
X171181691Y-79637656D01*
X171170533Y-79606471D01*
X171162485Y-79574343D01*
X171157625Y-79541581D01*
X171156000Y-79508500D01*
X171156000Y-78733500D01*
X171157625Y-78700419D01*
X171162485Y-78667657D01*
X171170533Y-78635529D01*
X171181691Y-78604344D01*
X171195852Y-78574404D01*
X171212879Y-78545995D01*
X171232609Y-78519392D01*
X171254851Y-78494851D01*
X171279392Y-78472609D01*
X171305995Y-78452879D01*
X171334404Y-78435852D01*
X171364344Y-78421691D01*
X171395529Y-78410533D01*
X171427657Y-78402485D01*
X171460419Y-78397625D01*
X171493500Y-78396000D01*
X172168500Y-78396000D01*
X172201581Y-78397625D01*
X172201581Y-78397625D01*
G37*
D32*
X171831000Y-79121000D03*
D33*
X116840000Y-88265000D03*
X115570000Y-90170000D03*
X161697500Y-85952500D03*
X163422500Y-85952500D03*
X163422500Y-84227500D03*
X161697500Y-84227500D03*
X155956000Y-103632000D03*
X155956000Y-100838000D03*
X121920000Y-101600000D03*
X116840000Y-101600000D03*
D34*
X166624000Y-84455000D03*
X161544000Y-78486000D03*
D33*
X179070000Y-77089000D03*
D34*
X159512000Y-90170000D03*
X160782000Y-88900000D03*
X170942000Y-82550000D03*
X147320000Y-96012090D03*
D33*
X131064000Y-90170000D03*
D34*
X147320000Y-100076000D03*
D33*
X122555000Y-90170000D03*
D34*
X169926000Y-83566000D03*
X166370000Y-85090000D03*
X166370000Y-88900000D03*
X166370000Y-81788000D03*
X117602000Y-84074000D03*
X123444000Y-87122000D03*
X117094000Y-97028000D03*
X114300000Y-97028000D03*
X170688000Y-90170000D03*
X165769997Y-88900000D03*
X170688000Y-90770003D03*
X165100000Y-88900000D03*
X154432000Y-80772000D03*
X156863761Y-88259937D03*
X159371432Y-81201536D03*
X151130000Y-93472000D03*
X166370000Y-82550000D03*
X162687000Y-78486000D03*
X159004118Y-81695977D03*
X167640000Y-107972069D03*
X159004000Y-82295978D03*
X167640000Y-107372056D03*
X167640000Y-106772043D03*
X159004000Y-84836000D03*
X167640000Y-106171936D03*
X159512000Y-97536000D03*
X161290000Y-101346000D03*
X161036000Y-102870000D03*
X163830000Y-101346000D03*
X162052000Y-102870000D03*
X163068000Y-102870000D03*
X160782000Y-97536000D03*
X162052000Y-100330000D03*
X160181997Y-97536000D03*
X121920000Y-104140000D03*
D31*
G36*
X125425000Y-114050000D02*
G01*
X125425961Y-114059755D01*
X125428806Y-114069134D01*
X125433427Y-114077779D01*
X125439645Y-114085355D01*
X125447221Y-114091573D01*
X125455866Y-114096194D01*
X125465245Y-114099039D01*
X125475000Y-114100000D01*
X125484755Y-114099039D01*
X125494134Y-114096194D01*
X125502779Y-114091573D01*
X125510162Y-114085548D01*
X127725000Y-111894784D01*
X127725000Y-116375000D01*
X120850000Y-116375000D01*
X120850000Y-114071030D01*
X123075000Y-111893880D01*
X123075000Y-114050000D01*
X123075961Y-114059755D01*
X123078806Y-114069134D01*
X123083427Y-114077779D01*
X123089645Y-114085355D01*
X123097221Y-114091573D01*
X123105866Y-114096194D01*
X123115245Y-114099039D01*
X123125000Y-114100000D01*
X123134755Y-114099039D01*
X123144134Y-114096194D01*
X123152779Y-114091573D01*
X123159777Y-114085924D01*
X125425000Y-111892995D01*
X125425000Y-114050000D01*
X125425000Y-114050000D01*
G37*
X125425000Y-114050000D02*
X125425961Y-114059755D01*
X125428806Y-114069134D01*
X125433427Y-114077779D01*
X125439645Y-114085355D01*
X125447221Y-114091573D01*
X125455866Y-114096194D01*
X125465245Y-114099039D01*
X125475000Y-114100000D01*
X125484755Y-114099039D01*
X125494134Y-114096194D01*
X125502779Y-114091573D01*
X125510162Y-114085548D01*
X127725000Y-111894784D01*
X127725000Y-116375000D01*
X120850000Y-116375000D01*
X120850000Y-114071030D01*
X123075000Y-111893880D01*
X123075000Y-114050000D01*
X123075961Y-114059755D01*
X123078806Y-114069134D01*
X123083427Y-114077779D01*
X123089645Y-114085355D01*
X123097221Y-114091573D01*
X123105866Y-114096194D01*
X123115245Y-114099039D01*
X123125000Y-114100000D01*
X123134755Y-114099039D01*
X123144134Y-114096194D01*
X123152779Y-114091573D01*
X123159777Y-114085924D01*
X125425000Y-111892995D01*
X125425000Y-114050000D01*
G36*
X118304290Y-114025000D02*
G01*
X116400000Y-114025000D01*
X116390245Y-114025961D01*
X116380866Y-114028806D01*
X116372221Y-114033427D01*
X116364645Y-114039645D01*
X116358427Y-114047221D01*
X116353806Y-114055866D01*
X116350961Y-114065245D01*
X116350000Y-114075000D01*
X116350000Y-116375000D01*
X116175000Y-116375000D01*
X116175000Y-111895710D01*
X118304290Y-114025000D01*
X118304290Y-114025000D01*
G37*
X118304290Y-114025000D02*
X116400000Y-114025000D01*
X116390245Y-114025961D01*
X116380866Y-114028806D01*
X116372221Y-114033427D01*
X116364645Y-114039645D01*
X116358427Y-114047221D01*
X116353806Y-114055866D01*
X116350961Y-114065245D01*
X116350000Y-114075000D01*
X116350000Y-116375000D01*
X116175000Y-116375000D01*
X116175000Y-111895710D01*
X118304290Y-114025000D01*
M02*
