G04 #@! TF.FileFunction,Legend,Top*
%FSLAX46Y46*%
G04 Gerber Fmt 4.6, Leading zero omitted, Abs format (unit mm)*
G04 Created by KiCad (PCBNEW 4.0.7) date 04/10/18 01:40:05*
%MOMM*%
%LPD*%
G01*
G04 APERTURE LIST*
%ADD10C,0.100000*%
%ADD11C,0.120000*%
%ADD12C,0.150000*%
%ADD13C,0.010000*%
%ADD14R,1.900000X1.650000*%
%ADD15R,2.400000X2.100000*%
%ADD16R,1.650000X1.900000*%
%ADD17R,1.150000X1.600000*%
%ADD18R,1.600000X1.150000*%
%ADD19R,1.900000X1.700000*%
%ADD20O,1.800000X1.200000*%
%ADD21R,1.100000X0.700000*%
%ADD22O,1.050000X1.350000*%
%ADD23C,1.050000*%
%ADD24C,2.900000*%
%ADD25R,1.600000X3.100000*%
%ADD26R,1.700000X1.900000*%
%ADD27R,0.650000X1.100000*%
%ADD28R,1.600000X1.040000*%
%ADD29R,1.000000X1.950000*%
%ADD30R,1.100000X0.650000*%
%ADD31R,2.125000X2.125000*%
%ADD32R,1.800000X1.600000*%
%ADD33R,0.800000X1.100000*%
%ADD34C,1.900000*%
G04 APERTURE END LIST*
D10*
D11*
X119515000Y-89115000D02*
X120515000Y-89115000D01*
X120515000Y-87415000D02*
X119515000Y-87415000D01*
X150373701Y-104103393D02*
X150373701Y-103103393D01*
X148673701Y-103103393D02*
X148673701Y-104103393D01*
X119515000Y-82765000D02*
X120515000Y-82765000D01*
X120515000Y-81065000D02*
X119515000Y-81065000D01*
X155453701Y-104123393D02*
X155453701Y-103123393D01*
X153753701Y-103123393D02*
X153753701Y-104123393D01*
X172685000Y-85375000D02*
X172685000Y-86075000D01*
X171485000Y-86075000D02*
X171485000Y-85375000D01*
X168560000Y-88300000D02*
X169260000Y-88300000D01*
X169260000Y-89500000D02*
X168560000Y-89500000D01*
X169410000Y-99480000D02*
X168410000Y-99480000D01*
X168410000Y-101180000D02*
X169410000Y-101180000D01*
X168940000Y-83150000D02*
X168240000Y-83150000D01*
X168240000Y-81950000D02*
X168940000Y-81950000D01*
X175610000Y-80610000D02*
X174910000Y-80610000D01*
X174910000Y-79410000D02*
X175610000Y-79410000D01*
X155710000Y-82765000D02*
X156710000Y-82765000D01*
X156710000Y-81065000D02*
X155710000Y-81065000D01*
X160055000Y-79090000D02*
X160055000Y-78390000D01*
X161255000Y-78390000D02*
X161255000Y-79090000D01*
X157210000Y-116320000D02*
X154010000Y-116320000D01*
X154010000Y-114820000D02*
X157210000Y-114820000D01*
X154010000Y-114820000D02*
X154010000Y-116320000D01*
X164830000Y-116320000D02*
X161630000Y-116320000D01*
X161630000Y-114820000D02*
X164830000Y-114820000D01*
X161630000Y-114820000D02*
X161630000Y-116320000D01*
X172450000Y-116320000D02*
X169250000Y-116320000D01*
X169250000Y-114820000D02*
X172450000Y-114820000D01*
X169250000Y-114820000D02*
X169250000Y-116320000D01*
X180070000Y-116320000D02*
X176870000Y-116320000D01*
X176870000Y-114820000D02*
X180070000Y-114820000D01*
X176870000Y-114820000D02*
X176870000Y-116320000D01*
X187690000Y-116320000D02*
X184490000Y-116320000D01*
X184490000Y-114820000D02*
X187690000Y-114820000D01*
X184490000Y-114820000D02*
X184490000Y-116320000D01*
X120795000Y-104850000D02*
X120795000Y-106350000D01*
X120795000Y-106350000D02*
X113535000Y-106350000D01*
X120795000Y-96850000D02*
X113535000Y-96850000D01*
X120795000Y-96850000D02*
X120795000Y-98350000D01*
X116450000Y-84490000D02*
X116450000Y-85690000D01*
X114690000Y-85690000D02*
X114690000Y-84490000D01*
X147910000Y-93735000D02*
X149110000Y-93735000D01*
X149110000Y-95495000D02*
X147910000Y-95495000D01*
X154350000Y-95495000D02*
X153150000Y-95495000D01*
X153150000Y-93735000D02*
X154350000Y-93735000D01*
X168310000Y-101990000D02*
X169510000Y-101990000D01*
X169510000Y-103750000D02*
X168310000Y-103750000D01*
X173600000Y-101000000D02*
X173600000Y-102200000D01*
X171840000Y-102200000D02*
X171840000Y-101000000D01*
X163585000Y-79340000D02*
X163585000Y-78140000D01*
X165345000Y-78140000D02*
X165345000Y-79340000D01*
X163440000Y-94730000D02*
X163440000Y-95930000D01*
X161680000Y-95930000D02*
X161680000Y-94730000D01*
X156810000Y-113910000D02*
X155610000Y-113910000D01*
X155610000Y-112150000D02*
X156810000Y-112150000D01*
X164430000Y-113910000D02*
X163230000Y-113910000D01*
X163230000Y-112150000D02*
X164430000Y-112150000D01*
X172050000Y-113910000D02*
X170850000Y-113910000D01*
X170850000Y-112150000D02*
X172050000Y-112150000D01*
X179670000Y-113910000D02*
X178470000Y-113910000D01*
X178470000Y-112150000D02*
X179670000Y-112150000D01*
X187290000Y-113910000D02*
X186090000Y-113910000D01*
X186090000Y-112150000D02*
X187290000Y-112150000D01*
X155610000Y-86115000D02*
X156810000Y-86115000D01*
X156810000Y-87875000D02*
X155610000Y-87875000D01*
X155610000Y-88655000D02*
X156810000Y-88655000D01*
X156810000Y-90415000D02*
X155610000Y-90415000D01*
X155610000Y-83575000D02*
X156810000Y-83575000D01*
X156810000Y-85335000D02*
X155610000Y-85335000D01*
D12*
X117755000Y-84542881D02*
X117755000Y-85692881D01*
X121005000Y-83767881D02*
X121005000Y-85692881D01*
X159985000Y-103675000D02*
X160035000Y-103675000D01*
X159985000Y-99525000D02*
X160130000Y-99525000D01*
X165135000Y-99525000D02*
X164990000Y-99525000D01*
X165135000Y-103675000D02*
X164990000Y-103675000D01*
X159985000Y-103675000D02*
X159985000Y-99525000D01*
X165135000Y-103675000D02*
X165135000Y-99525000D01*
X160035000Y-103675000D02*
X160035000Y-105075000D01*
X165185000Y-87715000D02*
X164660000Y-87715000D01*
X159935000Y-82465000D02*
X160460000Y-82465000D01*
X159935000Y-87715000D02*
X160460000Y-87715000D01*
X165185000Y-82465000D02*
X165185000Y-82990000D01*
X159935000Y-82465000D02*
X159935000Y-82990000D01*
X159935000Y-87715000D02*
X159935000Y-87190000D01*
X165185000Y-87715000D02*
X165185000Y-87190000D01*
D11*
X170910000Y-87375000D02*
X170910000Y-84075000D01*
X170910000Y-84075000D02*
X166910000Y-84075000D01*
D13*
G36*
X178537569Y-126601109D02*
X178557932Y-126619596D01*
X178561990Y-126666277D01*
X178562000Y-126671916D01*
X178558723Y-126721569D01*
X178540236Y-126741932D01*
X178493555Y-126745990D01*
X178487916Y-126746000D01*
X178438263Y-126742723D01*
X178417900Y-126724236D01*
X178413842Y-126677555D01*
X178413833Y-126671916D01*
X178417109Y-126622263D01*
X178435596Y-126601900D01*
X178482277Y-126597842D01*
X178487916Y-126597833D01*
X178537569Y-126601109D01*
X178537569Y-126601109D01*
G37*
X178537569Y-126601109D02*
X178557932Y-126619596D01*
X178561990Y-126666277D01*
X178562000Y-126671916D01*
X178558723Y-126721569D01*
X178540236Y-126741932D01*
X178493555Y-126745990D01*
X178487916Y-126746000D01*
X178438263Y-126742723D01*
X178417900Y-126724236D01*
X178413842Y-126677555D01*
X178413833Y-126671916D01*
X178417109Y-126622263D01*
X178435596Y-126601900D01*
X178482277Y-126597842D01*
X178487916Y-126597833D01*
X178537569Y-126601109D01*
G36*
X179345166Y-126746000D02*
X178689000Y-126746000D01*
X178689000Y-126597833D01*
X179345166Y-126597833D01*
X179345166Y-126746000D01*
X179345166Y-126746000D01*
G37*
X179345166Y-126746000D02*
X178689000Y-126746000D01*
X178689000Y-126597833D01*
X179345166Y-126597833D01*
X179345166Y-126746000D01*
G36*
X179345166Y-125899333D02*
X179157825Y-125899333D01*
X179017276Y-125904770D01*
X178914760Y-125921572D01*
X178847333Y-125950474D01*
X178815553Y-125984834D01*
X178795570Y-126063356D01*
X178814086Y-126141105D01*
X178846787Y-126186045D01*
X178872969Y-126209348D01*
X178901773Y-126224410D01*
X178942647Y-126233014D01*
X179005038Y-126236943D01*
X179098392Y-126237982D01*
X179121954Y-126238000D01*
X179345166Y-126238000D01*
X179345166Y-126386166D01*
X178689000Y-126386166D01*
X178689000Y-126322666D01*
X178698466Y-126272253D01*
X178720750Y-126259166D01*
X178742769Y-126258287D01*
X178749333Y-126249145D01*
X178739358Y-126221982D01*
X178711761Y-126167042D01*
X178710166Y-126163916D01*
X178680464Y-126098641D01*
X178670057Y-126046197D01*
X178677231Y-125986740D01*
X178690416Y-125935273D01*
X178714559Y-125873720D01*
X178751738Y-125829286D01*
X178808189Y-125799469D01*
X178890144Y-125781771D01*
X179003836Y-125773691D01*
X179096458Y-125772412D01*
X179345166Y-125772333D01*
X179345166Y-125899333D01*
X179345166Y-125899333D01*
G37*
X179345166Y-125899333D02*
X179157825Y-125899333D01*
X179017276Y-125904770D01*
X178914760Y-125921572D01*
X178847333Y-125950474D01*
X178815553Y-125984834D01*
X178795570Y-126063356D01*
X178814086Y-126141105D01*
X178846787Y-126186045D01*
X178872969Y-126209348D01*
X178901773Y-126224410D01*
X178942647Y-126233014D01*
X179005038Y-126236943D01*
X179098392Y-126237982D01*
X179121954Y-126238000D01*
X179345166Y-126238000D01*
X179345166Y-126386166D01*
X178689000Y-126386166D01*
X178689000Y-126322666D01*
X178698466Y-126272253D01*
X178720750Y-126259166D01*
X178742769Y-126258287D01*
X178749333Y-126249145D01*
X178739358Y-126221982D01*
X178711761Y-126167042D01*
X178710166Y-126163916D01*
X178680464Y-126098641D01*
X178670057Y-126046197D01*
X178677231Y-125986740D01*
X178690416Y-125935273D01*
X178714559Y-125873720D01*
X178751738Y-125829286D01*
X178808189Y-125799469D01*
X178890144Y-125781771D01*
X179003836Y-125773691D01*
X179096458Y-125772412D01*
X179345166Y-125772333D01*
X179345166Y-125899333D01*
G36*
X179319257Y-125224312D02*
X179338002Y-125238528D01*
X179344453Y-125275570D01*
X179345166Y-125327833D01*
X179340971Y-125402601D01*
X179324266Y-125455042D01*
X179288872Y-125488993D01*
X179228608Y-125508288D01*
X179137294Y-125516764D01*
X179038250Y-125518333D01*
X178816000Y-125518333D01*
X178816000Y-125581833D01*
X178810710Y-125626845D01*
X178786075Y-125643428D01*
X178753905Y-125645333D01*
X178708076Y-125638495D01*
X178688873Y-125609736D01*
X178685114Y-125587125D01*
X178676182Y-125550059D01*
X178652343Y-125531585D01*
X178601072Y-125523416D01*
X178587212Y-125522347D01*
X178530537Y-125516345D01*
X178505281Y-125502954D01*
X178500583Y-125472671D01*
X178502545Y-125448263D01*
X178510247Y-125405476D01*
X178530788Y-125384644D01*
X178576884Y-125376014D01*
X178599041Y-125374241D01*
X178655446Y-125367994D01*
X178681380Y-125353240D01*
X178688660Y-125319550D01*
X178689000Y-125294866D01*
X178692693Y-125245628D01*
X178711279Y-125225648D01*
X178752500Y-125222000D01*
X178795163Y-125226129D01*
X178812661Y-125247077D01*
X178816000Y-125296083D01*
X178816000Y-125370166D01*
X179218166Y-125370166D01*
X179218166Y-125296083D01*
X179221706Y-125246309D01*
X179239661Y-125225894D01*
X179281666Y-125222000D01*
X179319257Y-125224312D01*
X179319257Y-125224312D01*
G37*
X179319257Y-125224312D02*
X179338002Y-125238528D01*
X179344453Y-125275570D01*
X179345166Y-125327833D01*
X179340971Y-125402601D01*
X179324266Y-125455042D01*
X179288872Y-125488993D01*
X179228608Y-125508288D01*
X179137294Y-125516764D01*
X179038250Y-125518333D01*
X178816000Y-125518333D01*
X178816000Y-125581833D01*
X178810710Y-125626845D01*
X178786075Y-125643428D01*
X178753905Y-125645333D01*
X178708076Y-125638495D01*
X178688873Y-125609736D01*
X178685114Y-125587125D01*
X178676182Y-125550059D01*
X178652343Y-125531585D01*
X178601072Y-125523416D01*
X178587212Y-125522347D01*
X178530537Y-125516345D01*
X178505281Y-125502954D01*
X178500583Y-125472671D01*
X178502545Y-125448263D01*
X178510247Y-125405476D01*
X178530788Y-125384644D01*
X178576884Y-125376014D01*
X178599041Y-125374241D01*
X178655446Y-125367994D01*
X178681380Y-125353240D01*
X178688660Y-125319550D01*
X178689000Y-125294866D01*
X178692693Y-125245628D01*
X178711279Y-125225648D01*
X178752500Y-125222000D01*
X178795163Y-125226129D01*
X178812661Y-125247077D01*
X178816000Y-125296083D01*
X178816000Y-125370166D01*
X179218166Y-125370166D01*
X179218166Y-125296083D01*
X179221706Y-125246309D01*
X179239661Y-125225894D01*
X179281666Y-125222000D01*
X179319257Y-125224312D01*
G36*
X179048833Y-124665433D02*
X179049812Y-124764793D01*
X179052476Y-124847999D01*
X179056419Y-124906317D01*
X179061216Y-124930993D01*
X179090957Y-124934974D01*
X179137784Y-124920266D01*
X179185324Y-124894116D01*
X179217204Y-124863771D01*
X179218613Y-124861331D01*
X179240024Y-124785343D01*
X179234740Y-124702260D01*
X179205072Y-124630251D01*
X179186416Y-124608166D01*
X179153376Y-124563103D01*
X179135382Y-124511588D01*
X179134266Y-124466535D01*
X179151859Y-124440856D01*
X179162395Y-124438833D01*
X179213432Y-124457305D01*
X179267653Y-124505982D01*
X179315322Y-124574754D01*
X179335729Y-124618805D01*
X179362837Y-124738992D01*
X179352330Y-124848340D01*
X179308507Y-124941968D01*
X179235664Y-125014992D01*
X179138101Y-125062529D01*
X179020114Y-125079696D01*
X178936337Y-125072569D01*
X178827880Y-125035778D01*
X178747745Y-124968330D01*
X178697751Y-124872579D01*
X178679718Y-124750879D01*
X178679707Y-124740512D01*
X178680545Y-124735581D01*
X178797562Y-124735581D01*
X178799095Y-124805198D01*
X178820975Y-124866674D01*
X178863050Y-124910114D01*
X178921833Y-124925666D01*
X178942351Y-124922341D01*
X178954914Y-124906869D01*
X178961448Y-124871003D01*
X178963877Y-124806496D01*
X178964166Y-124744323D01*
X178963697Y-124656958D01*
X178960832Y-124604233D01*
X178953384Y-124578458D01*
X178939165Y-124571941D01*
X178916541Y-124576829D01*
X178856135Y-124611502D01*
X178816526Y-124667718D01*
X178797562Y-124735581D01*
X178680545Y-124735581D01*
X178699314Y-124625160D01*
X178753697Y-124531876D01*
X178839399Y-124464554D01*
X178952960Y-124427086D01*
X178958875Y-124426133D01*
X179048833Y-124412256D01*
X179048833Y-124665433D01*
X179048833Y-124665433D01*
G37*
X179048833Y-124665433D02*
X179049812Y-124764793D01*
X179052476Y-124847999D01*
X179056419Y-124906317D01*
X179061216Y-124930993D01*
X179090957Y-124934974D01*
X179137784Y-124920266D01*
X179185324Y-124894116D01*
X179217204Y-124863771D01*
X179218613Y-124861331D01*
X179240024Y-124785343D01*
X179234740Y-124702260D01*
X179205072Y-124630251D01*
X179186416Y-124608166D01*
X179153376Y-124563103D01*
X179135382Y-124511588D01*
X179134266Y-124466535D01*
X179151859Y-124440856D01*
X179162395Y-124438833D01*
X179213432Y-124457305D01*
X179267653Y-124505982D01*
X179315322Y-124574754D01*
X179335729Y-124618805D01*
X179362837Y-124738992D01*
X179352330Y-124848340D01*
X179308507Y-124941968D01*
X179235664Y-125014992D01*
X179138101Y-125062529D01*
X179020114Y-125079696D01*
X178936337Y-125072569D01*
X178827880Y-125035778D01*
X178747745Y-124968330D01*
X178697751Y-124872579D01*
X178679718Y-124750879D01*
X178679707Y-124740512D01*
X178680545Y-124735581D01*
X178797562Y-124735581D01*
X178799095Y-124805198D01*
X178820975Y-124866674D01*
X178863050Y-124910114D01*
X178921833Y-124925666D01*
X178942351Y-124922341D01*
X178954914Y-124906869D01*
X178961448Y-124871003D01*
X178963877Y-124806496D01*
X178964166Y-124744323D01*
X178963697Y-124656958D01*
X178960832Y-124604233D01*
X178953384Y-124578458D01*
X178939165Y-124571941D01*
X178916541Y-124576829D01*
X178856135Y-124611502D01*
X178816526Y-124667718D01*
X178797562Y-124735581D01*
X178680545Y-124735581D01*
X178699314Y-124625160D01*
X178753697Y-124531876D01*
X178839399Y-124464554D01*
X178952960Y-124427086D01*
X178958875Y-124426133D01*
X179048833Y-124412256D01*
X179048833Y-124665433D01*
G36*
X186858259Y-124269055D02*
X186920170Y-124315766D01*
X186961836Y-124389420D01*
X186983457Y-124479888D01*
X186985231Y-124577043D01*
X186967360Y-124670760D01*
X186930044Y-124750911D01*
X186873482Y-124807368D01*
X186847362Y-124820360D01*
X186799720Y-124836828D01*
X186779385Y-124831133D01*
X186774736Y-124794959D01*
X186774666Y-124768343D01*
X186782392Y-124712384D01*
X186809305Y-124685113D01*
X186816950Y-124682265D01*
X186853186Y-124650933D01*
X186874550Y-124594119D01*
X186880200Y-124526283D01*
X186869293Y-124461885D01*
X186840984Y-124415385D01*
X186832875Y-124409326D01*
X186785740Y-124396808D01*
X186746548Y-124424057D01*
X186714614Y-124491853D01*
X186695683Y-124566466D01*
X186666561Y-124678862D01*
X186630850Y-124754296D01*
X186585502Y-124797990D01*
X186553057Y-124810980D01*
X186470300Y-124813064D01*
X186400348Y-124778475D01*
X186347495Y-124712011D01*
X186316032Y-124618467D01*
X186309032Y-124538323D01*
X186321949Y-124432487D01*
X186357946Y-124348163D01*
X186412783Y-124291738D01*
X186482220Y-124269600D01*
X186487525Y-124269500D01*
X186515075Y-124285065D01*
X186521222Y-124323070D01*
X186507663Y-124370481D01*
X186476095Y-124414260D01*
X186467750Y-124421448D01*
X186428853Y-124470804D01*
X186412909Y-124531145D01*
X186417823Y-124591392D01*
X186441500Y-124640471D01*
X186481846Y-124667303D01*
X186514358Y-124667901D01*
X186532288Y-124659880D01*
X186547979Y-124639046D01*
X186563756Y-124598895D01*
X186581942Y-124532922D01*
X186604860Y-124434622D01*
X186616461Y-124382105D01*
X186650874Y-124312874D01*
X186711887Y-124268507D01*
X186788689Y-124254058D01*
X186858259Y-124269055D01*
X186858259Y-124269055D01*
G37*
X186858259Y-124269055D02*
X186920170Y-124315766D01*
X186961836Y-124389420D01*
X186983457Y-124479888D01*
X186985231Y-124577043D01*
X186967360Y-124670760D01*
X186930044Y-124750911D01*
X186873482Y-124807368D01*
X186847362Y-124820360D01*
X186799720Y-124836828D01*
X186779385Y-124831133D01*
X186774736Y-124794959D01*
X186774666Y-124768343D01*
X186782392Y-124712384D01*
X186809305Y-124685113D01*
X186816950Y-124682265D01*
X186853186Y-124650933D01*
X186874550Y-124594119D01*
X186880200Y-124526283D01*
X186869293Y-124461885D01*
X186840984Y-124415385D01*
X186832875Y-124409326D01*
X186785740Y-124396808D01*
X186746548Y-124424057D01*
X186714614Y-124491853D01*
X186695683Y-124566466D01*
X186666561Y-124678862D01*
X186630850Y-124754296D01*
X186585502Y-124797990D01*
X186553057Y-124810980D01*
X186470300Y-124813064D01*
X186400348Y-124778475D01*
X186347495Y-124712011D01*
X186316032Y-124618467D01*
X186309032Y-124538323D01*
X186321949Y-124432487D01*
X186357946Y-124348163D01*
X186412783Y-124291738D01*
X186482220Y-124269600D01*
X186487525Y-124269500D01*
X186515075Y-124285065D01*
X186521222Y-124323070D01*
X186507663Y-124370481D01*
X186476095Y-124414260D01*
X186467750Y-124421448D01*
X186428853Y-124470804D01*
X186412909Y-124531145D01*
X186417823Y-124591392D01*
X186441500Y-124640471D01*
X186481846Y-124667303D01*
X186514358Y-124667901D01*
X186532288Y-124659880D01*
X186547979Y-124639046D01*
X186563756Y-124598895D01*
X186581942Y-124532922D01*
X186604860Y-124434622D01*
X186616461Y-124382105D01*
X186650874Y-124312874D01*
X186711887Y-124268507D01*
X186788689Y-124254058D01*
X186858259Y-124269055D01*
G36*
X171576748Y-123922452D02*
X171638301Y-123953872D01*
X171683721Y-123993521D01*
X171693291Y-124009425D01*
X171726812Y-124128029D01*
X171731081Y-124241875D01*
X171708153Y-124343481D01*
X171660082Y-124425370D01*
X171588921Y-124480060D01*
X171561125Y-124490743D01*
X171528768Y-124495822D01*
X171515722Y-124477234D01*
X171513500Y-124434695D01*
X171522738Y-124377512D01*
X171555115Y-124345894D01*
X171560577Y-124343310D01*
X171605143Y-124304312D01*
X171627791Y-124245289D01*
X171629446Y-124178859D01*
X171611029Y-124117638D01*
X171573466Y-124074245D01*
X171539964Y-124061679D01*
X171507269Y-124064725D01*
X171481641Y-124088616D01*
X171459848Y-124139517D01*
X171438654Y-124223590D01*
X171428358Y-124274366D01*
X171395120Y-124378822D01*
X171344033Y-124446861D01*
X171276929Y-124477203D01*
X171195642Y-124468572D01*
X171166266Y-124457067D01*
X171107427Y-124410709D01*
X171069289Y-124340949D01*
X171050832Y-124256717D01*
X171051035Y-124166946D01*
X171068880Y-124080567D01*
X171103345Y-124006511D01*
X171153411Y-123953710D01*
X171218057Y-123931095D01*
X171226358Y-123930833D01*
X171254213Y-123946620D01*
X171261659Y-123984941D01*
X171250406Y-124032233D01*
X171222165Y-124074936D01*
X171206583Y-124087636D01*
X171168414Y-124124758D01*
X171154394Y-124178561D01*
X171153666Y-124202254D01*
X171165500Y-124280310D01*
X171201095Y-124323443D01*
X171243020Y-124333000D01*
X171273451Y-124322490D01*
X171298655Y-124287124D01*
X171321333Y-124221147D01*
X171344187Y-124118803D01*
X171344641Y-124116466D01*
X171376792Y-124016713D01*
X171426671Y-123947193D01*
X171490325Y-123912642D01*
X171517405Y-123909666D01*
X171576748Y-123922452D01*
X171576748Y-123922452D01*
G37*
X171576748Y-123922452D02*
X171638301Y-123953872D01*
X171683721Y-123993521D01*
X171693291Y-124009425D01*
X171726812Y-124128029D01*
X171731081Y-124241875D01*
X171708153Y-124343481D01*
X171660082Y-124425370D01*
X171588921Y-124480060D01*
X171561125Y-124490743D01*
X171528768Y-124495822D01*
X171515722Y-124477234D01*
X171513500Y-124434695D01*
X171522738Y-124377512D01*
X171555115Y-124345894D01*
X171560577Y-124343310D01*
X171605143Y-124304312D01*
X171627791Y-124245289D01*
X171629446Y-124178859D01*
X171611029Y-124117638D01*
X171573466Y-124074245D01*
X171539964Y-124061679D01*
X171507269Y-124064725D01*
X171481641Y-124088616D01*
X171459848Y-124139517D01*
X171438654Y-124223590D01*
X171428358Y-124274366D01*
X171395120Y-124378822D01*
X171344033Y-124446861D01*
X171276929Y-124477203D01*
X171195642Y-124468572D01*
X171166266Y-124457067D01*
X171107427Y-124410709D01*
X171069289Y-124340949D01*
X171050832Y-124256717D01*
X171051035Y-124166946D01*
X171068880Y-124080567D01*
X171103345Y-124006511D01*
X171153411Y-123953710D01*
X171218057Y-123931095D01*
X171226358Y-123930833D01*
X171254213Y-123946620D01*
X171261659Y-123984941D01*
X171250406Y-124032233D01*
X171222165Y-124074936D01*
X171206583Y-124087636D01*
X171168414Y-124124758D01*
X171154394Y-124178561D01*
X171153666Y-124202254D01*
X171165500Y-124280310D01*
X171201095Y-124323443D01*
X171243020Y-124333000D01*
X171273451Y-124322490D01*
X171298655Y-124287124D01*
X171321333Y-124221147D01*
X171344187Y-124118803D01*
X171344641Y-124116466D01*
X171376792Y-124016713D01*
X171426671Y-123947193D01*
X171490325Y-123912642D01*
X171517405Y-123909666D01*
X171576748Y-123922452D01*
G36*
X178793786Y-123849727D02*
X178811726Y-123868640D01*
X178815952Y-123915251D01*
X178816000Y-123927552D01*
X178821848Y-123990680D01*
X178843339Y-124035654D01*
X178886386Y-124065713D01*
X178956908Y-124084097D01*
X179060819Y-124094045D01*
X179125082Y-124096801D01*
X179345166Y-124104020D01*
X179345166Y-124227166D01*
X178689000Y-124227166D01*
X178689000Y-124163666D01*
X178698466Y-124113253D01*
X178720750Y-124100166D01*
X178748281Y-124091333D01*
X178743248Y-124062216D01*
X178720076Y-124027329D01*
X178697935Y-123977042D01*
X178689000Y-123916204D01*
X178693087Y-123868227D01*
X178713272Y-123849264D01*
X178752500Y-123846166D01*
X178793786Y-123849727D01*
X178793786Y-123849727D01*
G37*
X178793786Y-123849727D02*
X178811726Y-123868640D01*
X178815952Y-123915251D01*
X178816000Y-123927552D01*
X178821848Y-123990680D01*
X178843339Y-124035654D01*
X178886386Y-124065713D01*
X178956908Y-124084097D01*
X179060819Y-124094045D01*
X179125082Y-124096801D01*
X179345166Y-124104020D01*
X179345166Y-124227166D01*
X178689000Y-124227166D01*
X178689000Y-124163666D01*
X178698466Y-124113253D01*
X178720750Y-124100166D01*
X178748281Y-124091333D01*
X178743248Y-124062216D01*
X178720076Y-124027329D01*
X178697935Y-123977042D01*
X178689000Y-123916204D01*
X178693087Y-123868227D01*
X178713272Y-123849264D01*
X178752500Y-123846166D01*
X178793786Y-123849727D01*
G36*
X186971999Y-123451320D02*
X186985234Y-123481660D01*
X186986333Y-123507500D01*
X186973118Y-123567742D01*
X186946267Y-123611065D01*
X186919849Y-123643509D01*
X186924419Y-123667801D01*
X186938038Y-123682967D01*
X186961455Y-123727366D01*
X186977935Y-123797376D01*
X186985126Y-123876524D01*
X186980681Y-123948338D01*
X186977822Y-123961862D01*
X186940359Y-124033884D01*
X186877265Y-124082159D01*
X186800282Y-124102822D01*
X186721153Y-124092009D01*
X186670133Y-124063125D01*
X186628764Y-124005826D01*
X186599950Y-123914999D01*
X186585776Y-123798129D01*
X186585257Y-123778433D01*
X186690000Y-123778433D01*
X186696023Y-123868198D01*
X186716221Y-123922897D01*
X186753787Y-123948347D01*
X186785250Y-123952000D01*
X186833823Y-123940537D01*
X186855100Y-123926600D01*
X186872748Y-123888945D01*
X186880485Y-123832826D01*
X186880500Y-123830387D01*
X186864591Y-123762834D01*
X186824170Y-123702986D01*
X186770190Y-123663845D01*
X186733295Y-123655666D01*
X186708823Y-123660207D01*
X186695783Y-123680410D01*
X186690694Y-123726142D01*
X186690000Y-123778433D01*
X186585257Y-123778433D01*
X186584671Y-123756208D01*
X186581857Y-123694651D01*
X186571224Y-123664722D01*
X186548266Y-123655846D01*
X186541833Y-123655666D01*
X186480898Y-123673392D01*
X186439152Y-123719166D01*
X186419679Y-123781888D01*
X186425567Y-123850454D01*
X186459901Y-123913763D01*
X186467750Y-123922174D01*
X186509716Y-123979442D01*
X186521790Y-124029218D01*
X186508748Y-124063977D01*
X186475367Y-124076193D01*
X186426423Y-124058342D01*
X186396361Y-124034634D01*
X186342358Y-123964702D01*
X186314698Y-123875458D01*
X186309000Y-123790820D01*
X186320440Y-123685898D01*
X186356957Y-123607610D01*
X186421848Y-123553507D01*
X186518407Y-123521136D01*
X186649932Y-123508047D01*
X186689984Y-123507500D01*
X186780437Y-123505617D01*
X186836320Y-123499088D01*
X186865265Y-123486585D01*
X186872845Y-123475750D01*
X186901174Y-123451078D01*
X186935681Y-123444000D01*
X186971999Y-123451320D01*
X186971999Y-123451320D01*
G37*
X186971999Y-123451320D02*
X186985234Y-123481660D01*
X186986333Y-123507500D01*
X186973118Y-123567742D01*
X186946267Y-123611065D01*
X186919849Y-123643509D01*
X186924419Y-123667801D01*
X186938038Y-123682967D01*
X186961455Y-123727366D01*
X186977935Y-123797376D01*
X186985126Y-123876524D01*
X186980681Y-123948338D01*
X186977822Y-123961862D01*
X186940359Y-124033884D01*
X186877265Y-124082159D01*
X186800282Y-124102822D01*
X186721153Y-124092009D01*
X186670133Y-124063125D01*
X186628764Y-124005826D01*
X186599950Y-123914999D01*
X186585776Y-123798129D01*
X186585257Y-123778433D01*
X186690000Y-123778433D01*
X186696023Y-123868198D01*
X186716221Y-123922897D01*
X186753787Y-123948347D01*
X186785250Y-123952000D01*
X186833823Y-123940537D01*
X186855100Y-123926600D01*
X186872748Y-123888945D01*
X186880485Y-123832826D01*
X186880500Y-123830387D01*
X186864591Y-123762834D01*
X186824170Y-123702986D01*
X186770190Y-123663845D01*
X186733295Y-123655666D01*
X186708823Y-123660207D01*
X186695783Y-123680410D01*
X186690694Y-123726142D01*
X186690000Y-123778433D01*
X186585257Y-123778433D01*
X186584671Y-123756208D01*
X186581857Y-123694651D01*
X186571224Y-123664722D01*
X186548266Y-123655846D01*
X186541833Y-123655666D01*
X186480898Y-123673392D01*
X186439152Y-123719166D01*
X186419679Y-123781888D01*
X186425567Y-123850454D01*
X186459901Y-123913763D01*
X186467750Y-123922174D01*
X186509716Y-123979442D01*
X186521790Y-124029218D01*
X186508748Y-124063977D01*
X186475367Y-124076193D01*
X186426423Y-124058342D01*
X186396361Y-124034634D01*
X186342358Y-123964702D01*
X186314698Y-123875458D01*
X186309000Y-123790820D01*
X186320440Y-123685898D01*
X186356957Y-123607610D01*
X186421848Y-123553507D01*
X186518407Y-123521136D01*
X186649932Y-123508047D01*
X186689984Y-123507500D01*
X186780437Y-123505617D01*
X186836320Y-123499088D01*
X186865265Y-123486585D01*
X186872845Y-123475750D01*
X186901174Y-123451078D01*
X186935681Y-123444000D01*
X186971999Y-123451320D01*
G36*
X156464000Y-124079000D02*
X155487651Y-124079000D01*
X155494283Y-124010208D01*
X155500916Y-123941416D01*
X156464000Y-123930038D01*
X156464000Y-124079000D01*
X156464000Y-124079000D01*
G37*
X156464000Y-124079000D02*
X155487651Y-124079000D01*
X155494283Y-124010208D01*
X155500916Y-123941416D01*
X156464000Y-123930038D01*
X156464000Y-124079000D01*
G36*
X144631833Y-123973166D02*
X131699000Y-123973166D01*
X131699000Y-119316500D01*
X144631833Y-119316500D01*
X144631833Y-123973166D01*
X144631833Y-123973166D01*
G37*
X144631833Y-123973166D02*
X131699000Y-123973166D01*
X131699000Y-119316500D01*
X144631833Y-119316500D01*
X144631833Y-123973166D01*
G36*
X171428833Y-123356640D02*
X171430407Y-123461428D01*
X171434774Y-123543624D01*
X171441404Y-123596464D01*
X171449004Y-123613333D01*
X171506637Y-123597004D01*
X171563389Y-123557354D01*
X171595832Y-123514753D01*
X171618632Y-123423456D01*
X171601810Y-123341074D01*
X171564968Y-123289574D01*
X171524159Y-123232030D01*
X171517343Y-123170793D01*
X171524888Y-123127413D01*
X171542258Y-123118343D01*
X171574959Y-123132314D01*
X171648707Y-123191943D01*
X171702198Y-123278855D01*
X171730682Y-123380940D01*
X171729411Y-123486092D01*
X171723785Y-123511829D01*
X171676271Y-123616632D01*
X171600948Y-123694615D01*
X171504871Y-123742968D01*
X171395097Y-123758881D01*
X171278680Y-123739546D01*
X171216359Y-123713875D01*
X171129568Y-123650072D01*
X171073587Y-123567395D01*
X171047048Y-123473645D01*
X171047411Y-123450608D01*
X171156728Y-123450608D01*
X171192853Y-123525735D01*
X171215538Y-123551461D01*
X171259535Y-123590357D01*
X171293751Y-123611845D01*
X171300205Y-123613333D01*
X171312376Y-123592844D01*
X171320120Y-123533713D01*
X171322992Y-123439442D01*
X171323000Y-123433416D01*
X171320078Y-123334296D01*
X171309630Y-123274463D01*
X171289134Y-123251165D01*
X171256067Y-123261654D01*
X171207905Y-123303178D01*
X171205621Y-123305454D01*
X171160906Y-123375243D01*
X171156728Y-123450608D01*
X171047411Y-123450608D01*
X171048580Y-123376624D01*
X171076816Y-123284134D01*
X171130386Y-123203976D01*
X171207920Y-123143951D01*
X171308049Y-123111862D01*
X171322309Y-123110182D01*
X171428833Y-123099947D01*
X171428833Y-123356640D01*
X171428833Y-123356640D01*
G37*
X171428833Y-123356640D02*
X171430407Y-123461428D01*
X171434774Y-123543624D01*
X171441404Y-123596464D01*
X171449004Y-123613333D01*
X171506637Y-123597004D01*
X171563389Y-123557354D01*
X171595832Y-123514753D01*
X171618632Y-123423456D01*
X171601810Y-123341074D01*
X171564968Y-123289574D01*
X171524159Y-123232030D01*
X171517343Y-123170793D01*
X171524888Y-123127413D01*
X171542258Y-123118343D01*
X171574959Y-123132314D01*
X171648707Y-123191943D01*
X171702198Y-123278855D01*
X171730682Y-123380940D01*
X171729411Y-123486092D01*
X171723785Y-123511829D01*
X171676271Y-123616632D01*
X171600948Y-123694615D01*
X171504871Y-123742968D01*
X171395097Y-123758881D01*
X171278680Y-123739546D01*
X171216359Y-123713875D01*
X171129568Y-123650072D01*
X171073587Y-123567395D01*
X171047048Y-123473645D01*
X171047411Y-123450608D01*
X171156728Y-123450608D01*
X171192853Y-123525735D01*
X171215538Y-123551461D01*
X171259535Y-123590357D01*
X171293751Y-123611845D01*
X171300205Y-123613333D01*
X171312376Y-123592844D01*
X171320120Y-123533713D01*
X171322992Y-123439442D01*
X171323000Y-123433416D01*
X171320078Y-123334296D01*
X171309630Y-123274463D01*
X171289134Y-123251165D01*
X171256067Y-123261654D01*
X171207905Y-123303178D01*
X171205621Y-123305454D01*
X171160906Y-123375243D01*
X171156728Y-123450608D01*
X171047411Y-123450608D01*
X171048580Y-123376624D01*
X171076816Y-123284134D01*
X171130386Y-123203976D01*
X171207920Y-123143951D01*
X171308049Y-123111862D01*
X171322309Y-123110182D01*
X171428833Y-123099947D01*
X171428833Y-123356640D01*
G36*
X156259671Y-123082914D02*
X156316048Y-123110625D01*
X156401574Y-123181591D01*
X156451525Y-123258713D01*
X156472300Y-123353628D01*
X156473877Y-123397548D01*
X156457124Y-123523592D01*
X156408207Y-123622744D01*
X156329140Y-123692981D01*
X156221937Y-123732280D01*
X156132717Y-123740300D01*
X156052873Y-123732228D01*
X155976561Y-123712057D01*
X155956000Y-123703258D01*
X155889128Y-123649815D01*
X155833234Y-123568843D01*
X155796583Y-123475058D01*
X155787897Y-123410774D01*
X155912462Y-123410774D01*
X155928806Y-123490663D01*
X155951217Y-123528016D01*
X156014722Y-123575250D01*
X156100241Y-123596707D01*
X156195055Y-123590816D01*
X156265870Y-123566907D01*
X156323424Y-123518502D01*
X156352101Y-123449810D01*
X156350683Y-123372594D01*
X156317953Y-123298616D01*
X156296294Y-123273038D01*
X156221047Y-123224720D01*
X156131713Y-123207031D01*
X156042432Y-123220403D01*
X155969674Y-123263072D01*
X155926470Y-123329372D01*
X155912462Y-123410774D01*
X155787897Y-123410774D01*
X155786666Y-123401666D01*
X155802705Y-123308477D01*
X155845097Y-123215855D01*
X155905255Y-123139045D01*
X155955669Y-123101607D01*
X156052412Y-123069596D01*
X156159263Y-123063503D01*
X156259671Y-123082914D01*
X156259671Y-123082914D01*
G37*
X156259671Y-123082914D02*
X156316048Y-123110625D01*
X156401574Y-123181591D01*
X156451525Y-123258713D01*
X156472300Y-123353628D01*
X156473877Y-123397548D01*
X156457124Y-123523592D01*
X156408207Y-123622744D01*
X156329140Y-123692981D01*
X156221937Y-123732280D01*
X156132717Y-123740300D01*
X156052873Y-123732228D01*
X155976561Y-123712057D01*
X155956000Y-123703258D01*
X155889128Y-123649815D01*
X155833234Y-123568843D01*
X155796583Y-123475058D01*
X155787897Y-123410774D01*
X155912462Y-123410774D01*
X155928806Y-123490663D01*
X155951217Y-123528016D01*
X156014722Y-123575250D01*
X156100241Y-123596707D01*
X156195055Y-123590816D01*
X156265870Y-123566907D01*
X156323424Y-123518502D01*
X156352101Y-123449810D01*
X156350683Y-123372594D01*
X156317953Y-123298616D01*
X156296294Y-123273038D01*
X156221047Y-123224720D01*
X156131713Y-123207031D01*
X156042432Y-123220403D01*
X155969674Y-123263072D01*
X155926470Y-123329372D01*
X155912462Y-123410774D01*
X155787897Y-123410774D01*
X155786666Y-123401666D01*
X155802705Y-123308477D01*
X155845097Y-123215855D01*
X155905255Y-123139045D01*
X155955669Y-123101607D01*
X156052412Y-123069596D01*
X156159263Y-123063503D01*
X156259671Y-123082914D01*
G36*
X179169558Y-123100481D02*
X179220328Y-123132213D01*
X179301656Y-123209220D01*
X179349290Y-123303571D01*
X179363285Y-123407056D01*
X179343698Y-123511467D01*
X179290584Y-123608594D01*
X179216558Y-123681223D01*
X179152132Y-123710751D01*
X179064857Y-123727954D01*
X178972925Y-123730889D01*
X178894526Y-123717617D01*
X178890083Y-123716056D01*
X178795234Y-123661803D01*
X178727028Y-123583922D01*
X178686188Y-123490734D01*
X178673435Y-123390554D01*
X178689491Y-123291702D01*
X178735077Y-123202496D01*
X178810915Y-123131253D01*
X178837984Y-123115493D01*
X178889481Y-123090949D01*
X178913902Y-123090801D01*
X178921333Y-123119172D01*
X178921833Y-123149757D01*
X178904599Y-123217709D01*
X178858333Y-123274666D01*
X178806663Y-123345994D01*
X178796636Y-123422198D01*
X178828435Y-123499582D01*
X178845917Y-123522194D01*
X178882172Y-123557543D01*
X178922475Y-123575332D01*
X178982899Y-123581257D01*
X179013545Y-123581583D01*
X179090620Y-123577403D01*
X179142577Y-123561529D01*
X179184711Y-123530268D01*
X179231623Y-123461502D01*
X179239153Y-123385717D01*
X179207572Y-123310718D01*
X179175833Y-123274666D01*
X179125632Y-123209971D01*
X179112333Y-123149757D01*
X179116316Y-123103809D01*
X179133015Y-123087770D01*
X179169558Y-123100481D01*
X179169558Y-123100481D01*
G37*
X179169558Y-123100481D02*
X179220328Y-123132213D01*
X179301656Y-123209220D01*
X179349290Y-123303571D01*
X179363285Y-123407056D01*
X179343698Y-123511467D01*
X179290584Y-123608594D01*
X179216558Y-123681223D01*
X179152132Y-123710751D01*
X179064857Y-123727954D01*
X178972925Y-123730889D01*
X178894526Y-123717617D01*
X178890083Y-123716056D01*
X178795234Y-123661803D01*
X178727028Y-123583922D01*
X178686188Y-123490734D01*
X178673435Y-123390554D01*
X178689491Y-123291702D01*
X178735077Y-123202496D01*
X178810915Y-123131253D01*
X178837984Y-123115493D01*
X178889481Y-123090949D01*
X178913902Y-123090801D01*
X178921333Y-123119172D01*
X178921833Y-123149757D01*
X178904599Y-123217709D01*
X178858333Y-123274666D01*
X178806663Y-123345994D01*
X178796636Y-123422198D01*
X178828435Y-123499582D01*
X178845917Y-123522194D01*
X178882172Y-123557543D01*
X178922475Y-123575332D01*
X178982899Y-123581257D01*
X179013545Y-123581583D01*
X179090620Y-123577403D01*
X179142577Y-123561529D01*
X179184711Y-123530268D01*
X179231623Y-123461502D01*
X179239153Y-123385717D01*
X179207572Y-123310718D01*
X179175833Y-123274666D01*
X179125632Y-123209971D01*
X179112333Y-123149757D01*
X179116316Y-123103809D01*
X179133015Y-123087770D01*
X179169558Y-123100481D01*
G36*
X186981170Y-123066946D02*
X186969902Y-123140387D01*
X186948150Y-123191816D01*
X186909288Y-123225032D01*
X186846690Y-123243836D01*
X186753728Y-123252030D01*
X186655905Y-123253500D01*
X186436000Y-123253500D01*
X186436000Y-123317000D01*
X186430342Y-123362343D01*
X186406121Y-123378946D01*
X186382419Y-123380500D01*
X186338313Y-123369388D01*
X186318919Y-123348750D01*
X186303142Y-123298249D01*
X186299080Y-123285250D01*
X186270177Y-123260965D01*
X186214414Y-123253500D01*
X186164349Y-123250040D01*
X186143697Y-123232416D01*
X186139666Y-123190000D01*
X186143010Y-123149283D01*
X186161128Y-123131183D01*
X186206152Y-123126600D01*
X186224333Y-123126500D01*
X186278526Y-123124463D01*
X186302607Y-123110205D01*
X186308796Y-123071507D01*
X186309000Y-123041833D01*
X186311507Y-122987544D01*
X186325096Y-122963410D01*
X186358864Y-122957300D01*
X186372500Y-122957166D01*
X186413216Y-122960510D01*
X186431316Y-122978628D01*
X186435899Y-123023652D01*
X186436000Y-123041833D01*
X186436000Y-123126500D01*
X186593372Y-123126500D01*
X186707658Y-123123044D01*
X186785690Y-123111194D01*
X186833096Y-123088719D01*
X186855503Y-123053392D01*
X186859333Y-123021190D01*
X186864196Y-122976488D01*
X186887701Y-122959500D01*
X186925526Y-122957166D01*
X186991719Y-122957166D01*
X186981170Y-123066946D01*
X186981170Y-123066946D01*
G37*
X186981170Y-123066946D02*
X186969902Y-123140387D01*
X186948150Y-123191816D01*
X186909288Y-123225032D01*
X186846690Y-123243836D01*
X186753728Y-123252030D01*
X186655905Y-123253500D01*
X186436000Y-123253500D01*
X186436000Y-123317000D01*
X186430342Y-123362343D01*
X186406121Y-123378946D01*
X186382419Y-123380500D01*
X186338313Y-123369388D01*
X186318919Y-123348750D01*
X186303142Y-123298249D01*
X186299080Y-123285250D01*
X186270177Y-123260965D01*
X186214414Y-123253500D01*
X186164349Y-123250040D01*
X186143697Y-123232416D01*
X186139666Y-123190000D01*
X186143010Y-123149283D01*
X186161128Y-123131183D01*
X186206152Y-123126600D01*
X186224333Y-123126500D01*
X186278526Y-123124463D01*
X186302607Y-123110205D01*
X186308796Y-123071507D01*
X186309000Y-123041833D01*
X186311507Y-122987544D01*
X186325096Y-122963410D01*
X186358864Y-122957300D01*
X186372500Y-122957166D01*
X186413216Y-122960510D01*
X186431316Y-122978628D01*
X186435899Y-123023652D01*
X186436000Y-123041833D01*
X186436000Y-123126500D01*
X186593372Y-123126500D01*
X186707658Y-123123044D01*
X186785690Y-123111194D01*
X186833096Y-123088719D01*
X186855503Y-123053392D01*
X186859333Y-123021190D01*
X186864196Y-122976488D01*
X186887701Y-122959500D01*
X186925526Y-122957166D01*
X186991719Y-122957166D01*
X186981170Y-123066946D01*
G36*
X163532050Y-122854676D02*
X163550150Y-122872794D01*
X163554733Y-122917819D01*
X163554833Y-122936000D01*
X163554833Y-123020666D01*
X164105166Y-123020666D01*
X164105166Y-123147666D01*
X163554833Y-123147666D01*
X163554833Y-123211166D01*
X163549588Y-123256143D01*
X163524848Y-123272721D01*
X163491333Y-123274666D01*
X163446356Y-123269421D01*
X163429778Y-123244681D01*
X163427833Y-123211166D01*
X163425462Y-123173376D01*
X163411017Y-123154660D01*
X163373500Y-123148323D01*
X163323536Y-123147666D01*
X163232269Y-123133687D01*
X163171044Y-123090646D01*
X163138306Y-123016894D01*
X163131500Y-122943728D01*
X163133854Y-122886072D01*
X163145305Y-122859184D01*
X163172433Y-122851574D01*
X163184416Y-122851333D01*
X163224807Y-122860184D01*
X163237158Y-122894491D01*
X163237333Y-122902738D01*
X163255740Y-122966981D01*
X163305580Y-123008604D01*
X163365845Y-123020666D01*
X163405608Y-123017179D01*
X163423285Y-122998644D01*
X163427744Y-122952948D01*
X163427833Y-122936000D01*
X163430340Y-122881711D01*
X163443929Y-122857577D01*
X163477697Y-122851466D01*
X163491333Y-122851333D01*
X163532050Y-122854676D01*
X163532050Y-122854676D01*
G37*
X163532050Y-122854676D02*
X163550150Y-122872794D01*
X163554733Y-122917819D01*
X163554833Y-122936000D01*
X163554833Y-123020666D01*
X164105166Y-123020666D01*
X164105166Y-123147666D01*
X163554833Y-123147666D01*
X163554833Y-123211166D01*
X163549588Y-123256143D01*
X163524848Y-123272721D01*
X163491333Y-123274666D01*
X163446356Y-123269421D01*
X163429778Y-123244681D01*
X163427833Y-123211166D01*
X163425462Y-123173376D01*
X163411017Y-123154660D01*
X163373500Y-123148323D01*
X163323536Y-123147666D01*
X163232269Y-123133687D01*
X163171044Y-123090646D01*
X163138306Y-123016894D01*
X163131500Y-122943728D01*
X163133854Y-122886072D01*
X163145305Y-122859184D01*
X163172433Y-122851574D01*
X163184416Y-122851333D01*
X163224807Y-122860184D01*
X163237158Y-122894491D01*
X163237333Y-122902738D01*
X163255740Y-122966981D01*
X163305580Y-123008604D01*
X163365845Y-123020666D01*
X163405608Y-123017179D01*
X163423285Y-122998644D01*
X163427744Y-122952948D01*
X163427833Y-122936000D01*
X163430340Y-122881711D01*
X163443929Y-122857577D01*
X163477697Y-122851466D01*
X163491333Y-122851333D01*
X163532050Y-122854676D01*
G36*
X179161917Y-122281799D02*
X179197330Y-122297274D01*
X179265056Y-122352808D01*
X179321312Y-122435330D01*
X179357509Y-122529596D01*
X179366333Y-122597333D01*
X179350294Y-122690522D01*
X179307902Y-122783144D01*
X179247744Y-122859954D01*
X179197330Y-122897392D01*
X179097893Y-122929136D01*
X178985650Y-122933638D01*
X178879079Y-122911231D01*
X178835054Y-122890837D01*
X178750024Y-122821917D01*
X178699074Y-122731559D01*
X178679921Y-122615452D01*
X178679647Y-122597333D01*
X178794833Y-122597333D01*
X178812132Y-122684306D01*
X178862554Y-122746067D01*
X178943889Y-122780720D01*
X179016878Y-122787833D01*
X179093568Y-122782824D01*
X179146529Y-122764096D01*
X179183325Y-122735927D01*
X179224005Y-122684417D01*
X179238705Y-122620516D01*
X179239333Y-122597333D01*
X179223128Y-122508816D01*
X179174652Y-122447628D01*
X179094113Y-122413949D01*
X179016878Y-122406833D01*
X178915503Y-122421674D01*
X178843515Y-122464933D01*
X178803124Y-122534713D01*
X178794833Y-122597333D01*
X178679647Y-122597333D01*
X178694546Y-122477607D01*
X178740792Y-122384387D01*
X178820706Y-122313360D01*
X178838142Y-122302995D01*
X178939241Y-122267387D01*
X179053299Y-122260225D01*
X179161917Y-122281799D01*
X179161917Y-122281799D01*
G37*
X179161917Y-122281799D02*
X179197330Y-122297274D01*
X179265056Y-122352808D01*
X179321312Y-122435330D01*
X179357509Y-122529596D01*
X179366333Y-122597333D01*
X179350294Y-122690522D01*
X179307902Y-122783144D01*
X179247744Y-122859954D01*
X179197330Y-122897392D01*
X179097893Y-122929136D01*
X178985650Y-122933638D01*
X178879079Y-122911231D01*
X178835054Y-122890837D01*
X178750024Y-122821917D01*
X178699074Y-122731559D01*
X178679921Y-122615452D01*
X178679647Y-122597333D01*
X178794833Y-122597333D01*
X178812132Y-122684306D01*
X178862554Y-122746067D01*
X178943889Y-122780720D01*
X179016878Y-122787833D01*
X179093568Y-122782824D01*
X179146529Y-122764096D01*
X179183325Y-122735927D01*
X179224005Y-122684417D01*
X179238705Y-122620516D01*
X179239333Y-122597333D01*
X179223128Y-122508816D01*
X179174652Y-122447628D01*
X179094113Y-122413949D01*
X179016878Y-122406833D01*
X178915503Y-122421674D01*
X178843515Y-122464933D01*
X178803124Y-122534713D01*
X178794833Y-122597333D01*
X178679647Y-122597333D01*
X178694546Y-122477607D01*
X178740792Y-122384387D01*
X178820706Y-122313360D01*
X178838142Y-122302995D01*
X178939241Y-122267387D01*
X179053299Y-122260225D01*
X179161917Y-122281799D01*
G36*
X156448160Y-122243833D02*
X156462322Y-122271327D01*
X156464000Y-122304624D01*
X156454339Y-122363575D01*
X156432527Y-122406526D01*
X156414943Y-122433004D01*
X156416252Y-122463624D01*
X156437801Y-122513292D01*
X156443110Y-122523794D01*
X156477796Y-122612997D01*
X156480797Y-122692891D01*
X156456695Y-122772638D01*
X156405223Y-122852867D01*
X156335706Y-122896317D01*
X156252640Y-122901033D01*
X156198903Y-122884772D01*
X156143175Y-122847568D01*
X156107035Y-122788420D01*
X156087879Y-122700843D01*
X156083000Y-122596337D01*
X156081598Y-122518143D01*
X156080869Y-122512427D01*
X156168140Y-122512427D01*
X156171970Y-122579010D01*
X156182533Y-122663860D01*
X156200971Y-122715686D01*
X156220893Y-122737760D01*
X156256105Y-122761343D01*
X156281237Y-122762427D01*
X156317224Y-122744755D01*
X156345164Y-122717081D01*
X156356968Y-122666083D01*
X156358166Y-122629874D01*
X156352428Y-122562919D01*
X156330197Y-122518872D01*
X156302395Y-122493036D01*
X156251149Y-122462272D01*
X156205240Y-122449171D01*
X156204601Y-122449166D01*
X156181731Y-122452984D01*
X156170384Y-122470860D01*
X156168140Y-122512427D01*
X156080869Y-122512427D01*
X156075894Y-122473427D01*
X156063635Y-122453385D01*
X156045376Y-122449166D01*
X155984129Y-122467557D01*
X155931195Y-122513443D01*
X155905467Y-122563620D01*
X155903380Y-122629209D01*
X155924069Y-122690737D01*
X155961028Y-122732315D01*
X155977421Y-122739433D01*
X156008900Y-122761123D01*
X156019382Y-122810428D01*
X156019500Y-122819116D01*
X156015881Y-122865565D01*
X155998396Y-122880812D01*
X155966351Y-122877636D01*
X155897789Y-122844488D01*
X155842276Y-122779783D01*
X155804650Y-122693495D01*
X155789749Y-122595596D01*
X155795450Y-122525397D01*
X155824502Y-122437899D01*
X155876893Y-122374008D01*
X155956789Y-122331440D01*
X156068357Y-122307912D01*
X156204708Y-122301118D01*
X156286853Y-122299290D01*
X156334485Y-122292897D01*
X156355319Y-122280336D01*
X156358166Y-122269250D01*
X156376566Y-122243714D01*
X156411083Y-122237500D01*
X156448160Y-122243833D01*
X156448160Y-122243833D01*
G37*
X156448160Y-122243833D02*
X156462322Y-122271327D01*
X156464000Y-122304624D01*
X156454339Y-122363575D01*
X156432527Y-122406526D01*
X156414943Y-122433004D01*
X156416252Y-122463624D01*
X156437801Y-122513292D01*
X156443110Y-122523794D01*
X156477796Y-122612997D01*
X156480797Y-122692891D01*
X156456695Y-122772638D01*
X156405223Y-122852867D01*
X156335706Y-122896317D01*
X156252640Y-122901033D01*
X156198903Y-122884772D01*
X156143175Y-122847568D01*
X156107035Y-122788420D01*
X156087879Y-122700843D01*
X156083000Y-122596337D01*
X156081598Y-122518143D01*
X156080869Y-122512427D01*
X156168140Y-122512427D01*
X156171970Y-122579010D01*
X156182533Y-122663860D01*
X156200971Y-122715686D01*
X156220893Y-122737760D01*
X156256105Y-122761343D01*
X156281237Y-122762427D01*
X156317224Y-122744755D01*
X156345164Y-122717081D01*
X156356968Y-122666083D01*
X156358166Y-122629874D01*
X156352428Y-122562919D01*
X156330197Y-122518872D01*
X156302395Y-122493036D01*
X156251149Y-122462272D01*
X156205240Y-122449171D01*
X156204601Y-122449166D01*
X156181731Y-122452984D01*
X156170384Y-122470860D01*
X156168140Y-122512427D01*
X156080869Y-122512427D01*
X156075894Y-122473427D01*
X156063635Y-122453385D01*
X156045376Y-122449166D01*
X155984129Y-122467557D01*
X155931195Y-122513443D01*
X155905467Y-122563620D01*
X155903380Y-122629209D01*
X155924069Y-122690737D01*
X155961028Y-122732315D01*
X155977421Y-122739433D01*
X156008900Y-122761123D01*
X156019382Y-122810428D01*
X156019500Y-122819116D01*
X156015881Y-122865565D01*
X155998396Y-122880812D01*
X155966351Y-122877636D01*
X155897789Y-122844488D01*
X155842276Y-122779783D01*
X155804650Y-122693495D01*
X155789749Y-122595596D01*
X155795450Y-122525397D01*
X155824502Y-122437899D01*
X155876893Y-122374008D01*
X155956789Y-122331440D01*
X156068357Y-122307912D01*
X156204708Y-122301118D01*
X156286853Y-122299290D01*
X156334485Y-122292897D01*
X156355319Y-122280336D01*
X156358166Y-122269250D01*
X156376566Y-122243714D01*
X156411083Y-122237500D01*
X156448160Y-122243833D01*
G36*
X171725166Y-122424254D02*
X171494494Y-122431418D01*
X171370011Y-122438044D01*
X171281872Y-122450988D01*
X171224211Y-122473327D01*
X171191161Y-122508138D01*
X171176859Y-122558497D01*
X171174833Y-122599077D01*
X171184397Y-122665662D01*
X171219144Y-122713244D01*
X171230604Y-122722797D01*
X171261765Y-122743080D01*
X171299556Y-122756045D01*
X171353732Y-122763247D01*
X171434046Y-122766240D01*
X171505771Y-122766666D01*
X171725166Y-122766666D01*
X171725166Y-122914833D01*
X171047833Y-122914833D01*
X171047833Y-122853802D01*
X171058502Y-122803234D01*
X171091925Y-122781240D01*
X171136017Y-122769710D01*
X171089084Y-122706229D01*
X171054780Y-122627489D01*
X171049232Y-122534584D01*
X171071045Y-122443069D01*
X171118825Y-122368495D01*
X171119411Y-122367907D01*
X171144407Y-122344795D01*
X171170552Y-122328809D01*
X171206095Y-122318373D01*
X171259289Y-122311907D01*
X171338383Y-122307835D01*
X171450420Y-122304609D01*
X171725166Y-122297635D01*
X171725166Y-122424254D01*
X171725166Y-122424254D01*
G37*
X171725166Y-122424254D02*
X171494494Y-122431418D01*
X171370011Y-122438044D01*
X171281872Y-122450988D01*
X171224211Y-122473327D01*
X171191161Y-122508138D01*
X171176859Y-122558497D01*
X171174833Y-122599077D01*
X171184397Y-122665662D01*
X171219144Y-122713244D01*
X171230604Y-122722797D01*
X171261765Y-122743080D01*
X171299556Y-122756045D01*
X171353732Y-122763247D01*
X171434046Y-122766240D01*
X171505771Y-122766666D01*
X171725166Y-122766666D01*
X171725166Y-122914833D01*
X171047833Y-122914833D01*
X171047833Y-122853802D01*
X171058502Y-122803234D01*
X171091925Y-122781240D01*
X171136017Y-122769710D01*
X171089084Y-122706229D01*
X171054780Y-122627489D01*
X171049232Y-122534584D01*
X171071045Y-122443069D01*
X171118825Y-122368495D01*
X171119411Y-122367907D01*
X171144407Y-122344795D01*
X171170552Y-122328809D01*
X171206095Y-122318373D01*
X171259289Y-122311907D01*
X171338383Y-122307835D01*
X171450420Y-122304609D01*
X171725166Y-122297635D01*
X171725166Y-122424254D01*
G36*
X186157569Y-122642943D02*
X186177932Y-122661429D01*
X186181990Y-122708111D01*
X186182000Y-122713750D01*
X186178723Y-122763402D01*
X186160236Y-122783766D01*
X186113555Y-122787824D01*
X186107916Y-122787833D01*
X186058263Y-122784556D01*
X186037900Y-122766070D01*
X186033842Y-122719388D01*
X186033833Y-122713750D01*
X186037109Y-122664097D01*
X186055596Y-122643733D01*
X186102277Y-122639675D01*
X186107916Y-122639666D01*
X186157569Y-122642943D01*
X186157569Y-122642943D01*
G37*
X186157569Y-122642943D02*
X186177932Y-122661429D01*
X186181990Y-122708111D01*
X186182000Y-122713750D01*
X186178723Y-122763402D01*
X186160236Y-122783766D01*
X186113555Y-122787824D01*
X186107916Y-122787833D01*
X186058263Y-122784556D01*
X186037900Y-122766070D01*
X186033842Y-122719388D01*
X186033833Y-122713750D01*
X186037109Y-122664097D01*
X186055596Y-122643733D01*
X186102277Y-122639675D01*
X186107916Y-122639666D01*
X186157569Y-122642943D01*
G36*
X186986333Y-122787833D02*
X186309000Y-122787833D01*
X186309000Y-122639666D01*
X186986333Y-122639666D01*
X186986333Y-122787833D01*
X186986333Y-122787833D01*
G37*
X186986333Y-122787833D02*
X186309000Y-122787833D01*
X186309000Y-122639666D01*
X186986333Y-122639666D01*
X186986333Y-122787833D01*
G36*
X164080077Y-122084491D02*
X164091158Y-122117472D01*
X164090991Y-122151874D01*
X164080235Y-122207920D01*
X164058918Y-122245664D01*
X164056844Y-122247341D01*
X164039694Y-122267358D01*
X164043332Y-122296815D01*
X164065728Y-122343219D01*
X164100712Y-122439903D01*
X164105115Y-122532925D01*
X164083244Y-122616001D01*
X164039407Y-122682843D01*
X163977908Y-122727166D01*
X163903056Y-122742683D01*
X163819157Y-122723109D01*
X163808833Y-122718177D01*
X163756896Y-122668738D01*
X163722097Y-122583084D01*
X163705477Y-122464155D01*
X163704227Y-122423766D01*
X163808833Y-122423766D01*
X163817635Y-122517798D01*
X163842648Y-122577072D01*
X163881784Y-122599682D01*
X163932954Y-122583721D01*
X163960624Y-122562302D01*
X163993605Y-122506014D01*
X163994665Y-122433771D01*
X163974997Y-122378983D01*
X163935290Y-122324838D01*
X163883710Y-122303123D01*
X163856458Y-122301324D01*
X163829657Y-122304739D01*
X163815380Y-122322113D01*
X163809739Y-122363434D01*
X163808833Y-122423766D01*
X163704227Y-122423766D01*
X163704194Y-122422708D01*
X163702201Y-122354101D01*
X163695034Y-122317698D01*
X163678319Y-122303376D01*
X163651595Y-122301000D01*
X163590596Y-122318415D01*
X163549966Y-122363385D01*
X163532404Y-122424991D01*
X163540613Y-122492317D01*
X163577295Y-122554445D01*
X163586583Y-122563729D01*
X163627258Y-122620242D01*
X163639500Y-122669978D01*
X163634615Y-122709986D01*
X163612727Y-122717856D01*
X163591875Y-122712743D01*
X163511553Y-122668071D01*
X163455456Y-122594415D01*
X163425612Y-122498842D01*
X163424050Y-122388418D01*
X163452801Y-122270207D01*
X163459708Y-122252592D01*
X163495576Y-122206581D01*
X163561318Y-122175383D01*
X163660656Y-122157859D01*
X163785189Y-122152833D01*
X163876292Y-122151999D01*
X163933779Y-122148256D01*
X163966355Y-122139746D01*
X163982725Y-122124610D01*
X163989141Y-122109266D01*
X164016415Y-122075085D01*
X164048776Y-122072224D01*
X164080077Y-122084491D01*
X164080077Y-122084491D01*
G37*
X164080077Y-122084491D02*
X164091158Y-122117472D01*
X164090991Y-122151874D01*
X164080235Y-122207920D01*
X164058918Y-122245664D01*
X164056844Y-122247341D01*
X164039694Y-122267358D01*
X164043332Y-122296815D01*
X164065728Y-122343219D01*
X164100712Y-122439903D01*
X164105115Y-122532925D01*
X164083244Y-122616001D01*
X164039407Y-122682843D01*
X163977908Y-122727166D01*
X163903056Y-122742683D01*
X163819157Y-122723109D01*
X163808833Y-122718177D01*
X163756896Y-122668738D01*
X163722097Y-122583084D01*
X163705477Y-122464155D01*
X163704227Y-122423766D01*
X163808833Y-122423766D01*
X163817635Y-122517798D01*
X163842648Y-122577072D01*
X163881784Y-122599682D01*
X163932954Y-122583721D01*
X163960624Y-122562302D01*
X163993605Y-122506014D01*
X163994665Y-122433771D01*
X163974997Y-122378983D01*
X163935290Y-122324838D01*
X163883710Y-122303123D01*
X163856458Y-122301324D01*
X163829657Y-122304739D01*
X163815380Y-122322113D01*
X163809739Y-122363434D01*
X163808833Y-122423766D01*
X163704227Y-122423766D01*
X163704194Y-122422708D01*
X163702201Y-122354101D01*
X163695034Y-122317698D01*
X163678319Y-122303376D01*
X163651595Y-122301000D01*
X163590596Y-122318415D01*
X163549966Y-122363385D01*
X163532404Y-122424991D01*
X163540613Y-122492317D01*
X163577295Y-122554445D01*
X163586583Y-122563729D01*
X163627258Y-122620242D01*
X163639500Y-122669978D01*
X163634615Y-122709986D01*
X163612727Y-122717856D01*
X163591875Y-122712743D01*
X163511553Y-122668071D01*
X163455456Y-122594415D01*
X163425612Y-122498842D01*
X163424050Y-122388418D01*
X163452801Y-122270207D01*
X163459708Y-122252592D01*
X163495576Y-122206581D01*
X163561318Y-122175383D01*
X163660656Y-122157859D01*
X163785189Y-122152833D01*
X163876292Y-122151999D01*
X163933779Y-122148256D01*
X163966355Y-122139746D01*
X163982725Y-122124610D01*
X163989141Y-122109266D01*
X164016415Y-122075085D01*
X164048776Y-122072224D01*
X164080077Y-122084491D01*
G36*
X186862488Y-121915535D02*
X186930123Y-121965473D01*
X186971458Y-122048393D01*
X186986290Y-122164042D01*
X186986333Y-122171570D01*
X186977758Y-122281149D01*
X186949479Y-122362633D01*
X186898972Y-122425967D01*
X186842883Y-122465271D01*
X186801382Y-122467914D01*
X186778224Y-122434642D01*
X186774666Y-122401269D01*
X186784289Y-122344669D01*
X186817960Y-122313306D01*
X186822291Y-122311310D01*
X186859469Y-122273702D01*
X186878691Y-122208546D01*
X186877236Y-122127792D01*
X186871072Y-122096987D01*
X186850294Y-122059267D01*
X186805714Y-122047170D01*
X186796245Y-122047000D01*
X186762812Y-122051440D01*
X186738078Y-122069396D01*
X186718674Y-122107816D01*
X186701230Y-122173649D01*
X186682379Y-122273844D01*
X186680239Y-122286305D01*
X186650028Y-122374461D01*
X186594992Y-122428467D01*
X186514466Y-122448935D01*
X186503189Y-122449166D01*
X186429412Y-122437184D01*
X186371922Y-122395629D01*
X186370897Y-122394544D01*
X186343894Y-122360499D01*
X186328357Y-122321816D01*
X186321262Y-122265917D01*
X186319583Y-122181141D01*
X186320642Y-122098867D01*
X186326467Y-122046247D01*
X186341029Y-122010610D01*
X186368301Y-121979285D01*
X186388708Y-121960597D01*
X186451435Y-121912725D01*
X186493250Y-121900844D01*
X186515669Y-121925037D01*
X186520666Y-121967897D01*
X186511043Y-122024497D01*
X186477373Y-122055860D01*
X186473041Y-122057855D01*
X186441701Y-122080796D01*
X186425298Y-122122508D01*
X186419019Y-122177955D01*
X186418179Y-122241913D01*
X186429269Y-122278189D01*
X186456755Y-122300768D01*
X186458530Y-122301730D01*
X186500923Y-122313064D01*
X186535022Y-122293847D01*
X186563586Y-122240442D01*
X186589376Y-122149215D01*
X186595448Y-122121342D01*
X186622743Y-122017272D01*
X186655754Y-121949529D01*
X186699149Y-121912124D01*
X186757592Y-121899064D01*
X186768755Y-121898833D01*
X186862488Y-121915535D01*
X186862488Y-121915535D01*
G37*
X186862488Y-121915535D02*
X186930123Y-121965473D01*
X186971458Y-122048393D01*
X186986290Y-122164042D01*
X186986333Y-122171570D01*
X186977758Y-122281149D01*
X186949479Y-122362633D01*
X186898972Y-122425967D01*
X186842883Y-122465271D01*
X186801382Y-122467914D01*
X186778224Y-122434642D01*
X186774666Y-122401269D01*
X186784289Y-122344669D01*
X186817960Y-122313306D01*
X186822291Y-122311310D01*
X186859469Y-122273702D01*
X186878691Y-122208546D01*
X186877236Y-122127792D01*
X186871072Y-122096987D01*
X186850294Y-122059267D01*
X186805714Y-122047170D01*
X186796245Y-122047000D01*
X186762812Y-122051440D01*
X186738078Y-122069396D01*
X186718674Y-122107816D01*
X186701230Y-122173649D01*
X186682379Y-122273844D01*
X186680239Y-122286305D01*
X186650028Y-122374461D01*
X186594992Y-122428467D01*
X186514466Y-122448935D01*
X186503189Y-122449166D01*
X186429412Y-122437184D01*
X186371922Y-122395629D01*
X186370897Y-122394544D01*
X186343894Y-122360499D01*
X186328357Y-122321816D01*
X186321262Y-122265917D01*
X186319583Y-122181141D01*
X186320642Y-122098867D01*
X186326467Y-122046247D01*
X186341029Y-122010610D01*
X186368301Y-121979285D01*
X186388708Y-121960597D01*
X186451435Y-121912725D01*
X186493250Y-121900844D01*
X186515669Y-121925037D01*
X186520666Y-121967897D01*
X186511043Y-122024497D01*
X186477373Y-122055860D01*
X186473041Y-122057855D01*
X186441701Y-122080796D01*
X186425298Y-122122508D01*
X186419019Y-122177955D01*
X186418179Y-122241913D01*
X186429269Y-122278189D01*
X186456755Y-122300768D01*
X186458530Y-122301730D01*
X186500923Y-122313064D01*
X186535022Y-122293847D01*
X186563586Y-122240442D01*
X186589376Y-122149215D01*
X186595448Y-122121342D01*
X186622743Y-122017272D01*
X186655754Y-121949529D01*
X186699149Y-121912124D01*
X186757592Y-121899064D01*
X186768755Y-121898833D01*
X186862488Y-121915535D01*
G36*
X156464000Y-121485685D02*
X156459385Y-121536817D01*
X156441171Y-121557570D01*
X156421032Y-121560166D01*
X156393717Y-121561967D01*
X156391013Y-121574319D01*
X156413193Y-121607649D01*
X156422611Y-121620417D01*
X156465960Y-121711991D01*
X156475054Y-121813506D01*
X156452471Y-121914035D01*
X156400787Y-122002649D01*
X156322578Y-122068418D01*
X156316163Y-122071892D01*
X156222386Y-122101909D01*
X156112888Y-122108878D01*
X156007515Y-122092714D01*
X155957504Y-122073425D01*
X155872078Y-122014172D01*
X155820547Y-121937331D01*
X155798679Y-121835517D01*
X155797250Y-121793670D01*
X155799904Y-121752651D01*
X155912837Y-121752651D01*
X155925798Y-121827364D01*
X155975151Y-121900073D01*
X155975538Y-121900461D01*
X156051367Y-121948763D01*
X156141025Y-121964916D01*
X156230018Y-121948033D01*
X156280441Y-121919082D01*
X156333182Y-121854209D01*
X156352439Y-121777310D01*
X156340239Y-121699406D01*
X156298607Y-121631521D01*
X156229568Y-121584677D01*
X156218237Y-121580559D01*
X156124526Y-121566061D01*
X156042112Y-121582638D01*
X155976013Y-121623672D01*
X155931248Y-121682548D01*
X155912837Y-121752651D01*
X155799904Y-121752651D01*
X155803028Y-121704380D01*
X155821747Y-121646808D01*
X155834291Y-121629513D01*
X155862179Y-121593816D01*
X155871333Y-121574374D01*
X155851738Y-121568137D01*
X155799226Y-121563294D01*
X155723208Y-121560541D01*
X155679492Y-121560166D01*
X155487651Y-121560166D01*
X155494283Y-121491375D01*
X155500916Y-121422583D01*
X156464000Y-121411205D01*
X156464000Y-121485685D01*
X156464000Y-121485685D01*
G37*
X156464000Y-121485685D02*
X156459385Y-121536817D01*
X156441171Y-121557570D01*
X156421032Y-121560166D01*
X156393717Y-121561967D01*
X156391013Y-121574319D01*
X156413193Y-121607649D01*
X156422611Y-121620417D01*
X156465960Y-121711991D01*
X156475054Y-121813506D01*
X156452471Y-121914035D01*
X156400787Y-122002649D01*
X156322578Y-122068418D01*
X156316163Y-122071892D01*
X156222386Y-122101909D01*
X156112888Y-122108878D01*
X156007515Y-122092714D01*
X155957504Y-122073425D01*
X155872078Y-122014172D01*
X155820547Y-121937331D01*
X155798679Y-121835517D01*
X155797250Y-121793670D01*
X155799904Y-121752651D01*
X155912837Y-121752651D01*
X155925798Y-121827364D01*
X155975151Y-121900073D01*
X155975538Y-121900461D01*
X156051367Y-121948763D01*
X156141025Y-121964916D01*
X156230018Y-121948033D01*
X156280441Y-121919082D01*
X156333182Y-121854209D01*
X156352439Y-121777310D01*
X156340239Y-121699406D01*
X156298607Y-121631521D01*
X156229568Y-121584677D01*
X156218237Y-121580559D01*
X156124526Y-121566061D01*
X156042112Y-121582638D01*
X155976013Y-121623672D01*
X155931248Y-121682548D01*
X155912837Y-121752651D01*
X155799904Y-121752651D01*
X155803028Y-121704380D01*
X155821747Y-121646808D01*
X155834291Y-121629513D01*
X155862179Y-121593816D01*
X155871333Y-121574374D01*
X155851738Y-121568137D01*
X155799226Y-121563294D01*
X155723208Y-121560541D01*
X155679492Y-121560166D01*
X155487651Y-121560166D01*
X155494283Y-121491375D01*
X155500916Y-121422583D01*
X156464000Y-121411205D01*
X156464000Y-121485685D01*
G36*
X171725166Y-121486083D02*
X171720740Y-121536719D01*
X171702621Y-121557308D01*
X171679552Y-121560166D01*
X171648280Y-121563393D01*
X171652580Y-121580241D01*
X171667000Y-121597208D01*
X171714370Y-121680183D01*
X171731774Y-121782177D01*
X171718727Y-121891828D01*
X171683449Y-121982349D01*
X171632415Y-122037053D01*
X171552563Y-122077426D01*
X171455662Y-122101166D01*
X171353482Y-122105973D01*
X171257793Y-122089546D01*
X171217588Y-122073425D01*
X171132297Y-122008710D01*
X171074852Y-121920149D01*
X171048219Y-121818068D01*
X171051598Y-121768254D01*
X171175132Y-121768254D01*
X171191527Y-121840277D01*
X171233725Y-121902519D01*
X171299737Y-121946148D01*
X171386263Y-121962333D01*
X171453178Y-121956871D01*
X171508137Y-121943352D01*
X171516683Y-121939462D01*
X171559123Y-121897980D01*
X171592897Y-121833464D01*
X171610041Y-121764979D01*
X171607250Y-121722654D01*
X171563288Y-121644024D01*
X171492782Y-121590022D01*
X171406716Y-121565697D01*
X171316078Y-121576093D01*
X171300637Y-121581828D01*
X171227699Y-121630197D01*
X171186526Y-121695283D01*
X171175132Y-121768254D01*
X171051598Y-121768254D01*
X171055362Y-121712794D01*
X171089934Y-121628958D01*
X171131877Y-121560166D01*
X170751500Y-121560166D01*
X170751500Y-121412000D01*
X171725166Y-121412000D01*
X171725166Y-121486083D01*
X171725166Y-121486083D01*
G37*
X171725166Y-121486083D02*
X171720740Y-121536719D01*
X171702621Y-121557308D01*
X171679552Y-121560166D01*
X171648280Y-121563393D01*
X171652580Y-121580241D01*
X171667000Y-121597208D01*
X171714370Y-121680183D01*
X171731774Y-121782177D01*
X171718727Y-121891828D01*
X171683449Y-121982349D01*
X171632415Y-122037053D01*
X171552563Y-122077426D01*
X171455662Y-122101166D01*
X171353482Y-122105973D01*
X171257793Y-122089546D01*
X171217588Y-122073425D01*
X171132297Y-122008710D01*
X171074852Y-121920149D01*
X171048219Y-121818068D01*
X171051598Y-121768254D01*
X171175132Y-121768254D01*
X171191527Y-121840277D01*
X171233725Y-121902519D01*
X171299737Y-121946148D01*
X171386263Y-121962333D01*
X171453178Y-121956871D01*
X171508137Y-121943352D01*
X171516683Y-121939462D01*
X171559123Y-121897980D01*
X171592897Y-121833464D01*
X171610041Y-121764979D01*
X171607250Y-121722654D01*
X171563288Y-121644024D01*
X171492782Y-121590022D01*
X171406716Y-121565697D01*
X171316078Y-121576093D01*
X171300637Y-121581828D01*
X171227699Y-121630197D01*
X171186526Y-121695283D01*
X171175132Y-121768254D01*
X171051598Y-121768254D01*
X171055362Y-121712794D01*
X171089934Y-121628958D01*
X171131877Y-121560166D01*
X170751500Y-121560166D01*
X170751500Y-121412000D01*
X171725166Y-121412000D01*
X171725166Y-121486083D01*
G36*
X179345166Y-121539000D02*
X179335770Y-121589262D01*
X179313727Y-121602500D01*
X179296952Y-121608897D01*
X179303071Y-121633887D01*
X179324231Y-121671291D01*
X179360678Y-121762540D01*
X179358701Y-121858843D01*
X179335345Y-121932024D01*
X179304638Y-121984835D01*
X179259255Y-122022745D01*
X179192896Y-122047831D01*
X179099262Y-122062171D01*
X178972054Y-122067843D01*
X178922513Y-122068166D01*
X178689000Y-122068166D01*
X178689000Y-121944912D01*
X178919672Y-121937747D01*
X179044768Y-121930919D01*
X179133417Y-121917560D01*
X179191345Y-121894832D01*
X179224277Y-121859891D01*
X179237938Y-121809898D01*
X179239333Y-121779136D01*
X179233394Y-121718358D01*
X179211719Y-121675338D01*
X179168518Y-121647239D01*
X179098001Y-121631227D01*
X178994379Y-121624467D01*
X178921833Y-121623666D01*
X178689000Y-121623666D01*
X178689000Y-121475500D01*
X179345166Y-121475500D01*
X179345166Y-121539000D01*
X179345166Y-121539000D01*
G37*
X179345166Y-121539000D02*
X179335770Y-121589262D01*
X179313727Y-121602500D01*
X179296952Y-121608897D01*
X179303071Y-121633887D01*
X179324231Y-121671291D01*
X179360678Y-121762540D01*
X179358701Y-121858843D01*
X179335345Y-121932024D01*
X179304638Y-121984835D01*
X179259255Y-122022745D01*
X179192896Y-122047831D01*
X179099262Y-122062171D01*
X178972054Y-122067843D01*
X178922513Y-122068166D01*
X178689000Y-122068166D01*
X178689000Y-121944912D01*
X178919672Y-121937747D01*
X179044768Y-121930919D01*
X179133417Y-121917560D01*
X179191345Y-121894832D01*
X179224277Y-121859891D01*
X179237938Y-121809898D01*
X179239333Y-121779136D01*
X179233394Y-121718358D01*
X179211719Y-121675338D01*
X179168518Y-121647239D01*
X179098001Y-121631227D01*
X178994379Y-121624467D01*
X178921833Y-121623666D01*
X178689000Y-121623666D01*
X178689000Y-121475500D01*
X179345166Y-121475500D01*
X179345166Y-121539000D01*
G36*
X163276402Y-121775109D02*
X163296766Y-121793596D01*
X163300824Y-121840277D01*
X163300833Y-121845916D01*
X163297556Y-121895569D01*
X163279070Y-121915932D01*
X163232388Y-121919990D01*
X163226750Y-121920000D01*
X163177097Y-121916723D01*
X163156733Y-121898236D01*
X163152675Y-121851555D01*
X163152666Y-121845916D01*
X163155943Y-121796263D01*
X163174429Y-121775900D01*
X163221111Y-121771842D01*
X163226750Y-121771833D01*
X163276402Y-121775109D01*
X163276402Y-121775109D01*
G37*
X163276402Y-121775109D02*
X163296766Y-121793596D01*
X163300824Y-121840277D01*
X163300833Y-121845916D01*
X163297556Y-121895569D01*
X163279070Y-121915932D01*
X163232388Y-121919990D01*
X163226750Y-121920000D01*
X163177097Y-121916723D01*
X163156733Y-121898236D01*
X163152675Y-121851555D01*
X163152666Y-121845916D01*
X163155943Y-121796263D01*
X163174429Y-121775900D01*
X163221111Y-121771842D01*
X163226750Y-121771833D01*
X163276402Y-121775109D01*
G36*
X164105166Y-121920000D02*
X163427833Y-121920000D01*
X163427833Y-121771833D01*
X164105166Y-121771833D01*
X164105166Y-121920000D01*
X164105166Y-121920000D01*
G37*
X164105166Y-121920000D02*
X163427833Y-121920000D01*
X163427833Y-121771833D01*
X164105166Y-121771833D01*
X164105166Y-121920000D01*
G36*
X186986333Y-121242666D02*
X186436000Y-121242666D01*
X186436000Y-121517833D01*
X186986333Y-121517833D01*
X186986333Y-121666000D01*
X186436000Y-121666000D01*
X186436000Y-121718916D01*
X186429165Y-121756734D01*
X186400113Y-121770569D01*
X186372500Y-121771833D01*
X186327118Y-121766138D01*
X186310516Y-121741928D01*
X186309000Y-121718916D01*
X186304918Y-121685962D01*
X186285032Y-121670549D01*
X186237877Y-121666148D01*
X186216094Y-121666000D01*
X186125195Y-121654427D01*
X186064713Y-121616627D01*
X186029735Y-121547976D01*
X186017829Y-121479446D01*
X186007280Y-121369666D01*
X186072132Y-121369666D01*
X186117532Y-121374857D01*
X186137313Y-121399208D01*
X186143617Y-121438458D01*
X186152342Y-121484213D01*
X186175642Y-121505280D01*
X186227157Y-121513612D01*
X186229625Y-121513819D01*
X186309000Y-121520388D01*
X186309000Y-121094500D01*
X186986333Y-121094500D01*
X186986333Y-121242666D01*
X186986333Y-121242666D01*
G37*
X186986333Y-121242666D02*
X186436000Y-121242666D01*
X186436000Y-121517833D01*
X186986333Y-121517833D01*
X186986333Y-121666000D01*
X186436000Y-121666000D01*
X186436000Y-121718916D01*
X186429165Y-121756734D01*
X186400113Y-121770569D01*
X186372500Y-121771833D01*
X186327118Y-121766138D01*
X186310516Y-121741928D01*
X186309000Y-121718916D01*
X186304918Y-121685962D01*
X186285032Y-121670549D01*
X186237877Y-121666148D01*
X186216094Y-121666000D01*
X186125195Y-121654427D01*
X186064713Y-121616627D01*
X186029735Y-121547976D01*
X186017829Y-121479446D01*
X186007280Y-121369666D01*
X186072132Y-121369666D01*
X186117532Y-121374857D01*
X186137313Y-121399208D01*
X186143617Y-121438458D01*
X186152342Y-121484213D01*
X186175642Y-121505280D01*
X186227157Y-121513612D01*
X186229625Y-121513819D01*
X186309000Y-121520388D01*
X186309000Y-121094500D01*
X186986333Y-121094500D01*
X186986333Y-121242666D01*
G36*
X163613041Y-121416894D02*
X164094583Y-121422583D01*
X164101216Y-121491375D01*
X164107848Y-121560166D01*
X163131500Y-121560166D01*
X163131500Y-121411205D01*
X163613041Y-121416894D01*
X163613041Y-121416894D01*
G37*
X163613041Y-121416894D02*
X164094583Y-121422583D01*
X164101216Y-121491375D01*
X164107848Y-121560166D01*
X163131500Y-121560166D01*
X163131500Y-121411205D01*
X163613041Y-121416894D01*
G36*
X178793216Y-120865010D02*
X178811316Y-120883128D01*
X178815899Y-120928152D01*
X178816000Y-120946333D01*
X178821318Y-121013197D01*
X178841275Y-121060164D01*
X178881869Y-121090545D01*
X178949102Y-121107649D01*
X179048975Y-121114787D01*
X179122916Y-121115666D01*
X179345166Y-121115666D01*
X179345166Y-121263833D01*
X178689000Y-121263833D01*
X178689000Y-121202597D01*
X178699884Y-121151493D01*
X178722062Y-121128675D01*
X178743338Y-121115583D01*
X178738052Y-121093045D01*
X178722062Y-121068784D01*
X178699674Y-121015568D01*
X178689121Y-120948649D01*
X178689000Y-120941623D01*
X178691908Y-120889312D01*
X178707220Y-120866819D01*
X178744816Y-120861704D01*
X178752500Y-120861666D01*
X178793216Y-120865010D01*
X178793216Y-120865010D01*
G37*
X178793216Y-120865010D02*
X178811316Y-120883128D01*
X178815899Y-120928152D01*
X178816000Y-120946333D01*
X178821318Y-121013197D01*
X178841275Y-121060164D01*
X178881869Y-121090545D01*
X178949102Y-121107649D01*
X179048975Y-121114787D01*
X179122916Y-121115666D01*
X179345166Y-121115666D01*
X179345166Y-121263833D01*
X178689000Y-121263833D01*
X178689000Y-121202597D01*
X178699884Y-121151493D01*
X178722062Y-121128675D01*
X178743338Y-121115583D01*
X178738052Y-121093045D01*
X178722062Y-121068784D01*
X178699674Y-121015568D01*
X178689121Y-120948649D01*
X178689000Y-120941623D01*
X178691908Y-120889312D01*
X178707220Y-120866819D01*
X178744816Y-120861704D01*
X178752500Y-120861666D01*
X178793216Y-120865010D01*
G36*
X186155468Y-121089047D02*
X186160647Y-121129024D01*
X186160833Y-121156658D01*
X186158718Y-121211423D01*
X186145294Y-121235977D01*
X186109946Y-121242435D01*
X186085472Y-121242666D01*
X186036440Y-121240226D01*
X186016610Y-121224556D01*
X186015127Y-121183132D01*
X186016680Y-121163291D01*
X186024784Y-121110549D01*
X186045208Y-121086496D01*
X186089903Y-121077492D01*
X186092041Y-121077283D01*
X186135822Y-121075518D01*
X186155468Y-121089047D01*
X186155468Y-121089047D01*
G37*
X186155468Y-121089047D02*
X186160647Y-121129024D01*
X186160833Y-121156658D01*
X186158718Y-121211423D01*
X186145294Y-121235977D01*
X186109946Y-121242435D01*
X186085472Y-121242666D01*
X186036440Y-121240226D01*
X186016610Y-121224556D01*
X186015127Y-121183132D01*
X186016680Y-121163291D01*
X186024784Y-121110549D01*
X186045208Y-121086496D01*
X186089903Y-121077492D01*
X186092041Y-121077283D01*
X186135822Y-121075518D01*
X186155468Y-121089047D01*
G36*
X155601458Y-121056117D02*
X155647213Y-121064842D01*
X155668280Y-121088142D01*
X155676612Y-121139657D01*
X155676819Y-121142125D01*
X155678794Y-121193981D01*
X155665758Y-121216233D01*
X155626857Y-121221406D01*
X155608027Y-121221500D01*
X155560042Y-121219085D01*
X155538527Y-121203766D01*
X155532869Y-121163424D01*
X155532666Y-121135492D01*
X155534630Y-121080944D01*
X155546966Y-121057570D01*
X155579340Y-121054217D01*
X155601458Y-121056117D01*
X155601458Y-121056117D01*
G37*
X155601458Y-121056117D02*
X155647213Y-121064842D01*
X155668280Y-121088142D01*
X155676612Y-121139657D01*
X155676819Y-121142125D01*
X155678794Y-121193981D01*
X155665758Y-121216233D01*
X155626857Y-121221406D01*
X155608027Y-121221500D01*
X155560042Y-121219085D01*
X155538527Y-121203766D01*
X155532869Y-121163424D01*
X155532666Y-121135492D01*
X155534630Y-121080944D01*
X155546966Y-121057570D01*
X155579340Y-121054217D01*
X155601458Y-121056117D01*
G36*
X163274182Y-121054729D02*
X163295262Y-121070556D01*
X163300667Y-121111850D01*
X163300833Y-121136833D01*
X163298590Y-121191042D01*
X163284742Y-121215133D01*
X163248610Y-121221310D01*
X163226750Y-121221500D01*
X163179317Y-121218936D01*
X163158237Y-121203110D01*
X163152832Y-121161816D01*
X163152666Y-121136833D01*
X163154909Y-121082624D01*
X163168757Y-121058533D01*
X163204889Y-121052355D01*
X163226750Y-121052166D01*
X163274182Y-121054729D01*
X163274182Y-121054729D01*
G37*
X163274182Y-121054729D02*
X163295262Y-121070556D01*
X163300667Y-121111850D01*
X163300833Y-121136833D01*
X163298590Y-121191042D01*
X163284742Y-121215133D01*
X163248610Y-121221310D01*
X163226750Y-121221500D01*
X163179317Y-121218936D01*
X163158237Y-121203110D01*
X163152832Y-121161816D01*
X163152666Y-121136833D01*
X163154909Y-121082624D01*
X163168757Y-121058533D01*
X163204889Y-121052355D01*
X163226750Y-121052166D01*
X163274182Y-121054729D01*
G36*
X170862625Y-121056117D02*
X170908380Y-121064842D01*
X170929447Y-121088142D01*
X170937779Y-121139657D01*
X170937986Y-121142125D01*
X170939961Y-121193981D01*
X170926925Y-121216233D01*
X170888023Y-121221406D01*
X170869194Y-121221500D01*
X170821208Y-121219085D01*
X170799694Y-121203766D01*
X170794035Y-121163424D01*
X170793833Y-121135492D01*
X170795797Y-121080944D01*
X170808133Y-121057570D01*
X170840507Y-121054217D01*
X170862625Y-121056117D01*
X170862625Y-121056117D01*
G37*
X170862625Y-121056117D02*
X170908380Y-121064842D01*
X170929447Y-121088142D01*
X170937779Y-121139657D01*
X170937986Y-121142125D01*
X170939961Y-121193981D01*
X170926925Y-121216233D01*
X170888023Y-121221406D01*
X170869194Y-121221500D01*
X170821208Y-121219085D01*
X170799694Y-121203766D01*
X170794035Y-121163424D01*
X170793833Y-121135492D01*
X170795797Y-121080944D01*
X170808133Y-121057570D01*
X170840507Y-121054217D01*
X170862625Y-121056117D01*
G36*
X156464000Y-121200333D02*
X155807833Y-121200333D01*
X155807833Y-121073333D01*
X156464000Y-121073333D01*
X156464000Y-121200333D01*
X156464000Y-121200333D01*
G37*
X156464000Y-121200333D02*
X155807833Y-121200333D01*
X155807833Y-121073333D01*
X156464000Y-121073333D01*
X156464000Y-121200333D01*
G36*
X164105166Y-121200333D02*
X163427833Y-121200333D01*
X163427833Y-121073333D01*
X164105166Y-121073333D01*
X164105166Y-121200333D01*
X164105166Y-121200333D01*
G37*
X164105166Y-121200333D02*
X163427833Y-121200333D01*
X163427833Y-121073333D01*
X164105166Y-121073333D01*
X164105166Y-121200333D01*
G36*
X171725166Y-121200333D02*
X171047833Y-121200333D01*
X171047833Y-121073333D01*
X171725166Y-121073333D01*
X171725166Y-121200333D01*
X171725166Y-121200333D01*
G37*
X171725166Y-121200333D02*
X171047833Y-121200333D01*
X171047833Y-121073333D01*
X171725166Y-121073333D01*
X171725166Y-121200333D01*
G36*
X186843458Y-120283646D02*
X186914044Y-120347115D01*
X186962362Y-120436376D01*
X186985927Y-120539792D01*
X186982252Y-120645729D01*
X186948851Y-120742551D01*
X186943483Y-120751772D01*
X186883336Y-120816373D01*
X186796847Y-120867879D01*
X186699706Y-120898266D01*
X186647666Y-120903070D01*
X186580882Y-120893936D01*
X186505008Y-120871155D01*
X186484062Y-120862432D01*
X186391833Y-120800398D01*
X186333783Y-120713456D01*
X186309798Y-120601421D01*
X186309711Y-120598273D01*
X186417371Y-120598273D01*
X186433494Y-120659798D01*
X186441964Y-120672703D01*
X186480393Y-120709146D01*
X186529101Y-120740952D01*
X186568280Y-120755189D01*
X186568291Y-120755189D01*
X186575463Y-120735952D01*
X186580948Y-120684060D01*
X186583892Y-120609184D01*
X186584166Y-120575916D01*
X186583321Y-120488295D01*
X186579542Y-120434760D01*
X186570961Y-120407076D01*
X186555712Y-120397010D01*
X186543369Y-120396000D01*
X186492487Y-120414912D01*
X186451463Y-120463289D01*
X186424892Y-120528589D01*
X186417371Y-120598273D01*
X186309711Y-120598273D01*
X186309079Y-120575586D01*
X186326202Y-120456465D01*
X186374917Y-120359924D01*
X186450954Y-120290609D01*
X186550042Y-120253166D01*
X186610294Y-120247833D01*
X186690000Y-120247833D01*
X186690000Y-120501833D01*
X186691500Y-120621086D01*
X186697502Y-120701429D01*
X186710259Y-120746226D01*
X186732020Y-120758839D01*
X186765040Y-120742634D01*
X186811569Y-120700972D01*
X186818628Y-120693961D01*
X186869215Y-120620006D01*
X186877742Y-120542629D01*
X186844139Y-120463780D01*
X186827583Y-120442193D01*
X186786015Y-120370204D01*
X186774666Y-120311621D01*
X186774666Y-120243936D01*
X186843458Y-120283646D01*
X186843458Y-120283646D01*
G37*
X186843458Y-120283646D02*
X186914044Y-120347115D01*
X186962362Y-120436376D01*
X186985927Y-120539792D01*
X186982252Y-120645729D01*
X186948851Y-120742551D01*
X186943483Y-120751772D01*
X186883336Y-120816373D01*
X186796847Y-120867879D01*
X186699706Y-120898266D01*
X186647666Y-120903070D01*
X186580882Y-120893936D01*
X186505008Y-120871155D01*
X186484062Y-120862432D01*
X186391833Y-120800398D01*
X186333783Y-120713456D01*
X186309798Y-120601421D01*
X186309711Y-120598273D01*
X186417371Y-120598273D01*
X186433494Y-120659798D01*
X186441964Y-120672703D01*
X186480393Y-120709146D01*
X186529101Y-120740952D01*
X186568280Y-120755189D01*
X186568291Y-120755189D01*
X186575463Y-120735952D01*
X186580948Y-120684060D01*
X186583892Y-120609184D01*
X186584166Y-120575916D01*
X186583321Y-120488295D01*
X186579542Y-120434760D01*
X186570961Y-120407076D01*
X186555712Y-120397010D01*
X186543369Y-120396000D01*
X186492487Y-120414912D01*
X186451463Y-120463289D01*
X186424892Y-120528589D01*
X186417371Y-120598273D01*
X186309711Y-120598273D01*
X186309079Y-120575586D01*
X186326202Y-120456465D01*
X186374917Y-120359924D01*
X186450954Y-120290609D01*
X186550042Y-120253166D01*
X186610294Y-120247833D01*
X186690000Y-120247833D01*
X186690000Y-120501833D01*
X186691500Y-120621086D01*
X186697502Y-120701429D01*
X186710259Y-120746226D01*
X186732020Y-120758839D01*
X186765040Y-120742634D01*
X186811569Y-120700972D01*
X186818628Y-120693961D01*
X186869215Y-120620006D01*
X186877742Y-120542629D01*
X186844139Y-120463780D01*
X186827583Y-120442193D01*
X186786015Y-120370204D01*
X186774666Y-120311621D01*
X186774666Y-120243936D01*
X186843458Y-120283646D01*
G36*
X156464000Y-120374833D02*
X156240787Y-120374833D01*
X156139999Y-120375503D01*
X156072091Y-120378701D01*
X156027616Y-120386213D01*
X155997127Y-120399820D01*
X155971177Y-120421307D01*
X155965621Y-120426787D01*
X155922339Y-120494986D01*
X155913666Y-120544166D01*
X155933453Y-120618456D01*
X155965621Y-120661545D01*
X155991802Y-120684848D01*
X156020606Y-120699910D01*
X156061480Y-120708514D01*
X156123871Y-120712443D01*
X156217225Y-120713482D01*
X156240787Y-120713500D01*
X156464000Y-120713500D01*
X156464000Y-120861666D01*
X155807833Y-120861666D01*
X155807833Y-120797502D01*
X155818244Y-120744502D01*
X155840497Y-120720803D01*
X155861127Y-120707528D01*
X155851919Y-120685590D01*
X155837410Y-120668765D01*
X155813838Y-120624146D01*
X155796272Y-120557925D01*
X155792277Y-120528506D01*
X155791282Y-120452802D01*
X155809064Y-120393865D01*
X155833138Y-120353666D01*
X155876424Y-120303147D01*
X155931568Y-120267579D01*
X156006039Y-120244693D01*
X156107304Y-120232219D01*
X156242833Y-120227886D01*
X156247041Y-120227861D01*
X156464000Y-120226666D01*
X156464000Y-120374833D01*
X156464000Y-120374833D01*
G37*
X156464000Y-120374833D02*
X156240787Y-120374833D01*
X156139999Y-120375503D01*
X156072091Y-120378701D01*
X156027616Y-120386213D01*
X155997127Y-120399820D01*
X155971177Y-120421307D01*
X155965621Y-120426787D01*
X155922339Y-120494986D01*
X155913666Y-120544166D01*
X155933453Y-120618456D01*
X155965621Y-120661545D01*
X155991802Y-120684848D01*
X156020606Y-120699910D01*
X156061480Y-120708514D01*
X156123871Y-120712443D01*
X156217225Y-120713482D01*
X156240787Y-120713500D01*
X156464000Y-120713500D01*
X156464000Y-120861666D01*
X155807833Y-120861666D01*
X155807833Y-120797502D01*
X155818244Y-120744502D01*
X155840497Y-120720803D01*
X155861127Y-120707528D01*
X155851919Y-120685590D01*
X155837410Y-120668765D01*
X155813838Y-120624146D01*
X155796272Y-120557925D01*
X155792277Y-120528506D01*
X155791282Y-120452802D01*
X155809064Y-120393865D01*
X155833138Y-120353666D01*
X155876424Y-120303147D01*
X155931568Y-120267579D01*
X156006039Y-120244693D01*
X156107304Y-120232219D01*
X156242833Y-120227886D01*
X156247041Y-120227861D01*
X156464000Y-120226666D01*
X156464000Y-120374833D01*
G36*
X163882916Y-120231116D02*
X164094583Y-120237250D01*
X164101216Y-120306041D01*
X164107848Y-120374833D01*
X163893789Y-120374833D01*
X163761936Y-120378832D01*
X163666345Y-120392063D01*
X163601595Y-120416377D01*
X163562263Y-120453627D01*
X163545510Y-120493765D01*
X163544573Y-120569961D01*
X163574233Y-120639944D01*
X163627489Y-120687745D01*
X163631343Y-120689587D01*
X163674697Y-120699878D01*
X163748216Y-120707948D01*
X163839746Y-120712699D01*
X163895837Y-120713500D01*
X164107848Y-120713500D01*
X164101216Y-120782291D01*
X164094583Y-120851083D01*
X163427833Y-120862741D01*
X163427833Y-120798039D01*
X163438116Y-120744793D01*
X163460342Y-120720862D01*
X163480439Y-120707745D01*
X163475625Y-120684093D01*
X163457900Y-120655044D01*
X163431710Y-120585273D01*
X163423782Y-120496838D01*
X163434058Y-120409235D01*
X163458857Y-120347160D01*
X163512115Y-120292827D01*
X163591547Y-120256033D01*
X163701462Y-120235603D01*
X163846167Y-120230355D01*
X163882916Y-120231116D01*
X163882916Y-120231116D01*
G37*
X163882916Y-120231116D02*
X164094583Y-120237250D01*
X164101216Y-120306041D01*
X164107848Y-120374833D01*
X163893789Y-120374833D01*
X163761936Y-120378832D01*
X163666345Y-120392063D01*
X163601595Y-120416377D01*
X163562263Y-120453627D01*
X163545510Y-120493765D01*
X163544573Y-120569961D01*
X163574233Y-120639944D01*
X163627489Y-120687745D01*
X163631343Y-120689587D01*
X163674697Y-120699878D01*
X163748216Y-120707948D01*
X163839746Y-120712699D01*
X163895837Y-120713500D01*
X164107848Y-120713500D01*
X164101216Y-120782291D01*
X164094583Y-120851083D01*
X163427833Y-120862741D01*
X163427833Y-120798039D01*
X163438116Y-120744793D01*
X163460342Y-120720862D01*
X163480439Y-120707745D01*
X163475625Y-120684093D01*
X163457900Y-120655044D01*
X163431710Y-120585273D01*
X163423782Y-120496838D01*
X163434058Y-120409235D01*
X163458857Y-120347160D01*
X163512115Y-120292827D01*
X163591547Y-120256033D01*
X163701462Y-120235603D01*
X163846167Y-120230355D01*
X163882916Y-120231116D01*
G36*
X171725166Y-120374833D02*
X171505771Y-120374833D01*
X171402966Y-120375908D01*
X171332710Y-120380169D01*
X171285249Y-120389171D01*
X171250829Y-120404469D01*
X171230604Y-120418702D01*
X171189942Y-120463667D01*
X171175426Y-120522719D01*
X171174833Y-120544166D01*
X171183705Y-120610634D01*
X171216264Y-120657482D01*
X171230604Y-120669630D01*
X171261765Y-120689913D01*
X171299556Y-120702878D01*
X171353732Y-120710080D01*
X171434046Y-120713074D01*
X171505771Y-120713500D01*
X171725166Y-120713500D01*
X171725166Y-120861666D01*
X171400611Y-120861666D01*
X171287435Y-120860790D01*
X171189561Y-120858375D01*
X171114651Y-120854740D01*
X171070366Y-120850204D01*
X171061944Y-120847555D01*
X171046194Y-120806532D01*
X171056058Y-120758638D01*
X171086288Y-120725719D01*
X171091712Y-120723592D01*
X171121407Y-120711231D01*
X171119611Y-120693717D01*
X171097004Y-120667027D01*
X171071554Y-120621804D01*
X171059885Y-120552188D01*
X171058416Y-120501316D01*
X171066941Y-120408559D01*
X171095287Y-120337917D01*
X171147609Y-120286912D01*
X171228066Y-120253065D01*
X171340812Y-120233899D01*
X171490004Y-120226933D01*
X171518791Y-120226784D01*
X171725166Y-120226666D01*
X171725166Y-120374833D01*
X171725166Y-120374833D01*
G37*
X171725166Y-120374833D02*
X171505771Y-120374833D01*
X171402966Y-120375908D01*
X171332710Y-120380169D01*
X171285249Y-120389171D01*
X171250829Y-120404469D01*
X171230604Y-120418702D01*
X171189942Y-120463667D01*
X171175426Y-120522719D01*
X171174833Y-120544166D01*
X171183705Y-120610634D01*
X171216264Y-120657482D01*
X171230604Y-120669630D01*
X171261765Y-120689913D01*
X171299556Y-120702878D01*
X171353732Y-120710080D01*
X171434046Y-120713074D01*
X171505771Y-120713500D01*
X171725166Y-120713500D01*
X171725166Y-120861666D01*
X171400611Y-120861666D01*
X171287435Y-120860790D01*
X171189561Y-120858375D01*
X171114651Y-120854740D01*
X171070366Y-120850204D01*
X171061944Y-120847555D01*
X171046194Y-120806532D01*
X171056058Y-120758638D01*
X171086288Y-120725719D01*
X171091712Y-120723592D01*
X171121407Y-120711231D01*
X171119611Y-120693717D01*
X171097004Y-120667027D01*
X171071554Y-120621804D01*
X171059885Y-120552188D01*
X171058416Y-120501316D01*
X171066941Y-120408559D01*
X171095287Y-120337917D01*
X171147609Y-120286912D01*
X171228066Y-120253065D01*
X171340812Y-120233899D01*
X171490004Y-120226933D01*
X171518791Y-120226784D01*
X171725166Y-120226666D01*
X171725166Y-120374833D01*
G36*
X179257557Y-120222554D02*
X179312805Y-120282920D01*
X179349403Y-120364300D01*
X179363880Y-120459859D01*
X179352768Y-120562760D01*
X179328879Y-120633315D01*
X179288514Y-120704023D01*
X179240246Y-120743599D01*
X179220656Y-120751793D01*
X179175736Y-120764922D01*
X179157908Y-120755786D01*
X179154669Y-120717106D01*
X179154666Y-120713361D01*
X179172849Y-120646553D01*
X179207583Y-120599007D01*
X179244235Y-120542459D01*
X179259388Y-120476195D01*
X179254421Y-120411697D01*
X179230711Y-120360448D01*
X179189639Y-120333930D01*
X179175576Y-120332500D01*
X179128984Y-120352629D01*
X179091059Y-120409598D01*
X179064929Y-120498277D01*
X179061310Y-120519930D01*
X179036669Y-120626890D01*
X178998145Y-120697806D01*
X178942426Y-120737623D01*
X178909294Y-120747013D01*
X178828965Y-120743190D01*
X178760782Y-120704260D01*
X178709418Y-120636787D01*
X178679545Y-120547332D01*
X178675836Y-120442458D01*
X178678291Y-120422558D01*
X178700571Y-120347222D01*
X178739726Y-120278432D01*
X178787395Y-120227478D01*
X178835216Y-120205650D01*
X178839048Y-120205500D01*
X178871072Y-120221025D01*
X178880166Y-120259743D01*
X178867246Y-120309867D01*
X178833226Y-120359610D01*
X178826583Y-120366103D01*
X178790099Y-120419447D01*
X178776023Y-120482210D01*
X178782879Y-120542452D01*
X178809187Y-120588230D01*
X178853470Y-120607604D01*
X178856486Y-120607666D01*
X178895184Y-120598554D01*
X178923638Y-120566585D01*
X178945968Y-120504805D01*
X178962166Y-120429393D01*
X178989996Y-120318551D01*
X179027293Y-120244532D01*
X179077075Y-120202324D01*
X179104990Y-120192212D01*
X179187128Y-120190039D01*
X179257557Y-120222554D01*
X179257557Y-120222554D01*
G37*
X179257557Y-120222554D02*
X179312805Y-120282920D01*
X179349403Y-120364300D01*
X179363880Y-120459859D01*
X179352768Y-120562760D01*
X179328879Y-120633315D01*
X179288514Y-120704023D01*
X179240246Y-120743599D01*
X179220656Y-120751793D01*
X179175736Y-120764922D01*
X179157908Y-120755786D01*
X179154669Y-120717106D01*
X179154666Y-120713361D01*
X179172849Y-120646553D01*
X179207583Y-120599007D01*
X179244235Y-120542459D01*
X179259388Y-120476195D01*
X179254421Y-120411697D01*
X179230711Y-120360448D01*
X179189639Y-120333930D01*
X179175576Y-120332500D01*
X179128984Y-120352629D01*
X179091059Y-120409598D01*
X179064929Y-120498277D01*
X179061310Y-120519930D01*
X179036669Y-120626890D01*
X178998145Y-120697806D01*
X178942426Y-120737623D01*
X178909294Y-120747013D01*
X178828965Y-120743190D01*
X178760782Y-120704260D01*
X178709418Y-120636787D01*
X178679545Y-120547332D01*
X178675836Y-120442458D01*
X178678291Y-120422558D01*
X178700571Y-120347222D01*
X178739726Y-120278432D01*
X178787395Y-120227478D01*
X178835216Y-120205650D01*
X178839048Y-120205500D01*
X178871072Y-120221025D01*
X178880166Y-120259743D01*
X178867246Y-120309867D01*
X178833226Y-120359610D01*
X178826583Y-120366103D01*
X178790099Y-120419447D01*
X178776023Y-120482210D01*
X178782879Y-120542452D01*
X178809187Y-120588230D01*
X178853470Y-120607604D01*
X178856486Y-120607666D01*
X178895184Y-120598554D01*
X178923638Y-120566585D01*
X178945968Y-120504805D01*
X178962166Y-120429393D01*
X178989996Y-120318551D01*
X179027293Y-120244532D01*
X179077075Y-120202324D01*
X179104990Y-120192212D01*
X179187128Y-120190039D01*
X179257557Y-120222554D01*
G36*
X186986333Y-119464666D02*
X186979680Y-119511146D01*
X186954927Y-119527511D01*
X186944000Y-119528166D01*
X186909558Y-119533435D01*
X186901666Y-119540703D01*
X186913476Y-119564382D01*
X186942092Y-119604620D01*
X186944000Y-119607057D01*
X186975339Y-119670014D01*
X186986177Y-119758495D01*
X186986254Y-119769146D01*
X186969959Y-119884123D01*
X186923132Y-119975444D01*
X186848583Y-120038160D01*
X186827799Y-120048023D01*
X186736814Y-120071106D01*
X186630101Y-120076505D01*
X186527085Y-120064523D01*
X186459738Y-120042306D01*
X186377318Y-119979922D01*
X186326933Y-119890218D01*
X186309107Y-119774144D01*
X186309079Y-119769146D01*
X186311947Y-119739833D01*
X186436000Y-119739833D01*
X186451556Y-119829566D01*
X186498363Y-119890861D01*
X186576627Y-119923905D01*
X186647666Y-119930333D01*
X186722229Y-119925397D01*
X186772708Y-119906796D01*
X186807378Y-119878378D01*
X186846779Y-119821033D01*
X186859278Y-119746662D01*
X186859333Y-119739833D01*
X186843776Y-119650100D01*
X186796969Y-119588804D01*
X186718705Y-119555760D01*
X186647666Y-119549333D01*
X186547963Y-119563334D01*
X186479857Y-119605460D01*
X186443141Y-119675898D01*
X186436000Y-119739833D01*
X186311947Y-119739833D01*
X186318049Y-119677470D01*
X186347211Y-119612514D01*
X186351333Y-119607057D01*
X186380593Y-119566362D01*
X186393623Y-119541322D01*
X186393666Y-119540703D01*
X186374076Y-119535182D01*
X186321601Y-119530901D01*
X186245687Y-119528483D01*
X186203166Y-119528166D01*
X186012666Y-119528166D01*
X186012666Y-119401166D01*
X186986333Y-119401166D01*
X186986333Y-119464666D01*
X186986333Y-119464666D01*
G37*
X186986333Y-119464666D02*
X186979680Y-119511146D01*
X186954927Y-119527511D01*
X186944000Y-119528166D01*
X186909558Y-119533435D01*
X186901666Y-119540703D01*
X186913476Y-119564382D01*
X186942092Y-119604620D01*
X186944000Y-119607057D01*
X186975339Y-119670014D01*
X186986177Y-119758495D01*
X186986254Y-119769146D01*
X186969959Y-119884123D01*
X186923132Y-119975444D01*
X186848583Y-120038160D01*
X186827799Y-120048023D01*
X186736814Y-120071106D01*
X186630101Y-120076505D01*
X186527085Y-120064523D01*
X186459738Y-120042306D01*
X186377318Y-119979922D01*
X186326933Y-119890218D01*
X186309107Y-119774144D01*
X186309079Y-119769146D01*
X186311947Y-119739833D01*
X186436000Y-119739833D01*
X186451556Y-119829566D01*
X186498363Y-119890861D01*
X186576627Y-119923905D01*
X186647666Y-119930333D01*
X186722229Y-119925397D01*
X186772708Y-119906796D01*
X186807378Y-119878378D01*
X186846779Y-119821033D01*
X186859278Y-119746662D01*
X186859333Y-119739833D01*
X186843776Y-119650100D01*
X186796969Y-119588804D01*
X186718705Y-119555760D01*
X186647666Y-119549333D01*
X186547963Y-119563334D01*
X186479857Y-119605460D01*
X186443141Y-119675898D01*
X186436000Y-119739833D01*
X186311947Y-119739833D01*
X186318049Y-119677470D01*
X186347211Y-119612514D01*
X186351333Y-119607057D01*
X186380593Y-119566362D01*
X186393623Y-119541322D01*
X186393666Y-119540703D01*
X186374076Y-119535182D01*
X186321601Y-119530901D01*
X186245687Y-119528483D01*
X186203166Y-119528166D01*
X186012666Y-119528166D01*
X186012666Y-119401166D01*
X186986333Y-119401166D01*
X186986333Y-119464666D01*
G36*
X156314905Y-119402544D02*
X156434353Y-119407841D01*
X156523512Y-119418803D01*
X156588378Y-119437174D01*
X156634946Y-119464698D01*
X156669210Y-119503122D01*
X156697165Y-119554190D01*
X156699053Y-119558310D01*
X156732257Y-119669493D01*
X156734373Y-119779040D01*
X156707989Y-119878638D01*
X156655694Y-119959971D01*
X156580074Y-120014726D01*
X156553958Y-120024506D01*
X156520904Y-120029517D01*
X156508134Y-120009731D01*
X156506333Y-119973077D01*
X156525031Y-119902116D01*
X156562136Y-119859136D01*
X156600869Y-119814527D01*
X156616390Y-119758689D01*
X156617939Y-119720750D01*
X156603823Y-119634354D01*
X156559546Y-119575640D01*
X156482219Y-119541565D01*
X156440647Y-119534056D01*
X156347583Y-119521974D01*
X156388202Y-119567731D01*
X156420919Y-119630095D01*
X156437932Y-119715553D01*
X156438073Y-119807437D01*
X156420173Y-119889082D01*
X156412013Y-119907367D01*
X156353814Y-119976685D01*
X156267324Y-120025423D01*
X156162819Y-120050460D01*
X156050573Y-120048676D01*
X155990275Y-120035438D01*
X155901216Y-119987828D01*
X155833581Y-119909347D01*
X155804738Y-119843684D01*
X155792020Y-119762633D01*
X155793909Y-119736560D01*
X155913666Y-119736560D01*
X155932568Y-119804233D01*
X155982190Y-119858418D01*
X156051906Y-119894719D01*
X156131090Y-119908740D01*
X156209118Y-119896084D01*
X156248959Y-119875280D01*
X156306328Y-119815578D01*
X156328748Y-119748217D01*
X156320977Y-119680217D01*
X156287774Y-119618597D01*
X156233897Y-119570378D01*
X156164104Y-119542579D01*
X156083153Y-119542219D01*
X156033340Y-119557191D01*
X155959428Y-119604436D01*
X155921251Y-119672329D01*
X155913666Y-119736560D01*
X155793909Y-119736560D01*
X155797889Y-119681627D01*
X155820166Y-119616209D01*
X155840143Y-119591201D01*
X155868312Y-119556547D01*
X155862306Y-119533270D01*
X155839583Y-119528166D01*
X155814376Y-119509234D01*
X155807833Y-119464666D01*
X155807833Y-119401166D01*
X156159176Y-119401166D01*
X156314905Y-119402544D01*
X156314905Y-119402544D01*
G37*
X156314905Y-119402544D02*
X156434353Y-119407841D01*
X156523512Y-119418803D01*
X156588378Y-119437174D01*
X156634946Y-119464698D01*
X156669210Y-119503122D01*
X156697165Y-119554190D01*
X156699053Y-119558310D01*
X156732257Y-119669493D01*
X156734373Y-119779040D01*
X156707989Y-119878638D01*
X156655694Y-119959971D01*
X156580074Y-120014726D01*
X156553958Y-120024506D01*
X156520904Y-120029517D01*
X156508134Y-120009731D01*
X156506333Y-119973077D01*
X156525031Y-119902116D01*
X156562136Y-119859136D01*
X156600869Y-119814527D01*
X156616390Y-119758689D01*
X156617939Y-119720750D01*
X156603823Y-119634354D01*
X156559546Y-119575640D01*
X156482219Y-119541565D01*
X156440647Y-119534056D01*
X156347583Y-119521974D01*
X156388202Y-119567731D01*
X156420919Y-119630095D01*
X156437932Y-119715553D01*
X156438073Y-119807437D01*
X156420173Y-119889082D01*
X156412013Y-119907367D01*
X156353814Y-119976685D01*
X156267324Y-120025423D01*
X156162819Y-120050460D01*
X156050573Y-120048676D01*
X155990275Y-120035438D01*
X155901216Y-119987828D01*
X155833581Y-119909347D01*
X155804738Y-119843684D01*
X155792020Y-119762633D01*
X155793909Y-119736560D01*
X155913666Y-119736560D01*
X155932568Y-119804233D01*
X155982190Y-119858418D01*
X156051906Y-119894719D01*
X156131090Y-119908740D01*
X156209118Y-119896084D01*
X156248959Y-119875280D01*
X156306328Y-119815578D01*
X156328748Y-119748217D01*
X156320977Y-119680217D01*
X156287774Y-119618597D01*
X156233897Y-119570378D01*
X156164104Y-119542579D01*
X156083153Y-119542219D01*
X156033340Y-119557191D01*
X155959428Y-119604436D01*
X155921251Y-119672329D01*
X155913666Y-119736560D01*
X155793909Y-119736560D01*
X155797889Y-119681627D01*
X155820166Y-119616209D01*
X155840143Y-119591201D01*
X155868312Y-119556547D01*
X155862306Y-119533270D01*
X155839583Y-119528166D01*
X155814376Y-119509234D01*
X155807833Y-119464666D01*
X155807833Y-119401166D01*
X156159176Y-119401166D01*
X156314905Y-119402544D01*
G36*
X163792958Y-119401245D02*
X163928475Y-119401735D01*
X164028724Y-119403589D01*
X164100763Y-119407480D01*
X164151652Y-119414085D01*
X164188450Y-119424078D01*
X164218216Y-119438134D01*
X164225847Y-119442643D01*
X164298036Y-119503664D01*
X164340664Y-119583934D01*
X164356420Y-119689988D01*
X164354954Y-119756429D01*
X164347952Y-119833936D01*
X164334861Y-119884694D01*
X164309204Y-119924287D01*
X164268343Y-119964786D01*
X164219228Y-120006134D01*
X164180928Y-120031900D01*
X164168977Y-120036166D01*
X164149193Y-120019629D01*
X164146767Y-119978821D01*
X164159367Y-119926944D01*
X164184660Y-119877205D01*
X164200416Y-119858174D01*
X164246044Y-119786223D01*
X164253151Y-119706276D01*
X164222032Y-119627224D01*
X164191461Y-119590038D01*
X164119164Y-119539195D01*
X164064461Y-119528166D01*
X164014085Y-119532895D01*
X164002709Y-119550878D01*
X164027683Y-119587805D01*
X164033586Y-119594432D01*
X164070446Y-119664285D01*
X164078974Y-119751437D01*
X164061466Y-119843961D01*
X164020217Y-119929931D01*
X163957523Y-119997423D01*
X163955754Y-119998732D01*
X163877620Y-120034360D01*
X163778264Y-120049837D01*
X163674134Y-120044334D01*
X163582695Y-120017507D01*
X163501807Y-119958652D01*
X163446668Y-119876228D01*
X163420176Y-119780938D01*
X163423566Y-119715523D01*
X163540462Y-119715523D01*
X163556735Y-119792691D01*
X163558222Y-119795861D01*
X163611320Y-119862968D01*
X163685184Y-119900838D01*
X163768386Y-119907729D01*
X163849500Y-119881895D01*
X163895128Y-119847294D01*
X163945404Y-119773174D01*
X163956484Y-119697064D01*
X163929925Y-119627156D01*
X163867286Y-119571642D01*
X163840195Y-119558390D01*
X163753189Y-119539318D01*
X163672587Y-119551496D01*
X163605514Y-119588925D01*
X163559097Y-119645601D01*
X163540462Y-119715523D01*
X163423566Y-119715523D01*
X163425227Y-119683486D01*
X163464718Y-119594576D01*
X163467272Y-119591054D01*
X163496484Y-119549762D01*
X163500891Y-119532204D01*
X163481062Y-119528228D01*
X163470800Y-119528166D01*
X163439421Y-119518459D01*
X163428321Y-119482005D01*
X163427833Y-119464666D01*
X163427833Y-119401166D01*
X163792958Y-119401245D01*
X163792958Y-119401245D01*
G37*
X163792958Y-119401245D02*
X163928475Y-119401735D01*
X164028724Y-119403589D01*
X164100763Y-119407480D01*
X164151652Y-119414085D01*
X164188450Y-119424078D01*
X164218216Y-119438134D01*
X164225847Y-119442643D01*
X164298036Y-119503664D01*
X164340664Y-119583934D01*
X164356420Y-119689988D01*
X164354954Y-119756429D01*
X164347952Y-119833936D01*
X164334861Y-119884694D01*
X164309204Y-119924287D01*
X164268343Y-119964786D01*
X164219228Y-120006134D01*
X164180928Y-120031900D01*
X164168977Y-120036166D01*
X164149193Y-120019629D01*
X164146767Y-119978821D01*
X164159367Y-119926944D01*
X164184660Y-119877205D01*
X164200416Y-119858174D01*
X164246044Y-119786223D01*
X164253151Y-119706276D01*
X164222032Y-119627224D01*
X164191461Y-119590038D01*
X164119164Y-119539195D01*
X164064461Y-119528166D01*
X164014085Y-119532895D01*
X164002709Y-119550878D01*
X164027683Y-119587805D01*
X164033586Y-119594432D01*
X164070446Y-119664285D01*
X164078974Y-119751437D01*
X164061466Y-119843961D01*
X164020217Y-119929931D01*
X163957523Y-119997423D01*
X163955754Y-119998732D01*
X163877620Y-120034360D01*
X163778264Y-120049837D01*
X163674134Y-120044334D01*
X163582695Y-120017507D01*
X163501807Y-119958652D01*
X163446668Y-119876228D01*
X163420176Y-119780938D01*
X163423566Y-119715523D01*
X163540462Y-119715523D01*
X163556735Y-119792691D01*
X163558222Y-119795861D01*
X163611320Y-119862968D01*
X163685184Y-119900838D01*
X163768386Y-119907729D01*
X163849500Y-119881895D01*
X163895128Y-119847294D01*
X163945404Y-119773174D01*
X163956484Y-119697064D01*
X163929925Y-119627156D01*
X163867286Y-119571642D01*
X163840195Y-119558390D01*
X163753189Y-119539318D01*
X163672587Y-119551496D01*
X163605514Y-119588925D01*
X163559097Y-119645601D01*
X163540462Y-119715523D01*
X163423566Y-119715523D01*
X163425227Y-119683486D01*
X163464718Y-119594576D01*
X163467272Y-119591054D01*
X163496484Y-119549762D01*
X163500891Y-119532204D01*
X163481062Y-119528228D01*
X163470800Y-119528166D01*
X163439421Y-119518459D01*
X163428321Y-119482005D01*
X163427833Y-119464666D01*
X163427833Y-119401166D01*
X163792958Y-119401245D01*
G36*
X171834347Y-119411750D02*
X171905150Y-119489061D01*
X171962682Y-119578125D01*
X171990901Y-119680251D01*
X171990606Y-119785188D01*
X171962598Y-119882685D01*
X171907677Y-119962490D01*
X171865606Y-119995546D01*
X171809846Y-120026603D01*
X171780387Y-120031012D01*
X171769044Y-120006675D01*
X171767500Y-119970421D01*
X171785630Y-119901070D01*
X171820416Y-119863051D01*
X171856662Y-119823642D01*
X171871604Y-119770963D01*
X171873333Y-119730058D01*
X171859903Y-119638046D01*
X171817761Y-119576215D01*
X171744133Y-119541292D01*
X171707568Y-119534427D01*
X171616320Y-119522188D01*
X171660080Y-119593969D01*
X171696753Y-119692272D01*
X171699165Y-119801434D01*
X171670282Y-119899740D01*
X171615241Y-119969874D01*
X171532205Y-120020986D01*
X171432467Y-120049816D01*
X171327323Y-120053105D01*
X171228065Y-120027593D01*
X171227750Y-120027453D01*
X171139316Y-119967468D01*
X171078708Y-119883951D01*
X171049166Y-119786536D01*
X171051608Y-119734396D01*
X171174833Y-119734396D01*
X171193082Y-119810593D01*
X171241975Y-119867379D01*
X171312725Y-119900756D01*
X171396548Y-119906725D01*
X171484660Y-119881289D01*
X171490819Y-119878199D01*
X171542974Y-119841181D01*
X171569408Y-119790802D01*
X171576991Y-119713656D01*
X171577000Y-119710041D01*
X171558418Y-119635785D01*
X171508942Y-119579546D01*
X171437970Y-119546367D01*
X171354903Y-119541291D01*
X171293131Y-119557766D01*
X171219539Y-119605432D01*
X171181745Y-119674305D01*
X171174833Y-119734396D01*
X171051608Y-119734396D01*
X171053929Y-119684856D01*
X171085677Y-119605104D01*
X171111996Y-119558122D01*
X171116753Y-119535374D01*
X171100322Y-119524886D01*
X171088286Y-119521541D01*
X171054683Y-119493342D01*
X171047833Y-119454755D01*
X171047833Y-119398548D01*
X171834347Y-119411750D01*
X171834347Y-119411750D01*
G37*
X171834347Y-119411750D02*
X171905150Y-119489061D01*
X171962682Y-119578125D01*
X171990901Y-119680251D01*
X171990606Y-119785188D01*
X171962598Y-119882685D01*
X171907677Y-119962490D01*
X171865606Y-119995546D01*
X171809846Y-120026603D01*
X171780387Y-120031012D01*
X171769044Y-120006675D01*
X171767500Y-119970421D01*
X171785630Y-119901070D01*
X171820416Y-119863051D01*
X171856662Y-119823642D01*
X171871604Y-119770963D01*
X171873333Y-119730058D01*
X171859903Y-119638046D01*
X171817761Y-119576215D01*
X171744133Y-119541292D01*
X171707568Y-119534427D01*
X171616320Y-119522188D01*
X171660080Y-119593969D01*
X171696753Y-119692272D01*
X171699165Y-119801434D01*
X171670282Y-119899740D01*
X171615241Y-119969874D01*
X171532205Y-120020986D01*
X171432467Y-120049816D01*
X171327323Y-120053105D01*
X171228065Y-120027593D01*
X171227750Y-120027453D01*
X171139316Y-119967468D01*
X171078708Y-119883951D01*
X171049166Y-119786536D01*
X171051608Y-119734396D01*
X171174833Y-119734396D01*
X171193082Y-119810593D01*
X171241975Y-119867379D01*
X171312725Y-119900756D01*
X171396548Y-119906725D01*
X171484660Y-119881289D01*
X171490819Y-119878199D01*
X171542974Y-119841181D01*
X171569408Y-119790802D01*
X171576991Y-119713656D01*
X171577000Y-119710041D01*
X171558418Y-119635785D01*
X171508942Y-119579546D01*
X171437970Y-119546367D01*
X171354903Y-119541291D01*
X171293131Y-119557766D01*
X171219539Y-119605432D01*
X171181745Y-119674305D01*
X171174833Y-119734396D01*
X171051608Y-119734396D01*
X171053929Y-119684856D01*
X171085677Y-119605104D01*
X171111996Y-119558122D01*
X171116753Y-119535374D01*
X171100322Y-119524886D01*
X171088286Y-119521541D01*
X171054683Y-119493342D01*
X171047833Y-119454755D01*
X171047833Y-119398548D01*
X171834347Y-119411750D01*
G36*
X179048833Y-119634000D02*
X179049225Y-119741165D01*
X179051199Y-119813025D01*
X179055952Y-119856605D01*
X179064683Y-119878932D01*
X179078589Y-119887032D01*
X179092128Y-119888000D01*
X179154972Y-119869569D01*
X179202236Y-119821442D01*
X179230849Y-119754364D01*
X179237743Y-119679081D01*
X179219846Y-119606340D01*
X179186416Y-119557992D01*
X179157482Y-119515933D01*
X179137948Y-119464117D01*
X179130611Y-119415985D01*
X179138270Y-119384976D01*
X179149375Y-119380079D01*
X179201414Y-119397973D01*
X179258339Y-119443829D01*
X179308614Y-119506591D01*
X179334958Y-119557952D01*
X179362381Y-119681192D01*
X179349116Y-119796157D01*
X179296280Y-119898886D01*
X179216558Y-119977056D01*
X179152132Y-120006584D01*
X179064857Y-120023787D01*
X178972925Y-120026723D01*
X178894526Y-120013451D01*
X178890083Y-120011889D01*
X178791828Y-119954770D01*
X178720520Y-119869747D01*
X178680579Y-119764759D01*
X178679235Y-119726888D01*
X178796088Y-119726888D01*
X178813658Y-119794102D01*
X178853083Y-119846938D01*
X178886175Y-119866685D01*
X178928779Y-119881895D01*
X178948291Y-119886658D01*
X178955460Y-119867752D01*
X178960945Y-119816141D01*
X178963890Y-119741446D01*
X178964166Y-119708083D01*
X178963378Y-119620602D01*
X178959717Y-119567167D01*
X178951233Y-119539500D01*
X178935980Y-119529323D01*
X178921833Y-119528166D01*
X178863247Y-119545934D01*
X178822009Y-119592108D01*
X178799248Y-119655992D01*
X178796088Y-119726888D01*
X178679235Y-119726888D01*
X178676425Y-119647743D01*
X178678714Y-119632239D01*
X178715812Y-119528362D01*
X178783964Y-119447587D01*
X178875908Y-119396124D01*
X178973698Y-119380000D01*
X179048833Y-119380000D01*
X179048833Y-119634000D01*
X179048833Y-119634000D01*
G37*
X179048833Y-119634000D02*
X179049225Y-119741165D01*
X179051199Y-119813025D01*
X179055952Y-119856605D01*
X179064683Y-119878932D01*
X179078589Y-119887032D01*
X179092128Y-119888000D01*
X179154972Y-119869569D01*
X179202236Y-119821442D01*
X179230849Y-119754364D01*
X179237743Y-119679081D01*
X179219846Y-119606340D01*
X179186416Y-119557992D01*
X179157482Y-119515933D01*
X179137948Y-119464117D01*
X179130611Y-119415985D01*
X179138270Y-119384976D01*
X179149375Y-119380079D01*
X179201414Y-119397973D01*
X179258339Y-119443829D01*
X179308614Y-119506591D01*
X179334958Y-119557952D01*
X179362381Y-119681192D01*
X179349116Y-119796157D01*
X179296280Y-119898886D01*
X179216558Y-119977056D01*
X179152132Y-120006584D01*
X179064857Y-120023787D01*
X178972925Y-120026723D01*
X178894526Y-120013451D01*
X178890083Y-120011889D01*
X178791828Y-119954770D01*
X178720520Y-119869747D01*
X178680579Y-119764759D01*
X178679235Y-119726888D01*
X178796088Y-119726888D01*
X178813658Y-119794102D01*
X178853083Y-119846938D01*
X178886175Y-119866685D01*
X178928779Y-119881895D01*
X178948291Y-119886658D01*
X178955460Y-119867752D01*
X178960945Y-119816141D01*
X178963890Y-119741446D01*
X178964166Y-119708083D01*
X178963378Y-119620602D01*
X178959717Y-119567167D01*
X178951233Y-119539500D01*
X178935980Y-119529323D01*
X178921833Y-119528166D01*
X178863247Y-119545934D01*
X178822009Y-119592108D01*
X178799248Y-119655992D01*
X178796088Y-119726888D01*
X178679235Y-119726888D01*
X178676425Y-119647743D01*
X178678714Y-119632239D01*
X178715812Y-119528362D01*
X178783964Y-119447587D01*
X178875908Y-119396124D01*
X178973698Y-119380000D01*
X179048833Y-119380000D01*
X179048833Y-119634000D01*
G36*
X127783166Y-119591666D02*
X125454833Y-119591666D01*
X125454833Y-119316500D01*
X127783166Y-119316500D01*
X127783166Y-119591666D01*
X127783166Y-119591666D01*
G37*
X127783166Y-119591666D02*
X125454833Y-119591666D01*
X125454833Y-119316500D01*
X127783166Y-119316500D01*
X127783166Y-119591666D01*
G36*
X188997166Y-118025333D02*
X153902833Y-118025333D01*
X153902833Y-117750166D01*
X188997166Y-117750166D01*
X188997166Y-118025333D01*
X188997166Y-118025333D01*
G37*
X188997166Y-118025333D02*
X153902833Y-118025333D01*
X153902833Y-117750166D01*
X188997166Y-117750166D01*
X188997166Y-118025333D01*
G36*
X134696711Y-115065260D02*
X134810749Y-115081792D01*
X134904427Y-115117686D01*
X134987663Y-115175985D01*
X135023689Y-115209673D01*
X135073030Y-115264108D01*
X135110126Y-115320067D01*
X135136644Y-115384593D01*
X135154251Y-115464727D01*
X135164614Y-115567511D01*
X135169399Y-115699988D01*
X135170333Y-115829139D01*
X135171233Y-115964485D01*
X135174824Y-116063167D01*
X135182441Y-116130836D01*
X135195421Y-116173140D01*
X135215101Y-116195727D01*
X135242815Y-116204248D01*
X135259233Y-116205000D01*
X135282117Y-116211945D01*
X135293634Y-116239354D01*
X135297252Y-116297083D01*
X135297333Y-116313299D01*
X135297333Y-116421598D01*
X135156415Y-116412625D01*
X135077568Y-116405604D01*
X135027165Y-116393455D01*
X134991315Y-116370885D01*
X134960623Y-116338018D01*
X134905750Y-116272384D01*
X134842250Y-116323135D01*
X134743518Y-116379989D01*
X134619673Y-116418805D01*
X134484923Y-116437233D01*
X134353473Y-116432923D01*
X134276338Y-116416757D01*
X134158844Y-116361542D01*
X134069325Y-116279075D01*
X134010713Y-116176235D01*
X133985940Y-116059899D01*
X133989272Y-116025747D01*
X134281333Y-116025747D01*
X134296586Y-116104865D01*
X134343572Y-116160166D01*
X134424130Y-116192904D01*
X134540102Y-116204333D01*
X134543418Y-116204356D01*
X134642131Y-116197486D01*
X134717085Y-116173257D01*
X134739723Y-116160623D01*
X134819774Y-116088628D01*
X134864212Y-115993842D01*
X134874000Y-115909717D01*
X134874000Y-115824000D01*
X134688791Y-115824118D01*
X134540117Y-115829824D01*
X134428816Y-115847918D01*
X134351278Y-115880188D01*
X134303892Y-115928419D01*
X134283048Y-115994399D01*
X134281333Y-116025747D01*
X133989272Y-116025747D01*
X133997937Y-115936946D01*
X134032625Y-115844932D01*
X134080553Y-115772415D01*
X134146761Y-115718969D01*
X134184872Y-115697904D01*
X134231836Y-115676043D01*
X134278273Y-115660663D01*
X134333565Y-115650317D01*
X134407089Y-115643560D01*
X134508226Y-115638945D01*
X134581747Y-115636721D01*
X134874000Y-115628695D01*
X134874000Y-115537471D01*
X134855966Y-115446050D01*
X134807245Y-115373143D01*
X134735906Y-115320234D01*
X134650019Y-115288810D01*
X134557656Y-115280354D01*
X134466884Y-115296354D01*
X134385775Y-115338292D01*
X134322398Y-115407656D01*
X134308364Y-115433373D01*
X134286682Y-115474115D01*
X134262754Y-115495961D01*
X134223653Y-115504794D01*
X134156452Y-115506495D01*
X134147643Y-115506500D01*
X134021794Y-115506500D01*
X134034620Y-115427459D01*
X134071324Y-115322452D01*
X134141579Y-115224916D01*
X134236751Y-115145870D01*
X134270326Y-115126656D01*
X134341969Y-115095604D01*
X134418587Y-115076849D01*
X134516322Y-115066866D01*
X134552393Y-115065045D01*
X134696711Y-115065260D01*
X134696711Y-115065260D01*
G37*
X134696711Y-115065260D02*
X134810749Y-115081792D01*
X134904427Y-115117686D01*
X134987663Y-115175985D01*
X135023689Y-115209673D01*
X135073030Y-115264108D01*
X135110126Y-115320067D01*
X135136644Y-115384593D01*
X135154251Y-115464727D01*
X135164614Y-115567511D01*
X135169399Y-115699988D01*
X135170333Y-115829139D01*
X135171233Y-115964485D01*
X135174824Y-116063167D01*
X135182441Y-116130836D01*
X135195421Y-116173140D01*
X135215101Y-116195727D01*
X135242815Y-116204248D01*
X135259233Y-116205000D01*
X135282117Y-116211945D01*
X135293634Y-116239354D01*
X135297252Y-116297083D01*
X135297333Y-116313299D01*
X135297333Y-116421598D01*
X135156415Y-116412625D01*
X135077568Y-116405604D01*
X135027165Y-116393455D01*
X134991315Y-116370885D01*
X134960623Y-116338018D01*
X134905750Y-116272384D01*
X134842250Y-116323135D01*
X134743518Y-116379989D01*
X134619673Y-116418805D01*
X134484923Y-116437233D01*
X134353473Y-116432923D01*
X134276338Y-116416757D01*
X134158844Y-116361542D01*
X134069325Y-116279075D01*
X134010713Y-116176235D01*
X133985940Y-116059899D01*
X133989272Y-116025747D01*
X134281333Y-116025747D01*
X134296586Y-116104865D01*
X134343572Y-116160166D01*
X134424130Y-116192904D01*
X134540102Y-116204333D01*
X134543418Y-116204356D01*
X134642131Y-116197486D01*
X134717085Y-116173257D01*
X134739723Y-116160623D01*
X134819774Y-116088628D01*
X134864212Y-115993842D01*
X134874000Y-115909717D01*
X134874000Y-115824000D01*
X134688791Y-115824118D01*
X134540117Y-115829824D01*
X134428816Y-115847918D01*
X134351278Y-115880188D01*
X134303892Y-115928419D01*
X134283048Y-115994399D01*
X134281333Y-116025747D01*
X133989272Y-116025747D01*
X133997937Y-115936946D01*
X134032625Y-115844932D01*
X134080553Y-115772415D01*
X134146761Y-115718969D01*
X134184872Y-115697904D01*
X134231836Y-115676043D01*
X134278273Y-115660663D01*
X134333565Y-115650317D01*
X134407089Y-115643560D01*
X134508226Y-115638945D01*
X134581747Y-115636721D01*
X134874000Y-115628695D01*
X134874000Y-115537471D01*
X134855966Y-115446050D01*
X134807245Y-115373143D01*
X134735906Y-115320234D01*
X134650019Y-115288810D01*
X134557656Y-115280354D01*
X134466884Y-115296354D01*
X134385775Y-115338292D01*
X134322398Y-115407656D01*
X134308364Y-115433373D01*
X134286682Y-115474115D01*
X134262754Y-115495961D01*
X134223653Y-115504794D01*
X134156452Y-115506495D01*
X134147643Y-115506500D01*
X134021794Y-115506500D01*
X134034620Y-115427459D01*
X134071324Y-115322452D01*
X134141579Y-115224916D01*
X134236751Y-115145870D01*
X134270326Y-115126656D01*
X134341969Y-115095604D01*
X134418587Y-115076849D01*
X134516322Y-115066866D01*
X134552393Y-115065045D01*
X134696711Y-115065260D01*
G36*
X136371339Y-115078154D02*
X136512987Y-115137467D01*
X136634116Y-115227663D01*
X136728547Y-115345919D01*
X136748609Y-115382182D01*
X136786100Y-115460982D01*
X136798721Y-115510037D01*
X136782635Y-115536340D01*
X136734008Y-115546881D01*
X136657291Y-115548670D01*
X136514416Y-115548507D01*
X136467421Y-115466196D01*
X136396627Y-115382234D01*
X136301444Y-115325494D01*
X136192537Y-115299460D01*
X136080567Y-115307614D01*
X136031206Y-115323705D01*
X135933255Y-115386399D01*
X135862713Y-115479933D01*
X135820676Y-115601987D01*
X135808238Y-115750239D01*
X135809971Y-115792524D01*
X135833095Y-115937275D01*
X135881896Y-116048458D01*
X135956639Y-116126364D01*
X136057588Y-116171283D01*
X136167328Y-116183754D01*
X136286454Y-116167759D01*
X136382165Y-116117755D01*
X136459097Y-116030975D01*
X136478960Y-115997805D01*
X136528171Y-115908666D01*
X136664169Y-115908666D01*
X136738084Y-115910005D01*
X136779112Y-115915985D01*
X136796663Y-115929551D01*
X136800166Y-115951230D01*
X136784613Y-116023197D01*
X136742622Y-116109355D01*
X136681191Y-116197933D01*
X136607321Y-116277161D01*
X136605169Y-116279106D01*
X136476139Y-116367656D01*
X136328827Y-116421317D01*
X136170434Y-116439002D01*
X136008162Y-116419628D01*
X135900583Y-116385263D01*
X135764179Y-116308235D01*
X135654922Y-116201040D01*
X135575052Y-116067745D01*
X135526809Y-115912415D01*
X135512435Y-115739117D01*
X135514961Y-115685547D01*
X135545124Y-115510331D01*
X135607497Y-115361646D01*
X135695252Y-115245414D01*
X135794640Y-115159924D01*
X135905705Y-115102190D01*
X136042330Y-115065116D01*
X136051204Y-115063473D01*
X136215352Y-115052548D01*
X136371339Y-115078154D01*
X136371339Y-115078154D01*
G37*
X136371339Y-115078154D02*
X136512987Y-115137467D01*
X136634116Y-115227663D01*
X136728547Y-115345919D01*
X136748609Y-115382182D01*
X136786100Y-115460982D01*
X136798721Y-115510037D01*
X136782635Y-115536340D01*
X136734008Y-115546881D01*
X136657291Y-115548670D01*
X136514416Y-115548507D01*
X136467421Y-115466196D01*
X136396627Y-115382234D01*
X136301444Y-115325494D01*
X136192537Y-115299460D01*
X136080567Y-115307614D01*
X136031206Y-115323705D01*
X135933255Y-115386399D01*
X135862713Y-115479933D01*
X135820676Y-115601987D01*
X135808238Y-115750239D01*
X135809971Y-115792524D01*
X135833095Y-115937275D01*
X135881896Y-116048458D01*
X135956639Y-116126364D01*
X136057588Y-116171283D01*
X136167328Y-116183754D01*
X136286454Y-116167759D01*
X136382165Y-116117755D01*
X136459097Y-116030975D01*
X136478960Y-115997805D01*
X136528171Y-115908666D01*
X136664169Y-115908666D01*
X136738084Y-115910005D01*
X136779112Y-115915985D01*
X136796663Y-115929551D01*
X136800166Y-115951230D01*
X136784613Y-116023197D01*
X136742622Y-116109355D01*
X136681191Y-116197933D01*
X136607321Y-116277161D01*
X136605169Y-116279106D01*
X136476139Y-116367656D01*
X136328827Y-116421317D01*
X136170434Y-116439002D01*
X136008162Y-116419628D01*
X135900583Y-116385263D01*
X135764179Y-116308235D01*
X135654922Y-116201040D01*
X135575052Y-116067745D01*
X135526809Y-115912415D01*
X135512435Y-115739117D01*
X135514961Y-115685547D01*
X135545124Y-115510331D01*
X135607497Y-115361646D01*
X135695252Y-115245414D01*
X135794640Y-115159924D01*
X135905705Y-115102190D01*
X136042330Y-115065116D01*
X136051204Y-115063473D01*
X136215352Y-115052548D01*
X136371339Y-115078154D01*
G36*
X141738739Y-115074263D02*
X141884059Y-115129975D01*
X142007225Y-115218158D01*
X142105109Y-115335431D01*
X142174582Y-115478411D01*
X142212514Y-115643717D01*
X142218833Y-115750958D01*
X142218833Y-115824000D01*
X141178303Y-115824000D01*
X141193117Y-115892791D01*
X141237317Y-116015163D01*
X141309472Y-116111370D01*
X141405238Y-116175894D01*
X141421169Y-116182423D01*
X141522181Y-116202950D01*
X141630649Y-116196186D01*
X141734370Y-116165565D01*
X141821137Y-116114519D01*
X141874033Y-116055000D01*
X141896230Y-116022199D01*
X141921966Y-116003719D01*
X141963186Y-115995472D01*
X142031836Y-115993375D01*
X142054347Y-115993333D01*
X142198234Y-115993333D01*
X142165297Y-116072708D01*
X142088990Y-116204053D01*
X141979776Y-116309010D01*
X141892995Y-116362303D01*
X141757219Y-116411790D01*
X141603387Y-116434496D01*
X141446970Y-116429483D01*
X141308666Y-116397698D01*
X141190801Y-116335871D01*
X141083213Y-116242250D01*
X140995815Y-116127369D01*
X140939650Y-116005419D01*
X140911579Y-115865340D01*
X140907047Y-115711049D01*
X140920649Y-115595812D01*
X141191469Y-115595812D01*
X141195486Y-115617569D01*
X141218869Y-115622820D01*
X141277444Y-115627343D01*
X141364074Y-115630827D01*
X141471618Y-115632965D01*
X141563915Y-115633500D01*
X141695286Y-115633170D01*
X141790164Y-115631780D01*
X141854387Y-115628725D01*
X141893791Y-115623402D01*
X141914214Y-115615206D01*
X141921495Y-115603534D01*
X141922035Y-115596458D01*
X141913302Y-115555300D01*
X141891869Y-115495317D01*
X141880932Y-115469895D01*
X141818505Y-115379287D01*
X141731355Y-115316012D01*
X141628435Y-115281755D01*
X141518701Y-115278200D01*
X141411105Y-115307028D01*
X141320607Y-115364554D01*
X141274680Y-115415604D01*
X141233779Y-115479392D01*
X141204008Y-115543575D01*
X141191469Y-115595812D01*
X140920649Y-115595812D01*
X140925071Y-115558358D01*
X140964667Y-115423078D01*
X140977637Y-115394208D01*
X141064463Y-115260739D01*
X141177906Y-115159943D01*
X141317028Y-115092354D01*
X141480894Y-115058503D01*
X141574395Y-115054406D01*
X141738739Y-115074263D01*
X141738739Y-115074263D01*
G37*
X141738739Y-115074263D02*
X141884059Y-115129975D01*
X142007225Y-115218158D01*
X142105109Y-115335431D01*
X142174582Y-115478411D01*
X142212514Y-115643717D01*
X142218833Y-115750958D01*
X142218833Y-115824000D01*
X141178303Y-115824000D01*
X141193117Y-115892791D01*
X141237317Y-116015163D01*
X141309472Y-116111370D01*
X141405238Y-116175894D01*
X141421169Y-116182423D01*
X141522181Y-116202950D01*
X141630649Y-116196186D01*
X141734370Y-116165565D01*
X141821137Y-116114519D01*
X141874033Y-116055000D01*
X141896230Y-116022199D01*
X141921966Y-116003719D01*
X141963186Y-115995472D01*
X142031836Y-115993375D01*
X142054347Y-115993333D01*
X142198234Y-115993333D01*
X142165297Y-116072708D01*
X142088990Y-116204053D01*
X141979776Y-116309010D01*
X141892995Y-116362303D01*
X141757219Y-116411790D01*
X141603387Y-116434496D01*
X141446970Y-116429483D01*
X141308666Y-116397698D01*
X141190801Y-116335871D01*
X141083213Y-116242250D01*
X140995815Y-116127369D01*
X140939650Y-116005419D01*
X140911579Y-115865340D01*
X140907047Y-115711049D01*
X140920649Y-115595812D01*
X141191469Y-115595812D01*
X141195486Y-115617569D01*
X141218869Y-115622820D01*
X141277444Y-115627343D01*
X141364074Y-115630827D01*
X141471618Y-115632965D01*
X141563915Y-115633500D01*
X141695286Y-115633170D01*
X141790164Y-115631780D01*
X141854387Y-115628725D01*
X141893791Y-115623402D01*
X141914214Y-115615206D01*
X141921495Y-115603534D01*
X141922035Y-115596458D01*
X141913302Y-115555300D01*
X141891869Y-115495317D01*
X141880932Y-115469895D01*
X141818505Y-115379287D01*
X141731355Y-115316012D01*
X141628435Y-115281755D01*
X141518701Y-115278200D01*
X141411105Y-115307028D01*
X141320607Y-115364554D01*
X141274680Y-115415604D01*
X141233779Y-115479392D01*
X141204008Y-115543575D01*
X141191469Y-115595812D01*
X140920649Y-115595812D01*
X140925071Y-115558358D01*
X140964667Y-115423078D01*
X140977637Y-115394208D01*
X141064463Y-115260739D01*
X141177906Y-115159943D01*
X141317028Y-115092354D01*
X141480894Y-115058503D01*
X141574395Y-115054406D01*
X141738739Y-115074263D01*
G36*
X143192337Y-115075600D02*
X143331308Y-115115175D01*
X143441751Y-115178881D01*
X143486401Y-115221214D01*
X143528084Y-115280198D01*
X143561896Y-115348322D01*
X143582701Y-115412362D01*
X143585364Y-115459094D01*
X143582040Y-115467471D01*
X143556556Y-115477023D01*
X143501794Y-115483505D01*
X143445534Y-115485333D01*
X143375062Y-115484069D01*
X143334397Y-115476444D01*
X143311018Y-115456706D01*
X143292402Y-115419103D01*
X143290269Y-115414016D01*
X143251314Y-115345416D01*
X143197765Y-115302179D01*
X143120817Y-115279777D01*
X143017494Y-115273666D01*
X142936226Y-115275741D01*
X142883782Y-115284329D01*
X142846757Y-115302978D01*
X142821121Y-115325621D01*
X142777724Y-115392471D01*
X142771217Y-115462512D01*
X142801551Y-115525555D01*
X142822160Y-115545112D01*
X142872999Y-115570891D01*
X142956459Y-115596964D01*
X143062954Y-115620376D01*
X143070868Y-115621811D01*
X143230918Y-115653867D01*
X143354155Y-115687674D01*
X143446076Y-115726455D01*
X143512174Y-115773434D01*
X143557946Y-115831834D01*
X143588886Y-115904878D01*
X143596020Y-115929833D01*
X143608130Y-116052039D01*
X143580642Y-116165817D01*
X143516158Y-116266104D01*
X143417281Y-116347839D01*
X143367257Y-116374882D01*
X143262837Y-116409172D01*
X143134401Y-116429126D01*
X142998011Y-116434027D01*
X142869734Y-116423160D01*
X142779307Y-116401074D01*
X142646872Y-116340161D01*
X142551802Y-116264888D01*
X142491998Y-116175344D01*
X142459833Y-116097770D01*
X142452312Y-116050078D01*
X142473590Y-116025103D01*
X142527826Y-116015680D01*
X142585329Y-116014500D01*
X142658487Y-116015539D01*
X142701699Y-116022322D01*
X142727352Y-116040348D01*
X142747831Y-116075112D01*
X142754878Y-116089753D01*
X142811621Y-116162361D01*
X142899860Y-116207600D01*
X143020200Y-116225753D01*
X143044704Y-116226166D01*
X143159577Y-116212911D01*
X143245771Y-116174648D01*
X143300128Y-116113628D01*
X143319491Y-116032105D01*
X143319500Y-116030164D01*
X143308159Y-115976745D01*
X143271210Y-115933435D01*
X143204262Y-115897737D01*
X143102925Y-115867156D01*
X142992847Y-115844463D01*
X142836193Y-115812418D01*
X142716376Y-115777809D01*
X142627910Y-115737223D01*
X142565307Y-115687245D01*
X142523081Y-115624463D01*
X142495744Y-115545462D01*
X142492910Y-115533436D01*
X142486326Y-115415311D01*
X142520655Y-115305785D01*
X142594843Y-115207877D01*
X142611810Y-115192195D01*
X142695951Y-115129771D01*
X142786175Y-115089666D01*
X142894058Y-115068277D01*
X143030120Y-115062000D01*
X143192337Y-115075600D01*
X143192337Y-115075600D01*
G37*
X143192337Y-115075600D02*
X143331308Y-115115175D01*
X143441751Y-115178881D01*
X143486401Y-115221214D01*
X143528084Y-115280198D01*
X143561896Y-115348322D01*
X143582701Y-115412362D01*
X143585364Y-115459094D01*
X143582040Y-115467471D01*
X143556556Y-115477023D01*
X143501794Y-115483505D01*
X143445534Y-115485333D01*
X143375062Y-115484069D01*
X143334397Y-115476444D01*
X143311018Y-115456706D01*
X143292402Y-115419103D01*
X143290269Y-115414016D01*
X143251314Y-115345416D01*
X143197765Y-115302179D01*
X143120817Y-115279777D01*
X143017494Y-115273666D01*
X142936226Y-115275741D01*
X142883782Y-115284329D01*
X142846757Y-115302978D01*
X142821121Y-115325621D01*
X142777724Y-115392471D01*
X142771217Y-115462512D01*
X142801551Y-115525555D01*
X142822160Y-115545112D01*
X142872999Y-115570891D01*
X142956459Y-115596964D01*
X143062954Y-115620376D01*
X143070868Y-115621811D01*
X143230918Y-115653867D01*
X143354155Y-115687674D01*
X143446076Y-115726455D01*
X143512174Y-115773434D01*
X143557946Y-115831834D01*
X143588886Y-115904878D01*
X143596020Y-115929833D01*
X143608130Y-116052039D01*
X143580642Y-116165817D01*
X143516158Y-116266104D01*
X143417281Y-116347839D01*
X143367257Y-116374882D01*
X143262837Y-116409172D01*
X143134401Y-116429126D01*
X142998011Y-116434027D01*
X142869734Y-116423160D01*
X142779307Y-116401074D01*
X142646872Y-116340161D01*
X142551802Y-116264888D01*
X142491998Y-116175344D01*
X142459833Y-116097770D01*
X142452312Y-116050078D01*
X142473590Y-116025103D01*
X142527826Y-116015680D01*
X142585329Y-116014500D01*
X142658487Y-116015539D01*
X142701699Y-116022322D01*
X142727352Y-116040348D01*
X142747831Y-116075112D01*
X142754878Y-116089753D01*
X142811621Y-116162361D01*
X142899860Y-116207600D01*
X143020200Y-116225753D01*
X143044704Y-116226166D01*
X143159577Y-116212911D01*
X143245771Y-116174648D01*
X143300128Y-116113628D01*
X143319491Y-116032105D01*
X143319500Y-116030164D01*
X143308159Y-115976745D01*
X143271210Y-115933435D01*
X143204262Y-115897737D01*
X143102925Y-115867156D01*
X142992847Y-115844463D01*
X142836193Y-115812418D01*
X142716376Y-115777809D01*
X142627910Y-115737223D01*
X142565307Y-115687245D01*
X142523081Y-115624463D01*
X142495744Y-115545462D01*
X142492910Y-115533436D01*
X142486326Y-115415311D01*
X142520655Y-115305785D01*
X142594843Y-115207877D01*
X142611810Y-115192195D01*
X142695951Y-115129771D01*
X142786175Y-115089666D01*
X142894058Y-115068277D01*
X143030120Y-115062000D01*
X143192337Y-115075600D01*
G36*
X132511082Y-115080499D02*
X132626161Y-115129657D01*
X132717406Y-115204384D01*
X132720990Y-115208569D01*
X132778500Y-115276914D01*
X132836009Y-115208569D01*
X132924923Y-115133695D01*
X133039018Y-115083431D01*
X133167617Y-115059885D01*
X133300044Y-115065164D01*
X133410757Y-115095122D01*
X133502576Y-115150655D01*
X133585520Y-115234188D01*
X133646843Y-115331565D01*
X133664101Y-115376503D01*
X133673110Y-115430157D01*
X133680212Y-115522634D01*
X133685253Y-115650461D01*
X133688083Y-115810165D01*
X133688666Y-115937580D01*
X133688666Y-116416666D01*
X133413500Y-116416666D01*
X133413381Y-115998625D01*
X133412259Y-115864316D01*
X133409204Y-115739642D01*
X133404571Y-115632665D01*
X133398714Y-115551446D01*
X133391988Y-115504048D01*
X133391596Y-115502568D01*
X133346672Y-115410341D01*
X133272980Y-115348344D01*
X133173235Y-115318505D01*
X133128980Y-115316000D01*
X133040767Y-115323418D01*
X132977679Y-115348301D01*
X132960848Y-115360202D01*
X132923551Y-115392040D01*
X132894964Y-115425365D01*
X132873940Y-115466083D01*
X132859326Y-115520106D01*
X132849976Y-115593340D01*
X132844738Y-115691694D01*
X132842463Y-115821079D01*
X132842000Y-115971115D01*
X132842000Y-116416666D01*
X132545666Y-116416666D01*
X132545666Y-115960532D01*
X132545103Y-115801230D01*
X132543183Y-115678700D01*
X132539563Y-115587394D01*
X132533899Y-115521762D01*
X132525847Y-115476256D01*
X132515064Y-115445326D01*
X132513558Y-115442307D01*
X132456304Y-115373362D01*
X132376493Y-115331014D01*
X132284397Y-115315129D01*
X132190287Y-115325576D01*
X132104434Y-115362221D01*
X132037111Y-115424931D01*
X132022149Y-115448649D01*
X132009286Y-115477677D01*
X131999405Y-115515615D01*
X131991994Y-115568483D01*
X131986538Y-115642304D01*
X131982525Y-115743098D01*
X131979441Y-115876887D01*
X131977952Y-115966875D01*
X131971155Y-116416666D01*
X131699000Y-116416666D01*
X131699000Y-115083166D01*
X131826529Y-115083166D01*
X131897303Y-115084234D01*
X131936724Y-115090751D01*
X131955767Y-115107687D01*
X131965410Y-115140014D01*
X131966758Y-115146666D01*
X131983320Y-115196305D01*
X132003420Y-115208457D01*
X132023112Y-115181130D01*
X132047505Y-115155639D01*
X132097253Y-115123020D01*
X132130849Y-115105334D01*
X132252625Y-115066448D01*
X132382970Y-115058800D01*
X132511082Y-115080499D01*
X132511082Y-115080499D01*
G37*
X132511082Y-115080499D02*
X132626161Y-115129657D01*
X132717406Y-115204384D01*
X132720990Y-115208569D01*
X132778500Y-115276914D01*
X132836009Y-115208569D01*
X132924923Y-115133695D01*
X133039018Y-115083431D01*
X133167617Y-115059885D01*
X133300044Y-115065164D01*
X133410757Y-115095122D01*
X133502576Y-115150655D01*
X133585520Y-115234188D01*
X133646843Y-115331565D01*
X133664101Y-115376503D01*
X133673110Y-115430157D01*
X133680212Y-115522634D01*
X133685253Y-115650461D01*
X133688083Y-115810165D01*
X133688666Y-115937580D01*
X133688666Y-116416666D01*
X133413500Y-116416666D01*
X133413381Y-115998625D01*
X133412259Y-115864316D01*
X133409204Y-115739642D01*
X133404571Y-115632665D01*
X133398714Y-115551446D01*
X133391988Y-115504048D01*
X133391596Y-115502568D01*
X133346672Y-115410341D01*
X133272980Y-115348344D01*
X133173235Y-115318505D01*
X133128980Y-115316000D01*
X133040767Y-115323418D01*
X132977679Y-115348301D01*
X132960848Y-115360202D01*
X132923551Y-115392040D01*
X132894964Y-115425365D01*
X132873940Y-115466083D01*
X132859326Y-115520106D01*
X132849976Y-115593340D01*
X132844738Y-115691694D01*
X132842463Y-115821079D01*
X132842000Y-115971115D01*
X132842000Y-116416666D01*
X132545666Y-116416666D01*
X132545666Y-115960532D01*
X132545103Y-115801230D01*
X132543183Y-115678700D01*
X132539563Y-115587394D01*
X132533899Y-115521762D01*
X132525847Y-115476256D01*
X132515064Y-115445326D01*
X132513558Y-115442307D01*
X132456304Y-115373362D01*
X132376493Y-115331014D01*
X132284397Y-115315129D01*
X132190287Y-115325576D01*
X132104434Y-115362221D01*
X132037111Y-115424931D01*
X132022149Y-115448649D01*
X132009286Y-115477677D01*
X131999405Y-115515615D01*
X131991994Y-115568483D01*
X131986538Y-115642304D01*
X131982525Y-115743098D01*
X131979441Y-115876887D01*
X131977952Y-115966875D01*
X131971155Y-116416666D01*
X131699000Y-116416666D01*
X131699000Y-115083166D01*
X131826529Y-115083166D01*
X131897303Y-115084234D01*
X131936724Y-115090751D01*
X131955767Y-115107687D01*
X131965410Y-115140014D01*
X131966758Y-115146666D01*
X131983320Y-115196305D01*
X132003420Y-115208457D01*
X132023112Y-115181130D01*
X132047505Y-115155639D01*
X132097253Y-115123020D01*
X132130849Y-115105334D01*
X132252625Y-115066448D01*
X132382970Y-115058800D01*
X132511082Y-115080499D01*
G36*
X137392833Y-115228946D02*
X137458792Y-115168702D01*
X137556265Y-115105971D01*
X137680014Y-115067070D01*
X137820065Y-115053959D01*
X137966449Y-115068601D01*
X137967126Y-115068736D01*
X138077377Y-115111194D01*
X138176986Y-115188369D01*
X138257038Y-115292682D01*
X138278384Y-115333342D01*
X138296550Y-115373439D01*
X138310425Y-115410411D01*
X138320690Y-115450717D01*
X138328026Y-115500813D01*
X138333112Y-115567156D01*
X138336628Y-115656205D01*
X138339255Y-115774414D01*
X138341673Y-115928243D01*
X138341774Y-115935125D01*
X138348798Y-116416666D01*
X138049000Y-116416666D01*
X138049000Y-115980657D01*
X138048481Y-115827256D01*
X138046640Y-115709996D01*
X138043049Y-115622694D01*
X138037279Y-115559169D01*
X138028903Y-115513235D01*
X138017492Y-115478712D01*
X138013652Y-115470158D01*
X137952453Y-115386559D01*
X137864035Y-115334973D01*
X137749722Y-115316150D01*
X137741753Y-115316079D01*
X137618751Y-115333574D01*
X137518944Y-115385471D01*
X137444545Y-115470587D01*
X137440806Y-115476953D01*
X137424725Y-115507275D01*
X137412758Y-115538628D01*
X137404293Y-115577571D01*
X137398719Y-115630662D01*
X137395426Y-115704459D01*
X137393802Y-115805521D01*
X137393236Y-115940405D01*
X137393181Y-115988041D01*
X137392833Y-116416666D01*
X137096500Y-116416666D01*
X137096500Y-114469333D01*
X137392833Y-114469333D01*
X137392833Y-115228946D01*
X137392833Y-115228946D01*
G37*
X137392833Y-115228946D02*
X137458792Y-115168702D01*
X137556265Y-115105971D01*
X137680014Y-115067070D01*
X137820065Y-115053959D01*
X137966449Y-115068601D01*
X137967126Y-115068736D01*
X138077377Y-115111194D01*
X138176986Y-115188369D01*
X138257038Y-115292682D01*
X138278384Y-115333342D01*
X138296550Y-115373439D01*
X138310425Y-115410411D01*
X138320690Y-115450717D01*
X138328026Y-115500813D01*
X138333112Y-115567156D01*
X138336628Y-115656205D01*
X138339255Y-115774414D01*
X138341673Y-115928243D01*
X138341774Y-115935125D01*
X138348798Y-116416666D01*
X138049000Y-116416666D01*
X138049000Y-115980657D01*
X138048481Y-115827256D01*
X138046640Y-115709996D01*
X138043049Y-115622694D01*
X138037279Y-115559169D01*
X138028903Y-115513235D01*
X138017492Y-115478712D01*
X138013652Y-115470158D01*
X137952453Y-115386559D01*
X137864035Y-115334973D01*
X137749722Y-115316150D01*
X137741753Y-115316079D01*
X137618751Y-115333574D01*
X137518944Y-115385471D01*
X137444545Y-115470587D01*
X137440806Y-115476953D01*
X137424725Y-115507275D01*
X137412758Y-115538628D01*
X137404293Y-115577571D01*
X137398719Y-115630662D01*
X137395426Y-115704459D01*
X137393802Y-115805521D01*
X137393236Y-115940405D01*
X137393181Y-115988041D01*
X137392833Y-116416666D01*
X137096500Y-116416666D01*
X137096500Y-114469333D01*
X137392833Y-114469333D01*
X137392833Y-115228946D01*
G36*
X138980333Y-116416666D02*
X138684000Y-116416666D01*
X138684000Y-115083166D01*
X138980333Y-115083166D01*
X138980333Y-116416666D01*
X138980333Y-116416666D01*
G37*
X138980333Y-116416666D02*
X138684000Y-116416666D01*
X138684000Y-115083166D01*
X138980333Y-115083166D01*
X138980333Y-116416666D01*
G36*
X140211486Y-115077129D02*
X140337894Y-115128885D01*
X140431447Y-115199796D01*
X140478484Y-115252212D01*
X140515375Y-115308461D01*
X140543284Y-115374304D01*
X140563377Y-115455500D01*
X140576818Y-115557810D01*
X140584772Y-115686994D01*
X140588404Y-115848811D01*
X140589000Y-115978846D01*
X140589000Y-116416666D01*
X140292666Y-116416666D01*
X140292666Y-115980657D01*
X140292115Y-115826347D01*
X140290188Y-115708286D01*
X140286474Y-115620400D01*
X140280564Y-115556614D01*
X140272046Y-115510856D01*
X140260510Y-115477051D01*
X140258307Y-115472240D01*
X140196363Y-115385759D01*
X140112246Y-115329018D01*
X140014567Y-115302698D01*
X139911939Y-115307481D01*
X139812975Y-115344048D01*
X139726286Y-115413083D01*
X139712633Y-115429032D01*
X139647083Y-115510315D01*
X139640625Y-115963490D01*
X139634166Y-116416666D01*
X139340166Y-116416666D01*
X139340166Y-115083166D01*
X139615333Y-115083166D01*
X139615333Y-115157250D01*
X139622660Y-115209006D01*
X139640293Y-115231161D01*
X139661713Y-115218688D01*
X139670966Y-115200135D01*
X139695462Y-115174391D01*
X139746310Y-115140310D01*
X139794454Y-115114378D01*
X139930069Y-115068575D01*
X140072312Y-115056592D01*
X140211486Y-115077129D01*
X140211486Y-115077129D01*
G37*
X140211486Y-115077129D02*
X140337894Y-115128885D01*
X140431447Y-115199796D01*
X140478484Y-115252212D01*
X140515375Y-115308461D01*
X140543284Y-115374304D01*
X140563377Y-115455500D01*
X140576818Y-115557810D01*
X140584772Y-115686994D01*
X140588404Y-115848811D01*
X140589000Y-115978846D01*
X140589000Y-116416666D01*
X140292666Y-116416666D01*
X140292666Y-115980657D01*
X140292115Y-115826347D01*
X140290188Y-115708286D01*
X140286474Y-115620400D01*
X140280564Y-115556614D01*
X140272046Y-115510856D01*
X140260510Y-115477051D01*
X140258307Y-115472240D01*
X140196363Y-115385759D01*
X140112246Y-115329018D01*
X140014567Y-115302698D01*
X139911939Y-115307481D01*
X139812975Y-115344048D01*
X139726286Y-115413083D01*
X139712633Y-115429032D01*
X139647083Y-115510315D01*
X139640625Y-115963490D01*
X139634166Y-116416666D01*
X139340166Y-116416666D01*
X139340166Y-115083166D01*
X139615333Y-115083166D01*
X139615333Y-115157250D01*
X139622660Y-115209006D01*
X139640293Y-115231161D01*
X139661713Y-115218688D01*
X139670966Y-115200135D01*
X139695462Y-115174391D01*
X139746310Y-115140310D01*
X139794454Y-115114378D01*
X139930069Y-115068575D01*
X140072312Y-115056592D01*
X140211486Y-115077129D01*
G36*
X139001500Y-114829166D02*
X138684000Y-114829166D01*
X138684000Y-114532833D01*
X139001500Y-114532833D01*
X139001500Y-114829166D01*
X139001500Y-114829166D01*
G37*
X139001500Y-114829166D02*
X138684000Y-114829166D01*
X138684000Y-114532833D01*
X139001500Y-114532833D01*
X139001500Y-114829166D01*
G36*
X137035701Y-112176847D02*
X137107425Y-112193105D01*
X137265999Y-112258179D01*
X137393352Y-112351603D01*
X137488777Y-112472385D01*
X137551570Y-112619536D01*
X137581025Y-112792062D01*
X137583333Y-112861600D01*
X137564877Y-113038553D01*
X137511276Y-113194007D01*
X137425181Y-113325085D01*
X137309242Y-113428905D01*
X137166111Y-113502590D01*
X136998439Y-113543260D01*
X136951319Y-113548059D01*
X136865126Y-113549746D01*
X136779859Y-113544019D01*
X136743942Y-113538352D01*
X136588272Y-113486207D01*
X136454698Y-113402341D01*
X136349015Y-113290897D01*
X136309202Y-113227542D01*
X136245086Y-113069723D01*
X136217058Y-112907615D01*
X136219529Y-112844365D01*
X136508258Y-112844365D01*
X136518985Y-112966990D01*
X136555724Y-113081997D01*
X136618655Y-113181047D01*
X136704473Y-113253741D01*
X136807311Y-113293772D01*
X136923964Y-113305332D01*
X137035542Y-113286831D01*
X137047497Y-113282590D01*
X137143343Y-113225322D01*
X137216473Y-113139924D01*
X137266236Y-113034392D01*
X137291982Y-112916722D01*
X137293062Y-112794912D01*
X137268826Y-112676958D01*
X137218623Y-112570856D01*
X137141803Y-112484604D01*
X137114021Y-112464158D01*
X137019639Y-112423481D01*
X136908057Y-112407816D01*
X136796860Y-112418046D01*
X136721885Y-112444475D01*
X136630357Y-112514178D01*
X136564123Y-112609620D01*
X136523364Y-112722462D01*
X136508258Y-112844365D01*
X136219529Y-112844365D01*
X136223321Y-112747303D01*
X136262078Y-112594874D01*
X136331532Y-112456410D01*
X136429885Y-112337998D01*
X136555342Y-112245723D01*
X136606734Y-112220101D01*
X136738050Y-112180553D01*
X136886860Y-112165821D01*
X137035701Y-112176847D01*
X137035701Y-112176847D01*
G37*
X137035701Y-112176847D02*
X137107425Y-112193105D01*
X137265999Y-112258179D01*
X137393352Y-112351603D01*
X137488777Y-112472385D01*
X137551570Y-112619536D01*
X137581025Y-112792062D01*
X137583333Y-112861600D01*
X137564877Y-113038553D01*
X137511276Y-113194007D01*
X137425181Y-113325085D01*
X137309242Y-113428905D01*
X137166111Y-113502590D01*
X136998439Y-113543260D01*
X136951319Y-113548059D01*
X136865126Y-113549746D01*
X136779859Y-113544019D01*
X136743942Y-113538352D01*
X136588272Y-113486207D01*
X136454698Y-113402341D01*
X136349015Y-113290897D01*
X136309202Y-113227542D01*
X136245086Y-113069723D01*
X136217058Y-112907615D01*
X136219529Y-112844365D01*
X136508258Y-112844365D01*
X136518985Y-112966990D01*
X136555724Y-113081997D01*
X136618655Y-113181047D01*
X136704473Y-113253741D01*
X136807311Y-113293772D01*
X136923964Y-113305332D01*
X137035542Y-113286831D01*
X137047497Y-113282590D01*
X137143343Y-113225322D01*
X137216473Y-113139924D01*
X137266236Y-113034392D01*
X137291982Y-112916722D01*
X137293062Y-112794912D01*
X137268826Y-112676958D01*
X137218623Y-112570856D01*
X137141803Y-112484604D01*
X137114021Y-112464158D01*
X137019639Y-112423481D01*
X136908057Y-112407816D01*
X136796860Y-112418046D01*
X136721885Y-112444475D01*
X136630357Y-112514178D01*
X136564123Y-112609620D01*
X136523364Y-112722462D01*
X136508258Y-112844365D01*
X136219529Y-112844365D01*
X136223321Y-112747303D01*
X136262078Y-112594874D01*
X136331532Y-112456410D01*
X136429885Y-112337998D01*
X136555342Y-112245723D01*
X136606734Y-112220101D01*
X136738050Y-112180553D01*
X136886860Y-112165821D01*
X137035701Y-112176847D01*
G36*
X140941151Y-112179436D02*
X141051572Y-112200973D01*
X141142477Y-112240694D01*
X141218762Y-112296699D01*
X141271319Y-112348045D01*
X141311554Y-112402379D01*
X141341329Y-112466436D01*
X141362504Y-112546951D01*
X141376940Y-112650662D01*
X141386498Y-112784303D01*
X141392104Y-112924166D01*
X141403916Y-113294583D01*
X141462125Y-113301280D01*
X141495300Y-113307807D01*
X141512655Y-113324834D01*
X141519296Y-113363304D01*
X141520333Y-113426004D01*
X141520333Y-113544030D01*
X141389502Y-113530356D01*
X141274089Y-113509326D01*
X141196406Y-113473675D01*
X141154034Y-113422205D01*
X141150133Y-113411682D01*
X141139752Y-113387629D01*
X141123420Y-113384948D01*
X141090973Y-113405819D01*
X141058569Y-113431333D01*
X140981641Y-113477317D01*
X140880276Y-113517420D01*
X140772367Y-113545941D01*
X140675810Y-113557180D01*
X140663927Y-113557040D01*
X140599428Y-113550564D01*
X140525395Y-113537463D01*
X140515186Y-113535161D01*
X140392567Y-113487217D01*
X140297769Y-113409723D01*
X140234421Y-113307165D01*
X140206150Y-113184033D01*
X140204987Y-113151427D01*
X140205503Y-113143898D01*
X140493250Y-113143898D01*
X140516981Y-113219972D01*
X140567929Y-113279197D01*
X140596589Y-113295742D01*
X140706864Y-113322846D01*
X140825134Y-113317536D01*
X140933320Y-113280751D01*
X140938250Y-113278041D01*
X141021460Y-113209273D01*
X141076762Y-113117488D01*
X141096966Y-113014640D01*
X141096967Y-113014125D01*
X141097000Y-112945333D01*
X140873698Y-112945333D01*
X140739064Y-112949240D01*
X140640240Y-112962242D01*
X140571316Y-112986257D01*
X140526382Y-113023207D01*
X140502788Y-113065812D01*
X140493250Y-113143898D01*
X140205503Y-113143898D01*
X140212325Y-113044497D01*
X140237671Y-112963693D01*
X140286059Y-112894846D01*
X140302121Y-112878067D01*
X140362048Y-112830080D01*
X140435893Y-112795356D01*
X140530440Y-112772306D01*
X140652470Y-112759341D01*
X140808767Y-112754874D01*
X140828296Y-112754833D01*
X141102386Y-112754833D01*
X141092027Y-112647033D01*
X141065673Y-112539931D01*
X141009792Y-112463102D01*
X140923874Y-112416045D01*
X140838538Y-112399919D01*
X140713809Y-112403303D01*
X140618393Y-112436843D01*
X140551547Y-112500880D01*
X140529439Y-112542436D01*
X140493750Y-112627402D01*
X140369254Y-112627618D01*
X140244759Y-112627833D01*
X140256318Y-112541653D01*
X140292528Y-112423467D01*
X140366320Y-112323812D01*
X140476517Y-112244189D01*
X140497962Y-112233156D01*
X140568082Y-112201902D01*
X140630935Y-112183639D01*
X140703024Y-112175086D01*
X140800666Y-112172960D01*
X140941151Y-112179436D01*
X140941151Y-112179436D01*
G37*
X140941151Y-112179436D02*
X141051572Y-112200973D01*
X141142477Y-112240694D01*
X141218762Y-112296699D01*
X141271319Y-112348045D01*
X141311554Y-112402379D01*
X141341329Y-112466436D01*
X141362504Y-112546951D01*
X141376940Y-112650662D01*
X141386498Y-112784303D01*
X141392104Y-112924166D01*
X141403916Y-113294583D01*
X141462125Y-113301280D01*
X141495300Y-113307807D01*
X141512655Y-113324834D01*
X141519296Y-113363304D01*
X141520333Y-113426004D01*
X141520333Y-113544030D01*
X141389502Y-113530356D01*
X141274089Y-113509326D01*
X141196406Y-113473675D01*
X141154034Y-113422205D01*
X141150133Y-113411682D01*
X141139752Y-113387629D01*
X141123420Y-113384948D01*
X141090973Y-113405819D01*
X141058569Y-113431333D01*
X140981641Y-113477317D01*
X140880276Y-113517420D01*
X140772367Y-113545941D01*
X140675810Y-113557180D01*
X140663927Y-113557040D01*
X140599428Y-113550564D01*
X140525395Y-113537463D01*
X140515186Y-113535161D01*
X140392567Y-113487217D01*
X140297769Y-113409723D01*
X140234421Y-113307165D01*
X140206150Y-113184033D01*
X140204987Y-113151427D01*
X140205503Y-113143898D01*
X140493250Y-113143898D01*
X140516981Y-113219972D01*
X140567929Y-113279197D01*
X140596589Y-113295742D01*
X140706864Y-113322846D01*
X140825134Y-113317536D01*
X140933320Y-113280751D01*
X140938250Y-113278041D01*
X141021460Y-113209273D01*
X141076762Y-113117488D01*
X141096966Y-113014640D01*
X141096967Y-113014125D01*
X141097000Y-112945333D01*
X140873698Y-112945333D01*
X140739064Y-112949240D01*
X140640240Y-112962242D01*
X140571316Y-112986257D01*
X140526382Y-113023207D01*
X140502788Y-113065812D01*
X140493250Y-113143898D01*
X140205503Y-113143898D01*
X140212325Y-113044497D01*
X140237671Y-112963693D01*
X140286059Y-112894846D01*
X140302121Y-112878067D01*
X140362048Y-112830080D01*
X140435893Y-112795356D01*
X140530440Y-112772306D01*
X140652470Y-112759341D01*
X140808767Y-112754874D01*
X140828296Y-112754833D01*
X141102386Y-112754833D01*
X141092027Y-112647033D01*
X141065673Y-112539931D01*
X141009792Y-112463102D01*
X140923874Y-112416045D01*
X140838538Y-112399919D01*
X140713809Y-112403303D01*
X140618393Y-112436843D01*
X140551547Y-112500880D01*
X140529439Y-112542436D01*
X140493750Y-112627402D01*
X140369254Y-112627618D01*
X140244759Y-112627833D01*
X140256318Y-112541653D01*
X140292528Y-112423467D01*
X140366320Y-112323812D01*
X140476517Y-112244189D01*
X140497962Y-112233156D01*
X140568082Y-112201902D01*
X140630935Y-112183639D01*
X140703024Y-112175086D01*
X140800666Y-112172960D01*
X140941151Y-112179436D01*
G36*
X144099788Y-112171325D02*
X144251376Y-112210698D01*
X144386274Y-112281995D01*
X144497924Y-112381719D01*
X144579765Y-112506372D01*
X144581761Y-112510610D01*
X144616231Y-112588331D01*
X144627597Y-112635550D01*
X144611207Y-112659864D01*
X144562412Y-112668870D01*
X144484096Y-112670166D01*
X144336360Y-112670166D01*
X144294254Y-112587633D01*
X144227122Y-112496736D01*
X144135453Y-112439965D01*
X144018348Y-112416809D01*
X143992173Y-112416166D01*
X143870501Y-112434102D01*
X143771911Y-112486478D01*
X143698193Y-112571143D01*
X143651137Y-112685948D01*
X143632532Y-112828744D01*
X143632296Y-112848394D01*
X143646292Y-113003015D01*
X143688251Y-113125955D01*
X143758127Y-113217147D01*
X143855877Y-113276522D01*
X143928041Y-113296877D01*
X144040487Y-113298434D01*
X144147833Y-113264614D01*
X144239651Y-113200903D01*
X144305513Y-113112791D01*
X144314292Y-113093597D01*
X144330309Y-113060089D01*
X144350850Y-113041066D01*
X144386990Y-113032432D01*
X144449801Y-113030091D01*
X144486234Y-113030000D01*
X144568685Y-113032436D01*
X144615109Y-113040533D01*
X144631572Y-113055473D01*
X144631833Y-113058369D01*
X144622844Y-113090567D01*
X144599256Y-113147949D01*
X144566134Y-113218211D01*
X144565446Y-113219590D01*
X144480129Y-113345283D01*
X144366838Y-113443610D01*
X144231905Y-113512013D01*
X144081660Y-113547932D01*
X143922433Y-113548808D01*
X143806333Y-113526457D01*
X143652281Y-113464421D01*
X143528459Y-113372989D01*
X143435393Y-113252932D01*
X143373612Y-113105019D01*
X143343642Y-112930018D01*
X143340666Y-112847035D01*
X143358633Y-112670048D01*
X143410860Y-112514919D01*
X143494834Y-112384505D01*
X143608044Y-112281666D01*
X143747978Y-112209257D01*
X143912123Y-112170138D01*
X143938070Y-112167373D01*
X144099788Y-112171325D01*
X144099788Y-112171325D01*
G37*
X144099788Y-112171325D02*
X144251376Y-112210698D01*
X144386274Y-112281995D01*
X144497924Y-112381719D01*
X144579765Y-112506372D01*
X144581761Y-112510610D01*
X144616231Y-112588331D01*
X144627597Y-112635550D01*
X144611207Y-112659864D01*
X144562412Y-112668870D01*
X144484096Y-112670166D01*
X144336360Y-112670166D01*
X144294254Y-112587633D01*
X144227122Y-112496736D01*
X144135453Y-112439965D01*
X144018348Y-112416809D01*
X143992173Y-112416166D01*
X143870501Y-112434102D01*
X143771911Y-112486478D01*
X143698193Y-112571143D01*
X143651137Y-112685948D01*
X143632532Y-112828744D01*
X143632296Y-112848394D01*
X143646292Y-113003015D01*
X143688251Y-113125955D01*
X143758127Y-113217147D01*
X143855877Y-113276522D01*
X143928041Y-113296877D01*
X144040487Y-113298434D01*
X144147833Y-113264614D01*
X144239651Y-113200903D01*
X144305513Y-113112791D01*
X144314292Y-113093597D01*
X144330309Y-113060089D01*
X144350850Y-113041066D01*
X144386990Y-113032432D01*
X144449801Y-113030091D01*
X144486234Y-113030000D01*
X144568685Y-113032436D01*
X144615109Y-113040533D01*
X144631572Y-113055473D01*
X144631833Y-113058369D01*
X144622844Y-113090567D01*
X144599256Y-113147949D01*
X144566134Y-113218211D01*
X144565446Y-113219590D01*
X144480129Y-113345283D01*
X144366838Y-113443610D01*
X144231905Y-113512013D01*
X144081660Y-113547932D01*
X143922433Y-113548808D01*
X143806333Y-113526457D01*
X143652281Y-113464421D01*
X143528459Y-113372989D01*
X143435393Y-113252932D01*
X143373612Y-113105019D01*
X143343642Y-112930018D01*
X143340666Y-112847035D01*
X143358633Y-112670048D01*
X143410860Y-112514919D01*
X143494834Y-112384505D01*
X143608044Y-112281666D01*
X143747978Y-112209257D01*
X143912123Y-112170138D01*
X143938070Y-112167373D01*
X144099788Y-112171325D01*
G36*
X131902756Y-112187218D02*
X131948432Y-112202974D01*
X131969365Y-112236750D01*
X131974166Y-112290897D01*
X131978466Y-112322721D01*
X131995876Y-112326968D01*
X132033163Y-112302751D01*
X132061726Y-112279396D01*
X132164900Y-112219556D01*
X132296875Y-112188192D01*
X132381625Y-112183451D01*
X132482166Y-112183333D01*
X132482166Y-112431645D01*
X132339291Y-112442434D01*
X132219599Y-112457800D01*
X132133148Y-112485114D01*
X132071734Y-112527696D01*
X132043255Y-112562303D01*
X132030503Y-112586241D01*
X132020561Y-112619714D01*
X132012885Y-112668507D01*
X132006931Y-112738407D01*
X132002156Y-112835199D01*
X131998016Y-112964669D01*
X131995333Y-113072333D01*
X131984750Y-113527416D01*
X131699000Y-113539934D01*
X131699000Y-112183333D01*
X131823735Y-112183333D01*
X131902756Y-112187218D01*
X131902756Y-112187218D01*
G37*
X131902756Y-112187218D02*
X131948432Y-112202974D01*
X131969365Y-112236750D01*
X131974166Y-112290897D01*
X131978466Y-112322721D01*
X131995876Y-112326968D01*
X132033163Y-112302751D01*
X132061726Y-112279396D01*
X132164900Y-112219556D01*
X132296875Y-112188192D01*
X132381625Y-112183451D01*
X132482166Y-112183333D01*
X132482166Y-112431645D01*
X132339291Y-112442434D01*
X132219599Y-112457800D01*
X132133148Y-112485114D01*
X132071734Y-112527696D01*
X132043255Y-112562303D01*
X132030503Y-112586241D01*
X132020561Y-112619714D01*
X132012885Y-112668507D01*
X132006931Y-112738407D01*
X132002156Y-112835199D01*
X131998016Y-112964669D01*
X131995333Y-113072333D01*
X131984750Y-113527416D01*
X131699000Y-113539934D01*
X131699000Y-112183333D01*
X131823735Y-112183333D01*
X131902756Y-112187218D01*
G36*
X133032500Y-112333494D02*
X133111875Y-112270763D01*
X133229960Y-112201514D01*
X133359256Y-112166369D01*
X133492348Y-112163396D01*
X133621823Y-112190665D01*
X133740270Y-112246244D01*
X133840274Y-112328203D01*
X133914423Y-112434610D01*
X133935815Y-112485384D01*
X133948900Y-112528542D01*
X133958728Y-112577154D01*
X133965737Y-112637771D01*
X133970367Y-112716944D01*
X133973056Y-112821224D01*
X133974242Y-112957162D01*
X133974416Y-113061750D01*
X133974416Y-113527416D01*
X133699250Y-113527416D01*
X133688666Y-113071315D01*
X133684387Y-112908360D01*
X133679150Y-112781961D01*
X133671605Y-112686341D01*
X133660403Y-112615724D01*
X133644192Y-112564334D01*
X133621625Y-112526395D01*
X133591351Y-112496132D01*
X133552019Y-112467767D01*
X133546823Y-112464345D01*
X133476856Y-112437550D01*
X133386390Y-112427599D01*
X133292739Y-112434110D01*
X133213217Y-112456699D01*
X133186213Y-112472336D01*
X133141305Y-112507195D01*
X133106875Y-112540208D01*
X133081368Y-112577501D01*
X133063234Y-112625203D01*
X133050919Y-112689442D01*
X133042871Y-112776344D01*
X133037538Y-112892037D01*
X133033368Y-113042650D01*
X133032500Y-113079102D01*
X133021916Y-113527416D01*
X132736166Y-113539934D01*
X132736166Y-111590666D01*
X133032500Y-111590666D01*
X133032500Y-112333494D01*
X133032500Y-112333494D01*
G37*
X133032500Y-112333494D02*
X133111875Y-112270763D01*
X133229960Y-112201514D01*
X133359256Y-112166369D01*
X133492348Y-112163396D01*
X133621823Y-112190665D01*
X133740270Y-112246244D01*
X133840274Y-112328203D01*
X133914423Y-112434610D01*
X133935815Y-112485384D01*
X133948900Y-112528542D01*
X133958728Y-112577154D01*
X133965737Y-112637771D01*
X133970367Y-112716944D01*
X133973056Y-112821224D01*
X133974242Y-112957162D01*
X133974416Y-113061750D01*
X133974416Y-113527416D01*
X133699250Y-113527416D01*
X133688666Y-113071315D01*
X133684387Y-112908360D01*
X133679150Y-112781961D01*
X133671605Y-112686341D01*
X133660403Y-112615724D01*
X133644192Y-112564334D01*
X133621625Y-112526395D01*
X133591351Y-112496132D01*
X133552019Y-112467767D01*
X133546823Y-112464345D01*
X133476856Y-112437550D01*
X133386390Y-112427599D01*
X133292739Y-112434110D01*
X133213217Y-112456699D01*
X133186213Y-112472336D01*
X133141305Y-112507195D01*
X133106875Y-112540208D01*
X133081368Y-112577501D01*
X133063234Y-112625203D01*
X133050919Y-112689442D01*
X133042871Y-112776344D01*
X133037538Y-112892037D01*
X133033368Y-113042650D01*
X133032500Y-113079102D01*
X133021916Y-113527416D01*
X132736166Y-113539934D01*
X132736166Y-111590666D01*
X133032500Y-111590666D01*
X133032500Y-112333494D01*
G36*
X134620000Y-113538000D02*
X134481752Y-113538000D01*
X134391837Y-113533704D01*
X134342516Y-113520890D01*
X134333267Y-113511322D01*
X134330890Y-113484168D01*
X134329071Y-113420102D01*
X134327849Y-113324541D01*
X134327261Y-113202905D01*
X134327345Y-113060612D01*
X134328136Y-112903078D01*
X134328640Y-112839281D01*
X134334250Y-112193916D01*
X134477125Y-112187657D01*
X134620000Y-112181399D01*
X134620000Y-113538000D01*
X134620000Y-113538000D01*
G37*
X134620000Y-113538000D02*
X134481752Y-113538000D01*
X134391837Y-113533704D01*
X134342516Y-113520890D01*
X134333267Y-113511322D01*
X134330890Y-113484168D01*
X134329071Y-113420102D01*
X134327849Y-113324541D01*
X134327261Y-113202905D01*
X134327345Y-113060612D01*
X134328136Y-112903078D01*
X134328640Y-112839281D01*
X134334250Y-112193916D01*
X134477125Y-112187657D01*
X134620000Y-112181399D01*
X134620000Y-113538000D01*
G36*
X136017000Y-112434536D02*
X135657166Y-112848238D01*
X135560305Y-112960008D01*
X135473312Y-113061175D01*
X135399858Y-113147405D01*
X135343617Y-113214362D01*
X135308261Y-113257711D01*
X135297333Y-113272970D01*
X135317354Y-113276589D01*
X135372834Y-113279710D01*
X135456901Y-113282121D01*
X135562682Y-113283611D01*
X135657166Y-113284000D01*
X136017000Y-113284000D01*
X136017000Y-113538000D01*
X134937500Y-113538000D01*
X134937500Y-113272454D01*
X135286395Y-112870768D01*
X135381763Y-112760380D01*
X135467219Y-112660332D01*
X135539026Y-112575093D01*
X135593444Y-112509133D01*
X135626734Y-112466922D01*
X135635645Y-112453208D01*
X135615765Y-112447925D01*
X135560519Y-112443387D01*
X135476875Y-112439910D01*
X135371799Y-112437812D01*
X135286750Y-112437333D01*
X134937500Y-112437333D01*
X134937500Y-112183333D01*
X136017000Y-112183333D01*
X136017000Y-112434536D01*
X136017000Y-112434536D01*
G37*
X136017000Y-112434536D02*
X135657166Y-112848238D01*
X135560305Y-112960008D01*
X135473312Y-113061175D01*
X135399858Y-113147405D01*
X135343617Y-113214362D01*
X135308261Y-113257711D01*
X135297333Y-113272970D01*
X135317354Y-113276589D01*
X135372834Y-113279710D01*
X135456901Y-113282121D01*
X135562682Y-113283611D01*
X135657166Y-113284000D01*
X136017000Y-113284000D01*
X136017000Y-113538000D01*
X134937500Y-113538000D01*
X134937500Y-113272454D01*
X135286395Y-112870768D01*
X135381763Y-112760380D01*
X135467219Y-112660332D01*
X135539026Y-112575093D01*
X135593444Y-112509133D01*
X135626734Y-112466922D01*
X135635645Y-112453208D01*
X135615765Y-112447925D01*
X135560519Y-112443387D01*
X135476875Y-112439910D01*
X135371799Y-112437812D01*
X135286750Y-112437333D01*
X134937500Y-112437333D01*
X134937500Y-112183333D01*
X136017000Y-112183333D01*
X136017000Y-112434536D01*
G36*
X139559566Y-112186160D02*
X139678142Y-112240525D01*
X139780773Y-112325566D01*
X139848166Y-112418058D01*
X139864716Y-112448517D01*
X139877483Y-112478070D01*
X139887044Y-112512603D01*
X139893976Y-112558007D01*
X139898857Y-112620170D01*
X139902263Y-112704980D01*
X139904774Y-112818326D01*
X139906965Y-112966096D01*
X139907746Y-113025706D01*
X139914408Y-113539996D01*
X139625916Y-113527416D01*
X139615333Y-113047527D01*
X139611801Y-112893016D01*
X139608469Y-112775097D01*
X139604668Y-112688039D01*
X139599732Y-112626111D01*
X139592993Y-112583580D01*
X139583786Y-112554714D01*
X139571443Y-112533783D01*
X139555296Y-112515054D01*
X139553100Y-112512713D01*
X139467742Y-112451068D01*
X139366054Y-112423380D01*
X139261120Y-112433158D01*
X139258945Y-112433800D01*
X139196569Y-112457347D01*
X139147393Y-112489590D01*
X139109903Y-112535380D01*
X139082584Y-112599569D01*
X139063922Y-112687007D01*
X139052403Y-112802548D01*
X139046511Y-112951042D01*
X139044762Y-113119958D01*
X139043833Y-113538000D01*
X138768666Y-113538000D01*
X138768666Y-113087878D01*
X138768291Y-112935058D01*
X138766858Y-112818373D01*
X138763909Y-112731627D01*
X138758984Y-112668625D01*
X138751624Y-112623173D01*
X138741370Y-112589077D01*
X138729829Y-112564003D01*
X138667363Y-112484953D01*
X138585807Y-112437735D01*
X138493842Y-112422227D01*
X138400150Y-112438311D01*
X138313413Y-112485867D01*
X138242313Y-112564774D01*
X138238568Y-112570775D01*
X138224751Y-112596747D01*
X138214390Y-112627233D01*
X138206995Y-112668378D01*
X138202074Y-112726329D01*
X138199138Y-112807232D01*
X138197696Y-112917233D01*
X138197255Y-113062478D01*
X138197245Y-113088208D01*
X138197166Y-113538000D01*
X138058919Y-113538000D01*
X137969004Y-113533704D01*
X137919683Y-113520890D01*
X137910434Y-113511322D01*
X137908056Y-113484168D01*
X137906238Y-113420102D01*
X137905016Y-113324541D01*
X137904428Y-113202905D01*
X137904511Y-113060612D01*
X137905303Y-112903078D01*
X137905807Y-112839281D01*
X137911416Y-112193916D01*
X138037624Y-112193916D01*
X138108047Y-112195024D01*
X138147746Y-112201977D01*
X138168325Y-112220218D01*
X138181391Y-112255192D01*
X138183447Y-112262312D01*
X138203063Y-112330707D01*
X138273920Y-112268494D01*
X138376046Y-112204888D01*
X138495242Y-112171912D01*
X138621313Y-112168755D01*
X138744069Y-112194606D01*
X138853315Y-112248653D01*
X138931758Y-112320854D01*
X138985727Y-112388491D01*
X139075607Y-112298612D01*
X139183065Y-112218696D01*
X139304538Y-112174087D01*
X139432535Y-112163628D01*
X139559566Y-112186160D01*
X139559566Y-112186160D01*
G37*
X139559566Y-112186160D02*
X139678142Y-112240525D01*
X139780773Y-112325566D01*
X139848166Y-112418058D01*
X139864716Y-112448517D01*
X139877483Y-112478070D01*
X139887044Y-112512603D01*
X139893976Y-112558007D01*
X139898857Y-112620170D01*
X139902263Y-112704980D01*
X139904774Y-112818326D01*
X139906965Y-112966096D01*
X139907746Y-113025706D01*
X139914408Y-113539996D01*
X139625916Y-113527416D01*
X139615333Y-113047527D01*
X139611801Y-112893016D01*
X139608469Y-112775097D01*
X139604668Y-112688039D01*
X139599732Y-112626111D01*
X139592993Y-112583580D01*
X139583786Y-112554714D01*
X139571443Y-112533783D01*
X139555296Y-112515054D01*
X139553100Y-112512713D01*
X139467742Y-112451068D01*
X139366054Y-112423380D01*
X139261120Y-112433158D01*
X139258945Y-112433800D01*
X139196569Y-112457347D01*
X139147393Y-112489590D01*
X139109903Y-112535380D01*
X139082584Y-112599569D01*
X139063922Y-112687007D01*
X139052403Y-112802548D01*
X139046511Y-112951042D01*
X139044762Y-113119958D01*
X139043833Y-113538000D01*
X138768666Y-113538000D01*
X138768666Y-113087878D01*
X138768291Y-112935058D01*
X138766858Y-112818373D01*
X138763909Y-112731627D01*
X138758984Y-112668625D01*
X138751624Y-112623173D01*
X138741370Y-112589077D01*
X138729829Y-112564003D01*
X138667363Y-112484953D01*
X138585807Y-112437735D01*
X138493842Y-112422227D01*
X138400150Y-112438311D01*
X138313413Y-112485867D01*
X138242313Y-112564774D01*
X138238568Y-112570775D01*
X138224751Y-112596747D01*
X138214390Y-112627233D01*
X138206995Y-112668378D01*
X138202074Y-112726329D01*
X138199138Y-112807232D01*
X138197696Y-112917233D01*
X138197255Y-113062478D01*
X138197245Y-113088208D01*
X138197166Y-113538000D01*
X138058919Y-113538000D01*
X137969004Y-113533704D01*
X137919683Y-113520890D01*
X137910434Y-113511322D01*
X137908056Y-113484168D01*
X137906238Y-113420102D01*
X137905016Y-113324541D01*
X137904428Y-113202905D01*
X137904511Y-113060612D01*
X137905303Y-112903078D01*
X137905807Y-112839281D01*
X137911416Y-112193916D01*
X138037624Y-112193916D01*
X138108047Y-112195024D01*
X138147746Y-112201977D01*
X138168325Y-112220218D01*
X138181391Y-112255192D01*
X138183447Y-112262312D01*
X138203063Y-112330707D01*
X138273920Y-112268494D01*
X138376046Y-112204888D01*
X138495242Y-112171912D01*
X138621313Y-112168755D01*
X138744069Y-112194606D01*
X138853315Y-112248653D01*
X138931758Y-112320854D01*
X138985727Y-112388491D01*
X139075607Y-112298612D01*
X139183065Y-112218696D01*
X139304538Y-112174087D01*
X139432535Y-112163628D01*
X139559566Y-112186160D01*
G36*
X142113000Y-112183333D02*
X142430500Y-112183333D01*
X142430500Y-112435478D01*
X142277041Y-112441697D01*
X142123583Y-112447916D01*
X142123583Y-112822910D01*
X142123977Y-112968949D01*
X142126703Y-113078283D01*
X142134078Y-113156541D01*
X142148419Y-113209353D01*
X142172044Y-113242346D01*
X142207268Y-113261150D01*
X142256410Y-113271393D01*
X142310730Y-113277561D01*
X142430500Y-113289922D01*
X142430500Y-113538000D01*
X142319375Y-113535350D01*
X142233050Y-113530688D01*
X142146422Y-113522066D01*
X142117861Y-113517995D01*
X142045309Y-113498165D01*
X141980420Y-113467760D01*
X141969694Y-113460532D01*
X141931464Y-113429332D01*
X141902120Y-113395554D01*
X141880383Y-113353245D01*
X141864975Y-113296452D01*
X141854616Y-113219224D01*
X141848026Y-113115608D01*
X141843927Y-112979651D01*
X141841914Y-112865958D01*
X141835412Y-112437333D01*
X141602887Y-112437333D01*
X141609235Y-112315625D01*
X141615583Y-112193916D01*
X141699981Y-112187047D01*
X141764996Y-112177896D01*
X141805721Y-112157729D01*
X141827713Y-112118187D01*
X141836527Y-112050913D01*
X141837833Y-111979658D01*
X141837833Y-111823500D01*
X142113000Y-111823500D01*
X142113000Y-112183333D01*
X142113000Y-112183333D01*
G37*
X142113000Y-112183333D02*
X142430500Y-112183333D01*
X142430500Y-112435478D01*
X142277041Y-112441697D01*
X142123583Y-112447916D01*
X142123583Y-112822910D01*
X142123977Y-112968949D01*
X142126703Y-113078283D01*
X142134078Y-113156541D01*
X142148419Y-113209353D01*
X142172044Y-113242346D01*
X142207268Y-113261150D01*
X142256410Y-113271393D01*
X142310730Y-113277561D01*
X142430500Y-113289922D01*
X142430500Y-113538000D01*
X142319375Y-113535350D01*
X142233050Y-113530688D01*
X142146422Y-113522066D01*
X142117861Y-113517995D01*
X142045309Y-113498165D01*
X141980420Y-113467760D01*
X141969694Y-113460532D01*
X141931464Y-113429332D01*
X141902120Y-113395554D01*
X141880383Y-113353245D01*
X141864975Y-113296452D01*
X141854616Y-113219224D01*
X141848026Y-113115608D01*
X141843927Y-112979651D01*
X141841914Y-112865958D01*
X141835412Y-112437333D01*
X141602887Y-112437333D01*
X141609235Y-112315625D01*
X141615583Y-112193916D01*
X141699981Y-112187047D01*
X141764996Y-112177896D01*
X141805721Y-112157729D01*
X141827713Y-112118187D01*
X141836527Y-112050913D01*
X141837833Y-111979658D01*
X141837833Y-111823500D01*
X142113000Y-111823500D01*
X142113000Y-112183333D01*
G36*
X143002000Y-113538000D02*
X142726833Y-113538000D01*
X142726833Y-112183333D01*
X143002000Y-112183333D01*
X143002000Y-113538000D01*
X143002000Y-113538000D01*
G37*
X143002000Y-113538000D02*
X142726833Y-113538000D01*
X142726833Y-112183333D01*
X143002000Y-112183333D01*
X143002000Y-113538000D01*
G36*
X134477125Y-111637364D02*
X134630583Y-111643583D01*
X134636842Y-111786458D01*
X134643100Y-111929333D01*
X134323666Y-111929333D01*
X134323666Y-111631145D01*
X134477125Y-111637364D01*
X134477125Y-111637364D01*
G37*
X134477125Y-111637364D02*
X134630583Y-111643583D01*
X134636842Y-111786458D01*
X134643100Y-111929333D01*
X134323666Y-111929333D01*
X134323666Y-111631145D01*
X134477125Y-111637364D01*
G36*
X143023166Y-111929333D02*
X142703732Y-111929333D01*
X142716250Y-111643583D01*
X143023166Y-111631145D01*
X143023166Y-111929333D01*
X143023166Y-111929333D01*
G37*
X143023166Y-111929333D02*
X142703732Y-111929333D01*
X142716250Y-111643583D01*
X143023166Y-111631145D01*
X143023166Y-111929333D01*
G36*
X153437166Y-104775000D02*
X152071252Y-104775000D01*
X151785462Y-104774837D01*
X151539459Y-104774318D01*
X151330699Y-104773392D01*
X151156637Y-104772011D01*
X151014728Y-104770126D01*
X150902428Y-104767688D01*
X150817192Y-104764649D01*
X150756475Y-104760958D01*
X150717732Y-104756568D01*
X150698418Y-104751429D01*
X150695244Y-104748541D01*
X150693771Y-104723794D01*
X150692491Y-104659867D01*
X150691410Y-104559915D01*
X150690538Y-104427090D01*
X150689882Y-104264546D01*
X150689451Y-104075438D01*
X150689253Y-103862917D01*
X150689295Y-103630138D01*
X150689587Y-103380255D01*
X150690135Y-103116421D01*
X150690617Y-102944083D01*
X150695660Y-101303666D01*
X150833666Y-101303666D01*
X150833666Y-104626833D01*
X153310166Y-104626833D01*
X153310166Y-101303666D01*
X150833666Y-101303666D01*
X150695660Y-101303666D01*
X150696083Y-101166083D01*
X152066625Y-101160637D01*
X153437166Y-101155191D01*
X153437166Y-104775000D01*
X153437166Y-104775000D01*
G37*
X153437166Y-104775000D02*
X152071252Y-104775000D01*
X151785462Y-104774837D01*
X151539459Y-104774318D01*
X151330699Y-104773392D01*
X151156637Y-104772011D01*
X151014728Y-104770126D01*
X150902428Y-104767688D01*
X150817192Y-104764649D01*
X150756475Y-104760958D01*
X150717732Y-104756568D01*
X150698418Y-104751429D01*
X150695244Y-104748541D01*
X150693771Y-104723794D01*
X150692491Y-104659867D01*
X150691410Y-104559915D01*
X150690538Y-104427090D01*
X150689882Y-104264546D01*
X150689451Y-104075438D01*
X150689253Y-103862917D01*
X150689295Y-103630138D01*
X150689587Y-103380255D01*
X150690135Y-103116421D01*
X150690617Y-102944083D01*
X150695660Y-101303666D01*
X150833666Y-101303666D01*
X150833666Y-104626833D01*
X153310166Y-104626833D01*
X153310166Y-101303666D01*
X150833666Y-101303666D01*
X150695660Y-101303666D01*
X150696083Y-101166083D01*
X152066625Y-101160637D01*
X153437166Y-101155191D01*
X153437166Y-104775000D01*
G36*
X152040166Y-92138500D02*
X130958166Y-92138500D01*
X130958166Y-78189666D01*
X131085166Y-78189666D01*
X131085166Y-91990333D01*
X151913166Y-91990333D01*
X151913166Y-78189666D01*
X131085166Y-78189666D01*
X130958166Y-78189666D01*
X130958166Y-78041500D01*
X152040166Y-78041500D01*
X152040166Y-92138500D01*
X152040166Y-92138500D01*
G37*
X152040166Y-92138500D02*
X130958166Y-92138500D01*
X130958166Y-78189666D01*
X131085166Y-78189666D01*
X131085166Y-91990333D01*
X151913166Y-91990333D01*
X151913166Y-78189666D01*
X131085166Y-78189666D01*
X130958166Y-78189666D01*
X130958166Y-78041500D01*
X152040166Y-78041500D01*
X152040166Y-92138500D01*
G36*
X165967833Y-88476666D02*
X159173333Y-88476666D01*
X159173333Y-81830333D01*
X159321500Y-81830333D01*
X159321500Y-88328500D01*
X165819666Y-88328500D01*
X165819666Y-81830333D01*
X159321500Y-81830333D01*
X159173333Y-81830333D01*
X159173333Y-81682166D01*
X165967833Y-81682166D01*
X165967833Y-88476666D01*
X165967833Y-88476666D01*
G37*
X165967833Y-88476666D02*
X159173333Y-88476666D01*
X159173333Y-81830333D01*
X159321500Y-81830333D01*
X159321500Y-88328500D01*
X165819666Y-88328500D01*
X165819666Y-81830333D01*
X159321500Y-81830333D01*
X159173333Y-81830333D01*
X159173333Y-81682166D01*
X165967833Y-81682166D01*
X165967833Y-88476666D01*
G36*
X121136833Y-86931500D02*
X117602000Y-86931500D01*
X117602000Y-83460166D01*
X117750166Y-83460166D01*
X117750166Y-86783333D01*
X121009833Y-86783333D01*
X121009833Y-83460166D01*
X117750166Y-83460166D01*
X117602000Y-83460166D01*
X117602000Y-83312000D01*
X121136833Y-83312000D01*
X121136833Y-86931500D01*
X121136833Y-86931500D01*
G37*
X121136833Y-86931500D02*
X117602000Y-86931500D01*
X117602000Y-83460166D01*
X117750166Y-83460166D01*
X117750166Y-86783333D01*
X121009833Y-86783333D01*
X121009833Y-83460166D01*
X117750166Y-83460166D01*
X117602000Y-83460166D01*
X117602000Y-83312000D01*
X121136833Y-83312000D01*
X121136833Y-86931500D01*
%LPC*%
D14*
X121265000Y-88265000D03*
X118765000Y-88265000D03*
D15*
X127000000Y-81590000D03*
X127000000Y-85090000D03*
X127000000Y-88590000D03*
D16*
X149523701Y-102353393D03*
X149523701Y-104853393D03*
D14*
X121265000Y-81915000D03*
X118765000Y-81915000D03*
D16*
X154603701Y-102373393D03*
X154603701Y-104873393D03*
D17*
X172085000Y-84775000D03*
X172085000Y-86675000D03*
D18*
X167960000Y-88900000D03*
X169860000Y-88900000D03*
D14*
X167660000Y-100330000D03*
X170160000Y-100330000D03*
D18*
X169540000Y-82550000D03*
X167640000Y-82550000D03*
X176210000Y-80010000D03*
X174310000Y-80010000D03*
D14*
X157460000Y-81915000D03*
X154960000Y-81915000D03*
D17*
X160655000Y-79690000D03*
X160655000Y-77790000D03*
D19*
X154860000Y-115570000D03*
X157560000Y-115570000D03*
X162480000Y-115570000D03*
X165180000Y-115570000D03*
X170100000Y-115570000D03*
X172800000Y-115570000D03*
X177720000Y-115570000D03*
X180420000Y-115570000D03*
X185340000Y-115570000D03*
X188040000Y-115570000D03*
D20*
X118535000Y-97470000D03*
D21*
X120445000Y-98850000D03*
X120445000Y-99350000D03*
X120445000Y-99850000D03*
X120445000Y-100350000D03*
X120445000Y-100850000D03*
X120445000Y-101350000D03*
X120445000Y-101850000D03*
X120445000Y-104350000D03*
X120445000Y-103350000D03*
X120445000Y-102850000D03*
X120445000Y-102350000D03*
X120445000Y-103850000D03*
X118745000Y-104100000D03*
D20*
X118535000Y-105730000D03*
X112585000Y-106090000D03*
X112585000Y-97110000D03*
D22*
X119785000Y-105200000D03*
D23*
X119785000Y-98000000D03*
D21*
X118745000Y-103600000D03*
X118745000Y-103100000D03*
X118745000Y-102600000D03*
X118745000Y-102100000D03*
X118745000Y-101600000D03*
X118745000Y-101100000D03*
X118745000Y-100600000D03*
X118745000Y-100100000D03*
X118745000Y-99600000D03*
X118745000Y-99100000D03*
X118745000Y-98600000D03*
D24*
X176530000Y-106045000D03*
X185420000Y-97155000D03*
X185420000Y-106045000D03*
X190500000Y-106045000D03*
X190500000Y-97155000D03*
D25*
X152093701Y-99158393D03*
X149493701Y-99158393D03*
D26*
X115570000Y-86440000D03*
X115570000Y-83740000D03*
D19*
X149860000Y-94615000D03*
X147160000Y-94615000D03*
X152400000Y-94615000D03*
X155100000Y-94615000D03*
X170260000Y-102870000D03*
X167560000Y-102870000D03*
D26*
X172720000Y-102950000D03*
X172720000Y-100250000D03*
X164465000Y-77390000D03*
X164465000Y-80090000D03*
X162560000Y-96680000D03*
X162560000Y-93980000D03*
D19*
X154860000Y-113030000D03*
X157560000Y-113030000D03*
X162480000Y-113030000D03*
X165180000Y-113030000D03*
X170100000Y-113030000D03*
X172800000Y-113030000D03*
X177720000Y-113030000D03*
X180420000Y-113030000D03*
X185340000Y-113030000D03*
X188040000Y-113030000D03*
X157560000Y-86995000D03*
X154860000Y-86995000D03*
X157560000Y-89535000D03*
X154860000Y-89535000D03*
X157560000Y-84455000D03*
X154860000Y-84455000D03*
D27*
X120380000Y-84192881D03*
X119880000Y-84192881D03*
X119380000Y-84192881D03*
X118880000Y-84192881D03*
X118380000Y-84192881D03*
X118380000Y-86042881D03*
X118880000Y-86042881D03*
X119380000Y-86042881D03*
X119880000Y-86042881D03*
X120380000Y-86042881D03*
D28*
X118780000Y-85117881D03*
X119980000Y-85117881D03*
D29*
X160655000Y-104300000D03*
X161925000Y-104300000D03*
X163195000Y-104300000D03*
X164465000Y-104300000D03*
X164465000Y-98900000D03*
X163195000Y-98900000D03*
X161925000Y-98900000D03*
X160655000Y-98900000D03*
D27*
X164310000Y-82690000D03*
X163810000Y-82690000D03*
X163310000Y-82690000D03*
X162810000Y-82690000D03*
X162310000Y-82690000D03*
X161810000Y-82690000D03*
X161310000Y-82690000D03*
X160810000Y-82690000D03*
D30*
X160160000Y-83340000D03*
X160160000Y-83840000D03*
X160160000Y-84340000D03*
X160160000Y-84840000D03*
X160160000Y-85340000D03*
X160160000Y-85840000D03*
X160160000Y-86340000D03*
X160160000Y-86840000D03*
D27*
X160810000Y-87490000D03*
X161310000Y-87490000D03*
X161810000Y-87490000D03*
X162310000Y-87490000D03*
X162810000Y-87490000D03*
X163310000Y-87490000D03*
X163810000Y-87490000D03*
X164310000Y-87490000D03*
D30*
X164960000Y-86840000D03*
X164960000Y-86340000D03*
X164960000Y-85840000D03*
X164960000Y-85340000D03*
X164960000Y-84840000D03*
X164960000Y-84340000D03*
X164960000Y-83840000D03*
X164960000Y-83340000D03*
D31*
X161697500Y-85952500D03*
X163422500Y-85952500D03*
X161697500Y-84227500D03*
X163422500Y-84227500D03*
D32*
X170010000Y-84875000D03*
X167810000Y-84875000D03*
X167810000Y-86575000D03*
X170010000Y-86575000D03*
D33*
X151413701Y-103918393D03*
X152063701Y-103918393D03*
X152713701Y-103918393D03*
X152713701Y-102018393D03*
X151413701Y-102018393D03*
X152063701Y-102018393D03*
D24*
X176530000Y-97155000D03*
D34*
X156210000Y-78740000D03*
D10*
G36*
X125425000Y-114050000D02*
X125428939Y-114069453D01*
X125440136Y-114085840D01*
X125456827Y-114096581D01*
X125476381Y-114099981D01*
X125495718Y-114095506D01*
X125510162Y-114085548D01*
X127725000Y-111894784D01*
X127725000Y-116375000D01*
X120850000Y-116375000D01*
X120850000Y-114071030D01*
X123075000Y-111893880D01*
X123075000Y-114050000D01*
X123078939Y-114069453D01*
X123090136Y-114085840D01*
X123106827Y-114096581D01*
X123126381Y-114099981D01*
X123145718Y-114095506D01*
X123159777Y-114085924D01*
X125425000Y-111892995D01*
X125425000Y-114050000D01*
X125425000Y-114050000D01*
G37*
X125425000Y-114050000D02*
X125428939Y-114069453D01*
X125440136Y-114085840D01*
X125456827Y-114096581D01*
X125476381Y-114099981D01*
X125495718Y-114095506D01*
X125510162Y-114085548D01*
X127725000Y-111894784D01*
X127725000Y-116375000D01*
X120850000Y-116375000D01*
X120850000Y-114071030D01*
X123075000Y-111893880D01*
X123075000Y-114050000D01*
X123078939Y-114069453D01*
X123090136Y-114085840D01*
X123106827Y-114096581D01*
X123126381Y-114099981D01*
X123145718Y-114095506D01*
X123159777Y-114085924D01*
X125425000Y-111892995D01*
X125425000Y-114050000D01*
G36*
X118304290Y-114025000D02*
X116400000Y-114025000D01*
X116380547Y-114028939D01*
X116364160Y-114040136D01*
X116353419Y-114056827D01*
X116350000Y-114075000D01*
X116350000Y-116375000D01*
X116175000Y-116375000D01*
X116175000Y-111895710D01*
X118304290Y-114025000D01*
X118304290Y-114025000D01*
G37*
X118304290Y-114025000D02*
X116400000Y-114025000D01*
X116380547Y-114028939D01*
X116364160Y-114040136D01*
X116353419Y-114056827D01*
X116350000Y-114075000D01*
X116350000Y-116375000D01*
X116175000Y-116375000D01*
X116175000Y-111895710D01*
X118304290Y-114025000D01*
M02*
