M48
;DRILL file {KiCad 4.0.7} date 04/10/18 01:40:09
;FORMAT={-:-/ absolute / inch / decimal}
FMAT,2
INCH,TZ
T1C0.012
T2C0.016
T3C0.020
T4C0.079
%
G90
G05
M72
T1
X4.5Y-3.82
X4.61Y-3.82
X4.63Y-3.31
X4.86Y-3.43
X5.8Y-3.78
X5.8Y-3.94
X5.95Y-3.68
X6.08Y-3.18
X6.1757Y-3.4748
X6.26Y-3.24
X6.26Y-3.34
X6.26Y-3.2164
X6.2745Y-3.1969
X6.28Y-3.55
X6.28Y-3.84
X6.3064Y-3.84
X6.33Y-3.5
X6.33Y-3.84
X6.34Y-4.05
X6.35Y-3.99
X6.38Y-3.95
X6.38Y-4.05
X6.4167Y-3.1575
X6.42Y-4.05
X6.45Y-3.99
X6.5Y-3.5
X6.5264Y-3.5
X6.55Y-3.22
X6.55Y-3.25
X6.55Y-3.35
X6.55Y-3.5
X6.6Y-4.18
X6.6Y-4.2036
X6.6Y-4.2272
X6.6Y-4.2509
X6.69Y-3.29
X6.72Y-3.55
X6.72Y-3.5736
T2
X4.55Y-3.55
X4.6Y-3.475
X4.6Y-4.
X4.8Y-4.
X4.825Y-3.55
X5.16Y-3.55
X6.14Y-3.97
X6.14Y-4.08
X6.366Y-3.316
X6.366Y-3.384
X6.38Y-3.1
X6.434Y-3.316
X6.434Y-3.384
X6.45Y-3.21
X6.7Y-3.1
T4
X6.95Y-3.825
X6.95Y-4.175
X7.3Y-3.825
X7.3Y-4.175
X7.5Y-3.825
X7.5Y-4.175
T3
X4.4443Y-3.8232G85X4.4207Y-3.8232
G05
X4.4443Y-4.1768G85X4.4207Y-4.1768
G05
X4.6785Y-3.8374G85X4.6549Y-3.8374
G05
X4.6785Y-4.1626G85X4.6549Y-4.1626
G05
T0
M30
