G04 #@! TF.FileFunction,Legend,Bot*
%FSLAX46Y46*%
G04 Gerber Fmt 4.6, Leading zero omitted, Abs format (unit mm)*
G04 Created by KiCad (PCBNEW 4.0.7) date 04/10/18 01:40:05*
%MOMM*%
%LPD*%
G01*
G04 APERTURE LIST*
%ADD10C,0.100000*%
%ADD11C,0.010000*%
%ADD12O,1.800000X1.200000*%
%ADD13O,1.050000X1.350000*%
%ADD14C,1.050000*%
%ADD15C,2.900000*%
G04 APERTURE END LIST*
D10*
D11*
G36*
X178011667Y-119126000D02*
X187748334Y-119126000D01*
X187748334Y-117813666D01*
X178011667Y-117813666D01*
X178011667Y-119126000D01*
X178011667Y-119126000D01*
G37*
X178011667Y-119126000D02*
X187748334Y-119126000D01*
X187748334Y-117813666D01*
X178011667Y-117813666D01*
X178011667Y-119126000D01*
G36*
X155130500Y-119126000D02*
X164867167Y-119126000D01*
X164867167Y-117813666D01*
X155130500Y-117813666D01*
X155130500Y-119126000D01*
X155130500Y-119126000D01*
G37*
X155130500Y-119126000D02*
X164867167Y-119126000D01*
X164867167Y-117813666D01*
X155130500Y-117813666D01*
X155130500Y-119126000D01*
G36*
X126746000Y-119126000D02*
X136842500Y-119126000D01*
X136842500Y-117792500D01*
X126746000Y-117792500D01*
X126746000Y-119126000D01*
X126746000Y-119126000D01*
G37*
X126746000Y-119126000D02*
X136842500Y-119126000D01*
X136842500Y-117792500D01*
X126746000Y-117792500D01*
X126746000Y-119126000D01*
G36*
X133985000Y-101743205D02*
X133985129Y-101949807D01*
X133985643Y-102118425D01*
X133986739Y-102253404D01*
X133988612Y-102359094D01*
X133991458Y-102439842D01*
X133995472Y-102499995D01*
X134000850Y-102543901D01*
X134007786Y-102575907D01*
X134016477Y-102600362D01*
X134024246Y-102616330D01*
X134089191Y-102699368D01*
X134181727Y-102753946D01*
X134304290Y-102781214D01*
X134381875Y-102784985D01*
X134535334Y-102785333D01*
X134535334Y-102531333D01*
X134432781Y-102531333D01*
X134389329Y-102531447D01*
X134353848Y-102529196D01*
X134325532Y-102520692D01*
X134303574Y-102502043D01*
X134287168Y-102469362D01*
X134275508Y-102418759D01*
X134267786Y-102346344D01*
X134263197Y-102248228D01*
X134260933Y-102120521D01*
X134260189Y-101959334D01*
X134260158Y-101760779D01*
X134260167Y-101698874D01*
X134260167Y-100943833D01*
X133985000Y-100943833D01*
X133985000Y-101743205D01*
X133985000Y-101743205D01*
G37*
X133985000Y-101743205D02*
X133985129Y-101949807D01*
X133985643Y-102118425D01*
X133986739Y-102253404D01*
X133988612Y-102359094D01*
X133991458Y-102439842D01*
X133995472Y-102499995D01*
X134000850Y-102543901D01*
X134007786Y-102575907D01*
X134016477Y-102600362D01*
X134024246Y-102616330D01*
X134089191Y-102699368D01*
X134181727Y-102753946D01*
X134304290Y-102781214D01*
X134381875Y-102784985D01*
X134535334Y-102785333D01*
X134535334Y-102531333D01*
X134432781Y-102531333D01*
X134389329Y-102531447D01*
X134353848Y-102529196D01*
X134325532Y-102520692D01*
X134303574Y-102502043D01*
X134287168Y-102469362D01*
X134275508Y-102418759D01*
X134267786Y-102346344D01*
X134263197Y-102248228D01*
X134260933Y-102120521D01*
X134260189Y-101959334D01*
X134260158Y-101760779D01*
X134260167Y-101698874D01*
X134260167Y-100943833D01*
X133985000Y-100943833D01*
X133985000Y-101743205D01*
G36*
X187186259Y-100923971D02*
X187054503Y-100963693D01*
X186923792Y-101043706D01*
X186818708Y-101154132D01*
X186742702Y-101289322D01*
X186699228Y-101443628D01*
X186690000Y-101560097D01*
X186690000Y-101684666D01*
X187706000Y-101684666D01*
X187706000Y-101730900D01*
X187690780Y-101803074D01*
X187651650Y-101884121D01*
X187598408Y-101957306D01*
X187547208Y-102002192D01*
X187439579Y-102047379D01*
X187324225Y-102060049D01*
X187211265Y-102042008D01*
X187110820Y-101995061D01*
X187033009Y-101921015D01*
X187024748Y-101908976D01*
X186995568Y-101867543D01*
X186967275Y-101844892D01*
X186926256Y-101835325D01*
X186858894Y-101833142D01*
X186843459Y-101833095D01*
X186763417Y-101836027D01*
X186721148Y-101849875D01*
X186712274Y-101881621D01*
X186732419Y-101938245D01*
X186752253Y-101978555D01*
X186820065Y-102074644D01*
X186916842Y-102163215D01*
X187029426Y-102232533D01*
X187045217Y-102239819D01*
X187126516Y-102264881D01*
X187231184Y-102282462D01*
X187342422Y-102291105D01*
X187443432Y-102289354D01*
X187504917Y-102279674D01*
X187662834Y-102217651D01*
X187791693Y-102125312D01*
X187890466Y-102003549D01*
X187941652Y-101900021D01*
X187969670Y-101811786D01*
X187984410Y-101717147D01*
X187988646Y-101600000D01*
X187977566Y-101473000D01*
X187710590Y-101473000D01*
X186968122Y-101473000D01*
X186986069Y-101410424D01*
X187037763Y-101292575D01*
X187115609Y-101207625D01*
X187167179Y-101176217D01*
X187286127Y-101139308D01*
X187402909Y-101140308D01*
X187510331Y-101175973D01*
X187601201Y-101243058D01*
X187668325Y-101338317D01*
X187696062Y-101414791D01*
X187710590Y-101473000D01*
X187977566Y-101473000D01*
X187972718Y-101417439D01*
X187924592Y-101262073D01*
X187843761Y-101133023D01*
X187729713Y-101029413D01*
X187621334Y-100967527D01*
X187487297Y-100925166D01*
X187337015Y-100910612D01*
X187186259Y-100923971D01*
X187186259Y-100923971D01*
G37*
X187186259Y-100923971D02*
X187054503Y-100963693D01*
X186923792Y-101043706D01*
X186818708Y-101154132D01*
X186742702Y-101289322D01*
X186699228Y-101443628D01*
X186690000Y-101560097D01*
X186690000Y-101684666D01*
X187706000Y-101684666D01*
X187706000Y-101730900D01*
X187690780Y-101803074D01*
X187651650Y-101884121D01*
X187598408Y-101957306D01*
X187547208Y-102002192D01*
X187439579Y-102047379D01*
X187324225Y-102060049D01*
X187211265Y-102042008D01*
X187110820Y-101995061D01*
X187033009Y-101921015D01*
X187024748Y-101908976D01*
X186995568Y-101867543D01*
X186967275Y-101844892D01*
X186926256Y-101835325D01*
X186858894Y-101833142D01*
X186843459Y-101833095D01*
X186763417Y-101836027D01*
X186721148Y-101849875D01*
X186712274Y-101881621D01*
X186732419Y-101938245D01*
X186752253Y-101978555D01*
X186820065Y-102074644D01*
X186916842Y-102163215D01*
X187029426Y-102232533D01*
X187045217Y-102239819D01*
X187126516Y-102264881D01*
X187231184Y-102282462D01*
X187342422Y-102291105D01*
X187443432Y-102289354D01*
X187504917Y-102279674D01*
X187662834Y-102217651D01*
X187791693Y-102125312D01*
X187890466Y-102003549D01*
X187941652Y-101900021D01*
X187969670Y-101811786D01*
X187984410Y-101717147D01*
X187988646Y-101600000D01*
X187977566Y-101473000D01*
X187710590Y-101473000D01*
X186968122Y-101473000D01*
X186986069Y-101410424D01*
X187037763Y-101292575D01*
X187115609Y-101207625D01*
X187167179Y-101176217D01*
X187286127Y-101139308D01*
X187402909Y-101140308D01*
X187510331Y-101175973D01*
X187601201Y-101243058D01*
X187668325Y-101338317D01*
X187696062Y-101414791D01*
X187710590Y-101473000D01*
X187977566Y-101473000D01*
X187972718Y-101417439D01*
X187924592Y-101262073D01*
X187843761Y-101133023D01*
X187729713Y-101029413D01*
X187621334Y-100967527D01*
X187487297Y-100925166D01*
X187337015Y-100910612D01*
X187186259Y-100923971D01*
G36*
X182448895Y-100925090D02*
X182310976Y-100963465D01*
X182197528Y-101030641D01*
X182184878Y-101041102D01*
X182133299Y-101089772D01*
X182093872Y-101140487D01*
X182064821Y-101199882D01*
X182044371Y-101274588D01*
X182030746Y-101371238D01*
X182022169Y-101496465D01*
X182016866Y-101656902D01*
X182016569Y-101669735D01*
X182008022Y-102046387D01*
X181946594Y-102058672D01*
X181909719Y-102069368D01*
X181891614Y-102090360D01*
X181885660Y-102134091D01*
X181885167Y-102174145D01*
X181885167Y-102277333D01*
X181981097Y-102277333D01*
X182085338Y-102265854D01*
X182172587Y-102234270D01*
X182232887Y-102186862D01*
X182248094Y-102162581D01*
X182272448Y-102109129D01*
X182343093Y-102171155D01*
X182445759Y-102236169D01*
X182572736Y-102278164D01*
X182711499Y-102294988D01*
X182849526Y-102284487D01*
X182912194Y-102268998D01*
X183035356Y-102213247D01*
X183123349Y-102133980D01*
X183176456Y-102030778D01*
X183194959Y-101903223D01*
X183193956Y-101872632D01*
X182901167Y-101872632D01*
X182887478Y-101957676D01*
X182844632Y-102016699D01*
X182769959Y-102051722D01*
X182660791Y-102064766D01*
X182647167Y-102064943D01*
X182536891Y-102053882D01*
X182461765Y-102023447D01*
X182381299Y-101952948D01*
X182327678Y-101861491D01*
X182308580Y-101764041D01*
X182308500Y-101684666D01*
X182518789Y-101684666D01*
X182659649Y-101689026D01*
X182763488Y-101703598D01*
X182834859Y-101730620D01*
X182878317Y-101772332D01*
X182898417Y-101830972D01*
X182901167Y-101872632D01*
X183193956Y-101872632D01*
X183193296Y-101852536D01*
X183174756Y-101742566D01*
X183132638Y-101659555D01*
X183059568Y-101591969D01*
X183005125Y-101558095D01*
X182964284Y-101537054D01*
X182923241Y-101522119D01*
X182873271Y-101511958D01*
X182805647Y-101505240D01*
X182711639Y-101500633D01*
X182607665Y-101497469D01*
X182303579Y-101489331D01*
X182313904Y-101381881D01*
X182326987Y-101306050D01*
X182354080Y-101253029D01*
X182389512Y-101216100D01*
X182483537Y-101158431D01*
X182589398Y-101136397D01*
X182696567Y-101149687D01*
X182794518Y-101197990D01*
X182830870Y-101229136D01*
X182873002Y-101278070D01*
X182898100Y-101320356D01*
X182901167Y-101333300D01*
X182909321Y-101352693D01*
X182939551Y-101363146D01*
X183000516Y-101366967D01*
X183028167Y-101367166D01*
X183098536Y-101366072D01*
X183136526Y-101359983D01*
X183152086Y-101344687D01*
X183155162Y-101315974D01*
X183155167Y-101313406D01*
X183141145Y-101244626D01*
X183104880Y-101164130D01*
X183055079Y-101089091D01*
X183024672Y-101055992D01*
X182922251Y-100986128D01*
X182792793Y-100937930D01*
X182647710Y-100915351D01*
X182615668Y-100914226D01*
X182448895Y-100925090D01*
X182448895Y-100925090D01*
G37*
X182448895Y-100925090D02*
X182310976Y-100963465D01*
X182197528Y-101030641D01*
X182184878Y-101041102D01*
X182133299Y-101089772D01*
X182093872Y-101140487D01*
X182064821Y-101199882D01*
X182044371Y-101274588D01*
X182030746Y-101371238D01*
X182022169Y-101496465D01*
X182016866Y-101656902D01*
X182016569Y-101669735D01*
X182008022Y-102046387D01*
X181946594Y-102058672D01*
X181909719Y-102069368D01*
X181891614Y-102090360D01*
X181885660Y-102134091D01*
X181885167Y-102174145D01*
X181885167Y-102277333D01*
X181981097Y-102277333D01*
X182085338Y-102265854D01*
X182172587Y-102234270D01*
X182232887Y-102186862D01*
X182248094Y-102162581D01*
X182272448Y-102109129D01*
X182343093Y-102171155D01*
X182445759Y-102236169D01*
X182572736Y-102278164D01*
X182711499Y-102294988D01*
X182849526Y-102284487D01*
X182912194Y-102268998D01*
X183035356Y-102213247D01*
X183123349Y-102133980D01*
X183176456Y-102030778D01*
X183194959Y-101903223D01*
X183193956Y-101872632D01*
X182901167Y-101872632D01*
X182887478Y-101957676D01*
X182844632Y-102016699D01*
X182769959Y-102051722D01*
X182660791Y-102064766D01*
X182647167Y-102064943D01*
X182536891Y-102053882D01*
X182461765Y-102023447D01*
X182381299Y-101952948D01*
X182327678Y-101861491D01*
X182308580Y-101764041D01*
X182308500Y-101684666D01*
X182518789Y-101684666D01*
X182659649Y-101689026D01*
X182763488Y-101703598D01*
X182834859Y-101730620D01*
X182878317Y-101772332D01*
X182898417Y-101830972D01*
X182901167Y-101872632D01*
X183193956Y-101872632D01*
X183193296Y-101852536D01*
X183174756Y-101742566D01*
X183132638Y-101659555D01*
X183059568Y-101591969D01*
X183005125Y-101558095D01*
X182964284Y-101537054D01*
X182923241Y-101522119D01*
X182873271Y-101511958D01*
X182805647Y-101505240D01*
X182711639Y-101500633D01*
X182607665Y-101497469D01*
X182303579Y-101489331D01*
X182313904Y-101381881D01*
X182326987Y-101306050D01*
X182354080Y-101253029D01*
X182389512Y-101216100D01*
X182483537Y-101158431D01*
X182589398Y-101136397D01*
X182696567Y-101149687D01*
X182794518Y-101197990D01*
X182830870Y-101229136D01*
X182873002Y-101278070D01*
X182898100Y-101320356D01*
X182901167Y-101333300D01*
X182909321Y-101352693D01*
X182939551Y-101363146D01*
X183000516Y-101366967D01*
X183028167Y-101367166D01*
X183098536Y-101366072D01*
X183136526Y-101359983D01*
X183152086Y-101344687D01*
X183155162Y-101315974D01*
X183155167Y-101313406D01*
X183141145Y-101244626D01*
X183104880Y-101164130D01*
X183055079Y-101089091D01*
X183024672Y-101055992D01*
X182922251Y-100986128D01*
X182792793Y-100937930D01*
X182647710Y-100915351D01*
X182615668Y-100914226D01*
X182448895Y-100925090D01*
G36*
X180403500Y-102277333D02*
X180530500Y-102277333D01*
X180600806Y-102276414D01*
X180638755Y-102270516D01*
X180654321Y-102254928D01*
X180657480Y-102224941D01*
X180657500Y-102217361D01*
X180662292Y-102164181D01*
X180680521Y-102145678D01*
X180717964Y-102160377D01*
X180760551Y-102191069D01*
X180884685Y-102263077D01*
X181021250Y-102295020D01*
X181171254Y-102287072D01*
X181233484Y-102273234D01*
X181316983Y-102235069D01*
X181403737Y-102169695D01*
X181480673Y-102088959D01*
X181534717Y-102004708D01*
X181538070Y-101997220D01*
X181550921Y-101961963D01*
X181560925Y-101919427D01*
X181568559Y-101863626D01*
X181574302Y-101788575D01*
X181578631Y-101688288D01*
X181582023Y-101556780D01*
X181584546Y-101414791D01*
X181592244Y-100922666D01*
X181313667Y-100922666D01*
X181313549Y-101340708D01*
X181312466Y-101474781D01*
X181309520Y-101598997D01*
X181305053Y-101705356D01*
X181299406Y-101785858D01*
X181292920Y-101832504D01*
X181292516Y-101834036D01*
X181262568Y-101899352D01*
X181216168Y-101961993D01*
X181207989Y-101970267D01*
X181130625Y-102018152D01*
X181033437Y-102041669D01*
X180932183Y-102039385D01*
X180842622Y-102009868D01*
X180833276Y-102004344D01*
X180789043Y-101974768D01*
X180754871Y-101944681D01*
X180729304Y-101908293D01*
X180710888Y-101859814D01*
X180698165Y-101793454D01*
X180689682Y-101703422D01*
X180683981Y-101583928D01*
X180679607Y-101429183D01*
X180678667Y-101389350D01*
X180668084Y-100933250D01*
X180403500Y-100920646D01*
X180403500Y-102277333D01*
X180403500Y-102277333D01*
G37*
X180403500Y-102277333D02*
X180530500Y-102277333D01*
X180600806Y-102276414D01*
X180638755Y-102270516D01*
X180654321Y-102254928D01*
X180657480Y-102224941D01*
X180657500Y-102217361D01*
X180662292Y-102164181D01*
X180680521Y-102145678D01*
X180717964Y-102160377D01*
X180760551Y-102191069D01*
X180884685Y-102263077D01*
X181021250Y-102295020D01*
X181171254Y-102287072D01*
X181233484Y-102273234D01*
X181316983Y-102235069D01*
X181403737Y-102169695D01*
X181480673Y-102088959D01*
X181534717Y-102004708D01*
X181538070Y-101997220D01*
X181550921Y-101961963D01*
X181560925Y-101919427D01*
X181568559Y-101863626D01*
X181574302Y-101788575D01*
X181578631Y-101688288D01*
X181582023Y-101556780D01*
X181584546Y-101414791D01*
X181592244Y-100922666D01*
X181313667Y-100922666D01*
X181313549Y-101340708D01*
X181312466Y-101474781D01*
X181309520Y-101598997D01*
X181305053Y-101705356D01*
X181299406Y-101785858D01*
X181292920Y-101832504D01*
X181292516Y-101834036D01*
X181262568Y-101899352D01*
X181216168Y-101961993D01*
X181207989Y-101970267D01*
X181130625Y-102018152D01*
X181033437Y-102041669D01*
X180932183Y-102039385D01*
X180842622Y-102009868D01*
X180833276Y-102004344D01*
X180789043Y-101974768D01*
X180754871Y-101944681D01*
X180729304Y-101908293D01*
X180710888Y-101859814D01*
X180698165Y-101793454D01*
X180689682Y-101703422D01*
X180683981Y-101583928D01*
X180679607Y-101429183D01*
X180678667Y-101389350D01*
X180668084Y-100933250D01*
X180403500Y-100920646D01*
X180403500Y-102277333D01*
G36*
X179290345Y-100930929D02*
X179148248Y-100971965D01*
X179037092Y-101038636D01*
X178958678Y-101130083D01*
X178940999Y-101163989D01*
X178908819Y-101241567D01*
X178901308Y-101289252D01*
X178922690Y-101314218D01*
X178977189Y-101323642D01*
X179035683Y-101324833D01*
X179109437Y-101323693D01*
X179152556Y-101317165D01*
X179176731Y-101300587D01*
X179193653Y-101269295D01*
X179197414Y-101260335D01*
X179247963Y-101191749D01*
X179330800Y-101146166D01*
X179441244Y-101125963D01*
X179463583Y-101125206D01*
X179576095Y-101136710D01*
X179656319Y-101174974D01*
X179705094Y-101240401D01*
X179705526Y-101241435D01*
X179722213Y-101306122D01*
X179710863Y-101358561D01*
X179668357Y-101401165D01*
X179591572Y-101436344D01*
X179477388Y-101466513D01*
X179393547Y-101482534D01*
X179259182Y-101508010D01*
X179158220Y-101532810D01*
X179081866Y-101559648D01*
X179021323Y-101591240D01*
X179003818Y-101602820D01*
X178938064Y-101672606D01*
X178895982Y-101767425D01*
X178880170Y-101875595D01*
X178893226Y-101985433D01*
X178908621Y-102030887D01*
X178967609Y-102119922D01*
X179059430Y-102193511D01*
X179176621Y-102249184D01*
X179311720Y-102284472D01*
X179457264Y-102296906D01*
X179605790Y-102284016D01*
X179647480Y-102275394D01*
X179793651Y-102223953D01*
X179907515Y-102146547D01*
X179987994Y-102044139D01*
X180030517Y-101933375D01*
X180044474Y-101875166D01*
X179901195Y-101875624D01*
X179824832Y-101876814D01*
X179779259Y-101882796D01*
X179752931Y-101898108D01*
X179734306Y-101927287D01*
X179726167Y-101944416D01*
X179669208Y-102019241D01*
X179582390Y-102065649D01*
X179468229Y-102082498D01*
X179424258Y-102081331D01*
X179313312Y-102063747D01*
X179237601Y-102026046D01*
X179193928Y-101965866D01*
X179179969Y-101900754D01*
X179181063Y-101849832D01*
X179196531Y-101810057D01*
X179231793Y-101778193D01*
X179292268Y-101751005D01*
X179383375Y-101725258D01*
X179510535Y-101697718D01*
X179524936Y-101694841D01*
X179680852Y-101658942D01*
X179799359Y-101619129D01*
X179885378Y-101572139D01*
X179943830Y-101514707D01*
X179979635Y-101443570D01*
X179993881Y-101383728D01*
X179995728Y-101258125D01*
X179960303Y-101148090D01*
X179890656Y-101056300D01*
X179789838Y-100985435D01*
X179660900Y-100938173D01*
X179506893Y-100917194D01*
X179461584Y-100916382D01*
X179290345Y-100930929D01*
X179290345Y-100930929D01*
G37*
X179290345Y-100930929D02*
X179148248Y-100971965D01*
X179037092Y-101038636D01*
X178958678Y-101130083D01*
X178940999Y-101163989D01*
X178908819Y-101241567D01*
X178901308Y-101289252D01*
X178922690Y-101314218D01*
X178977189Y-101323642D01*
X179035683Y-101324833D01*
X179109437Y-101323693D01*
X179152556Y-101317165D01*
X179176731Y-101300587D01*
X179193653Y-101269295D01*
X179197414Y-101260335D01*
X179247963Y-101191749D01*
X179330800Y-101146166D01*
X179441244Y-101125963D01*
X179463583Y-101125206D01*
X179576095Y-101136710D01*
X179656319Y-101174974D01*
X179705094Y-101240401D01*
X179705526Y-101241435D01*
X179722213Y-101306122D01*
X179710863Y-101358561D01*
X179668357Y-101401165D01*
X179591572Y-101436344D01*
X179477388Y-101466513D01*
X179393547Y-101482534D01*
X179259182Y-101508010D01*
X179158220Y-101532810D01*
X179081866Y-101559648D01*
X179021323Y-101591240D01*
X179003818Y-101602820D01*
X178938064Y-101672606D01*
X178895982Y-101767425D01*
X178880170Y-101875595D01*
X178893226Y-101985433D01*
X178908621Y-102030887D01*
X178967609Y-102119922D01*
X179059430Y-102193511D01*
X179176621Y-102249184D01*
X179311720Y-102284472D01*
X179457264Y-102296906D01*
X179605790Y-102284016D01*
X179647480Y-102275394D01*
X179793651Y-102223953D01*
X179907515Y-102146547D01*
X179987994Y-102044139D01*
X180030517Y-101933375D01*
X180044474Y-101875166D01*
X179901195Y-101875624D01*
X179824832Y-101876814D01*
X179779259Y-101882796D01*
X179752931Y-101898108D01*
X179734306Y-101927287D01*
X179726167Y-101944416D01*
X179669208Y-102019241D01*
X179582390Y-102065649D01*
X179468229Y-102082498D01*
X179424258Y-102081331D01*
X179313312Y-102063747D01*
X179237601Y-102026046D01*
X179193928Y-101965866D01*
X179179969Y-101900754D01*
X179181063Y-101849832D01*
X179196531Y-101810057D01*
X179231793Y-101778193D01*
X179292268Y-101751005D01*
X179383375Y-101725258D01*
X179510535Y-101697718D01*
X179524936Y-101694841D01*
X179680852Y-101658942D01*
X179799359Y-101619129D01*
X179885378Y-101572139D01*
X179943830Y-101514707D01*
X179979635Y-101443570D01*
X179993881Y-101383728D01*
X179995728Y-101258125D01*
X179960303Y-101148090D01*
X179890656Y-101056300D01*
X179789838Y-100985435D01*
X179660900Y-100938173D01*
X179506893Y-100917194D01*
X179461584Y-100916382D01*
X179290345Y-100930929D01*
G36*
X132739612Y-100931006D02*
X132619830Y-100969439D01*
X132519967Y-101020511D01*
X132514170Y-101024451D01*
X132414658Y-101117520D01*
X132334750Y-101240611D01*
X132278862Y-101384232D01*
X132251408Y-101538891D01*
X132249334Y-101593863D01*
X132249334Y-101684666D01*
X133285442Y-101684666D01*
X133272365Y-101753458D01*
X133235515Y-101869903D01*
X133172046Y-101956590D01*
X133076358Y-102020507D01*
X133048281Y-102033109D01*
X132931232Y-102061504D01*
X132813611Y-102053664D01*
X132705260Y-102012295D01*
X132616022Y-101940105D01*
X132590564Y-101907230D01*
X132560970Y-101866925D01*
X132532432Y-101844658D01*
X132491545Y-101835086D01*
X132424905Y-101832865D01*
X132403929Y-101832833D01*
X132330768Y-101833672D01*
X132291379Y-101838414D01*
X132277206Y-101850398D01*
X132279691Y-101872962D01*
X132281855Y-101880458D01*
X132341351Y-102009704D01*
X132432866Y-102118463D01*
X132549933Y-102203874D01*
X132686081Y-102263072D01*
X132834841Y-102293197D01*
X132989743Y-102291386D01*
X133135199Y-102257998D01*
X133282869Y-102187058D01*
X133399793Y-102087484D01*
X133485258Y-101960482D01*
X133538546Y-101807258D01*
X133558942Y-101629018D01*
X133557514Y-101546726D01*
X133539392Y-101423213D01*
X133265334Y-101423213D01*
X133265334Y-101473000D01*
X132540375Y-101473000D01*
X132553780Y-101405976D01*
X132589536Y-101316802D01*
X132653344Y-101233593D01*
X132732120Y-101172303D01*
X132754208Y-101161603D01*
X132841471Y-101140625D01*
X132941762Y-101139375D01*
X133037688Y-101156426D01*
X133111857Y-101190351D01*
X133112753Y-101191010D01*
X133175149Y-101249501D01*
X133227057Y-101319981D01*
X133259277Y-101388450D01*
X133265334Y-101423213D01*
X133539392Y-101423213D01*
X133531439Y-101369014D01*
X133473529Y-101219183D01*
X133384098Y-101097573D01*
X133263461Y-101004522D01*
X133111929Y-100940368D01*
X132967913Y-100909976D01*
X132861558Y-100909692D01*
X132739612Y-100931006D01*
X132739612Y-100931006D01*
G37*
X132739612Y-100931006D02*
X132619830Y-100969439D01*
X132519967Y-101020511D01*
X132514170Y-101024451D01*
X132414658Y-101117520D01*
X132334750Y-101240611D01*
X132278862Y-101384232D01*
X132251408Y-101538891D01*
X132249334Y-101593863D01*
X132249334Y-101684666D01*
X133285442Y-101684666D01*
X133272365Y-101753458D01*
X133235515Y-101869903D01*
X133172046Y-101956590D01*
X133076358Y-102020507D01*
X133048281Y-102033109D01*
X132931232Y-102061504D01*
X132813611Y-102053664D01*
X132705260Y-102012295D01*
X132616022Y-101940105D01*
X132590564Y-101907230D01*
X132560970Y-101866925D01*
X132532432Y-101844658D01*
X132491545Y-101835086D01*
X132424905Y-101832865D01*
X132403929Y-101832833D01*
X132330768Y-101833672D01*
X132291379Y-101838414D01*
X132277206Y-101850398D01*
X132279691Y-101872962D01*
X132281855Y-101880458D01*
X132341351Y-102009704D01*
X132432866Y-102118463D01*
X132549933Y-102203874D01*
X132686081Y-102263072D01*
X132834841Y-102293197D01*
X132989743Y-102291386D01*
X133135199Y-102257998D01*
X133282869Y-102187058D01*
X133399793Y-102087484D01*
X133485258Y-101960482D01*
X133538546Y-101807258D01*
X133558942Y-101629018D01*
X133557514Y-101546726D01*
X133539392Y-101423213D01*
X133265334Y-101423213D01*
X133265334Y-101473000D01*
X132540375Y-101473000D01*
X132553780Y-101405976D01*
X132589536Y-101316802D01*
X132653344Y-101233593D01*
X132732120Y-101172303D01*
X132754208Y-101161603D01*
X132841471Y-101140625D01*
X132941762Y-101139375D01*
X133037688Y-101156426D01*
X133111857Y-101190351D01*
X133112753Y-101191010D01*
X133175149Y-101249501D01*
X133227057Y-101319981D01*
X133259277Y-101388450D01*
X133265334Y-101423213D01*
X133539392Y-101423213D01*
X133531439Y-101369014D01*
X133473529Y-101219183D01*
X133384098Y-101097573D01*
X133263461Y-101004522D01*
X133111929Y-100940368D01*
X132967913Y-100909976D01*
X132861558Y-100909692D01*
X132739612Y-100931006D01*
G36*
X131167739Y-100914748D02*
X131090030Y-100930342D01*
X130931699Y-100989354D01*
X130804094Y-101077129D01*
X130707809Y-101193111D01*
X130643440Y-101336749D01*
X130639821Y-101348950D01*
X130622456Y-101409500D01*
X130774436Y-101409442D01*
X130926417Y-101409385D01*
X130968750Y-101331782D01*
X131041634Y-101237631D01*
X131136841Y-101178744D01*
X131251440Y-101156411D01*
X131349020Y-101164549D01*
X131444477Y-101202393D01*
X131522712Y-101271979D01*
X131581913Y-101365622D01*
X131620267Y-101475635D01*
X131635961Y-101594331D01*
X131627183Y-101714024D01*
X131592120Y-101827028D01*
X131528959Y-101925655D01*
X131528610Y-101926053D01*
X131445095Y-101999442D01*
X131351162Y-102036146D01*
X131236718Y-102040020D01*
X131231512Y-102039541D01*
X131123408Y-102014930D01*
X131039080Y-101960795D01*
X130969832Y-101871263D01*
X130961873Y-101857416D01*
X130912662Y-101769333D01*
X130766081Y-101769333D01*
X130693482Y-101770626D01*
X130641057Y-101774028D01*
X130619571Y-101778818D01*
X130619500Y-101779122D01*
X130628954Y-101817972D01*
X130652996Y-101879541D01*
X130685144Y-101949830D01*
X130718921Y-102014838D01*
X130747845Y-102060567D01*
X130752240Y-102065901D01*
X130877118Y-102176088D01*
X131022018Y-102251373D01*
X131180699Y-102290056D01*
X131346916Y-102290435D01*
X131476750Y-102263360D01*
X131624435Y-102198350D01*
X131743579Y-102102848D01*
X131832899Y-101978754D01*
X131891108Y-101827970D01*
X131916922Y-101652396D01*
X131918126Y-101610583D01*
X131907952Y-101446029D01*
X131872067Y-101308012D01*
X131807333Y-101187257D01*
X131751048Y-101116671D01*
X131630159Y-101012650D01*
X131488616Y-100943187D01*
X131332462Y-100909985D01*
X131167739Y-100914748D01*
X131167739Y-100914748D01*
G37*
X131167739Y-100914748D02*
X131090030Y-100930342D01*
X130931699Y-100989354D01*
X130804094Y-101077129D01*
X130707809Y-101193111D01*
X130643440Y-101336749D01*
X130639821Y-101348950D01*
X130622456Y-101409500D01*
X130774436Y-101409442D01*
X130926417Y-101409385D01*
X130968750Y-101331782D01*
X131041634Y-101237631D01*
X131136841Y-101178744D01*
X131251440Y-101156411D01*
X131349020Y-101164549D01*
X131444477Y-101202393D01*
X131522712Y-101271979D01*
X131581913Y-101365622D01*
X131620267Y-101475635D01*
X131635961Y-101594331D01*
X131627183Y-101714024D01*
X131592120Y-101827028D01*
X131528959Y-101925655D01*
X131528610Y-101926053D01*
X131445095Y-101999442D01*
X131351162Y-102036146D01*
X131236718Y-102040020D01*
X131231512Y-102039541D01*
X131123408Y-102014930D01*
X131039080Y-101960795D01*
X130969832Y-101871263D01*
X130961873Y-101857416D01*
X130912662Y-101769333D01*
X130766081Y-101769333D01*
X130693482Y-101770626D01*
X130641057Y-101774028D01*
X130619571Y-101778818D01*
X130619500Y-101779122D01*
X130628954Y-101817972D01*
X130652996Y-101879541D01*
X130685144Y-101949830D01*
X130718921Y-102014838D01*
X130747845Y-102060567D01*
X130752240Y-102065901D01*
X130877118Y-102176088D01*
X131022018Y-102251373D01*
X131180699Y-102290056D01*
X131346916Y-102290435D01*
X131476750Y-102263360D01*
X131624435Y-102198350D01*
X131743579Y-102102848D01*
X131832899Y-101978754D01*
X131891108Y-101827970D01*
X131916922Y-101652396D01*
X131918126Y-101610583D01*
X131907952Y-101446029D01*
X131872067Y-101308012D01*
X131807333Y-101187257D01*
X131751048Y-101116671D01*
X131630159Y-101012650D01*
X131488616Y-100943187D01*
X131332462Y-100909985D01*
X131167739Y-100914748D01*
G36*
X185969051Y-101176441D02*
X185910040Y-101262380D01*
X185859262Y-101334020D01*
X185821442Y-101384862D01*
X185801310Y-101408404D01*
X185799718Y-101409274D01*
X185784141Y-101392822D01*
X185749836Y-101347611D01*
X185701529Y-101280128D01*
X185643945Y-101196857D01*
X185630384Y-101176892D01*
X185472917Y-100944284D01*
X185307626Y-100944058D01*
X185222374Y-100945556D01*
X185173681Y-100950998D01*
X185155877Y-100961376D01*
X185157610Y-100970291D01*
X185174598Y-100995604D01*
X185211967Y-101048943D01*
X185265276Y-101124045D01*
X185330083Y-101214645D01*
X185382816Y-101287960D01*
X185451566Y-101384752D01*
X185510034Y-101469804D01*
X185554300Y-101537185D01*
X185580443Y-101580966D01*
X185585750Y-101594877D01*
X185572213Y-101616674D01*
X185538844Y-101667708D01*
X185489513Y-101742141D01*
X185428089Y-101834134D01*
X185361792Y-101932868D01*
X185292949Y-102035709D01*
X185233109Y-102126199D01*
X185185997Y-102198616D01*
X185155336Y-102247241D01*
X185144834Y-102266243D01*
X185164276Y-102271538D01*
X185215714Y-102275458D01*
X185288817Y-102277282D01*
X185304010Y-102277333D01*
X185463186Y-102277333D01*
X185626801Y-102023466D01*
X185685888Y-101932925D01*
X185736997Y-101856752D01*
X185775777Y-101801268D01*
X185797878Y-101772796D01*
X185801000Y-101770374D01*
X185815624Y-101787465D01*
X185848596Y-101833901D01*
X185895550Y-101903303D01*
X185952122Y-101989293D01*
X185974749Y-102024241D01*
X186137915Y-102277333D01*
X186297541Y-102277333D01*
X186373660Y-102276088D01*
X186430055Y-102272792D01*
X186456408Y-102268107D01*
X186457167Y-102267110D01*
X186445813Y-102247233D01*
X186414221Y-102198051D01*
X186366093Y-102125169D01*
X186305132Y-102034194D01*
X186235043Y-101930732D01*
X186232952Y-101927662D01*
X186163043Y-101822950D01*
X186103119Y-101729224D01*
X186056736Y-101652380D01*
X186027450Y-101598315D01*
X186018818Y-101572924D01*
X186018876Y-101572760D01*
X186034246Y-101547561D01*
X186070120Y-101494616D01*
X186122023Y-101420360D01*
X186185477Y-101331223D01*
X186228216Y-101271916D01*
X186296993Y-101176659D01*
X186357568Y-101092291D01*
X186405317Y-101025287D01*
X186435617Y-100982123D01*
X186443541Y-100970291D01*
X186442009Y-100956566D01*
X186413175Y-100948278D01*
X186351356Y-100944429D01*
X186293092Y-100943833D01*
X186126518Y-100943833D01*
X185969051Y-101176441D01*
X185969051Y-101176441D01*
G37*
X185969051Y-101176441D02*
X185910040Y-101262380D01*
X185859262Y-101334020D01*
X185821442Y-101384862D01*
X185801310Y-101408404D01*
X185799718Y-101409274D01*
X185784141Y-101392822D01*
X185749836Y-101347611D01*
X185701529Y-101280128D01*
X185643945Y-101196857D01*
X185630384Y-101176892D01*
X185472917Y-100944284D01*
X185307626Y-100944058D01*
X185222374Y-100945556D01*
X185173681Y-100950998D01*
X185155877Y-100961376D01*
X185157610Y-100970291D01*
X185174598Y-100995604D01*
X185211967Y-101048943D01*
X185265276Y-101124045D01*
X185330083Y-101214645D01*
X185382816Y-101287960D01*
X185451566Y-101384752D01*
X185510034Y-101469804D01*
X185554300Y-101537185D01*
X185580443Y-101580966D01*
X185585750Y-101594877D01*
X185572213Y-101616674D01*
X185538844Y-101667708D01*
X185489513Y-101742141D01*
X185428089Y-101834134D01*
X185361792Y-101932868D01*
X185292949Y-102035709D01*
X185233109Y-102126199D01*
X185185997Y-102198616D01*
X185155336Y-102247241D01*
X185144834Y-102266243D01*
X185164276Y-102271538D01*
X185215714Y-102275458D01*
X185288817Y-102277282D01*
X185304010Y-102277333D01*
X185463186Y-102277333D01*
X185626801Y-102023466D01*
X185685888Y-101932925D01*
X185736997Y-101856752D01*
X185775777Y-101801268D01*
X185797878Y-101772796D01*
X185801000Y-101770374D01*
X185815624Y-101787465D01*
X185848596Y-101833901D01*
X185895550Y-101903303D01*
X185952122Y-101989293D01*
X185974749Y-102024241D01*
X186137915Y-102277333D01*
X186297541Y-102277333D01*
X186373660Y-102276088D01*
X186430055Y-102272792D01*
X186456408Y-102268107D01*
X186457167Y-102267110D01*
X186445813Y-102247233D01*
X186414221Y-102198051D01*
X186366093Y-102125169D01*
X186305132Y-102034194D01*
X186235043Y-101930732D01*
X186232952Y-101927662D01*
X186163043Y-101822950D01*
X186103119Y-101729224D01*
X186056736Y-101652380D01*
X186027450Y-101598315D01*
X186018818Y-101572924D01*
X186018876Y-101572760D01*
X186034246Y-101547561D01*
X186070120Y-101494616D01*
X186122023Y-101420360D01*
X186185477Y-101331223D01*
X186228216Y-101271916D01*
X186296993Y-101176659D01*
X186357568Y-101092291D01*
X186405317Y-101025287D01*
X186435617Y-100982123D01*
X186443541Y-100970291D01*
X186442009Y-100956566D01*
X186413175Y-100948278D01*
X186351356Y-100944429D01*
X186293092Y-100943833D01*
X186126518Y-100943833D01*
X185969051Y-101176441D01*
G36*
X184531000Y-101096385D02*
X184456823Y-101031256D01*
X184343442Y-100958789D01*
X184208851Y-100917943D01*
X184062405Y-100911049D01*
X184003153Y-100918227D01*
X183861232Y-100958827D01*
X183749191Y-101028254D01*
X183664220Y-101128440D01*
X183643157Y-101165615D01*
X183626076Y-101200089D01*
X183612942Y-101232800D01*
X183603148Y-101269846D01*
X183596083Y-101317322D01*
X183591140Y-101381325D01*
X183587709Y-101467954D01*
X183585181Y-101583304D01*
X183582948Y-101733473D01*
X183582407Y-101773963D01*
X183575731Y-102277333D01*
X183850656Y-102277333D01*
X183857453Y-101827541D01*
X183860674Y-101661443D01*
X183865591Y-101532031D01*
X183873536Y-101433659D01*
X183885838Y-101360680D01*
X183903829Y-101307448D01*
X183928838Y-101268318D01*
X183962197Y-101237644D01*
X184002677Y-101211285D01*
X184084546Y-101182829D01*
X184184159Y-101176098D01*
X184283330Y-101190432D01*
X184362684Y-101224363D01*
X184411870Y-101260310D01*
X184449719Y-101297529D01*
X184477823Y-101342052D01*
X184497773Y-101399914D01*
X184511158Y-101477149D01*
X184519570Y-101579790D01*
X184524599Y-101713872D01*
X184527269Y-101848708D01*
X184534121Y-102277333D01*
X184806167Y-102277333D01*
X184806167Y-100330000D01*
X184531000Y-100330000D01*
X184531000Y-101096385D01*
X184531000Y-101096385D01*
G37*
X184531000Y-101096385D02*
X184456823Y-101031256D01*
X184343442Y-100958789D01*
X184208851Y-100917943D01*
X184062405Y-100911049D01*
X184003153Y-100918227D01*
X183861232Y-100958827D01*
X183749191Y-101028254D01*
X183664220Y-101128440D01*
X183643157Y-101165615D01*
X183626076Y-101200089D01*
X183612942Y-101232800D01*
X183603148Y-101269846D01*
X183596083Y-101317322D01*
X183591140Y-101381325D01*
X183587709Y-101467954D01*
X183585181Y-101583304D01*
X183582948Y-101733473D01*
X183582407Y-101773963D01*
X183575731Y-102277333D01*
X183850656Y-102277333D01*
X183857453Y-101827541D01*
X183860674Y-101661443D01*
X183865591Y-101532031D01*
X183873536Y-101433659D01*
X183885838Y-101360680D01*
X183903829Y-101307448D01*
X183928838Y-101268318D01*
X183962197Y-101237644D01*
X184002677Y-101211285D01*
X184084546Y-101182829D01*
X184184159Y-101176098D01*
X184283330Y-101190432D01*
X184362684Y-101224363D01*
X184411870Y-101260310D01*
X184449719Y-101297529D01*
X184477823Y-101342052D01*
X184497773Y-101399914D01*
X184511158Y-101477149D01*
X184519570Y-101579790D01*
X184524599Y-101713872D01*
X184527269Y-101848708D01*
X184534121Y-102277333D01*
X184806167Y-102277333D01*
X184806167Y-100330000D01*
X184531000Y-100330000D01*
X184531000Y-101096385D01*
G36*
X178149250Y-100933250D02*
X177995792Y-100939468D01*
X177842334Y-100945687D01*
X177842334Y-101197833D01*
X178159834Y-101197833D01*
X178159834Y-101558628D01*
X178159639Y-101690164D01*
X178158485Y-101786160D01*
X178155516Y-101853413D01*
X178149877Y-101898715D01*
X178140713Y-101928862D01*
X178127169Y-101950649D01*
X178108388Y-101970869D01*
X178107879Y-101971378D01*
X178063666Y-102005144D01*
X178009092Y-102020469D01*
X177949129Y-102023333D01*
X177842334Y-102023333D01*
X177842334Y-102277333D01*
X177985209Y-102274877D01*
X178065077Y-102272134D01*
X178132642Y-102267394D01*
X178170417Y-102262206D01*
X178280109Y-102220357D01*
X178357799Y-102153935D01*
X178391732Y-102099349D01*
X178406969Y-102064228D01*
X178418175Y-102026347D01*
X178425958Y-101978762D01*
X178430923Y-101914529D01*
X178433677Y-101826703D01*
X178434826Y-101708341D01*
X178435000Y-101603900D01*
X178435000Y-101197833D01*
X178667834Y-101197833D01*
X178667834Y-100943833D01*
X178598460Y-100943833D01*
X178533892Y-100933651D01*
X178482044Y-100910883D01*
X178456702Y-100887703D01*
X178442428Y-100855140D01*
X178436208Y-100801663D01*
X178435000Y-100730966D01*
X178435000Y-100584000D01*
X178161546Y-100584000D01*
X178149250Y-100933250D01*
X178149250Y-100933250D01*
G37*
X178149250Y-100933250D02*
X177995792Y-100939468D01*
X177842334Y-100945687D01*
X177842334Y-101197833D01*
X178159834Y-101197833D01*
X178159834Y-101558628D01*
X178159639Y-101690164D01*
X178158485Y-101786160D01*
X178155516Y-101853413D01*
X178149877Y-101898715D01*
X178140713Y-101928862D01*
X178127169Y-101950649D01*
X178108388Y-101970869D01*
X178107879Y-101971378D01*
X178063666Y-102005144D01*
X178009092Y-102020469D01*
X177949129Y-102023333D01*
X177842334Y-102023333D01*
X177842334Y-102277333D01*
X177985209Y-102274877D01*
X178065077Y-102272134D01*
X178132642Y-102267394D01*
X178170417Y-102262206D01*
X178280109Y-102220357D01*
X178357799Y-102153935D01*
X178391732Y-102099349D01*
X178406969Y-102064228D01*
X178418175Y-102026347D01*
X178425958Y-101978762D01*
X178430923Y-101914529D01*
X178433677Y-101826703D01*
X178434826Y-101708341D01*
X178435000Y-101603900D01*
X178435000Y-101197833D01*
X178667834Y-101197833D01*
X178667834Y-100943833D01*
X178598460Y-100943833D01*
X178533892Y-100933651D01*
X178482044Y-100910883D01*
X178456702Y-100887703D01*
X178442428Y-100855140D01*
X178436208Y-100801663D01*
X178435000Y-100730966D01*
X178435000Y-100584000D01*
X178161546Y-100584000D01*
X178149250Y-100933250D01*
G36*
X136398000Y-102277333D02*
X136673167Y-102277333D01*
X136673167Y-100943833D01*
X136398000Y-100943833D01*
X136398000Y-102277333D01*
X136398000Y-102277333D01*
G37*
X136398000Y-102277333D02*
X136673167Y-102277333D01*
X136673167Y-100943833D01*
X136398000Y-100943833D01*
X136398000Y-102277333D01*
G36*
X135149908Y-100918289D02*
X135082874Y-100928899D01*
X134971676Y-100972331D01*
X134871620Y-101050452D01*
X134791610Y-101155681D01*
X134771616Y-101194009D01*
X134753416Y-101233908D01*
X134739628Y-101269995D01*
X134729638Y-101308749D01*
X134722836Y-101356645D01*
X134718607Y-101420162D01*
X134716342Y-101505776D01*
X134715427Y-101619965D01*
X134715251Y-101769206D01*
X134715250Y-101790500D01*
X134715250Y-102266750D01*
X134858125Y-102273008D01*
X135001000Y-102279267D01*
X135001000Y-101848868D01*
X135001263Y-101702044D01*
X135002457Y-101590859D01*
X135005191Y-101508621D01*
X135010075Y-101448639D01*
X135017717Y-101404220D01*
X135028727Y-101368671D01*
X135043714Y-101335301D01*
X135048625Y-101325592D01*
X135116382Y-101234260D01*
X135204954Y-101177608D01*
X135308588Y-101157362D01*
X135421526Y-101175248D01*
X135476322Y-101197383D01*
X135527905Y-101224844D01*
X135567955Y-101254907D01*
X135598090Y-101293165D01*
X135619930Y-101345213D01*
X135635092Y-101416645D01*
X135645197Y-101513052D01*
X135651862Y-101640030D01*
X135656707Y-101803171D01*
X135657167Y-101822250D01*
X135667750Y-102266750D01*
X135810625Y-102273008D01*
X135953500Y-102279267D01*
X135953500Y-100941813D01*
X135821209Y-100948114D01*
X135748989Y-100952426D01*
X135708513Y-100960423D01*
X135689240Y-100977787D01*
X135680628Y-101010201D01*
X135678334Y-101025133D01*
X135667750Y-101095849D01*
X135616936Y-101041540D01*
X135532522Y-100979193D01*
X135419740Y-100936433D01*
X135288799Y-100915414D01*
X135149908Y-100918289D01*
X135149908Y-100918289D01*
G37*
X135149908Y-100918289D02*
X135082874Y-100928899D01*
X134971676Y-100972331D01*
X134871620Y-101050452D01*
X134791610Y-101155681D01*
X134771616Y-101194009D01*
X134753416Y-101233908D01*
X134739628Y-101269995D01*
X134729638Y-101308749D01*
X134722836Y-101356645D01*
X134718607Y-101420162D01*
X134716342Y-101505776D01*
X134715427Y-101619965D01*
X134715251Y-101769206D01*
X134715250Y-101790500D01*
X134715250Y-102266750D01*
X134858125Y-102273008D01*
X135001000Y-102279267D01*
X135001000Y-101848868D01*
X135001263Y-101702044D01*
X135002457Y-101590859D01*
X135005191Y-101508621D01*
X135010075Y-101448639D01*
X135017717Y-101404220D01*
X135028727Y-101368671D01*
X135043714Y-101335301D01*
X135048625Y-101325592D01*
X135116382Y-101234260D01*
X135204954Y-101177608D01*
X135308588Y-101157362D01*
X135421526Y-101175248D01*
X135476322Y-101197383D01*
X135527905Y-101224844D01*
X135567955Y-101254907D01*
X135598090Y-101293165D01*
X135619930Y-101345213D01*
X135635092Y-101416645D01*
X135645197Y-101513052D01*
X135651862Y-101640030D01*
X135656707Y-101803171D01*
X135657167Y-101822250D01*
X135667750Y-102266750D01*
X135810625Y-102273008D01*
X135953500Y-102279267D01*
X135953500Y-100941813D01*
X135821209Y-100948114D01*
X135748989Y-100952426D01*
X135708513Y-100960423D01*
X135689240Y-100977787D01*
X135680628Y-101010201D01*
X135678334Y-101025133D01*
X135667750Y-101095849D01*
X135616936Y-101041540D01*
X135532522Y-100979193D01*
X135419740Y-100936433D01*
X135288799Y-100915414D01*
X135149908Y-100918289D01*
G36*
X129921000Y-100943833D02*
X129601388Y-100943833D01*
X129607736Y-101065541D01*
X129614084Y-101187250D01*
X129767542Y-101193468D01*
X129921000Y-101199687D01*
X129921000Y-101569177D01*
X129920667Y-101703599D01*
X129919220Y-101802237D01*
X129915985Y-101871634D01*
X129910289Y-101918337D01*
X129901460Y-101948892D01*
X129888825Y-101969843D01*
X129878667Y-101981000D01*
X129832696Y-102010354D01*
X129764403Y-102022462D01*
X129730500Y-102023333D01*
X129624667Y-102023333D01*
X129624667Y-102277333D01*
X129767542Y-102276404D01*
X129856752Y-102271274D01*
X129942564Y-102258913D01*
X129995084Y-102245521D01*
X130061211Y-102215793D01*
X130113284Y-102175502D01*
X130152845Y-102119797D01*
X130181433Y-102043830D01*
X130200590Y-101942750D01*
X130211856Y-101811707D01*
X130216774Y-101645851D01*
X130217334Y-101546041D01*
X130217334Y-101197833D01*
X130429000Y-101197833D01*
X130429000Y-100943833D01*
X130364109Y-100943833D01*
X130295518Y-100938817D01*
X130252018Y-100918784D01*
X130228173Y-100876261D01*
X130218546Y-100803773D01*
X130217334Y-100742005D01*
X130217334Y-100584000D01*
X129921000Y-100584000D01*
X129921000Y-100943833D01*
X129921000Y-100943833D01*
G37*
X129921000Y-100943833D02*
X129601388Y-100943833D01*
X129607736Y-101065541D01*
X129614084Y-101187250D01*
X129767542Y-101193468D01*
X129921000Y-101199687D01*
X129921000Y-101569177D01*
X129920667Y-101703599D01*
X129919220Y-101802237D01*
X129915985Y-101871634D01*
X129910289Y-101918337D01*
X129901460Y-101948892D01*
X129888825Y-101969843D01*
X129878667Y-101981000D01*
X129832696Y-102010354D01*
X129764403Y-102022462D01*
X129730500Y-102023333D01*
X129624667Y-102023333D01*
X129624667Y-102277333D01*
X129767542Y-102276404D01*
X129856752Y-102271274D01*
X129942564Y-102258913D01*
X129995084Y-102245521D01*
X130061211Y-102215793D01*
X130113284Y-102175502D01*
X130152845Y-102119797D01*
X130181433Y-102043830D01*
X130200590Y-101942750D01*
X130211856Y-101811707D01*
X130216774Y-101645851D01*
X130217334Y-101546041D01*
X130217334Y-101197833D01*
X130429000Y-101197833D01*
X130429000Y-100943833D01*
X130364109Y-100943833D01*
X130295518Y-100938817D01*
X130252018Y-100918784D01*
X130228173Y-100876261D01*
X130218546Y-100803773D01*
X130217334Y-100742005D01*
X130217334Y-100584000D01*
X129921000Y-100584000D01*
X129921000Y-100943833D01*
G36*
X116400491Y-101605291D02*
X116406084Y-102266750D01*
X121459625Y-102272085D01*
X126513167Y-102277420D01*
X126513167Y-100943833D01*
X116394897Y-100943833D01*
X116400491Y-101605291D01*
X116400491Y-101605291D01*
G37*
X116400491Y-101605291D02*
X116406084Y-102266750D01*
X121459625Y-102272085D01*
X126513167Y-102277420D01*
X126513167Y-100943833D01*
X116394897Y-100943833D01*
X116400491Y-101605291D01*
G36*
X136376834Y-100689833D02*
X136694334Y-100689833D01*
X136694334Y-100393500D01*
X136376834Y-100393500D01*
X136376834Y-100689833D01*
X136376834Y-100689833D01*
G37*
X136376834Y-100689833D02*
X136694334Y-100689833D01*
X136694334Y-100393500D01*
X136376834Y-100393500D01*
X136376834Y-100689833D01*
G36*
X133963834Y-100689833D02*
X134108473Y-100689833D01*
X134183159Y-100687905D01*
X134240161Y-100682848D01*
X134267187Y-100675757D01*
X134267223Y-100675722D01*
X134274568Y-100648653D01*
X134279671Y-100592153D01*
X134281334Y-100527555D01*
X134281334Y-100393500D01*
X133963834Y-100393500D01*
X133963834Y-100689833D01*
X133963834Y-100689833D01*
G37*
X133963834Y-100689833D02*
X134108473Y-100689833D01*
X134183159Y-100687905D01*
X134240161Y-100682848D01*
X134267187Y-100675757D01*
X134267223Y-100675722D01*
X134274568Y-100648653D01*
X134279671Y-100592153D01*
X134281334Y-100527555D01*
X134281334Y-100393500D01*
X133963834Y-100393500D01*
X133963834Y-100689833D01*
G36*
X179069970Y-88846081D02*
X178909149Y-88882830D01*
X178774507Y-88951712D01*
X178664592Y-89053409D01*
X178596956Y-89152617D01*
X178562957Y-89219512D01*
X178542021Y-89281887D01*
X178530216Y-89355707D01*
X178523969Y-89448950D01*
X178527230Y-89609124D01*
X178555299Y-89741168D01*
X178611120Y-89853200D01*
X178697637Y-89953340D01*
X178711476Y-89966073D01*
X178818545Y-90045728D01*
X178938246Y-90099770D01*
X179081891Y-90132739D01*
X179147002Y-90140882D01*
X179281667Y-90154679D01*
X179281667Y-89484312D01*
X179091167Y-89484312D01*
X179091048Y-89624360D01*
X179089176Y-89726624D01*
X179083284Y-89795651D01*
X179071104Y-89835987D01*
X179050365Y-89852179D01*
X179018800Y-89848773D01*
X178974140Y-89830315D01*
X178929315Y-89808664D01*
X178833349Y-89741460D01*
X178771617Y-89649368D01*
X178744166Y-89532466D01*
X178742623Y-89492589D01*
X178760401Y-89365968D01*
X178811706Y-89261679D01*
X178893497Y-89183752D01*
X179002730Y-89136222D01*
X179013430Y-89133657D01*
X179091167Y-89116124D01*
X179091167Y-89484312D01*
X179281667Y-89484312D01*
X179281667Y-89108303D01*
X179350459Y-89122800D01*
X179470185Y-89161617D01*
X179558292Y-89222867D01*
X179610472Y-89290905D01*
X179651228Y-89394590D01*
X179662287Y-89506641D01*
X179645617Y-89616544D01*
X179603184Y-89713785D01*
X179536953Y-89787849D01*
X179514759Y-89802797D01*
X179480887Y-89825426D01*
X179461791Y-89850913D01*
X179453253Y-89891270D01*
X179451054Y-89958505D01*
X179451000Y-89984347D01*
X179451000Y-90128234D01*
X179530375Y-90095297D01*
X179660833Y-90019677D01*
X179765408Y-89911224D01*
X179821417Y-89820212D01*
X179857148Y-89742058D01*
X179878201Y-89668311D01*
X179889062Y-89580276D01*
X179892036Y-89525958D01*
X179884095Y-89354150D01*
X179843823Y-89206956D01*
X179769743Y-89080004D01*
X179723264Y-89026536D01*
X179625828Y-88943177D01*
X179517490Y-88886897D01*
X179388203Y-88853680D01*
X179258420Y-88840780D01*
X179069970Y-88846081D01*
X179069970Y-88846081D01*
G37*
X179069970Y-88846081D02*
X178909149Y-88882830D01*
X178774507Y-88951712D01*
X178664592Y-89053409D01*
X178596956Y-89152617D01*
X178562957Y-89219512D01*
X178542021Y-89281887D01*
X178530216Y-89355707D01*
X178523969Y-89448950D01*
X178527230Y-89609124D01*
X178555299Y-89741168D01*
X178611120Y-89853200D01*
X178697637Y-89953340D01*
X178711476Y-89966073D01*
X178818545Y-90045728D01*
X178938246Y-90099770D01*
X179081891Y-90132739D01*
X179147002Y-90140882D01*
X179281667Y-90154679D01*
X179281667Y-89484312D01*
X179091167Y-89484312D01*
X179091048Y-89624360D01*
X179089176Y-89726624D01*
X179083284Y-89795651D01*
X179071104Y-89835987D01*
X179050365Y-89852179D01*
X179018800Y-89848773D01*
X178974140Y-89830315D01*
X178929315Y-89808664D01*
X178833349Y-89741460D01*
X178771617Y-89649368D01*
X178744166Y-89532466D01*
X178742623Y-89492589D01*
X178760401Y-89365968D01*
X178811706Y-89261679D01*
X178893497Y-89183752D01*
X179002730Y-89136222D01*
X179013430Y-89133657D01*
X179091167Y-89116124D01*
X179091167Y-89484312D01*
X179281667Y-89484312D01*
X179281667Y-89108303D01*
X179350459Y-89122800D01*
X179470185Y-89161617D01*
X179558292Y-89222867D01*
X179610472Y-89290905D01*
X179651228Y-89394590D01*
X179662287Y-89506641D01*
X179645617Y-89616544D01*
X179603184Y-89713785D01*
X179536953Y-89787849D01*
X179514759Y-89802797D01*
X179480887Y-89825426D01*
X179461791Y-89850913D01*
X179453253Y-89891270D01*
X179451054Y-89958505D01*
X179451000Y-89984347D01*
X179451000Y-90128234D01*
X179530375Y-90095297D01*
X179660833Y-90019677D01*
X179765408Y-89911224D01*
X179821417Y-89820212D01*
X179857148Y-89742058D01*
X179878201Y-89668311D01*
X179889062Y-89580276D01*
X179892036Y-89525958D01*
X179884095Y-89354150D01*
X179843823Y-89206956D01*
X179769743Y-89080004D01*
X179723264Y-89026536D01*
X179625828Y-88943177D01*
X179517490Y-88886897D01*
X179388203Y-88853680D01*
X179258420Y-88840780D01*
X179069970Y-88846081D01*
G36*
X126746000Y-90043000D02*
X136842500Y-90043000D01*
X136842500Y-88709500D01*
X126746000Y-88709500D01*
X126746000Y-90043000D01*
X126746000Y-90043000D01*
G37*
X126746000Y-90043000D02*
X136842500Y-90043000D01*
X136842500Y-88709500D01*
X126746000Y-88709500D01*
X126746000Y-90043000D01*
G36*
X178540834Y-87795100D02*
X178535762Y-87856070D01*
X178515600Y-87894906D01*
X178472928Y-87916352D01*
X178400325Y-87925150D01*
X178335517Y-87926333D01*
X178181000Y-87926333D01*
X178181000Y-88222666D01*
X178540834Y-88222666D01*
X178540834Y-88519000D01*
X178794834Y-88519000D01*
X178794834Y-88222666D01*
X179174322Y-88222666D01*
X179322335Y-88223069D01*
X179433339Y-88225722D01*
X179512659Y-88232790D01*
X179565618Y-88246439D01*
X179597541Y-88268835D01*
X179613751Y-88302144D01*
X179619574Y-88348532D01*
X179620334Y-88404095D01*
X179620334Y-88519000D01*
X179874334Y-88519000D01*
X179874334Y-88360678D01*
X179865195Y-88219323D01*
X179836463Y-88111348D01*
X179786166Y-88031641D01*
X179729323Y-87984948D01*
X179700630Y-87968565D01*
X179670188Y-87956234D01*
X179631511Y-87947252D01*
X179578111Y-87940915D01*
X179503501Y-87936520D01*
X179401195Y-87933361D01*
X179264706Y-87930736D01*
X179223459Y-87930064D01*
X178794834Y-87923212D01*
X178794834Y-87714666D01*
X178540834Y-87714666D01*
X178540834Y-87795100D01*
X178540834Y-87795100D01*
G37*
X178540834Y-87795100D02*
X178535762Y-87856070D01*
X178515600Y-87894906D01*
X178472928Y-87916352D01*
X178400325Y-87925150D01*
X178335517Y-87926333D01*
X178181000Y-87926333D01*
X178181000Y-88222666D01*
X178540834Y-88222666D01*
X178540834Y-88519000D01*
X178794834Y-88519000D01*
X178794834Y-88222666D01*
X179174322Y-88222666D01*
X179322335Y-88223069D01*
X179433339Y-88225722D01*
X179512659Y-88232790D01*
X179565618Y-88246439D01*
X179597541Y-88268835D01*
X179613751Y-88302144D01*
X179619574Y-88348532D01*
X179620334Y-88404095D01*
X179620334Y-88519000D01*
X179874334Y-88519000D01*
X179874334Y-88360678D01*
X179865195Y-88219323D01*
X179836463Y-88111348D01*
X179786166Y-88031641D01*
X179729323Y-87984948D01*
X179700630Y-87968565D01*
X179670188Y-87956234D01*
X179631511Y-87947252D01*
X179578111Y-87940915D01*
X179503501Y-87936520D01*
X179401195Y-87933361D01*
X179264706Y-87930736D01*
X179223459Y-87930064D01*
X178794834Y-87923212D01*
X178794834Y-87714666D01*
X178540834Y-87714666D01*
X178540834Y-87795100D01*
G36*
X179319859Y-86251087D02*
X179251655Y-86297813D01*
X179198199Y-86353139D01*
X179158535Y-86416803D01*
X179130447Y-86496248D01*
X179111716Y-86598922D01*
X179100127Y-86732268D01*
X179096031Y-86820375D01*
X179085645Y-87100833D01*
X178991039Y-87100833D01*
X178924085Y-87095159D01*
X178873450Y-87072017D01*
X178824467Y-87028866D01*
X178784039Y-86984574D01*
X178762452Y-86944379D01*
X178753887Y-86891939D01*
X178752500Y-86826732D01*
X178763358Y-86705075D01*
X178797148Y-86616323D01*
X178855696Y-86556685D01*
X178891490Y-86537965D01*
X178931505Y-86519249D01*
X178953231Y-86497558D01*
X178962252Y-86460621D01*
X178964151Y-86396166D01*
X178964167Y-86378236D01*
X178964167Y-86248875D01*
X178896828Y-86262342D01*
X178770439Y-86307394D01*
X178668493Y-86386011D01*
X178592334Y-86496279D01*
X178543305Y-86636287D01*
X178523131Y-86793916D01*
X178531446Y-86960262D01*
X178569938Y-87104073D01*
X178636662Y-87222090D01*
X178729674Y-87311051D01*
X178847029Y-87367696D01*
X178868946Y-87373799D01*
X178923581Y-87382196D01*
X179010074Y-87389255D01*
X179117955Y-87394378D01*
X179236754Y-87396968D01*
X179278726Y-87397166D01*
X179392509Y-87397993D01*
X179492848Y-87400270D01*
X179571353Y-87403689D01*
X179619636Y-87407942D01*
X179629186Y-87410014D01*
X179655043Y-87440258D01*
X179662667Y-87484097D01*
X179665082Y-87520062D01*
X179679522Y-87538184D01*
X179716780Y-87544570D01*
X179770889Y-87545333D01*
X179879111Y-87545333D01*
X179870567Y-87394125D01*
X179864478Y-87313135D01*
X179854273Y-87261357D01*
X179835096Y-87225674D01*
X179802095Y-87192972D01*
X179793399Y-87185628D01*
X179751896Y-87148060D01*
X179740109Y-87124658D01*
X179753630Y-87104537D01*
X179758768Y-87100126D01*
X179818473Y-87025314D01*
X179861887Y-86915992D01*
X179880335Y-86814773D01*
X179672284Y-86814773D01*
X179643167Y-86922179D01*
X179586813Y-87009571D01*
X179507623Y-87070717D01*
X179409997Y-87099388D01*
X179382209Y-87100754D01*
X179302834Y-87100833D01*
X179302834Y-86856454D01*
X179303367Y-86750570D01*
X179306000Y-86678172D01*
X179312283Y-86630413D01*
X179323768Y-86598449D01*
X179342004Y-86573435D01*
X179354788Y-86560121D01*
X179424239Y-86515366D01*
X179498394Y-86507234D01*
X179568759Y-86532125D01*
X179626838Y-86586440D01*
X179664136Y-86666579D01*
X179669765Y-86693582D01*
X179672284Y-86814773D01*
X179880335Y-86814773D01*
X179887138Y-86777453D01*
X179891210Y-86725439D01*
X179894644Y-86633620D01*
X179891152Y-86568249D01*
X179878196Y-86513669D01*
X179853236Y-86454223D01*
X179844201Y-86435493D01*
X179776503Y-86330876D01*
X179690561Y-86262001D01*
X179579911Y-86223948D01*
X179562154Y-86220812D01*
X179431655Y-86217118D01*
X179319859Y-86251087D01*
X179319859Y-86251087D01*
G37*
X179319859Y-86251087D02*
X179251655Y-86297813D01*
X179198199Y-86353139D01*
X179158535Y-86416803D01*
X179130447Y-86496248D01*
X179111716Y-86598922D01*
X179100127Y-86732268D01*
X179096031Y-86820375D01*
X179085645Y-87100833D01*
X178991039Y-87100833D01*
X178924085Y-87095159D01*
X178873450Y-87072017D01*
X178824467Y-87028866D01*
X178784039Y-86984574D01*
X178762452Y-86944379D01*
X178753887Y-86891939D01*
X178752500Y-86826732D01*
X178763358Y-86705075D01*
X178797148Y-86616323D01*
X178855696Y-86556685D01*
X178891490Y-86537965D01*
X178931505Y-86519249D01*
X178953231Y-86497558D01*
X178962252Y-86460621D01*
X178964151Y-86396166D01*
X178964167Y-86378236D01*
X178964167Y-86248875D01*
X178896828Y-86262342D01*
X178770439Y-86307394D01*
X178668493Y-86386011D01*
X178592334Y-86496279D01*
X178543305Y-86636287D01*
X178523131Y-86793916D01*
X178531446Y-86960262D01*
X178569938Y-87104073D01*
X178636662Y-87222090D01*
X178729674Y-87311051D01*
X178847029Y-87367696D01*
X178868946Y-87373799D01*
X178923581Y-87382196D01*
X179010074Y-87389255D01*
X179117955Y-87394378D01*
X179236754Y-87396968D01*
X179278726Y-87397166D01*
X179392509Y-87397993D01*
X179492848Y-87400270D01*
X179571353Y-87403689D01*
X179619636Y-87407942D01*
X179629186Y-87410014D01*
X179655043Y-87440258D01*
X179662667Y-87484097D01*
X179665082Y-87520062D01*
X179679522Y-87538184D01*
X179716780Y-87544570D01*
X179770889Y-87545333D01*
X179879111Y-87545333D01*
X179870567Y-87394125D01*
X179864478Y-87313135D01*
X179854273Y-87261357D01*
X179835096Y-87225674D01*
X179802095Y-87192972D01*
X179793399Y-87185628D01*
X179751896Y-87148060D01*
X179740109Y-87124658D01*
X179753630Y-87104537D01*
X179758768Y-87100126D01*
X179818473Y-87025314D01*
X179861887Y-86915992D01*
X179880335Y-86814773D01*
X179672284Y-86814773D01*
X179643167Y-86922179D01*
X179586813Y-87009571D01*
X179507623Y-87070717D01*
X179409997Y-87099388D01*
X179382209Y-87100754D01*
X179302834Y-87100833D01*
X179302834Y-86856454D01*
X179303367Y-86750570D01*
X179306000Y-86678172D01*
X179312283Y-86630413D01*
X179323768Y-86598449D01*
X179342004Y-86573435D01*
X179354788Y-86560121D01*
X179424239Y-86515366D01*
X179498394Y-86507234D01*
X179568759Y-86532125D01*
X179626838Y-86586440D01*
X179664136Y-86666579D01*
X179669765Y-86693582D01*
X179672284Y-86814773D01*
X179880335Y-86814773D01*
X179887138Y-86777453D01*
X179891210Y-86725439D01*
X179894644Y-86633620D01*
X179891152Y-86568249D01*
X179878196Y-86513669D01*
X179853236Y-86454223D01*
X179844201Y-86435493D01*
X179776503Y-86330876D01*
X179690561Y-86262001D01*
X179579911Y-86223948D01*
X179562154Y-86220812D01*
X179431655Y-86217118D01*
X179319859Y-86251087D01*
G36*
X178545115Y-84629625D02*
X178551417Y-84761916D01*
X178643339Y-84772500D01*
X178735261Y-84783083D01*
X178678321Y-84836000D01*
X178596543Y-84940505D01*
X178544175Y-85073187D01*
X178524500Y-85197420D01*
X178530225Y-85366900D01*
X178572286Y-85516573D01*
X178649532Y-85644320D01*
X178760812Y-85748019D01*
X178852882Y-85802520D01*
X178970934Y-85843531D01*
X179112036Y-85866939D01*
X179260376Y-85871929D01*
X179400141Y-85857687D01*
X179486297Y-85835169D01*
X179635867Y-85762568D01*
X179752334Y-85663752D01*
X179834890Y-85539874D01*
X179882732Y-85392087D01*
X179895500Y-85249859D01*
X179889580Y-85189490D01*
X179641421Y-85189490D01*
X179625032Y-85319066D01*
X179575019Y-85423492D01*
X179489840Y-85505237D01*
X179419250Y-85545351D01*
X179355542Y-85563049D01*
X179266507Y-85573079D01*
X179168518Y-85575079D01*
X179077946Y-85568687D01*
X179013170Y-85554320D01*
X178936722Y-85510059D01*
X178861968Y-85441802D01*
X178805746Y-85365080D01*
X178803527Y-85360926D01*
X178780384Y-85283699D01*
X178774449Y-85186510D01*
X178785234Y-85087854D01*
X178812254Y-85006226D01*
X178812899Y-85005003D01*
X178883682Y-84914275D01*
X178981125Y-84847756D01*
X179096200Y-84806879D01*
X179219880Y-84793079D01*
X179343139Y-84807793D01*
X179456948Y-84852455D01*
X179515798Y-84893256D01*
X179587080Y-84970193D01*
X179627293Y-85059794D01*
X179641276Y-85173467D01*
X179641421Y-85189490D01*
X179889580Y-85189490D01*
X179880269Y-85094566D01*
X179835910Y-84961299D01*
X179769084Y-84861216D01*
X179707387Y-84793666D01*
X180403500Y-84793666D01*
X180403500Y-84497333D01*
X178538814Y-84497333D01*
X178545115Y-84629625D01*
X178545115Y-84629625D01*
G37*
X178545115Y-84629625D02*
X178551417Y-84761916D01*
X178643339Y-84772500D01*
X178735261Y-84783083D01*
X178678321Y-84836000D01*
X178596543Y-84940505D01*
X178544175Y-85073187D01*
X178524500Y-85197420D01*
X178530225Y-85366900D01*
X178572286Y-85516573D01*
X178649532Y-85644320D01*
X178760812Y-85748019D01*
X178852882Y-85802520D01*
X178970934Y-85843531D01*
X179112036Y-85866939D01*
X179260376Y-85871929D01*
X179400141Y-85857687D01*
X179486297Y-85835169D01*
X179635867Y-85762568D01*
X179752334Y-85663752D01*
X179834890Y-85539874D01*
X179882732Y-85392087D01*
X179895500Y-85249859D01*
X179889580Y-85189490D01*
X179641421Y-85189490D01*
X179625032Y-85319066D01*
X179575019Y-85423492D01*
X179489840Y-85505237D01*
X179419250Y-85545351D01*
X179355542Y-85563049D01*
X179266507Y-85573079D01*
X179168518Y-85575079D01*
X179077946Y-85568687D01*
X179013170Y-85554320D01*
X178936722Y-85510059D01*
X178861968Y-85441802D01*
X178805746Y-85365080D01*
X178803527Y-85360926D01*
X178780384Y-85283699D01*
X178774449Y-85186510D01*
X178785234Y-85087854D01*
X178812254Y-85006226D01*
X178812899Y-85005003D01*
X178883682Y-84914275D01*
X178981125Y-84847756D01*
X179096200Y-84806879D01*
X179219880Y-84793079D01*
X179343139Y-84807793D01*
X179456948Y-84852455D01*
X179515798Y-84893256D01*
X179587080Y-84970193D01*
X179627293Y-85059794D01*
X179641276Y-85173467D01*
X179641421Y-85189490D01*
X179889580Y-85189490D01*
X179880269Y-85094566D01*
X179835910Y-84961299D01*
X179769084Y-84861216D01*
X179707387Y-84793666D01*
X180403500Y-84793666D01*
X180403500Y-84497333D01*
X178538814Y-84497333D01*
X178545115Y-84629625D01*
G36*
X112765763Y-82997856D02*
X112762188Y-83020787D01*
X112757275Y-83079642D01*
X112751326Y-83168131D01*
X112744645Y-83279964D01*
X112737537Y-83408851D01*
X112730306Y-83548502D01*
X112723256Y-83692627D01*
X112716690Y-83834937D01*
X112710912Y-83969141D01*
X112706227Y-84088949D01*
X112702939Y-84188072D01*
X112701351Y-84260219D01*
X112701767Y-84299101D01*
X112702640Y-84304028D01*
X112724515Y-84306132D01*
X112786755Y-84310270D01*
X112887447Y-84316338D01*
X113024676Y-84324236D01*
X113196528Y-84333860D01*
X113401088Y-84345109D01*
X113636444Y-84357882D01*
X113900679Y-84372076D01*
X114191881Y-84387590D01*
X114508135Y-84404321D01*
X114847528Y-84422168D01*
X115208144Y-84441029D01*
X115588070Y-84460802D01*
X115985391Y-84481385D01*
X116398194Y-84502675D01*
X116824565Y-84524573D01*
X117262589Y-84546974D01*
X117364451Y-84552170D01*
X117807604Y-84574775D01*
X118241034Y-84596904D01*
X118662724Y-84618452D01*
X119070659Y-84639316D01*
X119462824Y-84659392D01*
X119837205Y-84678577D01*
X120191785Y-84696766D01*
X120524549Y-84713858D01*
X120833482Y-84729746D01*
X121116570Y-84744329D01*
X121371796Y-84757503D01*
X121597145Y-84769162D01*
X121790603Y-84779205D01*
X121950154Y-84787528D01*
X122073782Y-84794026D01*
X122159473Y-84798596D01*
X122205211Y-84801135D01*
X122208580Y-84801339D01*
X122401909Y-84813375D01*
X122414841Y-84618312D01*
X122423023Y-84488945D01*
X122431317Y-84347144D01*
X122439440Y-84198978D01*
X122447107Y-84050513D01*
X122454034Y-83907815D01*
X122459936Y-83776951D01*
X122464529Y-83663987D01*
X122467529Y-83574991D01*
X122468652Y-83516029D01*
X122467613Y-83493167D01*
X122467578Y-83493128D01*
X122445960Y-83491274D01*
X122384355Y-83487420D01*
X122285046Y-83481683D01*
X122150313Y-83474179D01*
X121982440Y-83465025D01*
X121783707Y-83454338D01*
X121556396Y-83442233D01*
X121302790Y-83428827D01*
X121025169Y-83414237D01*
X120725815Y-83398579D01*
X120407011Y-83381970D01*
X120071037Y-83364526D01*
X119720177Y-83346364D01*
X119356711Y-83327600D01*
X118982920Y-83308351D01*
X118601088Y-83288732D01*
X118213496Y-83268862D01*
X117822425Y-83248855D01*
X117430157Y-83228829D01*
X117038974Y-83208900D01*
X116651158Y-83189184D01*
X116268990Y-83169798D01*
X115894752Y-83150859D01*
X115530726Y-83132483D01*
X115179193Y-83114786D01*
X114842436Y-83097885D01*
X114522736Y-83081897D01*
X114222375Y-83066937D01*
X113943635Y-83053123D01*
X113688796Y-83040571D01*
X113460142Y-83029397D01*
X113259953Y-83019717D01*
X113090513Y-83011649D01*
X112954101Y-83005309D01*
X112853000Y-83000813D01*
X112789492Y-82998278D01*
X112765859Y-82997820D01*
X112765763Y-82997856D01*
X112765763Y-82997856D01*
G37*
X112765763Y-82997856D02*
X112762188Y-83020787D01*
X112757275Y-83079642D01*
X112751326Y-83168131D01*
X112744645Y-83279964D01*
X112737537Y-83408851D01*
X112730306Y-83548502D01*
X112723256Y-83692627D01*
X112716690Y-83834937D01*
X112710912Y-83969141D01*
X112706227Y-84088949D01*
X112702939Y-84188072D01*
X112701351Y-84260219D01*
X112701767Y-84299101D01*
X112702640Y-84304028D01*
X112724515Y-84306132D01*
X112786755Y-84310270D01*
X112887447Y-84316338D01*
X113024676Y-84324236D01*
X113196528Y-84333860D01*
X113401088Y-84345109D01*
X113636444Y-84357882D01*
X113900679Y-84372076D01*
X114191881Y-84387590D01*
X114508135Y-84404321D01*
X114847528Y-84422168D01*
X115208144Y-84441029D01*
X115588070Y-84460802D01*
X115985391Y-84481385D01*
X116398194Y-84502675D01*
X116824565Y-84524573D01*
X117262589Y-84546974D01*
X117364451Y-84552170D01*
X117807604Y-84574775D01*
X118241034Y-84596904D01*
X118662724Y-84618452D01*
X119070659Y-84639316D01*
X119462824Y-84659392D01*
X119837205Y-84678577D01*
X120191785Y-84696766D01*
X120524549Y-84713858D01*
X120833482Y-84729746D01*
X121116570Y-84744329D01*
X121371796Y-84757503D01*
X121597145Y-84769162D01*
X121790603Y-84779205D01*
X121950154Y-84787528D01*
X122073782Y-84794026D01*
X122159473Y-84798596D01*
X122205211Y-84801135D01*
X122208580Y-84801339D01*
X122401909Y-84813375D01*
X122414841Y-84618312D01*
X122423023Y-84488945D01*
X122431317Y-84347144D01*
X122439440Y-84198978D01*
X122447107Y-84050513D01*
X122454034Y-83907815D01*
X122459936Y-83776951D01*
X122464529Y-83663987D01*
X122467529Y-83574991D01*
X122468652Y-83516029D01*
X122467613Y-83493167D01*
X122467578Y-83493128D01*
X122445960Y-83491274D01*
X122384355Y-83487420D01*
X122285046Y-83481683D01*
X122150313Y-83474179D01*
X121982440Y-83465025D01*
X121783707Y-83454338D01*
X121556396Y-83442233D01*
X121302790Y-83428827D01*
X121025169Y-83414237D01*
X120725815Y-83398579D01*
X120407011Y-83381970D01*
X120071037Y-83364526D01*
X119720177Y-83346364D01*
X119356711Y-83327600D01*
X118982920Y-83308351D01*
X118601088Y-83288732D01*
X118213496Y-83268862D01*
X117822425Y-83248855D01*
X117430157Y-83228829D01*
X117038974Y-83208900D01*
X116651158Y-83189184D01*
X116268990Y-83169798D01*
X115894752Y-83150859D01*
X115530726Y-83132483D01*
X115179193Y-83114786D01*
X114842436Y-83097885D01*
X114522736Y-83081897D01*
X114222375Y-83066937D01*
X113943635Y-83053123D01*
X113688796Y-83040571D01*
X113460142Y-83029397D01*
X113259953Y-83019717D01*
X113090513Y-83011649D01*
X112954101Y-83005309D01*
X112853000Y-83000813D01*
X112789492Y-82998278D01*
X112765859Y-82997820D01*
X112765763Y-82997856D01*
G36*
X177990500Y-84074000D02*
X178286834Y-84074000D01*
X178286834Y-83756500D01*
X177990500Y-83756500D01*
X177990500Y-84074000D01*
X177990500Y-84074000D01*
G37*
X177990500Y-84074000D02*
X178286834Y-84074000D01*
X178286834Y-83756500D01*
X177990500Y-83756500D01*
X177990500Y-84074000D01*
G36*
X178540834Y-84052833D02*
X179874334Y-84052833D01*
X179874334Y-83777666D01*
X178540834Y-83777666D01*
X178540834Y-84052833D01*
X178540834Y-84052833D01*
G37*
X178540834Y-84052833D02*
X179874334Y-84052833D01*
X179874334Y-83777666D01*
X178540834Y-83777666D01*
X178540834Y-84052833D01*
G36*
X179482691Y-82254738D02*
X179473332Y-82309531D01*
X179472167Y-82367515D01*
X179473274Y-82441214D01*
X179479771Y-82484311D01*
X179496426Y-82508532D01*
X179528007Y-82525603D01*
X179538171Y-82529870D01*
X179611061Y-82578249D01*
X179658052Y-82654160D01*
X179680870Y-82761147D01*
X179683755Y-82828834D01*
X179681379Y-82910634D01*
X179671432Y-82965383D01*
X179649854Y-83008214D01*
X179628102Y-83036319D01*
X179582883Y-83080702D01*
X179537708Y-83096732D01*
X179497913Y-83096151D01*
X179444172Y-83084054D01*
X179401865Y-83054396D01*
X179367749Y-83001513D01*
X179338580Y-82919738D01*
X179311115Y-82803408D01*
X179301087Y-82752329D01*
X179268714Y-82602698D01*
X179234109Y-82489388D01*
X179194584Y-82406388D01*
X179147454Y-82347688D01*
X179106188Y-82316415D01*
X179034556Y-82289158D01*
X178943165Y-82275787D01*
X178850614Y-82277279D01*
X178775498Y-82294611D01*
X178766984Y-82298586D01*
X178667364Y-82372932D01*
X178591478Y-82479030D01*
X178541678Y-82612095D01*
X178520319Y-82767343D01*
X178519667Y-82801429D01*
X178533993Y-82974158D01*
X178576422Y-83117860D01*
X178646133Y-83231232D01*
X178742303Y-83312967D01*
X178864111Y-83361764D01*
X178874209Y-83364049D01*
X178943000Y-83378863D01*
X178943000Y-83239882D01*
X178942114Y-83165115D01*
X178936126Y-83121041D01*
X178920039Y-83096019D01*
X178888858Y-83078410D01*
X178870323Y-83070534D01*
X178795663Y-83017686D01*
X178749288Y-82933681D01*
X178731527Y-82819154D01*
X178731334Y-82804000D01*
X178742398Y-82700155D01*
X178773374Y-82619668D01*
X178820931Y-82569621D01*
X178846461Y-82559015D01*
X178907503Y-82551017D01*
X178956877Y-82563856D01*
X178997455Y-82601708D01*
X179032104Y-82668749D01*
X179063695Y-82769156D01*
X179095097Y-82907104D01*
X179099036Y-82926615D01*
X179133592Y-83078463D01*
X179171098Y-83193222D01*
X179215491Y-83276125D01*
X179270712Y-83332403D01*
X179340700Y-83367291D01*
X179429392Y-83386019D01*
X179446315Y-83387942D01*
X179550732Y-83385134D01*
X179631793Y-83358135D01*
X179739094Y-83285347D01*
X179818582Y-83180729D01*
X179870188Y-83044426D01*
X179893839Y-82876585D01*
X179895500Y-82811535D01*
X179881314Y-82647389D01*
X179840251Y-82504904D01*
X179774552Y-82388676D01*
X179686461Y-82303300D01*
X179632581Y-82272639D01*
X179555136Y-82240538D01*
X179507566Y-82233155D01*
X179482691Y-82254738D01*
X179482691Y-82254738D01*
G37*
X179482691Y-82254738D02*
X179473332Y-82309531D01*
X179472167Y-82367515D01*
X179473274Y-82441214D01*
X179479771Y-82484311D01*
X179496426Y-82508532D01*
X179528007Y-82525603D01*
X179538171Y-82529870D01*
X179611061Y-82578249D01*
X179658052Y-82654160D01*
X179680870Y-82761147D01*
X179683755Y-82828834D01*
X179681379Y-82910634D01*
X179671432Y-82965383D01*
X179649854Y-83008214D01*
X179628102Y-83036319D01*
X179582883Y-83080702D01*
X179537708Y-83096732D01*
X179497913Y-83096151D01*
X179444172Y-83084054D01*
X179401865Y-83054396D01*
X179367749Y-83001513D01*
X179338580Y-82919738D01*
X179311115Y-82803408D01*
X179301087Y-82752329D01*
X179268714Y-82602698D01*
X179234109Y-82489388D01*
X179194584Y-82406388D01*
X179147454Y-82347688D01*
X179106188Y-82316415D01*
X179034556Y-82289158D01*
X178943165Y-82275787D01*
X178850614Y-82277279D01*
X178775498Y-82294611D01*
X178766984Y-82298586D01*
X178667364Y-82372932D01*
X178591478Y-82479030D01*
X178541678Y-82612095D01*
X178520319Y-82767343D01*
X178519667Y-82801429D01*
X178533993Y-82974158D01*
X178576422Y-83117860D01*
X178646133Y-83231232D01*
X178742303Y-83312967D01*
X178864111Y-83361764D01*
X178874209Y-83364049D01*
X178943000Y-83378863D01*
X178943000Y-83239882D01*
X178942114Y-83165115D01*
X178936126Y-83121041D01*
X178920039Y-83096019D01*
X178888858Y-83078410D01*
X178870323Y-83070534D01*
X178795663Y-83017686D01*
X178749288Y-82933681D01*
X178731527Y-82819154D01*
X178731334Y-82804000D01*
X178742398Y-82700155D01*
X178773374Y-82619668D01*
X178820931Y-82569621D01*
X178846461Y-82559015D01*
X178907503Y-82551017D01*
X178956877Y-82563856D01*
X178997455Y-82601708D01*
X179032104Y-82668749D01*
X179063695Y-82769156D01*
X179095097Y-82907104D01*
X179099036Y-82926615D01*
X179133592Y-83078463D01*
X179171098Y-83193222D01*
X179215491Y-83276125D01*
X179270712Y-83332403D01*
X179340700Y-83367291D01*
X179429392Y-83386019D01*
X179446315Y-83387942D01*
X179550732Y-83385134D01*
X179631793Y-83358135D01*
X179739094Y-83285347D01*
X179818582Y-83180729D01*
X179870188Y-83044426D01*
X179893839Y-82876585D01*
X179895500Y-82811535D01*
X179881314Y-82647389D01*
X179840251Y-82504904D01*
X179774552Y-82388676D01*
X179686461Y-82303300D01*
X179632581Y-82272639D01*
X179555136Y-82240538D01*
X179507566Y-82233155D01*
X179482691Y-82254738D01*
G36*
X179485384Y-80810861D02*
X179474104Y-80861793D01*
X179472167Y-80930465D01*
X179473090Y-81004699D01*
X179479252Y-81048344D01*
X179495745Y-81073144D01*
X179527658Y-81090843D01*
X179544845Y-81098131D01*
X179613911Y-81143784D01*
X179658380Y-81215241D01*
X179680442Y-81317158D01*
X179683834Y-81393741D01*
X179681171Y-81474772D01*
X179670326Y-81529281D01*
X179647013Y-81572899D01*
X179628102Y-81596985D01*
X179582883Y-81641369D01*
X179537708Y-81657399D01*
X179497913Y-81656818D01*
X179444259Y-81644785D01*
X179402033Y-81615303D01*
X179368003Y-81562706D01*
X179338938Y-81481330D01*
X179311605Y-81365508D01*
X179301089Y-81311750D01*
X179267546Y-81158944D01*
X179230407Y-81043107D01*
X179187113Y-80958886D01*
X179135102Y-80900929D01*
X179091054Y-80872574D01*
X179013847Y-80847611D01*
X178921478Y-80836773D01*
X178832294Y-80840816D01*
X178766984Y-80859252D01*
X178667423Y-80933564D01*
X178591535Y-81039620D01*
X178541705Y-81172575D01*
X178520321Y-81327581D01*
X178519667Y-81361618D01*
X178533955Y-81534367D01*
X178576316Y-81678490D01*
X178645997Y-81792460D01*
X178742244Y-81874749D01*
X178783375Y-81896380D01*
X178861326Y-81928748D01*
X178908945Y-81936251D01*
X178932981Y-81914448D01*
X178940184Y-81858897D01*
X178938676Y-81794173D01*
X178934069Y-81718019D01*
X178926066Y-81673931D01*
X178910745Y-81651644D01*
X178884189Y-81640894D01*
X178879738Y-81639816D01*
X178817217Y-81604763D01*
X178768357Y-81537562D01*
X178738350Y-81447544D01*
X178731334Y-81373115D01*
X178743158Y-81259027D01*
X178777387Y-81175848D01*
X178832156Y-81126114D01*
X178905601Y-81112360D01*
X178921843Y-81114072D01*
X178969753Y-81133482D01*
X179009426Y-81179140D01*
X179043109Y-81255543D01*
X179073053Y-81367189D01*
X179089495Y-81449333D01*
X179108883Y-81548656D01*
X179128533Y-81638666D01*
X179145685Y-81707217D01*
X179154403Y-81735083D01*
X179212994Y-81835160D01*
X179297468Y-81906364D01*
X179400294Y-81945817D01*
X179513943Y-81950641D01*
X179630885Y-81917958D01*
X179631793Y-81917547D01*
X179737262Y-81847137D01*
X179816669Y-81744510D01*
X179869105Y-81611499D01*
X179893660Y-81449934D01*
X179895500Y-81385833D01*
X179881398Y-81215239D01*
X179840174Y-81069208D01*
X179773456Y-80951236D01*
X179682867Y-80864822D01*
X179642136Y-80840791D01*
X179562749Y-80803870D01*
X179512716Y-80792723D01*
X179485384Y-80810861D01*
X179485384Y-80810861D01*
G37*
X179485384Y-80810861D02*
X179474104Y-80861793D01*
X179472167Y-80930465D01*
X179473090Y-81004699D01*
X179479252Y-81048344D01*
X179495745Y-81073144D01*
X179527658Y-81090843D01*
X179544845Y-81098131D01*
X179613911Y-81143784D01*
X179658380Y-81215241D01*
X179680442Y-81317158D01*
X179683834Y-81393741D01*
X179681171Y-81474772D01*
X179670326Y-81529281D01*
X179647013Y-81572899D01*
X179628102Y-81596985D01*
X179582883Y-81641369D01*
X179537708Y-81657399D01*
X179497913Y-81656818D01*
X179444259Y-81644785D01*
X179402033Y-81615303D01*
X179368003Y-81562706D01*
X179338938Y-81481330D01*
X179311605Y-81365508D01*
X179301089Y-81311750D01*
X179267546Y-81158944D01*
X179230407Y-81043107D01*
X179187113Y-80958886D01*
X179135102Y-80900929D01*
X179091054Y-80872574D01*
X179013847Y-80847611D01*
X178921478Y-80836773D01*
X178832294Y-80840816D01*
X178766984Y-80859252D01*
X178667423Y-80933564D01*
X178591535Y-81039620D01*
X178541705Y-81172575D01*
X178520321Y-81327581D01*
X178519667Y-81361618D01*
X178533955Y-81534367D01*
X178576316Y-81678490D01*
X178645997Y-81792460D01*
X178742244Y-81874749D01*
X178783375Y-81896380D01*
X178861326Y-81928748D01*
X178908945Y-81936251D01*
X178932981Y-81914448D01*
X178940184Y-81858897D01*
X178938676Y-81794173D01*
X178934069Y-81718019D01*
X178926066Y-81673931D01*
X178910745Y-81651644D01*
X178884189Y-81640894D01*
X178879738Y-81639816D01*
X178817217Y-81604763D01*
X178768357Y-81537562D01*
X178738350Y-81447544D01*
X178731334Y-81373115D01*
X178743158Y-81259027D01*
X178777387Y-81175848D01*
X178832156Y-81126114D01*
X178905601Y-81112360D01*
X178921843Y-81114072D01*
X178969753Y-81133482D01*
X179009426Y-81179140D01*
X179043109Y-81255543D01*
X179073053Y-81367189D01*
X179089495Y-81449333D01*
X179108883Y-81548656D01*
X179128533Y-81638666D01*
X179145685Y-81707217D01*
X179154403Y-81735083D01*
X179212994Y-81835160D01*
X179297468Y-81906364D01*
X179400294Y-81945817D01*
X179513943Y-81950641D01*
X179630885Y-81917958D01*
X179631793Y-81917547D01*
X179737262Y-81847137D01*
X179816669Y-81744510D01*
X179869105Y-81611499D01*
X179893660Y-81449934D01*
X179895500Y-81385833D01*
X179881398Y-81215239D01*
X179840174Y-81069208D01*
X179773456Y-80951236D01*
X179682867Y-80864822D01*
X179642136Y-80840791D01*
X179562749Y-80803870D01*
X179512716Y-80792723D01*
X179485384Y-80810861D01*
G36*
X122592425Y-78920833D02*
X122530571Y-78924151D01*
X122431054Y-78930139D01*
X122296155Y-78938640D01*
X122128158Y-78949495D01*
X121929344Y-78962546D01*
X121701996Y-78977634D01*
X121448395Y-78994601D01*
X121170824Y-79013289D01*
X120871566Y-79033539D01*
X120552901Y-79055193D01*
X120217114Y-79078092D01*
X119866485Y-79102079D01*
X119503297Y-79126994D01*
X119129832Y-79152680D01*
X118748373Y-79178978D01*
X118361202Y-79205730D01*
X117970600Y-79232777D01*
X117578850Y-79259961D01*
X117188235Y-79287123D01*
X116801036Y-79314106D01*
X116419536Y-79340751D01*
X116046017Y-79366899D01*
X115682761Y-79392392D01*
X115332051Y-79417072D01*
X114996168Y-79440781D01*
X114677395Y-79463359D01*
X114378013Y-79484650D01*
X114100306Y-79504493D01*
X113846556Y-79522732D01*
X113619044Y-79539207D01*
X113420053Y-79553760D01*
X113251865Y-79566233D01*
X113116763Y-79576467D01*
X113017028Y-79584305D01*
X112954943Y-79589587D01*
X112932789Y-79592156D01*
X112932781Y-79592164D01*
X112930610Y-79615832D01*
X112931117Y-79675282D01*
X112933938Y-79764070D01*
X112938711Y-79875752D01*
X112945072Y-80003887D01*
X112952659Y-80142031D01*
X112961109Y-80283742D01*
X112970058Y-80422575D01*
X112979144Y-80552089D01*
X112988003Y-80665840D01*
X112996274Y-80757385D01*
X113000740Y-80798458D01*
X113012806Y-80899000D01*
X113100778Y-80896445D01*
X113129918Y-80894766D01*
X113199359Y-80890300D01*
X113307170Y-80883180D01*
X113451419Y-80873537D01*
X113630175Y-80861503D01*
X113841508Y-80847210D01*
X114083484Y-80830789D01*
X114354174Y-80812372D01*
X114651646Y-80792091D01*
X114973968Y-80770078D01*
X115319209Y-80746463D01*
X115685438Y-80721380D01*
X116070723Y-80694960D01*
X116473133Y-80667334D01*
X116890736Y-80638634D01*
X117321602Y-80608992D01*
X117763799Y-80578540D01*
X117940667Y-80566351D01*
X118385635Y-80535647D01*
X118819401Y-80505650D01*
X119240074Y-80476493D01*
X119645766Y-80448310D01*
X120034588Y-80421235D01*
X120404651Y-80395399D01*
X120754065Y-80370937D01*
X121080941Y-80347981D01*
X121383390Y-80326666D01*
X121659523Y-80307123D01*
X121907451Y-80289488D01*
X122125284Y-80273891D01*
X122311134Y-80260468D01*
X122463111Y-80249351D01*
X122579326Y-80240674D01*
X122657890Y-80234569D01*
X122696914Y-80231171D01*
X122701065Y-80230577D01*
X122701633Y-80208512D01*
X122699495Y-80150480D01*
X122695067Y-80062735D01*
X122688761Y-79951530D01*
X122680991Y-79823116D01*
X122672172Y-79683746D01*
X122662717Y-79539672D01*
X122653040Y-79397148D01*
X122643555Y-79262424D01*
X122634676Y-79141755D01*
X122626817Y-79041392D01*
X122620392Y-78967588D01*
X122615814Y-78926596D01*
X122614333Y-78920345D01*
X122592425Y-78920833D01*
X122592425Y-78920833D01*
G37*
X122592425Y-78920833D02*
X122530571Y-78924151D01*
X122431054Y-78930139D01*
X122296155Y-78938640D01*
X122128158Y-78949495D01*
X121929344Y-78962546D01*
X121701996Y-78977634D01*
X121448395Y-78994601D01*
X121170824Y-79013289D01*
X120871566Y-79033539D01*
X120552901Y-79055193D01*
X120217114Y-79078092D01*
X119866485Y-79102079D01*
X119503297Y-79126994D01*
X119129832Y-79152680D01*
X118748373Y-79178978D01*
X118361202Y-79205730D01*
X117970600Y-79232777D01*
X117578850Y-79259961D01*
X117188235Y-79287123D01*
X116801036Y-79314106D01*
X116419536Y-79340751D01*
X116046017Y-79366899D01*
X115682761Y-79392392D01*
X115332051Y-79417072D01*
X114996168Y-79440781D01*
X114677395Y-79463359D01*
X114378013Y-79484650D01*
X114100306Y-79504493D01*
X113846556Y-79522732D01*
X113619044Y-79539207D01*
X113420053Y-79553760D01*
X113251865Y-79566233D01*
X113116763Y-79576467D01*
X113017028Y-79584305D01*
X112954943Y-79589587D01*
X112932789Y-79592156D01*
X112932781Y-79592164D01*
X112930610Y-79615832D01*
X112931117Y-79675282D01*
X112933938Y-79764070D01*
X112938711Y-79875752D01*
X112945072Y-80003887D01*
X112952659Y-80142031D01*
X112961109Y-80283742D01*
X112970058Y-80422575D01*
X112979144Y-80552089D01*
X112988003Y-80665840D01*
X112996274Y-80757385D01*
X113000740Y-80798458D01*
X113012806Y-80899000D01*
X113100778Y-80896445D01*
X113129918Y-80894766D01*
X113199359Y-80890300D01*
X113307170Y-80883180D01*
X113451419Y-80873537D01*
X113630175Y-80861503D01*
X113841508Y-80847210D01*
X114083484Y-80830789D01*
X114354174Y-80812372D01*
X114651646Y-80792091D01*
X114973968Y-80770078D01*
X115319209Y-80746463D01*
X115685438Y-80721380D01*
X116070723Y-80694960D01*
X116473133Y-80667334D01*
X116890736Y-80638634D01*
X117321602Y-80608992D01*
X117763799Y-80578540D01*
X117940667Y-80566351D01*
X118385635Y-80535647D01*
X118819401Y-80505650D01*
X119240074Y-80476493D01*
X119645766Y-80448310D01*
X120034588Y-80421235D01*
X120404651Y-80395399D01*
X120754065Y-80370937D01*
X121080941Y-80347981D01*
X121383390Y-80326666D01*
X121659523Y-80307123D01*
X121907451Y-80289488D01*
X122125284Y-80273891D01*
X122311134Y-80260468D01*
X122463111Y-80249351D01*
X122579326Y-80240674D01*
X122657890Y-80234569D01*
X122696914Y-80231171D01*
X122701065Y-80230577D01*
X122701633Y-80208512D01*
X122699495Y-80150480D01*
X122695067Y-80062735D01*
X122688761Y-79951530D01*
X122680991Y-79823116D01*
X122672172Y-79683746D01*
X122662717Y-79539672D01*
X122653040Y-79397148D01*
X122643555Y-79262424D01*
X122634676Y-79141755D01*
X122626817Y-79041392D01*
X122620392Y-78967588D01*
X122615814Y-78926596D01*
X122614333Y-78920345D01*
X122592425Y-78920833D01*
G36*
X177990500Y-80454500D02*
X178286834Y-80454500D01*
X178286834Y-80137000D01*
X177990500Y-80137000D01*
X177990500Y-80454500D01*
X177990500Y-80454500D01*
G37*
X177990500Y-80454500D02*
X178286834Y-80454500D01*
X178286834Y-80137000D01*
X177990500Y-80137000D01*
X177990500Y-80454500D01*
G36*
X178540834Y-80433333D02*
X179874334Y-80433333D01*
X179874334Y-80137000D01*
X178540834Y-80137000D01*
X178540834Y-80433333D01*
X178540834Y-80433333D01*
G37*
X178540834Y-80433333D02*
X179874334Y-80433333D01*
X179874334Y-80137000D01*
X178540834Y-80137000D01*
X178540834Y-80433333D01*
G36*
X179002254Y-78346290D02*
X178858500Y-78397216D01*
X178734990Y-78475884D01*
X178695908Y-78512255D01*
X178616601Y-78604998D01*
X178565685Y-78694965D01*
X178536720Y-78797234D01*
X178523936Y-78914979D01*
X178526845Y-79066873D01*
X178557204Y-79193373D01*
X178617651Y-79303388D01*
X178651460Y-79345475D01*
X178714553Y-79417333D01*
X177927000Y-79417333D01*
X177927000Y-79692500D01*
X179874334Y-79692500D01*
X179874334Y-79443306D01*
X179690870Y-79415794D01*
X179759582Y-79342938D01*
X179834714Y-79233994D01*
X179879939Y-79104459D01*
X179895633Y-78963320D01*
X179895526Y-78962171D01*
X179643766Y-78962171D01*
X179637667Y-79083166D01*
X179598042Y-79194630D01*
X179528601Y-79289337D01*
X179433055Y-79360061D01*
X179325767Y-79397637D01*
X179259303Y-79409729D01*
X179211827Y-79413532D01*
X179163640Y-79408734D01*
X179095046Y-79395020D01*
X179089743Y-79393883D01*
X178984918Y-79354662D01*
X178890045Y-79288996D01*
X178818075Y-79207015D01*
X178794760Y-79163153D01*
X178775168Y-79073923D01*
X178777323Y-78968848D01*
X178799010Y-78865858D01*
X178838015Y-78782888D01*
X178842465Y-78776798D01*
X178926541Y-78697237D01*
X179030919Y-78644732D01*
X179147334Y-78618616D01*
X179267522Y-78618222D01*
X179383217Y-78642886D01*
X179486156Y-78691940D01*
X179568075Y-78764719D01*
X179612629Y-78838873D01*
X179643766Y-78962171D01*
X179895526Y-78962171D01*
X179882174Y-78819567D01*
X179839941Y-78682185D01*
X179769309Y-78560163D01*
X179724539Y-78508794D01*
X179608197Y-78420579D01*
X179469222Y-78360250D01*
X179316190Y-78327778D01*
X179157675Y-78323135D01*
X179002254Y-78346290D01*
X179002254Y-78346290D01*
G37*
X179002254Y-78346290D02*
X178858500Y-78397216D01*
X178734990Y-78475884D01*
X178695908Y-78512255D01*
X178616601Y-78604998D01*
X178565685Y-78694965D01*
X178536720Y-78797234D01*
X178523936Y-78914979D01*
X178526845Y-79066873D01*
X178557204Y-79193373D01*
X178617651Y-79303388D01*
X178651460Y-79345475D01*
X178714553Y-79417333D01*
X177927000Y-79417333D01*
X177927000Y-79692500D01*
X179874334Y-79692500D01*
X179874334Y-79443306D01*
X179690870Y-79415794D01*
X179759582Y-79342938D01*
X179834714Y-79233994D01*
X179879939Y-79104459D01*
X179895633Y-78963320D01*
X179895526Y-78962171D01*
X179643766Y-78962171D01*
X179637667Y-79083166D01*
X179598042Y-79194630D01*
X179528601Y-79289337D01*
X179433055Y-79360061D01*
X179325767Y-79397637D01*
X179259303Y-79409729D01*
X179211827Y-79413532D01*
X179163640Y-79408734D01*
X179095046Y-79395020D01*
X179089743Y-79393883D01*
X178984918Y-79354662D01*
X178890045Y-79288996D01*
X178818075Y-79207015D01*
X178794760Y-79163153D01*
X178775168Y-79073923D01*
X178777323Y-78968848D01*
X178799010Y-78865858D01*
X178838015Y-78782888D01*
X178842465Y-78776798D01*
X178926541Y-78697237D01*
X179030919Y-78644732D01*
X179147334Y-78618616D01*
X179267522Y-78618222D01*
X179383217Y-78642886D01*
X179486156Y-78691940D01*
X179568075Y-78764719D01*
X179612629Y-78838873D01*
X179643766Y-78962171D01*
X179895526Y-78962171D01*
X179882174Y-78819567D01*
X179839941Y-78682185D01*
X179769309Y-78560163D01*
X179724539Y-78508794D01*
X179608197Y-78420579D01*
X179469222Y-78360250D01*
X179316190Y-78327778D01*
X179157675Y-78323135D01*
X179002254Y-78346290D01*
G36*
X149314959Y-78004414D02*
X144261417Y-78009750D01*
X144261417Y-79343250D01*
X149314959Y-79348585D01*
X154368500Y-79353920D01*
X154368500Y-77999079D01*
X149314959Y-78004414D01*
X149314959Y-78004414D01*
G37*
X149314959Y-78004414D02*
X144261417Y-78009750D01*
X144261417Y-79343250D01*
X149314959Y-79348585D01*
X154368500Y-79353920D01*
X154368500Y-77999079D01*
X149314959Y-78004414D01*
%LPC*%
D12*
X118535000Y-97470000D03*
X118535000Y-105730000D03*
X112585000Y-106090000D03*
X112585000Y-97110000D03*
D13*
X119785000Y-105200000D03*
D14*
X119785000Y-98000000D03*
D15*
X176530000Y-106045000D03*
X185420000Y-97155000D03*
X185420000Y-106045000D03*
X190500000Y-106045000D03*
X190500000Y-97155000D03*
X176530000Y-97155000D03*
M02*
